<svg width="115" height="26" viewBox="0 0 115 26" fill="none" xmlns="http://www.w3.org/2000/svg">
<path d="M1 24V2.96845C1 2.01066 2.21662 1.60082 2.79616 2.36337L18.7801 23.3949C19.2805 24.0533 18.811 25 17.984 25H2C1.44772 25 1 24.5523 1 24Z" fill="white" stroke="white" stroke-width="0.5"/>
<path d="M72 24V2.96845C72 2.01066 73.2166 1.60082 73.7962 2.36337L89.7801 23.3949C90.2805 24.0533 89.811 25 88.984 25H73C72.4477 25 72 24.5523 72 24Z" fill="white" stroke="white" stroke-width="0.5"/>
<rect x="23" y="2" width="20" height="10" rx="1" fill="white" stroke="white" stroke-width="0.5"/>
<rect x="23" y="15" width="20" height="10" rx="1" fill="white" stroke="white" stroke-width="0.5"/>
<rect x="94" y="2" width="20" height="10" rx="1" fill="white" stroke="white" stroke-width="0.5"/>
<rect x="94" y="15" width="20" height="10" rx="1" fill="white" stroke="white" stroke-width="0.5"/>
<path fill-rule="evenodd" clip-rule="evenodd" d="M67.9501 14.8754C68.5497 14.8754 69.0178 15.4011 68.8879 15.9864C67.7437 21.1424 63.1153 25 57.5796 25C51.1844 25 46 19.8513 46 13.5C46 7.14873 51.1844 2 57.5796 2C63.067 2 67.6628 5.79058 68.8572 10.879C68.9952 11.4669 68.5259 12 67.922 12H61.0506C60.6806 12 60.3506 11.7872 60.1195 11.4983C59.5255 10.7558 58.6085 10.2798 57.5795 10.2798C55.7888 10.2798 54.3372 11.7214 54.3372 13.4998C54.3372 15.2781 55.7888 16.7198 57.5795 16.7198C58.6478 16.7198 59.5954 16.2067 60.1861 15.415C60.4168 15.106 60.7574 14.8754 61.1431 14.8754H67.9501Z" fill="white"/>
<path d="M60.1861 15.415L59.9858 15.2655L60.1861 15.415ZM68.8572 10.879L69.1006 10.8218L68.8572 10.879ZM57.5796 25.25C63.2338 25.25 67.9626 21.3097 69.132 16.0406L68.6439 15.9322C67.5247 20.9752 62.9967 24.75 57.5796 24.75V25.25ZM45.75 13.5C45.75 19.991 51.0479 25.25 57.5796 25.25V24.75C51.3208 24.75 46.25 19.7116 46.25 13.5H45.75ZM57.5796 1.75C51.0479 1.75 45.75 7.00903 45.75 13.5H46.25C46.25 7.28842 51.3208 2.25 57.5796 2.25V1.75ZM69.1006 10.8218C67.8801 5.62191 63.1845 1.75 57.5796 1.75V2.25C62.9494 2.25 67.4456 5.95925 68.6138 10.9361L69.1006 10.8218ZM61.0506 12.25H67.922V11.75H61.0506V12.25ZM60.3147 11.3421C59.6751 10.5426 58.6873 10.0298 57.5795 10.0298V10.5298C58.5297 10.5298 59.3759 10.9691 59.9243 11.6545L60.3147 11.3421ZM57.5795 10.0298C55.6523 10.0298 54.0872 11.5817 54.0872 13.4998H54.5872C54.5872 11.8611 55.9252 10.5298 57.5795 10.5298V10.0298ZM54.0872 13.4998C54.0872 15.4178 55.6523 16.9698 57.5795 16.9698V16.4698C55.9252 16.4698 54.5872 15.1384 54.5872 13.4998H54.0872ZM57.5795 16.9698C58.7296 16.9698 59.7504 16.417 60.3865 15.5645L59.9858 15.2655C59.4405 15.9963 58.566 16.4698 57.5795 16.4698V16.9698ZM67.9501 14.6254H61.1431V15.1254H67.9501V14.6254ZM61.0506 11.75C60.7797 11.75 60.515 11.5926 60.3147 11.3421L59.9243 11.6545C60.1862 11.9819 60.5815 12.25 61.0506 12.25V11.75ZM60.3865 15.5645C60.5868 15.2961 60.8608 15.1254 61.1431 15.1254V14.6254C60.654 14.6254 60.2467 14.9158 59.9858 15.2655L60.3865 15.5645ZM68.6138 10.9361C68.7109 11.3497 68.3831 11.75 67.922 11.75V12.25C68.6687 12.25 69.2795 11.5841 69.1006 10.8218L68.6138 10.9361ZM69.132 16.0406C69.3004 15.282 68.6915 14.6254 67.9501 14.6254V15.1254C68.4079 15.1254 68.7353 15.5202 68.6439 15.9322L69.132 16.0406Z" fill="white"/>
</svg>
