<svg width="36" height="36" viewBox="0 0 36 36" fill="none" xmlns="http://www.w3.org/2000/svg">
<path d="M6.38842 24.8908C4.71114 22.0633 4.12374 18.7207 4.73652 15.4908C5.34931 12.2608 7.12013 9.3657 9.71646 7.349C12.3128 5.33229 15.556 4.33275 18.8372 4.53808C22.1183 4.7434 25.2116 6.13946 27.5363 8.46411C29.861 10.7888 31.257 13.8821 31.4624 17.1632C31.6677 20.4444 30.6682 23.6876 28.6515 26.2839C26.6348 28.8803 23.7397 30.6511 20.5097 31.2639C17.2798 31.8767 13.9372 31.2893 11.1097 29.6121L11.1098 29.6119L6.44712 30.9441C6.25421 30.9992 6.05007 31.0017 5.85586 30.9514C5.66164 30.9011 5.48442 30.7998 5.34256 30.6579C5.20069 30.516 5.09934 30.3388 5.04902 30.1446C4.99869 29.9504 5.00122 29.7462 5.05634 29.5533L6.38852 24.8907L6.38842 24.8908Z" stroke="white" stroke-width="2" stroke-linecap="round" stroke-linejoin="round"/>
<path d="M13.5 15.75H22.5" stroke="white" stroke-width="2" stroke-linecap="round" stroke-linejoin="round"/>
<path d="M13.5 20.25H22.5" stroke="white" stroke-width="2" stroke-linecap="round" stroke-linejoin="round"/>
</svg>
