<svg width="124" height="16" viewBox="0 0 124 16" fill="none" xmlns="http://www.w3.org/2000/svg">
<path d="M83.1826 0H86.0824V2.89979H83.1826V0Z" fill="white"/>
<path d="M0 4.14258V15.7417H5.68359C8.41768 15.7417 10.141 14.499 10.141 12.5271C10.141 11.0192 9.21305 9.87588 7.75487 9.59418C8.98106 9.24621 9.74329 8.26857 9.74329 7.04237C9.74329 5.26935 8.08627 4.14258 5.48475 4.14258H0ZM2.93293 6.39613H5.31904C6.1807 6.39613 6.72751 6.82696 6.72751 7.57262C6.72751 8.31828 6.1807 8.78224 5.31904 8.78224H2.93293V6.39613ZM2.93293 10.9032H5.31904C6.41268 10.9032 7.09206 11.3838 7.09206 12.1626C7.09206 12.9911 6.41268 13.4716 5.31904 13.4716H2.93293V10.9032ZM22.2844 4.14258H19.3515V10.8701C19.3515 12.4443 18.407 13.4053 17.0151 13.4053C15.6066 13.4053 14.5958 12.4443 14.5958 10.8701V4.14258H11.6463V10.8701C11.6463 13.9356 13.7342 15.8743 16.9985 15.8743C20.2463 15.8743 22.2844 13.9356 22.2844 10.8701V4.14258ZM27.3517 15.7417V4.14258H24.4022V15.7417H27.3517ZM32.627 13.2728V4.14258H29.6775V15.7417H37.5484V13.2728H32.627ZM38.9497 4.14258V15.7417H43.8214C47.5497 15.7417 50.1015 13.3722 50.1015 9.94216C50.1015 6.49555 47.5828 4.14258 43.9374 4.14258H38.9497ZM41.8992 6.49555H43.8711C45.7435 6.49555 47.1023 7.90402 47.1023 9.95873C47.1023 11.9969 45.8098 13.3888 44.0037 13.3888H41.8992V6.49555ZM65.9431 4.14258H63.0101V10.8701C63.0101 12.4443 62.0656 13.4053 60.6737 13.4053C59.2652 13.4053 58.2545 12.4443 58.2545 10.8701V4.14258H55.305V10.8701C55.305 13.9356 57.3928 15.8743 60.6571 15.8743C63.9049 15.8743 65.9431 13.9356 65.9431 10.8701V4.14258ZM68.0609 4.14258V15.7417H71.0104V12.4774H73.1148C76.0809 12.4774 77.7876 10.9032 77.7876 8.18572C77.7876 5.60076 76.0809 4.14258 73.1148 4.14258H68.0609ZM71.0104 6.46241H72.9657C74.2582 6.46241 75.0038 7.07551 75.0038 8.28514C75.0038 9.51133 74.2582 10.1576 72.9657 10.1576H71.0104V6.46241ZM86.1246 15.7417V4.14258H83.1751V15.7417H86.1246ZM88.4502 4.14258V15.7417H93.3219C97.0502 15.7417 99.602 13.3722 99.602 9.94216C99.602 6.49555 97.0833 4.14258 93.4379 4.14258H88.4502ZM91.3997 6.49555H93.3716C95.244 6.49555 96.6028 7.90402 96.6028 9.95873C96.6028 11.9969 95.3103 13.3888 93.5042 13.3888H91.3997V6.49555ZM110.233 6.46241V4.14258H101.153V15.7417H110.416V13.4219H104.102V11.0855H109.637V8.76567H104.102V6.46241H110.233ZM120.023 13.6042L120.852 15.7417H124L119.112 4.14258H116.079L111.075 15.7417H114.108L114.953 13.6042H120.023ZM119.161 11.3672H115.814L117.504 7.07551L119.161 11.3672Z" fill="white"/>
</svg>
