<svg width="508" height="611" viewBox="0 0 508 611" fill="none" xmlns="http://www.w3.org/2000/svg">
<line y1="0.5" x2="508" y2="0.5" stroke="#1A1A1A"/>
<path d="M9.285 27.005H6.135V25.52H4.155V27.005H0.99V28.55H9.285V27.005ZM3.6 31.7C3.6 30.98 4.23 30.59 5.145 30.59C6.075 30.59 6.69 30.98 6.69 31.7C6.69 32.405 6.075 32.795 5.145 32.795C4.23 32.795 3.6 32.405 3.6 31.7ZM6.135 34.19C7.605 33.905 8.565 32.975 8.565 31.7C8.565 30.14 7.155 29.09 5.145 29.09C3.12 29.09 1.71 30.14 1.71 31.7C1.71 32.975 2.67 33.905 4.155 34.19V35.36C2.925 35.39 1.755 35.39 0.72 35.39L0.96 36.995C3.405 36.995 6.6 36.98 9.615 36.425L9.465 35C8.385 35.15 7.26 35.225 6.135 35.285V34.19ZM10.185 25.475V39.29H12.165V25.475H10.185ZM19.5288 26.54H17.5338V28.55C17.5338 31.115 16.4838 33.755 14.1588 34.85L15.3438 36.455C16.9038 35.69 17.9388 34.235 18.5388 32.48C19.1088 34.13 20.0838 35.465 21.5238 36.2L22.7238 34.64C20.5038 33.545 19.5288 31.04 19.5288 28.55V26.54ZM27.2688 30.785H25.2588V25.475H23.2788V39.29H25.2588V32.435H27.2688V30.785ZM33.3877 31.265H30.7627V28.04H33.3877V31.265ZM37.8127 29.045V30.23H35.3227V29.045H37.8127ZM35.3227 31.805H37.8127V33.575H39.7927V25.475H37.8127V27.47H35.3227V26.465H28.8127V32.825H35.3227V31.805ZM35.1127 37.775C33.3127 37.775 32.3677 37.4 32.3677 36.605C32.3677 35.81 33.3127 35.435 35.1127 35.435C36.9277 35.435 37.8727 35.81 37.8727 36.605C37.8727 37.4 36.9277 37.775 35.1127 37.775ZM35.1127 33.92C32.1877 33.92 30.3877 34.91 30.3877 36.605C30.3877 38.3 32.1877 39.29 35.1127 39.29C38.0527 39.29 39.8527 38.3 39.8527 36.605C39.8527 34.91 38.0527 33.92 35.1127 33.92Z" fill="#1A1A1A"/>
<path d="M124.995 32.195C127.08 31.835 129.06 30.71 129.885 29.12C130.695 30.71 132.69 31.835 134.775 32.195L135.255 31.22C132.885 30.875 130.56 29.33 130.56 27.56V27.485H134.775V26.495H124.95V27.485H129.195V27.56C129.195 29.33 126.87 30.875 124.53 31.22L124.995 32.195ZM135.96 33.32H123.81V34.325H129.24V39.11H130.47V34.325H135.975L135.96 33.32ZM145.709 31.985C143.714 31.295 142.334 29.54 142.334 27.605V26.285H141.104V27.605C141.104 29.615 139.739 31.49 137.714 32.225L138.344 33.2C139.919 32.6 141.149 31.355 141.734 29.765C142.334 31.25 143.549 32.405 145.094 32.96L145.709 31.985ZM139.634 35.435H147.404V39.125H148.634V34.445H139.634V35.435ZM147.404 25.67V33.755H148.634V25.67H147.404ZM159.928 27.305H156.463V25.67H155.233V27.305H151.753V28.295H159.928V27.305ZM153.778 31.55C153.778 30.605 154.618 30.005 155.848 30.005C157.063 30.005 157.903 30.605 157.903 31.55C157.903 32.48 157.063 33.08 155.848 33.08C154.618 33.08 153.778 32.48 153.778 31.55ZM156.463 34.01C158.053 33.815 159.073 32.885 159.073 31.55C159.073 30.035 157.768 29.06 155.848 29.06C153.928 29.06 152.608 30.035 152.608 31.55C152.608 32.9 153.643 33.83 155.233 34.025V35.465C153.898 35.51 152.608 35.525 151.468 35.525L151.648 36.56C154.123 36.56 157.363 36.515 160.363 36.02L160.273 35.105C159.043 35.27 157.738 35.36 156.463 35.42V34.01ZM161.128 25.67V39.11H162.358V25.67H161.128ZM169.706 26.825H168.491V29.24C168.491 31.685 166.961 34.265 165.026 35.255L165.761 36.245C167.276 35.435 168.521 33.755 169.106 31.79C169.721 33.635 170.936 35.21 172.361 35.975L173.126 35C171.236 34.055 169.706 31.61 169.706 29.24V26.825ZM177.761 31.115H175.541V25.67H174.311V39.11H175.541V32.135H177.761V31.115ZM183.98 31.805H187.58V27.14H182.75V28.145H186.395V30.83H182.795V35.81H183.68C185.39 35.81 186.92 35.735 188.795 35.42L188.69 34.415C186.965 34.715 185.51 34.775 183.98 34.775V31.805ZM189.875 30.485H188.21V31.505H189.875V38.405H191.03V25.985H189.875V30.485ZM192.59 25.655V39.11H193.775V25.655H192.59ZM198.829 36.56H206.854V33.425H197.584V34.385H205.654V35.645H197.614V38.93H207.334V37.97H198.829V36.56ZM206.464 31.16C206.779 29.57 206.779 28.37 206.779 27.32V26.3H197.704V27.275H205.564V27.32C205.564 27.71 205.564 28.13 205.549 28.58L197.374 28.835L197.524 29.81L205.489 29.45C205.429 29.96 205.354 30.53 205.219 31.16H196.174V32.15H208.294V31.16H206.464ZM212.667 40.685H213.672L218.157 26.105H217.167L212.667 40.685ZM223.23 38H229.425V36.815H224.625V27.005H223.23V38ZM231.36 38H237.87V36.815H232.755V32.81H236.925V31.625H232.755V28.175H237.705V27.005H231.36V38ZM244.334 38.195C245.759 38.195 246.839 37.625 247.709 36.62L246.944 35.75C246.239 36.515 245.444 36.98 244.394 36.98C242.294 36.98 240.974 35.24 240.974 32.465C240.974 29.72 242.354 28.01 244.439 28.01C245.384 28.01 246.119 28.445 246.689 29.06L247.439 28.16C246.809 27.455 245.759 26.795 244.424 26.795C241.634 26.795 239.549 28.955 239.549 32.51C239.549 36.08 241.604 38.195 244.334 38.195ZM249.744 38H255.939V36.815H251.139V27.005H249.744V38ZM257.874 38H264.384V36.815H259.269V32.81H263.439V31.625H259.269V28.175H264.219V27.005H257.874V38ZM274.202 38.195C275.627 38.195 276.707 37.625 277.577 36.62L276.812 35.75C276.107 36.515 275.312 36.98 274.262 36.98C272.162 36.98 270.842 35.24 270.842 32.465C270.842 29.72 272.222 28.01 274.307 28.01C275.252 28.01 275.987 28.445 276.557 29.06L277.307 28.16C276.677 27.455 275.627 26.795 274.292 26.795C271.502 26.795 269.417 28.955 269.417 32.51C269.417 36.08 271.472 38.195 274.202 38.195ZM282.657 38.195C284.652 38.195 286.437 36.635 286.437 33.935C286.437 31.22 284.652 29.645 282.657 29.645C280.662 29.645 278.877 31.22 278.877 33.935C278.877 36.635 280.662 38.195 282.657 38.195ZM282.657 37.055C281.247 37.055 280.302 35.81 280.302 33.935C280.302 32.06 281.247 30.785 282.657 30.785C284.067 30.785 285.027 32.06 285.027 33.935C285.027 35.81 284.067 37.055 282.657 37.055ZM288.589 38H289.954V32.765C290.494 31.37 291.334 30.89 292.009 30.89C292.339 30.89 292.534 30.92 292.804 31.025L293.059 29.825C292.804 29.69 292.549 29.645 292.189 29.645C291.274 29.645 290.449 30.305 289.879 31.34H289.834L289.714 29.855H288.589V38ZM294.404 41.435H295.769V38.675L295.739 37.25C296.474 37.85 297.254 38.195 297.989 38.195C299.864 38.195 301.529 36.59 301.529 33.8C301.529 31.295 300.389 29.645 298.289 29.645C297.344 29.645 296.429 30.185 295.694 30.785H295.649L295.529 29.855H294.404V41.435ZM297.764 37.055C297.224 37.055 296.504 36.83 295.769 36.2V31.925C296.564 31.19 297.269 30.8 297.959 30.8C299.504 30.8 300.104 32.015 300.104 33.815C300.104 35.84 299.114 37.055 297.764 37.055ZM304.25 38.195C304.79 38.195 305.24 37.775 305.24 37.16C305.24 36.545 304.79 36.095 304.25 36.095C303.71 36.095 303.26 36.545 303.26 37.16C303.26 37.775 303.71 38.195 304.25 38.195Z" fill="#1A1A1A"/>
<line y1="61.5" x2="508" y2="61.5" stroke="#1A1A1A"/>
<path d="M2.985 89.67H6.15V88.065H1.035V97.185H1.995C3.765 97.185 5.235 97.125 6.915 96.81L6.765 95.205C5.445 95.445 4.275 95.52 2.985 95.55V89.67ZM10.62 86.46V91.785H9.375V86.73H7.53V99.645H9.375V93.375H10.62V100.29H12.495V86.46H10.62ZM19.4838 94.59H21.8688V97.185H19.4838V94.59ZM19.2588 89.145H22.0788V93.03H19.2588V89.145ZM23.8338 97.185V94.59H25.8888V93.03H24.0438V89.145H25.9188V87.57H15.4188V89.145H17.2938V93.03H15.4938V94.59H17.5188V97.185H14.4288V98.775H26.9538V97.185H23.8338ZM33.3127 89.43H36.0577V87.795H28.4677V89.43H31.3327V90.195C31.3327 92.475 30.2077 95.07 27.9427 96.12L29.0527 97.695C30.6277 96.945 31.7377 95.43 32.3527 93.63C32.9677 95.265 34.0477 96.645 35.5777 97.35L36.6727 95.79C34.4077 94.74 33.3127 92.295 33.3127 90.195V89.43ZM41.0677 91.74H39.0577V86.475H37.0777V100.29H39.0577V93.375H41.0677V91.74Z" fill="#1A1A1A"/>
<path d="M130.98 90.15V91.155H133.635V94.68H134.88V86.67H133.635V90.15H130.98ZM131.73 93.21C129.78 92.52 128.46 90.825 128.46 89.1V88.635H131.415V87.645H124.23V88.635H127.23V89.1C127.23 91.035 125.85 92.85 123.84 93.585L124.485 94.56C126.06 93.96 127.305 92.7 127.875 91.14C128.46 92.52 129.615 93.63 131.115 94.17L131.73 93.21ZM130.44 99.15C128.415 99.15 127.185 98.58 127.185 97.605C127.185 96.63 128.415 96.045 130.44 96.045C132.465 96.045 133.695 96.63 133.695 97.605C133.695 98.58 132.465 99.15 130.44 99.15ZM130.44 95.1C127.68 95.1 125.955 96.015 125.955 97.605C125.955 99.195 127.68 100.11 130.44 100.11C133.2 100.11 134.91 99.195 134.91 97.605C134.91 96.015 133.2 95.1 130.44 95.1ZM138.704 94.59C140.729 94.155 142.844 92.82 143.699 90.96C144.554 92.805 146.684 94.125 148.739 94.53L149.234 93.54C146.894 93.165 144.329 91.32 144.329 89.175V88.89H148.784V87.885H138.599V88.89H143.054V89.175C143.054 91.32 140.504 93.195 138.179 93.585L138.704 94.59ZM144.314 97.365V94.11H143.084V97.365H137.594V98.385H149.804V97.365H144.314ZM154.093 95.595H152.878V99.81H162.388V98.805H154.093V95.595ZM161.713 92.43C162.028 90.765 162.028 89.49 162.028 88.395V87.375H152.923V88.38H160.813V88.395C160.813 89.49 160.813 90.735 160.483 92.43H151.393V93.435H155.443V96.675H156.643V93.435H159.013V96.675H160.213V93.435H163.603V92.43H161.713Z" fill="#1A1A1A"/>
<line y1="122.5" x2="508" y2="122.5" stroke="#1A1A1A"/>
<path d="M10.215 154.495H12.195V147.475H10.215V149.5H7.695V151.075H10.215V154.495ZM8.895 152.815C6.735 152.155 5.79 150.55 5.79 148.915V147.925H3.795V148.915C3.795 150.67 2.835 152.365 0.54 153.055L1.56 154.6C3.135 154.105 4.215 153.085 4.83 151.795C5.415 152.95 6.435 153.865 7.89 154.33L8.895 152.815ZM5.055 159.595V158.785H12.195V155.08H3.09V156.595H10.245V157.36H3.105V161.14H12.585V159.595H5.055ZM22.7838 152.98C20.9838 153.28 19.3788 153.34 17.0988 153.355V152.215H21.4938V148.105H15.1338V149.68H19.5438V150.745H15.1488V154.945H16.3638C19.1088 154.945 20.9538 154.9 23.0088 154.555L22.7838 152.98ZM23.9538 159.55H18.6888V158.44H23.9538V159.55ZM23.9538 156.925H18.6888V155.755H16.7238V161.125H25.9188V155.755H23.9538V156.925ZM23.9238 147.475V155.185H25.9188V147.475H23.9238Z" fill="#1A1A1A"/>
<path d="M123.66 160H130.575V158.815H127.53C126.975 158.815 126.3 158.875 125.73 158.92C128.31 156.475 130.035 154.24 130.035 152.05C130.035 150.085 128.805 148.795 126.84 148.795C125.445 148.795 124.5 149.44 123.6 150.415L124.395 151.195C124.995 150.475 125.775 149.92 126.675 149.92C128.04 149.92 128.7 150.835 128.7 152.095C128.7 153.985 127.11 156.175 123.66 159.19V160ZM135.49 160.195C137.575 160.195 138.91 158.29 138.91 154.465C138.91 150.655 137.575 148.795 135.49 148.795C133.39 148.795 132.055 150.64 132.055 154.465C132.055 158.29 133.39 160.195 135.49 160.195ZM135.49 159.1C134.23 159.1 133.39 157.705 133.39 154.465C133.39 151.255 134.23 149.905 135.49 149.905C136.735 149.905 137.575 151.255 137.575 154.465C137.575 157.705 136.735 159.1 135.49 159.1ZM140.961 160H146.991V158.86H144.786V149.005H143.736C143.136 149.35 142.431 149.605 141.456 149.785V150.655H143.406V158.86H140.961V160ZM149.686 155.875L152.191 152.125C152.506 151.585 152.806 151.045 153.076 150.505H153.136C153.106 151.075 153.046 151.96 153.046 152.5V155.875H149.686ZM155.806 155.875H154.351V149.005H152.836L148.261 156.07V156.97H153.046V160H154.351V156.97H155.806V155.875ZM166.916 157.63H168.161V147.67H166.916V149.41H163.121V150.4H166.916V151.99H163.121V152.965H166.916V157.63ZM164.696 154.12C162.686 154.48 160.931 154.585 159.086 154.6V148.63H157.856V155.635H158.876C160.856 155.635 162.671 155.53 164.831 155.14L164.696 154.12ZM160.766 159.805V156.775H159.536V160.81H168.506V159.805H160.766ZM174.755 160H180.785V158.86H178.58V149.005H177.53C176.93 149.35 176.225 149.605 175.25 149.785V150.655H177.2V158.86H174.755V160ZM185.925 160.195C188.01 160.195 189.345 158.29 189.345 154.465C189.345 150.655 188.01 148.795 185.925 148.795C183.825 148.795 182.49 150.64 182.49 154.465C182.49 158.29 183.825 160.195 185.925 160.195ZM185.925 159.1C184.665 159.1 183.825 157.705 183.825 154.465C183.825 151.255 184.665 149.905 185.925 149.905C187.17 149.905 188.01 151.255 188.01 154.465C188.01 157.705 187.17 159.1 185.925 159.1ZM197.98 154.06V154.87H200.65V155.575H201.88V147.67H200.65V154.06H197.98ZM195.175 148.78C196.495 148.78 197.335 149.23 197.335 149.95C197.335 150.64 196.495 151.105 195.175 151.105C193.87 151.105 193.015 150.64 193.015 149.95C193.015 149.23 193.87 148.78 195.175 148.78ZM195.175 151.945C197.17 151.945 198.49 151.18 198.49 149.95C198.49 148.69 197.17 147.925 195.175 147.925C193.18 147.925 191.86 148.69 191.86 149.95C191.86 151.18 193.18 151.945 195.175 151.945ZM194.485 155.62H195.715V153.55C197.02 153.475 198.355 153.37 199.66 153.19L199.585 152.38C196.705 152.71 193.42 152.725 190.825 152.725L190.975 153.655C192.055 153.655 193.24 153.64 194.485 153.61V155.62ZM194.11 160.06V158.875H201.88V156.07H192.865V156.955H200.68V158.035H192.895V160.96H202.345V160.06H194.11ZM208.549 160H214.579V158.86H212.374V149.005H211.324C210.724 149.35 210.019 149.605 209.044 149.785V150.655H210.994V158.86H208.549V160ZM219.464 160.195C221.324 160.195 223.064 158.83 223.064 156.415C223.064 154 221.579 152.92 219.749 152.92C219.089 152.92 218.594 153.085 218.114 153.355L218.384 150.175H222.539V149.005H217.184L216.839 154.15L217.574 154.6C218.204 154.18 218.669 153.955 219.404 153.955C220.784 153.955 221.684 154.885 221.684 156.46C221.684 158.065 220.634 159.055 219.344 159.055C218.069 159.055 217.274 158.47 216.644 157.84L215.969 158.74C216.704 159.475 217.754 160.195 219.464 160.195ZM235.704 147.655H234.474V154.555H235.704V147.655ZM226.164 151.135C226.164 149.965 227.139 149.14 228.444 149.14C229.764 149.14 230.724 149.965 230.724 151.135C230.724 152.29 229.764 153.115 228.444 153.115C227.139 153.115 226.164 152.29 226.164 151.135ZM231.924 151.135C231.924 149.35 230.454 148.135 228.444 148.135C226.434 148.135 224.979 149.35 224.979 151.135C224.979 152.905 226.434 154.105 228.444 154.105C230.454 154.105 231.924 152.905 231.924 151.135ZM228.234 159.955V158.47H235.704V155.215H226.989V156.19H234.489V157.555H227.019V160.93H236.154V159.955H228.234Z" fill="#1A1A1A"/>
<line y1="183.5" x2="508" y2="183.5" stroke="#1A1A1A"/>
<path d="M5.985 211.43H8.835V209.795H1.095V211.43H3.975V212.195C3.975 214.55 2.85 217.085 0.54 218.12L1.665 219.695C3.285 218.96 4.395 217.445 5.01 215.645C5.625 217.31 6.72 218.66 8.325 219.35L9.405 217.79C7.095 216.83 5.985 214.445 5.985 212.195V211.43ZM10.11 208.475V222.29H12.09V208.475H10.11ZM26.2488 212.63C23.1288 212.255 21.6738 210.725 21.6738 209.12V208.715H19.6488V209.12C19.6488 210.68 18.1638 212.255 15.0588 212.63L15.7938 214.175C18.1038 213.845 19.7838 212.87 20.6538 211.505C21.5238 212.885 23.2038 213.845 25.5288 214.175L26.2488 212.63ZM15.8238 219.275H23.4438V222.305H25.4238V217.715H15.8238V219.275ZM21.6588 215.165V213.38H19.6788V215.165H14.4438V216.74H26.9388V215.165H21.6588ZM33.3277 209.54H31.3327V211.55C31.3327 214.115 30.2827 216.755 27.9577 217.85L29.1427 219.455C30.7027 218.69 31.7377 217.235 32.3377 215.48C32.9077 217.13 33.8827 218.465 35.3227 219.2L36.5227 217.64C34.3027 216.545 33.3277 214.04 33.3277 211.55V209.54ZM41.0677 213.785H39.0577V208.475H37.0777V222.29H39.0577V215.435H41.0677V213.785ZM51.6265 220.565H46.4065V219.32H51.6265V220.565ZM51.6265 217.82H46.4065V216.5H44.4415V222.125H53.5915V216.5H51.6265V217.82ZM45.8515 213.995C44.8465 213.995 44.1115 213.38 44.1115 212.345C44.1115 211.31 44.8465 210.695 45.8515 210.695C46.8715 210.695 47.6065 211.31 47.6065 212.345C47.6065 213.38 46.8715 213.995 45.8515 213.995ZM51.6115 208.475V211.52H49.4065C49.0165 210.05 47.6065 209.045 45.8515 209.045C43.7815 209.045 42.2215 210.425 42.2215 212.345C42.2215 214.265 43.7815 215.645 45.8515 215.645C47.6365 215.645 49.0465 214.625 49.4215 213.125H51.6115V215.9H53.5915V208.475H51.6115ZM56.6053 209.9V211.475H61.2103C60.9253 214.535 59.3953 216.695 55.8703 218.39L56.9053 219.95C61.8103 217.58 63.2353 214.13 63.2353 209.9H56.6053ZM65.3503 208.46V222.275H67.3453V208.46H65.3503ZM70.1341 209.51V211.085H74.6341C74.3191 213.02 72.6091 214.625 69.5341 215.465L70.3591 217.04C74.4691 215.855 76.7791 213.26 76.7791 209.51H70.1341ZM73.5691 217.37H71.5891V222.05H80.9791V220.475H73.5691V217.37ZM80.4991 212.33V208.475H78.5191V218.36H80.4991V213.95H82.3441V212.33H80.4991Z" fill="#1A1A1A"/>
<path d="M123.66 221H130.575V219.815H127.53C126.975 219.815 126.3 219.875 125.73 219.92C128.31 217.475 130.035 215.24 130.035 213.05C130.035 211.085 128.805 209.795 126.84 209.795C125.445 209.795 124.5 210.44 123.6 211.415L124.395 212.195C124.995 211.475 125.775 210.92 126.675 210.92C128.04 210.92 128.7 211.835 128.7 213.095C128.7 214.985 127.11 217.175 123.66 220.19V221ZM135.49 221.195C137.575 221.195 138.91 219.29 138.91 215.465C138.91 211.655 137.575 209.795 135.49 209.795C133.39 209.795 132.055 211.64 132.055 215.465C132.055 219.29 133.39 221.195 135.49 221.195ZM135.49 220.1C134.23 220.1 133.39 218.705 133.39 215.465C133.39 212.255 134.23 210.905 135.49 210.905C136.735 210.905 137.575 212.255 137.575 215.465C137.575 218.705 136.735 220.1 135.49 220.1ZM143.811 221.195C145.896 221.195 147.231 219.29 147.231 215.465C147.231 211.655 145.896 209.795 143.811 209.795C141.711 209.795 140.376 211.64 140.376 215.465C140.376 219.29 141.711 221.195 143.811 221.195ZM143.811 220.1C142.551 220.1 141.711 218.705 141.711 215.465C141.711 212.255 142.551 210.905 143.811 210.905C145.056 210.905 145.896 212.255 145.896 215.465C145.896 218.705 145.056 220.1 143.811 220.1ZM150.931 221H152.356C152.521 216.695 153.001 214.145 155.581 210.83V210.005H148.696V211.175H154.021C151.876 214.175 151.111 216.83 150.931 221ZM166.916 218.63H168.161V208.67H166.916V210.41H163.121V211.4H166.916V212.99H163.121V213.965H166.916V218.63ZM164.696 215.12C162.686 215.48 160.931 215.585 159.086 215.6V209.63H157.856V216.635H158.876C160.856 216.635 162.671 216.53 164.831 216.14L164.696 215.12ZM160.766 220.805V217.775H159.536V221.81H168.506V220.805H160.766ZM175.72 216.695C176.44 216.695 177.19 216.245 177.805 215.195L177.025 214.64C176.65 215.36 176.23 215.66 175.75 215.66C174.805 215.66 174.085 214.25 172.78 214.25C172.045 214.25 171.295 214.7 170.68 215.75L171.445 216.29C171.835 215.57 172.255 215.27 172.735 215.27C173.68 215.27 174.385 216.695 175.72 216.695Z" fill="#1A1A1A"/>
<line y1="244.5" x2="508" y2="244.5" stroke="#1A1A1A"/>
<path d="M12.12 269.49H10.125V279.405H12.12V269.49ZM2.775 273.87C2.775 272.73 3.585 272.07 4.605 272.07C5.64 272.07 6.42 272.73 6.42 273.87C6.42 274.98 5.64 275.655 4.605 275.655C3.585 275.655 2.775 274.98 2.775 273.87ZM8.355 273.87C8.355 271.83 6.72 270.36 4.605 270.36C2.49 270.36 0.84 271.83 0.84 273.87C0.84 275.88 2.49 277.365 4.605 277.365C6.72 277.365 8.355 275.88 8.355 273.87ZM4.905 281.475V278.43H2.925V283.05H12.465V281.475H4.905ZM15.6438 275.325C18.2538 275.085 19.9488 274.125 20.6838 272.805C21.4038 274.125 23.1138 275.085 25.7088 275.325L26.3988 273.78C23.7738 273.555 22.4238 272.64 22.1088 271.695H25.7988V270.12H15.5838V271.695H19.2588C18.9438 272.64 17.5938 273.555 14.9838 273.78L15.6438 275.325ZM20.6538 281.775C18.8088 281.775 17.8638 281.445 17.8638 280.725C17.8638 280.005 18.8088 279.69 20.6538 279.69C22.4988 279.69 23.4438 280.005 23.4438 280.725C23.4438 281.445 22.4988 281.775 20.6538 281.775ZM20.6538 278.16C17.6688 278.16 15.8688 279.105 15.8688 280.725C15.8688 282.36 17.6688 283.305 20.6538 283.305C23.6388 283.305 25.4538 282.36 25.4538 280.725C25.4538 279.105 23.6388 278.16 20.6538 278.16ZM14.4438 275.85V277.41H26.9238V275.85H14.4438ZM43.1011 269.49H41.1211V277.32H43.1011V269.49ZM37.1011 274.605H34.2811V271.86H37.1011V274.605ZM39.0361 270.3H32.3311V276.15H39.0361V270.3ZM43.3261 279.525V278.055H39.4711V276.93H37.4611V278.055H33.5911V279.525H37.4161C37.2211 280.485 35.8261 281.535 33.0661 281.775L33.6811 283.245C36.0061 283.05 37.6261 282.24 38.4661 281.175C39.3061 282.225 40.9111 283.05 43.2061 283.245L43.8361 281.775C41.1061 281.55 39.7261 280.44 39.5161 279.525H43.3261ZM60.3134 269.49H58.3184V279.405H60.3134V269.49ZM50.9684 273.87C50.9684 272.73 51.7784 272.07 52.7984 272.07C53.8334 272.07 54.6134 272.73 54.6134 273.87C54.6134 274.98 53.8334 275.655 52.7984 275.655C51.7784 275.655 50.9684 274.98 50.9684 273.87ZM56.5484 273.87C56.5484 271.83 54.9134 270.36 52.7984 270.36C50.6834 270.36 49.0334 271.83 49.0334 273.87C49.0334 275.88 50.6834 277.365 52.7984 277.365C54.9134 277.365 56.5484 275.88 56.5484 273.87ZM53.0984 281.475V278.43H51.1184V283.05H60.6584V281.475H53.0984ZM63.2672 270.885V272.49H67.7822C67.4222 275.55 65.7122 277.74 62.5022 279.39L63.6122 280.905C68.2022 278.58 69.7772 275.025 69.7772 270.885H63.2672ZM75.3872 274.74H73.4522V269.46H71.4722V283.26H73.4522V276.375H75.3872V274.74Z" fill="#1A1A1A"/>
<path d="M124.59 271.11V272.1H129.645C129.39 275.295 127.59 277.875 123.975 279.6L124.635 280.605C129.105 278.415 130.89 274.995 130.89 271.11H124.59ZM133.605 269.655V283.11H134.835V269.655H133.605ZM147.449 281.94H141.284V280.2H147.449V281.94ZM147.449 279.24H141.284V277.545H140.069V282.93H148.679V277.545H147.449V279.24ZM141.269 275.49C139.934 275.49 138.974 274.62 138.974 273.39C138.974 272.16 139.934 271.305 141.269 271.305C142.604 271.305 143.564 272.16 143.564 273.39C143.564 274.62 142.604 275.49 141.269 275.49ZM147.434 269.67V272.865H144.689C144.434 271.305 143.084 270.285 141.269 270.285C139.259 270.285 137.804 271.545 137.804 273.39C137.804 275.25 139.259 276.51 141.269 276.51C143.114 276.51 144.464 275.46 144.704 273.87H147.434V276.885H148.679V269.67H147.434ZM160.813 275.01H154.138V273.03H160.813V275.01ZM162.043 270.195H160.813V272.04H154.138V270.195H152.923V276.015H162.043V270.195ZM163.588 277.635H151.378V278.625H156.838V283.125H158.068V278.625H163.588V277.635ZM175.031 276.615H176.276V269.67H175.031V272.1H172.106V273.105H175.031V276.615ZM173.051 275.37C171.116 274.725 169.751 273.09 169.751 271.335V270.09H168.536V271.335C168.536 273.285 167.201 274.98 165.176 275.67L165.821 276.645C167.396 276.06 168.611 274.89 169.181 273.375C169.766 274.74 170.936 275.805 172.421 276.33L173.051 275.37ZM168.851 281.955V280.515H176.276V277.29H167.606V278.265H175.061V279.585H167.636V282.93H176.786V281.955H168.851ZM180.37 273.885C180.37 272.55 181.345 271.59 182.665 271.59C183.97 271.59 184.945 272.55 184.945 273.885C184.945 275.22 183.97 276.18 182.665 276.18C181.345 276.18 180.37 275.22 180.37 273.885ZM188.83 272.76V274.995H185.935C186.055 274.65 186.115 274.275 186.115 273.885C186.115 273.48 186.055 273.105 185.935 272.76H188.83ZM188.83 275.985V279.6H190.075V269.67H188.83V271.77H185.41C184.78 270.99 183.82 270.51 182.665 270.51C180.685 270.51 179.2 271.92 179.2 273.885C179.2 275.85 180.685 277.26 182.665 277.26C183.82 277.26 184.795 276.78 185.425 275.985H188.83ZM182.71 281.805V278.58H181.465V282.81H190.45V281.805H182.71ZM204.969 276.315H202.974C203.349 274.38 203.349 272.955 203.349 271.695V270.525H194.319V271.515H202.149V271.695C202.149 272.955 202.149 274.38 201.729 276.315H192.804V277.32H198.234V283.125H199.479V277.32H204.969V276.315ZM218.198 276.225C215.843 275.805 213.278 273.825 213.278 271.59V270.555H211.988V271.59C211.988 273.825 209.438 275.805 207.083 276.225L207.593 277.245C209.663 276.81 211.763 275.415 212.633 273.495C213.503 275.415 215.618 276.81 217.673 277.245L218.198 276.225ZM213.248 280.35V277.08H212.018V280.35H206.588V281.355H218.798V280.35H213.248ZM231.427 269.67H230.197V279.495H231.427V269.67ZM221.902 273.9C221.902 272.595 222.892 271.665 224.197 271.665C225.532 271.665 226.522 272.595 226.522 273.9C226.522 275.235 225.532 276.165 224.197 276.165C222.892 276.165 221.902 275.235 221.902 273.9ZM227.722 273.9C227.722 271.965 226.207 270.6 224.197 270.6C222.202 270.6 220.702 271.965 220.702 273.9C220.702 275.85 222.202 277.23 224.197 277.23C226.207 277.23 227.722 275.85 227.722 273.9ZM224.002 281.805V278.49H222.772V282.81H231.832V281.805H224.002ZM235.311 275.235C237.516 274.965 239.526 273.99 240.276 272.52C241.011 273.99 243.036 274.965 245.241 275.235L245.676 274.26C243.291 274.005 241.131 272.835 241.071 271.335H245.256V270.345H235.311V271.335H239.481C239.421 272.835 237.261 274.005 234.876 274.26L235.311 275.235ZM240.261 282.12C238.146 282.12 236.901 281.595 236.901 280.65C236.901 279.72 238.146 279.18 240.261 279.18C242.361 279.18 243.621 279.72 243.621 280.65C243.621 281.595 242.361 282.12 240.261 282.12ZM240.261 278.22C237.381 278.22 235.656 279.09 235.656 280.65C235.656 282.225 237.381 283.095 240.261 283.095C243.126 283.095 244.866 282.225 244.866 280.65C244.866 279.09 243.126 278.22 240.261 278.22ZM234.186 276.06V277.05H246.351V276.06H234.186ZM248.314 284.85C249.664 284.28 250.504 283.155 250.504 281.715C250.504 280.71 250.069 280.095 249.349 280.095C248.794 280.095 248.314 280.47 248.314 281.055C248.314 281.685 248.794 282.015 249.319 282.015C249.379 282.015 249.424 282.015 249.484 282C249.469 282.915 248.914 283.635 247.984 284.04L248.314 284.85ZM266.869 269.67H265.684V279.855H266.869V269.67ZM260.179 276.33H257.284V273.975H260.179V276.33ZM261.334 274.56H263.134V279.465H264.289V269.925H263.134V273.555H261.334V270.735H260.179V273H257.284V270.735H256.114V277.32H261.334V274.56ZM259.324 281.805V278.505H258.094V282.81H267.259V281.805H259.324ZM273.963 272.97H276.948V271.98H273.963V269.895H272.733V271.98H269.703V272.97H272.748V274.005C272.748 276.33 271.308 278.625 269.328 279.57L270.018 280.515C271.548 279.765 272.793 278.205 273.363 276.33C273.963 278.1 275.208 279.555 276.738 280.26L277.413 279.315C275.433 278.43 273.963 276.24 273.963 274.005V272.97ZM279.168 269.64V275.055H276.258V276.06H279.168V283.14H280.398V269.64H279.168ZM283.906 271.11V272.1H288.961C288.706 275.295 286.906 277.875 283.291 279.6L283.951 280.605C288.421 278.415 290.206 274.995 290.206 271.11H283.906ZM292.921 269.655V283.11H294.151V269.655H292.921ZM306.765 281.94H300.6V280.2H306.765V281.94ZM306.765 279.24H300.6V277.545H299.385V282.93H307.995V277.545H306.765V279.24ZM300.585 275.49C299.25 275.49 298.29 274.62 298.29 273.39C298.29 272.16 299.25 271.305 300.585 271.305C301.92 271.305 302.88 272.16 302.88 273.39C302.88 274.62 301.92 275.49 300.585 275.49ZM306.75 269.67V272.865H304.005C303.75 271.305 302.4 270.285 300.585 270.285C298.575 270.285 297.12 271.545 297.12 273.39C297.12 275.25 298.575 276.51 300.585 276.51C302.43 276.51 303.78 275.46 304.02 273.87H306.75V276.885H307.995V269.67H306.75ZM321.749 269.67H320.519V279.495H321.749V269.67ZM312.224 273.9C312.224 272.595 313.214 271.665 314.519 271.665C315.854 271.665 316.844 272.595 316.844 273.9C316.844 275.235 315.854 276.165 314.519 276.165C313.214 276.165 312.224 275.235 312.224 273.9ZM318.044 273.9C318.044 271.965 316.529 270.6 314.519 270.6C312.524 270.6 311.024 271.965 311.024 273.9C311.024 275.85 312.524 277.23 314.519 277.23C316.529 277.23 318.044 275.85 318.044 273.9ZM314.324 281.805V278.49H313.094V282.81H322.154V281.805H314.324ZM325.633 275.235C327.838 274.965 329.848 273.99 330.598 272.52C331.333 273.99 333.358 274.965 335.563 275.235L335.998 274.26C333.613 274.005 331.453 272.835 331.393 271.335H335.578V270.345H325.633V271.335H329.803C329.743 272.835 327.583 274.005 325.198 274.26L325.633 275.235ZM330.583 282.12C328.468 282.12 327.223 281.595 327.223 280.65C327.223 279.72 328.468 279.18 330.583 279.18C332.683 279.18 333.943 279.72 333.943 280.65C333.943 281.595 332.683 282.12 330.583 282.12ZM330.583 278.22C327.703 278.22 325.978 279.09 325.978 280.65C325.978 282.225 327.703 283.095 330.583 283.095C333.448 283.095 335.188 282.225 335.188 280.65C335.188 279.09 333.448 278.22 330.583 278.22ZM324.508 276.06V277.05H336.673V276.06H324.508ZM338.637 284.85C339.987 284.28 340.827 283.155 340.827 281.715C340.827 280.71 340.392 280.095 339.672 280.095C339.117 280.095 338.637 280.47 338.637 281.055C338.637 281.685 339.117 282.015 339.642 282.015C339.702 282.015 339.747 282.015 339.807 282C339.792 282.915 339.237 283.635 338.307 284.04L338.637 284.85ZM346.961 275.145C349.166 274.875 351.191 273.885 351.926 272.4C352.676 273.885 354.686 274.875 356.891 275.145L357.326 274.17C354.971 273.9 352.826 272.745 352.721 271.26H356.906V270.27H346.961V271.26H351.131C351.026 272.745 348.881 273.9 346.526 274.17L346.961 275.145ZM355.271 280.725C355.271 281.625 354.011 282.15 351.911 282.15C349.796 282.15 348.551 281.625 348.551 280.725C348.551 279.825 349.796 279.315 351.911 279.315C354.011 279.315 355.271 279.825 355.271 280.725ZM358.001 276.945V275.955H345.836V276.945H351.296V278.385C348.791 278.505 347.306 279.33 347.306 280.725C347.306 282.255 349.046 283.095 351.926 283.095C354.791 283.095 356.516 282.255 356.516 280.725C356.516 279.33 355.046 278.505 352.541 278.385V276.945H358.001ZM371.245 276.225C368.89 275.805 366.325 273.825 366.325 271.59V270.555H365.035V271.59C365.035 273.825 362.485 275.805 360.13 276.225L360.64 277.245C362.71 276.81 364.81 275.415 365.68 273.495C366.55 275.415 368.665 276.81 370.72 277.245L371.245 276.225ZM366.295 280.35V277.08H365.065V280.35H359.635V281.355H371.845V280.35H366.295ZM374.229 271.11V272.1H379.284C379.029 275.295 377.229 277.875 373.614 279.6L374.274 280.605C378.744 278.415 380.529 274.995 380.529 271.11H374.229ZM383.244 269.655V283.11H384.474V269.655H383.244ZM397.088 281.94H390.923V280.2H397.088V281.94ZM397.088 279.24H390.923V277.545H389.708V282.93H398.318V277.545H397.088V279.24ZM390.908 275.49C389.573 275.49 388.613 274.62 388.613 273.39C388.613 272.16 389.573 271.305 390.908 271.305C392.243 271.305 393.203 272.16 393.203 273.39C393.203 274.62 392.243 275.49 390.908 275.49ZM397.073 269.67V272.865H394.328C394.073 271.305 392.723 270.285 390.908 270.285C388.898 270.285 387.443 271.545 387.443 273.39C387.443 275.25 388.898 276.51 390.908 276.51C392.753 276.51 394.103 275.46 394.343 273.87H397.073V276.885H398.318V269.67H397.073ZM412.071 269.67H410.841V279.495H412.071V269.67ZM402.546 273.9C402.546 272.595 403.536 271.665 404.841 271.665C406.176 271.665 407.166 272.595 407.166 273.9C407.166 275.235 406.176 276.165 404.841 276.165C403.536 276.165 402.546 275.235 402.546 273.9ZM408.366 273.9C408.366 271.965 406.851 270.6 404.841 270.6C402.846 270.6 401.346 271.965 401.346 273.9C401.346 275.85 402.846 277.23 404.841 277.23C406.851 277.23 408.366 275.85 408.366 273.9ZM404.646 281.805V278.49H403.416V282.81H412.476V281.805H404.646ZM415.955 275.235C418.16 274.965 420.17 273.99 420.92 272.52C421.655 273.99 423.68 274.965 425.885 275.235L426.32 274.26C423.935 274.005 421.775 272.835 421.715 271.335H425.9V270.345H415.955V271.335H420.125C420.065 272.835 417.905 274.005 415.52 274.26L415.955 275.235ZM420.905 282.12C418.79 282.12 417.545 281.595 417.545 280.65C417.545 279.72 418.79 279.18 420.905 279.18C423.005 279.18 424.265 279.72 424.265 280.65C424.265 281.595 423.005 282.12 420.905 282.12ZM420.905 278.22C418.025 278.22 416.3 279.09 416.3 280.65C416.3 282.225 418.025 283.095 420.905 283.095C423.77 283.095 425.51 282.225 425.51 280.65C425.51 279.09 423.77 278.22 420.905 278.22ZM414.83 276.06V277.05H426.995V276.06H414.83Z" fill="#1A1A1A"/>
<line y1="305.5" x2="508" y2="305.5" stroke="#1A1A1A"/>
<path d="M1.965 337.315C4.38 336.985 6.075 335.95 6.9 334.54C7.725 335.95 9.42 336.985 11.835 337.315L12.54 335.77C9.735 335.425 8.28 334.075 8.085 332.755H12V331.18H1.755V332.755H5.73C5.535 334.075 4.065 335.425 1.245 335.77L1.965 337.315ZM13.14 338.11H0.66V339.685H5.865V344.32H7.845V339.685H13.14V338.11ZM26.5338 336.775C23.3838 336.265 21.6888 334.195 21.6888 332.23V331.24H19.5738V332.23C19.5738 334.15 17.8638 336.265 14.7438 336.775L15.5538 338.41C17.9688 337.975 19.7238 336.67 20.6238 334.975C21.5238 336.685 23.2938 337.975 25.7238 338.41L26.5338 336.775ZM21.6288 341.065V337.975H19.6488V341.065H14.4438V342.655H26.9538V341.065H21.6288ZM31.1077 346.03L32.4877 345.445C31.2277 343.255 30.6577 340.735 30.6577 338.26C30.6577 335.815 31.2277 333.28 32.4877 331.09L31.1077 330.505C29.6977 332.815 28.8727 335.275 28.8727 338.26C28.8727 341.275 29.6977 343.705 31.1077 346.03ZM46.4216 337.405V335.83H44.6816C44.9516 334.36 44.9516 333.205 44.9516 332.17V331.06H35.4566V332.65H43.0016C43.0016 333.565 42.9566 334.57 42.7016 335.83H33.9116V337.405H39.1616V339.355H35.1716V340.915H42.9866V344.29H44.9816V339.355H41.1416V337.405H46.4216ZM50.2304 332.005H48.2504V340.93H49.2104C50.5904 340.93 52.1804 340.855 53.9804 340.525L53.8154 338.86C52.4954 339.1 51.3104 339.19 50.2304 339.22V332.005ZM57.6554 330.46V335.785H56.4104V330.715H54.5654V343.63H56.4104V337.39H57.6554V344.275H59.5454V330.46H57.6554ZM63.0093 346.03C64.4343 343.705 65.2593 341.275 65.2593 338.26C65.2593 335.275 64.4343 332.815 63.0093 330.505L61.6443 331.09C62.9043 333.28 63.4743 335.815 63.4743 338.26C63.4743 340.735 62.9043 343.255 61.6443 345.445L63.0093 346.03Z" fill="#1A1A1A"/>
<path d="M128.505 331.81H127.275V334.225C127.275 336.715 125.745 339.31 123.795 340.285L124.545 341.26C126.06 340.45 127.305 338.755 127.89 336.76C128.505 338.65 129.735 340.255 131.265 341.02L131.985 340.045C130.035 339.115 128.505 336.67 128.505 334.225V331.81ZM133.65 330.655V335.215H130.53V336.22H133.65V344.125H134.88V330.655H133.65ZM138.749 338.815C140.909 338.425 142.844 337.345 143.699 335.695C144.539 337.345 146.474 338.425 148.634 338.815L149.114 337.84C146.504 337.42 144.314 335.845 144.314 333.775H148.634V332.785H144.314V330.955H143.069V332.785H138.734V333.775H143.069C143.069 335.845 140.879 337.42 138.269 337.84L138.749 338.815ZM144.314 341.395V338.335H143.069V341.395H137.594V342.415H149.804V341.395H144.314ZM163.573 337.315H161.578C161.953 335.38 161.953 333.955 161.953 332.695V331.525H152.923V332.515H160.753V332.695C160.753 333.955 160.753 335.38 160.333 337.315H151.408V338.32H156.838V344.125H158.083V338.32H163.573V337.315ZM173.256 331.81H172.026V334.225C172.026 336.715 170.496 339.31 168.546 340.285L169.296 341.26C170.811 340.45 172.056 338.755 172.641 336.76C173.256 338.65 174.486 340.255 176.016 341.02L176.736 340.045C174.786 339.115 173.256 336.67 173.256 334.225V331.81ZM178.401 330.655V335.215H175.281V336.22H178.401V344.125H179.631V330.655H178.401ZM183.5 338.815C185.66 338.425 187.595 337.345 188.45 335.695C189.29 337.345 191.225 338.425 193.385 338.815L193.865 337.84C191.255 337.42 189.065 335.845 189.065 333.775H193.385V332.785H189.065V330.955H187.82V332.785H183.485V333.775H187.82C187.82 335.845 185.63 337.42 183.02 337.84L183.5 338.815ZM189.065 341.395V338.335H187.82V341.395H182.345V342.415H194.555V341.395H189.065ZM197.269 336.145C199.474 335.875 201.499 334.885 202.234 333.4C202.984 334.885 204.994 335.875 207.199 336.145L207.634 335.17C205.279 334.9 203.134 333.745 203.029 332.26H207.214V331.27H197.269V332.26H201.439C201.334 333.745 199.189 334.9 196.834 335.17L197.269 336.145ZM205.579 341.725C205.579 342.625 204.319 343.15 202.219 343.15C200.104 343.15 198.859 342.625 198.859 341.725C198.859 340.825 200.104 340.315 202.219 340.315C204.319 340.315 205.579 340.825 205.579 341.725ZM208.309 337.945V336.955H196.144V337.945H201.604V339.385C199.099 339.505 197.614 340.33 197.614 341.725C197.614 343.255 199.354 344.095 202.234 344.095C205.099 344.095 206.824 343.255 206.824 341.725C206.824 340.33 205.354 339.505 202.849 339.385V337.945H208.309ZM211.397 334.63C211.397 333.37 212.357 332.485 213.707 332.485C215.042 332.485 216.017 333.37 216.017 334.63C216.017 335.89 215.042 336.76 213.707 336.76C212.357 336.76 211.397 335.89 211.397 334.63ZM217.217 334.63C217.217 332.755 215.732 331.465 213.707 331.465C211.667 331.465 210.197 332.755 210.197 334.63C210.197 336.505 211.667 337.795 213.707 337.795C215.732 337.795 217.217 336.505 217.217 334.63ZM216.107 343.12C214.112 343.12 212.897 342.535 212.897 341.575C212.897 340.6 214.112 340.03 216.107 340.03C218.087 340.03 219.302 340.6 219.302 341.575C219.302 342.535 218.087 343.12 216.107 343.12ZM216.107 339.055C213.377 339.055 211.667 339.97 211.667 341.575C211.667 343.165 213.377 344.095 216.107 344.095C218.822 344.095 220.532 343.165 220.532 341.575C220.532 339.97 218.822 339.055 216.107 339.055ZM220.382 334.015V330.67H219.152V338.635H220.382V335.05H222.377V334.015H220.382ZM230.446 341.44V338.905H234.751V337.915H226.471V335.74H234.436V331.645H225.226V332.65H233.236V334.75H225.256V338.905H229.201V341.44H223.726V342.445H235.951V341.44H230.446ZM241.42 343H247.45V341.86H245.245V332.005H244.195C243.595 332.35 242.89 332.605 241.915 332.785V333.655H243.865V341.86H241.42V343ZM250.145 338.875L252.65 335.125C252.965 334.585 253.265 334.045 253.535 333.505H253.595C253.565 334.075 253.505 334.96 253.505 335.5V338.875H250.145ZM256.265 338.875H254.81V332.005H253.295L248.72 339.07V339.97H253.505V343H254.81V339.97H256.265V338.875ZM257.865 345.85C259.215 345.28 260.055 344.155 260.055 342.715C260.055 341.71 259.62 341.095 258.9 341.095C258.345 341.095 257.865 341.47 257.865 342.055C257.865 342.685 258.345 343.015 258.87 343.015C258.93 343.015 258.975 343.015 259.035 343C259.02 343.915 258.465 344.635 257.535 345.04L257.865 345.85ZM276.105 330.67H274.875V340.51H276.105V330.67ZM273.285 337.615C271.305 336.955 269.91 335.32 269.91 333.505V332.77H272.955V331.78H265.575V332.77H268.65V333.505C268.65 335.425 267.285 337.18 265.245 337.885L265.89 338.845C267.48 338.275 268.725 337.06 269.295 335.53C269.91 336.94 271.14 338.05 272.685 338.59L273.285 337.615ZM268.68 342.805V339.58H267.45V343.81H276.51V342.805H268.68ZM285.568 341.44V338.905H289.873V337.915H281.593V335.74H289.558V331.645H280.348V332.65H288.358V334.75H280.378V338.905H284.323V341.44H278.848V342.445H291.073V341.44H285.568ZM303.687 330.67H302.457V337.69H303.687V330.67ZM298.452 336.1H294.582V334.09H298.452V336.1ZM299.667 331.195H298.452V333.145H294.582V331.195H293.367V337.09H299.667V331.195ZM296.232 343V341.56H303.702V338.38H294.987V339.34H302.487V340.66H295.017V343.96H304.152V343H296.232ZM317.501 330.655H316.271V338.935H317.501V330.655ZM314.921 336.13C313.001 336.52 311.336 336.61 308.501 336.61V332.71H313.601V331.72H307.271V337.615H308.381C311.336 337.615 313.061 337.525 315.041 337.135L314.921 336.13ZM313.031 343.135C310.991 343.135 309.731 342.535 309.731 341.53C309.731 340.525 310.991 339.925 313.031 339.925C315.071 339.925 316.316 340.525 316.316 341.53C316.316 342.535 315.071 343.135 313.031 343.135ZM313.031 338.95C310.256 338.95 308.516 339.895 308.516 341.53C308.516 343.165 310.256 344.11 313.031 344.11C315.806 344.11 317.546 343.165 317.546 341.53C317.546 339.895 315.806 338.95 313.031 338.95ZM324.139 343H330.169V341.86H327.964V332.005H326.914C326.314 332.35 325.609 332.605 324.634 332.785V333.655H326.584V341.86H324.139V343ZM335.655 342.13C334.275 342.13 333.45 340.885 333.285 338.605C334.005 337.585 334.845 337.195 335.535 337.195C336.87 337.195 337.515 338.14 337.515 339.625C337.515 341.125 336.705 342.13 335.655 342.13ZM338.61 332.92C338.01 332.275 337.185 331.795 336.045 331.795C333.915 331.795 331.98 333.445 331.98 337.75C331.98 341.38 333.54 343.195 335.655 343.195C337.365 343.195 338.805 341.755 338.805 339.625C338.805 337.33 337.62 336.175 335.76 336.175C334.89 336.175 333.93 336.685 333.255 337.51C333.315 334.09 334.59 332.935 336.09 332.935C336.765 332.935 337.425 333.25 337.86 333.775L338.61 332.92ZM341.35 336.61C343.57 336.385 345.52 335.59 346.345 334.27C347.155 335.59 349.12 336.385 351.34 336.61L351.715 335.665C349.18 335.425 347.125 334.42 347.005 332.95H351.175V331.975H346.96V330.61H345.73V331.975H341.515V332.95H345.67C345.55 334.42 343.48 335.425 340.975 335.665L341.35 336.61ZM346.33 343.165C344.2 343.165 342.97 342.7 342.97 341.86C342.97 341.02 344.2 340.54 346.33 340.54C348.445 340.54 349.69 341.02 349.69 341.86C349.69 342.7 348.445 343.165 346.33 343.165ZM346.33 339.625C343.435 339.625 341.725 340.405 341.725 341.86C341.725 343.315 343.435 344.095 346.33 344.095C349.225 344.095 350.935 343.315 350.935 341.86C350.935 340.405 349.225 339.625 346.33 339.625ZM340.255 337.495V338.485H352.42V337.495H340.255Z" fill="#1A1A1A"/>
<line y1="366.5" x2="508" y2="366.5" stroke="#1A1A1A"/>
<path d="M1.965 398.315C4.38 397.985 6.075 396.95 6.9 395.54C7.725 396.95 9.42 397.985 11.835 398.315L12.54 396.77C9.735 396.425 8.28 395.075 8.085 393.755H12V392.18H1.755V393.755H5.73C5.535 395.075 4.065 396.425 1.245 396.77L1.965 398.315ZM13.14 399.11H0.66V400.685H5.865V405.32H7.845V400.685H13.14V399.11ZM26.5338 397.775C23.3838 397.265 21.6888 395.195 21.6888 393.23V392.24H19.5738V393.23C19.5738 395.15 17.8638 397.265 14.7438 397.775L15.5538 399.41C17.9688 398.975 19.7238 397.67 20.6238 395.975C21.5238 397.685 23.2938 398.975 25.7238 399.41L26.5338 397.775ZM21.6288 402.065V398.975H19.6488V402.065H14.4438V403.655H26.9538V402.065H21.6288ZM31.1077 407.03L32.4877 406.445C31.2277 404.255 30.6577 401.735 30.6577 399.26C30.6577 396.815 31.2277 394.28 32.4877 392.09L31.1077 391.505C29.6977 393.815 28.8727 396.275 28.8727 399.26C28.8727 402.275 29.6977 404.705 31.1077 407.03ZM37.9616 400.445H36.1616V397.46H37.9616V400.445ZM41.0816 396.53H39.7916V392.735H37.9616V395.9H36.1616V392.72H34.3016V402.02H39.7916V398.12H41.0816V404.69H42.9266V391.715H41.0816V396.53ZM43.8866 391.46V405.275H45.7616V391.46H43.8866ZM58.8854 398.6H51.1904V397.055H58.4654V395.525H51.1904V394.07H58.7804V392.48H49.1804V400.16H58.8854V398.6ZM47.7104 402.095V403.7H60.2204V402.095H47.7104ZM69.3243 396.395C67.4643 396.755 65.6943 396.89 64.0443 396.92V392.12H62.0643V398.57H63.2343C65.1843 398.57 67.2993 398.435 69.5493 397.985L69.3243 396.395ZM65.3343 401.435H70.4493V403.58H65.3343V401.435ZM63.3843 405.125H72.3843V399.89H63.3843V405.125ZM74.2143 394.385H72.3843V391.475H70.4043V399.245H72.3843V396.005H74.2143V394.385ZM76.8081 407.03C78.2331 404.705 79.0581 402.275 79.0581 399.26C79.0581 396.275 78.2331 393.815 76.8081 391.505L75.4431 392.09C76.7031 394.28 77.2731 396.815 77.2731 399.26C77.2731 401.735 76.7031 404.255 75.4431 406.445L76.8081 407.03Z" fill="#1A1A1A"/>
<path d="M127.185 404.195C129.255 404.195 130.635 402.95 130.635 401.345C130.635 399.845 129.735 399.02 128.775 398.465V398.39C129.435 397.88 130.245 396.89 130.245 395.735C130.245 394.04 129.105 392.84 127.23 392.84C125.505 392.84 124.215 393.95 124.215 395.63C124.215 396.785 124.89 397.61 125.7 398.165V398.24C124.695 398.78 123.675 399.8 123.675 401.27C123.675 402.965 125.16 404.195 127.185 404.195ZM127.935 398.03C126.645 397.52 125.46 396.95 125.46 395.63C125.46 394.565 126.195 393.845 127.2 393.845C128.385 393.845 129.075 394.73 129.075 395.81C129.075 396.62 128.685 397.37 127.935 398.03ZM127.215 403.175C125.895 403.175 124.92 402.32 124.92 401.15C124.92 400.1 125.535 399.23 126.42 398.66C127.98 399.29 129.33 399.845 129.33 401.315C129.33 402.41 128.475 403.175 127.215 403.175ZM132.64 404H138.67V402.86H136.465V393.005H135.415C134.815 393.35 134.11 393.605 133.135 393.785V394.655H135.085V402.86H132.64V404ZM148.65 404.195C150.075 404.195 151.155 403.625 152.025 402.62L151.26 401.75C150.555 402.515 149.76 402.98 148.71 402.98C146.61 402.98 145.29 401.24 145.29 398.465C145.29 395.72 146.67 394.01 148.755 394.01C149.7 394.01 150.435 394.445 151.005 395.06L151.755 394.16C151.125 393.455 150.075 392.795 148.74 392.795C145.95 392.795 143.865 394.955 143.865 398.51C143.865 402.08 145.92 404.195 148.65 404.195ZM155.816 404.195C156.821 404.195 157.736 403.67 158.516 403.025H158.561L158.681 404H159.806V398.99C159.806 396.98 158.966 395.645 156.986 395.645C155.681 395.645 154.526 396.23 153.776 396.71L154.316 397.655C154.961 397.22 155.816 396.785 156.761 396.785C158.096 396.785 158.441 397.79 158.441 398.84C154.976 399.23 153.431 400.115 153.431 401.885C153.431 403.355 154.451 404.195 155.816 404.195ZM156.206 403.1C155.396 403.1 154.766 402.725 154.766 401.795C154.766 400.745 155.696 400.07 158.441 399.74V402.02C157.646 402.725 157.001 403.1 156.206 403.1ZM165.617 404.195C166.592 404.195 167.522 403.82 168.242 403.16L167.657 402.245C167.147 402.71 166.487 403.055 165.737 403.055C164.237 403.055 163.217 401.81 163.217 399.935C163.217 398.06 164.297 396.785 165.767 396.785C166.427 396.785 166.922 397.085 167.402 397.52L168.107 396.605C167.522 396.095 166.787 395.645 165.722 395.645C163.637 395.645 161.792 397.22 161.792 399.935C161.792 402.635 163.457 404.195 165.617 404.195ZM170.039 404H171.404V398.09C172.229 397.265 172.799 396.845 173.639 396.845C174.719 396.845 175.184 397.49 175.184 399.02V404H176.549V398.84C176.549 396.755 175.769 395.645 174.059 395.645C172.949 395.645 172.109 396.26 171.359 397.01L171.404 395.33V392.06H170.039V404ZM182.625 404H183.885V397.91C183.885 396.965 183.78 395.63 183.72 394.67H183.78L184.65 397.175L186.735 402.89H187.665L189.75 397.175L190.62 394.67H190.68C190.605 395.63 190.5 396.965 190.5 397.91V404H191.805V393.005H190.125L188.025 398.885C187.77 399.65 187.53 400.415 187.275 401.18H187.2C186.93 400.415 186.675 399.65 186.42 398.885L184.305 393.005H182.625V404ZM196.553 404.195C197.558 404.195 198.473 403.67 199.253 403.025H199.298L199.418 404H200.543V398.99C200.543 396.98 199.703 395.645 197.723 395.645C196.418 395.645 195.263 396.23 194.513 396.71L195.053 397.655C195.698 397.22 196.553 396.785 197.498 396.785C198.833 396.785 199.178 397.79 199.178 398.84C195.713 399.23 194.168 400.115 194.168 401.885C194.168 403.355 195.188 404.195 196.553 404.195ZM196.943 403.1C196.133 403.1 195.503 402.725 195.503 401.795C195.503 400.745 196.433 400.07 199.178 399.74V402.02C198.383 402.725 197.738 403.1 196.943 403.1ZM203.145 404H204.51V398.09C205.335 397.265 205.905 396.845 206.745 396.845C207.825 396.845 208.29 397.49 208.29 399.02V404H209.655V398.84C209.655 396.755 208.875 395.645 207.165 395.645C206.055 395.645 205.215 396.26 204.435 397.025H204.39L204.27 395.855H203.145V404ZM215.06 407.75C217.58 407.75 219.17 406.445 219.17 404.93C219.17 403.595 218.225 402.995 216.335 402.995H214.745C213.65 402.995 213.32 402.635 213.32 402.11C213.32 401.66 213.545 401.39 213.845 401.135C214.205 401.315 214.655 401.42 215.06 401.42C216.71 401.42 218.03 400.325 218.03 398.585C218.03 397.88 217.76 397.28 217.37 396.905H219.035V395.855H216.2C215.915 395.75 215.51 395.645 215.06 395.645C213.41 395.645 212 396.77 212 398.555C212 399.53 212.525 400.31 213.065 400.745V400.805C212.645 401.105 212.15 401.645 212.15 402.32C212.15 402.965 212.465 403.4 212.9 403.655V403.715C212.135 404.21 211.685 404.87 211.685 405.56C211.685 406.97 213.065 407.75 215.06 407.75ZM215.06 400.49C214.115 400.49 213.32 399.74 213.32 398.555C213.32 397.355 214.1 396.65 215.06 396.65C216.02 396.65 216.785 397.37 216.785 398.555C216.785 399.74 215.99 400.49 215.06 400.49ZM215.255 406.82C213.77 406.82 212.885 406.25 212.885 405.38C212.885 404.9 213.14 404.42 213.725 404C214.085 404.09 214.475 404.135 214.775 404.135H216.185C217.265 404.135 217.85 404.39 217.85 405.14C217.85 405.995 216.815 406.82 215.255 406.82ZM226.536 404H227.931V394.175H231.261V393.005H223.206V394.175H226.536V404ZM233.101 404H234.466V398.09C235.291 397.265 235.861 396.845 236.701 396.845C237.781 396.845 238.246 397.49 238.246 399.02V404H239.611V398.84C239.611 396.755 238.831 395.645 237.121 395.645C236.011 395.645 235.171 396.26 234.421 397.01L234.466 395.33V392.06H233.101V404ZM244.087 404.195C245.092 404.195 246.007 403.67 246.787 403.025H246.832L246.952 404H248.077V398.99C248.077 396.98 247.237 395.645 245.257 395.645C243.952 395.645 242.797 396.23 242.047 396.71L242.587 397.655C243.232 397.22 244.087 396.785 245.032 396.785C246.367 396.785 246.712 397.79 246.712 398.84C243.247 399.23 241.702 400.115 241.702 401.885C241.702 403.355 242.722 404.195 244.087 404.195ZM244.477 403.1C243.667 403.1 243.037 402.725 243.037 401.795C243.037 400.745 243.967 400.07 246.712 399.74V402.02C245.917 402.725 245.272 403.1 244.477 403.1ZM250.679 404H252.044V398.09C252.869 397.265 253.439 396.845 254.279 396.845C255.359 396.845 255.824 397.49 255.824 399.02V404H257.189V398.84C257.189 396.755 256.409 395.645 254.699 395.645C253.589 395.645 252.749 396.26 251.969 397.025H251.924L251.804 395.855H250.679V404ZM262.594 407.75C265.114 407.75 266.704 406.445 266.704 404.93C266.704 403.595 265.759 402.995 263.869 402.995H262.279C261.184 402.995 260.854 402.635 260.854 402.11C260.854 401.66 261.079 401.39 261.379 401.135C261.739 401.315 262.189 401.42 262.594 401.42C264.244 401.42 265.564 400.325 265.564 398.585C265.564 397.88 265.294 397.28 264.904 396.905H266.569V395.855H263.734C263.449 395.75 263.044 395.645 262.594 395.645C260.944 395.645 259.534 396.77 259.534 398.555C259.534 399.53 260.059 400.31 260.599 400.745V400.805C260.179 401.105 259.684 401.645 259.684 402.32C259.684 402.965 259.999 403.4 260.434 403.655V403.715C259.669 404.21 259.219 404.87 259.219 405.56C259.219 406.97 260.599 407.75 262.594 407.75ZM262.594 400.49C261.649 400.49 260.854 399.74 260.854 398.555C260.854 397.355 261.634 396.65 262.594 396.65C263.554 396.65 264.319 397.37 264.319 398.555C264.319 399.74 263.524 400.49 262.594 400.49ZM262.789 406.82C261.304 406.82 260.419 406.25 260.419 405.38C260.419 404.9 260.674 404.42 261.259 404C261.619 404.09 262.009 404.135 262.309 404.135H263.719C264.799 404.135 265.384 404.39 265.384 405.14C265.384 405.995 264.349 406.82 262.789 406.82ZM274.46 404.195C276.53 404.195 277.91 402.95 277.91 401.345C277.91 399.845 277.01 399.02 276.05 398.465V398.39C276.71 397.88 277.52 396.89 277.52 395.735C277.52 394.04 276.38 392.84 274.505 392.84C272.78 392.84 271.49 393.95 271.49 395.63C271.49 396.785 272.165 397.61 272.975 398.165V398.24C271.97 398.78 270.95 399.8 270.95 401.27C270.95 402.965 272.435 404.195 274.46 404.195ZM275.21 398.03C273.92 397.52 272.735 396.95 272.735 395.63C272.735 394.565 273.47 393.845 274.475 393.845C275.66 393.845 276.35 394.73 276.35 395.81C276.35 396.62 275.96 397.37 275.21 398.03ZM274.49 403.175C273.17 403.175 272.195 402.32 272.195 401.15C272.195 400.1 272.81 399.23 273.695 398.66C275.255 399.29 276.605 399.845 276.605 401.315C276.605 402.41 275.75 403.175 274.49 403.175ZM279.721 406.85C281.071 406.28 281.911 405.155 281.911 403.715C281.911 402.71 281.476 402.095 280.756 402.095C280.201 402.095 279.721 402.47 279.721 403.055C279.721 403.685 280.201 404.015 280.726 404.015C280.786 404.015 280.831 404.015 280.891 404C280.876 404.915 280.321 405.635 279.391 406.04L279.721 406.85ZM288.42 398.465C288.42 395.705 289.71 394.01 291.69 394.01C293.655 394.01 294.96 395.705 294.96 398.465C294.96 401.27 293.655 403.055 291.69 403.055C289.71 403.055 288.42 401.27 288.42 398.465ZM296.355 405.44C296.07 405.53 295.695 405.605 295.2 405.605C294 405.605 292.995 405.11 292.5 404.135C294.825 403.73 296.385 401.63 296.385 398.465C296.385 394.94 294.45 392.795 291.69 392.795C288.93 392.795 286.995 394.94 286.995 398.465C286.995 401.69 288.615 403.82 291.015 404.15C291.63 405.665 293.025 406.76 295.05 406.76C295.71 406.76 296.295 406.64 296.625 406.52L296.355 405.44ZM301.008 404.195C302.133 404.195 302.943 403.61 303.708 402.725H303.753L303.858 404H304.998V395.855H303.633V401.63C302.853 402.605 302.268 403.01 301.428 403.01C300.348 403.01 299.898 402.365 299.898 400.85V395.855H298.533V401.015C298.533 403.085 299.298 404.195 301.008 404.195ZM309.624 404.195C310.629 404.195 311.544 403.67 312.324 403.025H312.369L312.489 404H313.614V398.99C313.614 396.98 312.774 395.645 310.794 395.645C309.489 395.645 308.334 396.23 307.584 396.71L308.124 397.655C308.769 397.22 309.624 396.785 310.569 396.785C311.904 396.785 312.249 397.79 312.249 398.84C308.784 399.23 307.239 400.115 307.239 401.885C307.239 403.355 308.259 404.195 309.624 404.195ZM310.014 403.1C309.204 403.1 308.574 402.725 308.574 401.795C308.574 400.745 309.504 400.07 312.249 399.74V402.02C311.454 402.725 310.809 403.1 310.014 403.1ZM316.216 404H317.581V398.09C318.406 397.265 318.976 396.845 319.816 396.845C320.896 396.845 321.361 397.49 321.361 399.02V404H322.726V398.84C322.726 396.755 321.946 395.645 320.236 395.645C319.126 395.645 318.286 396.26 317.506 397.025H317.461L317.341 395.855H316.216V404ZM328.68 404H334.71V402.86H332.505V393.005H331.455C330.855 393.35 330.15 393.605 329.175 393.785V394.655H331.125V402.86H328.68V404ZM336.806 406.85C338.156 406.28 338.996 405.155 338.996 403.715C338.996 402.71 338.561 402.095 337.841 402.095C337.286 402.095 336.806 402.47 336.806 403.055C336.806 403.685 337.286 404.015 337.811 404.015C337.871 404.015 337.916 404.015 337.976 404C337.961 404.915 337.406 405.635 336.476 406.04L336.806 406.85ZM344.71 404H346.105V398.81H351.235V404H352.615V393.005H351.235V397.61H346.105V393.005H344.71V404ZM358.668 404.195C360.663 404.195 362.448 402.635 362.448 399.935C362.448 397.22 360.663 395.645 358.668 395.645C356.673 395.645 354.888 397.22 354.888 399.935C354.888 402.635 356.673 404.195 358.668 404.195ZM358.668 403.055C357.258 403.055 356.313 401.81 356.313 399.935C356.313 398.06 357.258 396.785 358.668 396.785C360.078 396.785 361.038 398.06 361.038 399.935C361.038 401.81 360.078 403.055 358.668 403.055ZM372.229 404.195C373.654 404.195 374.734 403.625 375.604 402.62L374.839 401.75C374.134 402.515 373.339 402.98 372.289 402.98C370.189 402.98 368.869 401.24 368.869 398.465C368.869 395.72 370.249 394.01 372.334 394.01C373.279 394.01 374.014 394.445 374.584 395.06L375.334 394.16C374.704 393.455 373.654 392.795 372.319 392.795C369.529 392.795 367.444 394.955 367.444 398.51C367.444 402.08 369.499 404.195 372.229 404.195ZM377.52 404H378.885V398.09C379.71 397.265 380.28 396.845 381.12 396.845C382.2 396.845 382.665 397.49 382.665 399.02V404H384.03V398.84C384.03 396.755 383.25 395.645 381.54 395.645C380.43 395.645 379.59 396.26 378.84 397.01L378.885 395.33V392.06H377.52V404ZM386.631 404H387.996V395.855H386.631V404ZM387.321 394.175C387.861 394.175 388.266 393.8 388.266 393.29C388.266 392.735 387.861 392.405 387.321 392.405C386.781 392.405 386.376 392.735 386.376 393.29C386.376 393.8 386.781 394.175 387.321 394.175ZM394.236 404H395.496V397.91C395.496 396.965 395.391 395.63 395.331 394.67H395.391L396.261 397.175L398.346 402.89H399.276L401.361 397.175L402.231 394.67H402.291C402.216 395.63 402.111 396.965 402.111 397.91V404H403.416V393.005H401.736L399.636 398.885C399.381 399.65 399.141 400.415 398.886 401.18H398.811C398.541 400.415 398.286 399.65 398.031 398.885L395.916 393.005H394.236V404ZM406.289 404H407.654V395.855H406.289V404ZM406.979 394.175C407.519 394.175 407.924 393.8 407.924 393.29C407.924 392.735 407.519 392.405 406.979 392.405C406.439 392.405 406.034 392.735 406.034 393.29C406.034 393.8 406.439 394.175 406.979 394.175ZM410.42 404H411.785V398.09C412.61 397.265 413.18 396.845 414.02 396.845C415.1 396.845 415.565 397.49 415.565 399.02V404H416.93V398.84C416.93 396.755 416.15 395.645 414.44 395.645C413.33 395.645 412.49 396.26 411.71 397.025H411.665L411.545 395.855H410.42V404ZM419.59 404H420.955V398.09C421.78 397.265 422.35 396.845 423.19 396.845C424.27 396.845 424.735 397.49 424.735 399.02V404H426.1V398.84C426.1 396.755 425.32 395.645 423.61 395.645C422.5 395.645 421.66 396.26 420.91 397.01L420.955 395.33V392.06H419.59V404Z" fill="#1A1A1A"/>
<line y1="427.5" x2="508" y2="427.5" stroke="#1A1A1A"/>
<path d="M5.715 455.43H8.46V453.795H0.87V455.43H3.735V456.195C3.735 458.475 2.61 461.07 0.345 462.12L1.455 463.695C3.03 462.945 4.14 461.43 4.755 459.63C5.37 461.265 6.45 462.645 7.98 463.35L9.075 461.79C6.81 460.74 5.715 458.295 5.715 456.195V455.43ZM13.47 457.74H11.46V452.475H9.48V466.29H11.46V459.375H13.47V457.74ZM17.9388 462.15H15.9588V466.05H25.5438V464.475H17.9388V462.15ZM17.9988 455.85H23.3838V457.05H17.9988V455.85ZM21.6588 459.765V458.61H25.3488V452.97H23.3838V454.32H17.9988V452.97H16.0338V458.61H19.6788V459.765H14.4438V461.34H26.9388V459.765H21.6588ZM31.6627 462.63H37.2877V464.58H31.6627V462.63ZM29.7127 466.125H39.2227V461.085H29.7127V466.125ZM38.9677 458.07C39.2827 456.48 39.2827 455.31 39.2827 454.2V453.09H29.7877V454.665H37.3327C37.3327 455.625 37.2877 456.69 37.0027 458.07H28.2427V459.645H40.7527V458.07H38.9677Z" fill="#1A1A1A"/>
<path d="M124.32 465H130.35V463.86H128.145V454.005H127.095C126.495 454.35 125.79 454.605 124.815 454.785V455.655H126.765V463.86H124.32V465ZM134.2 462.33H141.955V466.125H143.2V461.34H134.2V462.33ZM135.79 458.835C134.47 458.835 133.495 457.92 133.495 456.63C133.495 455.37 134.47 454.455 135.79 454.455C137.095 454.455 138.085 455.37 138.085 456.63C138.085 457.92 137.095 458.835 135.79 458.835ZM141.955 452.67V456.12H139.195C138.97 454.5 137.59 453.405 135.79 453.405C133.795 453.405 132.325 454.74 132.325 456.63C132.325 458.55 133.795 459.885 135.79 459.885C137.605 459.885 138.985 458.775 139.21 457.125H141.955V460.59H143.2V452.67H141.955ZM149.794 465H155.824V463.86H153.619V454.005H152.569C151.969 454.35 151.264 454.605 150.289 454.785V455.655H152.239V463.86H149.794V465ZM164.714 456.795V457.815H167.429V462.705H168.674V452.67H167.429V456.795H164.714ZM165.539 459.84C163.544 459.21 162.179 457.65 162.179 455.865V455.445H165.149V454.455H162.179V452.745H160.949V454.455H157.964V455.445H160.949V455.865C160.949 457.74 159.614 459.42 157.619 460.095L158.234 461.055C159.809 460.5 161.009 459.36 161.579 457.875C162.194 459.24 163.394 460.305 164.939 460.815L165.539 459.84ZM161.309 464.805V461.805H160.064V465.81H169.049V464.805H161.309ZM177.862 465.195C179.722 465.195 181.462 463.83 181.462 461.415C181.462 459 179.977 457.92 178.147 457.92C177.487 457.92 176.992 458.085 176.512 458.355L176.782 455.175H180.937V454.005H175.582L175.237 459.15L175.972 459.6C176.602 459.18 177.067 458.955 177.802 458.955C179.182 458.955 180.082 459.885 180.082 461.46C180.082 463.065 179.032 464.055 177.742 464.055C176.467 464.055 175.672 463.47 175.042 462.84L174.367 463.74C175.102 464.475 176.152 465.195 177.862 465.195ZM187.728 458.79H184.833V456.615H187.728V458.79ZM188.883 453.525H187.728V455.64H184.833V453.525H183.663V459.78H188.883V453.525ZM185.373 462.54H193.188V466.11H194.418V461.55H185.373V462.54ZM193.233 452.67V456.165H191.523V452.91H190.353V460.665H191.523V457.17H193.233V460.725H194.418V452.67H193.233ZM202.396 459.105H198.616V454.845H202.396V459.105ZM203.596 453.855H197.416V460.08H203.596V453.855ZM200.161 461.58H198.931V465.81H207.901V464.805H200.161V461.58ZM207.301 456.75V452.64H206.071V462.495H207.301V457.785H209.296V456.75H207.301ZM217.71 460.605V461.52H220.44V462.9H221.67V452.655H220.44V460.605H217.71ZM214.965 454.11C216.24 454.11 217.11 454.68 217.11 455.535C217.11 456.405 216.24 456.975 214.965 456.975C213.69 456.975 212.82 456.405 212.82 455.535C212.82 454.68 213.69 454.11 214.965 454.11ZM214.965 457.89C216.93 457.89 218.28 456.975 218.28 455.535C218.28 454.125 216.93 453.195 214.965 453.195C213 453.195 211.65 454.125 211.65 455.535C211.65 456.975 213 457.89 214.965 457.89ZM214.485 462.42H215.715V459.765C216.93 459.69 218.175 459.555 219.36 459.375L219.255 458.49C216.405 458.85 213.075 458.88 210.585 458.88L210.75 459.9C211.86 459.9 213.15 459.885 214.485 459.825V462.42ZM213.735 464.805V461.895H212.505V465.81H222.015V464.805H213.735Z" fill="#1A1A1A"/>
<line y1="488.5" x2="508" y2="488.5" stroke="#1A1A1A"/>
<path d="M12.12 513.49H10.125V523.555H12.12V513.49ZM9.105 519.895C6.855 519.175 5.895 517.405 5.895 515.59V514.24H3.885V515.59C3.885 517.42 2.895 519.355 0.6 520.135L1.605 521.71C3.21 521.155 4.29 520.03 4.92 518.635C5.52 519.925 6.57 520.945 8.1 521.47L9.105 519.895ZM4.905 525.475V522.595H2.925V527.05H12.465V525.475H4.905ZM20.6538 525.805C18.8088 525.805 17.8638 525.49 17.8638 524.785C17.8638 524.08 18.8088 523.78 20.6538 523.78C22.4988 523.78 23.4438 524.08 23.4438 524.785C23.4438 525.49 22.4988 525.805 20.6538 525.805ZM20.6538 522.28C17.6688 522.28 15.8688 523.18 15.8688 524.785C15.8688 526.39 17.6688 527.305 20.6538 527.305C23.6388 527.305 25.4538 526.39 25.4538 524.785C25.4538 523.18 23.6388 522.28 20.6538 522.28ZM19.2288 518.875C19.6788 518.935 20.1588 518.965 20.6838 518.965C21.1938 518.965 21.6738 518.935 22.1088 518.89V520.03H19.2288V518.875ZM20.6838 515.185C22.5738 515.185 23.6538 515.56 23.6538 516.34C23.6538 517.09 22.5738 517.48 20.6838 517.48C18.8088 517.48 17.7288 517.09 17.7288 516.34C17.7288 515.56 18.8088 515.185 20.6838 515.185ZM24.0888 520.03V518.38C25.1088 517.93 25.6938 517.24 25.6938 516.34C25.6938 514.69 23.7438 513.685 20.6838 513.685C17.6388 513.685 15.6888 514.69 15.6888 516.34C15.6888 517.225 16.2588 517.915 17.2488 518.365V520.03H14.4438V521.59H26.9238V520.03H24.0888ZM37.8127 521.92H39.7927V513.475H37.8127V515.695H36.1927V517.285H37.8127V518.29H36.1927V519.865H37.8127V521.92ZM31.5877 515.965H32.8777V519.715C32.4427 519.73 32.0077 519.76 31.5877 519.76V515.965ZM36.0427 519.475C35.6377 519.52 35.2177 519.565 34.7827 519.595V515.965H35.8777V514.39H28.5877V515.965H29.6827V519.805C29.1727 519.805 28.6927 519.805 28.2427 519.805L28.4527 521.41C30.6277 521.41 33.5977 521.365 36.1627 520.93L36.0427 519.475ZM35.1127 525.805C33.2977 525.805 32.3677 525.445 32.3677 524.725C32.3677 523.99 33.2977 523.645 35.1127 523.645C36.9427 523.645 37.8727 523.99 37.8727 524.725C37.8727 525.445 36.9427 525.805 35.1127 525.805ZM35.1127 522.145C32.1727 522.145 30.3877 523.09 30.3877 524.725C30.3877 526.345 32.1727 527.305 35.1127 527.305C38.0677 527.305 39.8527 526.345 39.8527 524.725C39.8527 523.09 38.0677 522.145 35.1127 522.145ZM42.6715 514.885V516.49H47.1865C46.8265 519.55 45.1165 521.74 41.9065 523.39L43.0165 524.905C47.6065 522.58 49.1815 519.025 49.1815 514.885H42.6715ZM54.7915 518.74H52.8565V513.46H50.8765V527.26H52.8565V520.375H54.7915V518.74ZM66.9253 517.27H59.3353V515.425H66.8503V513.85H57.3703V518.83H66.9253V517.27ZM62.0503 525.79C60.2053 525.79 59.2603 525.475 59.2603 524.755C59.2603 524.035 60.2053 523.705 62.0503 523.705C63.8953 523.705 64.8403 524.035 64.8403 524.755C64.8403 525.475 63.8953 525.79 62.0503 525.79ZM62.0503 522.205C59.0653 522.205 57.2653 523.12 57.2653 524.755C57.2653 526.375 59.0653 527.29 62.0503 527.29C65.0353 527.29 66.8503 526.375 66.8503 524.755C66.8503 523.12 65.0353 522.205 62.0503 522.205ZM55.8553 519.79V521.41H68.3503V519.79H55.8553ZM78.6691 525.565H73.0891V524.305H78.6691V525.565ZM78.6691 522.775H73.0891V521.335H71.1241V527.14H80.6491V521.335H78.6691V522.775ZM80.3791 518.86C80.6791 517.315 80.6791 516.22 80.6791 515.14V514.03H71.1841V515.605H78.7291C78.7291 516.52 78.6841 517.555 78.4141 518.86H69.6391V520.45H82.1491V518.86H80.3791Z" fill="#1A1A1A"/>
<path d="M124.5 526H128.01C130.47 526 132.18 524.935 132.18 522.775C132.18 521.275 131.25 520.405 129.93 520.15V520.075C130.965 519.745 131.55 518.785 131.55 517.69C131.55 515.755 130.005 515.005 127.77 515.005H124.5V526ZM125.895 519.685V516.1H127.59C129.3 516.1 130.185 516.58 130.185 517.87C130.185 518.98 129.42 519.685 127.53 519.685H125.895ZM125.895 524.89V520.75H127.815C129.735 520.75 130.815 521.365 130.815 522.73C130.815 524.215 129.705 524.89 127.815 524.89H125.895ZM136.473 524.26H137.568V520.975H140.613V519.955H137.568V516.685H136.473V519.955H133.428V520.975H136.473V524.26Z" fill="#1A1A1A"/>
<line y1="549.5" x2="508" y2="549.5" stroke="#1A1A1A"/>
<path d="M10.125 574.475V582.305H12.12V574.475H10.125ZM2.925 582.92V588.125H12.12V582.92H2.925ZM10.185 584.465V586.58H4.875V584.465H10.185ZM4.605 575.105C2.46 575.105 0.84 576.485 0.84 578.435C0.84 580.37 2.46 581.75 4.605 581.75C6.75 581.75 8.355 580.37 8.355 578.435C8.355 576.485 6.75 575.105 4.605 575.105ZM4.605 576.755C5.64 576.755 6.42 577.385 6.42 578.435C6.42 579.47 5.64 580.1 4.605 580.1C3.555 580.1 2.775 579.47 2.775 578.435C2.775 577.385 3.555 576.755 4.605 576.755ZM23.0538 580.82C20.8638 580.1 19.8438 578.48 19.8138 576.86H22.5438V575.3H15.0288V576.86H17.8038C17.7738 578.57 16.7538 580.325 14.5038 581.045L15.5088 582.59C17.1138 582.065 18.2238 580.985 18.8388 579.635C19.4688 580.865 20.5188 581.855 22.0488 582.335L23.0538 580.82ZM16.5138 584.99H23.9238V588.305H25.9188V583.415H16.5138V584.99ZM23.9238 574.475V582.8H25.9188V574.475H23.9238ZM35.2927 582.5V583.85H37.8877V584.945H39.8677V574.475H37.8877V582.5H35.2927ZM32.6377 576.38C33.5527 576.38 34.1977 576.74 34.1977 577.415C34.1977 578.09 33.5527 578.435 32.6377 578.435C31.7077 578.435 31.0627 578.09 31.0627 577.415C31.0627 576.74 31.7077 576.38 32.6377 576.38ZM32.6377 579.875C34.6477 579.875 36.0727 578.885 36.0727 577.415C36.0727 575.945 34.6477 574.94 32.6377 574.94C30.6127 574.94 29.1877 575.945 29.1877 577.415C29.1877 578.885 30.6127 579.875 32.6377 579.875ZM31.9027 586.475V584.585H33.8077V581.975C34.9177 581.9 36.0277 581.78 37.1077 581.585L36.9727 580.175C34.0627 580.55 30.7027 580.58 28.1827 580.595L28.4377 582.17C29.4727 582.17 30.6277 582.155 31.8427 582.095V583.94H29.9227V588.05H40.1677V586.475H31.9027Z" fill="#1A1A1A"/>
<path d="M125.97 587H127.395C127.56 582.695 128.04 580.145 130.62 576.83V576.005H123.735V577.175H129.06C126.915 580.175 126.15 582.83 125.97 587ZM135.235 587.195C137.095 587.195 138.835 585.83 138.835 583.415C138.835 581 137.35 579.92 135.52 579.92C134.86 579.92 134.365 580.085 133.885 580.355L134.155 577.175H138.31V576.005H132.955L132.61 581.15L133.345 581.6C133.975 581.18 134.44 580.955 135.175 580.955C136.555 580.955 137.455 581.885 137.455 583.46C137.455 585.065 136.405 586.055 135.115 586.055C133.84 586.055 133.045 585.47 132.415 584.84L131.74 585.74C132.475 586.475 133.525 587.195 135.235 587.195ZM145.986 580.67H142.266V576.665H145.986V580.67ZM150.276 577.835V579.5H147.186V577.835H150.276ZM147.186 580.49H150.276V582.62H151.521V574.67H150.276V576.845H147.186V575.675H141.051V581.645H147.186V580.49ZM147.066 587.135C145.056 587.135 143.826 586.55 143.826 585.56C143.826 584.57 145.056 583.985 147.066 583.985C149.106 583.985 150.336 584.57 150.336 585.56C150.336 586.55 149.106 587.135 147.066 587.135ZM147.066 583.025C144.306 583.025 142.596 583.94 142.596 585.56C142.596 587.165 144.306 588.095 147.066 588.095C149.841 588.095 151.551 587.165 151.551 585.56C151.551 583.94 149.841 583.025 147.066 583.025Z" fill="#1A1A1A"/>
<line y1="610.5" x2="508" y2="610.5" stroke="#1A1A1A"/>
</svg>
