<svg width="750" height="601" viewBox="0 0 750 601" fill="none" xmlns="http://www.w3.org/2000/svg">
<line y1="0.5" x2="750" y2="0.5" stroke="#1A1A1A"/>
<path d="M8.666 26.738H5.726V25.352H3.878V26.738H0.924V28.18H8.666V26.738ZM3.36 31.106C3.36 30.448 3.948 30.084 4.802 30.084C5.67 30.084 6.244 30.448 6.244 31.106C6.244 31.778 5.67 32.142 4.802 32.142C3.948 32.142 3.36 31.778 3.36 31.106ZM5.726 33.444C7.098 33.178 7.994 32.31 7.994 31.106C7.994 29.664 6.678 28.684 4.802 28.684C2.912 28.684 1.596 29.664 1.596 31.106C1.596 32.31 2.492 33.178 3.878 33.444V34.536C2.73 34.564 1.638 34.564 0.672 34.564L0.896 36.062C3.178 36.062 6.16 36.048 8.974 35.53L8.834 34.186C7.826 34.326 6.776 34.396 5.726 34.466V33.444ZM9.506 25.31V38.204H11.354V25.31H9.506ZM18.2269 26.304H16.3649V28.18C16.3649 30.574 15.3849 33.038 13.2149 34.06L14.3209 35.558C15.7769 34.844 16.7429 33.486 17.3029 31.848C17.8349 33.388 18.7449 34.634 20.0889 35.32L21.2089 33.864C19.1369 32.842 18.2269 30.504 18.2269 28.18V26.304ZM25.4509 30.266H23.5749V25.31H21.7269V38.204H23.5749V31.806H25.4509V30.266ZM31.1618 30.714H28.7118V27.704H31.1618V30.714ZM35.2918 28.642V29.748H32.9678V28.642H35.2918ZM32.9678 31.218H35.2918V32.87H37.1398V25.31H35.2918V27.172H32.9678V26.234H26.8918V32.17H32.9678V31.218ZM32.7718 36.79C31.0918 36.79 30.2098 36.44 30.2098 35.698C30.2098 34.956 31.0918 34.606 32.7718 34.606C34.4658 34.606 35.3478 34.956 35.3478 35.698C35.3478 36.44 34.4658 36.79 32.7718 36.79ZM32.7718 33.192C30.0418 33.192 28.3618 34.116 28.3618 35.698C28.3618 37.28 30.0418 38.204 32.7718 38.204C35.5158 38.204 37.1958 37.28 37.1958 35.698C37.1958 34.116 35.5158 33.192 32.7718 33.192Z" fill="#1A1A1A"/>
<path d="M124.862 31.582C126.808 31.246 128.656 30.196 129.426 28.712C130.182 30.196 132.044 31.246 133.99 31.582L134.438 30.672C132.226 30.35 130.056 28.908 130.056 27.256V27.186H133.99V26.262H124.82V27.186H128.782V27.256C128.782 28.908 126.612 30.35 124.428 30.672L124.862 31.582ZM135.096 32.632H123.756V33.57H128.824V38.036H129.972V33.57H135.11L135.096 32.632ZM144.195 31.386C142.333 30.742 141.045 29.104 141.045 27.298V26.066H139.897V27.298C139.897 29.174 138.623 30.924 136.733 31.61L137.321 32.52C138.791 31.96 139.939 30.798 140.485 29.314C141.045 30.7 142.179 31.778 143.621 32.296L144.195 31.386ZM138.525 34.606H145.777V38.05H146.925V33.682H138.525V34.606ZM145.777 25.492V33.038H146.925V25.492H145.777ZM157.466 27.018H154.232V25.478H153.084V27.018H149.836V27.942H157.466V27.018ZM151.726 30.98C151.726 30.098 152.51 29.538 153.658 29.538C154.792 29.538 155.576 30.098 155.576 30.98C155.576 31.848 154.792 32.408 153.658 32.408C152.51 32.408 151.726 31.848 151.726 30.98ZM154.232 33.276C155.716 33.094 156.668 32.226 156.668 30.98C156.668 29.566 155.45 28.656 153.658 28.656C151.866 28.656 150.634 29.566 150.634 30.98C150.634 32.24 151.6 33.108 153.084 33.29V34.634C151.838 34.676 150.634 34.69 149.57 34.69L149.738 35.656C152.048 35.656 155.072 35.614 157.872 35.152L157.788 34.298C156.64 34.452 155.422 34.536 154.232 34.592V33.276ZM158.586 25.478V38.036H159.734V25.478H158.586ZM166.593 26.57H165.459V28.824C165.459 31.106 164.031 33.514 162.225 34.438L162.911 35.362C164.325 34.606 165.487 33.038 166.033 31.204C166.607 32.926 167.741 34.396 169.071 35.11L169.785 34.2C168.021 33.318 166.593 31.036 166.593 28.824V26.57ZM174.111 30.574H172.039V25.492H170.891V38.036H172.039V31.526H174.111V30.574ZM179.914 31.218H183.274V26.864H178.766V27.802H182.168V30.308H178.808V34.956H179.634C181.23 34.956 182.658 34.886 184.408 34.592L184.31 33.654C182.7 33.934 181.342 33.99 179.914 33.99V31.218ZM185.416 29.986H183.862V30.938H185.416V37.378H186.494V25.786H185.416V29.986ZM187.95 25.478V38.036H189.056V25.478H187.95ZM193.773 35.656H201.263V32.73H192.611V33.626H200.143V34.802H192.639V37.868H201.711V36.972H193.773V35.656ZM200.899 30.616C201.193 29.132 201.193 28.012 201.193 27.032V26.08H192.723V26.99H200.059V27.032C200.059 27.396 200.059 27.788 200.045 28.208L192.415 28.446L192.555 29.356L199.989 29.02C199.933 29.496 199.863 30.028 199.737 30.616H191.295V31.54H202.607V30.616H200.899ZM206.689 39.506H207.627L211.813 25.884H210.889L206.689 39.506ZM216.548 37H222.33V35.894H217.85V26.724H216.548V37ZM224.15 37H230.226V35.894H225.452V32.156H229.344V31.05H225.452V27.83H230.072V26.724H224.15V37ZM236.258 37.182C237.588 37.182 238.596 36.65 239.408 35.712L238.694 34.9C238.036 35.614 237.294 36.048 236.314 36.048C234.354 36.048 233.122 34.424 233.122 31.834C233.122 29.272 234.41 27.676 236.356 27.676C237.238 27.676 237.924 28.082 238.456 28.656L239.156 27.816C238.568 27.158 237.588 26.542 236.342 26.542C233.738 26.542 231.792 28.558 231.792 31.876C231.792 35.208 233.71 37.182 236.258 37.182ZM241.308 37H247.09V35.894H242.61V26.724H241.308V37ZM248.91 37H254.986V35.894H250.212V32.156H254.104V31.05H250.212V27.83H254.832V26.724H248.91V37ZM264.149 37.182C265.479 37.182 266.487 36.65 267.299 35.712L266.585 34.9C265.927 35.614 265.185 36.048 264.205 36.048C262.245 36.048 261.013 34.424 261.013 31.834C261.013 29.272 262.301 27.676 264.247 27.676C265.129 27.676 265.815 28.082 266.347 28.656L267.047 27.816C266.459 27.158 265.479 26.542 264.233 26.542C261.629 26.542 259.683 28.558 259.683 31.876C259.683 35.208 261.601 37.182 264.149 37.182ZM272.041 37.182C273.903 37.182 275.569 35.726 275.569 33.206C275.569 30.672 273.903 29.202 272.041 29.202C270.179 29.202 268.513 30.672 268.513 33.206C268.513 35.726 270.179 37.182 272.041 37.182ZM272.041 36.118C270.725 36.118 269.843 34.956 269.843 33.206C269.843 31.456 270.725 30.266 272.041 30.266C273.357 30.266 274.253 31.456 274.253 33.206C274.253 34.956 273.357 36.118 272.041 36.118ZM277.577 37H278.851V32.114C279.355 30.812 280.139 30.364 280.769 30.364C281.077 30.364 281.259 30.392 281.511 30.49L281.749 29.37C281.511 29.244 281.273 29.202 280.937 29.202C280.083 29.202 279.313 29.818 278.781 30.784H278.739L278.627 29.398H277.577V37ZM283.005 40.206H284.279V37.63L284.251 36.3C284.937 36.86 285.665 37.182 286.351 37.182C288.101 37.182 289.655 35.684 289.655 33.08C289.655 30.742 288.591 29.202 286.631 29.202C285.749 29.202 284.895 29.706 284.209 30.266H284.167L284.055 29.398H283.005V40.206ZM286.141 36.118C285.637 36.118 284.965 35.908 284.279 35.32V31.33C285.021 30.644 285.679 30.28 286.323 30.28C287.765 30.28 288.325 31.414 288.325 33.094C288.325 34.984 287.401 36.118 286.141 36.118ZM292.194 37.182C292.698 37.182 293.118 36.79 293.118 36.216C293.118 35.628 292.698 35.222 292.194 35.222C291.69 35.222 291.27 35.628 291.27 36.216C291.27 36.79 291.69 37.182 292.194 37.182Z" fill="#1A1A1A"/>
<line y1="60.5" x2="750" y2="60.5" stroke="#1A1A1A"/>
<path d="M2.786 88.292H5.74V86.794H0.966V95.306H1.862C3.514 95.306 4.886 95.25 6.454 94.956L6.314 93.458C5.082 93.682 3.99 93.752 2.786 93.78V88.292ZM9.912 85.296V90.266H8.75V85.548H7.028V97.602H8.75V91.75H9.912V98.204H11.662V85.296H9.912ZM18.1849 92.884H20.4109V95.306H18.1849V92.884ZM17.9749 87.802H20.6069V91.428H17.9749V87.802ZM22.2449 95.306V92.884H24.1629V91.428H22.4409V87.802H24.1909V86.332H14.3909V87.802H16.1409V91.428H14.4609V92.884H16.3509V95.306H13.4669V96.79H25.1569V95.306H22.2449ZM31.0918 88.068H33.6538V86.542H26.5698V88.068H29.2438V88.782C29.2438 90.91 28.1938 93.332 26.0798 94.312L27.1158 95.782C28.5858 95.082 29.6218 93.668 30.1958 91.988C30.7698 93.514 31.7778 94.802 33.2058 95.46L34.2278 94.004C32.1138 93.024 31.0918 90.742 31.0918 88.782V88.068ZM38.3298 90.224H36.4538V85.31H34.6058V98.204H36.4538V91.75H38.3298V90.224Z" fill="#1A1A1A"/>
<path d="M130.448 88.74V89.678H132.926V92.968H134.088V85.492H132.926V88.74H130.448ZM131.148 91.596C129.328 90.952 128.096 89.37 128.096 87.76V87.326H130.854V86.402H124.148V87.326H126.948V87.76C126.948 89.566 125.66 91.26 123.784 91.946L124.386 92.856C125.856 92.296 127.018 91.12 127.55 89.664C128.096 90.952 129.174 91.988 130.574 92.492L131.148 91.596ZM129.944 97.14C128.054 97.14 126.906 96.608 126.906 95.698C126.906 94.788 128.054 94.242 129.944 94.242C131.834 94.242 132.982 94.788 132.982 95.698C132.982 96.608 131.834 97.14 129.944 97.14ZM129.944 93.36C127.368 93.36 125.758 94.214 125.758 95.698C125.758 97.182 127.368 98.036 129.944 98.036C132.52 98.036 134.116 97.182 134.116 95.698C134.116 94.214 132.52 93.36 129.944 93.36ZM137.657 92.884C139.547 92.478 141.521 91.232 142.319 89.496C143.117 91.218 145.105 92.45 147.023 92.828L147.485 91.904C145.301 91.554 142.907 89.832 142.907 87.83V87.564H147.065V86.626H137.559V87.564H141.717V87.83C141.717 89.832 139.337 91.582 137.167 91.946L137.657 92.884ZM142.893 95.474V92.436H141.745V95.474H136.621V96.426H148.017V95.474H142.893ZM152.02 93.822H150.886V97.756H159.762V96.818H152.02V93.822ZM159.132 90.868C159.426 89.314 159.426 88.124 159.426 87.102V86.15H150.928V87.088H158.292V87.102C158.292 88.124 158.292 89.286 157.984 90.868H149.5V91.806H153.28V94.83H154.4V91.806H156.612V94.83H157.732V91.806H160.896V90.868H159.132Z" fill="#1A1A1A"/>
<line y1="120.5" x2="750" y2="120.5" stroke="#1A1A1A"/>
<path d="M9.534 151.862H11.382V145.31H9.534V147.2H7.182V148.67H9.534V151.862ZM8.302 150.294C6.286 149.678 5.404 148.18 5.404 146.654V145.73H3.542V146.654C3.542 148.292 2.646 149.874 0.504 150.518L1.456 151.96C2.926 151.498 3.934 150.546 4.508 149.342C5.054 150.42 6.006 151.274 7.364 151.708L8.302 150.294ZM4.718 156.622V155.866H11.382V152.408H2.884V153.822H9.562V154.536H2.898V158.05H11.746V156.622H4.718ZM21.2649 150.448C19.5849 150.728 18.0869 150.784 15.9589 150.798V149.734H20.0609V145.898H14.1249V147.368H18.2409V148.362H14.1389V152.282H15.2729C17.8349 152.282 19.5569 152.24 21.4749 151.918L21.2649 150.448ZM22.3569 156.58H17.4429V155.544H22.3569V156.58ZM22.3569 154.13H17.4429V153.038H15.6089V158.05H24.1909V153.038H22.3569V154.13ZM22.3289 145.31V152.506H24.1909V145.31H22.3289Z" fill="#1A1A1A"/>
<path d="M123.616 157H130.07V155.894H127.228C126.71 155.894 126.08 155.95 125.548 155.992C127.956 153.71 129.566 151.624 129.566 149.58C129.566 147.746 128.418 146.542 126.584 146.542C125.282 146.542 124.4 147.144 123.56 148.054L124.302 148.782C124.862 148.11 125.59 147.592 126.43 147.592C127.704 147.592 128.32 148.446 128.32 149.622C128.32 151.386 126.836 153.43 123.616 156.244V157ZM134.658 157.182C136.604 157.182 137.85 155.404 137.85 151.834C137.85 148.278 136.604 146.542 134.658 146.542C132.698 146.542 131.452 148.264 131.452 151.834C131.452 155.404 132.698 157.182 134.658 157.182ZM134.658 156.16C133.482 156.16 132.698 154.858 132.698 151.834C132.698 148.838 133.482 147.564 134.658 147.564C135.82 147.564 136.604 148.838 136.604 151.834C136.604 154.858 135.82 156.16 134.658 156.16ZM139.763 157H145.391V155.936H143.333V146.724H142.353C141.793 147.06 141.135 147.298 140.225 147.466V148.278H142.045V155.936H139.763V157ZM147.907 153.15L150.245 149.65C150.539 149.146 150.819 148.642 151.071 148.138H151.127C151.099 148.67 151.057 149.496 151.057 150V153.15H147.907ZM151.057 157H152.261V154.172H153.619V153.15H152.261V146.724H150.847L146.577 153.332V154.172H151.057V157ZM163.989 154.788H165.151V145.492H163.989V147.116H160.447V148.04H163.989V149.524H160.447V150.434H163.989V154.788ZM161.917 151.512C160.041 151.848 158.403 151.946 156.681 151.96V146.388H155.533V152.926H156.485C158.333 152.926 160.027 152.828 162.043 152.464L161.917 151.512ZM158.249 156.818V153.99H157.101V157.756H165.473V156.818H158.249ZM171.304 157H176.932V155.936H174.874V146.724H173.894C173.334 147.06 172.676 147.298 171.766 147.466V148.278H173.586V155.936H171.304V157ZM181.73 157.182C183.676 157.182 184.922 155.404 184.922 151.834C184.922 148.278 183.676 146.542 181.73 146.542C179.77 146.542 178.524 148.264 178.524 151.834C178.524 155.404 179.77 157.182 181.73 157.182ZM181.73 156.16C180.554 156.16 179.77 154.858 179.77 151.834C179.77 148.838 180.554 147.564 181.73 147.564C182.892 147.564 183.676 148.838 183.676 151.834C183.676 154.858 182.892 156.16 181.73 156.16ZM192.982 151.456V152.212H195.474V152.87H196.622V145.492H195.474V151.456H192.982ZM190.364 146.528C191.596 146.528 192.38 146.948 192.38 147.62C192.38 148.264 191.596 148.698 190.364 148.698C189.146 148.698 188.348 148.264 188.348 147.62C188.348 146.948 189.146 146.528 190.364 146.528ZM190.364 149.482C192.226 149.482 193.458 148.768 193.458 147.62C193.458 146.444 192.226 145.73 190.364 145.73C188.502 145.73 187.27 146.444 187.27 147.62C187.27 148.768 188.502 149.482 190.364 149.482ZM189.72 152.912H190.868V150.98C192.086 150.91 193.332 150.812 194.55 150.644L194.48 149.888C191.792 150.196 188.726 150.21 186.304 150.21L186.444 151.078C187.452 151.078 188.558 151.064 189.72 151.036V152.912ZM189.37 157.042V155.95H196.622V153.332H188.208V154.158H195.502V155.166H188.236V157.896H197.056V157.042H189.37ZM202.845 157H208.473V155.936H206.415V146.724H205.435C204.875 147.06 204.217 147.298 203.307 147.466V148.278H205.127V155.936H202.845V157ZM213.033 157.182C214.769 157.182 216.393 155.908 216.393 153.654C216.393 151.4 215.007 150.392 213.299 150.392C212.683 150.392 212.235 150.546 211.773 150.798L212.025 147.83H215.903V146.724H210.905L210.583 151.54L211.269 151.96C211.857 151.568 212.291 151.358 212.977 151.358C214.265 151.358 215.105 152.226 215.105 153.696C215.105 155.194 214.125 156.118 212.921 156.118C211.731 156.118 210.989 155.572 210.401 154.984L209.771 155.824C210.457 156.51 211.437 157.182 213.033 157.182ZM228.191 145.478H227.043V151.918H228.191V145.478ZM219.287 148.726C219.287 147.634 220.197 146.864 221.415 146.864C222.647 146.864 223.543 147.634 223.543 148.726C223.543 149.804 222.647 150.574 221.415 150.574C220.197 150.574 219.287 149.804 219.287 148.726ZM224.663 148.726C224.663 147.06 223.291 145.926 221.415 145.926C219.539 145.926 218.181 147.06 218.181 148.726C218.181 150.378 219.539 151.498 221.415 151.498C223.291 151.498 224.663 150.378 224.663 148.726ZM221.219 156.958V155.572H228.191V152.534H220.057V153.444H227.057V154.718H220.085V157.868H228.611V156.958H221.219Z" fill="#1A1A1A"/>
<line y1="180.5" x2="750" y2="180.5" stroke="#1A1A1A"/>
<path d="M5.586 208.068H8.246V206.542H1.022V208.068H3.71V208.782C3.71 210.98 2.66 213.346 0.504 214.312L1.554 215.782C3.066 215.096 4.102 213.682 4.676 212.002C5.25 213.556 6.272 214.816 7.77 215.46L8.778 214.004C6.622 213.108 5.586 210.882 5.586 208.782V208.068ZM9.436 205.31V218.204H11.284V205.31H9.436ZM24.4989 209.188C21.5869 208.838 20.2289 207.41 20.2289 205.912V205.534H18.3389V205.912C18.3389 207.368 16.9529 208.838 14.0549 209.188L14.7409 210.63C16.8969 210.322 18.4649 209.412 19.2769 208.138C20.0889 209.426 21.6569 210.322 23.8269 210.63L24.4989 209.188ZM14.7689 215.39H21.8809V218.218H23.7289V213.934H14.7689V215.39ZM20.2149 211.554V209.888H18.3669V211.554H13.4809V213.024H25.1429V211.554H20.2149ZM31.1058 206.304H29.2438V208.18C29.2438 210.574 28.2638 213.038 26.0938 214.06L27.1998 215.558C28.6558 214.844 29.6218 213.486 30.1818 211.848C30.7138 213.388 31.6238 214.634 32.9678 215.32L34.0878 213.864C32.0158 212.842 31.1058 210.504 31.1058 208.18V206.304ZM38.3298 210.266H36.4538V205.31H34.6058V218.204H36.4538V211.806H38.3298V210.266ZM48.1847 216.58H43.3127V215.432H48.1847V216.58ZM48.1847 214.032H43.3127V212.8H41.4787V218.05H50.0187V212.8H48.1847V214.032ZM42.7947 210.462C41.8567 210.462 41.1707 209.888 41.1707 208.922C41.1707 207.956 41.8567 207.382 42.7947 207.382C43.7467 207.382 44.4327 207.956 44.4327 208.922C44.4327 209.888 43.7467 210.462 42.7947 210.462ZM48.1707 205.31V208.152H46.1127C45.7487 206.78 44.4327 205.842 42.7947 205.842C40.8627 205.842 39.4067 207.13 39.4067 208.922C39.4067 210.714 40.8627 212.002 42.7947 212.002C44.4607 212.002 45.7767 211.05 46.1267 209.65H48.1707V212.24H50.0187V205.31H48.1707ZM52.8316 206.64V208.11H57.1296C56.8636 210.966 55.4356 212.982 52.1456 214.564L53.1116 216.02C57.6896 213.808 59.0196 210.588 59.0196 206.64H52.8316ZM60.9936 205.296V218.19H62.8556V205.296H60.9936ZM65.4585 206.276V207.746H69.6585C69.3645 209.552 67.7685 211.05 64.8985 211.834L65.6685 213.304C69.5045 212.198 71.6605 209.776 71.6605 206.276H65.4585ZM68.6645 213.612H66.8165V217.98H75.5805V216.51H68.6645V213.612ZM75.1325 208.908V205.31H73.2845V214.536H75.1325V210.42H76.8545V208.908H75.1325Z" fill="#1A1A1A"/>
<path d="M123.616 217H130.07V215.894H127.228C126.71 215.894 126.08 215.95 125.548 215.992C127.956 213.71 129.566 211.624 129.566 209.58C129.566 207.746 128.418 206.542 126.584 206.542C125.282 206.542 124.4 207.144 123.56 208.054L124.302 208.782C124.862 208.11 125.59 207.592 126.43 207.592C127.704 207.592 128.32 208.446 128.32 209.622C128.32 211.386 126.836 213.43 123.616 216.244V217ZM134.658 217.182C136.604 217.182 137.85 215.404 137.85 211.834C137.85 208.278 136.604 206.542 134.658 206.542C132.698 206.542 131.452 208.264 131.452 211.834C131.452 215.404 132.698 217.182 134.658 217.182ZM134.658 216.16C133.482 216.16 132.698 214.858 132.698 211.834C132.698 208.838 133.482 207.564 134.658 207.564C135.82 207.564 136.604 208.838 136.604 211.834C136.604 214.858 135.82 216.16 134.658 216.16ZM142.423 217.182C144.369 217.182 145.615 215.404 145.615 211.834C145.615 208.278 144.369 206.542 142.423 206.542C140.463 206.542 139.217 208.264 139.217 211.834C139.217 215.404 140.463 217.182 142.423 217.182ZM142.423 216.16C141.247 216.16 140.463 214.858 140.463 211.834C140.463 208.838 141.247 207.564 142.423 207.564C143.585 207.564 144.369 208.838 144.369 211.834C144.369 214.858 143.585 216.16 142.423 216.16ZM149.069 217H150.399C150.553 212.982 151.001 210.588 153.409 207.508V206.724H146.983V207.83H151.953C149.951 210.63 149.237 213.108 149.069 217ZM163.989 214.788H165.151V205.492H163.989V207.116H160.447V208.04H163.989V209.524H160.447V210.434H163.989V214.788ZM161.917 211.512C160.041 211.848 158.403 211.946 156.681 211.96V206.388H155.533V212.926H156.485C158.333 212.926 160.027 212.828 162.043 212.464L161.917 211.512ZM158.249 216.818V213.99H157.101V217.756H165.473V216.818H158.249ZM172.205 212.982C172.877 212.982 173.577 212.562 174.151 211.582L173.423 211.064C173.073 211.736 172.681 212.016 172.233 212.016C171.351 212.016 170.693 210.7 169.461 210.7C168.775 210.7 168.075 211.12 167.501 212.1L168.215 212.604C168.579 211.932 168.971 211.652 169.419 211.652C170.301 211.652 170.973 212.982 172.205 212.982Z" fill="#1A1A1A"/>
<line y1="240.5" x2="750" y2="240.5" stroke="#1A1A1A"/>
<path d="M11.312 265.324H9.45V274.578H11.312V265.324ZM2.59 269.412C2.59 268.348 3.346 267.732 4.298 267.732C5.264 267.732 5.992 268.348 5.992 269.412C5.992 270.448 5.264 271.078 4.298 271.078C3.346 271.078 2.59 270.448 2.59 269.412ZM7.798 269.412C7.798 267.508 6.272 266.136 4.298 266.136C2.324 266.136 0.784 267.508 0.784 269.412C0.784 271.288 2.324 272.674 4.298 272.674C6.272 272.674 7.798 271.288 7.798 269.412ZM4.578 276.51V273.668H2.73V277.98H11.634V276.51H4.578ZM14.6009 270.77C17.0369 270.546 18.6189 269.65 19.3049 268.418C19.9769 269.65 21.5729 270.546 23.9949 270.77L24.6389 269.328C22.1889 269.118 20.9289 268.264 20.6349 267.382H24.0789V265.912H14.5449V267.382H17.9749C17.6809 268.264 16.4209 269.118 13.9849 269.328L14.6009 270.77ZM19.2769 276.79C17.5549 276.79 16.6729 276.482 16.6729 275.81C16.6729 275.138 17.5549 274.844 19.2769 274.844C20.9989 274.844 21.8809 275.138 21.8809 275.81C21.8809 276.482 20.9989 276.79 19.2769 276.79ZM19.2769 273.416C16.4909 273.416 14.8109 274.298 14.8109 275.81C14.8109 277.336 16.4909 278.204 19.2769 278.204C22.0629 278.204 23.7569 277.336 23.7569 275.81C23.7569 274.298 22.0629 273.416 19.2769 273.416ZM13.4809 271.26V272.716H25.1289V271.26H13.4809ZM40.2277 265.324H38.3797V272.632H40.2277V265.324ZM34.6277 270.098H31.9957V267.536H34.6277V270.098ZM36.4337 266.08H30.1757V271.54H36.4337V266.08ZM40.4377 274.69V273.318H36.8397V272.268H34.9637V273.318H31.3517V274.69H34.9217C34.7257 275.586 33.4377 276.566 30.8617 276.79L31.4357 278.162C33.6057 277.98 35.1177 277.224 35.9017 276.23C36.6857 277.21 38.1837 277.98 40.3257 278.162L40.9137 276.79C38.3657 276.58 37.0777 275.544 36.8817 274.69H40.4377ZM56.2925 265.324H54.4305V274.578H56.2925V265.324ZM47.5705 269.412C47.5705 268.348 48.3265 267.732 49.2785 267.732C50.2445 267.732 50.9725 268.348 50.9725 269.412C50.9725 270.448 50.2445 271.078 49.2785 271.078C48.3265 271.078 47.5705 270.448 47.5705 269.412ZM52.7785 269.412C52.7785 267.508 51.2525 266.136 49.2785 266.136C47.3045 266.136 45.7645 267.508 45.7645 269.412C45.7645 271.288 47.3045 272.674 49.2785 272.674C51.2525 272.674 52.7785 271.288 52.7785 269.412ZM49.5585 276.51V273.668H47.7105V277.98H56.6145V276.51H49.5585ZM59.0494 266.626V268.124H63.2634C62.9274 270.98 61.3314 273.024 58.3354 274.564L59.3714 275.978C63.6554 273.808 65.1254 270.49 65.1254 266.626H59.0494ZM70.3614 270.224H68.5554V265.296H66.7074V278.176H68.5554V271.75H70.3614V270.224Z" fill="#1A1A1A"/>
<path d="M124.484 266.836V267.76H129.202C128.964 270.742 127.284 273.15 123.91 274.76L124.526 275.698C128.698 273.654 130.364 270.462 130.364 266.836H124.484ZM132.898 265.478V278.036H134.046V265.478H132.898ZM145.819 276.944H140.065V275.32H145.819V276.944ZM145.819 274.424H140.065V272.842H138.931V277.868H146.967V272.842H145.819V274.424ZM140.051 270.924C138.805 270.924 137.909 270.112 137.909 268.964C137.909 267.816 138.805 267.018 140.051 267.018C141.297 267.018 142.193 267.816 142.193 268.964C142.193 270.112 141.297 270.924 140.051 270.924ZM145.805 265.492V268.474H143.243C143.005 267.018 141.745 266.066 140.051 266.066C138.175 266.066 136.817 267.242 136.817 268.964C136.817 270.7 138.175 271.876 140.051 271.876C141.773 271.876 143.033 270.896 143.257 269.412H145.805V272.226H146.967V265.492H145.805ZM158.292 270.476H152.062V268.628H158.292V270.476ZM159.44 265.982H158.292V267.704H152.062V265.982H150.928V271.414H159.44V265.982ZM160.882 272.926H149.486V273.85H154.582V278.05H155.73V273.85H160.882V272.926ZM171.563 271.974H172.725V265.492H171.563V267.76H168.833V268.698H171.563V271.974ZM169.715 270.812C167.909 270.21 166.635 268.684 166.635 267.046V265.884H165.501V267.046C165.501 268.866 164.255 270.448 162.365 271.092L162.967 272.002C164.437 271.456 165.571 270.364 166.103 268.95C166.649 270.224 167.741 271.218 169.127 271.708L169.715 270.812ZM165.795 276.958V275.614H172.725V272.604H164.633V273.514H171.591V274.746H164.661V277.868H173.201V276.958H165.795ZM176.546 269.426C176.546 268.18 177.456 267.284 178.688 267.284C179.906 267.284 180.816 268.18 180.816 269.426C180.816 270.672 179.906 271.568 178.688 271.568C177.456 271.568 176.546 270.672 176.546 269.426ZM184.442 268.376V270.462H181.74C181.852 270.14 181.908 269.79 181.908 269.426C181.908 269.048 181.852 268.698 181.74 268.376H184.442ZM184.442 271.386V274.76H185.604V265.492H184.442V267.452H181.25C180.662 266.724 179.766 266.276 178.688 266.276C176.84 266.276 175.454 267.592 175.454 269.426C175.454 271.26 176.84 272.576 178.688 272.576C179.766 272.576 180.676 272.128 181.264 271.386H184.442ZM178.73 276.818V273.808H177.568V277.756H185.954V276.818H178.73ZM199.505 271.694H197.643C197.993 269.888 197.993 268.558 197.993 267.382V266.29H189.565V267.214H196.873V267.382C196.873 268.558 196.873 269.888 196.481 271.694H188.151V272.632H193.219V278.05H194.381V272.632H199.505V271.694ZM211.851 271.61C209.653 271.218 207.259 269.37 207.259 267.284V266.318H206.055V267.284C206.055 269.37 203.675 271.218 201.477 271.61L201.953 272.562C203.885 272.156 205.845 270.854 206.657 269.062C207.469 270.854 209.443 272.156 211.361 272.562L211.851 271.61ZM207.231 275.46V272.408H206.083V275.46H201.015V276.398H212.411V275.46H207.231ZM224.198 265.492H223.05V274.662H224.198V265.492ZM215.308 269.44C215.308 268.222 216.232 267.354 217.45 267.354C218.696 267.354 219.62 268.222 219.62 269.44C219.62 270.686 218.696 271.554 217.45 271.554C216.232 271.554 215.308 270.686 215.308 269.44ZM220.74 269.44C220.74 267.634 219.326 266.36 217.45 266.36C215.588 266.36 214.188 267.634 214.188 269.44C214.188 271.26 215.588 272.548 217.45 272.548C219.326 272.548 220.74 271.26 220.74 269.44ZM217.268 276.818V273.724H216.12V277.756H224.576V276.818H217.268ZM227.823 270.686C229.881 270.434 231.757 269.524 232.457 268.152C233.143 269.524 235.033 270.434 237.091 270.686L237.497 269.776C235.271 269.538 233.255 268.446 233.199 267.046H237.105V266.122H227.823V267.046H231.715C231.659 268.446 229.643 269.538 227.417 269.776L227.823 270.686ZM232.443 277.112C230.469 277.112 229.307 276.622 229.307 275.74C229.307 274.872 230.469 274.368 232.443 274.368C234.403 274.368 235.579 274.872 235.579 275.74C235.579 276.622 234.403 277.112 232.443 277.112ZM232.443 273.472C229.755 273.472 228.145 274.284 228.145 275.74C228.145 277.21 229.755 278.022 232.443 278.022C235.117 278.022 236.741 277.21 236.741 275.74C236.741 274.284 235.117 273.472 232.443 273.472ZM226.773 271.456V272.38H238.127V271.456H226.773ZM239.96 279.66C241.22 279.128 242.004 278.078 242.004 276.734C242.004 275.796 241.598 275.222 240.926 275.222C240.408 275.222 239.96 275.572 239.96 276.118C239.96 276.706 240.408 277.014 240.898 277.014C240.954 277.014 240.996 277.014 241.052 277C241.038 277.854 240.52 278.526 239.652 278.904L239.96 279.66ZM257.278 265.492H256.172V274.998H257.278V265.492ZM251.034 271.708H248.332V269.51H251.034V271.708ZM252.112 270.056H253.792V274.634H254.87V265.73H253.792V269.118H252.112V266.486H251.034V268.6H248.332V266.486H247.24V272.632H252.112V270.056ZM250.236 276.818V273.738H249.088V277.756H257.642V276.818H250.236ZM263.898 268.572H266.684V267.648H263.898V265.702H262.75V267.648H259.922V268.572H262.764V269.538C262.764 271.708 261.42 273.85 259.572 274.732L260.216 275.614C261.644 274.914 262.806 273.458 263.338 271.708C263.898 273.36 265.06 274.718 266.488 275.376L267.118 274.494C265.27 273.668 263.898 271.624 263.898 269.538V268.572ZM268.756 265.464V270.518H266.04V271.456H268.756V278.064H269.904V265.464H268.756ZM273.179 266.836V267.76H277.897C277.659 270.742 275.979 273.15 272.605 274.76L273.221 275.698C277.393 273.654 279.059 270.462 279.059 266.836H273.179ZM281.593 265.478V278.036H282.741V265.478H281.593ZM294.514 276.944H288.76V275.32H294.514V276.944ZM294.514 274.424H288.76V272.842H287.626V277.868H295.662V272.842H294.514V274.424ZM288.746 270.924C287.5 270.924 286.604 270.112 286.604 268.964C286.604 267.816 287.5 267.018 288.746 267.018C289.992 267.018 290.888 267.816 290.888 268.964C290.888 270.112 289.992 270.924 288.746 270.924ZM294.5 265.492V268.474H291.938C291.7 267.018 290.44 266.066 288.746 266.066C286.87 266.066 285.512 267.242 285.512 268.964C285.512 270.7 286.87 271.876 288.746 271.876C290.468 271.876 291.728 270.896 291.952 269.412H294.5V272.226H295.662V265.492H294.5ZM308.499 265.492H307.351V274.662H308.499V265.492ZM299.609 269.44C299.609 268.222 300.533 267.354 301.751 267.354C302.997 267.354 303.921 268.222 303.921 269.44C303.921 270.686 302.997 271.554 301.751 271.554C300.533 271.554 299.609 270.686 299.609 269.44ZM305.041 269.44C305.041 267.634 303.627 266.36 301.751 266.36C299.889 266.36 298.489 267.634 298.489 269.44C298.489 271.26 299.889 272.548 301.751 272.548C303.627 272.548 305.041 271.26 305.041 269.44ZM301.569 276.818V273.724H300.421V277.756H308.877V276.818H301.569ZM312.124 270.686C314.182 270.434 316.058 269.524 316.758 268.152C317.444 269.524 319.334 270.434 321.392 270.686L321.798 269.776C319.572 269.538 317.556 268.446 317.5 267.046H321.406V266.122H312.124V267.046H316.016C315.96 268.446 313.944 269.538 311.718 269.776L312.124 270.686ZM316.744 277.112C314.77 277.112 313.608 276.622 313.608 275.74C313.608 274.872 314.77 274.368 316.744 274.368C318.704 274.368 319.88 274.872 319.88 275.74C319.88 276.622 318.704 277.112 316.744 277.112ZM316.744 273.472C314.056 273.472 312.446 274.284 312.446 275.74C312.446 277.21 314.056 278.022 316.744 278.022C319.418 278.022 321.042 277.21 321.042 275.74C321.042 274.284 319.418 273.472 316.744 273.472ZM311.074 271.456V272.38H322.428V271.456H311.074ZM324.261 279.66C325.521 279.128 326.305 278.078 326.305 276.734C326.305 275.796 325.899 275.222 325.227 275.222C324.709 275.222 324.261 275.572 324.261 276.118C324.261 276.706 324.709 277.014 325.199 277.014C325.255 277.014 325.297 277.014 325.353 277C325.339 277.854 324.821 278.526 323.953 278.904L324.261 279.66ZM332.03 270.602C334.088 270.35 335.978 269.426 336.664 268.04C337.364 269.426 339.24 270.35 341.298 270.602L341.704 269.692C339.506 269.44 337.504 268.362 337.406 266.976H341.312V266.052H332.03V266.976H335.922C335.824 268.362 333.822 269.44 331.624 269.692L332.03 270.602ZM339.786 275.81C339.786 276.65 338.61 277.14 336.65 277.14C334.676 277.14 333.514 276.65 333.514 275.81C333.514 274.97 334.676 274.494 336.65 274.494C338.61 274.494 339.786 274.97 339.786 275.81ZM342.334 272.282V271.358H330.98V272.282H336.076V273.626C333.738 273.738 332.352 274.508 332.352 275.81C332.352 277.238 333.976 278.022 336.664 278.022C339.338 278.022 340.948 277.238 340.948 275.81C340.948 274.508 339.576 273.738 337.238 273.626V272.282H342.334ZM354.695 271.61C352.497 271.218 350.103 269.37 350.103 267.284V266.318H348.899V267.284C348.899 269.37 346.519 271.218 344.321 271.61L344.797 272.562C346.729 272.156 348.689 270.854 349.501 269.062C350.313 270.854 352.287 272.156 354.205 272.562L354.695 271.61ZM350.075 275.46V272.408H348.927V275.46H343.859V276.398H355.255V275.46H350.075ZM357.48 266.836V267.76H362.198C361.96 270.742 360.28 273.15 356.906 274.76L357.522 275.698C361.694 273.654 363.36 270.462 363.36 266.836H357.48ZM365.894 265.478V278.036H367.042V265.478H365.894ZM378.815 276.944H373.061V275.32H378.815V276.944ZM378.815 274.424H373.061V272.842H371.927V277.868H379.963V272.842H378.815V274.424ZM373.047 270.924C371.801 270.924 370.905 270.112 370.905 268.964C370.905 267.816 371.801 267.018 373.047 267.018C374.293 267.018 375.189 267.816 375.189 268.964C375.189 270.112 374.293 270.924 373.047 270.924ZM378.801 265.492V268.474H376.239C376.001 267.018 374.741 266.066 373.047 266.066C371.171 266.066 369.813 267.242 369.813 268.964C369.813 270.7 371.171 271.876 373.047 271.876C374.769 271.876 376.029 270.896 376.253 269.412H378.801V272.226H379.963V265.492H378.801ZM392.8 265.492H391.652V274.662H392.8V265.492ZM383.91 269.44C383.91 268.222 384.834 267.354 386.052 267.354C387.298 267.354 388.222 268.222 388.222 269.44C388.222 270.686 387.298 271.554 386.052 271.554C384.834 271.554 383.91 270.686 383.91 269.44ZM389.342 269.44C389.342 267.634 387.928 266.36 386.052 266.36C384.19 266.36 382.79 267.634 382.79 269.44C382.79 271.26 384.19 272.548 386.052 272.548C387.928 272.548 389.342 271.26 389.342 269.44ZM385.87 276.818V273.724H384.722V277.756H393.178V276.818H385.87ZM396.425 270.686C398.483 270.434 400.359 269.524 401.059 268.152C401.745 269.524 403.635 270.434 405.693 270.686L406.099 269.776C403.873 269.538 401.857 268.446 401.801 267.046H405.707V266.122H396.425V267.046H400.317C400.261 268.446 398.245 269.538 396.019 269.776L396.425 270.686ZM401.045 277.112C399.071 277.112 397.909 276.622 397.909 275.74C397.909 274.872 399.071 274.368 401.045 274.368C403.005 274.368 404.181 274.872 404.181 275.74C404.181 276.622 403.005 277.112 401.045 277.112ZM401.045 273.472C398.357 273.472 396.747 274.284 396.747 275.74C396.747 277.21 398.357 278.022 401.045 278.022C403.719 278.022 405.343 277.21 405.343 275.74C405.343 274.284 403.719 273.472 401.045 273.472ZM395.375 271.456V272.38H406.729V271.456H395.375Z" fill="#1A1A1A"/>
<line y1="300.5" x2="750" y2="300.5" stroke="#1A1A1A"/>
<path d="M1.834 331.694C4.088 331.386 5.67 330.42 6.44 329.104C7.21 330.42 8.792 331.386 11.046 331.694L11.704 330.252C9.086 329.93 7.728 328.67 7.546 327.438H11.2V325.968H1.638V327.438H5.348C5.166 328.67 3.794 329.93 1.162 330.252L1.834 331.694ZM12.264 332.436H0.616V333.906H5.474V338.232H7.322V333.906H12.264V332.436ZM24.7649 331.19C21.8249 330.714 20.2429 328.782 20.2429 326.948V326.024H18.2689V326.948C18.2689 328.74 16.6729 330.714 13.7609 331.19L14.5169 332.716C16.7709 332.31 18.4089 331.092 19.2489 329.51C20.0889 331.106 21.7409 332.31 24.0089 332.716L24.7649 331.19ZM20.1869 335.194V332.31H18.3389V335.194H13.4809V336.678H25.1569V335.194H20.1869ZM29.0338 339.828L30.3218 339.282C29.1458 337.238 28.6138 334.886 28.6138 332.576C28.6138 330.294 29.1458 327.928 30.3218 325.884L29.0338 325.338C27.7178 327.494 26.9478 329.79 26.9478 332.576C26.9478 335.39 27.7178 337.658 29.0338 339.828ZM43.3268 331.778V330.308H41.7028C41.9548 328.936 41.9548 327.858 41.9548 326.892V325.856H33.0928V327.34H40.1348C40.1348 328.194 40.0928 329.132 39.8548 330.308H31.6508V331.778H36.5508V333.598H32.8268V335.054H40.1208V338.204H41.9828V333.598H38.3988V331.778H43.3268ZM46.8817 326.738H45.0337V335.068H45.9297C47.2177 335.068 48.7017 334.998 50.3817 334.69L50.2277 333.136C48.9957 333.36 47.8897 333.444 46.8817 333.472V326.738ZM53.8117 325.296V330.266H52.6497V325.534H50.9277V337.588H52.6497V331.764H53.8117V338.19H55.5757V325.296H53.8117ZM58.8086 339.828C60.1386 337.658 60.9086 335.39 60.9086 332.576C60.9086 329.79 60.1386 327.494 58.8086 325.338L57.5346 325.884C58.7106 327.928 59.2426 330.294 59.2426 332.576C59.2426 334.886 58.7106 337.238 57.5346 339.282L58.8086 339.828Z" fill="#1A1A1A"/>
<path d="M128.138 326.556H126.99V328.81C126.99 331.134 125.562 333.556 123.742 334.466L124.442 335.376C125.856 334.62 127.018 333.038 127.564 331.176C128.138 332.94 129.286 334.438 130.714 335.152L131.386 334.242C129.566 333.374 128.138 331.092 128.138 328.81V326.556ZM132.94 325.478V329.734H130.028V330.672H132.94V338.05H134.088V325.478H132.94ZM137.699 333.094C139.715 332.73 141.521 331.722 142.319 330.182C143.103 331.722 144.909 332.73 146.925 333.094L147.373 332.184C144.937 331.792 142.893 330.322 142.893 328.39H146.925V327.466H142.893V325.758H141.731V327.466H137.685V328.39H141.731C141.731 330.322 139.687 331.792 137.251 332.184L137.699 333.094ZM142.893 335.502V332.646H141.731V335.502H136.621V336.454H148.017V335.502H142.893ZM160.868 331.694H159.006C159.356 329.888 159.356 328.558 159.356 327.382V326.29H150.928V327.214H158.236V327.382C158.236 328.558 158.236 329.888 157.844 331.694H149.514V332.632H154.582V338.05H155.744V332.632H160.868V331.694ZM169.906 326.556H168.758V328.81C168.758 331.134 167.33 333.556 165.51 334.466L166.21 335.376C167.624 334.62 168.786 333.038 169.332 331.176C169.906 332.94 171.054 334.438 172.482 335.152L173.154 334.242C171.334 333.374 169.906 331.092 169.906 328.81V326.556ZM174.708 325.478V329.734H171.796V330.672H174.708V338.05H175.856V325.478H174.708ZM179.466 333.094C181.482 332.73 183.288 331.722 184.086 330.182C184.87 331.722 186.676 332.73 188.692 333.094L189.14 332.184C186.704 331.792 184.66 330.322 184.66 328.39H188.692V327.466H184.66V325.758H183.498V327.466H179.452V328.39H183.498C183.498 330.322 181.454 331.792 179.018 332.184L179.466 333.094ZM184.66 335.502V332.646H183.498V335.502H178.388V336.454H189.784V335.502H184.66ZM192.317 330.602C194.375 330.35 196.265 329.426 196.951 328.04C197.651 329.426 199.527 330.35 201.585 330.602L201.991 329.692C199.793 329.44 197.791 328.362 197.693 326.976H201.599V326.052H192.317V326.976H196.209C196.111 328.362 194.109 329.44 191.911 329.692L192.317 330.602ZM200.073 335.81C200.073 336.65 198.897 337.14 196.937 337.14C194.963 337.14 193.801 336.65 193.801 335.81C193.801 334.97 194.963 334.494 196.937 334.494C198.897 334.494 200.073 334.97 200.073 335.81ZM202.621 332.282V331.358H191.267V332.282H196.363V333.626C194.025 333.738 192.639 334.508 192.639 335.81C192.639 337.238 194.263 338.022 196.951 338.022C199.625 338.022 201.235 337.238 201.235 335.81C201.235 334.508 199.863 333.738 197.525 333.626V332.282H202.621ZM205.504 329.188C205.504 328.012 206.4 327.186 207.66 327.186C208.906 327.186 209.816 328.012 209.816 329.188C209.816 330.364 208.906 331.176 207.66 331.176C206.4 331.176 205.504 330.364 205.504 329.188ZM210.936 329.188C210.936 327.438 209.55 326.234 207.66 326.234C205.756 326.234 204.384 327.438 204.384 329.188C204.384 330.938 205.756 332.142 207.66 332.142C209.55 332.142 210.936 330.938 210.936 329.188ZM209.9 337.112C208.038 337.112 206.904 336.566 206.904 335.67C206.904 334.76 208.038 334.228 209.9 334.228C211.748 334.228 212.882 334.76 212.882 335.67C212.882 336.566 211.748 337.112 209.9 337.112ZM209.9 333.318C207.352 333.318 205.756 334.172 205.756 335.67C205.756 337.154 207.352 338.022 209.9 338.022C212.434 338.022 214.03 337.154 214.03 335.67C214.03 334.172 212.434 333.318 209.9 333.318ZM213.89 328.614V325.492H212.742V332.926H213.89V329.58H215.752V328.614H213.89ZM223.283 335.544V333.178H227.301V332.254H219.573V330.224H227.007V326.402H218.411V327.34H225.887V329.3H218.439V333.178H222.121V335.544H217.011V336.482H228.421V335.544H223.283ZM233.525 337H239.153V335.936H237.095V326.724H236.115C235.555 327.06 234.897 327.298 233.987 327.466V328.278H235.807V335.936H233.525V337ZM241.669 333.15L244.007 329.65C244.301 329.146 244.581 328.642 244.833 328.138H244.889C244.861 328.67 244.819 329.496 244.819 330V333.15H241.669ZM244.819 337H246.023V334.172H247.381V333.15H246.023V326.724H244.609L240.339 333.332V334.172H244.819V337ZM248.874 339.66C250.134 339.128 250.918 338.078 250.918 336.734C250.918 335.796 250.512 335.222 249.84 335.222C249.322 335.222 248.874 335.572 248.874 336.118C248.874 336.706 249.322 337.014 249.812 337.014C249.868 337.014 249.91 337.014 249.966 337C249.966 337.826 249.448 338.512 248.566 338.904L248.874 339.66ZM265.898 325.492H264.75V334.676H265.898V325.492ZM263.266 331.974C261.418 331.358 260.116 329.832 260.116 328.138V327.452H262.958V326.528H256.07V327.452H258.94V328.138C258.94 329.93 257.666 331.568 255.762 332.226L256.364 333.122C257.848 332.59 259.01 331.456 259.542 330.028C260.116 331.344 261.264 332.38 262.706 332.884L263.266 331.974ZM258.968 336.818V333.808H257.82V337.756H266.276V336.818H258.968ZM274.73 335.544V333.178H278.748V332.254H271.02V330.224H278.454V326.402H269.858V327.34H277.334V329.3H269.886V333.178H273.568V335.544H268.458V336.482H279.868V335.544H274.73ZM291.641 325.492H290.493V332.044H291.641V325.492ZM286.755 330.56H283.143V328.684H286.755V330.56ZM287.889 325.982H286.755V327.802H283.143V325.982H282.009V331.484H287.889V325.982ZM284.683 337V335.656H291.655V332.688H283.521V333.584H290.521V334.816H283.549V337.896H292.075V337H284.683ZM304.534 325.478H303.386V333.206H304.534V325.478ZM302.126 330.588C300.334 330.952 298.78 331.036 296.134 331.036V327.396H300.894V326.472H294.986V331.974H296.022C298.78 331.974 300.39 331.89 302.238 331.526L302.126 330.588ZM300.362 337.126C298.458 337.126 297.282 336.566 297.282 335.628C297.282 334.69 298.458 334.13 300.362 334.13C302.266 334.13 303.428 334.69 303.428 335.628C303.428 336.566 302.266 337.126 300.362 337.126ZM300.362 333.22C297.772 333.22 296.148 334.102 296.148 335.628C296.148 337.154 297.772 338.036 300.362 338.036C302.952 338.036 304.576 337.154 304.576 335.628C304.576 334.102 302.952 333.22 300.362 333.22ZM310.73 337H316.358V335.936H314.3V326.724H313.32C312.76 327.06 312.102 327.298 311.192 327.466V328.278H313.012V335.936H310.73V337ZM321.366 331.582C322.612 331.582 323.228 332.464 323.228 333.85C323.228 335.25 322.458 336.188 321.478 336.188C320.19 336.188 319.42 335.026 319.266 332.898C319.896 331.96 320.722 331.582 321.366 331.582ZM321.478 337.182C323.074 337.182 324.418 335.838 324.418 333.85C324.418 331.708 323.312 330.63 321.576 330.63C320.764 330.63 319.868 331.106 319.238 331.876C319.294 328.684 320.484 327.606 321.884 327.606C322.514 327.606 323.13 327.9 323.536 328.39L324.236 327.592C323.676 326.99 322.906 326.542 321.842 326.542C319.854 326.542 318.048 328.082 318.048 332.1C318.048 335.488 319.504 337.182 321.478 337.182ZM326.793 331.036C328.865 330.826 330.685 330.084 331.455 328.852C332.211 330.084 334.045 330.826 336.117 331.036L336.467 330.154C334.101 329.93 332.183 328.992 332.071 327.62H335.963V326.71H332.029V325.436H330.881V326.71H326.947V327.62H330.825C330.713 328.992 328.781 329.93 326.443 330.154L326.793 331.036ZM331.441 337.154C329.453 337.154 328.305 336.72 328.305 335.936C328.305 335.152 329.453 334.704 331.441 334.704C333.429 334.704 334.577 335.152 334.577 335.936C334.577 336.72 333.429 337.154 331.441 337.154ZM331.441 333.85C328.739 333.85 327.143 334.578 327.143 335.936C327.143 337.294 328.739 338.022 331.441 338.022C334.143 338.022 335.739 337.294 335.739 335.936C335.739 334.578 334.143 333.85 331.441 333.85ZM325.771 331.862V332.786H337.125V331.862H325.771Z" fill="#1A1A1A"/>
<line y1="360.5" x2="750" y2="360.5" stroke="#1A1A1A"/>
<path d="M1.834 391.694C4.088 391.386 5.67 390.42 6.44 389.104C7.21 390.42 8.792 391.386 11.046 391.694L11.704 390.252C9.086 389.93 7.728 388.67 7.546 387.438H11.2V385.968H1.638V387.438H5.348C5.166 388.67 3.794 389.93 1.162 390.252L1.834 391.694ZM12.264 392.436H0.616V393.906H5.474V398.232H7.322V393.906H12.264V392.436ZM24.7649 391.19C21.8249 390.714 20.2429 388.782 20.2429 386.948V386.024H18.2689V386.948C18.2689 388.74 16.6729 390.714 13.7609 391.19L14.5169 392.716C16.7709 392.31 18.4089 391.092 19.2489 389.51C20.0889 391.106 21.7409 392.31 24.0089 392.716L24.7649 391.19ZM20.1869 395.194V392.31H18.3389V395.194H13.4809V396.678H25.1569V395.194H20.1869ZM29.0338 399.828L30.3218 399.282C29.1458 397.238 28.6138 394.886 28.6138 392.576C28.6138 390.294 29.1458 387.928 30.3218 385.884L29.0338 385.338C27.7178 387.494 26.9478 389.79 26.9478 392.576C26.9478 395.39 27.7178 397.658 29.0338 399.828ZM35.4308 393.682H33.7508V390.896H35.4308V393.682ZM38.3428 390.028H37.1388V386.486H35.4308V389.44H33.7508V386.472H32.0148V395.152H37.1388V391.512H38.3428V397.644H40.0648V385.534H38.3428V390.028ZM40.9608 385.296V398.19H42.7108V385.296H40.9608ZM54.9597 391.96H47.7777V390.518H54.5677V389.09H47.7777V387.732H54.8617V386.248H45.9017V393.416H54.9597V391.96ZM44.5297 395.222V396.72H56.2057V395.222H44.5297ZM64.7026 389.902C62.9666 390.238 61.3146 390.364 59.7746 390.392V385.912H57.9266V391.932H59.0186C60.8386 391.932 62.8126 391.806 64.9126 391.386L64.7026 389.902ZM60.9786 394.606H65.7526V396.608H60.9786V394.606ZM59.1586 398.05H67.5586V393.164H59.1586V398.05ZM69.2666 388.026H67.5586V385.31H65.7106V392.562H67.5586V389.538H69.2666V388.026ZM71.6875 399.828C73.0175 397.658 73.7875 395.39 73.7875 392.576C73.7875 389.79 73.0175 387.494 71.6875 385.338L70.4135 385.884C71.5895 387.928 72.1215 390.294 72.1215 392.576C72.1215 394.886 71.5895 397.238 70.4135 399.282L71.6875 399.828Z" fill="#1A1A1A"/>
<path d="M126.906 397.182C128.838 397.182 130.126 396.02 130.126 394.522C130.126 393.192 129.272 392.492 128.39 391.96V391.89C128.992 391.428 129.762 390.532 129.762 389.482C129.762 387.928 128.698 386.836 126.948 386.836C125.352 386.836 124.134 387.858 124.134 389.384C124.134 390.448 124.778 391.19 125.52 391.694V391.75C124.582 392.254 123.63 393.15 123.63 394.452C123.63 396.034 125.016 397.182 126.906 397.182ZM127.606 391.568C126.402 391.092 125.296 390.588 125.296 389.384C125.296 388.418 125.982 387.788 126.934 387.788C128.04 387.788 128.67 388.572 128.67 389.552C128.67 390.294 128.292 390.952 127.606 391.568ZM126.934 396.23C125.702 396.23 124.792 395.432 124.792 394.34C124.792 393.416 125.38 392.674 126.192 392.156C127.648 392.73 128.908 393.192 128.908 394.494C128.908 395.516 128.11 396.23 126.934 396.23ZM131.998 397H137.626V395.936H135.568V387.018H134.588C134.028 387.354 133.37 387.592 132.46 387.746V388.572H134.28V395.936H131.998V397ZM146.94 397.182C148.27 397.182 149.278 396.65 150.09 395.712L149.376 394.9C148.718 395.614 147.976 396.048 146.996 396.048C145.036 396.048 143.804 394.424 143.804 391.834C143.804 389.272 145.092 387.676 147.038 387.676C147.92 387.676 148.606 388.082 149.138 388.656L149.838 387.816C149.25 387.158 148.27 386.542 147.024 386.542C144.42 386.542 142.474 388.558 142.474 391.876C142.474 395.208 144.392 397.182 146.94 397.182ZM153.628 397.182C154.566 397.182 155.42 396.692 156.148 396.09H156.19L156.302 397H157.352V392.324C157.352 390.448 156.568 389.202 154.72 389.202C153.502 389.202 152.424 389.748 151.724 390.196L152.228 391.078C152.83 390.672 153.628 390.266 154.51 390.266C155.756 390.266 156.078 391.204 156.078 392.184C152.844 392.548 151.402 393.374 151.402 395.026C151.402 396.398 152.354 397.182 153.628 397.182ZM153.992 396.16C153.236 396.16 152.648 395.81 152.648 394.942C152.648 393.962 153.516 393.332 156.078 393.024V395.152C155.336 395.81 154.734 396.16 153.992 396.16ZM162.776 397.182C163.686 397.182 164.554 396.832 165.24 396.216L164.68 395.362C164.204 395.796 163.588 396.118 162.888 396.118C161.488 396.118 160.536 394.956 160.536 393.206C160.536 391.456 161.544 390.266 162.93 390.266C163.532 390.266 163.994 390.546 164.442 390.938L165.1 390.098C164.554 389.622 163.868 389.202 162.874 389.202C160.928 389.202 159.206 390.672 159.206 393.206C159.206 395.726 160.76 397.182 162.776 397.182ZM166.903 397H168.177V391.484C168.947 390.714 169.479 390.322 170.263 390.322C171.271 390.322 171.705 390.924 171.705 392.352V397H172.979V392.184C172.979 390.238 172.251 389.202 170.655 389.202C169.619 389.202 168.835 389.776 168.135 390.476L168.177 388.908V385.856H166.903V397ZM178.65 397H179.826V391.316C179.826 390.434 179.728 389.188 179.672 388.292H179.728L180.54 390.63L182.486 395.964H183.354L185.3 390.63L186.112 388.292H186.168C186.098 389.188 186 390.434 186 391.316V397H187.218V386.724H185.65L183.69 392.226C183.452 392.94 183.228 393.654 182.99 394.368H182.92C182.668 393.654 182.43 392.94 182.192 392.226L180.218 386.724H178.65V397ZM191.649 397.182C192.587 397.182 193.441 396.692 194.169 396.09H194.211L194.323 397H195.373V392.324C195.373 390.448 194.589 389.202 192.741 389.202C191.523 389.202 190.445 389.748 189.745 390.196L190.249 391.078C190.851 390.672 191.649 390.266 192.531 390.266C193.777 390.266 194.099 391.204 194.099 392.184C190.865 392.548 189.423 393.374 189.423 395.026C189.423 396.398 190.375 397.182 191.649 397.182ZM192.013 396.16C191.257 396.16 190.669 395.81 190.669 394.942C190.669 393.962 191.537 393.332 194.099 393.024V395.152C193.357 395.81 192.755 396.16 192.013 396.16ZM197.802 397H199.076V391.484C199.846 390.714 200.378 390.322 201.162 390.322C202.17 390.322 202.604 390.924 202.604 392.352V397H203.878V392.184C203.878 390.238 203.15 389.202 201.554 389.202C200.518 389.202 199.734 389.776 199.006 390.49H198.964L198.852 389.398H197.802V397ZM208.922 400.5C211.274 400.5 212.772 399.282 212.772 397.868C212.772 396.622 211.876 396.062 210.112 396.062H208.628C207.606 396.062 207.298 395.726 207.298 395.236C207.298 394.816 207.508 394.564 207.788 394.326C208.124 394.494 208.544 394.592 208.922 394.592C210.462 394.592 211.694 393.57 211.694 391.946C211.694 391.288 211.442 390.728 211.078 390.378H212.632V389.398H209.986C209.72 389.3 209.342 389.202 208.922 389.202C207.382 389.202 206.066 390.252 206.066 391.918C206.066 392.828 206.556 393.556 207.06 393.962V394.018C206.668 394.298 206.206 394.802 206.206 395.432C206.206 396.034 206.5 396.44 206.906 396.678V396.734C206.192 397.196 205.786 397.812 205.786 398.456C205.786 399.772 207.06 400.5 208.922 400.5ZM208.922 393.724C208.04 393.724 207.298 393.024 207.298 391.918C207.298 390.798 208.026 390.14 208.922 390.14C209.818 390.14 210.546 390.812 210.546 391.918C210.546 393.024 209.79 393.724 208.922 393.724ZM209.104 399.632C207.732 399.632 206.906 399.1 206.906 398.288C206.906 397.84 207.13 397.392 207.676 397C208.012 397.084 208.376 397.126 208.656 397.126H209.972C210.98 397.126 211.526 397.364 211.526 398.064C211.526 398.862 210.56 399.632 209.104 399.632ZM219.634 397H220.936V387.83H224.044V386.724H216.526V387.83H219.634V397ZM225.761 397H227.035V391.484C227.805 390.714 228.337 390.322 229.121 390.322C230.129 390.322 230.563 390.924 230.563 392.352V397H231.837V392.184C231.837 390.238 231.109 389.202 229.513 389.202C228.477 389.202 227.693 389.776 226.993 390.476L227.035 388.908V385.856H225.761V397ZM236.015 397.182C236.953 397.182 237.807 396.692 238.535 396.09H238.577L238.689 397H239.739V392.324C239.739 390.448 238.955 389.202 237.107 389.202C235.889 389.202 234.811 389.748 234.111 390.196L234.615 391.078C235.217 390.672 236.015 390.266 236.897 390.266C238.143 390.266 238.465 391.204 238.465 392.184C235.231 392.548 233.789 393.374 233.789 395.026C233.789 396.398 234.741 397.182 236.015 397.182ZM236.379 396.16C235.623 396.16 235.035 395.81 235.035 394.942C235.035 393.962 235.903 393.332 238.465 393.024V395.152C237.723 395.81 237.121 396.16 236.379 396.16ZM242.167 397H243.441V391.484C244.211 390.714 244.743 390.322 245.527 390.322C246.535 390.322 246.969 390.924 246.969 392.352V397H248.243V392.184C248.243 390.238 247.515 389.202 245.919 389.202C244.883 389.202 244.099 389.776 243.371 390.49H243.329L243.217 389.398H242.167V397ZM253.288 400.5C255.64 400.5 257.138 399.282 257.138 397.868C257.138 396.622 256.242 396.062 254.478 396.062H252.994C251.972 396.062 251.664 395.726 251.664 395.236C251.664 394.816 251.874 394.564 252.154 394.326C252.49 394.494 252.91 394.592 253.288 394.592C254.828 394.592 256.06 393.57 256.06 391.946C256.06 391.288 255.808 390.728 255.444 390.378H256.998V389.398H254.352C254.086 389.3 253.708 389.202 253.288 389.202C251.748 389.202 250.432 390.252 250.432 391.918C250.432 392.828 250.922 393.556 251.426 393.962V394.018C251.034 394.298 250.572 394.802 250.572 395.432C250.572 396.034 250.866 396.44 251.272 396.678V396.734C250.558 397.196 250.152 397.812 250.152 398.456C250.152 399.772 251.426 400.5 253.288 400.5ZM253.288 393.724C252.406 393.724 251.664 393.024 251.664 391.918C251.664 390.798 252.392 390.14 253.288 390.14C254.184 390.14 254.912 390.812 254.912 391.918C254.912 393.024 254.156 393.724 253.288 393.724ZM253.47 399.632C252.098 399.632 251.272 399.1 251.272 398.288C251.272 397.84 251.495 397.392 252.042 397C252.378 397.084 252.742 397.126 253.022 397.126H254.338C255.346 397.126 255.892 397.364 255.892 398.064C255.892 398.862 254.926 399.632 253.47 399.632ZM264.363 397.182C266.295 397.182 267.583 396.02 267.583 394.522C267.583 393.192 266.729 392.492 265.847 391.96V391.89C266.449 391.428 267.219 390.532 267.219 389.482C267.219 387.928 266.155 386.836 264.405 386.836C262.809 386.836 261.591 387.858 261.591 389.384C261.591 390.448 262.235 391.19 262.977 391.694V391.75C262.039 392.254 261.087 393.15 261.087 394.452C261.087 396.034 262.473 397.182 264.363 397.182ZM265.063 391.568C263.859 391.092 262.753 390.588 262.753 389.384C262.753 388.418 263.439 387.788 264.391 387.788C265.497 387.788 266.127 388.572 266.127 389.552C266.127 390.294 265.749 390.952 265.063 391.568ZM264.391 396.23C263.159 396.23 262.249 395.432 262.249 394.34C262.249 393.416 262.837 392.674 263.649 392.156C265.105 392.73 266.365 393.192 266.365 394.494C266.365 395.516 265.567 396.23 264.391 396.23ZM269.273 399.66C270.533 399.128 271.317 398.078 271.317 396.734C271.317 395.796 270.911 395.222 270.239 395.222C269.721 395.222 269.273 395.572 269.273 396.118C269.273 396.706 269.721 397.014 270.211 397.014C270.267 397.014 270.309 397.014 270.365 397C270.365 397.826 269.847 398.512 268.965 398.904L269.273 399.66ZM280.444 396.118C278.596 396.118 277.392 394.452 277.392 391.834C277.392 389.258 278.596 387.676 280.444 387.676C282.278 387.676 283.496 389.258 283.496 391.834C283.496 394.452 282.278 396.118 280.444 396.118ZM283.58 399.576C284.196 399.576 284.742 399.464 285.05 399.352L284.798 398.344C284.532 398.428 284.182 398.498 283.72 398.498C282.614 398.498 281.662 398.036 281.2 397.126C283.37 396.748 284.826 394.788 284.826 391.834C284.826 388.544 283.02 386.542 280.444 386.542C277.868 386.542 276.062 388.544 276.062 391.834C276.062 394.844 277.574 396.832 279.814 397.14C280.388 398.554 281.69 399.576 283.58 399.576ZM289.141 397.182C290.191 397.182 290.947 396.636 291.661 395.81H291.703L291.801 397H292.865V389.398H291.591V394.788C290.863 395.698 290.317 396.076 289.533 396.076C288.525 396.076 288.105 395.474 288.105 394.06V389.398H286.831V394.214C286.831 396.146 287.545 397.182 289.141 397.182ZM297.183 397.182C298.121 397.182 298.975 396.692 299.703 396.09H299.745L299.857 397H300.907V392.324C300.907 390.448 300.123 389.202 298.275 389.202C297.057 389.202 295.979 389.748 295.279 390.196L295.783 391.078C296.385 390.672 297.183 390.266 298.065 390.266C299.311 390.266 299.633 391.204 299.633 392.184C296.399 392.548 294.957 393.374 294.957 395.026C294.957 396.398 295.909 397.182 297.183 397.182ZM297.547 396.16C296.791 396.16 296.203 395.81 296.203 394.942C296.203 393.962 297.071 393.332 299.633 393.024V395.152C298.891 395.81 298.289 396.16 297.547 396.16ZM303.335 397H304.609V391.484C305.379 390.714 305.911 390.322 306.695 390.322C307.703 390.322 308.137 390.924 308.137 392.352V397H309.411V392.184C309.411 390.238 308.683 389.202 307.087 389.202C306.051 389.202 305.267 389.776 304.539 390.49H304.497L304.385 389.398H303.335V397ZM314.968 397H320.596V395.936H318.538V387.018H317.558C316.998 387.354 316.34 387.592 315.43 387.746V388.572H317.25V395.936H314.968V397ZM322.552 399.66C323.812 399.128 324.596 398.078 324.596 396.734C324.596 395.796 324.19 395.222 323.518 395.222C323 395.222 322.552 395.572 322.552 396.118C322.552 396.706 323 397.014 323.49 397.014C323.546 397.014 323.588 397.014 323.644 397C323.644 397.826 323.126 398.512 322.244 398.904L322.552 399.66ZM329.929 397H331.231V392.156H336.019V397H337.307V386.724H336.019V391.036H331.231V386.724H329.929V397ZM342.957 397.182C344.819 397.182 346.485 395.726 346.485 393.206C346.485 390.672 344.819 389.202 342.957 389.202C341.095 389.202 339.429 390.672 339.429 393.206C339.429 395.726 341.095 397.182 342.957 397.182ZM342.957 396.118C341.641 396.118 340.759 394.956 340.759 393.206C340.759 391.456 341.641 390.266 342.957 390.266C344.273 390.266 345.169 391.456 345.169 393.206C345.169 394.956 344.273 396.118 342.957 396.118ZM355.614 397.182C356.944 397.182 357.952 396.65 358.764 395.712L358.05 394.9C357.392 395.614 356.65 396.048 355.67 396.048C353.71 396.048 352.478 394.424 352.478 391.834C352.478 389.272 353.766 387.676 355.712 387.676C356.594 387.676 357.28 388.082 357.812 388.656L358.512 387.816C357.924 387.158 356.944 386.542 355.698 386.542C353.094 386.542 351.148 388.558 351.148 391.876C351.148 395.208 353.066 397.182 355.614 397.182ZM360.552 397H361.826V391.484C362.596 390.714 363.128 390.322 363.912 390.322C364.92 390.322 365.354 390.924 365.354 392.352V397H366.628V392.184C366.628 390.238 365.9 389.202 364.304 389.202C363.268 389.202 362.484 389.776 361.784 390.476L361.826 388.908V385.856H360.552V397ZM369.056 397H370.33V389.398H369.056V397ZM369.7 387.83C370.204 387.83 370.554 387.494 370.554 386.976C370.554 386.486 370.204 386.15 369.7 386.15C369.196 386.15 368.846 386.486 368.846 386.976C368.846 387.494 369.196 387.83 369.7 387.83ZM376.154 397H377.33V391.316C377.33 390.434 377.232 389.188 377.176 388.292H377.232L378.044 390.63L379.99 395.964H380.858L382.804 390.63L383.616 388.292H383.672C383.602 389.188 383.504 390.434 383.504 391.316V397H384.722V386.724H383.154L381.194 392.226C380.956 392.94 380.732 393.654 380.494 394.368H380.424C380.172 393.654 379.934 392.94 379.696 392.226L377.722 386.724H376.154V397ZM387.403 397H388.677V389.398H387.403V397ZM388.047 387.83C388.551 387.83 388.901 387.494 388.901 386.976C388.901 386.486 388.551 386.15 388.047 386.15C387.543 386.15 387.193 386.486 387.193 386.976C387.193 387.494 387.543 387.83 388.047 387.83ZM391.259 397H392.533V391.484C393.303 390.714 393.835 390.322 394.619 390.322C395.627 390.322 396.061 390.924 396.061 392.352V397H397.335V392.184C397.335 390.238 396.607 389.202 395.011 389.202C393.975 389.202 393.191 389.776 392.463 390.49H392.421L392.309 389.398H391.259V397ZM399.817 397H401.091V391.484C401.861 390.714 402.393 390.322 403.177 390.322C404.185 390.322 404.619 390.924 404.619 392.352V397H405.893V392.184C405.893 390.238 405.165 389.202 403.569 389.202C402.533 389.202 401.749 389.776 401.049 390.476L401.091 388.908V385.856H399.817V397Z" fill="#1A1A1A"/>
<line y1="420.5" x2="750" y2="420.5" stroke="#1A1A1A"/>
<path d="M5.334 448.068H7.896V446.542H0.812V448.068H3.486V448.782C3.486 450.91 2.436 453.332 0.322 454.312L1.358 455.782C2.828 455.082 3.864 453.668 4.438 451.988C5.012 453.514 6.02 454.802 7.448 455.46L8.47 454.004C6.356 453.024 5.334 450.742 5.334 448.782V448.068ZM12.572 450.224H10.696V445.31H8.848V458.204H10.696V451.75H12.572V450.224ZM16.7429 454.34H14.8949V457.98H23.8409V456.51H16.7429V454.34ZM16.7989 448.46H21.8249V449.58H16.7989V448.46ZM20.2149 452.114V451.036H23.6589V445.772H21.8249V447.032H16.7989V445.772H14.9649V451.036H18.3669V452.114H13.4809V453.584H25.1429V452.114H20.2149ZM29.5518 454.788H34.8018V456.608H29.5518V454.788ZM27.7318 458.05H36.6078V453.346H27.7318V458.05ZM36.3698 450.532C36.6638 449.048 36.6638 447.956 36.6638 446.92V445.884H27.8018V447.354H34.8438C34.8438 448.25 34.8018 449.244 34.5358 450.532H26.3598V452.002H38.0358V450.532H36.3698Z" fill="#1A1A1A"/>
<path d="M124.232 457H129.86V455.936H127.802V446.724H126.822C126.262 447.06 125.604 447.298 124.694 447.466V448.278H126.514V455.936H124.232V457ZM133.454 454.508H140.692V458.05H141.854V453.584H133.454V454.508ZM134.938 451.246C133.706 451.246 132.796 450.392 132.796 449.188C132.796 448.012 133.706 447.158 134.938 447.158C136.156 447.158 137.08 448.012 137.08 449.188C137.08 450.392 136.156 451.246 134.938 451.246ZM140.692 445.492V448.712H138.116C137.906 447.2 136.618 446.178 134.938 446.178C133.076 446.178 131.704 447.424 131.704 449.188C131.704 450.98 133.076 452.226 134.938 452.226C136.632 452.226 137.92 451.19 138.13 449.65H140.692V452.884H141.854V445.492H140.692ZM148.007 457H153.635V455.936H151.577V446.724H150.597C150.037 447.06 149.379 447.298 148.469 447.466V448.278H150.289V455.936H148.007V457ZM161.933 449.342V450.294H164.467V454.858H165.629V445.492H164.467V449.342H161.933ZM162.703 452.184C160.841 451.596 159.567 450.14 159.567 448.474V448.082H162.339V447.158H159.567V445.548H158.419V447.158H155.633V448.082H158.419V448.474C158.419 450.224 157.173 451.792 155.311 452.422L155.885 453.318C157.355 452.8 158.475 451.736 159.007 450.35C159.581 451.624 160.701 452.618 162.143 453.094L162.703 452.184ZM158.755 456.818V454.018H157.593V457.756H165.979V456.818H158.755ZM174.205 457.182C175.941 457.182 177.565 455.908 177.565 453.654C177.565 451.4 176.179 450.392 174.471 450.392C173.855 450.392 173.407 450.546 172.945 450.798L173.197 447.83H177.075V446.724H172.077L171.755 451.54L172.441 451.96C173.029 451.568 173.463 451.358 174.149 451.358C175.437 451.358 176.277 452.226 176.277 453.696C176.277 455.194 175.297 456.118 174.093 456.118C172.903 456.118 172.161 455.572 171.573 454.984L170.943 455.824C171.629 456.51 172.609 457.182 174.205 457.182ZM183.412 451.204H180.71V449.174H183.412V451.204ZM184.49 446.29H183.412V448.264H180.71V446.29H179.618V452.128H184.49V446.29ZM181.214 454.704H188.508V458.036H189.656V453.78H181.214V454.704ZM188.55 445.492V448.754H186.954V445.716H185.862V452.954H186.954V449.692H188.55V453.01H189.656V445.492H188.55ZM197.103 451.498H193.575V447.522H197.103V451.498ZM198.223 446.598H192.455V452.408H198.223V446.598ZM195.017 453.808H193.869V457.756H202.241V456.818H195.017V453.808ZM201.681 449.3V445.464H200.533V454.662H201.681V450.266H203.529V449.3H201.681ZM211.396 452.898V453.752H213.944V455.04H215.092V445.478H213.944V452.898H211.396ZM208.834 446.836C210.024 446.836 210.836 447.368 210.836 448.166C210.836 448.978 210.024 449.51 208.834 449.51C207.644 449.51 206.832 448.978 206.832 448.166C206.832 447.368 207.644 446.836 208.834 446.836ZM208.834 450.364C210.668 450.364 211.928 449.51 211.928 448.166C211.928 446.85 210.668 445.982 208.834 445.982C207 445.982 205.74 446.85 205.74 448.166C205.74 449.51 207 450.364 208.834 450.364ZM208.386 454.592H209.534V452.114C210.668 452.044 211.83 451.918 212.936 451.75L212.838 450.924C210.178 451.26 207.07 451.288 204.746 451.288L204.9 452.24C205.936 452.24 207.14 452.226 208.386 452.17V454.592ZM207.686 456.818V454.102H206.538V457.756H215.414V456.818H207.686Z" fill="#1A1A1A"/>
<line y1="480.5" x2="750" y2="480.5" stroke="#1A1A1A"/>
<path d="M11.312 505.324H9.45V514.718H11.312V505.324ZM8.498 511.302C6.398 510.63 5.502 508.978 5.502 507.27V506.024H3.626V507.27C3.626 508.992 2.702 510.798 0.56 511.526L1.498 512.996C2.996 512.478 4.004 511.428 4.592 510.126C5.152 511.33 6.132 512.282 7.56 512.772L8.498 511.302ZM4.578 516.51V513.822H2.73V517.98H11.634V516.51H4.578ZM19.2769 516.818C17.5549 516.818 16.6729 516.524 16.6729 515.866C16.6729 515.208 17.5549 514.928 19.2769 514.928C20.9989 514.928 21.8809 515.208 21.8809 515.866C21.8809 516.524 20.9989 516.818 19.2769 516.818ZM19.2769 513.528C16.4909 513.528 14.8109 514.368 14.8109 515.866C14.8109 517.364 16.4909 518.218 19.2769 518.218C22.0629 518.218 23.7569 517.364 23.7569 515.866C23.7569 514.368 22.0629 513.528 19.2769 513.528ZM17.9469 510.35C18.3669 510.406 18.8149 510.434 19.3049 510.434C19.7809 510.434 20.2289 510.406 20.6349 510.364V511.428H17.9469V510.35ZM19.3049 506.906C21.0689 506.906 22.0769 507.256 22.0769 507.984C22.0769 508.684 21.0689 509.048 19.3049 509.048C17.5549 509.048 16.5469 508.684 16.5469 507.984C16.5469 507.256 17.5549 506.906 19.3049 506.906ZM22.4829 511.428V509.888C23.4349 509.468 23.9809 508.824 23.9809 507.984C23.9809 506.444 22.1609 505.506 19.3049 505.506C16.4629 505.506 14.6429 506.444 14.6429 507.984C14.6429 508.81 15.1749 509.454 16.0989 509.874V511.428H13.4809V512.884H25.1289V511.428H22.4829ZM35.2918 513.192H37.1398V505.31H35.2918V507.382H33.7798V508.866H35.2918V509.804H33.7798V511.274H35.2918V513.192ZM29.4818 507.634H30.6858V511.134C30.2798 511.148 29.8738 511.176 29.4818 511.176V507.634ZM33.6398 510.91C33.2618 510.952 32.8698 510.994 32.4638 511.036V507.634H33.4858V506.164H26.6818V507.634H27.7038V511.218C27.2278 511.218 26.7798 511.218 26.3598 511.218L26.5558 512.716C28.5858 512.716 31.3578 512.674 33.7518 512.268L33.6398 510.91ZM32.7718 516.818C31.0778 516.818 30.2098 516.482 30.2098 515.81C30.2098 515.124 31.0778 514.802 32.7718 514.802C34.4798 514.802 35.3478 515.124 35.3478 515.81C35.3478 516.482 34.4798 516.818 32.7718 516.818ZM32.7718 513.402C30.0278 513.402 28.3618 514.284 28.3618 515.81C28.3618 517.322 30.0278 518.204 32.7718 518.204C35.5298 518.204 37.1958 517.322 37.1958 515.81C37.1958 514.284 35.5298 513.402 32.7718 513.402ZM39.8267 506.626V508.124H44.0407C43.7047 510.98 42.1087 513.024 39.1127 514.564L40.1487 515.978C44.4327 513.808 45.9027 510.49 45.9027 506.626H39.8267ZM51.1387 510.224H49.3327V505.296H47.4847V518.176H49.3327V511.75H51.1387V510.224ZM62.4636 508.852H55.3796V507.13H62.3936V505.66H53.5456V510.308H62.4636V508.852ZM57.9136 516.804C56.1916 516.804 55.3096 516.51 55.3096 515.838C55.3096 515.166 56.1916 514.858 57.9136 514.858C59.6356 514.858 60.5176 515.166 60.5176 515.838C60.5176 516.51 59.6356 516.804 57.9136 516.804ZM57.9136 513.458C55.1276 513.458 53.4476 514.312 53.4476 515.838C53.4476 517.35 55.1276 518.204 57.9136 518.204C60.6996 518.204 62.3936 517.35 62.3936 515.838C62.3936 514.312 60.6996 513.458 57.9136 513.458ZM52.1316 511.204V512.716H63.7936V511.204H52.1316ZM73.4245 516.58H68.2165V515.418H73.4245V516.58ZM73.4245 513.99H68.2165V512.646H66.3825V518.064H75.2725V512.646H73.4245V513.99ZM75.0205 510.336C75.3005 508.894 75.3005 507.872 75.3005 506.864V505.828H66.4385V507.298H73.4805C73.4805 508.152 73.4385 509.118 73.1865 510.336H64.9965V511.82H76.6725V510.336H75.0205Z" fill="#1A1A1A"/>
<path d="M124.4 517H127.676C129.972 517 131.568 516.006 131.568 513.99C131.568 512.59 130.7 511.778 129.482 511.54V511.47C130.434 511.162 130.98 510.266 130.98 509.244C130.98 507.438 129.538 506.724 127.452 506.724H124.4V517ZM125.702 511.106V507.76H127.284C128.88 507.76 129.706 508.208 129.706 509.412C129.706 510.448 128.992 511.106 127.228 511.106H125.702ZM125.702 515.964V512.086H127.494C129.286 512.086 130.294 512.674 130.294 513.948C130.294 515.334 129.258 515.964 127.494 515.964H125.702ZM135.575 515.376H136.597V512.31H139.439V511.358H136.597V508.292H135.575V511.358H132.733V512.31H135.575V515.376Z" fill="#1A1A1A"/>
<line y1="540.5" x2="750" y2="540.5" stroke="#1A1A1A"/>
<path d="M9.45 565.31V572.618H11.312V565.31H9.45ZM2.73 573.192V578.05H11.312V573.192H2.73ZM9.506 574.634V576.608H4.55V574.634H9.506ZM4.298 565.898C2.296 565.898 0.784 567.186 0.784 569.006C0.784 570.812 2.296 572.1 4.298 572.1C6.3 572.1 7.798 570.812 7.798 569.006C7.798 567.186 6.3 565.898 4.298 565.898ZM4.298 567.438C5.264 567.438 5.992 568.026 5.992 569.006C5.992 569.972 5.264 570.56 4.298 570.56C3.318 570.56 2.59 569.972 2.59 569.006C2.59 568.026 3.318 567.438 4.298 567.438ZM21.5169 571.232C19.4729 570.56 18.5209 569.048 18.4929 567.536H21.0409V566.08H14.0269V567.536H16.6169C16.5889 569.132 15.6369 570.77 13.5369 571.442L14.4749 572.884C15.9729 572.394 17.0089 571.386 17.5829 570.126C18.1709 571.274 19.1509 572.198 20.5789 572.646L21.5169 571.232ZM15.4129 575.124H22.3289V578.218H24.1909V573.654H15.4129V575.124ZM22.3289 565.31V573.08H24.1909V565.31H22.3289ZM32.9398 572.8V574.06H35.3618V575.082H37.2098V565.31H35.3618V572.8H32.9398ZM30.4618 567.088C31.3158 567.088 31.9178 567.424 31.9178 568.054C31.9178 568.684 31.3158 569.006 30.4618 569.006C29.5938 569.006 28.9918 568.684 28.9918 568.054C28.9918 567.424 29.5938 567.088 30.4618 567.088ZM30.4618 570.35C32.3378 570.35 33.6678 569.426 33.6678 568.054C33.6678 566.682 32.3378 565.744 30.4618 565.744C28.5718 565.744 27.2558 566.682 27.2558 568.054C27.2558 569.426 28.5718 570.35 30.4618 570.35ZM29.7758 576.51V574.746H31.5538V572.31C32.5898 572.226 33.6258 572.114 34.6338 571.946L34.5078 570.63C31.7918 570.98 28.6558 571.008 26.3038 571.022L26.5418 572.492C27.5078 572.492 28.5858 572.478 29.7198 572.422V574.144H27.9278V577.98H37.4898V576.51H29.7758Z" fill="#1A1A1A"/>
<path d="M125.772 577H127.102C127.256 572.982 127.704 570.602 130.112 567.508V566.738H123.686V567.83H128.656C126.654 570.63 125.94 573.108 125.772 577ZM134.42 577.182C136.156 577.182 137.78 575.908 137.78 573.654C137.78 571.4 136.394 570.392 134.686 570.392C134.07 570.392 133.608 570.546 133.16 570.798L133.412 567.83H137.29V566.738H132.292L131.97 571.54L132.656 571.96C133.244 571.568 133.678 571.358 134.364 571.358C135.652 571.358 136.492 572.226 136.492 573.696C136.492 575.194 135.512 576.118 134.308 576.118C133.118 576.118 132.376 575.572 131.788 574.984L131.158 575.824C131.844 576.51 132.824 577.182 134.42 577.182ZM144.453 571.092H140.981V567.354H144.453V571.092ZM148.457 568.446V570H145.573V568.446H148.457ZM145.573 570.924H148.457V572.912H149.619V565.492H148.457V567.522H145.573V566.43H139.847V572.002H145.573V570.924ZM145.461 577.126C143.585 577.126 142.437 576.58 142.437 575.656C142.437 574.732 143.585 574.186 145.461 574.186C147.365 574.186 148.513 574.732 148.513 575.656C148.513 576.58 147.365 577.126 145.461 577.126ZM145.461 573.29C142.885 573.29 141.289 574.144 141.289 575.656C141.289 577.154 142.885 578.022 145.461 578.022C148.051 578.022 149.647 577.154 149.647 575.656C149.647 574.144 148.051 573.29 145.461 573.29Z" fill="#1A1A1A"/>
<line y1="600.5" x2="750" y2="600.5" stroke="#1A1A1A"/>
</svg>
