<svg width="343" height="961" viewBox="0 0 343 961" fill="none" xmlns="http://www.w3.org/2000/svg">
<line y1="0.5" x2="343" y2="0.5" stroke="#1A1A1A"/>
<path d="M9.904 27.272H6.544V25.688H4.432V27.272H1.056V28.92H9.904V27.272ZM3.84 32.28C3.84 31.512 4.512 31.096 5.488 31.096C6.48 31.096 7.136 31.512 7.136 32.28C7.136 33.032 6.48 33.448 5.488 33.448C4.512 33.448 3.84 33.032 3.84 32.28ZM6.544 34.936C8.112 34.632 9.136 33.64 9.136 32.28C9.136 30.616 7.632 29.496 5.488 29.496C3.328 29.496 1.824 30.616 1.824 32.28C1.824 33.64 2.848 34.632 4.432 34.936V36.184C3.12 36.216 1.872 36.216 0.768 36.216L1.024 37.928C3.632 37.928 7.04 37.912 10.256 37.32L10.096 35.8C8.944 35.96 7.744 36.04 6.544 36.104V34.936ZM10.864 25.64V40.376H12.976V25.64H10.864ZM20.8308 26.776H18.7028V28.92C18.7028 31.656 17.5828 34.472 15.1028 35.64L16.3668 37.352C18.0308 36.536 19.1348 34.984 19.7748 33.112C20.3828 34.872 21.4228 36.296 22.9588 37.08L24.2388 35.416C21.8708 34.248 20.8308 31.576 20.8308 28.92V26.776ZM29.0868 31.304H26.9428V25.64H24.8308V40.376H26.9428V33.064H29.0868V31.304ZM35.6135 31.816H32.8135V28.376H35.6135V31.816ZM40.3335 29.448V30.712H37.6775V29.448H40.3335ZM37.6775 32.392H40.3335V34.28H42.4455V25.64H40.3335V27.768H37.6775V26.696H30.7335V33.48H37.6775V32.392ZM37.4535 38.76C35.5335 38.76 34.5255 38.36 34.5255 37.512C34.5255 36.664 35.5335 36.264 37.4535 36.264C39.3895 36.264 40.3975 36.664 40.3975 37.512C40.3975 38.36 39.3895 38.76 37.4535 38.76ZM37.4535 34.648C34.3335 34.648 32.4135 35.704 32.4135 37.512C32.4135 39.32 34.3335 40.376 37.4535 40.376C40.5895 40.376 42.5095 39.32 42.5095 37.512C42.5095 35.704 40.5895 34.648 37.4535 34.648Z" fill="#1A1A1A"/>
<path d="M2.128 66.808C4.352 66.424 6.464 65.224 7.344 63.528C8.208 65.224 10.336 66.424 12.56 66.808L13.072 65.768C10.544 65.4 8.064 63.752 8.064 61.864V61.784H12.56V60.728H2.08V61.784H6.608V61.864C6.608 63.752 4.128 65.4 1.632 65.768L2.128 66.808ZM13.824 68.008H0.864V69.08H6.656V74.184H7.968V69.08H13.84L13.824 68.008ZM24.2228 66.584C22.0948 65.848 20.6228 63.976 20.6228 61.912V60.504H19.3108V61.912C19.3108 64.056 17.8548 66.056 15.6948 66.84L16.3668 67.88C18.0468 67.24 19.3588 65.912 19.9828 64.216C20.6228 65.8 21.9188 67.032 23.5668 67.624L24.2228 66.584ZM17.7428 70.264H26.0308V74.2H27.3428V69.208H17.7428V70.264ZM26.0308 59.848V68.472H27.3428V59.848H26.0308ZM39.3895 61.592H35.6935V59.848H34.3815V61.592H30.6695V62.648H39.3895V61.592ZM32.8295 66.12C32.8295 65.112 33.7255 64.472 35.0375 64.472C36.3335 64.472 37.2295 65.112 37.2295 66.12C37.2295 67.112 36.3335 67.752 35.0375 67.752C33.7255 67.752 32.8295 67.112 32.8295 66.12ZM35.6935 68.744C37.3895 68.536 38.4775 67.544 38.4775 66.12C38.4775 64.504 37.0855 63.464 35.0375 63.464C32.9895 63.464 31.5815 64.504 31.5815 66.12C31.5815 67.56 32.6855 68.552 34.3815 68.76V70.296C32.9575 70.344 31.5815 70.36 30.3655 70.36L30.5575 71.464C33.1975 71.464 36.6535 71.416 39.8535 70.888L39.7575 69.912C38.4455 70.088 37.0535 70.184 35.6935 70.248V68.744ZM40.6695 59.848V74.184H41.9815V59.848H40.6695ZM49.8203 61.08H48.5243V63.656C48.5243 66.264 46.8923 69.016 44.8283 70.072L45.6123 71.128C47.2283 70.264 48.5563 68.472 49.1803 66.376C49.8363 68.344 51.1323 70.024 52.6523 70.84L53.4683 69.8C51.4523 68.792 49.8203 66.184 49.8203 63.656V61.08ZM58.4123 65.656H56.0443V59.848H54.7323V74.184H56.0443V66.744H58.4123V65.656ZM65.0451 66.392H68.8851V61.416H63.7331V62.488H67.6211V65.352H63.7811V70.664H64.7251C66.5491 70.664 68.1811 70.584 70.1811 70.248L70.0691 69.176C68.2291 69.496 66.6771 69.56 65.0451 69.56V66.392ZM71.3331 64.984H69.5571V66.072H71.3331V73.432H72.5651V60.184H71.3331V64.984ZM74.2291 59.832V74.184H75.4931V59.832H74.2291ZM80.8839 71.464H89.4439V68.12H79.5559V69.144H88.1639V70.488H79.5879V73.992H89.9559V72.968H80.8839V71.464ZM89.0279 65.704C89.3639 64.008 89.3639 62.728 89.3639 61.608V60.52H79.6839V61.56H88.0679V61.608C88.0679 62.024 88.0679 62.472 88.0519 62.952L79.3319 63.224L79.4919 64.264L87.9879 63.88C87.9239 64.424 87.8439 65.032 87.6999 65.704H78.0519V66.76H90.9799V65.704H89.0279ZM95.6448 75.864H96.7168L101.501 60.312H100.445L95.6448 75.864ZM106.913 73H113.521V71.736H108.401V61.272H106.913V73ZM115.584 73H122.528V71.736H117.072V67.464H121.52V66.2H117.072V62.52H122.352V61.272H115.584V73ZM129.423 73.208C130.943 73.208 132.095 72.6 133.023 71.528L132.207 70.6C131.455 71.416 130.607 71.912 129.487 71.912C127.247 71.912 125.839 70.056 125.839 67.096C125.839 64.168 127.311 62.344 129.535 62.344C130.543 62.344 131.327 62.808 131.935 63.464L132.735 62.504C132.063 61.752 130.943 61.048 129.519 61.048C126.543 61.048 124.319 63.352 124.319 67.144C124.319 70.952 126.511 73.208 129.423 73.208ZM135.194 73H141.802V71.736H136.682V61.272H135.194V73ZM143.866 73H150.81V71.736H145.354V67.464H149.802V66.2H145.354V62.52H150.634V61.272H143.866V73ZM161.282 73.208C162.802 73.208 163.954 72.6 164.882 71.528L164.066 70.6C163.314 71.416 162.466 71.912 161.346 71.912C159.106 71.912 157.698 70.056 157.698 67.096C157.698 64.168 159.17 62.344 161.394 62.344C162.402 62.344 163.186 62.808 163.794 63.464L164.594 62.504C163.922 61.752 162.802 61.048 161.378 61.048C158.402 61.048 156.178 63.352 156.178 67.144C156.178 70.952 158.37 73.208 161.282 73.208ZM170.301 73.208C172.429 73.208 174.333 71.544 174.333 68.664C174.333 65.768 172.429 64.088 170.301 64.088C168.173 64.088 166.269 65.768 166.269 68.664C166.269 71.544 168.173 73.208 170.301 73.208ZM170.301 71.992C168.797 71.992 167.789 70.664 167.789 68.664C167.789 66.664 168.797 65.304 170.301 65.304C171.805 65.304 172.829 66.664 172.829 68.664C172.829 70.664 171.805 71.992 170.301 71.992ZM176.628 73H178.084V67.416C178.66 65.928 179.556 65.416 180.276 65.416C180.628 65.416 180.836 65.448 181.124 65.56L181.396 64.28C181.124 64.136 180.852 64.088 180.468 64.088C179.492 64.088 178.612 64.792 178.004 65.896H177.956L177.828 64.312H176.628V73ZM182.831 76.664H184.287V73.72L184.255 72.2C185.039 72.84 185.871 73.208 186.655 73.208C188.655 73.208 190.431 71.496 190.431 68.52C190.431 65.848 189.215 64.088 186.975 64.088C185.967 64.088 184.991 64.664 184.207 65.304H184.159L184.031 64.312H182.831V76.664ZM186.415 71.992C185.839 71.992 185.071 71.752 184.287 71.08V66.52C185.135 65.736 185.887 65.32 186.623 65.32C188.271 65.32 188.911 66.616 188.911 68.536C188.911 70.696 187.855 71.992 186.415 71.992ZM193.333 73.208C193.909 73.208 194.389 72.76 194.389 72.104C194.389 71.448 193.909 70.968 193.333 70.968C192.757 70.968 192.277 71.448 192.277 72.104C192.277 72.76 192.757 73.208 193.333 73.208Z" fill="#1A1A1A"/>
<line y1="96.5" x2="343" y2="96.5" stroke="#1A1A1A"/>
<path d="M3.184 125.048H6.56V123.336H1.104V133.064H2.128C4.016 133.064 5.584 133 7.376 132.664L7.216 130.952C5.808 131.208 4.56 131.288 3.184 131.32V125.048ZM11.328 121.624V127.304H10V121.912H8.032V135.688H10V129H11.328V136.376H13.328V121.624H11.328ZM20.7828 130.296H23.3268V133.064H20.7828V130.296ZM20.5428 124.488H23.5508V128.632H20.5428V124.488ZM25.4228 133.064V130.296H27.6148V128.632H25.6468V124.488H27.6468V122.808H16.4468V124.488H18.4468V128.632H16.5268V130.296H18.6868V133.064H15.3908V134.76H28.7508V133.064H25.4228ZM35.5335 124.792H38.4615V123.048H30.3655V124.792H33.4215V125.608C33.4215 128.04 32.2215 130.808 29.8055 131.928L30.9895 133.608C32.6695 132.808 33.8535 131.192 34.5095 129.272C35.1655 131.016 36.3175 132.488 37.9495 133.24L39.1175 131.576C36.7015 130.456 35.5335 127.848 35.5335 125.608V124.792ZM43.8055 127.256H41.6615V121.64H39.5495V136.376H41.6615V129H43.8055V127.256Z" fill="#1A1A1A"/>
<path d="M8.512 159.56V160.632H11.344V164.392H12.672V155.848H11.344V159.56H8.512ZM9.312 162.824C7.232 162.088 5.824 160.28 5.824 158.44V157.944H8.976V156.888H1.312V157.944H4.512V158.44C4.512 160.504 3.04 162.44 0.896 163.224L1.584 164.264C3.264 163.624 4.592 162.28 5.2 160.616C5.824 162.088 7.056 163.272 8.656 163.848L9.312 162.824ZM7.936 169.16C5.776 169.16 4.464 168.552 4.464 167.512C4.464 166.472 5.776 165.848 7.936 165.848C10.096 165.848 11.408 166.472 11.408 167.512C11.408 168.552 10.096 169.16 7.936 169.16ZM7.936 164.84C4.992 164.84 3.152 165.816 3.152 167.512C3.152 169.208 4.992 170.184 7.936 170.184C10.88 170.184 12.704 169.208 12.704 167.512C12.704 165.816 10.88 164.84 7.936 164.84ZM16.7508 164.296C18.9108 163.832 21.1668 162.408 22.0788 160.424C22.9908 162.392 25.2628 163.8 27.4548 164.232L27.9828 163.176C25.4868 162.776 22.7508 160.808 22.7508 158.52V158.216H27.5028V157.144H16.6388V158.216H21.3908V158.52C21.3908 160.808 18.6708 162.808 16.1908 163.224L16.7508 164.296ZM22.7348 167.256V163.784H21.4228V167.256H15.5668V168.344H28.5908V167.256H22.7348ZM33.1655 165.368H31.8695V169.864H42.0135V168.792H33.1655V165.368ZM41.2935 161.992C41.6295 160.216 41.6295 158.856 41.6295 157.688V156.6H31.9175V157.672H40.3335V157.688C40.3335 158.856 40.3335 160.184 39.9815 161.992H30.2855V163.064H34.6055V166.52H35.8855V163.064H38.4135V166.52H39.6935V163.064H43.3095V161.992H41.2935Z" fill="#1A1A1A"/>
<line y1="192.5" x2="343" y2="192.5" stroke="#1A1A1A"/>
<path d="M10.896 225.128H13.008V217.64H10.896V219.8H8.208V221.48H10.896V225.128ZM9.488 223.336C7.184 222.632 6.176 220.92 6.176 219.176V218.12H4.048V219.176C4.048 221.048 3.024 222.856 0.576 223.592L1.664 225.24C3.344 224.712 4.496 223.624 5.152 222.248C5.776 223.48 6.864 224.456 8.416 224.952L9.488 223.336ZM5.392 230.568V229.704H13.008V225.752H3.296V227.368H10.928V228.184H3.312V232.2H13.424V230.568H5.392ZM24.3028 223.512C22.3828 223.832 20.6708 223.896 18.2388 223.912V222.696H22.9268V218.312H16.1428V219.992H20.8468V221.128H16.1588V225.608H17.4548C20.3828 225.608 22.3508 225.56 24.5428 225.192L24.3028 223.512ZM25.5508 230.52H19.9348V229.336H25.5508V230.52ZM25.5508 227.72H19.9348V226.472H17.8388V232.2H27.6468V226.472H25.5508V227.72ZM25.5188 217.64V225.864H27.6468V217.64H25.5188Z" fill="#1A1A1A"/>
<path d="M0.704 265H8.08V263.736H4.832C4.24 263.736 3.52 263.8 2.912 263.848C5.664 261.24 7.504 258.856 7.504 256.52C7.504 254.424 6.192 253.048 4.096 253.048C2.608 253.048 1.6 253.736 0.64 254.776L1.488 255.608C2.128 254.84 2.96 254.248 3.92 254.248C5.376 254.248 6.08 255.224 6.08 256.568C6.08 258.584 4.384 260.92 0.704 264.136V265ZM13.323 265.208C15.547 265.208 16.971 263.176 16.971 259.096C16.971 255.032 15.547 253.048 13.323 253.048C11.083 253.048 9.659 255.016 9.659 259.096C9.659 263.176 11.083 265.208 13.323 265.208ZM13.323 264.04C11.979 264.04 11.083 262.552 11.083 259.096C11.083 255.672 11.979 254.232 13.323 254.232C14.651 254.232 15.547 255.672 15.547 259.096C15.547 262.552 14.651 264.04 13.323 264.04ZM19.158 265H25.59V263.784H23.238V253.272H22.118C21.478 253.64 20.726 253.912 19.686 254.104V255.032H21.766V263.784H19.158V265ZM28.465 260.6L31.137 256.6C31.473 256.024 31.793 255.448 32.081 254.872H32.145C32.113 255.48 32.049 256.424 32.049 257V260.6H28.465ZM34.993 260.6H33.441V253.272H31.825L26.945 260.808V261.768H32.049V265H33.441V261.768H34.993V260.6ZM46.844 262.472H48.172V251.848H46.844V253.704H42.796V254.76H46.844V256.456H42.796V257.496H46.844V262.472ZM44.476 258.728C42.332 259.112 40.46 259.224 38.492 259.24V252.872H37.18V260.344H38.268C40.38 260.344 42.316 260.232 44.62 259.816L44.476 258.728ZM40.284 264.792V261.56H38.972V265.864H48.54V264.792H40.284ZM55.2049 265H61.6369V263.784H59.2849V253.272H58.1649C57.5249 253.64 56.7729 253.912 55.7329 254.104V255.032H57.8129V263.784H55.2049V265ZM67.1199 265.208C69.3439 265.208 70.7679 263.176 70.7679 259.096C70.7679 255.032 69.3439 253.048 67.1199 253.048C64.8799 253.048 63.4559 255.016 63.4559 259.096C63.4559 263.176 64.8799 265.208 67.1199 265.208ZM67.1199 264.04C65.7759 264.04 64.8799 262.552 64.8799 259.096C64.8799 255.672 65.7759 254.232 67.1199 254.232C68.4479 254.232 69.3439 255.672 69.3439 259.096C69.3439 262.552 68.4479 264.04 67.1199 264.04ZM79.9789 258.664V259.528H82.8269V260.28H84.1389V251.848H82.8269V258.664H79.9789ZM76.9869 253.032C78.3949 253.032 79.2909 253.512 79.2909 254.28C79.2909 255.016 78.3949 255.512 76.9869 255.512C75.5949 255.512 74.6829 255.016 74.6829 254.28C74.6829 253.512 75.5949 253.032 76.9869 253.032ZM76.9869 256.408C79.1149 256.408 80.5229 255.592 80.5229 254.28C80.5229 252.936 79.1149 252.12 76.9869 252.12C74.8589 252.12 73.4509 252.936 73.4509 254.28C73.4509 255.592 74.8589 256.408 76.9869 256.408ZM76.2509 260.328H77.5629V258.12C78.9549 258.04 80.3789 257.928 81.7709 257.736L81.6909 256.872C78.6189 257.224 75.1149 257.24 72.3469 257.24L72.5069 258.232C73.6589 258.232 74.9229 258.216 76.2509 258.184V260.328ZM75.8509 265.064V263.8H84.1389V260.808H74.5229V261.752H82.8589V262.904H74.5549V266.024H84.6349V265.064H75.8509ZM91.2518 265H97.6838V263.784H95.3318V253.272H94.2118C93.5718 253.64 92.8198 253.912 91.7798 254.104V255.032H93.8598V263.784H91.2518V265ZM102.895 265.208C104.879 265.208 106.735 263.752 106.735 261.176C106.735 258.6 105.151 257.448 103.199 257.448C102.495 257.448 101.967 257.624 101.455 257.912L101.743 254.52H106.175V253.272H100.463L100.095 258.76L100.879 259.24C101.551 258.792 102.047 258.552 102.831 258.552C104.303 258.552 105.263 259.544 105.263 261.224C105.263 262.936 104.143 263.992 102.767 263.992C101.407 263.992 100.559 263.368 99.8868 262.696L99.1668 263.656C99.9508 264.44 101.071 265.208 102.895 265.208ZM120.218 251.832H118.906V259.192H120.218V251.832ZM110.042 255.544C110.042 254.296 111.082 253.416 112.474 253.416C113.882 253.416 114.906 254.296 114.906 255.544C114.906 256.776 113.882 257.656 112.474 257.656C111.082 257.656 110.042 256.776 110.042 255.544ZM116.186 255.544C116.186 253.64 114.618 252.344 112.474 252.344C110.33 252.344 108.778 253.64 108.778 255.544C108.778 257.432 110.33 258.712 112.474 258.712C114.618 258.712 116.186 257.432 116.186 255.544ZM112.25 264.952V263.368H120.218V259.896H110.922V260.936H118.922V262.392H110.954V265.992H120.698V264.952H112.25Z" fill="#1A1A1A"/>
<line y1="288.5" x2="343" y2="288.5" stroke="#1A1A1A"/>
<path d="M6.384 316.792H9.424V315.048H1.168V316.792H4.24V317.608C4.24 320.12 3.04 322.824 0.576 323.928L1.776 325.608C3.504 324.824 4.688 323.208 5.344 321.288C6 323.064 7.168 324.504 8.88 325.24L10.032 323.576C7.568 322.552 6.384 320.008 6.384 317.608V316.792ZM10.784 313.64V328.376H12.896V313.64H10.784ZM27.9988 318.072C24.6708 317.672 23.1188 316.04 23.1188 314.328V313.896H20.9588V314.328C20.9588 315.992 19.3748 317.672 16.0628 318.072L16.8468 319.72C19.3108 319.368 21.1028 318.328 22.0308 316.872C22.9588 318.344 24.7508 319.368 27.2308 319.72L27.9988 318.072ZM16.8788 325.16H25.0068V328.392H27.1188V323.496H16.8788V325.16ZM23.1028 320.776V318.872H20.9908V320.776H15.4068V322.456H28.7348V320.776H23.1028ZM35.5495 314.776H33.4215V316.92C33.4215 319.656 32.3015 322.472 29.8215 323.64L31.0855 325.352C32.7495 324.536 33.8535 322.984 34.4935 321.112C35.1015 322.872 36.1415 324.296 37.6775 325.08L38.9575 323.416C36.5895 322.248 35.5495 319.576 35.5495 316.92V314.776ZM43.8055 319.304H41.6615V313.64H39.5495V328.376H41.6615V321.064H43.8055V319.304ZM55.0683 326.536H49.5003V325.208H55.0683V326.536ZM55.0683 323.608H49.5003V322.2H47.4043V328.2H57.1643V322.2H55.0683V323.608ZM48.9083 319.528C47.8363 319.528 47.0523 318.872 47.0523 317.768C47.0523 316.664 47.8363 316.008 48.9083 316.008C49.9963 316.008 50.7803 316.664 50.7803 317.768C50.7803 318.872 49.9963 319.528 48.9083 319.528ZM55.0523 313.64V316.888H52.7003C52.2843 315.32 50.7803 314.248 48.9083 314.248C46.7003 314.248 45.0363 315.72 45.0363 317.768C45.0363 319.816 46.7003 321.288 48.9083 321.288C50.8123 321.288 52.3163 320.2 52.7163 318.6H55.0523V321.56H57.1643V313.64H55.0523ZM60.379 315.16V316.84H65.291C64.987 320.104 63.355 322.408 59.595 324.216L60.699 325.88C65.931 323.352 67.451 319.672 67.451 315.16H60.379ZM69.707 313.624V328.36H71.835V313.624H69.707ZM74.8098 314.744V316.424H79.6098C79.2738 318.488 77.4498 320.2 74.1698 321.096L75.0498 322.776C79.4338 321.512 81.8978 318.744 81.8978 314.744H74.8098ZM78.4738 323.128H76.3618V328.12H86.3778V326.44H78.4738V323.128ZM85.8658 317.752V313.64H83.7538V324.184H85.8658V319.48H87.8338V317.752H85.8658Z" fill="#1A1A1A"/>
<path d="M0.704 361H8.08V359.736H4.832C4.24 359.736 3.52 359.8 2.912 359.848C5.664 357.24 7.504 354.856 7.504 352.52C7.504 350.424 6.192 349.048 4.096 349.048C2.608 349.048 1.6 349.736 0.64 350.776L1.488 351.608C2.128 350.84 2.96 350.248 3.92 350.248C5.376 350.248 6.08 351.224 6.08 352.568C6.08 354.584 4.384 356.92 0.704 360.136V361ZM13.323 361.208C15.547 361.208 16.971 359.176 16.971 355.096C16.971 351.032 15.547 349.048 13.323 349.048C11.083 349.048 9.659 351.016 9.659 355.096C9.659 359.176 11.083 361.208 13.323 361.208ZM13.323 360.04C11.979 360.04 11.083 358.552 11.083 355.096C11.083 351.672 11.979 350.232 13.323 350.232C14.651 350.232 15.547 351.672 15.547 355.096C15.547 358.552 14.651 360.04 13.323 360.04ZM22.198 361.208C24.422 361.208 25.846 359.176 25.846 355.096C25.846 351.032 24.422 349.048 22.198 349.048C19.958 349.048 18.534 351.016 18.534 355.096C18.534 359.176 19.958 361.208 22.198 361.208ZM22.198 360.04C20.854 360.04 19.958 358.552 19.958 355.096C19.958 351.672 20.854 350.232 22.198 350.232C23.526 350.232 24.422 351.672 24.422 355.096C24.422 358.552 23.526 360.04 22.198 360.04ZM29.793 361H31.313C31.489 356.408 32.001 353.688 34.753 350.152V349.272H27.409V350.52H33.089C30.801 353.72 29.985 356.552 29.793 361ZM46.844 358.472H48.172V347.848H46.844V349.704H42.796V350.76H46.844V352.456H42.796V353.496H46.844V358.472ZM44.476 354.728C42.332 355.112 40.46 355.224 38.492 355.24V348.872H37.18V356.344H38.268C40.38 356.344 42.316 356.232 44.62 355.816L44.476 354.728ZM40.284 360.792V357.56H38.972V361.864H48.54V360.792H40.284ZM56.2348 356.408C57.0028 356.408 57.8028 355.928 58.4588 354.808L57.6268 354.216C57.2268 354.984 56.7788 355.304 56.2668 355.304C55.2588 355.304 54.4908 353.8 53.0988 353.8C52.3148 353.8 51.5148 354.28 50.8588 355.4L51.6748 355.976C52.0908 355.208 52.5388 354.888 53.0508 354.888C54.0588 354.888 54.8108 356.408 56.2348 356.408Z" fill="#1A1A1A"/>
<line y1="384.5" x2="343" y2="384.5" stroke="#1A1A1A"/>
<path d="M12.928 409.656H10.8V420.232H12.928V409.656ZM2.96 414.328C2.96 413.112 3.824 412.408 4.912 412.408C6.016 412.408 6.848 413.112 6.848 414.328C6.848 415.512 6.016 416.232 4.912 416.232C3.824 416.232 2.96 415.512 2.96 414.328ZM8.912 414.328C8.912 412.152 7.168 410.584 4.912 410.584C2.656 410.584 0.896 412.152 0.896 414.328C0.896 416.472 2.656 418.056 4.912 418.056C7.168 418.056 8.912 416.472 8.912 414.328ZM5.232 422.44V419.192H3.12V424.12H13.296V422.44H5.232ZM16.6868 415.88C19.4708 415.624 21.2788 414.6 22.0628 413.192C22.8308 414.6 24.6548 415.624 27.4228 415.88L28.1588 414.232C25.3588 413.992 23.9188 413.016 23.5828 412.008H27.5188V410.328H16.6228V412.008H20.5428C20.2068 413.016 18.7668 413.992 15.9828 414.232L16.6868 415.88ZM22.0308 422.76C20.0628 422.76 19.0548 422.408 19.0548 421.64C19.0548 420.872 20.0628 420.536 22.0308 420.536C23.9988 420.536 25.0068 420.872 25.0068 421.64C25.0068 422.408 23.9988 422.76 22.0308 422.76ZM22.0308 418.904C18.8468 418.904 16.9268 419.912 16.9268 421.64C16.9268 423.384 18.8468 424.392 22.0308 424.392C25.2148 424.392 27.1508 423.384 27.1508 421.64C27.1508 419.912 25.2148 418.904 22.0308 418.904ZM15.4068 416.44V418.104H28.7188V416.44H15.4068ZM45.9745 409.656H43.8625V418.008H45.9745V409.656ZM39.5745 415.112H36.5665V412.184H39.5745V415.112ZM41.6385 410.52H34.4865V416.76H41.6385V410.52ZM46.2145 420.36V418.792H42.1025V417.592H39.9585V418.792H35.8305V420.36H39.9105C39.7025 421.384 38.2145 422.504 35.2705 422.76L35.9265 424.328C38.4065 424.12 40.1345 423.256 41.0305 422.12C41.9265 423.24 43.6385 424.12 46.0865 424.328L46.7585 422.76C43.8465 422.52 42.3745 421.336 42.1505 420.36H46.2145ZM64.3343 409.656H62.2063V420.232H64.3343V409.656ZM54.3663 414.328C54.3663 413.112 55.2303 412.408 56.3183 412.408C57.4223 412.408 58.2543 413.112 58.2543 414.328C58.2543 415.512 57.4223 416.232 56.3183 416.232C55.2303 416.232 54.3663 415.512 54.3663 414.328ZM60.3183 414.328C60.3183 412.152 58.5743 410.584 56.3183 410.584C54.0623 410.584 52.3023 412.152 52.3023 414.328C52.3023 416.472 54.0623 418.056 56.3183 418.056C58.5743 418.056 60.3183 416.472 60.3183 414.328ZM56.6383 422.44V419.192H54.5263V424.12H64.7023V422.44H56.6383ZM67.485 411.144V412.856H72.301C71.917 416.12 70.093 418.456 66.669 420.216L67.853 421.832C72.749 419.352 74.429 415.56 74.429 411.144H67.485ZM80.413 415.256H78.349V409.624H76.237V424.344H78.349V417H80.413V415.256Z" fill="#1A1A1A"/>
<path d="M1.696 445.384V446.44H7.088C6.816 449.848 4.896 452.6 1.04 454.44L1.744 455.512C6.512 453.176 8.416 449.528 8.416 445.384H1.696ZM11.312 443.832V458.184H12.624V443.832H11.312ZM26.0788 456.936H19.5028V455.08H26.0788V456.936ZM26.0788 454.056H19.5028V452.248H18.2068V457.992H27.3908V452.248H26.0788V454.056ZM19.4868 450.056C18.0628 450.056 17.0388 449.128 17.0388 447.816C17.0388 446.504 18.0628 445.592 19.4868 445.592C20.9108 445.592 21.9348 446.504 21.9348 447.816C21.9348 449.128 20.9108 450.056 19.4868 450.056ZM26.0628 443.848V447.256H23.1348C22.8628 445.592 21.4228 444.504 19.4868 444.504C17.3428 444.504 15.7908 445.848 15.7908 447.816C15.7908 449.8 17.3428 451.144 19.4868 451.144C21.4548 451.144 22.8948 450.024 23.1508 448.328H26.0628V451.544H27.3908V443.848H26.0628ZM40.3335 449.544H33.2135V447.432H40.3335V449.544ZM41.6455 444.408H40.3335V446.376H33.2135V444.408H31.9175V450.616H41.6455V444.408ZM43.2935 452.344H30.2695V453.4H36.0935V458.2H37.4055V453.4H43.2935V452.344ZM55.5003 451.256H56.8283V443.848H55.5003V446.44H52.3802V447.512H55.5003V451.256ZM53.3883 449.928C51.3243 449.24 49.8683 447.496 49.8683 445.624V444.296H48.5723V445.624C48.5723 447.704 47.1483 449.512 44.9883 450.248L45.6763 451.288C47.3563 450.664 48.6523 449.416 49.2603 447.8C49.8843 449.256 51.1323 450.392 52.7163 450.952L53.3883 449.928ZM48.9083 456.952V455.416H56.8283V451.976H47.5803V453.016H55.5323V454.424H47.6123V457.992H57.3723V456.952H48.9083ZM61.195 448.344C61.195 446.92 62.235 445.896 63.643 445.896C65.035 445.896 66.075 446.92 66.075 448.344C66.075 449.768 65.035 450.792 63.643 450.792C62.235 450.792 61.195 449.768 61.195 448.344ZM70.219 447.144V449.528H67.131C67.259 449.16 67.323 448.76 67.323 448.344C67.323 447.912 67.259 447.512 67.131 447.144H70.219ZM70.219 450.584V454.44H71.547V443.848H70.219V446.088H66.571C65.899 445.256 64.875 444.744 63.643 444.744C61.531 444.744 59.947 446.248 59.947 448.344C59.947 450.44 61.531 451.944 63.643 451.944C64.875 451.944 65.915 451.432 66.587 450.584H70.219ZM63.691 456.792V453.352H62.363V457.864H71.947V456.792H63.691ZM87.4338 450.936H85.3058C85.7058 448.872 85.7058 447.352 85.7058 446.008V444.76H76.0738V445.816H84.4258V446.008C84.4258 447.352 84.4258 448.872 83.9778 450.936H74.4578V452.008H80.2498V458.2H81.5778V452.008H87.4338V450.936ZM101.545 450.84C99.0325 450.392 96.2965 448.28 96.2965 445.896V444.792H94.9205V445.896C94.9205 448.28 92.2005 450.392 89.6885 450.84L90.2325 451.928C92.4405 451.464 94.6805 449.976 95.6085 447.928C96.5365 449.976 98.7925 451.464 100.985 451.928L101.545 450.84ZM96.2645 455.24V451.752H94.9525V455.24H89.1605V456.312H102.185V455.24H96.2645ZM115.655 443.848H114.343V454.328H115.655V443.848ZM105.495 448.36C105.495 446.968 106.551 445.976 107.943 445.976C109.367 445.976 110.423 446.968 110.423 448.36C110.423 449.784 109.367 450.776 107.943 450.776C106.551 450.776 105.495 449.784 105.495 448.36ZM111.703 448.36C111.703 446.296 110.087 444.84 107.943 444.84C105.815 444.84 104.215 446.296 104.215 448.36C104.215 450.44 105.815 451.912 107.943 451.912C110.087 451.912 111.703 450.44 111.703 448.36ZM107.735 456.792V453.256H106.423V457.864H116.087V456.792H107.735ZM119.798 449.784C122.15 449.496 124.294 448.456 125.094 446.888C125.878 448.456 128.038 449.496 130.39 449.784L130.854 448.744C128.31 448.472 126.006 447.224 125.942 445.624H130.406V444.568H119.798V445.624H124.246C124.182 447.224 121.878 448.472 119.334 448.744L119.798 449.784ZM125.078 457.128C122.822 457.128 121.494 456.568 121.494 455.56C121.494 454.568 122.822 453.992 125.078 453.992C127.318 453.992 128.662 454.568 128.662 455.56C128.662 456.568 127.318 457.128 125.078 457.128ZM125.078 452.968C122.006 452.968 120.166 453.896 120.166 455.56C120.166 457.24 122.006 458.168 125.078 458.168C128.134 458.168 129.99 457.24 129.99 455.56C129.99 453.896 128.134 452.968 125.078 452.968ZM118.598 450.664V451.72H131.574V450.664H118.598ZM133.669 460.04C135.109 459.432 136.005 458.232 136.005 456.696C136.005 455.624 135.541 454.968 134.773 454.968C134.181 454.968 133.669 455.368 133.669 455.992C133.669 456.664 134.181 457.016 134.741 457.016C134.805 457.016 134.853 457.016 134.917 457C134.901 457.976 134.309 458.744 133.317 459.176L133.669 460.04ZM153.46 443.848H152.196V454.712H153.46V443.848ZM146.324 450.952H143.236V448.44H146.324V450.952ZM147.556 449.064H149.476V454.296H150.708V444.12H149.476V447.992H147.556V444.984H146.324V447.4H143.236V444.984H141.988V452.008H147.556V449.064ZM145.412 456.792V453.272H144.1V457.864H153.876V456.792H145.412ZM161.027 447.368H164.211V446.312H161.027V444.088H159.715V446.312H156.483V447.368H159.731V448.472C159.731 450.952 158.195 453.4 156.083 454.408L156.819 455.416C158.451 454.616 159.779 452.952 160.387 450.952C161.027 452.84 162.355 454.392 163.987 455.144L164.707 454.136C162.595 453.192 161.027 450.856 161.027 448.472V447.368ZM166.579 443.816V449.592H163.475V450.664H166.579V458.216H167.891V443.816H166.579ZM171.634 445.384V446.44H177.026C176.754 449.848 174.834 452.6 170.978 454.44L171.682 455.512C176.45 453.176 178.354 449.528 178.354 445.384H171.634ZM181.25 443.832V458.184H182.562V443.832H181.25ZM196.016 456.936H189.44V455.08H196.016V456.936ZM196.016 454.056H189.44V452.248H188.144V457.992H197.328V452.248H196.016V454.056ZM189.424 450.056C188 450.056 186.976 449.128 186.976 447.816C186.976 446.504 188 445.592 189.424 445.592C190.848 445.592 191.872 446.504 191.872 447.816C191.872 449.128 190.848 450.056 189.424 450.056ZM196 443.848V447.256H193.072C192.8 445.592 191.36 444.504 189.424 444.504C187.28 444.504 185.728 445.848 185.728 447.816C185.728 449.8 187.28 451.144 189.424 451.144C191.392 451.144 192.832 450.024 193.088 448.328H196V451.544H197.328V443.848H196ZM211.999 443.848H210.687V454.328H211.999V443.848ZM201.839 448.36C201.839 446.968 202.895 445.976 204.287 445.976C205.711 445.976 206.767 446.968 206.767 448.36C206.767 449.784 205.711 450.776 204.287 450.776C202.895 450.776 201.839 449.784 201.839 448.36ZM208.047 448.36C208.047 446.296 206.431 444.84 204.287 444.84C202.159 444.84 200.559 446.296 200.559 448.36C200.559 450.44 202.159 451.912 204.287 451.912C206.431 451.912 208.047 450.44 208.047 448.36ZM204.079 456.792V453.256H202.767V457.864H212.431V456.792H204.079ZM216.142 449.784C218.494 449.496 220.638 448.456 221.438 446.888C222.222 448.456 224.382 449.496 226.734 449.784L227.198 448.744C224.654 448.472 222.35 447.224 222.286 445.624H226.75V444.568H216.142V445.624H220.59C220.526 447.224 218.222 448.472 215.678 448.744L216.142 449.784ZM221.422 457.128C219.166 457.128 217.838 456.568 217.838 455.56C217.838 454.568 219.166 453.992 221.422 453.992C223.662 453.992 225.006 454.568 225.006 455.56C225.006 456.568 223.662 457.128 221.422 457.128ZM221.422 452.968C218.35 452.968 216.51 453.896 216.51 455.56C216.51 457.24 218.35 458.168 221.422 458.168C224.478 458.168 226.334 457.24 226.334 455.56C226.334 453.896 224.478 452.968 221.422 452.968ZM214.942 450.664V451.72H227.918V450.664H214.942ZM230.013 460.04C231.453 459.432 232.349 458.232 232.349 456.696C232.349 455.624 231.885 454.968 231.117 454.968C230.525 454.968 230.013 455.368 230.013 455.992C230.013 456.664 230.525 457.016 231.085 457.016C231.149 457.016 231.197 457.016 231.261 457C231.245 457.976 230.653 458.744 229.661 459.176L230.013 460.04ZM238.892 449.688C241.244 449.4 243.404 448.344 244.188 446.76C244.988 448.344 247.132 449.4 249.484 449.688L249.948 448.648C247.436 448.36 245.148 447.128 245.036 445.544H249.5V444.488H238.892V445.544H243.34C243.228 447.128 240.94 448.36 238.428 448.648L238.892 449.688ZM247.756 455.64C247.756 456.6 246.412 457.16 244.172 457.16C241.916 457.16 240.588 456.6 240.588 455.64C240.588 454.68 241.916 454.136 244.172 454.136C246.412 454.136 247.756 454.68 247.756 455.64ZM250.668 451.608V450.552H237.692V451.608H243.516V453.144C240.844 453.272 239.26 454.152 239.26 455.64C239.26 457.272 241.116 458.168 244.188 458.168C247.244 458.168 249.084 457.272 249.084 455.64C249.084 454.152 247.516 453.272 244.844 453.144V451.608H250.668ZM264.795 450.84C262.283 450.392 259.547 448.28 259.547 445.896V444.792H258.171V445.896C258.171 448.28 255.451 450.392 252.939 450.84L253.483 451.928C255.691 451.464 257.931 449.976 258.859 447.928C259.786 449.976 262.043 451.464 264.235 451.928L264.795 450.84ZM259.515 455.24V451.752H258.203V455.24H252.411V456.312H265.435V455.24H259.515ZM267.977 445.384V446.44H273.369C273.097 449.848 271.177 452.6 267.321 454.44L268.025 455.512C272.793 453.176 274.697 449.528 274.697 445.384H267.977ZM277.593 443.832V458.184H278.905V443.832H277.593ZM292.36 456.936H285.784V455.08H292.36V456.936ZM292.36 454.056H285.784V452.248H284.488V457.992H293.672V452.248H292.36V454.056ZM285.768 450.056C284.344 450.056 283.32 449.128 283.32 447.816C283.32 446.504 284.344 445.592 285.768 445.592C287.192 445.592 288.216 446.504 288.216 447.816C288.216 449.128 287.192 450.056 285.768 450.056ZM292.344 443.848V447.256H289.416C289.144 445.592 287.704 444.504 285.768 444.504C283.624 444.504 282.072 445.848 282.072 447.816C282.072 449.8 283.624 451.144 285.768 451.144C287.736 451.144 289.176 450.024 289.432 448.328H292.344V451.544H293.672V443.848H292.344ZM308.343 443.848H307.031V454.328H308.343V443.848ZM298.183 448.36C298.183 446.968 299.239 445.976 300.631 445.976C302.055 445.976 303.111 446.968 303.111 448.36C303.111 449.784 302.055 450.776 300.631 450.776C299.239 450.776 298.183 449.784 298.183 448.36ZM304.391 448.36C304.391 446.296 302.775 444.84 300.631 444.84C298.503 444.84 296.903 446.296 296.903 448.36C296.903 450.44 298.503 451.912 300.631 451.912C302.775 451.912 304.391 450.44 304.391 448.36ZM300.423 456.792V453.256H299.111V457.864H308.775V456.792H300.423ZM312.486 449.784C314.838 449.496 316.982 448.456 317.782 446.888C318.566 448.456 320.726 449.496 323.078 449.784L323.542 448.744C320.998 448.472 318.694 447.224 318.63 445.624H323.094V444.568H312.486V445.624H316.934C316.87 447.224 314.566 448.472 312.022 448.744L312.486 449.784ZM317.766 457.128C315.51 457.128 314.182 456.568 314.182 455.56C314.182 454.568 315.51 453.992 317.766 453.992C320.006 453.992 321.35 454.568 321.35 455.56C321.35 456.568 320.006 457.128 317.766 457.128ZM317.766 452.968C314.694 452.968 312.854 453.896 312.854 455.56C312.854 457.24 314.694 458.168 317.766 458.168C320.822 458.168 322.678 457.24 322.678 455.56C322.678 453.896 320.822 452.968 317.766 452.968ZM311.286 450.664V451.72H324.262V450.664H311.286Z" fill="#1A1A1A"/>
<line y1="480.5" x2="343" y2="480.5" stroke="#1A1A1A"/>
<path d="M2.096 512.936C4.672 512.584 6.48 511.48 7.36 509.976C8.24 511.48 10.048 512.584 12.624 512.936L13.376 511.288C10.384 510.92 8.832 509.48 8.624 508.072H12.8V506.392H1.872V508.072H6.112C5.904 509.48 4.336 510.92 1.328 511.288L2.096 512.936ZM14.016 513.784H0.704V515.464H6.256V520.408H8.368V515.464H14.016V513.784ZM28.3028 512.36C24.9428 511.816 23.1348 509.608 23.1348 507.512V506.456H20.8788V507.512C20.8788 509.56 19.0548 511.816 15.7268 512.36L16.5908 514.104C19.1668 513.64 21.0388 512.248 21.9988 510.44C22.9588 512.264 24.8468 513.64 27.4388 514.104L28.3028 512.36ZM23.0708 516.936V513.64H20.9588V516.936H15.4068V518.632H28.7508V516.936H23.0708ZM33.1815 522.232L34.6535 521.608C33.3095 519.272 32.7015 516.584 32.7015 513.944C32.7015 511.336 33.3095 508.632 34.6535 506.296L33.1815 505.672C31.6775 508.136 30.7975 510.76 30.7975 513.944C30.7975 517.16 31.6775 519.752 33.1815 522.232ZM49.5164 513.032V511.352H47.6604C47.9484 509.784 47.9484 508.552 47.9484 507.448V506.264H37.8204V507.96H45.8684C45.8684 508.936 45.8204 510.008 45.5484 511.352H36.1724V513.032H41.7724V515.112H37.5164V516.776H45.8524V520.376H47.9804V515.112H43.8844V513.032H49.5164ZM53.5791 507.272H51.4671V516.792H52.4911C53.9631 516.792 55.6591 516.712 57.5791 516.36L57.4031 514.584C55.9951 514.84 54.7311 514.936 53.5791 514.968V507.272ZM61.4991 505.624V511.304H60.1711V505.896H58.2031V519.672H60.1711V513.016H61.4991V520.36H63.5151V505.624H61.4991ZM67.2099 522.232C68.7299 519.752 69.6099 517.16 69.6099 513.944C69.6099 510.76 68.7299 508.136 67.2099 505.672L65.7539 506.296C67.0979 508.632 67.7059 511.336 67.7059 513.944C67.7059 516.584 67.0979 519.272 65.7539 521.608L67.2099 522.232Z" fill="#1A1A1A"/>
<path d="M5.872 541.064H4.56V543.64C4.56 546.296 2.928 549.064 0.848 550.104L1.648 551.144C3.264 550.28 4.592 548.472 5.216 546.344C5.872 548.36 7.184 550.072 8.816 550.888L9.584 549.848C7.504 548.856 5.872 546.248 5.872 543.64V541.064ZM11.36 539.832V544.696H8.032V545.768H11.36V554.2H12.672V539.832H11.36ZM16.7988 548.536C19.1028 548.12 21.1668 546.968 22.0788 545.208C22.9748 546.968 25.0388 548.12 27.3428 548.536L27.8548 547.496C25.0708 547.048 22.7348 545.368 22.7348 543.16H27.3428V542.104H22.7348V540.152H21.4068V542.104H16.7828V543.16H21.4068C21.4068 545.368 19.0708 547.048 16.2868 547.496L16.7988 548.536ZM22.7348 551.288V548.024H21.4068V551.288H15.5668V552.376H28.5908V551.288H22.7348ZM43.2775 546.936H41.1495C41.5495 544.872 41.5495 543.352 41.5495 542.008V540.76H31.9175V541.816H40.2695V542.008C40.2695 543.352 40.2695 544.872 39.8215 546.936H30.3015V548.008H36.0935V554.2H37.4215V548.008H43.2775V546.936ZM53.6064 541.064H52.2944V543.64C52.2944 546.296 50.6624 549.064 48.5824 550.104L49.3824 551.144C50.9984 550.28 52.3264 548.472 52.9504 546.344C53.6064 548.36 54.9184 550.072 56.5504 550.888L57.3184 549.848C55.2384 548.856 53.6064 546.248 53.6064 543.64V541.064ZM59.0944 539.832V544.696H55.7664V545.768H59.0944V554.2H60.4064V539.832H59.0944ZM64.5331 548.536C66.8371 548.12 68.9011 546.968 69.8131 545.208C70.7091 546.968 72.7731 548.12 75.0771 548.536L75.5891 547.496C72.8051 547.048 70.4691 545.368 70.4691 543.16H75.0771V542.104H70.4691V540.152H69.1411V542.104H64.5171V543.16H69.1411C69.1411 545.368 66.8051 547.048 64.0211 547.496L64.5331 548.536ZM70.4691 551.288V548.024H69.1411V551.288H63.3011V552.376H76.3251V551.288H70.4691ZM79.2199 545.688C81.5719 545.4 83.7319 544.344 84.5159 542.76C85.3159 544.344 87.4599 545.4 89.8119 545.688L90.2759 544.648C87.7639 544.36 85.4759 543.128 85.3639 541.544H89.8279V540.488H79.2199V541.544H83.6679C83.5559 543.128 81.2679 544.36 78.7559 544.648L79.2199 545.688ZM88.0839 551.64C88.0839 552.6 86.7399 553.16 84.4999 553.16C82.2439 553.16 80.9159 552.6 80.9159 551.64C80.9159 550.68 82.2439 550.136 84.4999 550.136C86.7399 550.136 88.0839 550.68 88.0839 551.64ZM90.9959 547.608V546.552H78.0199V547.608H83.8439V549.144C81.1719 549.272 79.5879 550.152 79.5879 551.64C79.5879 553.272 81.4439 554.168 84.5159 554.168C87.5719 554.168 89.4119 553.272 89.4119 551.64C89.4119 550.152 87.8439 549.272 85.1719 549.144V547.608H90.9959ZM94.2906 544.072C94.2906 542.728 95.3146 541.784 96.7546 541.784C98.1786 541.784 99.2186 542.728 99.2186 544.072C99.2186 545.416 98.1786 546.344 96.7546 546.344C95.3146 546.344 94.2906 545.416 94.2906 544.072ZM100.499 544.072C100.499 542.072 98.9146 540.696 96.7546 540.696C94.5786 540.696 93.0106 542.072 93.0106 544.072C93.0106 546.072 94.5786 547.448 96.7546 547.448C98.9146 547.448 100.499 546.072 100.499 544.072ZM99.3146 553.128C97.1866 553.128 95.8906 552.504 95.8906 551.48C95.8906 550.44 97.1866 549.832 99.3146 549.832C101.427 549.832 102.723 550.44 102.723 551.48C102.723 552.504 101.427 553.128 99.3146 553.128ZM99.3146 548.792C96.4026 548.792 94.5786 549.768 94.5786 551.48C94.5786 553.176 96.4026 554.168 99.3146 554.168C102.211 554.168 104.035 553.176 104.035 551.48C104.035 549.768 102.211 548.792 99.3146 548.792ZM103.875 543.416V539.848H102.563V548.344H103.875V544.52H106.003V543.416H103.875ZM114.609 551.336V548.632H119.201V547.576H110.369V545.256H118.865V540.888H109.041V541.96H117.585V544.2H109.073V548.632H113.281V551.336H107.441V552.408H120.481V551.336H114.609ZM126.314 553H132.746V551.784H130.394V541.272H129.274C128.634 541.64 127.882 541.912 126.842 542.104V543.032H128.922V551.784H126.314V553ZM135.621 548.6L138.293 544.6C138.629 544.024 138.949 543.448 139.237 542.872H139.301C139.269 543.48 139.205 544.424 139.205 545V548.6H135.621ZM142.149 548.6H140.597V541.272H138.981L134.101 548.808V549.768H139.205V553H140.597V549.768H142.149V548.6ZM143.856 556.04C145.296 555.432 146.192 554.232 146.192 552.696C146.192 551.624 145.728 550.968 144.96 550.968C144.368 550.968 143.856 551.368 143.856 551.992C143.856 552.664 144.368 553.016 144.928 553.016C144.992 553.016 145.04 553.016 145.104 553C145.088 553.976 144.496 554.744 143.504 555.176L143.856 556.04ZM163.312 539.848H162V550.344H163.312V539.848ZM160.304 547.256C158.192 546.552 156.704 544.808 156.704 542.872V542.088H159.952V541.032H152.08V542.088H155.36V542.872C155.36 544.92 153.904 546.792 151.728 547.544L152.416 548.568C154.112 547.96 155.44 546.664 156.048 545.032C156.704 546.536 158.016 547.72 159.664 548.296L160.304 547.256ZM155.391 552.792V549.352H154.08V553.864H163.744V552.792H155.391ZM173.406 551.336V548.632H177.998V547.576H169.166V545.256H177.662V540.888H167.838V541.96H176.382V544.2H167.87V548.632H172.078V551.336H166.238V552.408H179.278V551.336H173.406ZM192.733 539.848H191.421V547.336H192.733V539.848ZM187.149 545.64H183.021V543.496H187.149V545.64ZM188.445 540.408H187.149V542.488H183.021V540.408H181.725V546.696H188.445V540.408ZM184.781 553V551.464H192.749V548.072H183.453V549.096H191.453V550.504H183.485V554.024H193.229V553H184.781ZM207.468 539.832H206.156V548.664H207.468V539.832ZM204.716 545.672C202.668 546.088 200.892 546.184 197.868 546.184V542.024H203.308V540.968H196.556V547.256H197.74C200.892 547.256 202.732 547.16 204.844 546.744L204.716 545.672ZM202.7 553.144C200.524 553.144 199.18 552.504 199.18 551.432C199.18 550.36 200.524 549.72 202.7 549.72C204.876 549.72 206.204 550.36 206.204 551.432C206.204 552.504 204.876 553.144 202.7 553.144ZM202.7 548.68C199.74 548.68 197.884 549.688 197.884 551.432C197.884 553.176 199.74 554.184 202.7 554.184C205.66 554.184 207.516 553.176 207.516 551.432C207.516 549.688 205.66 548.68 202.7 548.68ZM214.549 553H220.981V551.784H218.629V541.272H217.509C216.869 541.64 216.117 541.912 215.077 542.104V543.032H217.157V551.784H214.549V553ZM226.832 552.072C225.36 552.072 224.48 550.744 224.304 548.312C225.072 547.224 225.968 546.808 226.704 546.808C228.128 546.808 228.816 547.816 228.816 549.4C228.816 551 227.952 552.072 226.832 552.072ZM229.984 542.248C229.344 541.56 228.464 541.048 227.248 541.048C224.976 541.048 222.912 542.808 222.912 547.4C222.912 551.272 224.576 553.208 226.832 553.208C228.656 553.208 230.192 551.672 230.192 549.4C230.192 546.952 228.928 545.72 226.944 545.72C226.016 545.72 224.992 546.264 224.272 547.144C224.336 543.496 225.696 542.264 227.296 542.264C228.016 542.264 228.72 542.6 229.184 543.16L229.984 542.248ZM232.907 546.184C235.275 545.944 237.355 545.096 238.235 543.688C239.099 545.096 241.195 545.944 243.563 546.184L243.963 545.176C241.259 544.92 239.067 543.848 238.939 542.28H243.387V541.24H238.891V539.784H237.579V541.24H233.083V542.28H237.515C237.387 543.848 235.179 544.92 232.507 545.176L232.907 546.184ZM238.219 553.176C235.947 553.176 234.635 552.68 234.635 551.784C234.635 550.888 235.947 550.376 238.219 550.376C240.475 550.376 241.803 550.888 241.803 551.784C241.803 552.68 240.475 553.176 238.219 553.176ZM238.219 549.4C235.131 549.4 233.307 550.232 233.307 551.784C233.307 553.336 235.131 554.168 238.219 554.168C241.307 554.168 243.131 553.336 243.131 551.784C243.131 550.232 241.307 549.4 238.219 549.4ZM231.739 547.128V548.184H244.715V547.128H231.739Z" fill="#1A1A1A"/>
<line y1="576.5" x2="343" y2="576.5" stroke="#1A1A1A"/>
<path d="M2.096 608.936C4.672 608.584 6.48 607.48 7.36 605.976C8.24 607.48 10.048 608.584 12.624 608.936L13.376 607.288C10.384 606.92 8.832 605.48 8.624 604.072H12.8V602.392H1.872V604.072H6.112C5.904 605.48 4.336 606.92 1.328 607.288L2.096 608.936ZM14.016 609.784H0.704V611.464H6.256V616.408H8.368V611.464H14.016V609.784ZM28.3028 608.36C24.9428 607.816 23.1348 605.608 23.1348 603.512V602.456H20.8788V603.512C20.8788 605.56 19.0548 607.816 15.7268 608.36L16.5908 610.104C19.1668 609.64 21.0388 608.248 21.9988 606.44C22.9588 608.264 24.8468 609.64 27.4388 610.104L28.3028 608.36ZM23.0708 612.936V609.64H20.9588V612.936H15.4068V614.632H28.7508V612.936H23.0708ZM33.1815 618.232L34.6535 617.608C33.3095 615.272 32.7015 612.584 32.7015 609.944C32.7015 607.336 33.3095 604.632 34.6535 602.296L33.1815 601.672C31.6775 604.136 30.7975 606.76 30.7975 609.944C30.7975 613.16 31.6775 615.752 33.1815 618.232ZM40.4924 611.208H38.5724V608.024H40.4924V611.208ZM43.8204 607.032H42.4444V602.984H40.4924V606.36H38.5724V602.968H36.5884V612.888H42.4444V608.728H43.8204V615.736H45.7884V601.896H43.8204V607.032ZM46.8124 601.624V616.36H48.8124V601.624H46.8124ZM62.8111 609.24H54.6031V607.592H62.3631V605.96H54.6031V604.408H62.6991V602.712H52.4591V610.904H62.8111V609.24ZM50.8911 612.968V614.68H64.2351V612.968H50.8911ZM73.9459 606.888C71.9619 607.272 70.0739 607.416 68.3139 607.448V602.328H66.2019V609.208H67.4499C69.5299 609.208 71.7859 609.064 74.1859 608.584L73.9459 606.888ZM69.6899 612.264H75.1459V614.552H69.6899V612.264ZM67.6099 616.2H77.2099V610.616H67.6099V616.2ZM79.1619 604.744H77.2099V601.64H75.0979V609.928H77.2099V606.472H79.1619V604.744ZM81.9286 618.232C83.4486 615.752 84.3286 613.16 84.3286 609.944C84.3286 606.76 83.4486 604.136 81.9286 601.672L80.4726 602.296C81.8166 604.632 82.4246 607.336 82.4246 609.944C82.4246 612.584 81.8166 615.272 80.4726 617.608L81.9286 618.232Z" fill="#1A1A1A"/>
<path d="M4.464 649.208C6.672 649.208 8.144 647.88 8.144 646.168C8.144 644.568 7.184 643.688 6.16 643.096V643.016C6.864 642.472 7.728 641.416 7.728 640.184C7.728 638.376 6.512 637.096 4.512 637.096C2.672 637.096 1.296 638.28 1.296 640.072C1.296 641.304 2.016 642.184 2.88 642.776V642.856C1.808 643.432 0.72 644.52 0.72 646.088C0.72 647.896 2.304 649.208 4.464 649.208ZM5.264 642.632C3.888 642.088 2.624 641.48 2.624 640.072C2.624 638.936 3.408 638.168 4.48 638.168C5.744 638.168 6.48 639.112 6.48 640.264C6.48 641.128 6.064 641.928 5.264 642.632ZM4.496 648.12C3.088 648.12 2.048 647.208 2.048 645.96C2.048 644.84 2.704 643.912 3.648 643.304C5.312 643.976 6.752 644.568 6.752 646.136C6.752 647.304 5.84 648.12 4.496 648.12ZM10.283 649H16.715V647.784H14.363V637.272H13.243C12.603 637.64 11.851 637.912 10.811 638.104V639.032H12.891V647.784H10.283V649ZM27.3601 649.208C28.8801 649.208 30.0321 648.6 30.9601 647.528L30.1441 646.6C29.3921 647.416 28.5441 647.912 27.4241 647.912C25.1841 647.912 23.7761 646.056 23.7761 643.096C23.7761 640.168 25.2481 638.344 27.4721 638.344C28.4801 638.344 29.2641 638.808 29.8721 639.464L30.6721 638.504C30.0001 637.752 28.8801 637.048 27.4561 637.048C24.4801 637.048 22.2561 639.352 22.2561 643.144C22.2561 646.952 24.4481 649.208 27.3601 649.208ZM35.0033 649.208C36.0753 649.208 37.0513 648.648 37.8833 647.96H37.9313L38.0593 649H39.2593V643.656C39.2593 641.512 38.3633 640.088 36.2513 640.088C34.8593 640.088 33.6273 640.712 32.8273 641.224L33.4033 642.232C34.0913 641.768 35.0033 641.304 36.0113 641.304C37.4353 641.304 37.8033 642.376 37.8033 643.496C34.1073 643.912 32.4593 644.856 32.4593 646.744C32.4593 648.312 33.5473 649.208 35.0033 649.208ZM35.4193 648.04C34.5553 648.04 33.8832 647.64 33.8832 646.648C33.8832 645.528 34.8753 644.808 37.8033 644.456V646.888C36.9553 647.64 36.2673 648.04 35.4193 648.04ZM45.4585 649.208C46.4985 649.208 47.4905 648.808 48.2585 648.104L47.6345 647.128C47.0905 647.624 46.3865 647.992 45.5865 647.992C43.9865 647.992 42.8985 646.664 42.8985 644.664C42.8985 642.664 44.0505 641.304 45.6185 641.304C46.3225 641.304 46.8505 641.624 47.3625 642.088L48.1145 641.112C47.4905 640.568 46.7065 640.088 45.5705 640.088C43.3465 640.088 41.3785 641.768 41.3785 644.664C41.3785 647.544 43.1545 649.208 45.4585 649.208ZM50.1751 649H51.6311V642.696C52.5111 641.816 53.1191 641.368 54.0151 641.368C55.1671 641.368 55.6631 642.056 55.6631 643.688V649H57.1191V643.496C57.1191 641.272 56.2871 640.088 54.4631 640.088C53.2791 640.088 52.3831 640.744 51.5831 641.544L51.6311 639.752V636.264H50.1751V649ZM63.6 649H64.944V642.504C64.944 641.496 64.832 640.072 64.768 639.048H64.832L65.76 641.72L67.984 647.816H68.976L71.2 641.72L72.128 639.048H72.192C72.112 640.072 72 641.496 72 642.504V649H73.392V637.272H71.6L69.36 643.544C69.088 644.36 68.832 645.176 68.56 645.992H68.48C68.192 645.176 67.92 644.36 67.648 643.544L65.392 637.272H63.6V649ZM78.4564 649.208C79.5284 649.208 80.5044 648.648 81.3364 647.96H81.3844L81.5124 649H82.7124V643.656C82.7124 641.512 81.8164 640.088 79.7044 640.088C78.3124 640.088 77.0804 640.712 76.2804 641.224L76.8564 642.232C77.5444 641.768 78.4564 641.304 79.4644 641.304C80.8884 641.304 81.2564 642.376 81.2564 643.496C77.5604 643.912 75.9124 644.856 75.9124 646.744C75.9124 648.312 77.0004 649.208 78.4564 649.208ZM78.8724 648.04C78.0084 648.04 77.3364 647.64 77.3364 646.648C77.3364 645.528 78.3284 644.808 81.2564 644.456V646.888C80.4084 647.64 79.7204 648.04 78.8724 648.04ZM85.4876 649H86.9436V642.696C87.8236 641.816 88.4316 641.368 89.3276 641.368C90.4796 641.368 90.9756 642.056 90.9756 643.688V649H92.4316V643.496C92.4316 641.272 91.5996 640.088 89.7756 640.088C88.5916 640.088 87.6956 640.744 86.8636 641.56H86.8156L86.6876 640.312H85.4876V649ZM98.1969 653C100.885 653 102.581 651.608 102.581 649.992C102.581 648.568 101.573 647.928 99.5569 647.928H97.8609C96.6929 647.928 96.3409 647.544 96.3409 646.984C96.3409 646.504 96.5809 646.216 96.9009 645.944C97.2849 646.136 97.7649 646.248 98.1969 646.248C99.9569 646.248 101.365 645.08 101.365 643.224C101.365 642.472 101.077 641.832 100.661 641.432H102.437V640.312H99.4129C99.1089 640.2 98.6769 640.088 98.1969 640.088C96.4369 640.088 94.9329 641.288 94.9329 643.192C94.9329 644.232 95.4929 645.064 96.0689 645.528V645.592C95.6209 645.912 95.0929 646.488 95.0929 647.208C95.0929 647.896 95.4289 648.36 95.8929 648.632V648.696C95.0769 649.224 94.5969 649.928 94.5969 650.664C94.5969 652.168 96.0689 653 98.1969 653ZM98.1969 645.256C97.1889 645.256 96.3409 644.456 96.3409 643.192C96.3409 641.912 97.1729 641.16 98.1969 641.16C99.2209 641.16 100.037 641.928 100.037 643.192C100.037 644.456 99.1889 645.256 98.1969 645.256ZM98.4049 652.008C96.8209 652.008 95.8769 651.4 95.8769 650.472C95.8769 649.96 96.1489 649.448 96.7729 649C97.1569 649.096 97.5729 649.144 97.8929 649.144H99.3969C100.549 649.144 101.173 649.416 101.173 650.216C101.173 651.128 100.069 652.008 98.4049 652.008ZM110.439 649H111.927V638.52H115.479V637.272H106.887V638.52H110.439V649ZM117.441 649H118.897V642.696C119.777 641.816 120.385 641.368 121.281 641.368C122.433 641.368 122.929 642.056 122.929 643.688V649H124.385V643.496C124.385 641.272 123.553 640.088 121.729 640.088C120.545 640.088 119.649 640.744 118.849 641.544L118.897 639.752V636.264H117.441V649ZM129.16 649.208C130.232 649.208 131.208 648.648 132.04 647.96H132.088L132.216 649H133.416V643.656C133.416 641.512 132.52 640.088 130.408 640.088C129.016 640.088 127.784 640.712 126.984 641.224L127.56 642.232C128.248 641.768 129.16 641.304 130.168 641.304C131.592 641.304 131.96 642.376 131.96 643.496C128.264 643.912 126.616 644.856 126.616 646.744C126.616 648.312 127.704 649.208 129.16 649.208ZM129.576 648.04C128.712 648.04 128.039 647.64 128.039 646.648C128.039 645.528 129.032 644.808 131.96 644.456V646.888C131.112 647.64 130.424 648.04 129.576 648.04ZM136.191 649H137.647V642.696C138.527 641.816 139.135 641.368 140.031 641.368C141.183 641.368 141.679 642.056 141.679 643.688V649H143.135V643.496C143.135 641.272 142.303 640.088 140.479 640.088C139.295 640.088 138.399 640.744 137.567 641.56H137.519L137.391 640.312H136.191V649ZM148.9 653C151.588 653 153.284 651.608 153.284 649.992C153.284 648.568 152.276 647.928 150.26 647.928H148.564C147.396 647.928 147.044 647.544 147.044 646.984C147.044 646.504 147.284 646.216 147.604 645.944C147.988 646.136 148.468 646.248 148.9 646.248C150.66 646.248 152.068 645.08 152.068 643.224C152.068 642.472 151.78 641.832 151.364 641.432H153.14V640.312H150.116C149.812 640.2 149.38 640.088 148.9 640.088C147.14 640.088 145.636 641.288 145.636 643.192C145.636 644.232 146.196 645.064 146.772 645.528V645.592C146.324 645.912 145.796 646.488 145.796 647.208C145.796 647.896 146.132 648.36 146.596 648.632V648.696C145.78 649.224 145.3 649.928 145.3 650.664C145.3 652.168 146.772 653 148.9 653ZM148.9 645.256C147.892 645.256 147.044 644.456 147.044 643.192C147.044 641.912 147.876 641.16 148.9 641.16C149.924 641.16 150.74 641.928 150.74 643.192C150.74 644.456 149.892 645.256 148.9 645.256ZM149.108 652.008C147.524 652.008 146.58 651.4 146.58 650.472C146.58 649.96 146.852 649.448 147.476 649C147.86 649.096 148.276 649.144 148.596 649.144H150.1C151.252 649.144 151.876 649.416 151.876 650.216C151.876 651.128 150.772 652.008 149.108 652.008ZM161.558 649.208C163.766 649.208 165.238 647.88 165.238 646.168C165.238 644.568 164.278 643.688 163.254 643.096V643.016C163.958 642.472 164.822 641.416 164.822 640.184C164.822 638.376 163.606 637.096 161.606 637.096C159.766 637.096 158.39 638.28 158.39 640.072C158.39 641.304 159.11 642.184 159.974 642.776V642.856C158.902 643.432 157.814 644.52 157.814 646.088C157.814 647.896 159.398 649.208 161.558 649.208ZM162.358 642.632C160.982 642.088 159.718 641.48 159.718 640.072C159.718 638.936 160.502 638.168 161.574 638.168C162.838 638.168 163.574 639.112 163.574 640.264C163.574 641.128 163.158 641.928 162.358 642.632ZM161.59 648.12C160.182 648.12 159.142 647.208 159.142 645.96C159.142 644.84 159.798 643.912 160.742 643.304C162.406 643.976 163.846 644.568 163.846 646.136C163.846 647.304 162.934 648.12 161.59 648.12ZM167.169 652.04C168.609 651.432 169.505 650.232 169.505 648.696C169.505 647.624 169.041 646.968 168.273 646.968C167.681 646.968 167.169 647.368 167.169 647.992C167.169 648.664 167.681 649.016 168.241 649.016C168.305 649.016 168.353 649.016 168.417 649C168.401 649.976 167.809 650.744 166.817 651.176L167.169 652.04ZM176.448 643.096C176.448 640.152 177.824 638.344 179.936 638.344C182.032 638.344 183.424 640.152 183.424 643.096C183.424 646.088 182.032 647.992 179.936 647.992C177.824 647.992 176.448 646.088 176.448 643.096ZM184.912 650.536C184.608 650.632 184.208 650.712 183.68 650.712C182.4 650.712 181.328 650.184 180.8 649.144C183.28 648.712 184.944 646.472 184.944 643.096C184.944 639.336 182.88 637.048 179.936 637.048C176.992 637.048 174.928 639.336 174.928 643.096C174.928 646.536 176.656 648.808 179.216 649.16C179.872 650.776 181.36 651.944 183.52 651.944C184.224 651.944 184.848 651.816 185.2 651.688L184.912 650.536ZM189.875 649.208C191.075 649.208 191.939 648.584 192.755 647.64H192.803L192.915 649H194.131V640.312H192.675V646.472C191.843 647.512 191.219 647.944 190.323 647.944C189.171 647.944 188.691 647.256 188.691 645.64V640.312H187.235V645.816C187.235 648.024 188.051 649.208 189.875 649.208ZM199.066 649.208C200.138 649.208 201.114 648.648 201.946 647.96H201.994L202.122 649H203.322V643.656C203.322 641.512 202.426 640.088 200.314 640.088C198.922 640.088 197.69 640.712 196.89 641.224L197.466 642.232C198.154 641.768 199.066 641.304 200.074 641.304C201.498 641.304 201.866 642.376 201.866 643.496C198.17 643.912 196.522 644.856 196.522 646.744C196.522 648.312 197.61 649.208 199.066 649.208ZM199.482 648.04C198.618 648.04 197.946 647.64 197.946 646.648C197.946 645.528 198.938 644.808 201.866 644.456V646.888C201.018 647.64 200.33 648.04 199.482 648.04ZM206.097 649H207.553V642.696C208.433 641.816 209.041 641.368 209.937 641.368C211.089 641.368 211.585 642.056 211.585 643.688V649H213.041V643.496C213.041 641.272 212.209 640.088 210.385 640.088C209.201 640.088 208.305 640.744 207.473 641.56H207.425L207.297 640.312H206.097V649ZM219.392 649H225.824V647.784H223.472V637.272H222.352C221.712 637.64 220.96 637.912 219.92 638.104V639.032H222V647.784H219.392V649ZM228.059 652.04C229.499 651.432 230.395 650.232 230.395 648.696C230.395 647.624 229.931 646.968 229.163 646.968C228.571 646.968 228.059 647.368 228.059 647.992C228.059 648.664 228.571 649.016 229.131 649.016C229.195 649.016 229.243 649.016 229.307 649C229.291 649.976 228.699 650.744 227.707 651.176L228.059 652.04ZM236.491 649H237.979V643.464H243.451V649H244.923V637.272H243.451V642.184H237.979V637.272H236.491V649ZM251.379 649.208C253.507 649.208 255.411 647.544 255.411 644.664C255.411 641.768 253.507 640.088 251.379 640.088C249.251 640.088 247.347 641.768 247.347 644.664C247.347 647.544 249.251 649.208 251.379 649.208ZM251.379 647.992C249.875 647.992 248.867 646.664 248.867 644.664C248.867 642.664 249.875 641.304 251.379 641.304C252.883 641.304 253.907 642.664 253.907 644.664C253.907 646.664 252.883 647.992 251.379 647.992ZM265.845 649.208C267.365 649.208 268.517 648.6 269.445 647.528L268.628 646.6C267.877 647.416 267.029 647.912 265.909 647.912C263.669 647.912 262.261 646.056 262.261 643.096C262.261 640.168 263.733 638.344 265.957 638.344C266.965 638.344 267.749 638.808 268.357 639.464L269.157 638.504C268.485 637.752 267.365 637.048 265.941 637.048C262.965 637.048 260.741 639.352 260.741 643.144C260.741 646.952 262.933 649.208 265.845 649.208ZM271.488 649H272.944V642.696C273.824 641.816 274.432 641.368 275.328 641.368C276.48 641.368 276.976 642.056 276.976 643.688V649H278.432V643.496C278.432 641.272 277.6 640.088 275.776 640.088C274.592 640.088 273.696 640.744 272.896 641.544L272.944 639.752V636.264H271.488V649ZM281.206 649H282.662V640.312H281.206V649ZM281.942 638.52C282.518 638.52 282.95 638.12 282.95 637.576C282.95 636.984 282.518 636.632 281.942 636.632C281.366 636.632 280.934 636.984 280.934 637.576C280.934 638.12 281.366 638.52 281.942 638.52ZM289.319 649H290.663V642.504C290.663 641.496 290.551 640.072 290.487 639.048H290.551L291.479 641.72L293.703 647.816H294.695L296.919 641.72L297.847 639.048H297.911C297.831 640.072 297.719 641.496 297.719 642.504V649H299.111V637.272H297.319L295.079 643.544C294.807 644.36 294.551 645.176 294.279 645.992H294.199C293.911 645.176 293.639 644.36 293.367 643.544L291.111 637.272H289.319V649ZM302.175 649H303.631V640.312H302.175V649ZM302.911 638.52C303.487 638.52 303.919 638.12 303.919 637.576C303.919 636.984 303.487 636.632 302.911 636.632C302.335 636.632 301.903 636.984 301.903 637.576C301.903 638.12 302.335 638.52 302.911 638.52ZM306.581 649H308.037V642.696C308.917 641.816 309.525 641.368 310.421 641.368C311.573 641.368 312.069 642.056 312.069 643.688V649H313.525V643.496C313.525 641.272 312.693 640.088 310.869 640.088C309.685 640.088 308.789 640.744 307.957 641.56H307.909L307.781 640.312H306.581V649ZM316.363 649H317.819V642.696C318.699 641.816 319.307 641.368 320.203 641.368C321.355 641.368 321.851 642.056 321.851 643.688V649H323.307V643.496C323.307 641.272 322.475 640.088 320.651 640.088C319.467 640.088 318.571 640.744 317.771 641.544L317.819 639.752V636.264H316.363V649Z" fill="#1A1A1A"/>
<line y1="672.5" x2="343" y2="672.5" stroke="#1A1A1A"/>
<path d="M6.096 700.792H9.024V699.048H0.928V700.792H3.984V701.608C3.984 704.04 2.784 706.808 0.368 707.928L1.552 709.608C3.232 708.808 4.416 707.192 5.072 705.272C5.728 707.016 6.88 708.488 8.512 709.24L9.68 707.576C7.264 706.456 6.096 703.848 6.096 701.608V700.792ZM14.368 703.256H12.224V697.64H10.112V712.376H12.224V705H14.368V703.256ZM19.1348 707.96H17.0228V712.12H27.2468V710.44H19.1348V707.96ZM19.1988 701.24H24.9428V702.52H19.1988V701.24ZM23.1028 705.416V704.184H27.0388V698.168H24.9428V699.608H19.1988V698.168H17.1028V704.184H20.9908V705.416H15.4068V707.096H28.7348V705.416H23.1028ZM33.7735 708.472H39.7735V710.552H33.7735V708.472ZM31.6935 712.2H41.8375V706.824H31.6935V712.2ZM41.5655 703.608C41.9015 701.912 41.9015 700.664 41.9015 699.48V698.296H31.7735V699.976H39.8215C39.8215 701 39.7735 702.136 39.4695 703.608H30.1255V705.288H43.4695V703.608H41.5655Z" fill="#1A1A1A"/>
<path d="M1.408 745H7.84V743.784H5.488V733.272H4.368C3.728 733.64 2.976 733.912 1.936 734.104V735.032H4.016V743.784H1.408V745ZM11.947 742.152H20.219V746.2H21.547V741.096H11.947V742.152ZM13.643 738.424C12.235 738.424 11.195 737.448 11.195 736.072C11.195 734.728 12.235 733.752 13.643 733.752C15.035 733.752 16.091 734.728 16.091 736.072C16.091 737.448 15.035 738.424 13.643 738.424ZM20.219 731.848V735.528H17.275C17.035 733.8 15.563 732.632 13.643 732.632C11.515 732.632 9.947 734.056 9.947 736.072C9.947 738.12 11.515 739.544 13.643 739.544C15.579 739.544 17.051 738.36 17.291 736.6H20.219V740.296H21.547V731.848H20.219ZM28.5799 745H35.0119V743.784H32.6599V733.272H31.5399C30.8999 733.64 30.1479 733.912 29.1079 734.104V735.032H31.1879V743.784H28.5799V745ZM44.4949 736.248V737.336H47.3909V742.552H48.7189V731.848H47.3909V736.248H44.4949ZM45.3749 739.496C43.2469 738.824 41.7909 737.16 41.7909 735.256V734.808H44.9589V733.752H41.7909V731.928H40.4789V733.752H37.2949V734.808H40.4789V735.256C40.4789 737.256 39.0549 739.048 36.9269 739.768L37.5829 740.792C39.2629 740.2 40.5429 738.984 41.1509 737.4C41.8069 738.856 43.0869 739.992 44.7349 740.536L45.3749 739.496ZM40.8629 744.792V741.592H39.5349V745.864H49.1189V744.792H40.8629ZM58.5198 745.208C60.5038 745.208 62.3598 743.752 62.3598 741.176C62.3598 738.6 60.7758 737.448 58.8238 737.448C58.1198 737.448 57.5918 737.624 57.0798 737.912L57.3678 734.52H61.7998V733.272H56.0878L55.7198 738.76L56.5038 739.24C57.1758 738.792 57.6718 738.552 58.4557 738.552C59.9278 738.552 60.8878 739.544 60.8878 741.224C60.8878 742.936 59.7678 743.992 58.3918 743.992C57.0318 743.992 56.1838 743.368 55.5118 742.696L54.7918 743.656C55.5758 744.44 56.6957 745.208 58.5198 745.208ZM69.0428 738.376H65.9548V736.056H69.0428V738.376ZM70.2748 732.76H69.0428V735.016H65.9548V732.76H64.7068V739.432H70.2748V732.76ZM66.5308 742.376H74.8668V746.184H76.1788V741.32H66.5308V742.376ZM74.9148 731.848V735.576H73.0908V732.104H71.8428V740.376H73.0908V736.648H74.9148V740.44H76.1788V731.848H74.9148ZM84.6895 738.712H80.6575V734.168H84.6895V738.712ZM85.9695 733.112H79.3775V739.752H85.9695V733.112ZM82.3055 741.352H80.9935V745.864H90.5615V744.792H82.3055V741.352ZM89.9215 736.2V731.816H88.6095V742.328H89.9215V737.304H92.0495V736.2H89.9215ZM101.024 740.312V741.288H103.936V742.76H105.248V731.832H103.936V740.312H101.024ZM98.0963 733.384C99.4563 733.384 100.384 733.992 100.384 734.904C100.384 735.832 99.4563 736.44 98.0963 736.44C96.7363 736.44 95.8083 735.832 95.8083 734.904C95.8083 733.992 96.7363 733.384 98.0963 733.384ZM98.0963 737.416C100.192 737.416 101.632 736.44 101.632 734.904C101.632 733.4 100.192 732.408 98.0963 732.408C96.0003 732.408 94.5603 733.4 94.5603 734.904C94.5603 736.44 96.0003 737.416 98.0963 737.416ZM97.5843 742.248H98.8963V739.416C100.192 739.336 101.52 739.192 102.784 739L102.672 738.056C99.6323 738.44 96.0803 738.472 93.4243 738.472L93.6003 739.56C94.7843 739.56 96.1603 739.544 97.5843 739.48V742.248ZM96.7843 744.792V741.688H95.4723V745.864H105.616V744.792H96.7843Z" fill="#1A1A1A"/>
<line y1="768.5" x2="343" y2="768.5" stroke="#1A1A1A"/>
<path d="M12.928 793.656H10.8V804.392H12.928V793.656ZM9.712 800.488C7.312 799.72 6.288 797.832 6.288 795.896V794.456H4.144V795.896C4.144 797.848 3.088 799.912 0.64 800.744L1.712 802.424C3.424 801.832 4.576 800.632 5.248 799.144C5.888 800.52 7.008 801.608 8.64 802.168L9.712 800.488ZM5.232 806.44V803.368H3.12V808.12H13.296V806.44H5.232ZM22.0308 806.792C20.0628 806.792 19.0548 806.456 19.0548 805.704C19.0548 804.952 20.0628 804.632 22.0308 804.632C23.9988 804.632 25.0068 804.952 25.0068 805.704C25.0068 806.456 23.9988 806.792 22.0308 806.792ZM22.0308 803.032C18.8468 803.032 16.9268 803.992 16.9268 805.704C16.9268 807.416 18.8468 808.392 22.0308 808.392C25.2148 808.392 27.1508 807.416 27.1508 805.704C27.1508 803.992 25.2148 803.032 22.0308 803.032ZM20.5108 799.4C20.9908 799.464 21.5028 799.496 22.0628 799.496C22.6068 799.496 23.1188 799.464 23.5828 799.416V800.632H20.5108V799.4ZM22.0628 795.464C24.0788 795.464 25.2308 795.864 25.2308 796.696C25.2308 797.496 24.0788 797.912 22.0628 797.912C20.0628 797.912 18.9108 797.496 18.9108 796.696C18.9108 795.864 20.0628 795.464 22.0628 795.464ZM25.6948 800.632V798.872C26.7828 798.392 27.4068 797.656 27.4068 796.696C27.4068 794.936 25.3268 793.864 22.0628 793.864C18.8148 793.864 16.7348 794.936 16.7348 796.696C16.7348 797.64 17.3428 798.376 18.3988 798.856V800.632H15.4068V802.296H28.7188V800.632H25.6948ZM40.3335 802.648H42.4455V793.64H40.3335V796.008H38.6055V797.704H40.3335V798.776H38.6055V800.456H40.3335V802.648ZM33.6935 796.296H35.0695V800.296C34.6055 800.312 34.1415 800.344 33.6935 800.344V796.296ZM38.4455 800.04C38.0135 800.088 37.5655 800.136 37.1015 800.168V796.296H38.2695V794.616H30.4935V796.296H31.6615V800.392C31.1175 800.392 30.6055 800.392 30.1255 800.392L30.3495 802.104C32.6695 802.104 35.8375 802.056 38.5735 801.592L38.4455 800.04ZM37.4535 806.792C35.5175 806.792 34.5255 806.408 34.5255 805.64C34.5255 804.856 35.5175 804.488 37.4535 804.488C39.4055 804.488 40.3975 804.856 40.3975 805.64C40.3975 806.408 39.4055 806.792 37.4535 806.792ZM37.4535 802.888C34.3175 802.888 32.4135 803.896 32.4135 805.64C32.4135 807.368 34.3175 808.392 37.4535 808.392C40.6055 808.392 42.5095 807.368 42.5095 805.64C42.5095 803.896 40.6055 802.888 37.4535 802.888ZM45.5163 795.144V796.856H50.3323C49.9483 800.12 48.1243 802.456 44.7003 804.216L45.8843 805.832C50.7803 803.352 52.4603 799.56 52.4603 795.144H45.5163ZM58.4443 799.256H56.3803V793.624H54.2683V808.344H56.3803V801H58.4443V799.256ZM71.387 797.688H63.291V795.72H71.307V794.04H61.195V799.352H71.387V797.688ZM66.187 806.776C64.219 806.776 63.211 806.44 63.211 805.672C63.211 804.904 64.219 804.552 66.187 804.552C68.155 804.552 69.163 804.904 69.163 805.672C69.163 806.44 68.155 806.776 66.187 806.776ZM66.187 802.952C63.003 802.952 61.083 803.928 61.083 805.672C61.083 807.4 63.003 808.376 66.187 808.376C69.371 808.376 71.307 807.4 71.307 805.672C71.307 803.928 69.371 802.952 66.187 802.952ZM59.579 800.376V802.104H72.907V800.376H59.579ZM83.9138 806.536H77.9618V805.192H83.9138V806.536ZM83.9138 803.56H77.9618V802.024H75.8658V808.216H86.0258V802.024H83.9138V803.56ZM85.7378 799.384C86.0578 797.736 86.0578 796.568 86.0578 795.416V794.232H75.9298V795.912H83.9778C83.9778 796.888 83.9298 797.992 83.6418 799.384H74.2818V801.08H87.6258V799.384H85.7378Z" fill="#1A1A1A"/>
<path d="M1.6 841H5.344C7.968 841 9.792 839.864 9.792 837.56C9.792 835.96 8.8 835.032 7.392 834.76V834.68C8.496 834.328 9.12 833.304 9.12 832.136C9.12 830.072 7.472 829.272 5.088 829.272H1.6V841ZM3.088 834.264V830.44H4.896C6.72 830.44 7.664 830.952 7.664 832.328C7.664 833.512 6.848 834.264 4.832 834.264H3.088ZM3.088 839.816V835.4H5.136C7.184 835.4 8.336 836.056 8.336 837.512C8.336 839.096 7.152 839.816 5.136 839.816H3.088ZM14.3716 839.144H15.5396V835.64H18.7876V834.552H15.5396V831.064H14.3716V834.552H11.1236V835.64H14.3716V839.144Z" fill="#1A1A1A"/>
<line y1="864.5" x2="343" y2="864.5" stroke="#1A1A1A"/>
<path d="M10.8 889.64V897.992H12.928V889.64H10.8ZM3.12 898.648V904.2H12.928V898.648H3.12ZM10.864 900.296V902.552H5.2V900.296H10.864ZM4.912 890.312C2.624 890.312 0.896 891.784 0.896 893.864C0.896 895.928 2.624 897.4 4.912 897.4C7.2 897.4 8.912 895.928 8.912 893.864C8.912 891.784 7.2 890.312 4.912 890.312ZM4.912 892.072C6.016 892.072 6.848 892.744 6.848 893.864C6.848 894.968 6.016 895.64 4.912 895.64C3.792 895.64 2.96 894.968 2.96 893.864C2.96 892.744 3.792 892.072 4.912 892.072ZM24.5908 896.408C22.2548 895.64 21.1668 893.912 21.1348 892.184H24.0468V890.52H16.0308V892.184H18.9908C18.9588 894.008 17.8708 895.88 15.4708 896.648L16.5428 898.296C18.2548 897.736 19.4388 896.584 20.0948 895.144C20.7668 896.456 21.8868 897.512 23.5188 898.024L24.5908 896.408ZM17.6148 900.856H25.5188V904.392H27.6468V899.176H17.6148V900.856ZM25.5188 889.64V898.52H27.6468V889.64H25.5188ZM37.6455 898.2V899.64H40.4135V900.808H42.5255V889.64H40.4135V898.2H37.6455ZM34.8135 891.672C35.7895 891.672 36.4775 892.056 36.4775 892.776C36.4775 893.496 35.7895 893.864 34.8135 893.864C33.8215 893.864 33.1335 893.496 33.1335 892.776C33.1335 892.056 33.8215 891.672 34.8135 891.672ZM34.8135 895.4C36.9575 895.4 38.4775 894.344 38.4775 892.776C38.4775 891.208 36.9575 890.136 34.8135 890.136C32.6535 890.136 31.1335 891.208 31.1335 892.776C31.1335 894.344 32.6535 895.4 34.8135 895.4ZM34.0295 902.44V900.424H36.0615V897.64C37.2455 897.56 38.4295 897.432 39.5815 897.224L39.4375 895.72C36.3335 896.12 32.7495 896.152 30.0615 896.168L30.3335 897.848C31.4375 897.848 32.6695 897.832 33.9655 897.768V899.736H31.9175V904.12H42.8455V902.44H34.0295Z" fill="#1A1A1A"/>
<path d="M3.168 937H4.688C4.864 932.408 5.376 929.688 8.128 926.152V925.272H0.784V926.52H6.464C4.176 929.72 3.36 932.552 3.168 937ZM13.051 937.208C15.035 937.208 16.891 935.752 16.891 933.176C16.891 930.6 15.307 929.448 13.355 929.448C12.651 929.448 12.123 929.624 11.611 929.912L11.899 926.52H16.331V925.272H10.619L10.251 930.76L11.035 931.24C11.707 930.792 12.203 930.552 12.987 930.552C14.459 930.552 15.419 931.544 15.419 933.224C15.419 934.936 14.299 935.992 12.923 935.992C11.563 935.992 10.715 935.368 10.043 934.696L9.323 935.656C10.107 936.44 11.227 937.208 13.051 937.208ZM24.518 930.248H20.55V925.976H24.518V930.248ZM29.094 927.224V929H25.798V927.224H29.094ZM25.798 930.056H29.094V932.328H30.422V923.848H29.094V926.168H25.798V924.92H19.254V931.288H25.798V930.056ZM25.67 937.144C23.526 937.144 22.214 936.52 22.214 935.464C22.214 934.408 23.526 933.784 25.67 933.784C27.846 933.784 29.158 934.408 29.158 935.464C29.158 936.52 27.846 937.144 25.67 937.144ZM25.67 932.76C22.726 932.76 20.902 933.736 20.902 935.464C20.902 937.176 22.726 938.168 25.67 938.168C28.63 938.168 30.454 937.176 30.454 935.464C30.454 933.736 28.63 932.76 25.67 932.76Z" fill="#1A1A1A"/>
<line y1="960.5" x2="343" y2="960.5" stroke="#1A1A1A"/>
</svg>
