<svg width="320" height="942" viewBox="0 0 320 942" fill="none" xmlns="http://www.w3.org/2000/svg">
<path d="M159 132V906H161V132H159Z" fill="#F0F0F0"/>
<path d="M242 436V212C242 200.954 233.046 192 222 192H99C87.9543 192 79 200.954 79 212V436" stroke="#F0F0F0" stroke-width="2"/>
<path d="M270 872V591C270 579.954 261.046 571 250 571H70C58.9543 571 50 579.954 50 591V872" stroke="#F0F0F0" stroke-width="2"/>
<rect x="19" y="220" width="120" height="150" rx="20" fill="#1A1A1A"/>
<path d="M68.7489 278.224C70.2849 278.224 71.5489 277.616 72.5249 276.48L71.2769 275.008C70.6369 275.696 69.8529 276.176 68.8289 276.176C66.9569 276.176 65.7409 274.624 65.7409 272.048C65.7409 269.504 67.0849 267.968 68.8769 267.968C69.7729 267.968 70.4609 268.384 71.0689 268.96L72.3009 267.456C71.5329 266.656 70.3329 265.936 68.8289 265.936C65.8369 265.936 63.3249 268.224 63.3249 272.128C63.3249 276.08 65.7569 278.224 68.7489 278.224ZM76.5346 278H78.9026V268.128H82.2626V266.144H73.2066V268.128H76.5346V278ZM88.3866 278.224C91.5226 278.224 93.6826 275.872 93.6826 272.032C93.6826 268.192 91.5226 265.936 88.3866 265.936C85.2506 265.936 83.0906 268.176 83.0906 272.032C83.0906 275.872 85.2506 278.224 88.3866 278.224ZM88.3866 276.176C86.6266 276.176 85.5066 274.56 85.5066 272.032C85.5066 269.488 86.6266 267.968 88.3866 267.968C90.1466 267.968 91.2666 269.488 91.2666 272.032C91.2666 274.56 90.1466 276.176 88.3866 276.176Z" fill="white"/>
<path d="M37.3011 306H38.0411V312.36H41.9611V313H37.3011V306ZM48.1398 312.36V313H43.1898V306H47.9898V306.64H43.9298V309.13H47.5498V309.76H43.9298V312.36H48.1398ZM52.8802 313.06C52.1869 313.06 51.5602 312.907 51.0002 312.6C50.4469 312.293 50.0102 311.87 49.6902 311.33C49.3769 310.783 49.2202 310.173 49.2202 309.5C49.2202 308.827 49.3769 308.22 49.6902 307.68C50.0102 307.133 50.4502 306.707 51.0102 306.4C51.5702 306.093 52.1969 305.94 52.8902 305.94C53.4102 305.94 53.8902 306.027 54.3302 306.2C54.7702 306.373 55.1435 306.627 55.4502 306.96L54.9802 307.43C54.4335 306.877 53.7435 306.6 52.9102 306.6C52.3569 306.6 51.8535 306.727 51.4002 306.98C50.9469 307.233 50.5902 307.58 50.3302 308.02C50.0769 308.46 49.9502 308.953 49.9502 309.5C49.9502 310.047 50.0769 310.54 50.3302 310.98C50.5902 311.42 50.9469 311.767 51.4002 312.02C51.8535 312.273 52.3569 312.4 52.9102 312.4C53.7502 312.4 54.4402 312.12 54.9802 311.56L55.4502 312.03C55.1435 312.363 54.7669 312.62 54.3202 312.8C53.8802 312.973 53.4002 313.06 52.8802 313.06ZM57.0277 306H57.7677V312.36H61.6877V313H57.0277V306ZM67.8664 312.36V313H62.9164V306H67.7164V306.64H63.6564V309.13H67.2764V309.76H63.6564V312.36H67.8664ZM78.043 306L74.943 313H74.213L71.113 306H71.913L74.593 312.08L77.293 306H78.043ZM79.0589 306H79.7989V313H79.0589V306ZM87.0265 312.36V313H82.0765V306H86.8765V306.64H82.8165V309.13H86.4365V309.76H82.8165V312.36H87.0265ZM90.126 306.64H87.666V306H93.326V306.64H90.866V313H90.126V306.64ZM100.358 306V313H99.7482L95.2482 307.32V313H94.5082V306H95.1182L99.6282 311.68V306H100.358ZM107.033 311.13H103.133L102.293 313H101.523L104.723 306H105.453L108.653 313H107.873L107.033 311.13ZM106.763 310.53L105.083 306.77L103.403 310.53H106.763ZM117.081 306V313H116.371V307.4L113.621 312.11H113.271L110.521 307.43V313H109.811V306H110.421L113.461 311.19L116.471 306H117.081ZM34.2591 322H37.1091C37.8491 322 38.5025 322.15 39.0691 322.45C39.6358 322.743 40.0758 323.157 40.3891 323.69C40.7025 324.217 40.8591 324.82 40.8591 325.5C40.8591 326.18 40.7025 326.787 40.3891 327.32C40.0758 327.847 39.6358 328.26 39.0691 328.56C38.5025 328.853 37.8491 329 37.1091 329H34.2591V322ZM37.0691 328.36C37.6825 328.36 38.2191 328.24 38.6791 328C39.1391 327.753 39.4958 327.417 39.7491 326.99C40.0025 326.557 40.1291 326.06 40.1291 325.5C40.1291 324.94 40.0025 324.447 39.7491 324.02C39.4958 323.587 39.1391 323.25 38.6791 323.01C38.2191 322.763 37.6825 322.64 37.0691 322.64H34.9991V328.36H37.0691ZM47.4709 328.36V329H42.5209V322H47.3209V322.64H43.2609V325.13H46.8809V325.76H43.2609V328.36H47.4709ZM54.9327 322L51.8327 329H51.1027L48.0027 322H48.8027L51.4827 328.08L54.1827 322H54.9327ZM60.8986 328.36V329H55.9486V322H60.7486V322.64H56.6886V325.13H60.3086V325.76H56.6886V328.36H60.8986ZM62.638 322H63.378V328.36H67.298V329H62.638V322ZM71.45 329.06C70.7567 329.06 70.1267 328.907 69.56 328.6C69 328.287 68.56 327.86 68.24 327.32C67.9267 326.78 67.77 326.173 67.77 325.5C67.77 324.827 67.9267 324.22 68.24 323.68C68.56 323.14 69 322.717 69.56 322.41C70.1267 322.097 70.7567 321.94 71.45 321.94C72.1433 321.94 72.7667 322.093 73.32 322.4C73.88 322.707 74.32 323.133 74.64 323.68C74.96 324.22 75.12 324.827 75.12 325.5C75.12 326.173 74.96 326.783 74.64 327.33C74.32 327.87 73.88 328.293 73.32 328.6C72.7667 328.907 72.1433 329.06 71.45 329.06ZM71.45 328.4C72.0033 328.4 72.5033 328.277 72.95 328.03C73.3967 327.777 73.7467 327.43 74 326.99C74.2533 326.543 74.38 326.047 74.38 325.5C74.38 324.953 74.2533 324.46 74 324.02C73.7467 323.573 73.3967 323.227 72.95 322.98C72.5033 322.727 72.0033 322.6 71.45 322.6C70.8967 322.6 70.3933 322.727 69.94 322.98C69.4933 323.227 69.14 323.573 68.88 324.02C68.6267 324.46 68.5 324.953 68.5 325.5C68.5 326.047 68.6267 326.543 68.88 326.99C69.14 327.43 69.4933 327.777 69.94 328.03C70.3933 328.277 70.8967 328.4 71.45 328.4ZM79.3987 322C80.292 322 80.992 322.213 81.4987 322.64C82.0053 323.067 82.2587 323.653 82.2587 324.4C82.2587 325.147 82.0053 325.733 81.4987 326.16C80.992 326.58 80.292 326.79 79.3987 326.79H77.5187V329H76.7787V322H79.3987ZM79.3787 326.14C80.072 326.14 80.602 325.99 80.9687 325.69C81.3353 325.383 81.5187 324.953 81.5187 324.4C81.5187 323.833 81.3353 323.4 80.9687 323.1C80.602 322.793 80.072 322.64 79.3787 322.64H77.5187V326.14H79.3787ZM91.5036 325.5H92.2136V328.17C91.8869 328.457 91.5003 328.677 91.0536 328.83C90.6069 328.983 90.1369 329.06 89.6436 329.06C88.9436 329.06 88.3136 328.907 87.7536 328.6C87.1936 328.293 86.7536 327.87 86.4336 327.33C86.1136 326.783 85.9536 326.173 85.9536 325.5C85.9536 324.827 86.1136 324.22 86.4336 323.68C86.7536 323.133 87.1936 322.707 87.7536 322.4C88.3136 322.093 88.9469 321.94 89.6536 321.94C90.1869 321.94 90.6769 322.027 91.1236 322.2C91.5703 322.367 91.9469 322.617 92.2536 322.95L91.7936 323.42C91.2403 322.873 90.5369 322.6 89.6836 322.6C89.1169 322.6 88.6036 322.727 88.1436 322.98C87.6903 323.227 87.3336 323.573 87.0736 324.02C86.8136 324.46 86.6836 324.953 86.6836 325.5C86.6836 326.047 86.8136 326.54 87.0736 326.98C87.3336 327.42 87.6903 327.767 88.1436 328.02C88.5969 328.273 89.1069 328.4 89.6736 328.4C90.3936 328.4 91.0036 328.22 91.5036 327.86V325.5ZM99.088 329L97.488 326.75C97.308 326.77 97.1213 326.78 96.928 326.78H95.048V329H94.308V322H96.928C97.8213 322 98.5213 322.213 99.028 322.64C99.5346 323.067 99.788 323.653 99.788 324.4C99.788 324.947 99.648 325.41 99.368 325.79C99.0946 326.163 98.7013 326.433 98.188 326.6L99.898 329H99.088ZM96.908 326.15C97.6013 326.15 98.1313 325.997 98.498 325.69C98.8646 325.383 99.048 324.953 99.048 324.4C99.048 323.833 98.8646 323.4 98.498 323.1C98.1313 322.793 97.6013 322.64 96.908 322.64H95.048V326.15H96.908ZM104.595 329.06C103.901 329.06 103.271 328.907 102.705 328.6C102.145 328.287 101.705 327.86 101.385 327.32C101.071 326.78 100.915 326.173 100.915 325.5C100.915 324.827 101.071 324.22 101.385 323.68C101.705 323.14 102.145 322.717 102.705 322.41C103.271 322.097 103.901 321.94 104.595 321.94C105.288 321.94 105.911 322.093 106.465 322.4C107.025 322.707 107.465 323.133 107.785 323.68C108.105 324.22 108.265 324.827 108.265 325.5C108.265 326.173 108.105 326.783 107.785 327.33C107.465 327.87 107.025 328.293 106.465 328.6C105.911 328.907 105.288 329.06 104.595 329.06ZM104.595 328.4C105.148 328.4 105.648 328.277 106.095 328.03C106.541 327.777 106.891 327.43 107.145 326.99C107.398 326.543 107.525 326.047 107.525 325.5C107.525 324.953 107.398 324.46 107.145 324.02C106.891 323.573 106.541 323.227 106.095 322.98C105.648 322.727 105.148 322.6 104.595 322.6C104.041 322.6 103.538 322.727 103.085 322.98C102.638 323.227 102.285 323.573 102.025 324.02C101.771 324.46 101.645 324.953 101.645 325.5C101.645 326.047 101.771 326.543 102.025 326.99C102.285 327.43 102.638 327.777 103.085 328.03C103.538 328.277 104.041 328.4 104.595 328.4ZM112.743 329.06C111.837 329.06 111.13 328.8 110.623 328.28C110.117 327.76 109.863 327.003 109.863 326.01V322H110.603V325.98C110.603 326.793 110.787 327.4 111.153 327.8C111.52 328.2 112.05 328.4 112.743 328.4C113.443 328.4 113.977 328.2 114.343 327.8C114.71 327.4 114.893 326.793 114.893 325.98V322H115.613V326.01C115.613 327.003 115.36 327.76 114.853 328.28C114.353 328.8 113.65 329.06 112.743 329.06ZM120.463 322C121.356 322 122.056 322.213 122.563 322.64C123.07 323.067 123.323 323.653 123.323 324.4C123.323 325.147 123.07 325.733 122.563 326.16C122.056 326.58 121.356 326.79 120.463 326.79H118.583V329H117.843V322H120.463ZM120.443 326.14C121.136 326.14 121.666 325.99 122.033 325.69C122.4 325.383 122.583 324.953 122.583 324.4C122.583 323.833 122.4 323.4 122.033 323.1C121.666 322.793 121.136 322.64 120.443 322.64H118.583V326.14H120.443Z" fill="white"/>
<rect x="182" y="220" width="120" height="150" rx="20" fill="#1A1A1A"/>
<path d="M231.538 278.224C233.074 278.224 234.338 277.616 235.314 276.48L234.066 275.008C233.426 275.696 232.642 276.176 231.618 276.176C229.746 276.176 228.53 274.624 228.53 272.048C228.53 269.504 229.874 267.968 231.666 267.968C232.562 267.968 233.25 268.384 233.858 268.96L235.09 267.456C234.322 266.656 233.122 265.936 231.618 265.936C228.626 265.936 226.114 268.224 226.114 272.128C226.114 276.08 228.546 278.224 231.538 278.224ZM237.222 278H239.59V273.792H241.174C243.718 273.792 245.75 272.576 245.75 269.872C245.75 267.072 243.734 266.144 241.11 266.144H237.222V278ZM239.59 271.92V268.032H240.934C242.566 268.032 243.43 268.496 243.43 269.872C243.43 271.232 242.646 271.92 241.014 271.92H239.59ZM252.598 278.224C255.734 278.224 257.894 275.872 257.894 272.032C257.894 268.192 255.734 265.936 252.598 265.936C249.462 265.936 247.302 268.176 247.302 272.032C247.302 275.872 249.462 278.224 252.598 278.224ZM252.598 276.176C250.838 276.176 249.718 274.56 249.718 272.032C249.718 269.488 250.838 267.968 252.598 267.968C254.358 267.968 255.477 269.488 255.477 272.032C255.477 274.56 254.358 276.176 252.598 276.176Z" fill="white"/>
<path d="M219.092 306C219.985 306 220.685 306.213 221.192 306.64C221.699 307.067 221.952 307.653 221.952 308.4C221.952 309.147 221.699 309.733 221.192 310.16C220.685 310.58 219.985 310.79 219.092 310.79H217.212V313H216.472V306H219.092ZM219.072 310.14C219.765 310.14 220.295 309.99 220.662 309.69C221.029 309.383 221.212 308.953 221.212 308.4C221.212 307.833 221.029 307.4 220.662 307.1C220.295 306.793 219.765 306.64 219.072 306.64H217.212V310.14H219.072ZM228.332 313L226.732 310.75C226.552 310.77 226.365 310.78 226.172 310.78H224.292V313H223.552V306H226.172C227.065 306 227.765 306.213 228.272 306.64C228.779 307.067 229.032 307.653 229.032 308.4C229.032 308.947 228.892 309.41 228.612 309.79C228.339 310.163 227.945 310.433 227.432 310.6L229.142 313H228.332ZM226.152 310.15C226.845 310.15 227.375 309.997 227.742 309.69C228.109 309.383 228.292 308.953 228.292 308.4C228.292 307.833 228.109 307.4 227.742 307.1C227.375 306.793 226.845 306.64 226.152 306.64H224.292V310.15H226.152ZM233.839 313.06C233.145 313.06 232.515 312.907 231.949 312.6C231.389 312.287 230.949 311.86 230.629 311.32C230.315 310.78 230.159 310.173 230.159 309.5C230.159 308.827 230.315 308.22 230.629 307.68C230.949 307.14 231.389 306.717 231.949 306.41C232.515 306.097 233.145 305.94 233.839 305.94C234.532 305.94 235.155 306.093 235.709 306.4C236.269 306.707 236.709 307.133 237.029 307.68C237.349 308.22 237.509 308.827 237.509 309.5C237.509 310.173 237.349 310.783 237.029 311.33C236.709 311.87 236.269 312.293 235.709 312.6C235.155 312.907 234.532 313.06 233.839 313.06ZM233.839 312.4C234.392 312.4 234.892 312.277 235.339 312.03C235.785 311.777 236.135 311.43 236.389 310.99C236.642 310.543 236.769 310.047 236.769 309.5C236.769 308.953 236.642 308.46 236.389 308.02C236.135 307.573 235.785 307.227 235.339 306.98C234.892 306.727 234.392 306.6 233.839 306.6C233.285 306.6 232.782 306.727 232.329 306.98C231.882 307.227 231.529 307.573 231.269 308.02C231.015 308.46 230.889 308.953 230.889 309.5C230.889 310.047 231.015 310.543 231.269 310.99C231.529 311.43 231.882 311.777 232.329 312.03C232.782 312.277 233.285 312.4 233.839 312.4ZM239.167 306H242.017C242.757 306 243.411 306.15 243.977 306.45C244.544 306.743 244.984 307.157 245.297 307.69C245.611 308.217 245.767 308.82 245.767 309.5C245.767 310.18 245.611 310.787 245.297 311.32C244.984 311.847 244.544 312.26 243.977 312.56C243.411 312.853 242.757 313 242.017 313H239.167V306ZM241.977 312.36C242.591 312.36 243.127 312.24 243.587 312C244.047 311.753 244.404 311.417 244.657 310.99C244.911 310.557 245.037 310.06 245.037 309.5C245.037 308.94 244.911 308.447 244.657 308.02C244.404 307.587 244.047 307.25 243.587 307.01C243.127 306.763 242.591 306.64 241.977 306.64H239.907V312.36H241.977ZM250.249 313.06C249.342 313.06 248.636 312.8 248.129 312.28C247.622 311.76 247.369 311.003 247.369 310.01V306H248.109V309.98C248.109 310.793 248.292 311.4 248.659 311.8C249.026 312.2 249.556 312.4 250.249 312.4C250.949 312.4 251.482 312.2 251.849 311.8C252.216 311.4 252.399 310.793 252.399 309.98V306H253.119V310.01C253.119 311.003 252.866 311.76 252.359 312.28C251.859 312.8 251.156 313.06 250.249 313.06ZM258.389 313.06C257.696 313.06 257.069 312.907 256.509 312.6C255.956 312.293 255.519 311.87 255.199 311.33C254.886 310.783 254.729 310.173 254.729 309.5C254.729 308.827 254.886 308.22 255.199 307.68C255.519 307.133 255.959 306.707 256.519 306.4C257.079 306.093 257.706 305.94 258.399 305.94C258.919 305.94 259.399 306.027 259.839 306.2C260.279 306.373 260.652 306.627 260.959 306.96L260.489 307.43C259.942 306.877 259.252 306.6 258.419 306.6C257.866 306.6 257.362 306.727 256.909 306.98C256.456 307.233 256.099 307.58 255.839 308.02C255.586 308.46 255.459 308.953 255.459 309.5C255.459 310.047 255.586 310.54 255.839 310.98C256.099 311.42 256.456 311.767 256.909 312.02C257.362 312.273 257.866 312.4 258.419 312.4C259.259 312.4 259.949 312.12 260.489 311.56L260.959 312.03C260.652 312.363 260.276 312.62 259.829 312.8C259.389 312.973 258.909 313.06 258.389 313.06ZM263.809 306.64H261.349V306H267.009V306.64H264.549V313H263.809V306.64ZM205.572 329.06C204.879 329.06 204.249 328.907 203.682 328.6C203.122 328.287 202.682 327.86 202.362 327.32C202.049 326.78 201.892 326.173 201.892 325.5C201.892 324.827 202.049 324.22 202.362 323.68C202.682 323.14 203.122 322.717 203.682 322.41C204.249 322.097 204.879 321.94 205.572 321.94C206.265 321.94 206.889 322.093 207.442 322.4C208.002 322.707 208.442 323.133 208.762 323.68C209.082 324.22 209.242 324.827 209.242 325.5C209.242 326.173 209.082 326.783 208.762 327.33C208.442 327.87 208.002 328.293 207.442 328.6C206.889 328.907 206.265 329.06 205.572 329.06ZM205.572 328.4C206.125 328.4 206.625 328.277 207.072 328.03C207.519 327.777 207.869 327.43 208.122 326.99C208.375 326.543 208.502 326.047 208.502 325.5C208.502 324.953 208.375 324.46 208.122 324.02C207.869 323.573 207.519 323.227 207.072 322.98C206.625 322.727 206.125 322.6 205.572 322.6C205.019 322.6 204.515 322.727 204.062 322.98C203.615 323.227 203.262 323.573 203.002 324.02C202.749 324.46 202.622 324.953 202.622 325.5C202.622 326.047 202.749 326.543 203.002 326.99C203.262 327.43 203.615 327.777 204.062 328.03C204.515 328.277 205.019 328.4 205.572 328.4ZM220.296 322L217.936 329H217.156L215.106 323.03L213.046 329H212.276L209.916 322H210.676L212.696 328.02L214.786 322H215.476L217.536 328.05L219.586 322H220.296ZM227.503 322V329H226.893L222.393 323.32V329H221.653V322H222.263L226.773 327.68V322H227.503ZM234.737 328.36V329H229.787V322H234.587V322.64H230.527V325.13H234.147V325.76H230.527V328.36H234.737ZM241.257 329L239.657 326.75C239.477 326.77 239.29 326.78 239.097 326.78H237.217V329H236.477V322H239.097C239.99 322 240.69 322.213 241.197 322.64C241.704 323.067 241.957 323.653 241.957 324.4C241.957 324.947 241.817 325.41 241.537 325.79C241.264 326.163 240.87 326.433 240.357 326.6L242.067 329H241.257ZM239.077 326.15C239.77 326.15 240.3 325.997 240.667 325.69C241.034 325.383 241.217 324.953 241.217 324.4C241.217 323.833 241.034 323.4 240.667 323.1C240.3 322.793 239.77 322.64 239.077 322.64H237.217V326.15H239.077ZM251.251 325.5H251.961V328.17C251.634 328.457 251.247 328.677 250.801 328.83C250.354 328.983 249.884 329.06 249.391 329.06C248.691 329.06 248.061 328.907 247.501 328.6C246.941 328.293 246.501 327.87 246.181 327.33C245.861 326.783 245.701 326.173 245.701 325.5C245.701 324.827 245.861 324.22 246.181 323.68C246.501 323.133 246.941 322.707 247.501 322.4C248.061 322.093 248.694 321.94 249.401 321.94C249.934 321.94 250.424 322.027 250.871 322.2C251.317 322.367 251.694 322.617 252.001 322.95L251.541 323.42C250.987 322.873 250.284 322.6 249.431 322.6C248.864 322.6 248.351 322.727 247.891 322.98C247.437 323.227 247.081 323.573 246.821 324.02C246.561 324.46 246.431 324.953 246.431 325.5C246.431 326.047 246.561 326.54 246.821 326.98C247.081 327.42 247.437 327.767 247.891 328.02C248.344 328.273 248.854 328.4 249.421 328.4C250.141 328.4 250.751 328.22 251.251 327.86V325.5ZM258.835 329L257.235 326.75C257.055 326.77 256.868 326.78 256.675 326.78H254.795V329H254.055V322H256.675C257.568 322 258.268 322.213 258.775 322.64C259.282 323.067 259.535 323.653 259.535 324.4C259.535 324.947 259.395 325.41 259.115 325.79C258.842 326.163 258.448 326.433 257.935 326.6L259.645 329H258.835ZM256.655 326.15C257.348 326.15 257.878 325.997 258.245 325.69C258.612 325.383 258.795 324.953 258.795 324.4C258.795 323.833 258.612 323.4 258.245 323.1C257.878 322.793 257.348 322.64 256.655 322.64H254.795V326.15H256.655ZM264.342 329.06C263.648 329.06 263.018 328.907 262.452 328.6C261.892 328.287 261.452 327.86 261.132 327.32C260.818 326.78 260.662 326.173 260.662 325.5C260.662 324.827 260.818 324.22 261.132 323.68C261.452 323.14 261.892 322.717 262.452 322.41C263.018 322.097 263.648 321.94 264.342 321.94C265.035 321.94 265.658 322.093 266.212 322.4C266.772 322.707 267.212 323.133 267.532 323.68C267.852 324.22 268.012 324.827 268.012 325.5C268.012 326.173 267.852 326.783 267.532 327.33C267.212 327.87 266.772 328.293 266.212 328.6C265.658 328.907 265.035 329.06 264.342 329.06ZM264.342 328.4C264.895 328.4 265.395 328.277 265.842 328.03C266.288 327.777 266.638 327.43 266.892 326.99C267.145 326.543 267.272 326.047 267.272 325.5C267.272 324.953 267.145 324.46 266.892 324.02C266.638 323.573 266.288 323.227 265.842 322.98C265.395 322.727 264.895 322.6 264.342 322.6C263.788 322.6 263.285 322.727 262.832 322.98C262.385 323.227 262.032 323.573 261.772 324.02C261.518 324.46 261.392 324.953 261.392 325.5C261.392 326.047 261.518 326.543 261.772 326.99C262.032 327.43 262.385 327.777 262.832 328.03C263.285 328.277 263.788 328.4 264.342 328.4ZM272.49 329.06C271.584 329.06 270.877 328.8 270.37 328.28C269.864 327.76 269.61 327.003 269.61 326.01V322H270.35V325.98C270.35 326.793 270.534 327.4 270.9 327.8C271.267 328.2 271.797 328.4 272.49 328.4C273.19 328.4 273.724 328.2 274.09 327.8C274.457 327.4 274.64 326.793 274.64 325.98V322H275.36V326.01C275.36 327.003 275.107 327.76 274.6 328.28C274.1 328.8 273.397 329.06 272.49 329.06ZM280.21 322C281.104 322 281.804 322.213 282.31 322.64C282.817 323.067 283.07 323.653 283.07 324.4C283.07 325.147 282.817 325.733 282.31 326.16C281.804 326.58 281.104 326.79 280.21 326.79H278.33V329H277.59V322H280.21ZM280.19 326.14C280.884 326.14 281.414 325.99 281.78 325.69C282.147 325.383 282.33 324.953 282.33 324.4C282.33 323.833 282.147 323.4 281.78 323.1C281.414 322.793 280.884 322.64 280.19 322.64H278.33V326.14H280.19Z" fill="white"/>
<rect x="19" y="380" width="120" height="150" rx="20" fill="#1A1A1A"/>
<path d="M68.6318 438.224C70.1678 438.224 71.4318 437.616 72.4078 436.48L71.1597 435.008C70.5198 435.696 69.7358 436.176 68.7118 436.176C66.8398 436.176 65.6238 434.624 65.6238 432.048C65.6238 429.504 66.9678 427.968 68.7598 427.968C69.6558 427.968 70.3438 428.384 70.9518 428.96L72.1838 427.456C71.4158 426.656 70.2158 425.936 68.7118 425.936C65.7198 425.936 63.2078 428.224 63.2078 432.128C63.2078 436.08 65.6398 438.224 68.6318 438.224ZM77.3514 438.224C80.0874 438.224 81.7034 436.576 81.7034 434.64C81.7034 432.928 80.7594 432.016 79.3194 431.424L77.7674 430.768C76.7594 430.368 75.9274 430.064 75.9274 429.216C75.9274 428.432 76.5834 427.968 77.6234 427.968C78.5994 427.968 79.3834 428.32 80.1354 428.944L81.3354 427.456C80.3754 426.48 78.9994 425.936 77.6234 425.936C75.2234 425.936 73.5274 427.424 73.5274 429.36C73.5274 431.088 74.7274 432.048 75.9274 432.544L77.5114 433.216C78.5674 433.664 79.2874 433.936 79.2874 434.816C79.2874 435.648 78.6314 436.176 77.3994 436.176C76.3594 436.176 75.2394 435.648 74.3914 434.864L73.0314 436.496C74.1834 437.6 75.7674 438.224 77.3514 438.224ZM88.5038 438.224C91.6398 438.224 93.7998 435.872 93.7998 432.032C93.7998 428.192 91.6398 425.936 88.5038 425.936C85.3678 425.936 83.2078 428.176 83.2078 432.032C83.2078 435.872 85.3678 438.224 88.5038 438.224ZM88.5038 436.176C86.7438 436.176 85.6238 434.56 85.6238 432.032C85.6238 429.488 86.7438 427.968 88.5038 427.968C90.2638 427.968 91.3837 429.488 91.3837 432.032C91.3837 434.56 90.2638 436.176 88.5038 436.176Z" fill="white"/>
<path d="M54.1042 473.06C53.5842 473.06 53.0842 472.977 52.6042 472.81C52.1308 472.643 51.7642 472.423 51.5042 472.15L51.7942 471.58C52.0475 471.833 52.3842 472.04 52.8042 472.2C53.2242 472.353 53.6575 472.43 54.1042 472.43C54.7308 472.43 55.2008 472.317 55.5142 472.09C55.8275 471.857 55.9842 471.557 55.9842 471.19C55.9842 470.91 55.8975 470.687 55.7242 470.52C55.5575 470.353 55.3508 470.227 55.1042 470.14C54.8575 470.047 54.5142 469.947 54.0742 469.84C53.5475 469.707 53.1275 469.58 52.8142 469.46C52.5008 469.333 52.2308 469.143 52.0042 468.89C51.7842 468.637 51.6742 468.293 51.6742 467.86C51.6742 467.507 51.7675 467.187 51.9542 466.9C52.1408 466.607 52.4275 466.373 52.8142 466.2C53.2008 466.027 53.6808 465.94 54.2542 465.94C54.6542 465.94 55.0442 465.997 55.4242 466.11C55.8108 466.217 56.1442 466.367 56.4242 466.56L56.1742 467.15C55.8808 466.957 55.5675 466.813 55.2342 466.72C54.9008 466.62 54.5742 466.57 54.2542 466.57C53.6408 466.57 53.1775 466.69 52.8642 466.93C52.5575 467.163 52.4042 467.467 52.4042 467.84C52.4042 468.12 52.4875 468.347 52.6542 468.52C52.8275 468.687 53.0408 468.817 53.2942 468.91C53.5542 468.997 53.9008 469.093 54.3342 469.2C54.8475 469.327 55.2608 469.453 55.5742 469.58C55.8942 469.7 56.1642 469.887 56.3842 470.14C56.6042 470.387 56.7142 470.723 56.7142 471.15C56.7142 471.503 56.6175 471.827 56.4242 472.12C56.2375 472.407 55.9475 472.637 55.5542 472.81C55.1608 472.977 54.6775 473.06 54.1042 473.06ZM59.5889 466.64H57.1289V466H62.7889V466.64H60.3289V473H59.5889V466.64ZM68.7511 473L67.1511 470.75C66.9711 470.77 66.7844 470.78 66.5911 470.78H64.7111V473H63.9711V466H66.5911C67.4844 466 68.1844 466.213 68.6911 466.64C69.1977 467.067 69.4511 467.653 69.4511 468.4C69.4511 468.947 69.3111 469.41 69.0311 469.79C68.7577 470.163 68.3644 470.433 67.8511 470.6L69.5611 473H68.7511ZM66.5711 470.15C67.2644 470.15 67.7944 469.997 68.1611 469.69C68.5277 469.383 68.7111 468.953 68.7111 468.4C68.7111 467.833 68.5277 467.4 68.1611 467.1C67.7944 466.793 67.2644 466.64 66.5711 466.64H64.7111V470.15H66.5711ZM75.5876 471.13H71.6876L70.8476 473H70.0776L73.2776 466H74.0076L77.2076 473H76.4276L75.5876 471.13ZM75.3176 470.53L73.6376 466.77L71.9576 470.53H75.3176ZM79.374 466.64H76.914V466H82.574V466.64H80.114V473H79.374V466.64ZM88.7062 472.36V473H83.7562V466H88.5562V466.64H84.4962V469.13H88.1162V469.76H84.4962V472.36H88.7062ZM95.3366 469.5H96.0466V472.17C95.7199 472.457 95.3333 472.677 94.8866 472.83C94.4399 472.983 93.9699 473.06 93.4766 473.06C92.7766 473.06 92.1466 472.907 91.5866 472.6C91.0266 472.293 90.5866 471.87 90.2666 471.33C89.9466 470.783 89.7866 470.173 89.7866 469.5C89.7866 468.827 89.9466 468.22 90.2666 467.68C90.5866 467.133 91.0266 466.707 91.5866 466.4C92.1466 466.093 92.7799 465.94 93.4866 465.94C94.0199 465.94 94.5099 466.027 94.9566 466.2C95.4033 466.367 95.7799 466.617 96.0866 466.95L95.6266 467.42C95.0733 466.873 94.3699 466.6 93.5166 466.6C92.9499 466.6 92.4366 466.727 91.9766 466.98C91.5233 467.227 91.1666 467.573 90.9066 468.02C90.6466 468.46 90.5166 468.953 90.5166 469.5C90.5166 470.047 90.6466 470.54 90.9066 470.98C91.1666 471.42 91.5233 471.767 91.9766 472.02C92.4299 472.273 92.9399 472.4 93.5066 472.4C94.2266 472.4 94.8366 472.22 95.3366 471.86V469.5ZM100.541 470.58V473H99.811V470.58L97.011 466H97.801L100.201 469.93L102.601 466H103.341L100.541 470.58ZM34.0715 482C34.9649 482 35.6649 482.213 36.1715 482.64C36.6782 483.067 36.9315 483.653 36.9315 484.4C36.9315 485.147 36.6782 485.733 36.1715 486.16C35.6649 486.58 34.9649 486.79 34.0715 486.79H32.1915V489H31.4515V482H34.0715ZM34.0515 486.14C34.7449 486.14 35.2749 485.99 35.6415 485.69C36.0082 485.383 36.1915 484.953 36.1915 484.4C36.1915 483.833 36.0082 483.4 35.6415 483.1C35.2749 482.793 34.7449 482.64 34.0515 482.64H32.1915V486.14H34.0515ZM38.5316 482H39.2716V488.36H43.1916V489H38.5316V482ZM48.8298 487.13H44.9298L44.0898 489H43.3198L46.5198 482H47.2498L50.4498 489H49.6698L48.8298 487.13ZM48.5598 486.53L46.8798 482.77L45.1998 486.53H48.5598ZM57.4578 482V489H56.8478L52.3478 483.32V489H51.6078V482H52.2178L56.7278 487.68V482H57.4578ZM65.5925 482V489H64.9825L60.4825 483.32V489H59.7425V482H60.3525L64.8625 487.68V482H65.5925ZM67.8773 482H68.6173V489H67.8773V482ZM76.7449 482V489H76.1349L71.6349 483.32V489H70.8949V482H71.5049L76.0149 487.68V482H76.7449ZM83.9596 485.5H84.6696V488.17C84.343 488.457 83.9563 488.677 83.5096 488.83C83.063 488.983 82.593 489.06 82.0996 489.06C81.3996 489.06 80.7696 488.907 80.2096 488.6C79.6496 488.293 79.2096 487.87 78.8896 487.33C78.5696 486.783 78.4096 486.173 78.4096 485.5C78.4096 484.827 78.5696 484.22 78.8896 483.68C79.2096 483.133 79.6496 482.707 80.2096 482.4C80.7696 482.093 81.403 481.94 82.1096 481.94C82.643 481.94 83.133 482.027 83.5796 482.2C84.0263 482.367 84.403 482.617 84.7096 482.95L84.2496 483.42C83.6963 482.873 82.993 482.6 82.1396 482.6C81.573 482.6 81.0596 482.727 80.5996 482.98C80.1463 483.227 79.7896 483.573 79.5296 484.02C79.2696 484.46 79.1396 484.953 79.1396 485.5C79.1396 486.047 79.2696 486.54 79.5296 486.98C79.7896 487.42 80.1463 487.767 80.5996 488.02C81.053 488.273 81.563 488.4 82.1296 488.4C82.8496 488.4 83.4596 488.22 83.9596 487.86V485.5ZM94.3112 485.5H95.0212V488.17C94.6945 488.457 94.3079 488.677 93.8612 488.83C93.4145 488.983 92.9445 489.06 92.4512 489.06C91.7512 489.06 91.1212 488.907 90.5612 488.6C90.0012 488.293 89.5612 487.87 89.2412 487.33C88.9212 486.783 88.7612 486.173 88.7612 485.5C88.7612 484.827 88.9212 484.22 89.2412 483.68C89.5612 483.133 90.0012 482.707 90.5612 482.4C91.1212 482.093 91.7545 481.94 92.4612 481.94C92.9945 481.94 93.4845 482.027 93.9312 482.2C94.3779 482.367 94.7545 482.617 95.0612 482.95L94.6012 483.42C94.0479 482.873 93.3445 482.6 92.4912 482.6C91.9245 482.6 91.4112 482.727 90.9512 482.98C90.4979 483.227 90.1412 483.573 89.8812 484.02C89.6212 484.46 89.4912 484.953 89.4912 485.5C89.4912 486.047 89.6212 486.54 89.8812 486.98C90.1412 487.42 90.4979 487.767 90.9512 488.02C91.4045 488.273 91.9145 488.4 92.4812 488.4C93.2012 488.4 93.8112 488.22 94.3112 487.86V485.5ZM101.896 489L100.296 486.75C100.116 486.77 99.9289 486.78 99.7356 486.78H97.8556V489H97.1156V482H99.7356C100.629 482 101.329 482.213 101.836 482.64C102.342 483.067 102.596 483.653 102.596 484.4C102.596 484.947 102.456 485.41 102.176 485.79C101.902 486.163 101.509 486.433 100.996 486.6L102.706 489H101.896ZM99.7156 486.15C100.409 486.15 100.939 485.997 101.306 485.69C101.672 485.383 101.856 484.953 101.856 484.4C101.856 483.833 101.672 483.4 101.306 483.1C100.939 482.793 100.409 482.64 99.7156 482.64H97.8556V486.15H99.7156ZM107.402 489.06C106.709 489.06 106.079 488.907 105.512 488.6C104.952 488.287 104.512 487.86 104.192 487.32C103.879 486.78 103.722 486.173 103.722 485.5C103.722 484.827 103.879 484.22 104.192 483.68C104.512 483.14 104.952 482.717 105.512 482.41C106.079 482.097 106.709 481.94 107.402 481.94C108.095 481.94 108.719 482.093 109.272 482.4C109.832 482.707 110.272 483.133 110.592 483.68C110.912 484.22 111.072 484.827 111.072 485.5C111.072 486.173 110.912 486.783 110.592 487.33C110.272 487.87 109.832 488.293 109.272 488.6C108.719 488.907 108.095 489.06 107.402 489.06ZM107.402 488.4C107.955 488.4 108.455 488.277 108.902 488.03C109.349 487.777 109.699 487.43 109.952 486.99C110.205 486.543 110.332 486.047 110.332 485.5C110.332 484.953 110.205 484.46 109.952 484.02C109.699 483.573 109.349 483.227 108.902 482.98C108.455 482.727 107.955 482.6 107.402 482.6C106.849 482.6 106.345 482.727 105.892 482.98C105.445 483.227 105.092 483.573 104.832 484.02C104.579 484.46 104.452 484.953 104.452 485.5C104.452 486.047 104.579 486.543 104.832 486.99C105.092 487.43 105.445 487.777 105.892 488.03C106.345 488.277 106.849 488.4 107.402 488.4ZM115.551 489.06C114.644 489.06 113.937 488.8 113.431 488.28C112.924 487.76 112.671 487.003 112.671 486.01V482H113.411V485.98C113.411 486.793 113.594 487.4 113.961 487.8C114.327 488.2 114.857 488.4 115.551 488.4C116.251 488.4 116.784 488.2 117.151 487.8C117.517 487.4 117.701 486.793 117.701 485.98V482H118.421V486.01C118.421 487.003 118.167 487.76 117.661 488.28C117.161 488.8 116.457 489.06 115.551 489.06ZM123.271 482C124.164 482 124.864 482.213 125.371 482.64C125.877 483.067 126.131 483.653 126.131 484.4C126.131 485.147 125.877 485.733 125.371 486.16C124.864 486.58 124.164 486.79 123.271 486.79H121.391V489H120.651V482H123.271ZM123.251 486.14C123.944 486.14 124.474 485.99 124.841 485.69C125.207 485.383 125.391 484.953 125.391 484.4C125.391 483.833 125.207 483.4 124.841 483.1C124.474 482.793 123.944 482.64 123.251 482.64H121.391V486.14H123.251Z" fill="white"/>
<rect x="182" y="380" width="120" height="150" rx="20" fill="#1A1A1A"/>
<path d="M232.288 438.224C233.824 438.224 235.088 437.616 236.064 436.48L234.816 435.008C234.176 435.696 233.392 436.176 232.368 436.176C230.496 436.176 229.28 434.624 229.28 432.048C229.28 429.504 230.624 427.968 232.416 427.968C233.312 427.968 234 428.384 234.608 428.96L235.84 427.456C235.072 426.656 233.872 425.936 232.368 425.936C229.376 425.936 226.864 428.224 226.864 432.128C226.864 436.08 229.296 438.224 232.288 438.224ZM237.972 438H240.34V433.2H244.548V431.216H240.34V428.128H245.268V426.144H237.972V438ZM251.848 438.224C254.984 438.224 257.144 435.872 257.144 432.032C257.144 428.192 254.984 425.936 251.848 425.936C248.712 425.936 246.552 428.176 246.552 432.032C246.552 435.872 248.712 438.224 251.848 438.224ZM251.848 436.176C250.088 436.176 248.968 434.56 248.968 432.032C248.968 429.488 250.088 427.968 251.848 427.968C253.608 427.968 254.727 429.488 254.727 432.032C254.727 434.56 253.608 436.176 251.848 436.176Z" fill="white"/>
<path d="M210.869 466V473H210.159V467.4L207.409 472.11H207.059L204.309 467.43V473H203.599V466H204.209L207.249 471.19L210.259 466H210.869ZM217.54 471.13H213.64L212.8 473H212.03L215.23 466H215.96L219.16 473H218.38L217.54 471.13ZM217.27 470.53L215.59 466.77L213.91 470.53H217.27ZM226.168 466V473H225.558L221.058 467.32V473H220.318V466H220.928L225.438 471.68V466H226.168ZM232.843 471.13H228.943L228.103 473H227.333L230.533 466H231.263L234.463 473H233.683L232.843 471.13ZM232.573 470.53L230.893 466.77L229.213 470.53H232.573ZM240.453 469.5H241.163V472.17C240.836 472.457 240.449 472.677 240.003 472.83C239.556 472.983 239.086 473.06 238.593 473.06C237.893 473.06 237.263 472.907 236.703 472.6C236.143 472.293 235.703 471.87 235.383 471.33C235.063 470.783 234.903 470.173 234.903 469.5C234.903 468.827 235.063 468.22 235.383 467.68C235.703 467.133 236.143 466.707 236.703 466.4C237.263 466.093 237.896 465.94 238.603 465.94C239.136 465.94 239.626 466.027 240.073 466.2C240.519 466.367 240.896 466.617 241.203 466.95L240.743 467.42C240.189 466.873 239.486 466.6 238.633 466.6C238.066 466.6 237.553 466.727 237.093 466.98C236.639 467.227 236.283 467.573 236.023 468.02C235.763 468.46 235.633 468.953 235.633 469.5C235.633 470.047 235.763 470.54 236.023 470.98C236.283 471.42 236.639 471.767 237.093 472.02C237.546 472.273 238.056 472.4 238.623 472.4C239.343 472.4 239.953 472.22 240.453 471.86V469.5ZM248.207 472.36V473H243.257V466H248.057V466.64H243.997V469.13H247.617V469.76H243.997V472.36H248.207ZM257.217 466V473H256.507V467.4L253.757 472.11H253.407L250.657 467.43V473H249.947V466H250.557L253.597 471.19L256.607 466H257.217ZM264.447 472.36V473H259.497V466H264.297V466.64H260.237V469.13H263.857V469.76H260.237V472.36H264.447ZM272.037 466V473H271.427L266.927 467.32V473H266.187V466H266.797L271.307 471.68V466H272.037ZM275.682 466.64H273.222V466H278.882V466.64H276.422V473H275.682V466.64ZM228.846 485.5H229.556V488.17C229.23 488.457 228.843 488.677 228.396 488.83C227.95 488.983 227.48 489.06 226.986 489.06C226.286 489.06 225.656 488.907 225.096 488.6C224.536 488.293 224.096 487.87 223.776 487.33C223.456 486.783 223.296 486.173 223.296 485.5C223.296 484.827 223.456 484.22 223.776 483.68C224.096 483.133 224.536 482.707 225.096 482.4C225.656 482.093 226.29 481.94 226.996 481.94C227.53 481.94 228.02 482.027 228.466 482.2C228.913 482.367 229.29 482.617 229.596 482.95L229.136 483.42C228.583 482.873 227.88 482.6 227.026 482.6C226.46 482.6 225.946 482.727 225.486 482.98C225.033 483.227 224.676 483.573 224.416 484.02C224.156 484.46 224.026 484.953 224.026 485.5C224.026 486.047 224.156 486.54 224.416 486.98C224.676 487.42 225.033 487.767 225.486 488.02C225.94 488.273 226.45 488.4 227.016 488.4C227.736 488.4 228.346 488.22 228.846 487.86V485.5ZM236.431 489L234.831 486.75C234.651 486.77 234.464 486.78 234.271 486.78H232.391V489H231.651V482H234.271C235.164 482 235.864 482.213 236.371 482.64C236.877 483.067 237.131 483.653 237.131 484.4C237.131 484.947 236.991 485.41 236.711 485.79C236.437 486.163 236.044 486.433 235.531 486.6L237.241 489H236.431ZM234.251 486.15C234.944 486.15 235.474 485.997 235.841 485.69C236.207 485.383 236.391 484.953 236.391 484.4C236.391 483.833 236.207 483.4 235.841 483.1C235.474 482.793 234.944 482.64 234.251 482.64H232.391V486.15H234.251ZM241.937 489.06C241.244 489.06 240.614 488.907 240.047 488.6C239.487 488.287 239.047 487.86 238.727 487.32C238.414 486.78 238.257 486.173 238.257 485.5C238.257 484.827 238.414 484.22 238.727 483.68C239.047 483.14 239.487 482.717 240.047 482.41C240.614 482.097 241.244 481.94 241.937 481.94C242.631 481.94 243.254 482.093 243.807 482.4C244.367 482.707 244.807 483.133 245.127 483.68C245.447 484.22 245.607 484.827 245.607 485.5C245.607 486.173 245.447 486.783 245.127 487.33C244.807 487.87 244.367 488.293 243.807 488.6C243.254 488.907 242.631 489.06 241.937 489.06ZM241.937 488.4C242.491 488.4 242.991 488.277 243.437 488.03C243.884 487.777 244.234 487.43 244.487 486.99C244.741 486.543 244.867 486.047 244.867 485.5C244.867 484.953 244.741 484.46 244.487 484.02C244.234 483.573 243.884 483.227 243.437 482.98C242.991 482.727 242.491 482.6 241.937 482.6C241.384 482.6 240.881 482.727 240.427 482.98C239.981 483.227 239.627 483.573 239.367 484.02C239.114 484.46 238.987 484.953 238.987 485.5C238.987 486.047 239.114 486.543 239.367 486.99C239.627 487.43 239.981 487.777 240.427 488.03C240.881 488.277 241.384 488.4 241.937 488.4ZM250.086 489.06C249.179 489.06 248.473 488.8 247.966 488.28C247.459 487.76 247.206 487.003 247.206 486.01V482H247.946V485.98C247.946 486.793 248.129 487.4 248.496 487.8C248.863 488.2 249.393 488.4 250.086 488.4C250.786 488.4 251.319 488.2 251.686 487.8C252.053 487.4 252.236 486.793 252.236 485.98V482H252.956V486.01C252.956 487.003 252.703 487.76 252.196 488.28C251.696 488.8 250.993 489.06 250.086 489.06ZM257.806 482C258.699 482 259.399 482.213 259.906 482.64C260.413 483.067 260.666 483.653 260.666 484.4C260.666 485.147 260.413 485.733 259.906 486.16C259.399 486.58 258.699 486.79 257.806 486.79H255.926V489H255.186V482H257.806ZM257.786 486.14C258.479 486.14 259.009 485.99 259.376 485.69C259.743 485.383 259.926 484.953 259.926 484.4C259.926 483.833 259.743 483.4 259.376 483.1C259.009 482.793 258.479 482.64 257.786 482.64H255.926V486.14H257.786Z" fill="white"/>
<circle cx="160" cy="70" r="70" fill="#0000F4"/>
<path d="M147.44 63.28C149.36 63.28 150.94 62.52 152.16 61.1L150.6 59.26C149.8 60.12 148.82 60.72 147.54 60.72C145.2 60.72 143.68 58.78 143.68 55.56C143.68 52.38 145.36 50.46 147.6 50.46C148.72 50.46 149.58 50.98 150.34 51.7L151.88 49.82C150.92 48.82 149.42 47.92 147.54 47.92C143.8 47.92 140.66 50.78 140.66 55.66C140.66 60.6 143.7 63.28 147.44 63.28ZM154.545 63H163.845V60.52H157.505V56.56H162.705V54.08H157.505V50.66H163.625V48.18H154.545V63ZM172.729 63.28C176.649 63.28 179.349 60.34 179.349 55.54C179.349 50.74 176.649 47.92 172.729 47.92C168.809 47.92 166.109 50.72 166.109 55.54C166.109 60.34 168.809 63.28 172.729 63.28ZM172.729 60.72C170.529 60.72 169.129 58.7 169.129 55.54C169.129 52.36 170.529 50.46 172.729 50.46C174.929 50.46 176.329 52.36 176.329 55.54C176.329 58.7 174.929 60.72 172.729 60.72Z" fill="white"/>
<path d="M125.515 86H126.255V92.36H130.175V93H125.515V86ZM136.354 92.36V93H131.404V86H136.204V86.64H132.144V89.13H135.764V89.76H132.144V92.36H136.354ZM141.094 93.06C140.401 93.06 139.774 92.9067 139.214 92.6C138.661 92.2933 138.224 91.87 137.904 91.33C137.591 90.7833 137.434 90.1733 137.434 89.5C137.434 88.8267 137.591 88.22 137.904 87.68C138.224 87.1333 138.664 86.7067 139.224 86.4C139.784 86.0933 140.411 85.94 141.104 85.94C141.624 85.94 142.104 86.0267 142.544 86.2C142.984 86.3733 143.357 86.6267 143.664 86.96L143.194 87.43C142.647 86.8767 141.957 86.6 141.124 86.6C140.571 86.6 140.067 86.7267 139.614 86.98C139.161 87.2333 138.804 87.58 138.544 88.02C138.291 88.46 138.164 88.9533 138.164 89.5C138.164 90.0467 138.291 90.54 138.544 90.98C138.804 91.42 139.161 91.7667 139.614 92.02C140.067 92.2733 140.571 92.4 141.124 92.4C141.964 92.4 142.654 92.12 143.194 91.56L143.664 92.03C143.357 92.3633 142.981 92.62 142.534 92.8C142.094 92.9733 141.614 93.06 141.094 93.06ZM145.242 86H145.982V92.36H149.902V93H145.242V86ZM156.08 92.36V93H151.13V86H155.93V86.64H151.87V89.13H155.49V89.76H151.87V92.36H156.08ZM162.607 89.71L161.177 91.16V93H160.437V86H161.177V90.23L165.287 86H166.137L163.107 89.17L166.347 93H165.467L162.607 89.71ZM170.352 93.06C169.659 93.06 169.029 92.9067 168.462 92.6C167.902 92.2867 167.462 91.86 167.142 91.32C166.829 90.78 166.672 90.1733 166.672 89.5C166.672 88.8267 166.829 88.22 167.142 87.68C167.462 87.14 167.902 86.7167 168.462 86.41C169.029 86.0967 169.659 85.94 170.352 85.94C171.046 85.94 171.669 86.0933 172.222 86.4C172.782 86.7067 173.222 87.1333 173.542 87.68C173.862 88.22 174.022 88.8267 174.022 89.5C174.022 90.1733 173.862 90.7833 173.542 91.33C173.222 91.87 172.782 92.2933 172.222 92.6C171.669 92.9067 171.046 93.06 170.352 93.06ZM170.352 92.4C170.906 92.4 171.406 92.2767 171.852 92.03C172.299 91.7767 172.649 91.43 172.902 90.99C173.156 90.5433 173.282 90.0467 173.282 89.5C173.282 88.9533 173.156 88.46 172.902 88.02C172.649 87.5733 172.299 87.2267 171.852 86.98C171.406 86.7267 170.906 86.6 170.352 86.6C169.799 86.6 169.296 86.7267 168.842 86.98C168.396 87.2267 168.042 87.5733 167.782 88.02C167.529 88.46 167.402 88.9533 167.402 89.5C167.402 90.0467 167.529 90.5433 167.782 90.99C168.042 91.43 168.396 91.7767 168.842 92.03C169.296 92.2767 169.799 92.4 170.352 92.4ZM180.461 93L178.861 90.75C178.681 90.77 178.494 90.78 178.301 90.78H176.421V93H175.681V86H178.301C179.194 86 179.894 86.2133 180.401 86.64C180.908 87.0667 181.161 87.6533 181.161 88.4C181.161 88.9467 181.021 89.41 180.741 89.79C180.468 90.1633 180.074 90.4333 179.561 90.6L181.271 93H180.461ZM178.281 90.15C178.974 90.15 179.504 89.9967 179.871 89.69C180.238 89.3833 180.421 88.9533 180.421 88.4C180.421 87.8333 180.238 87.4 179.871 87.1C179.504 86.7933 178.974 86.64 178.281 86.64H176.421V90.15H178.281ZM187.858 92.36V93H182.908V86H187.708V86.64H183.648V89.13H187.268V89.76H183.648V92.36H187.858ZM193.987 91.13H190.087L189.247 93H188.477L191.677 86H192.407L195.607 93H194.827L193.987 91.13ZM193.717 90.53L192.037 86.77L190.357 90.53H193.717Z" fill="white"/>
<rect y="600" width="100" height="85" rx="16" fill="#F0F0F0"/>
<path d="M40.3791 648H42.1551V644.844H43.3431C45.2511 644.844 46.7751 643.932 46.7751 641.904C46.7751 639.804 45.2631 639.12 43.2951 639.12H40.3791V648ZM42.1551 643.44V640.524H43.1631C44.3871 640.524 45.0351 640.872 45.0351 641.904C45.0351 642.924 44.4471 643.44 43.2231 643.44H42.1551ZM47.5124 648.168C48.1484 648.168 48.6164 647.664 48.6164 647.016C48.6164 646.368 48.1484 645.864 47.5124 645.864C46.8884 645.864 46.4204 646.368 46.4204 647.016C46.4204 647.664 46.8884 648.168 47.5124 648.168ZM50.5627 648H52.1587V644.292C52.1587 643.452 52.0147 642.216 51.9307 641.376H51.9787L52.6867 643.464L54.0667 647.196H55.0867L56.4547 643.464L57.1747 641.376H57.2227C57.1387 642.216 57.0067 643.452 57.0067 644.292V648H58.6267V639.12H56.6587L55.1827 643.272C54.9907 643.824 54.8347 644.412 54.6427 644.988H54.5827C54.4027 644.412 54.2347 643.824 54.0427 643.272L52.5307 639.12H50.5627V648Z" fill="#808080"/>
<rect x="110" y="600" width="100" height="85" rx="16" fill="#F0F0F0"/>
<path d="M126.393 648H128.169V644.4H131.325V642.912H128.169V640.596H131.865V639.12H126.393V648ZM135.188 640.524H136.34C137.48 640.524 138.104 640.848 138.104 641.808C138.104 642.756 137.48 643.236 136.34 643.236H135.188V640.524ZM140.228 648L138.152 644.364C139.172 643.968 139.844 643.14 139.844 641.808C139.844 639.768 138.368 639.12 136.508 639.12H133.412V648H135.188V644.64H136.424L138.248 648H140.228ZM145.12 648.168C147.472 648.168 149.092 646.404 149.092 643.524C149.092 640.644 147.472 638.952 145.12 638.952C142.768 638.952 141.148 640.632 141.148 643.524C141.148 646.404 142.768 648.168 145.12 648.168ZM145.12 646.632C143.8 646.632 142.96 645.42 142.96 643.524C142.96 641.616 143.8 640.476 145.12 640.476C146.44 640.476 147.28 641.616 147.28 643.524C147.28 645.42 146.44 646.632 145.12 646.632ZM150.826 648H152.506V644.436C152.506 643.416 152.374 642.3 152.29 641.34H152.35L153.25 643.248L155.818 648H157.618V639.12H155.938V642.66C155.938 643.668 156.07 644.844 156.166 645.768H156.106L155.218 643.848L152.638 639.12H150.826V648ZM161.579 648H163.355V640.596H165.875V639.12H159.083V640.596H161.579V648ZM165.908 645.192H169.184V643.932H165.908V645.192ZM170.854 648H176.434V646.512H172.63V644.136H175.75V642.648H172.63V640.596H176.302V639.12H170.854V648ZM178.237 648H179.917V644.436C179.917 643.416 179.785 642.3 179.701 641.34H179.761L180.661 643.248L183.229 648H185.029V639.12H183.349V642.66C183.349 643.668 183.481 644.844 183.577 645.768H183.517L182.629 643.848L180.049 639.12H178.237V648ZM187.225 648H189.757C192.373 648 194.053 646.512 194.053 643.524C194.053 640.524 192.373 639.12 189.661 639.12H187.225V648ZM189.001 646.572V640.536H189.553C191.209 640.536 192.241 641.352 192.241 643.524C192.241 645.684 191.209 646.572 189.553 646.572H189.001Z" fill="#808080"/>
<rect x="220" y="600" width="100" height="85" rx="16" fill="#F0F0F0"/>
<path d="M240.299 648H243.467C245.423 648 246.911 647.172 246.911 645.384C246.911 644.184 246.203 643.512 245.243 643.284V643.224C245.999 642.96 246.455 642.12 246.455 641.304C246.455 639.648 245.063 639.108 243.239 639.108H240.299V648ZM242.075 642.732V640.476H243.131C244.199 640.476 244.727 640.788 244.727 641.568C244.727 642.276 244.235 642.732 243.107 642.732H242.075ZM242.075 646.632V644.04H243.311C244.535 644.04 245.183 644.412 245.183 645.276C245.183 646.2 244.523 646.632 243.311 646.632H242.075ZM250.399 643.368C250.663 642.444 250.927 641.436 251.155 640.464H251.215C251.467 641.424 251.707 642.444 251.983 643.368L252.247 644.34H250.135L250.399 643.368ZM247.327 648H249.127L249.751 645.72H252.631L253.255 648H255.115L252.259 639.108H250.171L247.327 648ZM259.638 648.168C260.79 648.168 261.738 647.712 262.47 646.86L261.534 645.756C261.054 646.272 260.466 646.632 259.698 646.632C258.294 646.632 257.382 645.468 257.382 643.536C257.382 641.628 258.39 640.476 259.734 640.476C260.406 640.476 260.922 640.788 261.378 641.22L262.302 640.092C261.726 639.492 260.826 638.952 259.698 638.952C257.454 638.952 255.57 640.668 255.57 643.596C255.57 646.56 257.394 648.168 259.638 648.168ZM263.901 648H265.677V645.504L266.841 644.004L269.145 648H271.089L267.897 642.612L270.609 639.108H268.653L265.713 642.972H265.677V639.108H263.901V648ZM271.002 645.192H274.278V643.932H271.002V645.192ZM275.947 648H281.527V646.512H277.723V644.136H280.843V642.648H277.723V640.596H281.395V639.108H275.947V648ZM283.33 648H285.01V644.436C285.01 643.416 284.878 642.3 284.794 641.34H284.854L285.754 643.248L288.322 648H290.122V639.108H288.442V642.66C288.442 643.668 288.586 644.844 288.67 645.768H288.61L287.722 643.848L285.142 639.108H283.33V648ZM292.319 648H294.851C297.467 648 299.147 646.512 299.147 643.524C299.147 640.524 297.467 639.108 294.755 639.108H292.319V648ZM294.095 646.572V640.536H294.647C296.303 640.536 297.335 641.352 297.335 643.524C297.335 645.684 296.303 646.572 294.647 646.572H294.095Z" fill="#808080"/>
<rect y="701" width="100" height="100" rx="16" fill="#F0F0F0"/>
<path d="M26.135 755H27.731V751.292C27.731 750.452 27.587 749.216 27.503 748.376H27.551L28.259 750.464L29.639 754.196H30.659L32.027 750.464L32.747 748.376H32.795C32.711 749.216 32.579 750.452 32.579 751.292V755H34.199V746.12H32.231L30.755 750.272C30.563 750.824 30.407 751.412 30.215 751.988H30.155C29.975 751.412 29.807 750.824 29.615 750.272L28.103 746.12H26.135V755ZM39.9052 755.168C42.2572 755.168 43.8772 753.404 43.8772 750.524C43.8772 747.644 42.2572 745.952 39.9052 745.952C37.5532 745.952 35.9332 747.632 35.9332 750.524C35.9332 753.404 37.5532 755.168 39.9052 755.168ZM39.9052 753.632C38.5852 753.632 37.7452 752.42 37.7452 750.524C37.7452 748.616 38.5852 747.476 39.9052 747.476C41.2252 747.476 42.0652 748.616 42.0652 750.524C42.0652 752.42 41.2252 753.632 39.9052 753.632ZM45.6115 755H48.7795C50.7355 755 52.2235 754.172 52.2235 752.384C52.2235 751.184 51.5155 750.512 50.5555 750.284V750.224C51.3115 749.96 51.7675 749.12 51.7675 748.304C51.7675 746.648 50.3755 746.12 48.5515 746.12H45.6115V755ZM47.3875 749.732V747.476H48.4435C49.5115 747.476 50.0395 747.788 50.0395 748.568C50.0395 749.276 49.5475 749.732 48.4195 749.732H47.3875ZM47.3875 753.632V751.052H48.6235C49.8475 751.052 50.4955 751.412 50.4955 752.276C50.4955 753.2 49.8355 753.632 48.6235 753.632H47.3875ZM53.7795 755H55.5555V746.12H53.7795V755ZM57.7404 755H63.1164V753.512H59.5164V746.12H57.7404V755ZM64.6662 755H70.2462V753.512H66.4422V751.136H69.5622V749.648H66.4422V747.596H70.1142V746.12H64.6662V755Z" fill="#808080"/>
<rect x="110" y="701" width="100" height="100" rx="16" fill="#F0F0F0"/>
<path d="M121.473 755H124.641C126.597 755 128.085 754.172 128.085 752.384C128.085 751.184 127.377 750.512 126.417 750.284V750.224C127.173 749.96 127.629 749.12 127.629 748.304C127.629 746.648 126.237 746.12 124.413 746.12H121.473V755ZM123.249 749.732V747.476H124.305C125.373 747.476 125.901 747.788 125.901 748.568C125.901 749.276 125.409 749.732 124.281 749.732H123.249ZM123.249 753.632V751.052H124.485C125.709 751.052 126.357 751.412 126.357 752.276C126.357 753.2 125.697 753.632 124.485 753.632H123.249ZM129.641 755H135.017V753.512H131.417V746.12H129.641V755ZM139.638 755.168C141.99 755.168 143.61 753.404 143.61 750.524C143.61 747.644 141.99 745.952 139.638 745.952C137.286 745.952 135.666 747.632 135.666 750.524C135.666 753.404 137.286 755.168 139.638 755.168ZM139.638 753.632C138.318 753.632 137.478 752.42 137.478 750.524C137.478 748.616 138.318 747.476 139.638 747.476C140.958 747.476 141.798 748.616 141.798 750.524C141.798 752.42 140.958 753.632 139.638 753.632ZM148.968 755.168C150.12 755.168 151.068 754.712 151.8 753.86L150.864 752.756C150.384 753.272 149.784 753.632 149.028 753.632C147.624 753.632 146.712 752.468 146.712 750.536C146.712 748.628 147.72 747.476 149.064 747.476C149.736 747.476 150.252 747.788 150.696 748.22L151.632 747.092C151.056 746.492 150.156 745.952 149.028 745.952C146.784 745.952 144.9 747.668 144.9 750.596C144.9 753.56 146.724 755.168 148.968 755.168ZM153.231 755H155.007V752.504L156.171 751.016L158.463 755H160.419L157.227 749.612L159.939 746.12H157.983L155.043 749.972H155.007V746.12H153.231V755ZM164.73 755.168C165.882 755.168 166.83 754.712 167.562 753.86L166.626 752.756C166.146 753.272 165.546 753.632 164.79 753.632C163.386 753.632 162.474 752.468 162.474 750.536C162.474 748.628 163.482 747.476 164.826 747.476C165.498 747.476 166.014 747.788 166.458 748.22L167.394 747.092C166.818 746.492 165.918 745.952 164.79 745.952C162.546 745.952 160.662 747.668 160.662 750.596C160.662 753.56 162.486 755.168 164.73 755.168ZM168.992 755H170.768V751.16H174.128V755H175.892V746.12H174.128V749.612H170.768V746.12H168.992V755ZM179.742 751.34L180.006 750.368C180.27 749.444 180.534 748.436 180.762 747.464H180.81C181.074 748.424 181.314 749.444 181.59 750.368L181.854 751.34H179.742ZM182.862 755H184.722L181.866 746.12H179.778L176.934 755H178.734L179.358 752.72H182.238L182.862 755ZM185.762 755H187.538V746.12H185.762V755ZM189.723 755H191.403V751.436C191.403 750.416 191.271 749.3 191.187 748.34H191.247L192.147 750.248L194.715 755H196.515V746.12H194.835V749.66C194.835 750.668 194.967 751.844 195.063 752.768H195.003L194.115 750.848L191.535 746.12H189.723V755Z" fill="#808080"/>
<rect x="220" y="701" width="100" height="100" rx="16" fill="#F0F0F0"/>
<path d="M258.309 755H263.889V753.512H260.085V751.136H263.205V749.648H260.085V747.596H263.757V746.12H258.309V755ZM267.468 747.524H268.62C269.76 747.524 270.384 747.848 270.384 748.808C270.384 749.756 269.76 750.236 268.62 750.236H267.468V747.524ZM272.508 755L270.432 751.364C271.452 750.968 272.124 750.14 272.124 748.808C272.124 746.768 270.648 746.12 268.788 746.12H265.692V755H267.468V751.64H268.704L270.528 755H272.508ZM273.871 755H275.647V751.844H276.835C278.743 751.844 280.267 750.932 280.267 748.904C280.267 746.804 278.755 746.12 276.787 746.12H273.871V755ZM275.647 750.44V747.524H276.655C277.879 747.524 278.527 747.872 278.527 748.904C278.527 749.924 277.939 750.44 276.715 750.44H275.647Z" fill="#808080"/>
<rect y="817" width="100" height="125" rx="16" fill="#F0F0F0"/>
<path d="M21.5 884.168C23.672 884.168 24.932 882.956 24.932 880.004V875.12H23.228V880.16C23.228 882.008 22.556 882.632 21.5 882.632C20.456 882.632 19.82 882.008 19.82 880.16V875.12H18.044V880.004C18.044 882.956 19.34 884.168 21.5 884.168ZM26.0039 884H27.8879L28.8359 882.032C29.0519 881.576 29.2559 881.108 29.4839 880.568H29.5319C29.7959 881.108 29.9999 881.576 30.2279 882.032L31.2239 884H33.1919L30.6959 879.5L33.0359 875.12H31.1639L30.3239 876.944C30.1319 877.364 29.9519 877.796 29.7359 878.348H29.6759C29.4119 877.796 29.2199 877.364 29.0159 876.944L28.1279 875.12H26.1599L28.4999 879.416L26.0039 884ZM33.5274 886.184H34.7034L37.6794 874.34H36.5034L33.5274 886.184ZM39.1037 884H41.6357C44.2517 884 45.9317 882.512 45.9317 879.524C45.9317 876.524 44.2517 875.12 41.5397 875.12H39.1037V884ZM40.8797 882.572V876.536H41.4317C43.0877 876.536 44.1197 877.352 44.1197 879.524C44.1197 881.684 43.0877 882.572 41.4317 882.572H40.8797ZM47.6701 884H53.2501V882.512H49.4461V880.136H52.5661V878.648H49.4461V876.596H53.1181V875.12H47.6701V884ZM57.7049 884.168C59.7569 884.168 60.9689 882.932 60.9689 881.48C60.9689 880.196 60.2609 879.512 59.1809 879.068L58.0169 878.576C57.2609 878.276 56.6249 878.048 56.6249 877.412C56.6249 876.824 57.1289 876.476 57.9089 876.476C58.6409 876.476 59.2289 876.74 59.7929 877.208L60.6929 876.092C59.9729 875.36 58.9409 874.952 57.9089 874.952C56.1089 874.952 54.8369 876.068 54.8369 877.52C54.8369 878.816 55.7369 879.536 56.6369 879.908L57.8249 880.412C58.6169 880.748 59.1569 880.952 59.1569 881.612C59.1569 882.236 58.6649 882.632 57.7409 882.632C56.9609 882.632 56.1209 882.236 55.4849 881.648L54.4649 882.872C55.3289 883.7 56.5169 884.168 57.7049 884.168ZM62.5412 884H64.3172V875.12H62.5412V884ZM70.3182 884.168C71.5542 884.168 72.5982 883.688 73.1982 883.1V879.092H70.0422V880.544H71.6142V882.296C71.3622 882.512 70.9302 882.632 70.4982 882.632C68.7582 882.632 67.8702 881.468 67.8702 879.536C67.8702 877.628 68.9022 876.476 70.3782 876.476C71.1822 876.476 71.6862 876.8 72.1182 877.22L73.0662 876.092C72.4902 875.504 71.6022 874.952 70.3182 874.952C67.9542 874.952 66.0582 876.668 66.0582 879.596C66.0582 882.56 67.8942 884.168 70.3182 884.168ZM75.1037 884H76.7837V880.436C76.7837 879.416 76.6517 878.3 76.5677 877.34H76.6277L77.5277 879.248L80.0957 884H81.8957V875.12H80.2157V878.66C80.2157 879.668 80.3477 880.844 80.4437 881.768H80.3837L79.4957 879.848L76.9157 875.12H75.1037V884Z" fill="#808080"/>
<rect x="110" y="817" width="100" height="125" rx="16" fill="#F0F0F0"/>
<path d="M120.576 884H126.156V882.512H122.352V880.148H125.46V878.648H122.352V876.596H126.024V875.12H120.576V884ZM127.959 884H129.639V880.448C129.639 879.416 129.495 878.3 129.411 877.352H129.471L130.371 879.248L132.939 884H134.751V875.12H133.059V878.66C133.059 879.668 133.203 880.856 133.299 881.78H133.239L132.339 879.86L129.759 875.12H127.959V884ZM140.763 884.168C141.987 884.168 143.043 883.7 143.643 883.1V879.104H140.475V880.556H142.059V882.308C141.807 882.512 141.375 882.632 140.943 882.632C139.203 882.632 138.315 881.48 138.315 879.536C138.315 877.64 139.335 876.488 140.823 876.488C141.615 876.488 142.119 876.812 142.563 877.232L143.499 876.092C142.923 875.516 142.035 874.964 140.763 874.964C138.399 874.964 136.503 876.668 136.503 879.596C136.503 882.56 138.351 884.168 140.763 884.168ZM145.549 884H147.325V875.12H145.549V884ZM149.51 884H151.19V880.448C151.19 879.416 151.046 878.3 150.962 877.352H151.022L151.922 879.248L154.49 884H156.302V875.12H154.61V878.66C154.61 879.668 154.754 880.856 154.85 881.78H154.79L153.89 879.86L151.31 875.12H149.51V884ZM158.498 884H164.078V882.512H160.274V880.148H163.382V878.648H160.274V876.596H163.946V875.12H158.498V884ZM165.881 884H171.461V882.512H167.657V880.148H170.765V878.648H167.657V876.596H171.329V875.12H165.881V884ZM173.264 884H175.04V880.652H176.348C178.208 880.652 179.684 879.788 179.684 877.808C179.684 875.768 178.208 875.12 176.348 875.12H173.264V884ZM175.04 879.248V876.536H176.18C177.332 876.536 177.956 876.86 177.956 877.808C177.956 878.756 177.332 879.248 176.18 879.248H175.04ZM178.088 884H180.068L177.26 879.08L176.024 880.196L178.088 884ZM180.508 886.184H181.684L184.672 874.328H183.508L180.508 886.184ZM189.413 884.168C191.765 884.168 193.373 882.416 193.373 879.524C193.373 876.644 191.765 874.964 189.413 874.964C187.049 874.964 185.441 876.632 185.441 879.524C185.441 882.416 187.049 884.168 189.413 884.168ZM189.413 882.716C188.081 882.716 187.253 881.528 187.253 879.524C187.253 877.628 188.081 876.488 189.413 876.488C190.733 876.488 191.573 877.628 191.573 879.524C191.573 881.528 190.733 882.716 189.413 882.716ZM192.281 886.412C192.929 886.412 193.457 886.304 193.781 886.148L193.457 884.84C193.193 884.936 192.869 884.996 192.473 884.996C191.585 884.996 190.673 884.636 190.337 883.772L188.537 883.952C189.101 885.368 190.397 886.412 192.281 886.412ZM193.78 884H195.58L196.852 879.38C197.116 878.456 197.368 877.436 197.608 876.476H197.656C197.908 877.424 198.16 878.456 198.424 879.38L199.696 884H201.556L198.712 875.12H196.624L193.78 884ZM195.544 881.72H199.768V880.352H195.544V881.72Z" fill="#808080"/>
<rect x="220" y="817" width="100" height="125" rx="16" fill="#F0F0F0"/>
<path d="M259.641 875H261.417V871.16H264.777V875H266.541V866.12H264.777V869.624H261.417V866.12H259.641V875ZM268.723 875H270.499V871.652H271.807C273.667 871.652 275.143 870.788 275.143 868.808C275.143 866.768 273.667 866.12 271.807 866.12H268.723V875ZM270.499 870.248V867.536H271.639C272.791 867.536 273.415 867.86 273.415 868.808C273.415 869.756 272.791 870.248 271.639 870.248H270.499ZM273.547 875H275.527L272.719 870.08L271.483 871.196L273.547 875ZM275.967 877.184H277.143L280.131 865.328H278.967L275.967 877.184ZM235.213 893H236.797V889.292C236.797 888.452 236.665 887.216 236.569 886.376H236.617L237.337 888.464L238.705 892.208H239.725L241.093 888.464L241.825 886.376H241.885C241.789 887.216 241.645 888.452 241.645 889.292V893H243.265V884.12H241.297L239.821 888.284C239.641 888.836 239.485 889.412 239.281 889.988H239.233C239.041 889.412 238.885 888.836 238.681 888.284L237.169 884.12H235.213V893ZM244.304 893H246.104L247.376 888.38C247.64 887.456 247.892 886.436 248.132 885.476H248.18C248.432 886.424 248.684 887.456 248.948 888.38L250.22 893H252.08L249.236 884.12H247.148L244.304 893ZM246.068 890.72H250.292V889.352H246.068V890.72ZM253.131 893H254.907V889.652H256.215C258.075 889.652 259.551 888.788 259.551 886.808C259.551 884.768 258.075 884.12 256.215 884.12H253.131V893ZM254.907 888.248V885.536H256.047C257.199 885.536 257.823 885.86 257.823 886.808C257.823 887.756 257.199 888.248 256.047 888.248H254.907ZM257.955 893H259.935L257.127 888.08L255.891 889.196L257.955 893ZM261.311 893H263.087V890.504L264.251 889.016L266.555 893H268.487L265.295 887.612L268.019 884.12H266.063L263.111 887.972H263.087V884.12H261.311V893ZM269.537 893H275.117V891.512H271.313V889.148H274.421V887.648H271.313V885.596H274.985V884.12H269.537V893ZM278.684 893H280.46V885.596H282.968V884.12H276.176V885.596H278.684V893ZM284.42 893H286.196V884.12H284.42V893ZM288.381 893H290.061V889.448C290.061 888.416 289.917 887.3 289.833 886.352H289.893L290.793 888.248L293.361 893H295.173V884.12H293.481V887.66C293.481 888.668 293.625 889.856 293.721 890.78H293.661L292.761 888.86L290.181 884.12H288.381V893ZM301.185 893.168C302.409 893.168 303.465 892.7 304.065 892.1V888.104H300.897V889.556H302.481V891.308C302.229 891.512 301.797 891.632 301.365 891.632C299.625 891.632 298.737 890.48 298.737 888.536C298.737 886.64 299.757 885.488 301.245 885.488C302.037 885.488 302.541 885.812 302.985 886.232L303.921 885.092C303.345 884.516 302.457 883.964 301.185 883.964C298.821 883.964 296.925 885.668 296.925 888.596C296.925 891.56 298.773 893.168 301.185 893.168Z" fill="#808080"/>
</svg>
