<svg width="750" height="570" viewBox="0 0 750 570" fill="none" xmlns="http://www.w3.org/2000/svg">
<path d="M374 135V472.5H376V135H374Z" fill="#F0F0F0"/>
<path d="M630 234V210C630 198.954 621.046 190 610 190H140C128.954 190 120 198.954 120 210V234" stroke="#F0F0F0" stroke-width="2"/>
<path d="M710 472V462C710 450.954 701.046 442 690 442H60C48.9543 442 40 450.954 40 462V472" stroke="#F0F0F0" stroke-width="2"/>
<path d="M625 442V480H627V442H625Z" fill="#F0F0F0"/>
<path d="M541 442V480H543V442H541Z" fill="#F0F0F0"/>
<path d="M457 442V480H459V442H457Z" fill="#F0F0F0"/>
<path d="M288 442V480H290V442H288Z" fill="#F0F0F0"/>
<path d="M205 442V480H207V442H205Z" fill="#F0F0F0"/>
<path d="M122 442V480H124V442H122Z" fill="#F0F0F0"/>
<path d="M289 191V224.5H291V191H289Z" fill="#F0F0F0"/>
<path d="M459 190V226.5H461V190H459Z" fill="#F0F0F0"/>
<rect x="50" y="220" width="140" height="150" rx="20" fill="#1A1A1A"/>
<path d="M109.139 276.238C110.771 276.238 112.114 275.592 113.151 274.385L111.825 272.821C111.145 273.552 110.312 274.062 109.224 274.062C107.235 274.062 105.943 272.413 105.943 269.676C105.943 266.973 107.371 265.341 109.275 265.341C110.227 265.341 110.958 265.783 111.604 266.395L112.913 264.797C112.097 263.947 110.822 263.182 109.224 263.182C106.045 263.182 103.376 265.613 103.376 269.761C103.376 273.96 105.96 276.238 109.139 276.238ZM117.412 276H119.928V265.511H123.498V263.403H113.876V265.511H117.412V276ZM130.004 276.238C133.336 276.238 135.631 273.739 135.631 269.659C135.631 265.579 133.336 263.182 130.004 263.182C126.672 263.182 124.377 265.562 124.377 269.659C124.377 273.739 126.672 276.238 130.004 276.238ZM130.004 274.062C128.134 274.062 126.944 272.345 126.944 269.659C126.944 266.956 128.134 265.341 130.004 265.341C131.874 265.341 133.064 266.956 133.064 269.659C133.064 272.345 131.874 274.062 130.004 274.062Z" fill="white"/>
<path d="M78.3011 302H79.0411V308.36H82.9611V309H78.3011V302ZM89.1398 308.36V309H84.1898V302H88.9898V302.64H84.9298V305.13H88.5498V305.76H84.9298V308.36H89.1398ZM93.8802 309.06C93.1869 309.06 92.5602 308.907 92.0002 308.6C91.4469 308.293 91.0102 307.87 90.6902 307.33C90.3769 306.783 90.2202 306.173 90.2202 305.5C90.2202 304.827 90.3769 304.22 90.6902 303.68C91.0102 303.133 91.4502 302.707 92.0102 302.4C92.5702 302.093 93.1969 301.94 93.8902 301.94C94.4102 301.94 94.8902 302.027 95.3302 302.2C95.7702 302.373 96.1435 302.627 96.4502 302.96L95.9802 303.43C95.4335 302.877 94.7435 302.6 93.9102 302.6C93.3569 302.6 92.8535 302.727 92.4002 302.98C91.9469 303.233 91.5902 303.58 91.3302 304.02C91.0769 304.46 90.9502 304.953 90.9502 305.5C90.9502 306.047 91.0769 306.54 91.3302 306.98C91.5902 307.42 91.9469 307.767 92.4002 308.02C92.8535 308.273 93.3569 308.4 93.9102 308.4C94.7502 308.4 95.4402 308.12 95.9802 307.56L96.4502 308.03C96.1435 308.363 95.7669 308.62 95.3202 308.8C94.8802 308.973 94.4002 309.06 93.8802 309.06ZM98.0277 302H98.7677V308.36H102.688V309H98.0277V302ZM108.866 308.36V309H103.916V302H108.716V302.64H104.656V305.13H108.276V305.76H104.656V308.36H108.866ZM119.043 302L115.943 309H115.213L112.113 302H112.913L115.593 308.08L118.293 302H119.043ZM120.059 302H120.799V309H120.059V302ZM128.027 308.36V309H123.077V302H127.877V302.64H123.817V305.13H127.437V305.76H123.817V308.36H128.027ZM131.126 302.64H128.666V302H134.326V302.64H131.866V309H131.126V302.64ZM141.358 302V309H140.748L136.248 303.32V309H135.508V302H136.118L140.628 307.68V302H141.358ZM148.033 307.13H144.133L143.293 309H142.523L145.723 302H146.453L149.653 309H148.873L148.033 307.13ZM147.763 306.53L146.083 302.77L144.403 306.53H147.763ZM158.081 302V309H157.371V303.4L154.621 308.11H154.271L151.521 303.43V309H150.811V302H151.421L154.461 307.19L157.471 302H158.081ZM75.2591 318H78.1091C78.8491 318 79.5025 318.15 80.0691 318.45C80.6358 318.743 81.0758 319.157 81.3891 319.69C81.7025 320.217 81.8591 320.82 81.8591 321.5C81.8591 322.18 81.7025 322.787 81.3891 323.32C81.0758 323.847 80.6358 324.26 80.0691 324.56C79.5025 324.853 78.8491 325 78.1091 325H75.2591V318ZM78.0691 324.36C78.6825 324.36 79.2191 324.24 79.6791 324C80.1391 323.753 80.4958 323.417 80.7491 322.99C81.0025 322.557 81.1291 322.06 81.1291 321.5C81.1291 320.94 81.0025 320.447 80.7491 320.02C80.4958 319.587 80.1391 319.25 79.6791 319.01C79.2191 318.763 78.6825 318.64 78.0691 318.64H75.9991V324.36H78.0691ZM88.4709 324.36V325H83.5209V318H88.3209V318.64H84.2609V321.13H87.8809V321.76H84.2609V324.36H88.4709ZM95.9327 318L92.8327 325H92.1027L89.0027 318H89.8027L92.4827 324.08L95.1827 318H95.9327ZM101.899 324.36V325H96.9486V318H101.749V318.64H97.6886V321.13H101.309V321.76H97.6886V324.36H101.899ZM103.638 318H104.378V324.36H108.298V325H103.638V318ZM112.45 325.06C111.757 325.06 111.127 324.907 110.56 324.6C110 324.287 109.56 323.86 109.24 323.32C108.927 322.78 108.77 322.173 108.77 321.5C108.77 320.827 108.927 320.22 109.24 319.68C109.56 319.14 110 318.717 110.56 318.41C111.127 318.097 111.757 317.94 112.45 317.94C113.143 317.94 113.767 318.093 114.32 318.4C114.88 318.707 115.32 319.133 115.64 319.68C115.96 320.22 116.12 320.827 116.12 321.5C116.12 322.173 115.96 322.783 115.64 323.33C115.32 323.87 114.88 324.293 114.32 324.6C113.767 324.907 113.143 325.06 112.45 325.06ZM112.45 324.4C113.003 324.4 113.503 324.277 113.95 324.03C114.397 323.777 114.747 323.43 115 322.99C115.253 322.543 115.38 322.047 115.38 321.5C115.38 320.953 115.253 320.46 115 320.02C114.747 319.573 114.397 319.227 113.95 318.98C113.503 318.727 113.003 318.6 112.45 318.6C111.897 318.6 111.393 318.727 110.94 318.98C110.493 319.227 110.14 319.573 109.88 320.02C109.627 320.46 109.5 320.953 109.5 321.5C109.5 322.047 109.627 322.543 109.88 322.99C110.14 323.43 110.493 323.777 110.94 324.03C111.393 324.277 111.897 324.4 112.45 324.4ZM120.399 318C121.292 318 121.992 318.213 122.499 318.64C123.005 319.067 123.259 319.653 123.259 320.4C123.259 321.147 123.005 321.733 122.499 322.16C121.992 322.58 121.292 322.79 120.399 322.79H118.519V325H117.779V318H120.399ZM120.379 322.14C121.072 322.14 121.602 321.99 121.969 321.69C122.335 321.383 122.519 320.953 122.519 320.4C122.519 319.833 122.335 319.4 121.969 319.1C121.602 318.793 121.072 318.64 120.379 318.64H118.519V322.14H120.379ZM132.504 321.5H133.214V324.17C132.887 324.457 132.5 324.677 132.054 324.83C131.607 324.983 131.137 325.06 130.644 325.06C129.944 325.06 129.314 324.907 128.754 324.6C128.194 324.293 127.754 323.87 127.434 323.33C127.114 322.783 126.954 322.173 126.954 321.5C126.954 320.827 127.114 320.22 127.434 319.68C127.754 319.133 128.194 318.707 128.754 318.4C129.314 318.093 129.947 317.94 130.654 317.94C131.187 317.94 131.677 318.027 132.124 318.2C132.57 318.367 132.947 318.617 133.254 318.95L132.794 319.42C132.24 318.873 131.537 318.6 130.684 318.6C130.117 318.6 129.604 318.727 129.144 318.98C128.69 319.227 128.334 319.573 128.074 320.02C127.814 320.46 127.684 320.953 127.684 321.5C127.684 322.047 127.814 322.54 128.074 322.98C128.334 323.42 128.69 323.767 129.144 324.02C129.597 324.273 130.107 324.4 130.674 324.4C131.394 324.4 132.004 324.22 132.504 323.86V321.5ZM140.088 325L138.488 322.75C138.308 322.77 138.121 322.78 137.928 322.78H136.048V325H135.308V318H137.928C138.821 318 139.521 318.213 140.028 318.64C140.535 319.067 140.788 319.653 140.788 320.4C140.788 320.947 140.648 321.41 140.368 321.79C140.095 322.163 139.701 322.433 139.188 322.6L140.898 325H140.088ZM137.908 322.15C138.601 322.15 139.131 321.997 139.498 321.69C139.865 321.383 140.048 320.953 140.048 320.4C140.048 319.833 139.865 319.4 139.498 319.1C139.131 318.793 138.601 318.64 137.908 318.64H136.048V322.15H137.908ZM145.595 325.06C144.901 325.06 144.271 324.907 143.705 324.6C143.145 324.287 142.705 323.86 142.385 323.32C142.071 322.78 141.915 322.173 141.915 321.5C141.915 320.827 142.071 320.22 142.385 319.68C142.705 319.14 143.145 318.717 143.705 318.41C144.271 318.097 144.901 317.94 145.595 317.94C146.288 317.94 146.911 318.093 147.465 318.4C148.025 318.707 148.465 319.133 148.785 319.68C149.105 320.22 149.265 320.827 149.265 321.5C149.265 322.173 149.105 322.783 148.785 323.33C148.465 323.87 148.025 324.293 147.465 324.6C146.911 324.907 146.288 325.06 145.595 325.06ZM145.595 324.4C146.148 324.4 146.648 324.277 147.095 324.03C147.541 323.777 147.891 323.43 148.145 322.99C148.398 322.543 148.525 322.047 148.525 321.5C148.525 320.953 148.398 320.46 148.145 320.02C147.891 319.573 147.541 319.227 147.095 318.98C146.648 318.727 146.148 318.6 145.595 318.6C145.041 318.6 144.538 318.727 144.085 318.98C143.638 319.227 143.285 319.573 143.025 320.02C142.771 320.46 142.645 320.953 142.645 321.5C142.645 322.047 142.771 322.543 143.025 322.99C143.285 323.43 143.638 323.777 144.085 324.03C144.538 324.277 145.041 324.4 145.595 324.4ZM153.743 325.06C152.837 325.06 152.13 324.8 151.623 324.28C151.117 323.76 150.863 323.003 150.863 322.01V318H151.603V321.98C151.603 322.793 151.787 323.4 152.153 323.8C152.52 324.2 153.05 324.4 153.743 324.4C154.443 324.4 154.977 324.2 155.343 323.8C155.71 323.4 155.893 322.793 155.893 321.98V318H156.613V322.01C156.613 323.003 156.36 323.76 155.853 324.28C155.353 324.8 154.65 325.06 153.743 325.06ZM161.463 318C162.356 318 163.056 318.213 163.563 318.64C164.07 319.067 164.323 319.653 164.323 320.4C164.323 321.147 164.07 321.733 163.563 322.16C163.056 322.58 162.356 322.79 161.463 322.79H159.583V325H158.843V318H161.463ZM161.443 322.14C162.136 322.14 162.666 321.99 163.033 321.69C163.4 321.383 163.583 320.953 163.583 320.4C163.583 319.833 163.4 319.4 163.033 319.1C162.666 318.793 162.136 318.64 161.443 318.64H159.583V322.14H161.443Z" fill="white"/>
<rect x="220" y="220" width="140" height="150" rx="20" fill="#1A1A1A"/>
<path d="M277.884 276.238C279.516 276.238 280.859 275.592 281.896 274.385L280.57 272.821C279.89 273.552 279.057 274.062 277.969 274.062C275.98 274.062 274.688 272.413 274.688 269.676C274.688 266.973 276.116 265.341 278.02 265.341C278.972 265.341 279.703 265.783 280.349 266.395L281.658 264.797C280.842 263.947 279.567 263.182 277.969 263.182C274.79 263.182 272.121 265.613 272.121 269.761C272.121 273.96 274.705 276.238 277.884 276.238ZM283.923 276H286.439V271.529H288.122C290.825 271.529 292.984 270.237 292.984 267.364C292.984 264.389 290.842 263.403 288.054 263.403H283.923V276ZM286.439 269.54V265.409H287.867C289.601 265.409 290.519 265.902 290.519 267.364C290.519 268.809 289.686 269.54 287.952 269.54H286.439ZM300.26 276.238C303.592 276.238 305.887 273.739 305.887 269.659C305.887 265.579 303.592 263.182 300.26 263.182C296.928 263.182 294.633 265.562 294.633 269.659C294.633 273.739 296.928 276.238 300.26 276.238ZM300.26 274.062C298.39 274.062 297.2 272.345 297.2 269.659C297.2 266.956 298.39 265.341 300.26 265.341C302.13 265.341 303.32 266.956 303.32 269.659C303.32 272.345 302.13 274.062 300.26 274.062Z" fill="white"/>
<path d="M266.092 302C266.985 302 267.685 302.213 268.192 302.64C268.699 303.067 268.952 303.653 268.952 304.4C268.952 305.147 268.699 305.733 268.192 306.16C267.685 306.58 266.985 306.79 266.092 306.79H264.212V309H263.472V302H266.092ZM266.072 306.14C266.765 306.14 267.295 305.99 267.662 305.69C268.029 305.383 268.212 304.953 268.212 304.4C268.212 303.833 268.029 303.4 267.662 303.1C267.295 302.793 266.765 302.64 266.072 302.64H264.212V306.14H266.072ZM275.332 309L273.732 306.75C273.552 306.77 273.365 306.78 273.172 306.78H271.292V309H270.552V302H273.172C274.065 302 274.765 302.213 275.272 302.64C275.779 303.067 276.032 303.653 276.032 304.4C276.032 304.947 275.892 305.41 275.612 305.79C275.339 306.163 274.945 306.433 274.432 306.6L276.142 309H275.332ZM273.152 306.15C273.845 306.15 274.375 305.997 274.742 305.69C275.109 305.383 275.292 304.953 275.292 304.4C275.292 303.833 275.109 303.4 274.742 303.1C274.375 302.793 273.845 302.64 273.152 302.64H271.292V306.15H273.152ZM280.839 309.06C280.145 309.06 279.515 308.907 278.949 308.6C278.389 308.287 277.949 307.86 277.629 307.32C277.315 306.78 277.159 306.173 277.159 305.5C277.159 304.827 277.315 304.22 277.629 303.68C277.949 303.14 278.389 302.717 278.949 302.41C279.515 302.097 280.145 301.94 280.839 301.94C281.532 301.94 282.155 302.093 282.709 302.4C283.269 302.707 283.709 303.133 284.029 303.68C284.349 304.22 284.509 304.827 284.509 305.5C284.509 306.173 284.349 306.783 284.029 307.33C283.709 307.87 283.269 308.293 282.709 308.6C282.155 308.907 281.532 309.06 280.839 309.06ZM280.839 308.4C281.392 308.4 281.892 308.277 282.339 308.03C282.785 307.777 283.135 307.43 283.389 306.99C283.642 306.543 283.769 306.047 283.769 305.5C283.769 304.953 283.642 304.46 283.389 304.02C283.135 303.573 282.785 303.227 282.339 302.98C281.892 302.727 281.392 302.6 280.839 302.6C280.285 302.6 279.782 302.727 279.329 302.98C278.882 303.227 278.529 303.573 278.269 304.02C278.015 304.46 277.889 304.953 277.889 305.5C277.889 306.047 278.015 306.543 278.269 306.99C278.529 307.43 278.882 307.777 279.329 308.03C279.782 308.277 280.285 308.4 280.839 308.4ZM286.167 302H289.017C289.757 302 290.411 302.15 290.977 302.45C291.544 302.743 291.984 303.157 292.297 303.69C292.611 304.217 292.767 304.82 292.767 305.5C292.767 306.18 292.611 306.787 292.297 307.32C291.984 307.847 291.544 308.26 290.977 308.56C290.411 308.853 289.757 309 289.017 309H286.167V302ZM288.977 308.36C289.591 308.36 290.127 308.24 290.587 308C291.047 307.753 291.404 307.417 291.657 306.99C291.911 306.557 292.037 306.06 292.037 305.5C292.037 304.94 291.911 304.447 291.657 304.02C291.404 303.587 291.047 303.25 290.587 303.01C290.127 302.763 289.591 302.64 288.977 302.64H286.907V308.36H288.977ZM297.249 309.06C296.342 309.06 295.636 308.8 295.129 308.28C294.622 307.76 294.369 307.003 294.369 306.01V302H295.109V305.98C295.109 306.793 295.292 307.4 295.659 307.8C296.026 308.2 296.556 308.4 297.249 308.4C297.949 308.4 298.482 308.2 298.849 307.8C299.216 307.4 299.399 306.793 299.399 305.98V302H300.119V306.01C300.119 307.003 299.866 307.76 299.359 308.28C298.859 308.8 298.156 309.06 297.249 309.06ZM305.389 309.06C304.696 309.06 304.069 308.907 303.509 308.6C302.956 308.293 302.519 307.87 302.199 307.33C301.886 306.783 301.729 306.173 301.729 305.5C301.729 304.827 301.886 304.22 302.199 303.68C302.519 303.133 302.959 302.707 303.519 302.4C304.079 302.093 304.706 301.94 305.399 301.94C305.919 301.94 306.399 302.027 306.839 302.2C307.279 302.373 307.652 302.627 307.959 302.96L307.489 303.43C306.942 302.877 306.252 302.6 305.419 302.6C304.866 302.6 304.362 302.727 303.909 302.98C303.456 303.233 303.099 303.58 302.839 304.02C302.586 304.46 302.459 304.953 302.459 305.5C302.459 306.047 302.586 306.54 302.839 306.98C303.099 307.42 303.456 307.767 303.909 308.02C304.362 308.273 304.866 308.4 305.419 308.4C306.259 308.4 306.949 308.12 307.489 307.56L307.959 308.03C307.652 308.363 307.276 308.62 306.829 308.8C306.389 308.973 305.909 309.06 305.389 309.06ZM310.809 302.64H308.349V302H314.009V302.64H311.549V309H310.809V302.64ZM252.572 325.06C251.879 325.06 251.249 324.907 250.682 324.6C250.122 324.287 249.682 323.86 249.362 323.32C249.049 322.78 248.892 322.173 248.892 321.5C248.892 320.827 249.049 320.22 249.362 319.68C249.682 319.14 250.122 318.717 250.682 318.41C251.249 318.097 251.879 317.94 252.572 317.94C253.265 317.94 253.889 318.093 254.442 318.4C255.002 318.707 255.442 319.133 255.762 319.68C256.082 320.22 256.242 320.827 256.242 321.5C256.242 322.173 256.082 322.783 255.762 323.33C255.442 323.87 255.002 324.293 254.442 324.6C253.889 324.907 253.265 325.06 252.572 325.06ZM252.572 324.4C253.125 324.4 253.625 324.277 254.072 324.03C254.519 323.777 254.869 323.43 255.122 322.99C255.375 322.543 255.502 322.047 255.502 321.5C255.502 320.953 255.375 320.46 255.122 320.02C254.869 319.573 254.519 319.227 254.072 318.98C253.625 318.727 253.125 318.6 252.572 318.6C252.019 318.6 251.515 318.727 251.062 318.98C250.615 319.227 250.262 319.573 250.002 320.02C249.749 320.46 249.622 320.953 249.622 321.5C249.622 322.047 249.749 322.543 250.002 322.99C250.262 323.43 250.615 323.777 251.062 324.03C251.515 324.277 252.019 324.4 252.572 324.4ZM267.296 318L264.936 325H264.156L262.106 319.03L260.046 325H259.276L256.916 318H257.676L259.696 324.02L261.786 318H262.476L264.536 324.05L266.586 318H267.296ZM274.503 318V325H273.893L269.393 319.32V325H268.653V318H269.263L273.773 323.68V318H274.503ZM281.737 324.36V325H276.787V318H281.587V318.64H277.527V321.13H281.147V321.76H277.527V324.36H281.737ZM288.257 325L286.657 322.75C286.477 322.77 286.29 322.78 286.097 322.78H284.217V325H283.477V318H286.097C286.99 318 287.69 318.213 288.197 318.64C288.704 319.067 288.957 319.653 288.957 320.4C288.957 320.947 288.817 321.41 288.537 321.79C288.264 322.163 287.87 322.433 287.357 322.6L289.067 325H288.257ZM286.077 322.15C286.77 322.15 287.3 321.997 287.667 321.69C288.034 321.383 288.217 320.953 288.217 320.4C288.217 319.833 288.034 319.4 287.667 319.1C287.3 318.793 286.77 318.64 286.077 318.64H284.217V322.15H286.077ZM298.251 321.5H298.961V324.17C298.634 324.457 298.247 324.677 297.801 324.83C297.354 324.983 296.884 325.06 296.391 325.06C295.691 325.06 295.061 324.907 294.501 324.6C293.941 324.293 293.501 323.87 293.181 323.33C292.861 322.783 292.701 322.173 292.701 321.5C292.701 320.827 292.861 320.22 293.181 319.68C293.501 319.133 293.941 318.707 294.501 318.4C295.061 318.093 295.694 317.94 296.401 317.94C296.934 317.94 297.424 318.027 297.871 318.2C298.317 318.367 298.694 318.617 299.001 318.95L298.541 319.42C297.987 318.873 297.284 318.6 296.431 318.6C295.864 318.6 295.351 318.727 294.891 318.98C294.437 319.227 294.081 319.573 293.821 320.02C293.561 320.46 293.431 320.953 293.431 321.5C293.431 322.047 293.561 322.54 293.821 322.98C294.081 323.42 294.437 323.767 294.891 324.02C295.344 324.273 295.854 324.4 296.421 324.4C297.141 324.4 297.751 324.22 298.251 323.86V321.5ZM305.835 325L304.235 322.75C304.055 322.77 303.868 322.78 303.675 322.78H301.795V325H301.055V318H303.675C304.568 318 305.268 318.213 305.775 318.64C306.282 319.067 306.535 319.653 306.535 320.4C306.535 320.947 306.395 321.41 306.115 321.79C305.842 322.163 305.448 322.433 304.935 322.6L306.645 325H305.835ZM303.655 322.15C304.348 322.15 304.878 321.997 305.245 321.69C305.612 321.383 305.795 320.953 305.795 320.4C305.795 319.833 305.612 319.4 305.245 319.1C304.878 318.793 304.348 318.64 303.655 318.64H301.795V322.15H303.655ZM311.342 325.06C310.648 325.06 310.018 324.907 309.452 324.6C308.892 324.287 308.452 323.86 308.132 323.32C307.818 322.78 307.662 322.173 307.662 321.5C307.662 320.827 307.818 320.22 308.132 319.68C308.452 319.14 308.892 318.717 309.452 318.41C310.018 318.097 310.648 317.94 311.342 317.94C312.035 317.94 312.658 318.093 313.212 318.4C313.772 318.707 314.212 319.133 314.532 319.68C314.852 320.22 315.012 320.827 315.012 321.5C315.012 322.173 314.852 322.783 314.532 323.33C314.212 323.87 313.772 324.293 313.212 324.6C312.658 324.907 312.035 325.06 311.342 325.06ZM311.342 324.4C311.895 324.4 312.395 324.277 312.842 324.03C313.288 323.777 313.638 323.43 313.892 322.99C314.145 322.543 314.272 322.047 314.272 321.5C314.272 320.953 314.145 320.46 313.892 320.02C313.638 319.573 313.288 319.227 312.842 318.98C312.395 318.727 311.895 318.6 311.342 318.6C310.788 318.6 310.285 318.727 309.832 318.98C309.385 319.227 309.032 319.573 308.772 320.02C308.518 320.46 308.392 320.953 308.392 321.5C308.392 322.047 308.518 322.543 308.772 322.99C309.032 323.43 309.385 323.777 309.832 324.03C310.285 324.277 310.788 324.4 311.342 324.4ZM319.49 325.06C318.584 325.06 317.877 324.8 317.37 324.28C316.864 323.76 316.61 323.003 316.61 322.01V318H317.35V321.98C317.35 322.793 317.534 323.4 317.9 323.8C318.267 324.2 318.797 324.4 319.49 324.4C320.19 324.4 320.724 324.2 321.09 323.8C321.457 323.4 321.64 322.793 321.64 321.98V318H322.36V322.01C322.36 323.003 322.107 323.76 321.6 324.28C321.1 324.8 320.397 325.06 319.49 325.06ZM327.21 318C328.104 318 328.804 318.213 329.31 318.64C329.817 319.067 330.07 319.653 330.07 320.4C330.07 321.147 329.817 321.733 329.31 322.16C328.804 322.58 328.104 322.79 327.21 322.79H325.33V325H324.59V318H327.21ZM327.19 322.14C327.884 322.14 328.414 321.99 328.78 321.69C329.147 321.383 329.33 320.953 329.33 320.4C329.33 319.833 329.147 319.4 328.78 319.1C328.414 318.793 327.884 318.64 327.19 318.64H325.33V322.14H327.19Z" fill="white"/>
<rect x="390" y="220" width="140" height="150" rx="20" fill="#1A1A1A"/>
<path d="M449.015 276.238C450.647 276.238 451.99 275.592 453.027 274.385L451.701 272.821C451.021 273.552 450.188 274.062 449.1 274.062C447.111 274.062 445.819 272.413 445.819 269.676C445.819 266.973 447.247 265.341 449.151 265.341C450.103 265.341 450.834 265.783 451.48 266.395L452.789 264.797C451.973 263.947 450.698 263.182 449.1 263.182C445.921 263.182 443.252 265.613 443.252 269.761C443.252 273.96 445.836 276.238 449.015 276.238ZM458.28 276.238C461.187 276.238 462.904 274.487 462.904 272.43C462.904 270.611 461.901 269.642 460.371 269.013L458.722 268.316C457.651 267.891 456.767 267.568 456.767 266.667C456.767 265.834 457.464 265.341 458.569 265.341C459.606 265.341 460.439 265.715 461.238 266.378L462.513 264.797C461.493 263.76 460.031 263.182 458.569 263.182C456.019 263.182 454.217 264.763 454.217 266.82C454.217 268.656 455.492 269.676 456.767 270.203L458.45 270.917C459.572 271.393 460.337 271.682 460.337 272.617C460.337 273.501 459.64 274.062 458.331 274.062C457.226 274.062 456.036 273.501 455.135 272.668L453.69 274.402C454.914 275.575 456.597 276.238 458.28 276.238ZM470.129 276.238C473.461 276.238 475.756 273.739 475.756 269.659C475.756 265.579 473.461 263.182 470.129 263.182C466.797 263.182 464.502 265.562 464.502 269.659C464.502 273.739 466.797 276.238 470.129 276.238ZM470.129 274.062C468.259 274.062 467.069 272.345 467.069 269.659C467.069 266.956 468.259 265.341 470.129 265.341C471.999 265.341 473.189 266.956 473.189 269.659C473.189 272.345 471.999 274.062 470.129 274.062Z" fill="white"/>
<path d="M435.104 309.06C434.584 309.06 434.084 308.977 433.604 308.81C433.131 308.643 432.764 308.423 432.504 308.15L432.794 307.58C433.048 307.833 433.384 308.04 433.804 308.2C434.224 308.353 434.658 308.43 435.104 308.43C435.731 308.43 436.201 308.317 436.514 308.09C436.828 307.857 436.984 307.557 436.984 307.19C436.984 306.91 436.898 306.687 436.724 306.52C436.558 306.353 436.351 306.227 436.104 306.14C435.858 306.047 435.514 305.947 435.074 305.84C434.548 305.707 434.128 305.58 433.814 305.46C433.501 305.333 433.231 305.143 433.004 304.89C432.784 304.637 432.674 304.293 432.674 303.86C432.674 303.507 432.768 303.187 432.954 302.9C433.141 302.607 433.428 302.373 433.814 302.2C434.201 302.027 434.681 301.94 435.254 301.94C435.654 301.94 436.044 301.997 436.424 302.11C436.811 302.217 437.144 302.367 437.424 302.56L437.174 303.15C436.881 302.957 436.568 302.813 436.234 302.72C435.901 302.62 435.574 302.57 435.254 302.57C434.641 302.57 434.178 302.69 433.864 302.93C433.558 303.163 433.404 303.467 433.404 303.84C433.404 304.12 433.488 304.347 433.654 304.52C433.828 304.687 434.041 304.817 434.294 304.91C434.554 304.997 434.901 305.093 435.334 305.2C435.848 305.327 436.261 305.453 436.574 305.58C436.894 305.7 437.164 305.887 437.384 306.14C437.604 306.387 437.714 306.723 437.714 307.15C437.714 307.503 437.618 307.827 437.424 308.12C437.238 308.407 436.948 308.637 436.554 308.81C436.161 308.977 435.678 309.06 435.104 309.06ZM440.589 302.64H438.129V302H443.789V302.64H441.329V309H440.589V302.64ZM449.751 309L448.151 306.75C447.971 306.77 447.784 306.78 447.591 306.78H445.711V309H444.971V302H447.591C448.484 302 449.184 302.213 449.691 302.64C450.198 303.067 450.451 303.653 450.451 304.4C450.451 304.947 450.311 305.41 450.031 305.79C449.758 306.163 449.364 306.433 448.851 306.6L450.561 309H449.751ZM447.571 306.15C448.264 306.15 448.794 305.997 449.161 305.69C449.528 305.383 449.711 304.953 449.711 304.4C449.711 303.833 449.528 303.4 449.161 303.1C448.794 302.793 448.264 302.64 447.571 302.64H445.711V306.15H447.571ZM456.588 307.13H452.688L451.848 309H451.078L454.278 302H455.008L458.208 309H457.428L456.588 307.13ZM456.318 306.53L454.638 302.77L452.958 306.53H456.318ZM460.374 302.64H457.914V302H463.574V302.64H461.114V309H460.374V302.64ZM469.706 308.36V309H464.756V302H469.556V302.64H465.496V305.13H469.116V305.76H465.496V308.36H469.706ZM476.337 305.5H477.047V308.17C476.72 308.457 476.333 308.677 475.887 308.83C475.44 308.983 474.97 309.06 474.477 309.06C473.777 309.06 473.147 308.907 472.587 308.6C472.027 308.293 471.587 307.87 471.267 307.33C470.947 306.783 470.787 306.173 470.787 305.5C470.787 304.827 470.947 304.22 471.267 303.68C471.587 303.133 472.027 302.707 472.587 302.4C473.147 302.093 473.78 301.94 474.487 301.94C475.02 301.94 475.51 302.027 475.957 302.2C476.403 302.367 476.78 302.617 477.087 302.95L476.627 303.42C476.073 302.873 475.37 302.6 474.517 302.6C473.95 302.6 473.437 302.727 472.977 302.98C472.523 303.227 472.167 303.573 471.907 304.02C471.647 304.46 471.517 304.953 471.517 305.5C471.517 306.047 471.647 306.54 471.907 306.98C472.167 307.42 472.523 307.767 472.977 308.02C473.43 308.273 473.94 308.4 474.507 308.4C475.227 308.4 475.837 308.22 476.337 307.86V305.5ZM481.541 306.58V309H480.811V306.58L478.011 302H478.801L481.201 305.93L483.601 302H484.341L481.541 306.58ZM415.072 318C415.965 318 416.665 318.213 417.172 318.64C417.678 319.067 417.932 319.653 417.932 320.4C417.932 321.147 417.678 321.733 417.172 322.16C416.665 322.58 415.965 322.79 415.072 322.79H413.192V325H412.452V318H415.072ZM415.052 322.14C415.745 322.14 416.275 321.99 416.642 321.69C417.008 321.383 417.192 320.953 417.192 320.4C417.192 319.833 417.008 319.4 416.642 319.1C416.275 318.793 415.745 318.64 415.052 318.64H413.192V322.14H415.052ZM419.532 318H420.272V324.36H424.192V325H419.532V318ZM429.83 323.13H425.93L425.09 325H424.32L427.52 318H428.25L431.45 325H430.67L429.83 323.13ZM429.56 322.53L427.88 318.77L426.2 322.53H429.56ZM438.458 318V325H437.848L433.348 319.32V325H432.608V318H433.218L437.728 323.68V318H438.458ZM446.593 318V325H445.983L441.483 319.32V325H440.743V318H441.353L445.863 323.68V318H446.593ZM448.877 318H449.617V325H448.877V318ZM457.745 318V325H457.135L452.635 319.32V325H451.895V318H452.505L457.015 323.68V318H457.745ZM464.96 321.5H465.67V324.17C465.343 324.457 464.956 324.677 464.51 324.83C464.063 324.983 463.593 325.06 463.1 325.06C462.4 325.06 461.77 324.907 461.21 324.6C460.65 324.293 460.21 323.87 459.89 323.33C459.57 322.783 459.41 322.173 459.41 321.5C459.41 320.827 459.57 320.22 459.89 319.68C460.21 319.133 460.65 318.707 461.21 318.4C461.77 318.093 462.403 317.94 463.11 317.94C463.643 317.94 464.133 318.027 464.58 318.2C465.026 318.367 465.403 318.617 465.71 318.95L465.25 319.42C464.696 318.873 463.993 318.6 463.14 318.6C462.573 318.6 462.06 318.727 461.6 318.98C461.146 319.227 460.79 319.573 460.53 320.02C460.27 320.46 460.14 320.953 460.14 321.5C460.14 322.047 460.27 322.54 460.53 322.98C460.79 323.42 461.146 323.767 461.6 324.02C462.053 324.273 462.563 324.4 463.13 324.4C463.85 324.4 464.46 324.22 464.96 323.86V321.5ZM475.311 321.5H476.021V324.17C475.695 324.457 475.308 324.677 474.861 324.83C474.415 324.983 473.945 325.06 473.451 325.06C472.751 325.06 472.121 324.907 471.561 324.6C471.001 324.293 470.561 323.87 470.241 323.33C469.921 322.783 469.761 322.173 469.761 321.5C469.761 320.827 469.921 320.22 470.241 319.68C470.561 319.133 471.001 318.707 471.561 318.4C472.121 318.093 472.755 317.94 473.461 317.94C473.995 317.94 474.485 318.027 474.931 318.2C475.378 318.367 475.755 318.617 476.061 318.95L475.601 319.42C475.048 318.873 474.345 318.6 473.491 318.6C472.925 318.6 472.411 318.727 471.951 318.98C471.498 319.227 471.141 319.573 470.881 320.02C470.621 320.46 470.491 320.953 470.491 321.5C470.491 322.047 470.621 322.54 470.881 322.98C471.141 323.42 471.498 323.767 471.951 324.02C472.405 324.273 472.915 324.4 473.481 324.4C474.201 324.4 474.811 324.22 475.311 323.86V321.5ZM482.896 325L481.296 322.75C481.116 322.77 480.929 322.78 480.736 322.78H478.856V325H478.116V318H480.736C481.629 318 482.329 318.213 482.836 318.64C483.342 319.067 483.596 319.653 483.596 320.4C483.596 320.947 483.456 321.41 483.176 321.79C482.902 322.163 482.509 322.433 481.996 322.6L483.706 325H482.896ZM480.716 322.15C481.409 322.15 481.939 321.997 482.306 321.69C482.672 321.383 482.856 320.953 482.856 320.4C482.856 319.833 482.672 319.4 482.306 319.1C481.939 318.793 481.409 318.64 480.716 318.64H478.856V322.15H480.716ZM488.402 325.06C487.709 325.06 487.079 324.907 486.512 324.6C485.952 324.287 485.512 323.86 485.192 323.32C484.879 322.78 484.722 322.173 484.722 321.5C484.722 320.827 484.879 320.22 485.192 319.68C485.512 319.14 485.952 318.717 486.512 318.41C487.079 318.097 487.709 317.94 488.402 317.94C489.095 317.94 489.719 318.093 490.272 318.4C490.832 318.707 491.272 319.133 491.592 319.68C491.912 320.22 492.072 320.827 492.072 321.5C492.072 322.173 491.912 322.783 491.592 323.33C491.272 323.87 490.832 324.293 490.272 324.6C489.719 324.907 489.095 325.06 488.402 325.06ZM488.402 324.4C488.955 324.4 489.455 324.277 489.902 324.03C490.349 323.777 490.699 323.43 490.952 322.99C491.205 322.543 491.332 322.047 491.332 321.5C491.332 320.953 491.205 320.46 490.952 320.02C490.699 319.573 490.349 319.227 489.902 318.98C489.455 318.727 488.955 318.6 488.402 318.6C487.849 318.6 487.345 318.727 486.892 318.98C486.445 319.227 486.092 319.573 485.832 320.02C485.579 320.46 485.452 320.953 485.452 321.5C485.452 322.047 485.579 322.543 485.832 322.99C486.092 323.43 486.445 323.777 486.892 324.03C487.345 324.277 487.849 324.4 488.402 324.4ZM496.551 325.06C495.644 325.06 494.937 324.8 494.431 324.28C493.924 323.76 493.671 323.003 493.671 322.01V318H494.411V321.98C494.411 322.793 494.594 323.4 494.961 323.8C495.327 324.2 495.857 324.4 496.551 324.4C497.251 324.4 497.784 324.2 498.151 323.8C498.517 323.4 498.701 322.793 498.701 321.98V318H499.421V322.01C499.421 323.003 499.167 323.76 498.661 324.28C498.161 324.8 497.457 325.06 496.551 325.06ZM504.271 318C505.164 318 505.864 318.213 506.371 318.64C506.877 319.067 507.131 319.653 507.131 320.4C507.131 321.147 506.877 321.733 506.371 322.16C505.864 322.58 505.164 322.79 504.271 322.79H502.391V325H501.651V318H504.271ZM504.251 322.14C504.944 322.14 505.474 321.99 505.841 321.69C506.207 321.383 506.391 320.953 506.391 320.4C506.391 319.833 506.207 319.4 505.841 319.1C505.474 318.793 504.944 318.64 504.251 318.64H502.391V322.14H504.251Z" fill="white"/>
<rect x="560" y="220" width="140" height="150" rx="20" fill="#1A1A1A"/>
<path d="M619.681 276.238C621.313 276.238 622.656 275.592 623.693 274.385L622.367 272.821C621.687 273.552 620.854 274.062 619.766 274.062C617.777 274.062 616.485 272.413 616.485 269.676C616.485 266.973 617.913 265.341 619.817 265.341C620.769 265.341 621.5 265.783 622.146 266.395L623.455 264.797C622.639 263.947 621.364 263.182 619.766 263.182C616.587 263.182 613.918 265.613 613.918 269.761C613.918 273.96 616.502 276.238 619.681 276.238ZM625.72 276H628.236V270.9H632.707V268.792H628.236V265.511H633.472V263.403H625.72V276ZM640.463 276.238C643.795 276.238 646.09 273.739 646.09 269.659C646.09 265.579 643.795 263.182 640.463 263.182C637.131 263.182 634.836 265.562 634.836 269.659C634.836 273.739 637.131 276.238 640.463 276.238ZM640.463 274.062C638.593 274.062 637.403 272.345 637.403 269.659C637.403 266.956 638.593 265.341 640.463 265.341C642.333 265.341 643.523 266.956 643.523 269.659C643.523 272.345 642.333 274.062 640.463 274.062Z" fill="white"/>
<path d="M598.869 303V310H598.159V304.4L595.409 309.11H595.059L592.309 304.43V310H591.599V303H592.209L595.249 308.19L598.259 303H598.869ZM605.54 308.13H601.64L600.8 310H600.03L603.23 303H603.96L607.16 310H606.38L605.54 308.13ZM605.27 307.53L603.59 303.77L601.91 307.53H605.27ZM614.168 303V310H613.558L609.058 304.32V310H608.318V303H608.928L613.438 308.68V303H614.168ZM620.843 308.13H616.943L616.103 310H615.333L618.533 303H619.263L622.463 310H621.683L620.843 308.13ZM620.573 307.53L618.893 303.77L617.213 307.53H620.573ZM628.453 306.5H629.163V309.17C628.836 309.457 628.449 309.677 628.003 309.83C627.556 309.983 627.086 310.06 626.593 310.06C625.893 310.06 625.263 309.907 624.703 309.6C624.143 309.293 623.703 308.87 623.383 308.33C623.063 307.783 622.903 307.173 622.903 306.5C622.903 305.827 623.063 305.22 623.383 304.68C623.703 304.133 624.143 303.707 624.703 303.4C625.263 303.093 625.896 302.94 626.603 302.94C627.136 302.94 627.626 303.027 628.073 303.2C628.519 303.367 628.896 303.617 629.203 303.95L628.743 304.42C628.189 303.873 627.486 303.6 626.633 303.6C626.066 303.6 625.553 303.727 625.093 303.98C624.639 304.227 624.283 304.573 624.023 305.02C623.763 305.46 623.633 305.953 623.633 306.5C623.633 307.047 623.763 307.54 624.023 307.98C624.283 308.42 624.639 308.767 625.093 309.02C625.546 309.273 626.056 309.4 626.623 309.4C627.343 309.4 627.953 309.22 628.453 308.86V306.5ZM636.207 309.36V310H631.257V303H636.057V303.64H631.997V306.13H635.617V306.76H631.997V309.36H636.207ZM645.217 303V310H644.507V304.4L641.757 309.11H641.407L638.657 304.43V310H637.947V303H638.557L641.597 308.19L644.607 303H645.217ZM652.447 309.36V310H647.497V303H652.297V303.64H648.237V306.13H651.857V306.76H648.237V309.36H652.447ZM660.037 303V310H659.427L654.927 304.32V310H654.187V303H654.797L659.307 308.68V303H660.037ZM663.682 303.64H661.222V303H666.882V303.64H664.422V310H663.682V303.64ZM616.846 322.5H617.556V325.17C617.23 325.457 616.843 325.677 616.396 325.83C615.95 325.983 615.48 326.06 614.986 326.06C614.286 326.06 613.656 325.907 613.096 325.6C612.536 325.293 612.096 324.87 611.776 324.33C611.456 323.783 611.296 323.173 611.296 322.5C611.296 321.827 611.456 321.22 611.776 320.68C612.096 320.133 612.536 319.707 613.096 319.4C613.656 319.093 614.29 318.94 614.996 318.94C615.53 318.94 616.02 319.027 616.466 319.2C616.913 319.367 617.29 319.617 617.596 319.95L617.136 320.42C616.583 319.873 615.88 319.6 615.026 319.6C614.46 319.6 613.946 319.727 613.486 319.98C613.033 320.227 612.676 320.573 612.416 321.02C612.156 321.46 612.026 321.953 612.026 322.5C612.026 323.047 612.156 323.54 612.416 323.98C612.676 324.42 613.033 324.767 613.486 325.02C613.94 325.273 614.45 325.4 615.016 325.4C615.736 325.4 616.346 325.22 616.846 324.86V322.5ZM624.431 326L622.831 323.75C622.651 323.77 622.464 323.78 622.271 323.78H620.391V326H619.651V319H622.271C623.164 319 623.864 319.213 624.371 319.64C624.877 320.067 625.131 320.653 625.131 321.4C625.131 321.947 624.991 322.41 624.711 322.79C624.437 323.163 624.044 323.433 623.531 323.6L625.241 326H624.431ZM622.251 323.15C622.944 323.15 623.474 322.997 623.841 322.69C624.207 322.383 624.391 321.953 624.391 321.4C624.391 320.833 624.207 320.4 623.841 320.1C623.474 319.793 622.944 319.64 622.251 319.64H620.391V323.15H622.251ZM629.937 326.06C629.244 326.06 628.614 325.907 628.047 325.6C627.487 325.287 627.047 324.86 626.727 324.32C626.414 323.78 626.257 323.173 626.257 322.5C626.257 321.827 626.414 321.22 626.727 320.68C627.047 320.14 627.487 319.717 628.047 319.41C628.614 319.097 629.244 318.94 629.937 318.94C630.631 318.94 631.254 319.093 631.807 319.4C632.367 319.707 632.807 320.133 633.127 320.68C633.447 321.22 633.607 321.827 633.607 322.5C633.607 323.173 633.447 323.783 633.127 324.33C632.807 324.87 632.367 325.293 631.807 325.6C631.254 325.907 630.631 326.06 629.937 326.06ZM629.937 325.4C630.491 325.4 630.991 325.277 631.437 325.03C631.884 324.777 632.234 324.43 632.487 323.99C632.741 323.543 632.867 323.047 632.867 322.5C632.867 321.953 632.741 321.46 632.487 321.02C632.234 320.573 631.884 320.227 631.437 319.98C630.991 319.727 630.491 319.6 629.937 319.6C629.384 319.6 628.881 319.727 628.427 319.98C627.981 320.227 627.627 320.573 627.367 321.02C627.114 321.46 626.987 321.953 626.987 322.5C626.987 323.047 627.114 323.543 627.367 323.99C627.627 324.43 627.981 324.777 628.427 325.03C628.881 325.277 629.384 325.4 629.937 325.4ZM638.086 326.06C637.179 326.06 636.473 325.8 635.966 325.28C635.459 324.76 635.206 324.003 635.206 323.01V319H635.946V322.98C635.946 323.793 636.129 324.4 636.496 324.8C636.863 325.2 637.393 325.4 638.086 325.4C638.786 325.4 639.319 325.2 639.686 324.8C640.053 324.4 640.236 323.793 640.236 322.98V319H640.956V323.01C640.956 324.003 640.703 324.76 640.196 325.28C639.696 325.8 638.993 326.06 638.086 326.06ZM645.806 319C646.699 319 647.399 319.213 647.906 319.64C648.413 320.067 648.666 320.653 648.666 321.4C648.666 322.147 648.413 322.733 647.906 323.16C647.399 323.58 646.699 323.79 645.806 323.79H643.926V326H643.186V319H645.806ZM645.786 323.14C646.479 323.14 647.009 322.99 647.376 322.69C647.743 322.383 647.926 321.953 647.926 321.4C647.926 320.833 647.743 320.4 647.376 320.1C647.009 319.793 646.479 319.64 645.786 319.64H643.926V323.14H645.786Z" fill="white"/>
<circle cx="375" cy="70" r="70" fill="#0000F4"/>
<path d="M360.684 62.308C362.796 62.308 364.534 61.472 365.876 59.91L364.16 57.886C363.28 58.832 362.202 59.492 360.794 59.492C358.22 59.492 356.548 57.358 356.548 53.816C356.548 50.318 358.396 48.206 360.86 48.206C362.092 48.206 363.038 48.778 363.874 49.57L365.568 47.502C364.512 46.402 362.862 45.412 360.794 45.412C356.68 45.412 353.226 48.558 353.226 53.926C353.226 59.36 356.57 62.308 360.684 62.308ZM368.499 62H378.729V59.272H371.755V54.916H377.475V52.188H371.755V48.426H378.487V45.698H368.499V62ZM388.502 62.308C392.814 62.308 395.784 59.074 395.784 53.794C395.784 48.514 392.814 45.412 388.502 45.412C384.19 45.412 381.22 48.492 381.22 53.794C381.22 59.074 384.19 62.308 388.502 62.308ZM388.502 59.492C386.082 59.492 384.542 57.27 384.542 53.794C384.542 50.296 386.082 48.206 388.502 48.206C390.922 48.206 392.462 50.296 392.462 53.794C392.462 57.27 390.922 59.492 388.502 59.492Z" fill="white"/>
<path d="M340.515 85H341.255V91.36H345.175V92H340.515V85ZM351.354 91.36V92H346.404V85H351.204V85.64H347.144V88.13H350.764V88.76H347.144V91.36H351.354ZM356.094 92.06C355.401 92.06 354.774 91.9067 354.214 91.6C353.661 91.2933 353.224 90.87 352.904 90.33C352.591 89.7833 352.434 89.1733 352.434 88.5C352.434 87.8267 352.591 87.22 352.904 86.68C353.224 86.1333 353.664 85.7067 354.224 85.4C354.784 85.0933 355.411 84.94 356.104 84.94C356.624 84.94 357.104 85.0267 357.544 85.2C357.984 85.3733 358.357 85.6267 358.664 85.96L358.194 86.43C357.647 85.8767 356.957 85.6 356.124 85.6C355.571 85.6 355.067 85.7267 354.614 85.98C354.161 86.2333 353.804 86.58 353.544 87.02C353.291 87.46 353.164 87.9533 353.164 88.5C353.164 89.0467 353.291 89.54 353.544 89.98C353.804 90.42 354.161 90.7667 354.614 91.02C355.067 91.2733 355.571 91.4 356.124 91.4C356.964 91.4 357.654 91.12 358.194 90.56L358.664 91.03C358.357 91.3633 357.981 91.62 357.534 91.8C357.094 91.9733 356.614 92.06 356.094 92.06ZM360.242 85H360.982V91.36H364.902V92H360.242V85ZM371.08 91.36V92H366.13V85H370.93V85.64H366.87V88.13H370.49V88.76H366.87V91.36H371.08ZM377.607 88.71L376.177 90.16V92H375.437V85H376.177V89.23L380.287 85H381.137L378.107 88.17L381.347 92H380.467L377.607 88.71ZM385.352 92.06C384.659 92.06 384.029 91.9067 383.462 91.6C382.902 91.2867 382.462 90.86 382.142 90.32C381.829 89.78 381.672 89.1733 381.672 88.5C381.672 87.8267 381.829 87.22 382.142 86.68C382.462 86.14 382.902 85.7167 383.462 85.41C384.029 85.0967 384.659 84.94 385.352 84.94C386.046 84.94 386.669 85.0933 387.222 85.4C387.782 85.7067 388.222 86.1333 388.542 86.68C388.862 87.22 389.022 87.8267 389.022 88.5C389.022 89.1733 388.862 89.7833 388.542 90.33C388.222 90.87 387.782 91.2933 387.222 91.6C386.669 91.9067 386.046 92.06 385.352 92.06ZM385.352 91.4C385.906 91.4 386.406 91.2767 386.852 91.03C387.299 90.7767 387.649 90.43 387.902 89.99C388.156 89.5433 388.282 89.0467 388.282 88.5C388.282 87.9533 388.156 87.46 387.902 87.02C387.649 86.5733 387.299 86.2267 386.852 85.98C386.406 85.7267 385.906 85.6 385.352 85.6C384.799 85.6 384.296 85.7267 383.842 85.98C383.396 86.2267 383.042 86.5733 382.782 87.02C382.529 87.46 382.402 87.9533 382.402 88.5C382.402 89.0467 382.529 89.5433 382.782 89.99C383.042 90.43 383.396 90.7767 383.842 91.03C384.296 91.2767 384.799 91.4 385.352 91.4ZM395.461 92L393.861 89.75C393.681 89.77 393.494 89.78 393.301 89.78H391.421V92H390.681V85H393.301C394.194 85 394.894 85.2133 395.401 85.64C395.908 86.0667 396.161 86.6533 396.161 87.4C396.161 87.9467 396.021 88.41 395.741 88.79C395.468 89.1633 395.074 89.4333 394.561 89.6L396.271 92H395.461ZM393.281 89.15C393.974 89.15 394.504 88.9967 394.871 88.69C395.238 88.3833 395.421 87.9533 395.421 87.4C395.421 86.8333 395.238 86.4 394.871 86.1C394.504 85.7933 393.974 85.64 393.281 85.64H391.421V89.15H393.281ZM402.858 91.36V92H397.908V85H402.708V85.64H398.648V88.13H402.268V88.76H398.648V91.36H402.858ZM408.987 90.13H405.087L404.247 92H403.477L406.677 85H407.407L410.607 92H409.827L408.987 90.13ZM408.717 89.53L407.037 85.77L405.357 89.53H408.717Z" fill="white"/>
<rect y="470" width="80" height="100" rx="12" fill="#F0F0F0"/>
<path d="M31.3993 524H32.8793V521.37H33.8693C35.4593 521.37 36.7293 520.61 36.7293 518.92C36.7293 517.17 35.4693 516.6 33.8293 516.6H31.3993V524ZM32.8793 520.2V517.77H33.7193C34.7393 517.77 35.2793 518.06 35.2793 518.92C35.2793 519.77 34.7893 520.2 33.7693 520.2H32.8793ZM37.3436 524.14C37.8736 524.14 38.2636 523.72 38.2636 523.18C38.2636 522.64 37.8736 522.22 37.3436 522.22C36.8236 522.22 36.4336 522.64 36.4336 523.18C36.4336 523.72 36.8236 524.14 37.3436 524.14ZM39.8856 524H41.2156V520.91C41.2156 520.21 41.0956 519.18 41.0256 518.48H41.0656L41.6556 520.22L42.8056 523.33H43.6556L44.7956 520.22L45.3956 518.48H45.4356C45.3656 519.18 45.2556 520.21 45.2556 520.91V524H46.6056V516.6H44.9656L43.7356 520.06C43.5756 520.52 43.4456 521.01 43.2856 521.49H43.2356C43.0856 521.01 42.9456 520.52 42.7856 520.06L41.5256 516.6H39.8856V524Z" fill="#808080"/>
<rect x="83" y="470" width="80" height="100" rx="12" fill="#F0F0F0"/>
<path d="M94.994 524H96.474V521H99.104V519.76H96.474V517.83H99.554V516.6H94.994V524ZM102.324 517.77H103.284C104.234 517.77 104.754 518.04 104.754 518.84C104.754 519.63 104.234 520.03 103.284 520.03H102.324V517.77ZM106.524 524L104.794 520.97C105.644 520.64 106.204 519.95 106.204 518.84C106.204 517.14 104.974 516.6 103.424 516.6H100.844V524H102.324V521.2H103.354L104.874 524H106.524ZM110.6 524.14C112.56 524.14 113.91 522.67 113.91 520.27C113.91 517.87 112.56 516.46 110.6 516.46C108.64 516.46 107.29 517.86 107.29 520.27C107.29 522.67 108.64 524.14 110.6 524.14ZM110.6 522.86C109.5 522.86 108.8 521.85 108.8 520.27C108.8 518.68 109.5 517.73 110.6 517.73C111.7 517.73 112.4 518.68 112.4 520.27C112.4 521.85 111.7 522.86 110.6 522.86ZM115.355 524H116.755V521.03C116.755 520.18 116.645 519.25 116.575 518.45H116.625L117.375 520.04L119.515 524H121.015V516.6H119.615V519.55C119.615 520.39 119.725 521.37 119.805 522.14H119.755L119.015 520.54L116.865 516.6H115.355V524ZM124.316 524H125.796V517.83H127.896V516.6H122.236V517.83H124.316V524ZM127.924 521.66H130.654V520.61H127.924V521.66ZM132.045 524H136.695V522.76H133.525V520.78H136.125V519.54H133.525V517.83H136.585V516.6H132.045V524ZM138.197 524H139.597V521.03C139.597 520.18 139.487 519.25 139.417 518.45H139.467L140.217 520.04L142.357 524H143.857V516.6H142.457V519.55C142.457 520.39 142.567 521.37 142.647 522.14H142.597L141.857 520.54L139.707 516.6H138.197V524ZM145.687 524H147.797C149.977 524 151.377 522.76 151.377 520.27C151.377 517.77 149.977 516.6 147.717 516.6H145.687V524ZM147.167 522.81V517.78H147.627C149.007 517.78 149.867 518.46 149.867 520.27C149.867 522.07 149.007 522.81 147.627 522.81H147.167Z" fill="#808080"/>
<rect x="166" y="470" width="80" height="100" rx="12" fill="#F0F0F0"/>
<path d="M181.166 524H183.806C185.436 524 186.676 523.31 186.676 521.82C186.676 520.82 186.086 520.26 185.286 520.07V520.02C185.916 519.8 186.296 519.1 186.296 518.42C186.296 517.04 185.136 516.6 183.616 516.6H181.166V524ZM182.646 519.61V517.73H183.526C184.416 517.73 184.856 517.99 184.856 518.64C184.856 519.23 184.446 519.61 183.506 519.61H182.646ZM182.646 522.86V520.71H183.676C184.696 520.71 185.236 521.01 185.236 521.73C185.236 522.5 184.686 522.86 183.676 522.86H182.646ZM189.363 520.95L189.583 520.14C189.803 519.37 190.023 518.53 190.213 517.72H190.253C190.473 518.52 190.673 519.37 190.903 520.14L191.123 520.95H189.363ZM191.963 524H193.513L191.133 516.6H189.393L187.022 524H188.523L189.043 522.1H191.443L191.963 524ZM197.282 524.14C198.242 524.14 199.032 523.76 199.642 523.05L198.862 522.13C198.462 522.56 197.962 522.86 197.332 522.86C196.162 522.86 195.402 521.89 195.402 520.28C195.402 518.69 196.242 517.73 197.362 517.73C197.922 517.73 198.352 517.99 198.722 518.35L199.502 517.41C199.022 516.91 198.272 516.46 197.332 516.46C195.462 516.46 193.892 517.89 193.892 520.33C193.892 522.8 195.412 524.14 197.282 524.14ZM200.834 524H202.314V521.92L203.284 520.68L205.194 524H206.824L204.164 519.51L206.424 516.6H204.794L202.344 519.81H202.314V516.6H200.834V524ZM206.752 521.66H209.482V520.61H206.752V521.66ZM210.873 524H215.523V522.76H212.353V520.78H214.953V519.54H212.353V517.83H215.413V516.6H210.873V524ZM217.025 524H218.425V521.03C218.425 520.18 218.315 519.25 218.245 518.45H218.295L219.045 520.04L221.185 524H222.685V516.6H221.285V519.55C221.285 520.39 221.395 521.37 221.475 522.14H221.425L220.685 520.54L218.535 516.6H217.025V524ZM224.515 524H226.625C228.805 524 230.205 522.76 230.205 520.27C230.205 517.77 228.805 516.6 226.545 516.6H224.515V524ZM225.995 522.81V517.78H226.455C227.835 517.78 228.695 518.46 228.695 520.27C228.695 522.07 227.835 522.81 226.455 522.81H225.995Z" fill="#808080"/>
<rect x="249" y="470" width="80" height="100" rx="12" fill="#F0F0F0"/>
<path d="M270.279 524H271.609V520.91C271.609 520.21 271.489 519.18 271.419 518.48H271.459L272.049 520.22L273.199 523.33H274.049L275.189 520.22L275.789 518.48H275.829C275.759 519.18 275.649 520.21 275.649 520.91V524H276.999V516.6H275.359L274.129 520.06C273.969 520.52 273.839 521.01 273.679 521.49H273.629C273.479 521.01 273.339 520.52 273.179 520.06L271.919 516.6H270.279V524ZM281.754 524.14C283.714 524.14 285.064 522.67 285.064 520.27C285.064 517.87 283.714 516.46 281.754 516.46C279.794 516.46 278.444 517.86 278.444 520.27C278.444 522.67 279.794 524.14 281.754 524.14ZM281.754 522.86C280.654 522.86 279.954 521.85 279.954 520.27C279.954 518.68 280.654 517.73 281.754 517.73C282.854 517.73 283.554 518.68 283.554 520.27C283.554 521.85 282.854 522.86 281.754 522.86ZM286.51 524H289.15C290.78 524 292.02 523.31 292.02 521.82C292.02 520.82 291.43 520.26 290.63 520.07V520.02C291.26 519.8 291.64 519.1 291.64 518.42C291.64 517.04 290.48 516.6 288.96 516.6H286.51V524ZM287.99 519.61V517.73H288.87C289.76 517.73 290.2 517.99 290.2 518.64C290.2 519.23 289.79 519.61 288.85 519.61H287.99ZM287.99 522.86V520.71H289.02C290.04 520.71 290.58 521.01 290.58 521.73C290.58 522.5 290.03 522.86 289.02 522.86H287.99ZM293.316 524H294.796V516.6H293.316V524ZM296.617 524H301.097V522.76H298.097V516.6H296.617V524ZM302.389 524H307.039V522.76H303.869V520.78H306.469V519.54H303.869V517.83H306.929V516.6H302.389V524Z" fill="#808080"/>
<rect x="334" y="470" width="80" height="100" rx="12" fill="#F0F0F0"/>
<path d="M342.227 524H344.867C346.497 524 347.737 523.31 347.737 521.82C347.737 520.82 347.147 520.26 346.347 520.07V520.02C346.977 519.8 347.357 519.1 347.357 518.42C347.357 517.04 346.197 516.6 344.677 516.6H342.227V524ZM343.707 519.61V517.73H344.587C345.477 517.73 345.917 517.99 345.917 518.64C345.917 519.23 345.507 519.61 344.567 519.61H343.707ZM343.707 522.86V520.71H344.737C345.757 520.71 346.297 521.01 346.297 521.73C346.297 522.5 345.747 522.86 344.737 522.86H343.707ZM349.034 524H353.514V522.76H350.514V516.6H349.034V524ZM357.365 524.14C359.325 524.14 360.675 522.67 360.675 520.27C360.675 517.87 359.325 516.46 357.365 516.46C355.405 516.46 354.055 517.86 354.055 520.27C354.055 522.67 355.405 524.14 357.365 524.14ZM357.365 522.86C356.265 522.86 355.565 521.85 355.565 520.27C355.565 518.68 356.265 517.73 357.365 517.73C358.465 517.73 359.165 518.68 359.165 520.27C359.165 521.85 358.465 522.86 357.365 522.86ZM365.14 524.14C366.1 524.14 366.89 523.76 367.5 523.05L366.72 522.13C366.32 522.56 365.82 522.86 365.19 522.86C364.02 522.86 363.26 521.89 363.26 520.28C363.26 518.69 364.1 517.73 365.22 517.73C365.78 517.73 366.21 517.99 366.58 518.35L367.36 517.41C366.88 516.91 366.13 516.46 365.19 516.46C363.32 516.46 361.75 517.89 361.75 520.33C361.75 522.8 363.27 524.14 365.14 524.14ZM368.692 524H370.172V521.92L371.142 520.68L373.052 524H374.682L372.022 519.51L374.282 516.6H372.652L370.202 519.81H370.172V516.6H368.692V524ZM378.275 524.14C379.235 524.14 380.025 523.76 380.635 523.05L379.855 522.13C379.455 522.56 378.955 522.86 378.325 522.86C377.155 522.86 376.395 521.89 376.395 520.28C376.395 518.69 377.235 517.73 378.355 517.73C378.915 517.73 379.345 517.99 379.715 518.35L380.495 517.41C380.015 516.91 379.265 516.46 378.325 516.46C376.455 516.46 374.885 517.89 374.885 520.33C374.885 522.8 376.405 524.14 378.275 524.14ZM381.827 524H383.307V520.8H386.107V524H387.577V516.6H386.107V519.51H383.307V516.6H381.827V524ZM390.785 520.95L391.005 520.14C391.225 519.37 391.445 518.53 391.635 517.72H391.675C391.895 518.52 392.095 519.37 392.325 520.14L392.545 520.95H390.785ZM393.385 524H394.935L392.555 516.6H390.815L388.445 524H389.945L390.465 522.1H392.865L393.385 524ZM395.802 524H397.282V516.6H395.802V524ZM399.102 524H400.502V521.03C400.502 520.18 400.392 519.25 400.322 518.45H400.372L401.122 520.04L403.262 524H404.762V516.6H403.362V519.55C403.362 520.39 403.472 521.37 403.552 522.14H403.502L402.762 520.54L400.612 516.6H399.102V524Z" fill="#808080"/>
<rect x="418" y="470" width="80" height="100" rx="12" fill="#F0F0F0"/>
<path d="M449.091 524H453.741V522.76H450.571V520.78H453.171V519.54H450.571V517.83H453.631V516.6H449.091V524ZM456.723 517.77H457.683C458.633 517.77 459.153 518.04 459.153 518.84C459.153 519.63 458.633 520.03 457.683 520.03H456.723V517.77ZM460.923 524L459.193 520.97C460.043 520.64 460.603 519.95 460.603 518.84C460.603 517.14 459.373 516.6 457.823 516.6H455.243V524H456.723V521.2H457.753L459.273 524H460.923ZM462.059 524H463.539V521.37H464.529C466.119 521.37 467.389 520.61 467.389 518.92C467.389 517.17 466.129 516.6 464.489 516.6H462.059V524ZM463.539 520.2V517.77H464.379C465.399 517.77 465.939 518.06 465.939 518.92C465.939 519.77 465.449 520.2 464.429 520.2H463.539Z" fill="#808080"/>
<rect x="502" y="470" width="80" height="100" rx="12" fill="#F0F0F0"/>
<path d="M517.75 524.14C519.56 524.14 520.61 523.13 520.61 520.67V516.59H519.19V520.8C519.19 522.34 518.63 522.86 517.75 522.86C516.89 522.86 516.35 522.34 516.35 520.8V516.59H514.87V520.67C514.87 523.13 515.95 524.14 517.75 524.14ZM521.503 524H523.073L523.863 522.36C524.043 521.98 524.223 521.59 524.403 521.14H524.443C524.663 521.59 524.833 521.98 525.023 522.36L525.853 524H527.493L525.413 520.25L527.363 516.59H525.803L525.103 518.12C524.943 518.47 524.793 518.83 524.613 519.29H524.563C524.343 518.83 524.193 518.47 524.013 518.12L523.273 516.59H521.633L523.583 520.18L521.503 524ZM527.773 525.82H528.753L531.233 515.94H530.263L527.773 525.82ZM532.42 524H534.53C536.71 524 538.11 522.76 538.11 520.27C538.11 517.77 536.71 516.59 534.45 516.59H532.42V524ZM533.9 522.81V517.78H534.36C535.74 517.78 536.6 518.46 536.6 520.27C536.6 522.07 535.74 522.81 534.36 522.81H533.9ZM539.558 524H544.208V522.76H541.038V520.78H543.638V519.54H541.038V517.83H544.098V516.59H539.558V524ZM547.921 524.14C549.631 524.14 550.641 523.11 550.641 521.9C550.641 520.83 550.051 520.26 549.151 519.89L548.181 519.48C547.551 519.23 547.031 519.04 547.031 518.51C547.031 518.02 547.441 517.73 548.091 517.73C548.701 517.73 549.191 517.95 549.661 518.34L550.411 517.41C549.811 516.8 548.951 516.46 548.091 516.46C546.591 516.46 545.531 517.39 545.531 518.6C545.531 519.68 546.281 520.28 547.031 520.59L548.021 521.01C548.681 521.29 549.131 521.46 549.131 522.01C549.131 522.53 548.721 522.86 547.951 522.86C547.301 522.86 546.601 522.53 546.071 522.04L545.221 523.06C545.941 523.75 546.931 524.14 547.921 524.14ZM551.951 524H553.431V516.59H551.951V524ZM558.432 524.14C559.462 524.14 560.332 523.74 560.832 523.25V519.91H558.202V521.12H559.512V522.58C559.302 522.76 558.942 522.86 558.592 522.86C557.132 522.86 556.392 521.89 556.392 520.28C556.392 518.69 557.252 517.73 558.482 517.73C559.152 517.73 559.572 518 559.942 518.35L560.722 517.41C560.242 516.92 559.502 516.46 558.432 516.46C556.462 516.46 554.882 517.89 554.882 520.33C554.882 522.8 556.422 524.14 558.432 524.14ZM562.42 524H563.82V521.03C563.82 520.18 563.71 519.25 563.64 518.45H563.69L564.44 520.04L566.58 524H568.08V516.59H566.68V519.55C566.68 520.39 566.8 521.37 566.87 522.14H566.82L566.08 520.54L563.93 516.59H562.42V524Z" fill="#808080"/>
<rect x="586" y="470" width="80" height="100" rx="12" fill="#F0F0F0"/>
<path d="M593.23 524H597.88V522.76H594.71V520.79H597.3V519.54H594.71V517.83H597.77V516.6H593.23V524ZM599.383 524H600.783V521.04C600.783 520.18 600.663 519.25 600.593 518.46H600.643L601.393 520.04L603.533 524H605.043V516.6H603.633V519.55C603.633 520.39 603.753 521.38 603.833 522.15H603.783L603.033 520.55L600.883 516.6H599.383V524ZM610.053 524.14C611.073 524.14 611.953 523.75 612.453 523.25V519.92H609.813V521.13H611.133V522.59C610.923 522.76 610.563 522.86 610.203 522.86C608.753 522.86 608.013 521.9 608.013 520.28C608.013 518.7 608.863 517.74 610.103 517.74C610.763 517.74 611.183 518.01 611.553 518.36L612.333 517.41C611.853 516.93 611.113 516.47 610.053 516.47C608.083 516.47 606.503 517.89 606.503 520.33C606.503 522.8 608.043 524.14 610.053 524.14ZM614.041 524H615.521V516.6H614.041V524ZM617.342 524H618.742V521.04C618.742 520.18 618.622 519.25 618.552 518.46H618.602L619.352 520.04L621.492 524H623.002V516.6H621.592V519.55C621.592 520.39 621.712 521.38 621.792 522.15H621.742L620.992 520.55L618.842 516.6H617.342V524ZM624.832 524H629.482V522.76H626.312V520.79H628.902V519.54H626.312V517.83H629.372V516.6H624.832V524ZM630.984 524H635.634V522.76H632.464V520.79H635.054V519.54H632.464V517.83H635.524V516.6H630.984V524ZM637.137 524H638.617V521.21H639.707C641.257 521.21 642.487 520.49 642.487 518.84C642.487 517.14 641.257 516.6 639.707 516.6H637.137V524ZM638.617 520.04V517.78H639.567C640.527 517.78 641.047 518.05 641.047 518.84C641.047 519.63 640.527 520.04 639.567 520.04H638.617ZM641.157 524H642.807L640.467 519.9L639.437 520.83L641.157 524ZM643.173 525.82H644.153L646.643 515.94H645.673L643.173 525.82ZM650.594 524.14C652.554 524.14 653.894 522.68 653.894 520.27C653.894 517.87 652.554 516.47 650.594 516.47C648.624 516.47 647.284 517.86 647.284 520.27C647.284 522.68 648.624 524.14 650.594 524.14ZM650.594 522.93C649.484 522.93 648.794 521.94 648.794 520.27C648.794 518.69 649.484 517.74 650.594 517.74C651.694 517.74 652.394 518.69 652.394 520.27C652.394 521.94 651.694 522.93 650.594 522.93ZM652.984 526.01C653.524 526.01 653.964 525.92 654.234 525.79L653.964 524.7C653.744 524.78 653.474 524.83 653.144 524.83C652.404 524.83 651.644 524.53 651.364 523.81L649.864 523.96C650.334 525.14 651.414 526.01 652.984 526.01ZM654.233 524H655.733L656.793 520.15C657.013 519.38 657.223 518.53 657.423 517.73H657.463C657.673 518.52 657.883 519.38 658.103 520.15L659.163 524H660.713L658.343 516.6H656.603L654.233 524ZM655.703 522.1H659.223V520.96H655.703V522.1Z" fill="#808080"/>
<rect x="670" y="470" width="80" height="100" rx="12" fill="#F0F0F0"/>
<path d="M701.284 516H702.764V512.8H705.564V516H707.034V508.6H705.564V511.52H702.764V508.6H701.284V516ZM708.852 516H710.332V513.21H711.422C712.972 513.21 714.202 512.49 714.202 510.84C714.202 509.14 712.972 508.6 711.422 508.6H708.852V516ZM710.332 512.04V509.78H711.282C712.242 509.78 712.762 510.05 712.762 510.84C712.762 511.63 712.242 512.04 711.282 512.04H710.332ZM712.872 516H714.522L712.182 511.9L711.152 512.83L712.872 516ZM714.889 517.82H715.869L718.359 507.94H717.389L714.889 517.82ZM680.928 532H682.248V528.91C682.248 528.21 682.138 527.18 682.058 526.48H682.098L682.698 528.22L683.838 531.34H684.688L685.828 528.22L686.438 526.48H686.488C686.408 527.18 686.288 528.21 686.288 528.91V532H687.638V524.6H685.998L684.768 528.07C684.618 528.53 684.488 529.01 684.318 529.49H684.278C684.118 529.01 683.988 528.53 683.818 528.07L682.558 524.6H680.928V532ZM688.503 532H690.003L691.063 528.15C691.283 527.38 691.493 526.53 691.693 525.73H691.733C691.943 526.52 692.153 527.38 692.373 528.15L693.433 532H694.983L692.613 524.6H690.873L688.503 532ZM689.973 530.1H693.493V528.96H689.973V530.1ZM695.859 532H697.339V529.21H698.429C699.979 529.21 701.209 528.49 701.209 526.84C701.209 525.14 699.979 524.6 698.429 524.6H695.859V532ZM697.339 528.04V525.78H698.289C699.249 525.78 699.769 526.05 699.769 526.84C699.769 527.63 699.249 528.04 698.289 528.04H697.339ZM699.879 532H701.529L699.189 527.9L698.159 528.83L699.879 532ZM702.676 532H704.156V529.92L705.126 528.68L707.046 532H708.656L705.996 527.51L708.266 524.6H706.636L704.176 527.81H704.156V524.6H702.676V532ZM709.531 532H714.181V530.76H711.011V528.79H713.601V527.54H711.011V525.83H714.071V524.6H709.531V532ZM717.153 532H718.633V525.83H720.723V524.6H715.063V525.83H717.153V532ZM721.933 532H723.413V524.6H721.933V532ZM725.234 532H726.634V529.04C726.634 528.18 726.514 527.25 726.444 526.46H726.494L727.244 528.04L729.384 532H730.894V524.6H729.484V527.55C729.484 528.39 729.604 529.38 729.684 530.15H729.634L728.884 528.55L726.734 524.6H725.234V532ZM735.904 532.14C736.924 532.14 737.804 531.75 738.304 531.25V527.92H735.664V529.13H736.984V530.59C736.774 530.76 736.414 530.86 736.054 530.86C734.604 530.86 733.864 529.9 733.864 528.28C733.864 526.7 734.714 525.74 735.954 525.74C736.614 525.74 737.034 526.01 737.404 526.36L738.184 525.41C737.704 524.93 736.964 524.47 735.904 524.47C733.934 524.47 732.354 525.89 732.354 528.33C732.354 530.8 733.894 532.14 735.904 532.14Z" fill="#808080"/>
</svg>
