<svg width="1038" height="638" viewBox="0 0 1038 638" fill="none" xmlns="http://www.w3.org/2000/svg">
<path d="M88 538H16C7.16344 538 0 545.163 0 554V622C0 630.837 7.16344 638 16 638H88C96.8366 638 104 630.837 104 622V554C104 545.163 96.8366 538 88 538Z" fill="#F0F0F0"/>
<path d="M42.3789 593.999H44.1549V590.843H45.3429C47.2509 590.843 48.7749 589.931 48.7749 587.903C48.7749 585.803 47.2629 585.107 45.2949 585.107H42.3789V593.999ZM44.1549 589.439V586.523H45.1629C46.3869 586.523 47.0349 586.871 47.0349 587.903C47.0349 588.923 46.4469 589.439 45.2229 589.439H44.1549ZM49.5122 594.167C50.1482 594.167 50.6162 593.663 50.6162 593.015C50.6162 592.355 50.1482 591.863 49.5122 591.863C48.8882 591.863 48.4202 592.355 48.4202 593.015C48.4202 593.663 48.8882 594.167 49.5122 594.167ZM52.5625 593.999H54.1585V590.291C54.1585 589.451 54.0145 588.215 53.9305 587.375H53.9785L54.6865 589.463L56.0665 593.195H57.0865L58.4545 589.463L59.1745 587.375H59.2345C59.1385 588.215 59.0065 589.451 59.0065 590.291V593.999H60.6265V585.107H58.6585L57.1825 589.271C56.9905 589.823 56.8345 590.411 56.6425 590.975H56.5825C56.4025 590.411 56.2345 589.823 56.0425 589.271L54.5305 585.107H52.5625V593.999Z" fill="#808080"/>
<path d="M205 538H133C124.163 538 117 545.163 117 554V622C117 630.837 124.163 638 133 638H205C213.837 638 221 630.837 221 622V554C221 545.163 213.837 538 205 538Z" fill="#F0F0F0"/>
<path d="M135.393 593.999H137.169V590.399H140.325V588.911H137.169V586.595H140.865V585.107H135.393V593.999ZM142.412 593.999H144.188V590.639H145.424L147.248 593.999H149.228L147.152 590.363C148.172 589.967 148.844 589.139 148.844 587.807C148.844 585.767 147.368 585.107 145.508 585.107H142.412V593.999ZM144.188 589.235V586.523H145.34C146.48 586.523 147.116 586.847 147.116 587.807C147.116 588.755 146.48 589.235 145.34 589.235H144.188ZM154.12 594.167C156.472 594.167 158.092 592.403 158.092 589.523C158.092 586.643 156.472 584.951 154.12 584.951C151.768 584.951 150.148 586.631 150.148 589.523C150.148 592.403 151.768 594.167 154.12 594.167ZM154.12 592.631C152.8 592.631 151.96 591.419 151.96 589.523C151.96 587.615 152.8 586.475 154.12 586.475C155.44 586.475 156.28 587.615 156.28 589.523C156.28 591.419 155.44 592.631 154.12 592.631ZM159.826 593.999H161.506V590.435C161.506 589.415 161.374 588.299 161.29 587.339H161.35L162.25 589.247L164.818 593.999H166.618V585.107H164.938V588.659C164.938 589.667 165.082 590.843 165.166 591.767H165.106L164.218 589.847L161.638 585.107H159.826V593.999ZM170.579 593.999H172.355V586.595H174.875V585.107H168.083V586.595H170.579V593.999ZM174.908 591.191H178.184V589.931H174.908V591.191ZM179.854 593.999H185.434V592.511H181.63V590.135H184.75V588.647H181.63V586.595H185.302V585.107H179.854V593.999ZM187.237 593.999H188.917V590.435C188.917 589.415 188.785 588.299 188.701 587.339H188.761L189.661 589.247L192.229 593.999H194.029V585.107H192.349V588.659C192.349 589.667 192.493 590.843 192.577 591.767H192.517L191.629 589.847L189.049 585.107H187.237V593.999ZM196.225 593.999H198.757C201.373 593.999 203.053 592.511 203.053 589.523C203.053 586.523 201.373 585.107 198.661 585.107H196.225V593.999ZM198.001 592.571V586.535H198.553C200.209 586.535 201.241 587.351 201.241 589.523C201.241 591.683 200.209 592.571 198.553 592.571H198.001Z" fill="#808080"/>
<path d="M322 538H250C241.163 538 234 545.163 234 554V622C234 630.837 241.163 638 250 638H322C330.837 638 338 630.837 338 622V554C338 545.163 330.837 538 322 538Z" fill="#F0F0F0"/>
<path d="M257.299 593.999H260.467C262.423 593.999 263.911 593.171 263.911 591.383C263.911 590.183 263.203 589.511 262.243 589.283V589.223C262.999 588.959 263.455 588.119 263.455 587.303C263.455 585.647 262.063 585.107 260.239 585.107H257.299V593.999ZM259.075 588.731V586.475H260.131C261.199 586.475 261.727 586.787 261.727 587.567C261.727 588.275 261.235 588.731 260.107 588.731H259.075ZM259.075 592.631V590.039H260.311C261.535 590.039 262.183 590.411 262.183 591.275C262.183 592.199 261.523 592.631 260.311 592.631H259.075ZM267.399 589.367C267.663 588.443 267.927 587.435 268.155 586.463H268.215C268.467 587.423 268.707 588.443 268.983 589.367L269.247 590.339H267.135L267.399 589.367ZM264.327 593.999H266.127L266.751 591.719H269.631L270.255 593.999H272.115L269.259 585.107H267.171L264.327 593.999ZM276.638 594.167C277.79 594.167 278.738 593.711 279.47 592.859L278.534 591.755C278.054 592.271 277.466 592.631 276.698 592.631C275.294 592.631 274.382 591.467 274.382 589.535C274.382 587.627 275.39 586.475 276.734 586.475C277.406 586.475 277.922 586.787 278.378 587.219L279.302 586.091C278.726 585.491 277.826 584.951 276.698 584.951C274.454 584.951 272.57 586.667 272.57 589.595C272.57 592.559 274.394 594.167 276.638 594.167ZM280.901 593.999H282.677V591.503L283.841 590.003L286.145 593.999H288.089L284.897 588.611L287.609 585.107H285.653L282.713 588.971H282.677V585.107H280.901V593.999ZM288.002 591.191H291.278V589.931H288.002V591.191ZM292.947 593.999H298.527V592.511H294.723V590.135H297.843V588.647H294.723V586.595H298.395V585.107H292.947V593.999ZM300.33 593.999H302.01V590.435C302.01 589.415 301.878 588.299 301.794 587.339H301.854L302.754 589.247L305.322 593.999H307.122V585.107H305.442V588.659C305.442 589.667 305.586 590.843 305.67 591.767H305.61L304.722 589.847L302.142 585.107H300.33V593.999ZM309.319 593.999H311.851C314.467 593.999 316.147 592.511 316.147 589.523C316.147 586.523 314.467 585.107 311.755 585.107H309.319V593.999ZM311.095 592.571V586.535H311.647C313.303 586.535 314.335 587.351 314.335 589.523C314.335 591.683 313.303 592.571 311.647 592.571H311.095Z" fill="#808080"/>
<path d="M439 538H367C358.163 538 351 545.163 351 554V622C351 630.837 358.163 638 367 638H439C447.837 638 455 630.837 455 622V554C455 545.163 447.837 538 439 538Z" fill="#F0F0F0"/>
<path d="M380.129 593.999H381.725V590.291C381.725 589.451 381.581 588.215 381.497 587.375H381.545L382.253 589.463L383.633 593.195H384.653L386.021 589.463L386.741 587.375H386.801C386.705 588.215 386.573 589.451 386.573 590.291V593.999H388.193V585.107H386.225L384.749 589.271C384.557 589.823 384.401 590.411 384.209 590.975H384.149C383.969 590.411 383.801 589.823 383.609 589.271L382.097 585.107H380.129V593.999ZM393.899 594.167C396.251 594.167 397.871 592.403 397.871 589.523C397.871 586.643 396.251 584.951 393.899 584.951C391.547 584.951 389.927 586.631 389.927 589.523C389.927 592.403 391.547 594.167 393.899 594.167ZM393.899 592.631C392.579 592.631 391.739 591.419 391.739 589.523C391.739 587.615 392.579 586.475 393.899 586.475C395.219 586.475 396.059 587.615 396.059 589.523C396.059 591.419 395.219 592.631 393.899 592.631ZM399.606 593.999H402.774C404.73 593.999 406.218 593.171 406.218 591.383C406.218 590.183 405.51 589.511 404.55 589.283V589.223C405.306 588.959 405.762 588.119 405.762 587.303C405.762 585.647 404.37 585.107 402.546 585.107H399.606V593.999ZM401.382 588.731V586.475H402.438C403.506 586.475 404.034 586.787 404.034 587.567C404.034 588.275 403.542 588.731 402.414 588.731H401.382ZM401.382 592.631V590.039H402.618C403.842 590.039 404.49 590.411 404.49 591.275C404.49 592.199 403.83 592.631 402.618 592.631H401.382ZM407.774 593.999H409.55V585.107H407.774V593.999ZM411.735 593.999H417.123V592.511H413.511V585.107H411.735V593.999ZM418.672 593.999H424.252V592.511H420.448V590.135H423.568V588.647H420.448V586.595H424.12V585.107H418.672V593.999Z" fill="#808080"/>
<path d="M556 538H484C475.163 538 468 545.163 468 554V622C468 630.837 475.163 638 484 638H556C564.837 638 572 630.837 572 622V554C572 545.163 564.837 538 556 538Z" fill="#F0F0F0"/>
<path d="M482.473 593.999H485.641C487.597 593.999 489.085 593.171 489.085 591.383C489.085 590.183 488.377 589.511 487.417 589.283V589.223C488.173 588.959 488.629 588.119 488.629 587.303C488.629 585.647 487.237 585.119 485.413 585.119H482.473V593.999ZM484.249 588.731V586.475H485.305C486.373 586.475 486.901 586.787 486.901 587.567C486.901 588.275 486.409 588.731 485.281 588.731H484.249ZM484.249 592.631V590.051H485.485C486.709 590.051 487.357 590.411 487.357 591.275C487.357 592.199 486.697 592.631 485.485 592.631H484.249ZM490.641 593.999H496.017V592.511H492.417V585.119H490.641V593.999ZM500.638 594.167C502.99 594.167 504.61 592.403 504.61 589.523C504.61 586.643 502.99 584.951 500.638 584.951C498.286 584.951 496.666 586.631 496.666 589.523C496.666 592.403 498.286 594.167 500.638 594.167ZM500.638 592.631C499.318 592.631 498.478 591.419 498.478 589.523C498.478 587.615 499.318 586.475 500.638 586.475C501.958 586.475 502.798 587.615 502.798 589.523C502.798 591.419 501.958 592.631 500.638 592.631ZM509.968 594.167C511.12 594.167 512.068 593.711 512.8 592.859L511.864 591.755C511.384 592.271 510.784 592.631 510.028 592.631C508.624 592.631 507.712 591.467 507.712 589.535C507.712 587.627 508.72 586.475 510.064 586.475C510.736 586.475 511.252 586.787 511.696 587.219L512.632 586.091C512.056 585.491 511.156 584.951 510.028 584.951C507.784 584.951 505.9 586.667 505.9 589.595C505.9 592.559 507.724 594.167 509.968 594.167ZM514.231 593.999H516.007V591.503L517.171 590.015L519.463 593.999H521.419L518.227 588.611L520.939 585.119H518.983L516.043 588.971H516.007V585.119H514.231V593.999ZM525.73 594.167C526.882 594.167 527.83 593.711 528.562 592.859L527.626 591.755C527.146 592.271 526.546 592.631 525.79 592.631C524.386 592.631 523.474 591.467 523.474 589.535C523.474 587.627 524.482 586.475 525.826 586.475C526.498 586.475 527.014 586.787 527.458 587.219L528.394 586.091C527.818 585.491 526.918 584.951 525.79 584.951C523.546 584.951 521.662 586.667 521.662 589.595C521.662 592.559 523.486 594.167 525.73 594.167ZM529.992 593.999H531.768V590.159H535.128V593.999H536.892V585.119H535.128V588.611H531.768V585.119H529.992V593.999ZM540.742 590.339L541.006 589.367C541.27 588.443 541.534 587.435 541.762 586.463H541.81C542.074 587.423 542.314 588.443 542.59 589.367L542.854 590.339H540.742ZM543.862 593.999H545.722L542.866 585.119H540.778L537.934 593.999H539.734L540.358 591.719H543.238L543.862 593.999ZM546.762 593.999H548.538V585.119H546.762V593.999ZM550.723 593.999H552.403V590.435C552.403 589.415 552.271 588.299 552.187 587.339H552.247L553.147 589.247L555.715 593.999H557.515V585.119H555.835V588.659C555.835 589.667 555.967 590.843 556.063 591.767H556.003L555.115 589.847L552.535 585.119H550.723V593.999Z" fill="#808080"/>
<path d="M673 538H601C592.163 538 585 545.163 585 554V622C585 630.837 592.163 638 601 638H673C681.837 638 689 630.837 689 622V554C689 545.163 681.837 538 673 538Z" fill="#F0F0F0"/>
<path d="M625.309 593.999H630.889V592.511H627.085V590.135H630.205V588.647H627.085V586.595H630.757V585.107H625.309V593.999ZM632.692 593.999H634.468V590.639H635.704L637.528 593.999H639.508L637.432 590.363C638.452 589.967 639.124 589.139 639.124 587.807C639.124 585.767 637.648 585.107 635.788 585.107H632.692V593.999ZM634.468 589.235V586.523H635.62C636.76 586.523 637.396 586.847 637.396 587.807C637.396 588.755 636.76 589.235 635.62 589.235H634.468ZM640.871 593.999H642.647V590.843H643.835C645.743 590.843 647.267 589.931 647.267 587.903C647.267 585.803 645.755 585.107 643.787 585.107H640.871V593.999ZM642.647 589.439V586.523H643.655C644.879 586.523 645.527 586.871 645.527 587.903C645.527 588.923 644.939 589.439 643.715 589.439H642.647Z" fill="#808080"/>
<path d="M790 538H718C709.163 538 702 545.163 702 554V622C702 630.837 709.163 638 718 638H790C798.837 638 806 630.837 806 622V554C806 545.163 798.837 538 790 538Z" fill="#F0F0F0"/>
<path d="M725.501 594.168C727.673 594.168 728.933 592.956 728.933 590.004V585.108H727.229V590.16C727.229 592.008 726.557 592.632 725.501 592.632C724.469 592.632 723.821 592.008 723.821 590.16V585.108H722.045V590.004C722.045 592.956 723.341 594.168 725.501 594.168ZM730.005 594H731.889L732.837 592.032C733.053 591.576 733.269 591.108 733.485 590.568H733.533C733.797 591.108 734.001 591.576 734.229 592.032L735.225 594H737.193L734.697 589.5L737.037 585.108H735.165L734.325 586.944C734.133 587.364 733.953 587.796 733.737 588.348H733.677C733.413 587.796 733.233 587.364 733.017 586.944L732.129 585.108H730.161L732.501 589.416L730.005 594ZM737.528 596.184H738.704L741.68 584.328H740.516L737.528 596.184ZM743.105 594H745.637C748.253 594 749.933 592.512 749.933 589.524C749.933 586.524 748.253 585.108 745.541 585.108H743.105V594ZM744.881 592.572V586.536H745.433C747.089 586.536 748.121 587.352 748.121 589.524C748.121 591.684 747.089 592.572 745.433 592.572H744.881ZM751.671 594H757.251V592.512H753.447V590.136H756.567V588.648H753.447V586.596H757.119V585.108H751.671V594ZM761.706 594.168C763.758 594.168 764.97 592.932 764.97 591.48C764.97 590.196 764.262 589.512 763.182 589.068L762.018 588.576C761.262 588.276 760.638 588.048 760.638 587.412C760.638 586.824 761.13 586.476 761.91 586.476C762.642 586.476 763.23 586.74 763.794 587.208L764.694 586.092C763.974 585.36 762.942 584.952 761.91 584.952C760.11 584.952 758.838 586.068 758.838 587.52C758.838 588.816 759.738 589.536 760.638 589.908L761.826 590.412C762.618 590.748 763.158 590.952 763.158 591.612C763.158 592.236 762.666 592.632 761.742 592.632C760.962 592.632 760.122 592.236 759.486 591.648L758.466 592.872C759.33 593.7 760.518 594.168 761.706 594.168ZM766.542 594H768.318V585.108H766.542V594ZM774.319 594.168C775.555 594.168 776.599 593.688 777.199 593.1V589.092H774.043V590.544H775.615V592.296C775.363 592.512 774.931 592.632 774.511 592.632C772.759 592.632 771.871 591.468 771.871 589.536C771.871 587.628 772.903 586.476 774.379 586.476C775.183 586.476 775.687 586.8 776.131 587.22L777.067 586.092C776.491 585.504 775.603 584.952 774.319 584.952C771.955 584.952 770.059 586.668 770.059 589.596C770.059 592.56 771.907 594.168 774.319 594.168ZM779.105 594H780.785V590.436C780.785 589.416 780.653 588.3 780.569 587.34H780.629L781.529 589.248L784.097 594H785.897V585.108H784.217V588.66C784.217 589.668 784.361 590.844 784.445 591.768H784.385L783.497 589.848L780.917 585.108H779.105V594Z" fill="#808080"/>
<path d="M906 538H834C825.163 538 818 545.163 818 554V622C818 630.837 825.163 638 834 638H906C914.837 638 922 630.837 922 622V554C922 545.163 914.837 538 906 538Z" fill="#F0F0F0"/>
<path d="M830.576 594H836.156V592.512H832.352V590.148H835.46V588.648H832.352V586.596H836.024V585.12H830.576V594ZM837.959 594H839.639V590.448C839.639 589.416 839.495 588.3 839.411 587.352H839.471L840.371 589.248L842.939 594H844.751V585.12H843.059V588.66C843.059 589.668 843.203 590.856 843.299 591.78H843.239L842.339 589.86L839.759 585.12H837.959V594ZM850.763 594.168C851.987 594.168 853.043 593.7 853.643 593.1V589.104H850.475V590.556H852.059V592.308C851.807 592.512 851.375 592.632 850.943 592.632C849.203 592.632 848.315 591.48 848.315 589.536C848.315 587.64 849.335 586.488 850.823 586.488C851.615 586.488 852.119 586.812 852.563 587.232L853.499 586.092C852.923 585.516 852.035 584.964 850.763 584.964C848.399 584.964 846.503 586.668 846.503 589.596C846.503 592.56 848.351 594.168 850.763 594.168ZM855.549 594H857.325V585.12H855.549V594ZM859.51 594H861.19V590.448C861.19 589.416 861.046 588.3 860.962 587.352H861.022L861.922 589.248L864.49 594H866.302V585.12H864.61V588.66C864.61 589.668 864.754 590.856 864.85 591.78H864.79L863.89 589.86L861.31 585.12H859.51V594ZM868.498 594H874.078V592.512H870.274V590.148H873.382V588.648H870.274V586.596H873.946V585.12H868.498V594ZM875.881 594H881.461V592.512H877.657V590.148H880.765V588.648H877.657V586.596H881.329V585.12H875.881V594ZM883.264 594H885.04V590.652H886.348C888.208 590.652 889.684 589.788 889.684 587.808C889.684 585.768 888.208 585.12 886.348 585.12H883.264V594ZM885.04 589.248V586.536H886.18C887.332 586.536 887.956 586.86 887.956 587.808C887.956 588.756 887.332 589.248 886.18 589.248H885.04ZM888.088 594H890.068L887.26 589.08L886.024 590.196L888.088 594ZM890.508 596.184H891.684L894.672 584.328H893.508L890.508 596.184ZM899.413 594.168C901.765 594.168 903.373 592.416 903.373 589.524C903.373 586.644 901.765 584.964 899.413 584.964C897.049 584.964 895.441 586.632 895.441 589.524C895.441 592.416 897.049 594.168 899.413 594.168ZM899.413 592.716C898.081 592.716 897.253 591.528 897.253 589.524C897.253 587.628 898.081 586.488 899.413 586.488C900.733 586.488 901.573 587.628 901.573 589.524C901.573 591.528 900.733 592.716 899.413 592.716ZM902.281 596.412C902.929 596.412 903.457 596.304 903.781 596.148L903.457 594.84C903.193 594.936 902.869 594.996 902.473 594.996C901.585 594.996 900.673 594.636 900.337 593.772L898.537 593.952C899.101 595.368 900.397 596.412 902.281 596.412ZM903.78 594H905.58L906.852 589.38C907.116 588.456 907.368 587.436 907.608 586.476H907.656C907.908 587.424 908.16 588.456 908.424 589.38L909.696 594H911.556L908.712 585.12H906.624L903.78 594ZM905.544 591.72H909.768V590.352H905.544V591.72Z" fill="#808080"/>
<path d="M1022 538H950C941.163 538 934 545.163 934 554V622C934 630.837 941.163 638 950 638H1022C1030.84 638 1038 630.837 1038 622V554C1038 545.163 1030.84 538 1022 538Z" fill="#F0F0F0"/>
<path d="M940.262 594H942.038V590.16H945.398V594H947.162V585.12H945.398V588.624H942.038V585.12H940.262V594ZM949.344 594H951.12V590.652H952.428C954.288 590.652 955.764 589.788 955.764 587.808C955.764 585.768 954.288 585.12 952.428 585.12H949.344V594ZM951.12 589.248V586.536H952.26C953.412 586.536 954.036 586.86 954.036 587.808C954.036 588.756 953.412 589.248 952.26 589.248H951.12ZM954.168 594H956.148L953.34 589.08L952.104 590.196L954.168 594ZM956.588 596.184H957.764L960.752 584.328H959.588L956.588 596.184ZM962.164 594H963.748V590.292C963.748 589.452 963.616 588.216 963.52 587.376H963.568L964.288 589.464L965.656 593.208H966.676L968.044 589.464L968.776 587.376H968.836C968.74 588.216 968.596 589.452 968.596 590.292V594H970.216V585.12H968.248L966.772 589.284C966.592 589.836 966.436 590.412 966.232 590.988H966.184C965.992 590.412 965.836 589.836 965.632 589.284L964.12 585.12H962.164V594ZM971.255 594H973.055L974.327 589.38C974.591 588.456 974.843 587.436 975.083 586.476H975.131C975.383 587.424 975.635 588.456 975.899 589.38L977.171 594H979.031L976.187 585.12H974.099L971.255 594ZM973.019 591.72H977.243V590.352H973.019V591.72ZM980.082 594H981.858V590.652H983.166C985.026 590.652 986.502 589.788 986.502 587.808C986.502 585.768 985.026 585.12 983.166 585.12H980.082V594ZM981.858 589.248V586.536H982.998C984.15 586.536 984.774 586.86 984.774 587.808C984.774 588.756 984.15 589.248 982.998 589.248H981.858ZM984.906 594H986.886L984.078 589.08L982.842 590.196L984.906 594ZM988.262 594H990.038V591.504L991.202 590.016L993.506 594H995.438L992.246 588.612L994.97 585.12H993.014L990.062 588.972H990.038V585.12H988.262V594ZM996.488 594H1002.07V592.512H998.264V590.148H1001.37V588.648H998.264V586.596H1001.94V585.12H996.488V594ZM1005.64 594H1007.41V586.596H1009.92V585.12H1003.13V586.596H1005.64V594ZM1011.37 594H1013.15V585.12H1011.37V594ZM1015.33 594H1017.01V590.448C1017.01 589.416 1016.87 588.3 1016.78 587.352H1016.84L1017.74 589.248L1020.31 594H1022.12V585.12H1020.43V588.66C1020.43 589.668 1020.58 590.856 1020.67 591.78H1020.61L1019.71 589.86L1017.13 585.12H1015.33V594ZM1028.14 594.168C1029.36 594.168 1030.42 593.7 1031.02 593.1V589.104H1027.85V590.556H1029.43V592.308C1029.18 592.512 1028.75 592.632 1028.32 592.632C1026.58 592.632 1025.69 591.48 1025.69 589.536C1025.69 587.64 1026.71 586.488 1028.2 586.488C1028.99 586.488 1029.49 586.812 1029.94 587.232L1030.87 586.092C1030.3 585.516 1029.41 584.964 1028.14 584.964C1025.77 584.964 1023.88 586.668 1023.88 589.596C1023.88 592.56 1025.72 594.168 1028.14 594.168Z" fill="#808080"/>
<path d="M789 288V264C789 252.954 780.046 244 769 244H269C257.954 244 249 252.954 249 264V288" stroke="#F0F0F0" stroke-width="2"/>
<path d="M986 538V528C986 516.954 977.046 508 966 508H72C60.9543 508 52 516.954 52 528V538" stroke="#F0F0F0" stroke-width="2"/>
<path d="M518 159V540H520V159H518Z" fill="#F0F0F0"/>
<path d="M519 168C565.392 168 603 130.392 603 84C603 37.6081 565.392 0 519 0C472.608 0 435 37.6081 435 84C435 130.392 472.608 168 519 168Z" fill="#0000F4"/>
<path d="M500.339 83C503.267 83 505.676 81.8125 507.537 79.5938L505.158 76.7188C503.938 78.0625 502.444 79 500.492 79C496.923 79 494.605 75.9687 494.605 70.9375C494.605 65.9687 497.167 62.9688 500.583 62.9688C502.291 62.9688 503.602 63.7813 504.761 64.9063L507.11 61.9687C505.646 60.4062 503.358 59 500.492 59C494.788 59 490 63.4688 490 71.0938C490 78.8125 494.636 83 500.339 83ZM511.174 82.5625H525.356V78.6875H515.688V72.5H523.617V68.625H515.688V63.2813H525.02V59.4063H511.174V82.5625ZM538.905 83C544.883 83 549 78.4062 549 70.9062C549 63.4062 544.883 59 538.905 59C532.927 59 528.81 63.375 528.81 70.9062C528.81 78.4062 532.927 83 538.905 83ZM538.905 79C535.55 79 533.415 75.8437 533.415 70.9062C533.415 65.9375 535.55 62.9688 538.905 62.9688C542.26 62.9688 544.395 65.9375 544.395 70.9062C544.395 75.8437 542.26 79 538.905 79Z" fill="white"/>
<path d="M478.617 99.24H479.505V106.872H484.209V107.64H478.617V99.24ZM491.623 106.872V107.64H485.683V99.24H491.443V100.008H486.571V102.996H490.915V103.752H486.571V106.872H491.623ZM497.312 107.712C496.48 107.712 495.728 107.528 495.056 107.16C494.392 106.792 493.868 106.284 493.484 105.636C493.108 104.98 492.92 104.248 492.92 103.44C492.92 102.632 493.108 101.904 493.484 101.256C493.868 100.6 494.396 100.088 495.068 99.72C495.74 99.352 496.492 99.168 497.324 99.168C497.948 99.168 498.524 99.272 499.052 99.48C499.58 99.688 500.028 99.992 500.396 100.392L499.832 100.956C499.176 100.292 498.348 99.96 497.348 99.96C496.684 99.96 496.08 100.112 495.536 100.416C494.992 100.72 494.564 101.136 494.252 101.664C493.948 102.192 493.796 102.784 493.796 103.44C493.796 104.096 493.948 104.688 494.252 105.216C494.564 105.744 494.992 106.16 495.536 106.464C496.08 106.768 496.684 106.92 497.348 106.92C498.356 106.92 499.184 106.584 499.832 105.912L500.396 106.476C500.028 106.876 499.576 107.184 499.04 107.4C498.512 107.608 497.936 107.712 497.312 107.712ZM502.289 99.24H503.177V106.872H507.881V107.64H502.289V99.24ZM515.295 106.872V107.64H509.355V99.24H515.115V100.008H510.243V102.996H514.587V103.752H510.243V106.872H515.295ZM523.127 103.692L521.411 105.432V107.64H520.523V99.24H521.411V104.316L526.343 99.24H527.363L523.727 103.044L527.615 107.64H526.559L523.127 103.692ZM532.422 107.712C531.59 107.712 530.834 107.528 530.154 107.16C529.482 106.784 528.954 106.272 528.57 105.624C528.194 104.976 528.006 104.248 528.006 103.44C528.006 102.632 528.194 101.904 528.57 101.256C528.954 100.608 529.482 100.1 530.154 99.732C530.834 99.356 531.59 99.168 532.422 99.168C533.254 99.168 534.002 99.352 534.666 99.72C535.338 100.088 535.866 100.6 536.25 101.256C536.634 101.904 536.826 102.632 536.826 103.44C536.826 104.248 536.634 104.98 536.25 105.636C535.866 106.284 535.338 106.792 534.666 107.16C534.002 107.528 533.254 107.712 532.422 107.712ZM532.422 106.92C533.086 106.92 533.686 106.772 534.222 106.476C534.758 106.172 535.178 105.756 535.482 105.228C535.786 104.692 535.938 104.096 535.938 103.44C535.938 102.784 535.786 102.192 535.482 101.664C535.178 101.128 534.758 100.712 534.222 100.416C533.686 100.112 533.086 99.96 532.422 99.96C531.758 99.96 531.154 100.112 530.61 100.416C530.074 100.712 529.65 101.128 529.338 101.664C529.034 102.192 528.882 102.784 528.882 103.44C528.882 104.096 529.034 104.692 529.338 105.228C529.65 105.756 530.074 106.172 530.61 106.476C531.154 106.772 531.758 106.92 532.422 106.92ZM544.552 107.64L542.632 104.94C542.416 104.964 542.192 104.976 541.96 104.976H539.704V107.64H538.816V99.24H541.96C543.032 99.24 543.872 99.496 544.48 100.008C545.088 100.52 545.392 101.224 545.392 102.12C545.392 102.776 545.224 103.332 544.888 103.788C544.56 104.236 544.088 104.56 543.472 104.76L545.524 107.64H544.552ZM541.936 104.22C542.768 104.22 543.404 104.036 543.844 103.668C544.284 103.3 544.504 102.784 544.504 102.12C544.504 101.44 544.284 100.92 543.844 100.56C543.404 100.192 542.768 100.008 541.936 100.008H539.704V104.22H541.936ZM553.428 106.872V107.64H547.488V99.24H553.248V100.008H548.376V102.996H552.72V103.752H548.376V106.872H553.428ZM560.783 105.396H556.103L555.095 107.64H554.171L558.011 99.24H558.887L562.727 107.64H561.791L560.783 105.396ZM560.459 104.676L558.443 100.164L556.427 104.676H560.459Z" fill="white"/>
<path d="M428 245V330H430V245H428Z" fill="#F0F0F0"/>
<path d="M608 245V330H610V245H608Z" fill="#F0F0F0"/>
<path d="M869 508V546H871V508H869Z" fill="#F0F0F0"/>
<path d="M753 508V546H755V508H753Z" fill="#F0F0F0"/>
<path d="M636 508V546H638V508H636Z" fill="#F0F0F0"/>
<path d="M402 508V546H404V508H402Z" fill="#F0F0F0"/>
<path d="M285 508V546H287V508H285Z" fill="#F0F0F0"/>
<path d="M168 508V546H170V508H168Z" fill="#F0F0F0"/>
<path d="M304 288H194C182.954 288 174 296.954 174 308V418C174 429.046 182.954 438 194 438H304C315.046 438 324 429.046 324 418V308C324 296.954 315.046 288 304 288Z" fill="#1A1A1A"/>
<path d="M239.36 346C240.878 346 242.127 345.406 243.092 344.297L241.858 342.859C241.226 343.531 240.451 344 239.439 344C237.589 344 236.388 342.484 236.388 339.969C236.388 337.484 237.716 335.984 239.487 335.984C240.372 335.984 241.052 336.391 241.653 336.953L242.87 335.484C242.111 334.703 240.926 334 239.439 334C236.482 334 234 336.234 234 340.047C234 343.906 236.403 346 239.36 346ZM247.054 345.781H249.394V336.141H252.714V334.203H243.765V336.141H247.054V345.781ZM258.766 346C261.865 346 264 343.703 264 339.953C264 336.203 261.865 334 258.766 334C255.667 334 253.533 336.187 253.533 339.953C253.533 343.703 255.667 346 258.766 346ZM258.766 344C257.027 344 255.92 342.422 255.92 339.953C255.92 337.469 257.027 335.984 258.766 335.984C260.506 335.984 261.612 337.469 261.612 339.953C261.612 342.422 260.506 344 258.766 344Z" fill="white"/>
<path d="M199.06 366.072H199.948V373.704H204.652V374.472H199.06V366.072ZM212.067 373.704V374.472H206.127V366.072H211.887V366.84H207.015V369.828H211.359V370.584H207.015V373.704H212.067ZM217.755 374.544C216.923 374.544 216.171 374.36 215.499 373.992C214.835 373.624 214.311 373.116 213.927 372.468C213.551 371.812 213.363 371.08 213.363 370.272C213.363 369.464 213.551 368.736 213.927 368.088C214.311 367.432 214.839 366.92 215.511 366.552C216.183 366.184 216.935 366 217.767 366C218.391 366 218.967 366.104 219.495 366.312C220.023 366.52 220.471 366.824 220.839 367.224L220.275 367.788C219.619 367.124 218.791 366.792 217.791 366.792C217.127 366.792 216.523 366.944 215.979 367.248C215.435 367.552 215.007 367.968 214.695 368.496C214.391 369.024 214.239 369.616 214.239 370.272C214.239 370.928 214.391 371.52 214.695 372.048C215.007 372.576 215.435 372.992 215.979 373.296C216.523 373.6 217.127 373.752 217.791 373.752C218.799 373.752 219.627 373.416 220.275 372.744L220.839 373.308C220.471 373.708 220.019 374.016 219.483 374.232C218.955 374.44 218.379 374.544 217.755 374.544ZM222.732 366.072H223.62V373.704H228.324V374.472H222.732V366.072ZM235.739 373.704V374.472H229.799V366.072H235.559V366.84H230.687V369.828H235.031V370.584H230.687V373.704H235.739ZM247.951 366.072L244.231 374.472H243.355L239.635 366.072H240.595L243.811 373.368L247.051 366.072H247.951ZM249.17 366.072H250.058V374.472H249.17V366.072ZM258.731 373.704V374.472H252.791V366.072H258.551V366.84H253.679V369.828H258.023V370.584H253.679V373.704H258.731ZM262.45 366.84H259.498V366.072H266.29V366.84H263.338V374.472H262.45V366.84ZM274.729 366.072V374.472H273.997L268.597 367.656V374.472H267.709V366.072H268.441L273.853 372.888V366.072H274.729ZM282.739 372.228H278.059L277.051 374.472H276.127L279.967 366.072H280.843L284.683 374.472H283.747L282.739 372.228ZM282.415 371.508L280.399 366.996L278.383 371.508H282.415ZM294.796 366.072V374.472H293.944V367.752L290.644 373.404H290.224L286.924 367.788V374.472H286.072V366.072H286.804L290.452 372.3L294.064 366.072H294.796ZM195.41 384.072H198.83C199.718 384.072 200.502 384.252 201.182 384.612C201.862 384.964 202.39 385.46 202.766 386.1C203.142 386.732 203.33 387.456 203.33 388.272C203.33 389.088 203.142 389.816 202.766 390.456C202.39 391.088 201.862 391.584 201.182 391.944C200.502 392.296 199.718 392.472 198.83 392.472H195.41V384.072ZM198.782 391.704C199.518 391.704 200.162 391.56 200.714 391.272C201.266 390.976 201.694 390.572 201.998 390.06C202.302 389.54 202.454 388.944 202.454 388.272C202.454 387.6 202.302 387.008 201.998 386.496C201.694 385.976 201.266 385.572 200.714 385.284C200.162 384.988 199.518 384.84 198.782 384.84H196.298V391.704H198.782ZM211.264 391.704V392.472H205.324V384.072H211.084V384.84H206.212V387.828H210.556V388.584H206.212V391.704H211.264ZM220.218 384.072L216.498 392.472H215.622L211.902 384.072H212.862L216.078 391.368L219.318 384.072H220.218ZM227.377 391.704V392.472H221.437V384.072H227.197V384.84H222.325V387.828H226.669V388.584H222.325V391.704H227.377ZM229.465 384.072H230.353V391.704H235.057V392.472H229.465V384.072ZM240.039 392.544C239.207 392.544 238.451 392.36 237.771 391.992C237.099 391.616 236.571 391.104 236.187 390.456C235.811 389.808 235.623 389.08 235.623 388.272C235.623 387.464 235.811 386.736 236.187 386.088C236.571 385.44 237.099 384.932 237.771 384.564C238.451 384.188 239.207 384 240.039 384C240.871 384 241.619 384.184 242.283 384.552C242.955 384.92 243.483 385.432 243.867 386.088C244.251 386.736 244.443 387.464 244.443 388.272C244.443 389.08 244.251 389.812 243.867 390.468C243.483 391.116 242.955 391.624 242.283 391.992C241.619 392.36 240.871 392.544 240.039 392.544ZM240.039 391.752C240.703 391.752 241.303 391.604 241.839 391.308C242.375 391.004 242.795 390.588 243.099 390.06C243.403 389.524 243.555 388.928 243.555 388.272C243.555 387.616 243.403 387.024 243.099 386.496C242.795 385.96 242.375 385.544 241.839 385.248C241.303 384.944 240.703 384.792 240.039 384.792C239.375 384.792 238.771 384.944 238.227 385.248C237.691 385.544 237.267 385.96 236.955 386.496C236.651 387.024 236.499 387.616 236.499 388.272C236.499 388.928 236.651 389.524 236.955 390.06C237.267 390.588 237.691 391.004 238.227 391.308C238.771 391.604 239.375 391.752 240.039 391.752ZM249.577 384.072C250.649 384.072 251.489 384.328 252.097 384.84C252.705 385.352 253.009 386.056 253.009 386.952C253.009 387.848 252.705 388.552 252.097 389.064C251.489 389.568 250.649 389.82 249.577 389.82H247.321V392.472H246.433V384.072H249.577ZM249.553 389.04C250.385 389.04 251.021 388.86 251.461 388.5C251.901 388.132 252.121 387.616 252.121 386.952C252.121 386.272 251.901 385.752 251.461 385.392C251.021 385.024 250.385 384.84 249.553 384.84H247.321V389.04H249.553ZM264.103 388.272H264.955V391.476C264.563 391.82 264.099 392.084 263.563 392.268C263.027 392.452 262.463 392.544 261.871 392.544C261.031 392.544 260.275 392.36 259.603 391.992C258.931 391.624 258.403 391.116 258.019 390.468C257.635 389.812 257.443 389.08 257.443 388.272C257.443 387.464 257.635 386.736 258.019 386.088C258.403 385.432 258.931 384.92 259.603 384.552C260.275 384.184 261.035 384 261.883 384C262.523 384 263.111 384.104 263.647 384.312C264.183 384.512 264.635 384.812 265.003 385.212L264.451 385.776C263.787 385.12 262.943 384.792 261.919 384.792C261.239 384.792 260.623 384.944 260.071 385.248C259.527 385.544 259.099 385.96 258.787 386.496C258.475 387.024 258.319 387.616 258.319 388.272C258.319 388.928 258.475 389.52 258.787 390.048C259.099 390.576 259.527 390.992 260.071 391.296C260.615 391.6 261.227 391.752 261.907 391.752C262.771 391.752 263.503 391.536 264.103 391.104V388.272ZM273.205 392.472L271.285 389.772C271.069 389.796 270.845 389.808 270.613 389.808H268.357V392.472H267.469V384.072H270.613C271.685 384.072 272.525 384.328 273.133 384.84C273.741 385.352 274.045 386.056 274.045 386.952C274.045 387.608 273.877 388.164 273.541 388.62C273.213 389.068 272.741 389.392 272.125 389.592L274.177 392.472H273.205ZM270.589 389.052C271.421 389.052 272.057 388.868 272.497 388.5C272.937 388.132 273.157 387.616 273.157 386.952C273.157 386.272 272.937 385.752 272.497 385.392C272.057 385.024 271.421 384.84 270.589 384.84H268.357V389.052H270.589ZM279.812 392.544C278.98 392.544 278.224 392.36 277.544 391.992C276.872 391.616 276.344 391.104 275.96 390.456C275.584 389.808 275.396 389.08 275.396 388.272C275.396 387.464 275.584 386.736 275.96 386.088C276.344 385.44 276.872 384.932 277.544 384.564C278.224 384.188 278.98 384 279.812 384C280.644 384 281.392 384.184 282.056 384.552C282.728 384.92 283.256 385.432 283.64 386.088C284.024 386.736 284.216 387.464 284.216 388.272C284.216 389.08 284.024 389.812 283.64 390.468C283.256 391.116 282.728 391.624 282.056 391.992C281.392 392.36 280.644 392.544 279.812 392.544ZM279.812 391.752C280.476 391.752 281.076 391.604 281.612 391.308C282.148 391.004 282.568 390.588 282.872 390.06C283.176 389.524 283.328 388.928 283.328 388.272C283.328 387.616 283.176 387.024 282.872 386.496C282.568 385.96 282.148 385.544 281.612 385.248C281.076 384.944 280.476 384.792 279.812 384.792C279.148 384.792 278.544 384.944 278 385.248C277.464 385.544 277.04 385.96 276.728 386.496C276.424 387.024 276.272 387.616 276.272 388.272C276.272 388.928 276.424 389.524 276.728 390.06C277.04 390.588 277.464 391.004 278 391.308C278.544 391.604 279.148 391.752 279.812 391.752ZM289.591 392.544C288.503 392.544 287.655 392.232 287.047 391.608C286.439 390.984 286.135 390.076 286.135 388.884V384.072H287.023V388.848C287.023 389.824 287.243 390.552 287.683 391.032C288.123 391.512 288.759 391.752 289.591 391.752C290.431 391.752 291.071 391.512 291.511 391.032C291.951 390.552 292.171 389.824 292.171 388.848V384.072H293.035V388.884C293.035 390.076 292.731 390.984 292.123 391.608C291.523 392.232 290.679 392.544 289.591 392.544ZM298.855 384.072C299.927 384.072 300.767 384.328 301.375 384.84C301.983 385.352 302.287 386.056 302.287 386.952C302.287 387.848 301.983 388.552 301.375 389.064C300.767 389.568 299.927 389.82 298.855 389.82H296.599V392.472H295.711V384.072H298.855ZM298.831 389.04C299.663 389.04 300.299 388.86 300.739 388.5C301.179 388.132 301.399 387.616 301.399 386.952C301.399 386.272 301.179 385.752 300.739 385.392C300.299 385.024 299.663 384.84 298.831 384.84H296.599V389.04H298.831Z" fill="white"/>
<path d="M484 288H374C362.954 288 354 296.954 354 308V418C354 429.046 362.954 438 374 438H484C495.046 438 504 429.046 504 418V308C504 296.954 495.046 288 484 288Z" fill="#1A1A1A"/>
<path d="M418.12 345.786C419.57 345.786 420.764 345.203 421.685 344.113L420.506 342.701C419.903 343.361 419.163 343.821 418.196 343.821C416.429 343.821 415.281 342.333 415.281 339.862C415.281 337.422 416.55 335.949 418.241 335.949C419.087 335.949 419.737 336.348 420.311 336.9L421.474 335.458C420.749 334.691 419.616 334 418.196 334C415.371 334 413 336.194 413 339.939C413 343.729 415.296 345.786 418.12 345.786ZM423.485 345.571H425.72V341.535H427.216C429.617 341.535 431.536 340.369 431.536 337.775C431.536 335.09 429.633 334.2 427.155 334.2H423.485V345.571ZM425.72 339.739V336.01H426.989C428.53 336.01 429.346 336.455 429.346 337.775C429.346 339.08 428.605 339.739 427.065 339.739H425.72ZM438 345.786C440.961 345.786 443 343.53 443 339.847C443 336.164 440.961 334 438 334C435.04 334 433.001 336.148 433.001 339.847C433.001 343.53 435.04 345.786 438 345.786ZM438 343.821C436.339 343.821 435.282 342.271 435.282 339.847C435.282 337.407 436.339 335.949 438 335.949C439.662 335.949 440.719 337.407 440.719 339.847C440.719 342.271 439.662 343.821 438 343.821Z" fill="white"/>
<path d="M400.64 365.857C401.712 365.857 402.552 366.113 403.16 366.625C403.768 367.137 404.072 367.841 404.072 368.737C404.072 369.633 403.768 370.337 403.16 370.849C402.552 371.353 401.712 371.605 400.64 371.605H398.384V374.257H397.496V365.857H400.64ZM400.616 370.825C401.448 370.825 402.084 370.645 402.524 370.285C402.964 369.917 403.184 369.401 403.184 368.737C403.184 368.057 402.964 367.537 402.524 367.177C402.084 366.809 401.448 366.625 400.616 366.625H398.384V370.825H400.616ZM411.729 374.257L409.809 371.557C409.593 371.581 409.369 371.593 409.137 371.593H406.881V374.257H405.993V365.857H409.137C410.209 365.857 411.049 366.113 411.657 366.625C412.265 367.137 412.569 367.841 412.569 368.737C412.569 369.393 412.401 369.949 412.065 370.405C411.737 370.853 411.265 371.177 410.649 371.377L412.701 374.257H411.729ZM409.113 370.837C409.945 370.837 410.581 370.653 411.021 370.285C411.461 369.917 411.681 369.401 411.681 368.737C411.681 368.057 411.461 367.537 411.021 367.177C410.581 366.809 409.945 366.625 409.113 366.625H406.881V370.837H409.113ZM418.336 374.329C417.504 374.329 416.748 374.145 416.068 373.777C415.396 373.401 414.868 372.889 414.484 372.241C414.108 371.593 413.92 370.865 413.92 370.057C413.92 369.249 414.108 368.521 414.484 367.873C414.868 367.225 415.396 366.717 416.068 366.349C416.748 365.973 417.504 365.785 418.336 365.785C419.168 365.785 419.916 365.969 420.58 366.337C421.252 366.705 421.78 367.217 422.164 367.873C422.548 368.521 422.74 369.249 422.74 370.057C422.74 370.865 422.548 371.597 422.164 372.253C421.78 372.901 421.252 373.409 420.58 373.777C419.916 374.145 419.168 374.329 418.336 374.329ZM418.336 373.537C419 373.537 419.6 373.389 420.136 373.093C420.672 372.789 421.092 372.373 421.396 371.845C421.7 371.309 421.852 370.713 421.852 370.057C421.852 369.401 421.7 368.809 421.396 368.281C421.092 367.745 420.672 367.329 420.136 367.033C419.6 366.729 419 366.577 418.336 366.577C417.672 366.577 417.068 366.729 416.524 367.033C415.988 367.329 415.564 367.745 415.252 368.281C414.948 368.809 414.796 369.401 414.796 370.057C414.796 370.713 414.948 371.309 415.252 371.845C415.564 372.373 415.988 372.789 416.524 373.093C417.068 373.389 417.672 373.537 418.336 373.537ZM424.731 365.857H428.151C429.039 365.857 429.823 366.037 430.503 366.397C431.183 366.749 431.711 367.245 432.087 367.885C432.463 368.517 432.651 369.241 432.651 370.057C432.651 370.873 432.463 371.601 432.087 372.241C431.711 372.873 431.183 373.369 430.503 373.729C429.823 374.081 429.039 374.257 428.151 374.257H424.731V365.857ZM428.103 373.489C428.839 373.489 429.483 373.345 430.035 373.057C430.587 372.761 431.015 372.357 431.319 371.845C431.623 371.325 431.775 370.729 431.775 370.057C431.775 369.385 431.623 368.793 431.319 368.281C431.015 367.761 430.587 367.357 430.035 367.069C429.483 366.773 428.839 366.625 428.103 366.625H425.619V373.489H428.103ZM438.029 374.329C436.941 374.329 436.093 374.017 435.485 373.393C434.877 372.769 434.573 371.861 434.573 370.669V365.857H435.461V370.633C435.461 371.609 435.681 372.337 436.121 372.817C436.561 373.297 437.197 373.537 438.029 373.537C438.869 373.537 439.509 373.297 439.949 372.817C440.389 372.337 440.609 371.609 440.609 370.633V365.857H441.473V370.669C441.473 371.861 441.169 372.769 440.561 373.393C439.961 374.017 439.117 374.329 438.029 374.329ZM447.797 374.329C446.965 374.329 446.213 374.145 445.541 373.777C444.877 373.409 444.353 372.901 443.969 372.253C443.593 371.597 443.405 370.865 443.405 370.057C443.405 369.249 443.593 368.521 443.969 367.873C444.353 367.217 444.881 366.705 445.553 366.337C446.225 365.969 446.977 365.785 447.809 365.785C448.433 365.785 449.009 365.889 449.537 366.097C450.065 366.305 450.513 366.609 450.881 367.009L450.317 367.573C449.661 366.909 448.833 366.577 447.833 366.577C447.169 366.577 446.565 366.729 446.021 367.033C445.477 367.337 445.049 367.753 444.737 368.281C444.433 368.809 444.281 369.401 444.281 370.057C444.281 370.713 444.433 371.305 444.737 371.833C445.049 372.361 445.477 372.777 446.021 373.081C446.565 373.385 447.169 373.537 447.833 373.537C448.841 373.537 449.669 373.201 450.317 372.529L450.881 373.093C450.513 373.493 450.061 373.801 449.525 374.017C448.997 374.225 448.421 374.329 447.797 374.329ZM454.3 366.625H451.348V365.857H458.14V366.625H455.188V374.257H454.3V366.625ZM384.416 392.329C383.584 392.329 382.828 392.145 382.148 391.777C381.476 391.401 380.948 390.889 380.564 390.241C380.188 389.593 380 388.865 380 388.057C380 387.249 380.188 386.521 380.564 385.873C380.948 385.225 381.476 384.717 382.148 384.349C382.828 383.973 383.584 383.785 384.416 383.785C385.248 383.785 385.996 383.969 386.66 384.337C387.332 384.705 387.86 385.217 388.244 385.873C388.628 386.521 388.82 387.249 388.82 388.057C388.82 388.865 388.628 389.597 388.244 390.253C387.86 390.901 387.332 391.409 386.66 391.777C385.996 392.145 385.248 392.329 384.416 392.329ZM384.416 391.537C385.08 391.537 385.68 391.389 386.216 391.093C386.752 390.789 387.172 390.373 387.476 389.845C387.78 389.309 387.932 388.713 387.932 388.057C387.932 387.401 387.78 386.809 387.476 386.281C387.172 385.745 386.752 385.329 386.216 385.033C385.68 384.729 385.08 384.577 384.416 384.577C383.752 384.577 383.148 384.729 382.604 385.033C382.068 385.329 381.644 385.745 381.332 386.281C381.028 386.809 380.876 387.401 380.876 388.057C380.876 388.713 381.028 389.309 381.332 389.845C381.644 390.373 382.068 390.789 382.604 391.093C383.148 391.389 383.752 391.537 384.416 391.537ZM402.085 383.857L399.253 392.257H398.317L395.857 385.093L393.385 392.257H392.461L389.629 383.857H390.541L392.965 391.081L395.473 383.857H396.301L398.773 391.117L401.233 383.857H402.085ZM410.733 383.857V392.257H410.001L404.601 385.441V392.257H403.713V383.857H404.445L409.857 390.673V383.857H410.733ZM419.415 391.489V392.257H413.475V383.857H419.235V384.625H414.363V387.613H418.707V388.369H414.363V391.489H419.415ZM427.238 392.257L425.318 389.557C425.102 389.581 424.878 389.593 424.646 389.593H422.39V392.257H421.502V383.857H424.646C425.718 383.857 426.558 384.113 427.166 384.625C427.774 385.137 428.078 385.841 428.078 386.737C428.078 387.393 427.91 387.949 427.574 388.405C427.246 388.853 426.774 389.177 426.158 389.377L428.21 392.257H427.238ZM424.622 388.837C425.454 388.837 426.09 388.653 426.53 388.285C426.97 387.917 427.19 387.401 427.19 386.737C427.19 386.057 426.97 385.537 426.53 385.177C426.09 384.809 425.454 384.625 424.622 384.625H422.39V388.837H424.622ZM439.231 388.057H440.083V391.261C439.691 391.605 439.227 391.869 438.691 392.053C438.155 392.237 437.591 392.329 436.999 392.329C436.159 392.329 435.403 392.145 434.731 391.777C434.059 391.409 433.531 390.901 433.147 390.253C432.763 389.597 432.571 388.865 432.571 388.057C432.571 387.249 432.763 386.521 433.147 385.873C433.531 385.217 434.059 384.705 434.731 384.337C435.403 383.969 436.163 383.785 437.011 383.785C437.651 383.785 438.239 383.889 438.775 384.097C439.311 384.297 439.763 384.597 440.131 384.997L439.579 385.561C438.915 384.905 438.071 384.577 437.047 384.577C436.367 384.577 435.751 384.729 435.199 385.033C434.655 385.329 434.227 385.745 433.915 386.281C433.603 386.809 433.447 387.401 433.447 388.057C433.447 388.713 433.603 389.305 433.915 389.833C434.227 390.361 434.655 390.777 435.199 391.081C435.743 391.385 436.355 391.537 437.035 391.537C437.899 391.537 438.631 391.321 439.231 390.889V388.057ZM448.332 392.257L446.412 389.557C446.196 389.581 445.972 389.593 445.74 389.593H443.484V392.257H442.596V383.857H445.74C446.812 383.857 447.652 384.113 448.26 384.625C448.868 385.137 449.172 385.841 449.172 386.737C449.172 387.393 449.004 387.949 448.668 388.405C448.34 388.853 447.868 389.177 447.252 389.377L449.304 392.257H448.332ZM445.716 388.837C446.548 388.837 447.184 388.653 447.624 388.285C448.064 387.917 448.284 387.401 448.284 386.737C448.284 386.057 448.064 385.537 447.624 385.177C447.184 384.809 446.548 384.625 445.716 384.625H443.484V388.837H445.716ZM454.94 392.329C454.108 392.329 453.352 392.145 452.672 391.777C452 391.401 451.472 390.889 451.088 390.241C450.712 389.593 450.524 388.865 450.524 388.057C450.524 387.249 450.712 386.521 451.088 385.873C451.472 385.225 452 384.717 452.672 384.349C453.352 383.973 454.108 383.785 454.94 383.785C455.772 383.785 456.52 383.969 457.184 384.337C457.856 384.705 458.384 385.217 458.768 385.873C459.152 386.521 459.344 387.249 459.344 388.057C459.344 388.865 459.152 389.597 458.768 390.253C458.384 390.901 457.856 391.409 457.184 391.777C456.52 392.145 455.772 392.329 454.94 392.329ZM454.94 391.537C455.604 391.537 456.204 391.389 456.74 391.093C457.276 390.789 457.696 390.373 458 389.845C458.304 389.309 458.456 388.713 458.456 388.057C458.456 387.401 458.304 386.809 458 386.281C457.696 385.745 457.276 385.329 456.74 385.033C456.204 384.729 455.604 384.577 454.94 384.577C454.276 384.577 453.672 384.729 453.128 385.033C452.592 385.329 452.168 385.745 451.856 386.281C451.552 386.809 451.4 387.401 451.4 388.057C451.4 388.713 451.552 389.309 451.856 389.845C452.168 390.373 452.592 390.789 453.128 391.093C453.672 391.389 454.276 391.537 454.94 391.537ZM464.718 392.329C463.63 392.329 462.782 392.017 462.174 391.393C461.566 390.769 461.262 389.861 461.262 388.669V383.857H462.15V388.633C462.15 389.609 462.37 390.337 462.81 390.817C463.25 391.297 463.886 391.537 464.718 391.537C465.558 391.537 466.198 391.297 466.638 390.817C467.078 390.337 467.298 389.609 467.298 388.633V383.857H468.162V388.669C468.162 389.861 467.858 390.769 467.25 391.393C466.65 392.017 465.806 392.329 464.718 392.329ZM473.982 383.857C475.054 383.857 475.894 384.113 476.502 384.625C477.11 385.137 477.414 385.841 477.414 386.737C477.414 387.633 477.11 388.337 476.502 388.849C475.894 389.353 475.054 389.605 473.982 389.605H471.726V392.257H470.838V383.857H473.982ZM473.958 388.825C474.79 388.825 475.426 388.645 475.866 388.285C476.306 387.917 476.526 387.401 476.526 386.737C476.526 386.057 476.306 385.537 475.866 385.177C475.426 384.809 474.79 384.625 473.958 384.625H471.726V388.825H473.958Z" fill="white"/>
<path d="M664 288H554C542.954 288 534 296.954 534 308V418C534 429.046 542.954 438 554 438H664C675.046 438 684 429.046 684 418V308C684 296.954 675.046 288 664 288Z" fill="#1A1A1A"/>
<path d="M598.319 346.001C599.825 346.001 601.065 345.405 602.022 344.291L600.798 342.848C600.17 343.522 599.402 343.993 598.397 343.993C596.562 343.993 595.369 342.471 595.369 339.945C595.369 337.45 596.687 335.944 598.445 335.944C599.323 335.944 599.998 336.352 600.594 336.917L601.802 335.442C601.049 334.657 599.872 333.951 598.397 333.951C595.463 333.951 593 336.195 593 340.023C593 343.899 595.385 346.001 598.319 346.001ZM606.87 346.001C609.553 346.001 611.138 344.385 611.138 342.487C611.138 340.808 610.212 339.914 608.8 339.333L607.278 338.69C606.29 338.297 605.474 337.999 605.474 337.168C605.474 336.399 606.117 335.944 607.137 335.944C608.094 335.944 608.863 336.289 609.6 336.901L610.777 335.442C609.836 334.485 608.486 333.951 607.137 333.951C604.784 333.951 603.12 335.41 603.12 337.309C603.12 339.003 604.297 339.945 605.474 340.431L607.027 341.09C608.063 341.53 608.769 341.796 608.769 342.659C608.769 343.475 608.126 343.993 606.917 343.993C605.897 343.993 604.799 343.475 603.968 342.706L602.634 344.307C603.764 345.389 605.317 346.001 606.87 346.001ZM617.806 346.001C620.882 346.001 623 343.695 623 339.929C623 336.164 620.882 333.951 617.806 333.951C614.731 333.951 612.613 336.148 612.613 339.929C612.613 343.695 614.731 346.001 617.806 346.001ZM617.806 343.993C616.081 343.993 614.982 342.408 614.982 339.929C614.982 337.434 616.081 335.944 617.806 335.944C619.532 335.944 620.631 337.434 620.631 339.929C620.631 342.408 619.532 343.993 617.806 343.993Z" fill="white"/>
<path d="M579.183 374.546C578.559 374.546 577.959 374.446 577.383 374.246C576.815 374.046 576.375 373.782 576.063 373.454L576.411 372.77C576.715 373.074 577.119 373.322 577.623 373.514C578.127 373.698 578.647 373.79 579.183 373.79C579.935 373.79 580.499 373.654 580.875 373.382C581.251 373.102 581.439 372.742 581.439 372.302C581.439 371.966 581.335 371.698 581.127 371.498C580.927 371.298 580.679 371.146 580.383 371.042C580.087 370.93 579.675 370.81 579.147 370.682C578.515 370.522 578.011 370.37 577.635 370.226C577.259 370.074 576.935 369.846 576.663 369.542C576.399 369.238 576.267 368.826 576.267 368.306C576.267 367.882 576.379 367.498 576.603 367.154C576.827 366.802 577.171 366.522 577.635 366.314C578.099 366.106 578.675 366.002 579.363 366.002C579.843 366.002 580.311 366.07 580.767 366.206C581.231 366.334 581.631 366.514 581.967 366.746L581.667 367.454C581.315 367.222 580.939 367.05 580.539 366.938C580.139 366.818 579.747 366.758 579.363 366.758C578.627 366.758 578.071 366.902 577.695 367.19C577.327 367.47 577.143 367.834 577.143 368.282C577.143 368.618 577.243 368.89 577.443 369.098C577.651 369.298 577.907 369.454 578.211 369.566C578.523 369.67 578.939 369.786 579.459 369.914C580.075 370.066 580.571 370.218 580.947 370.37C581.331 370.514 581.655 370.738 581.919 371.042C582.183 371.338 582.315 371.742 582.315 372.254C582.315 372.678 582.199 373.066 581.967 373.418C581.743 373.762 581.395 374.038 580.923 374.246C580.451 374.446 579.871 374.546 579.183 374.546ZM585.765 366.842H582.813V366.074H589.605V366.842H586.653V374.474H585.765V366.842ZM596.759 374.474L594.839 371.774C594.623 371.798 594.399 371.81 594.167 371.81H591.911V374.474H591.023V366.074H594.167C595.239 366.074 596.079 366.33 596.687 366.842C597.295 367.354 597.599 368.058 597.599 368.954C597.599 369.61 597.431 370.166 597.095 370.622C596.767 371.07 596.295 371.394 595.679 371.594L597.731 374.474H596.759ZM594.143 371.054C594.975 371.054 595.611 370.87 596.051 370.502C596.491 370.134 596.711 369.618 596.711 368.954C596.711 368.274 596.491 367.754 596.051 367.394C595.611 367.026 594.975 366.842 594.143 366.842H591.911V371.054H594.143ZM604.963 372.23H600.283L599.275 374.474H598.351L602.191 366.074H603.067L606.907 374.474H605.971L604.963 372.23ZM604.639 371.51L602.623 366.998L600.607 371.51H604.639ZM609.507 366.842H606.555V366.074H613.347V366.842H610.395V374.474H609.507V366.842ZM620.705 373.706V374.474H614.765V366.074H620.525V366.842H615.653V369.83H619.997V370.586H615.653V373.706H620.705ZM628.662 370.274H629.514V373.478C629.122 373.822 628.658 374.086 628.122 374.27C627.586 374.454 627.022 374.546 626.43 374.546C625.59 374.546 624.834 374.362 624.162 373.994C623.49 373.626 622.962 373.118 622.578 372.47C622.194 371.814 622.002 371.082 622.002 370.274C622.002 369.466 622.194 368.738 622.578 368.09C622.962 367.434 623.49 366.922 624.162 366.554C624.834 366.186 625.594 366.002 626.442 366.002C627.082 366.002 627.67 366.106 628.206 366.314C628.742 366.514 629.194 366.814 629.562 367.214L629.01 367.778C628.346 367.122 627.502 366.794 626.478 366.794C625.798 366.794 625.182 366.946 624.63 367.25C624.086 367.546 623.658 367.962 623.346 368.498C623.034 369.026 622.878 369.618 622.878 370.274C622.878 370.93 623.034 371.522 623.346 372.05C623.658 372.578 624.086 372.994 624.63 373.298C625.174 373.602 625.786 373.754 626.466 373.754C627.33 373.754 628.062 373.538 628.662 373.106V370.274ZM634.907 371.57V374.474H634.031V371.57L630.671 366.074H631.619L634.499 370.79L637.379 366.074H638.267L634.907 371.57ZM555.144 384.074C556.216 384.074 557.056 384.33 557.664 384.842C558.272 385.354 558.576 386.058 558.576 386.954C558.576 387.85 558.272 388.554 557.664 389.066C557.056 389.57 556.216 389.822 555.144 389.822H552.888V392.474H552V384.074H555.144ZM555.12 389.042C555.952 389.042 556.588 388.862 557.028 388.502C557.468 388.134 557.688 387.618 557.688 386.954C557.688 386.274 557.468 385.754 557.028 385.394C556.588 385.026 555.952 384.842 555.12 384.842H552.888V389.042H555.12ZM560.496 384.074H561.384V391.706H566.088V392.474H560.496V384.074ZM572.854 390.23H568.174L567.166 392.474H566.242L570.082 384.074H570.958L574.798 392.474H573.862L572.854 390.23ZM572.53 389.51L570.514 384.998L568.498 389.51H572.53ZM583.207 384.074V392.474H582.475L577.075 385.658V392.474H576.187V384.074H576.919L582.331 390.89V384.074H583.207ZM592.969 384.074V392.474H592.237L586.837 385.658V392.474H585.949V384.074H586.681L592.093 390.89V384.074H592.969ZM595.711 384.074H596.599V392.474H595.711V384.074ZM606.352 384.074V392.474H605.62L600.22 385.658V392.474H599.332V384.074H600.064L605.476 390.89V384.074H606.352ZM615.01 388.274H615.862V391.478C615.47 391.822 615.006 392.086 614.47 392.27C613.934 392.454 613.37 392.546 612.778 392.546C611.938 392.546 611.182 392.362 610.51 391.994C609.838 391.626 609.31 391.118 608.926 390.47C608.542 389.814 608.35 389.082 608.35 388.274C608.35 387.466 608.542 386.738 608.926 386.09C609.31 385.434 609.838 384.922 610.51 384.554C611.182 384.186 611.942 384.002 612.79 384.002C613.43 384.002 614.018 384.106 614.554 384.314C615.09 384.514 615.542 384.814 615.91 385.214L615.358 385.778C614.694 385.122 613.85 384.794 612.826 384.794C612.146 384.794 611.53 384.946 610.978 385.25C610.434 385.546 610.006 385.962 609.694 386.498C609.382 387.026 609.226 387.618 609.226 388.274C609.226 388.93 609.382 389.522 609.694 390.05C610.006 390.578 610.434 390.994 610.978 391.298C611.522 391.602 612.134 391.754 612.814 391.754C613.678 391.754 614.41 391.538 615.01 391.106V388.274ZM627.431 388.274H628.283V391.478C627.891 391.822 627.427 392.086 626.891 392.27C626.355 392.454 625.791 392.546 625.199 392.546C624.359 392.546 623.603 392.362 622.931 391.994C622.259 391.626 621.731 391.118 621.347 390.47C620.963 389.814 620.771 389.082 620.771 388.274C620.771 387.466 620.963 386.738 621.347 386.09C621.731 385.434 622.259 384.922 622.931 384.554C623.603 384.186 624.363 384.002 625.211 384.002C625.851 384.002 626.439 384.106 626.975 384.314C627.511 384.514 627.963 384.814 628.331 385.214L627.779 385.778C627.115 385.122 626.271 384.794 625.247 384.794C624.567 384.794 623.951 384.946 623.399 385.25C622.855 385.546 622.427 385.962 622.115 386.498C621.803 387.026 621.647 387.618 621.647 388.274C621.647 388.93 621.803 389.522 622.115 390.05C622.427 390.578 622.855 390.994 623.399 391.298C623.943 391.602 624.555 391.754 625.235 391.754C626.099 391.754 626.831 391.538 627.431 391.106V388.274ZM636.533 392.474L634.613 389.774C634.397 389.798 634.173 389.81 633.941 389.81H631.685V392.474H630.797V384.074H633.941C635.013 384.074 635.853 384.33 636.461 384.842C637.069 385.354 637.373 386.058 637.373 386.954C637.373 387.61 637.205 388.166 636.869 388.622C636.541 389.07 636.069 389.394 635.453 389.594L637.505 392.474H636.533ZM633.917 389.054C634.749 389.054 635.385 388.87 635.825 388.502C636.265 388.134 636.485 387.618 636.485 386.954C636.485 386.274 636.265 385.754 635.825 385.394C635.385 385.026 634.749 384.842 633.917 384.842H631.685V389.054H633.917ZM643.141 392.546C642.309 392.546 641.553 392.362 640.873 391.994C640.201 391.618 639.673 391.106 639.289 390.458C638.913 389.81 638.725 389.082 638.725 388.274C638.725 387.466 638.913 386.738 639.289 386.09C639.673 385.442 640.201 384.934 640.873 384.566C641.553 384.19 642.309 384.002 643.141 384.002C643.973 384.002 644.721 384.186 645.385 384.554C646.057 384.922 646.585 385.434 646.969 386.09C647.353 386.738 647.545 387.466 647.545 388.274C647.545 389.082 647.353 389.814 646.969 390.47C646.585 391.118 646.057 391.626 645.385 391.994C644.721 392.362 643.973 392.546 643.141 392.546ZM643.141 391.754C643.805 391.754 644.405 391.606 644.941 391.31C645.477 391.006 645.897 390.59 646.201 390.062C646.505 389.526 646.657 388.93 646.657 388.274C646.657 387.618 646.505 387.026 646.201 386.498C645.897 385.962 645.477 385.546 644.941 385.25C644.405 384.946 643.805 384.794 643.141 384.794C642.477 384.794 641.873 384.946 641.329 385.25C640.793 385.546 640.369 385.962 640.057 386.498C639.753 387.026 639.601 387.618 639.601 388.274C639.601 388.93 639.753 389.526 640.057 390.062C640.369 390.59 640.793 391.006 641.329 391.31C641.873 391.606 642.477 391.754 643.141 391.754ZM652.919 392.546C651.831 392.546 650.983 392.234 650.375 391.61C649.767 390.986 649.463 390.078 649.463 388.886V384.074H650.351V388.85C650.351 389.826 650.571 390.554 651.011 391.034C651.451 391.514 652.087 391.754 652.919 391.754C653.759 391.754 654.399 391.514 654.839 391.034C655.279 390.554 655.499 389.826 655.499 388.85V384.074H656.363V388.886C656.363 390.078 656.059 390.986 655.451 391.61C654.851 392.234 654.007 392.546 652.919 392.546ZM662.183 384.074C663.255 384.074 664.095 384.33 664.703 384.842C665.311 385.354 665.615 386.058 665.615 386.954C665.615 387.85 665.311 388.554 664.703 389.066C664.095 389.57 663.255 389.822 662.183 389.822H659.927V392.474H659.039V384.074H662.183ZM662.159 389.042C662.991 389.042 663.627 388.862 664.067 388.502C664.507 388.134 664.727 387.618 664.727 386.954C664.727 386.274 664.507 385.754 664.067 385.394C663.627 385.026 662.991 384.842 662.159 384.842H659.927V389.042H662.159Z" fill="white"/>
<path d="M844 288H734C722.954 288 714 296.954 714 308V418C714 429.046 722.954 438 734 438H844C855.046 438 864 429.046 864 418V308C864 296.954 855.046 288 844 288Z" fill="#1A1A1A"/>
<path d="M780.374 346.126C781.896 346.126 783.148 345.523 784.115 344.398L782.878 342.939C782.244 343.621 781.468 344.096 780.453 344.096C778.598 344.096 777.394 342.559 777.394 340.007C777.394 337.486 778.725 335.964 780.501 335.964C781.388 335.964 782.07 336.377 782.672 336.947L783.893 335.457C783.132 334.665 781.943 333.951 780.453 333.951C777.489 333.951 775 336.218 775 340.086C775 344.001 777.41 346.126 780.374 346.126ZM786.005 345.904H788.351V341.148H792.521V339.182H788.351V336.123H793.234V334.157H786.005V345.904ZM799.753 346.126C802.86 346.126 805 343.795 805 339.991C805 336.186 802.86 333.951 799.753 333.951C796.646 333.951 794.506 336.17 794.506 339.991C794.506 343.795 796.646 346.126 799.753 346.126ZM799.753 344.096C798.009 344.096 796.9 342.495 796.9 339.991C796.9 337.47 798.009 335.964 799.753 335.964C801.497 335.964 802.606 337.47 802.606 339.991C802.606 342.495 801.497 344.096 799.753 344.096Z" fill="white"/>
<path d="M752.724 366.197V374.597H751.872V367.877L748.572 373.529H748.152L744.852 367.913V374.597H744V366.197H744.732L748.38 372.425L751.992 366.197H752.724ZM760.729 372.353H756.049L755.041 374.597H754.117L757.957 366.197H758.833L762.673 374.597H761.737L760.729 372.353ZM760.405 371.633L758.389 367.121L756.373 371.633H760.405ZM771.082 366.197V374.597H770.35L764.95 367.781V374.597H764.062V366.197H764.794L770.206 373.013V366.197H771.082ZM779.092 372.353H774.412L773.404 374.597H772.48L776.32 366.197H777.196L781.036 374.597H780.1L779.092 372.353ZM778.768 371.633L776.752 367.121L774.736 371.633H778.768ZM788.224 370.397H789.076V373.601C788.684 373.945 788.22 374.209 787.684 374.393C787.148 374.577 786.584 374.669 785.992 374.669C785.152 374.669 784.396 374.485 783.724 374.117C783.052 373.749 782.524 373.241 782.14 372.593C781.756 371.937 781.564 371.205 781.564 370.397C781.564 369.589 781.756 368.861 782.14 368.213C782.524 367.557 783.052 367.045 783.724 366.677C784.396 366.309 785.156 366.125 786.004 366.125C786.644 366.125 787.232 366.229 787.768 366.437C788.304 366.637 788.756 366.937 789.124 367.337L788.572 367.901C787.908 367.245 787.064 366.917 786.04 366.917C785.36 366.917 784.744 367.069 784.192 367.373C783.648 367.669 783.22 368.085 782.908 368.621C782.596 369.149 782.44 369.741 782.44 370.397C782.44 371.053 782.596 371.645 782.908 372.173C783.22 372.701 783.648 373.117 784.192 373.421C784.736 373.725 785.348 373.877 786.028 373.877C786.892 373.877 787.624 373.661 788.224 373.229V370.397ZM797.53 373.829V374.597H791.59V366.197H797.35V366.965H792.478V369.953H796.822V370.709H792.478V373.829H797.53ZM808.341 366.197V374.597H807.489V367.877L804.189 373.529H803.769L800.469 367.913V374.597H799.617V366.197H800.349L803.997 372.425L807.609 366.197H808.341ZM817.018 373.829V374.597H811.078V366.197H816.838V366.965H811.966V369.953H816.31V370.709H811.966V373.829H817.018ZM826.125 366.197V374.597H825.393L819.993 367.781V374.597H819.105V366.197H819.837L825.249 373.013V366.197H826.125ZM830.499 366.965H827.547V366.197H834.339V366.965H831.387V374.597H830.499V366.965ZM774.297 388.397H775.149V391.601C774.757 391.945 774.293 392.209 773.757 392.393C773.221 392.577 772.657 392.669 772.065 392.669C771.225 392.669 770.469 392.485 769.797 392.117C769.125 391.749 768.597 391.241 768.213 390.593C767.829 389.937 767.637 389.205 767.637 388.397C767.637 387.589 767.829 386.861 768.213 386.213C768.597 385.557 769.125 385.045 769.797 384.677C770.469 384.309 771.229 384.125 772.077 384.125C772.717 384.125 773.305 384.229 773.841 384.437C774.377 384.637 774.829 384.937 775.197 385.337L774.645 385.901C773.981 385.245 773.137 384.917 772.113 384.917C771.433 384.917 770.817 385.069 770.265 385.373C769.721 385.669 769.293 386.085 768.981 386.621C768.669 387.149 768.513 387.741 768.513 388.397C768.513 389.053 768.669 389.645 768.981 390.173C769.293 390.701 769.721 391.117 770.265 391.421C770.809 391.725 771.421 391.877 772.101 391.877C772.965 391.877 773.697 391.661 774.297 391.229V388.397ZM783.398 392.597L781.478 389.897C781.262 389.921 781.038 389.933 780.806 389.933H778.55V392.597H777.662V384.197H780.806C781.878 384.197 782.718 384.453 783.326 384.965C783.934 385.477 784.238 386.181 784.238 387.077C784.238 387.733 784.07 388.289 783.734 388.745C783.406 389.193 782.934 389.517 782.318 389.717L784.37 392.597H783.398ZM780.782 389.177C781.614 389.177 782.25 388.993 782.69 388.625C783.13 388.257 783.35 387.741 783.35 387.077C783.35 386.397 783.13 385.877 782.69 385.517C782.25 385.149 781.614 384.965 780.782 384.965H778.55V389.177H780.782ZM790.006 392.669C789.174 392.669 788.418 392.485 787.738 392.117C787.066 391.741 786.538 391.229 786.154 390.581C785.778 389.933 785.59 389.205 785.59 388.397C785.59 387.589 785.778 386.861 786.154 386.213C786.538 385.565 787.066 385.057 787.738 384.689C788.418 384.313 789.174 384.125 790.006 384.125C790.838 384.125 791.586 384.309 792.25 384.677C792.922 385.045 793.45 385.557 793.834 386.213C794.218 386.861 794.41 387.589 794.41 388.397C794.41 389.205 794.218 389.937 793.834 390.593C793.45 391.241 792.922 391.749 792.25 392.117C791.586 392.485 790.838 392.669 790.006 392.669ZM790.006 391.877C790.67 391.877 791.27 391.729 791.806 391.433C792.342 391.129 792.762 390.713 793.066 390.185C793.37 389.649 793.522 389.053 793.522 388.397C793.522 387.741 793.37 387.149 793.066 386.621C792.762 386.085 792.342 385.669 791.806 385.373C791.27 385.069 790.67 384.917 790.006 384.917C789.342 384.917 788.738 385.069 788.194 385.373C787.658 385.669 787.234 386.085 786.922 386.621C786.618 387.149 786.466 387.741 786.466 388.397C786.466 389.053 786.618 389.649 786.922 390.185C787.234 390.713 787.658 391.129 788.194 391.433C788.738 391.729 789.342 391.877 790.006 391.877ZM799.784 392.669C798.696 392.669 797.848 392.357 797.24 391.733C796.632 391.109 796.328 390.201 796.328 389.009V384.197H797.216V388.973C797.216 389.949 797.436 390.677 797.876 391.157C798.316 391.637 798.952 391.877 799.784 391.877C800.624 391.877 801.264 391.637 801.704 391.157C802.144 390.677 802.364 389.949 802.364 388.973V384.197H803.228V389.009C803.228 390.201 802.924 391.109 802.316 391.733C801.716 392.357 800.872 392.669 799.784 392.669ZM809.048 384.197C810.12 384.197 810.96 384.453 811.568 384.965C812.176 385.477 812.48 386.181 812.48 387.077C812.48 387.973 812.176 388.677 811.568 389.189C810.96 389.693 810.12 389.945 809.048 389.945H806.792V392.597H805.904V384.197H809.048ZM809.024 389.165C809.856 389.165 810.492 388.985 810.932 388.625C811.372 388.257 811.592 387.741 811.592 387.077C811.592 386.397 811.372 385.877 810.932 385.517C810.492 385.149 809.856 384.965 809.024 384.965H806.792V389.165H809.024Z" fill="white"/>
</svg>
