<svg width="750" height="570" viewBox="0 0 750 570" fill="none" xmlns="http://www.w3.org/2000/svg">
<path d="M374 135V472.5H376V135H374Z" fill="#F0F0F0"/>
<path d="M630 234V210C630 198.954 621.046 190 610 190H140C128.954 190 120 198.954 120 210V234" stroke="#F0F0F0" stroke-width="2"/>
<path d="M710 472V462C710 450.954 701.046 442 690 442H60C48.9543 442 40 450.954 40 462V472" stroke="#F0F0F0" stroke-width="2"/>
<path d="M625 442V480H627V442H625Z" fill="#F0F0F0"/>
<path d="M541 442V480H543V442H541Z" fill="#F0F0F0"/>
<path d="M457 442V480H459V442H457Z" fill="#F0F0F0"/>
<path d="M288 442V480H290V442H288Z" fill="#F0F0F0"/>
<path d="M205 442V480H207V442H205Z" fill="#F0F0F0"/>
<path d="M122 442V480H124V442H122Z" fill="#F0F0F0"/>
<path d="M289 191V224.5H291V191H289Z" fill="#F0F0F0"/>
<path d="M459 190V226.5H461V190H459Z" fill="#F0F0F0"/>
<rect x="50" y="220" width="140" height="150" rx="20" fill="#1A1A1A"/>
<path d="M113.406 265.14C114.366 265.14 115.156 264.76 115.766 264.05L114.986 263.13C114.586 263.56 114.096 263.86 113.456 263.86C112.286 263.86 111.526 262.89 111.526 261.28C111.526 259.69 112.366 258.73 113.486 258.73C114.046 258.73 114.476 258.99 114.856 259.35L115.626 258.41C115.146 257.91 114.396 257.46 113.456 257.46C111.586 257.46 110.016 258.89 110.016 261.33C110.016 263.8 111.536 265.14 113.406 265.14ZM118.272 265H119.752V258.83H121.852V257.59H116.192V258.83H118.272V265ZM125.679 265.14C127.639 265.14 128.989 263.67 128.989 261.27C128.989 258.87 127.639 257.46 125.679 257.46C123.719 257.46 122.369 258.86 122.369 261.27C122.369 263.67 123.719 265.14 125.679 265.14ZM125.679 263.86C124.579 263.86 123.879 262.85 123.879 261.27C123.879 259.68 124.579 258.73 125.679 258.73C126.779 258.73 127.479 259.68 127.479 261.27C127.479 262.85 126.779 263.86 125.679 263.86Z" fill="#DCE4FF"/>
<path d="M73.5695 284.682H71.8895V281.896H73.5695V284.682ZM76.4815 281.028H75.2775V277.486H73.5695V280.44H71.8895V277.472H70.1535V286.152H75.2775V282.512H76.4815V288.644H78.2035V276.534H76.4815V281.028ZM79.0995 276.296V289.19H80.8495V276.296H79.0995ZM93.0984 282.96H85.9164V281.518H92.7064V280.09H85.9164V278.732H93.0004V277.248H84.0404V284.416H93.0984V282.96ZM82.6684 286.222V287.72H94.3444V286.222H82.6684ZM102.841 280.902C101.105 281.238 99.4533 281.364 97.9133 281.392V276.912H96.0653V282.932H97.1573C98.9773 282.932 100.951 282.806 103.051 282.386L102.841 280.902ZM99.1173 285.606H103.891V287.608H99.1173V285.606ZM97.2973 289.05H105.697V284.164H97.2973V289.05ZM107.405 279.026H105.697V276.31H103.849V283.562H105.697V280.538H107.405V279.026ZM114.342 279.278H115.686C117.016 279.278 117.744 279.656 117.744 280.776C117.744 281.882 117.016 282.442 115.686 282.442H114.342V279.278ZM120.222 288L117.8 283.758C118.99 283.296 119.774 282.33 119.774 280.776C119.774 278.396 118.052 277.64 115.882 277.64H112.27V288H114.342V284.08H115.784L117.912 288H120.222ZM122.919 285.13C122.919 284.57 123.269 284.108 123.773 283.674C124.431 284.542 125.229 285.368 126.111 286.096C125.621 286.418 125.103 286.614 124.599 286.614C123.605 286.614 122.919 286.012 122.919 285.13ZM123.955 280.076C123.955 279.306 124.389 278.816 124.991 278.816C125.537 278.816 125.775 279.194 125.775 279.712C125.775 280.468 125.145 280.972 124.333 281.462C124.095 280.972 123.955 280.51 123.955 280.076ZM130.605 286.516C130.073 286.418 129.443 286.152 128.771 285.774C129.569 284.696 130.143 283.492 130.521 282.218H128.659C128.379 283.24 127.931 284.122 127.385 284.85C126.559 284.22 125.761 283.464 125.145 282.694C126.251 281.924 127.371 281.07 127.371 279.698C127.371 278.34 126.433 277.444 124.963 277.444C123.297 277.444 122.247 278.634 122.247 280.076C122.247 280.762 122.485 281.532 122.905 282.316C121.869 282.974 120.959 283.814 120.959 285.256C120.959 286.866 122.177 288.196 124.347 288.196C125.621 288.196 126.671 287.776 127.525 287.104C128.393 287.65 129.289 288.014 130.101 288.196L130.605 286.516ZM132.163 288H135.117C138.169 288 140.129 286.264 140.129 282.778C140.129 279.278 138.169 277.64 135.005 277.64H132.163V288ZM134.235 286.334V279.292H134.879C136.811 279.292 138.015 280.244 138.015 282.778C138.015 285.298 136.811 286.334 134.879 286.334H134.235ZM145.693 282.134C148.059 281.966 149.669 281.308 150.481 280.286C151.279 281.308 152.889 281.966 155.255 282.134L155.801 280.762C153.043 280.594 151.783 279.796 151.545 278.914H155.185V277.472H151.391V276.338H149.543V277.472H145.763V278.914H149.403C149.165 279.796 147.905 280.594 145.147 280.762L145.693 282.134ZM150.453 287.846C148.703 287.846 147.849 287.594 147.849 287.02C147.849 286.432 148.703 286.194 150.453 286.194C152.203 286.194 153.057 286.432 153.057 287.02C153.057 287.594 152.203 287.846 150.453 287.846ZM150.453 284.836C147.639 284.836 145.987 285.606 145.987 287.02C145.987 288.434 147.639 289.218 150.453 289.218C153.267 289.218 154.933 288.434 154.933 287.02C154.933 285.606 153.267 284.836 150.453 284.836ZM151.391 282.778V281.546H149.543V282.778H144.657V284.22H156.305V282.778H151.391ZM164.452 280.818C164.718 279.488 164.718 278.396 164.718 277.612V276.856H158.096V278.298H162.898C162.884 278.928 162.828 279.698 162.66 280.65L164.452 280.818ZM165.292 281.252C164.088 281.378 162.786 281.462 161.512 281.518V279.516H159.692V281.56C158.866 281.574 158.082 281.574 157.354 281.574L157.508 283.002C159.818 283.002 162.73 282.96 165.39 282.512L165.292 281.252ZM160.868 286.964H167.826V283.618H158.992V284.976H165.978V285.69H159.02V289.106H168.246V287.72H160.868V286.964ZM167.826 279.026V276.296H165.978V283.156H167.826V280.538H169.38V279.026H167.826Z" fill="white"/>
<path d="M78.3011 310H79.0411V316.36H82.9611V317H78.3011V310ZM89.1398 316.36V317H84.1898V310H88.9898V310.64H84.9298V313.13H88.5498V313.76H84.9298V316.36H89.1398ZM93.8802 317.06C93.1869 317.06 92.5602 316.907 92.0002 316.6C91.4469 316.293 91.0102 315.87 90.6902 315.33C90.3769 314.783 90.2202 314.173 90.2202 313.5C90.2202 312.827 90.3769 312.22 90.6902 311.68C91.0102 311.133 91.4502 310.707 92.0102 310.4C92.5702 310.093 93.1969 309.94 93.8902 309.94C94.4102 309.94 94.8902 310.027 95.3302 310.2C95.7702 310.373 96.1435 310.627 96.4502 310.96L95.9802 311.43C95.4335 310.877 94.7435 310.6 93.9102 310.6C93.3569 310.6 92.8535 310.727 92.4002 310.98C91.9469 311.233 91.5902 311.58 91.3302 312.02C91.0769 312.46 90.9502 312.953 90.9502 313.5C90.9502 314.047 91.0769 314.54 91.3302 314.98C91.5902 315.42 91.9469 315.767 92.4002 316.02C92.8535 316.273 93.3569 316.4 93.9102 316.4C94.7502 316.4 95.4402 316.12 95.9802 315.56L96.4502 316.03C96.1435 316.363 95.7669 316.62 95.3202 316.8C94.8802 316.973 94.4002 317.06 93.8802 317.06ZM98.0277 310H98.7677V316.36H102.688V317H98.0277V310ZM108.866 316.36V317H103.916V310H108.716V310.64H104.656V313.13H108.276V313.76H104.656V316.36H108.866ZM119.043 310L115.943 317H115.213L112.113 310H112.913L115.593 316.08L118.293 310H119.043ZM120.059 310H120.799V317H120.059V310ZM128.027 316.36V317H123.077V310H127.877V310.64H123.817V313.13H127.437V313.76H123.817V316.36H128.027ZM131.126 310.64H128.666V310H134.326V310.64H131.866V317H131.126V310.64ZM141.358 310V317H140.748L136.248 311.32V317H135.508V310H136.118L140.628 315.68V310H141.358ZM148.033 315.13H144.133L143.293 317H142.523L145.723 310H146.453L149.653 317H148.873L148.033 315.13ZM147.763 314.53L146.083 310.77L144.403 314.53H147.763ZM158.081 310V317H157.371V311.4L154.621 316.11H154.271L151.521 311.43V317H150.811V310H151.421L154.461 315.19L157.471 310H158.081ZM75.2591 326H78.1091C78.8491 326 79.5025 326.15 80.0691 326.45C80.6358 326.743 81.0758 327.157 81.3891 327.69C81.7025 328.217 81.8591 328.82 81.8591 329.5C81.8591 330.18 81.7025 330.787 81.3891 331.32C81.0758 331.847 80.6358 332.26 80.0691 332.56C79.5025 332.853 78.8491 333 78.1091 333H75.2591V326ZM78.0691 332.36C78.6825 332.36 79.2191 332.24 79.6791 332C80.1391 331.753 80.4958 331.417 80.7491 330.99C81.0025 330.557 81.1291 330.06 81.1291 329.5C81.1291 328.94 81.0025 328.447 80.7491 328.02C80.4958 327.587 80.1391 327.25 79.6791 327.01C79.2191 326.763 78.6825 326.64 78.0691 326.64H75.9991V332.36H78.0691ZM88.4709 332.36V333H83.5209V326H88.3209V326.64H84.2609V329.13H87.8809V329.76H84.2609V332.36H88.4709ZM95.9327 326L92.8327 333H92.1027L89.0027 326H89.8027L92.4827 332.08L95.1827 326H95.9327ZM101.899 332.36V333H96.9486V326H101.749V326.64H97.6886V329.13H101.309V329.76H97.6886V332.36H101.899ZM103.638 326H104.378V332.36H108.298V333H103.638V326ZM112.45 333.06C111.757 333.06 111.127 332.907 110.56 332.6C110 332.287 109.56 331.86 109.24 331.32C108.927 330.78 108.77 330.173 108.77 329.5C108.77 328.827 108.927 328.22 109.24 327.68C109.56 327.14 110 326.717 110.56 326.41C111.127 326.097 111.757 325.94 112.45 325.94C113.143 325.94 113.767 326.093 114.32 326.4C114.88 326.707 115.32 327.133 115.64 327.68C115.96 328.22 116.12 328.827 116.12 329.5C116.12 330.173 115.96 330.783 115.64 331.33C115.32 331.87 114.88 332.293 114.32 332.6C113.767 332.907 113.143 333.06 112.45 333.06ZM112.45 332.4C113.003 332.4 113.503 332.277 113.95 332.03C114.397 331.777 114.747 331.43 115 330.99C115.253 330.543 115.38 330.047 115.38 329.5C115.38 328.953 115.253 328.46 115 328.02C114.747 327.573 114.397 327.227 113.95 326.98C113.503 326.727 113.003 326.6 112.45 326.6C111.897 326.6 111.393 326.727 110.94 326.98C110.493 327.227 110.14 327.573 109.88 328.02C109.627 328.46 109.5 328.953 109.5 329.5C109.5 330.047 109.627 330.543 109.88 330.99C110.14 331.43 110.493 331.777 110.94 332.03C111.393 332.277 111.897 332.4 112.45 332.4ZM120.399 326C121.292 326 121.992 326.213 122.499 326.64C123.005 327.067 123.259 327.653 123.259 328.4C123.259 329.147 123.005 329.733 122.499 330.16C121.992 330.58 121.292 330.79 120.399 330.79H118.519V333H117.779V326H120.399ZM120.379 330.14C121.072 330.14 121.602 329.99 121.969 329.69C122.335 329.383 122.519 328.953 122.519 328.4C122.519 327.833 122.335 327.4 121.969 327.1C121.602 326.793 121.072 326.64 120.379 326.64H118.519V330.14H120.379ZM132.504 329.5H133.214V332.17C132.887 332.457 132.5 332.677 132.054 332.83C131.607 332.983 131.137 333.06 130.644 333.06C129.944 333.06 129.314 332.907 128.754 332.6C128.194 332.293 127.754 331.87 127.434 331.33C127.114 330.783 126.954 330.173 126.954 329.5C126.954 328.827 127.114 328.22 127.434 327.68C127.754 327.133 128.194 326.707 128.754 326.4C129.314 326.093 129.947 325.94 130.654 325.94C131.187 325.94 131.677 326.027 132.124 326.2C132.57 326.367 132.947 326.617 133.254 326.95L132.794 327.42C132.24 326.873 131.537 326.6 130.684 326.6C130.117 326.6 129.604 326.727 129.144 326.98C128.69 327.227 128.334 327.573 128.074 328.02C127.814 328.46 127.684 328.953 127.684 329.5C127.684 330.047 127.814 330.54 128.074 330.98C128.334 331.42 128.69 331.767 129.144 332.02C129.597 332.273 130.107 332.4 130.674 332.4C131.394 332.4 132.004 332.22 132.504 331.86V329.5ZM140.088 333L138.488 330.75C138.308 330.77 138.121 330.78 137.928 330.78H136.048V333H135.308V326H137.928C138.821 326 139.521 326.213 140.028 326.64C140.535 327.067 140.788 327.653 140.788 328.4C140.788 328.947 140.648 329.41 140.368 329.79C140.095 330.163 139.701 330.433 139.188 330.6L140.898 333H140.088ZM137.908 330.15C138.601 330.15 139.131 329.997 139.498 329.69C139.865 329.383 140.048 328.953 140.048 328.4C140.048 327.833 139.865 327.4 139.498 327.1C139.131 326.793 138.601 326.64 137.908 326.64H136.048V330.15H137.908ZM145.595 333.06C144.901 333.06 144.271 332.907 143.705 332.6C143.145 332.287 142.705 331.86 142.385 331.32C142.071 330.78 141.915 330.173 141.915 329.5C141.915 328.827 142.071 328.22 142.385 327.68C142.705 327.14 143.145 326.717 143.705 326.41C144.271 326.097 144.901 325.94 145.595 325.94C146.288 325.94 146.911 326.093 147.465 326.4C148.025 326.707 148.465 327.133 148.785 327.68C149.105 328.22 149.265 328.827 149.265 329.5C149.265 330.173 149.105 330.783 148.785 331.33C148.465 331.87 148.025 332.293 147.465 332.6C146.911 332.907 146.288 333.06 145.595 333.06ZM145.595 332.4C146.148 332.4 146.648 332.277 147.095 332.03C147.541 331.777 147.891 331.43 148.145 330.99C148.398 330.543 148.525 330.047 148.525 329.5C148.525 328.953 148.398 328.46 148.145 328.02C147.891 327.573 147.541 327.227 147.095 326.98C146.648 326.727 146.148 326.6 145.595 326.6C145.041 326.6 144.538 326.727 144.085 326.98C143.638 327.227 143.285 327.573 143.025 328.02C142.771 328.46 142.645 328.953 142.645 329.5C142.645 330.047 142.771 330.543 143.025 330.99C143.285 331.43 143.638 331.777 144.085 332.03C144.538 332.277 145.041 332.4 145.595 332.4ZM153.743 333.06C152.837 333.06 152.13 332.8 151.623 332.28C151.117 331.76 150.863 331.003 150.863 330.01V326H151.603V329.98C151.603 330.793 151.787 331.4 152.153 331.8C152.52 332.2 153.05 332.4 153.743 332.4C154.443 332.4 154.977 332.2 155.343 331.8C155.71 331.4 155.893 330.793 155.893 329.98V326H156.613V330.01C156.613 331.003 156.36 331.76 155.853 332.28C155.353 332.8 154.65 333.06 153.743 333.06ZM161.463 326C162.356 326 163.056 326.213 163.563 326.64C164.07 327.067 164.323 327.653 164.323 328.4C164.323 329.147 164.07 329.733 163.563 330.16C163.056 330.58 162.356 330.79 161.463 330.79H159.583V333H158.843V326H161.463ZM161.443 330.14C162.136 330.14 162.666 329.99 163.033 329.69C163.4 329.383 163.583 328.953 163.583 328.4C163.583 327.833 163.4 327.4 163.033 327.1C162.666 326.793 162.136 326.64 161.443 326.64H159.583V330.14H161.443Z" fill="white"/>
<rect x="220" y="220" width="140" height="150" rx="20" fill="#1A1A1A"/>
<path d="M282.961 265.14C283.921 265.14 284.711 264.76 285.321 264.05L284.541 263.13C284.141 263.56 283.651 263.86 283.011 263.86C281.841 263.86 281.081 262.89 281.081 261.28C281.081 259.69 281.921 258.73 283.041 258.73C283.601 258.73 284.031 258.99 284.411 259.35L285.181 258.41C284.701 257.91 283.951 257.46 283.011 257.46C281.141 257.46 279.571 258.89 279.571 261.33C279.571 263.8 281.091 265.14 282.961 265.14ZM286.514 265H287.994V262.37H288.984C290.574 262.37 291.844 261.61 291.844 259.92C291.844 258.17 290.584 257.59 288.944 257.59H286.514V265ZM287.994 261.2V258.77H288.834C289.854 258.77 290.394 259.06 290.394 259.92C290.394 260.77 289.904 261.2 288.884 261.2H287.994ZM296.123 265.14C298.083 265.14 299.433 263.67 299.433 261.27C299.433 258.87 298.083 257.46 296.123 257.46C294.163 257.46 292.813 258.86 292.813 261.27C292.813 263.67 294.163 265.14 296.123 265.14ZM296.123 263.86C295.023 263.86 294.323 262.85 294.323 261.27C294.323 259.68 295.023 258.73 296.123 258.73C297.223 258.73 297.923 259.68 297.923 261.27C297.923 262.85 297.223 263.86 296.123 263.86Z" fill="#DCE4FF"/>
<path d="M257.005 282.764H254.373V278.9H257.005V282.764ZM252.539 282.764H250.859V284.234H260.547V282.764H258.839V278.9H260.589V277.43H250.789V278.9H252.539V282.764ZM249.879 286.208V287.706H261.555V286.208H249.879ZM269.506 286.278V284.36H273.412V282.876H265.936V281.434H273.118V277.136H264.088V278.606H271.298V279.992H264.102V284.36H267.658V286.278H262.758V287.79H274.434V286.278H269.506ZM282.693 281.84C281.377 282.106 280.215 282.204 278.157 282.218V278.648H282.133V277.178H276.323V283.702H277.345C279.991 283.702 281.349 283.632 282.861 283.31L282.693 281.84ZM277.625 286.124H284.569V289.218H286.417V284.654H277.625V286.124ZM284.569 276.296V279.53H281.531V281H284.569V284.094H286.417V276.296H284.569ZM298.946 282.96H291.764V281.518H298.554V280.09H291.764V278.732H298.848V277.248H289.888V284.416H298.946V282.96ZM288.516 286.222V287.72H300.192V286.222H288.516ZM305.603 282.134C307.969 281.966 309.579 281.308 310.391 280.286C311.189 281.308 312.799 281.966 315.165 282.134L315.711 280.762C312.953 280.594 311.693 279.796 311.455 278.914H315.095V277.472H311.301V276.338H309.453V277.472H305.673V278.914H309.313C309.075 279.796 307.815 280.594 305.057 280.762L305.603 282.134ZM310.363 287.846C308.613 287.846 307.759 287.594 307.759 287.02C307.759 286.432 308.613 286.194 310.363 286.194C312.113 286.194 312.967 286.432 312.967 287.02C312.967 287.594 312.113 287.846 310.363 287.846ZM310.363 284.836C307.549 284.836 305.897 285.606 305.897 287.02C305.897 288.434 307.549 289.218 310.363 289.218C313.177 289.218 314.843 288.434 314.843 287.02C314.843 285.606 313.177 284.836 310.363 284.836ZM311.301 282.778V281.546H309.453V282.778H304.567V284.22H316.215V282.778H311.301ZM324.362 280.818C324.628 279.488 324.628 278.396 324.628 277.612V276.856H318.006V278.298H322.808C322.794 278.928 322.738 279.698 322.57 280.65L324.362 280.818ZM325.202 281.252C323.998 281.378 322.696 281.462 321.422 281.518V279.516H319.602V281.56C318.776 281.574 317.992 281.574 317.264 281.574L317.418 283.002C319.728 283.002 322.64 282.96 325.3 282.512L325.202 281.252ZM320.778 286.964H327.736V283.618H318.902V284.976H325.888V285.69H318.93V289.106H328.156V287.72H320.778V286.964ZM327.736 279.026V276.296H325.888V283.156H327.736V280.538H329.29V279.026H327.736Z" fill="white"/>
<path d="M266.092 310C266.985 310 267.685 310.213 268.192 310.64C268.699 311.067 268.952 311.653 268.952 312.4C268.952 313.147 268.699 313.733 268.192 314.16C267.685 314.58 266.985 314.79 266.092 314.79H264.212V317H263.472V310H266.092ZM266.072 314.14C266.765 314.14 267.295 313.99 267.662 313.69C268.029 313.383 268.212 312.953 268.212 312.4C268.212 311.833 268.029 311.4 267.662 311.1C267.295 310.793 266.765 310.64 266.072 310.64H264.212V314.14H266.072ZM275.332 317L273.732 314.75C273.552 314.77 273.365 314.78 273.172 314.78H271.292V317H270.552V310H273.172C274.065 310 274.765 310.213 275.272 310.64C275.779 311.067 276.032 311.653 276.032 312.4C276.032 312.947 275.892 313.41 275.612 313.79C275.339 314.163 274.945 314.433 274.432 314.6L276.142 317H275.332ZM273.152 314.15C273.845 314.15 274.375 313.997 274.742 313.69C275.109 313.383 275.292 312.953 275.292 312.4C275.292 311.833 275.109 311.4 274.742 311.1C274.375 310.793 273.845 310.64 273.152 310.64H271.292V314.15H273.152ZM280.839 317.06C280.145 317.06 279.515 316.907 278.949 316.6C278.389 316.287 277.949 315.86 277.629 315.32C277.315 314.78 277.159 314.173 277.159 313.5C277.159 312.827 277.315 312.22 277.629 311.68C277.949 311.14 278.389 310.717 278.949 310.41C279.515 310.097 280.145 309.94 280.839 309.94C281.532 309.94 282.155 310.093 282.709 310.4C283.269 310.707 283.709 311.133 284.029 311.68C284.349 312.22 284.509 312.827 284.509 313.5C284.509 314.173 284.349 314.783 284.029 315.33C283.709 315.87 283.269 316.293 282.709 316.6C282.155 316.907 281.532 317.06 280.839 317.06ZM280.839 316.4C281.392 316.4 281.892 316.277 282.339 316.03C282.785 315.777 283.135 315.43 283.389 314.99C283.642 314.543 283.769 314.047 283.769 313.5C283.769 312.953 283.642 312.46 283.389 312.02C283.135 311.573 282.785 311.227 282.339 310.98C281.892 310.727 281.392 310.6 280.839 310.6C280.285 310.6 279.782 310.727 279.329 310.98C278.882 311.227 278.529 311.573 278.269 312.02C278.015 312.46 277.889 312.953 277.889 313.5C277.889 314.047 278.015 314.543 278.269 314.99C278.529 315.43 278.882 315.777 279.329 316.03C279.782 316.277 280.285 316.4 280.839 316.4ZM286.167 310H289.017C289.757 310 290.411 310.15 290.977 310.45C291.544 310.743 291.984 311.157 292.297 311.69C292.611 312.217 292.767 312.82 292.767 313.5C292.767 314.18 292.611 314.787 292.297 315.32C291.984 315.847 291.544 316.26 290.977 316.56C290.411 316.853 289.757 317 289.017 317H286.167V310ZM288.977 316.36C289.591 316.36 290.127 316.24 290.587 316C291.047 315.753 291.404 315.417 291.657 314.99C291.911 314.557 292.037 314.06 292.037 313.5C292.037 312.94 291.911 312.447 291.657 312.02C291.404 311.587 291.047 311.25 290.587 311.01C290.127 310.763 289.591 310.64 288.977 310.64H286.907V316.36H288.977ZM297.249 317.06C296.342 317.06 295.636 316.8 295.129 316.28C294.622 315.76 294.369 315.003 294.369 314.01V310H295.109V313.98C295.109 314.793 295.292 315.4 295.659 315.8C296.026 316.2 296.556 316.4 297.249 316.4C297.949 316.4 298.482 316.2 298.849 315.8C299.216 315.4 299.399 314.793 299.399 313.98V310H300.119V314.01C300.119 315.003 299.866 315.76 299.359 316.28C298.859 316.8 298.156 317.06 297.249 317.06ZM305.389 317.06C304.696 317.06 304.069 316.907 303.509 316.6C302.956 316.293 302.519 315.87 302.199 315.33C301.886 314.783 301.729 314.173 301.729 313.5C301.729 312.827 301.886 312.22 302.199 311.68C302.519 311.133 302.959 310.707 303.519 310.4C304.079 310.093 304.706 309.94 305.399 309.94C305.919 309.94 306.399 310.027 306.839 310.2C307.279 310.373 307.652 310.627 307.959 310.96L307.489 311.43C306.942 310.877 306.252 310.6 305.419 310.6C304.866 310.6 304.362 310.727 303.909 310.98C303.456 311.233 303.099 311.58 302.839 312.02C302.586 312.46 302.459 312.953 302.459 313.5C302.459 314.047 302.586 314.54 302.839 314.98C303.099 315.42 303.456 315.767 303.909 316.02C304.362 316.273 304.866 316.4 305.419 316.4C306.259 316.4 306.949 316.12 307.489 315.56L307.959 316.03C307.652 316.363 307.276 316.62 306.829 316.8C306.389 316.973 305.909 317.06 305.389 317.06ZM310.809 310.64H308.349V310H314.009V310.64H311.549V317H310.809V310.64ZM252.572 333.06C251.879 333.06 251.249 332.907 250.682 332.6C250.122 332.287 249.682 331.86 249.362 331.32C249.049 330.78 248.892 330.173 248.892 329.5C248.892 328.827 249.049 328.22 249.362 327.68C249.682 327.14 250.122 326.717 250.682 326.41C251.249 326.097 251.879 325.94 252.572 325.94C253.265 325.94 253.889 326.093 254.442 326.4C255.002 326.707 255.442 327.133 255.762 327.68C256.082 328.22 256.242 328.827 256.242 329.5C256.242 330.173 256.082 330.783 255.762 331.33C255.442 331.87 255.002 332.293 254.442 332.6C253.889 332.907 253.265 333.06 252.572 333.06ZM252.572 332.4C253.125 332.4 253.625 332.277 254.072 332.03C254.519 331.777 254.869 331.43 255.122 330.99C255.375 330.543 255.502 330.047 255.502 329.5C255.502 328.953 255.375 328.46 255.122 328.02C254.869 327.573 254.519 327.227 254.072 326.98C253.625 326.727 253.125 326.6 252.572 326.6C252.019 326.6 251.515 326.727 251.062 326.98C250.615 327.227 250.262 327.573 250.002 328.02C249.749 328.46 249.622 328.953 249.622 329.5C249.622 330.047 249.749 330.543 250.002 330.99C250.262 331.43 250.615 331.777 251.062 332.03C251.515 332.277 252.019 332.4 252.572 332.4ZM267.296 326L264.936 333H264.156L262.106 327.03L260.046 333H259.276L256.916 326H257.676L259.696 332.02L261.786 326H262.476L264.536 332.05L266.586 326H267.296ZM274.503 326V333H273.893L269.393 327.32V333H268.653V326H269.263L273.773 331.68V326H274.503ZM281.737 332.36V333H276.787V326H281.587V326.64H277.527V329.13H281.147V329.76H277.527V332.36H281.737ZM288.257 333L286.657 330.75C286.477 330.77 286.29 330.78 286.097 330.78H284.217V333H283.477V326H286.097C286.99 326 287.69 326.213 288.197 326.64C288.704 327.067 288.957 327.653 288.957 328.4C288.957 328.947 288.817 329.41 288.537 329.79C288.264 330.163 287.87 330.433 287.357 330.6L289.067 333H288.257ZM286.077 330.15C286.77 330.15 287.3 329.997 287.667 329.69C288.034 329.383 288.217 328.953 288.217 328.4C288.217 327.833 288.034 327.4 287.667 327.1C287.3 326.793 286.77 326.64 286.077 326.64H284.217V330.15H286.077ZM298.251 329.5H298.961V332.17C298.634 332.457 298.247 332.677 297.801 332.83C297.354 332.983 296.884 333.06 296.391 333.06C295.691 333.06 295.061 332.907 294.501 332.6C293.941 332.293 293.501 331.87 293.181 331.33C292.861 330.783 292.701 330.173 292.701 329.5C292.701 328.827 292.861 328.22 293.181 327.68C293.501 327.133 293.941 326.707 294.501 326.4C295.061 326.093 295.694 325.94 296.401 325.94C296.934 325.94 297.424 326.027 297.871 326.2C298.317 326.367 298.694 326.617 299.001 326.95L298.541 327.42C297.987 326.873 297.284 326.6 296.431 326.6C295.864 326.6 295.351 326.727 294.891 326.98C294.437 327.227 294.081 327.573 293.821 328.02C293.561 328.46 293.431 328.953 293.431 329.5C293.431 330.047 293.561 330.54 293.821 330.98C294.081 331.42 294.437 331.767 294.891 332.02C295.344 332.273 295.854 332.4 296.421 332.4C297.141 332.4 297.751 332.22 298.251 331.86V329.5ZM305.835 333L304.235 330.75C304.055 330.77 303.868 330.78 303.675 330.78H301.795V333H301.055V326H303.675C304.568 326 305.268 326.213 305.775 326.64C306.282 327.067 306.535 327.653 306.535 328.4C306.535 328.947 306.395 329.41 306.115 329.79C305.842 330.163 305.448 330.433 304.935 330.6L306.645 333H305.835ZM303.655 330.15C304.348 330.15 304.878 329.997 305.245 329.69C305.612 329.383 305.795 328.953 305.795 328.4C305.795 327.833 305.612 327.4 305.245 327.1C304.878 326.793 304.348 326.64 303.655 326.64H301.795V330.15H303.655ZM311.342 333.06C310.648 333.06 310.018 332.907 309.452 332.6C308.892 332.287 308.452 331.86 308.132 331.32C307.818 330.78 307.662 330.173 307.662 329.5C307.662 328.827 307.818 328.22 308.132 327.68C308.452 327.14 308.892 326.717 309.452 326.41C310.018 326.097 310.648 325.94 311.342 325.94C312.035 325.94 312.658 326.093 313.212 326.4C313.772 326.707 314.212 327.133 314.532 327.68C314.852 328.22 315.012 328.827 315.012 329.5C315.012 330.173 314.852 330.783 314.532 331.33C314.212 331.87 313.772 332.293 313.212 332.6C312.658 332.907 312.035 333.06 311.342 333.06ZM311.342 332.4C311.895 332.4 312.395 332.277 312.842 332.03C313.288 331.777 313.638 331.43 313.892 330.99C314.145 330.543 314.272 330.047 314.272 329.5C314.272 328.953 314.145 328.46 313.892 328.02C313.638 327.573 313.288 327.227 312.842 326.98C312.395 326.727 311.895 326.6 311.342 326.6C310.788 326.6 310.285 326.727 309.832 326.98C309.385 327.227 309.032 327.573 308.772 328.02C308.518 328.46 308.392 328.953 308.392 329.5C308.392 330.047 308.518 330.543 308.772 330.99C309.032 331.43 309.385 331.777 309.832 332.03C310.285 332.277 310.788 332.4 311.342 332.4ZM319.49 333.06C318.584 333.06 317.877 332.8 317.37 332.28C316.864 331.76 316.61 331.003 316.61 330.01V326H317.35V329.98C317.35 330.793 317.534 331.4 317.9 331.8C318.267 332.2 318.797 332.4 319.49 332.4C320.19 332.4 320.724 332.2 321.09 331.8C321.457 331.4 321.64 330.793 321.64 329.98V326H322.36V330.01C322.36 331.003 322.107 331.76 321.6 332.28C321.1 332.8 320.397 333.06 319.49 333.06ZM327.21 326C328.104 326 328.804 326.213 329.31 326.64C329.817 327.067 330.07 327.653 330.07 328.4C330.07 329.147 329.817 329.733 329.31 330.16C328.804 330.58 328.104 330.79 327.21 330.79H325.33V333H324.59V326H327.21ZM327.19 330.14C327.884 330.14 328.414 329.99 328.78 329.69C329.147 329.383 329.33 328.953 329.33 328.4C329.33 327.833 329.147 327.4 328.78 327.1C328.414 326.793 327.884 326.64 327.19 326.64H325.33V330.14H327.19Z" fill="white"/>
<rect x="390" y="220" width="140" height="150" rx="20" fill="#1A1A1A"/>
<path d="M453.332 265.14C454.292 265.14 455.082 264.76 455.692 264.05L454.912 263.13C454.512 263.56 454.022 263.86 453.382 263.86C452.212 263.86 451.452 262.89 451.452 261.28C451.452 259.69 452.292 258.73 453.412 258.73C453.972 258.73 454.402 258.99 454.782 259.35L455.552 258.41C455.072 257.91 454.322 257.46 453.382 257.46C451.512 257.46 449.942 258.89 449.942 261.33C449.942 263.8 451.462 265.14 453.332 265.14ZM458.782 265.14C460.492 265.14 461.502 264.11 461.502 262.9C461.502 261.83 460.912 261.26 460.012 260.89L459.042 260.48C458.412 260.23 457.892 260.04 457.892 259.51C457.892 259.02 458.302 258.73 458.952 258.73C459.562 258.73 460.052 258.95 460.522 259.34L461.272 258.41C460.672 257.8 459.812 257.46 458.952 257.46C457.452 257.46 456.392 258.39 456.392 259.6C456.392 260.68 457.142 261.28 457.892 261.59L458.882 262.01C459.542 262.29 459.992 262.46 459.992 263.01C459.992 263.53 459.582 263.86 458.812 263.86C458.162 263.86 457.462 263.53 456.932 263.04L456.082 264.06C456.802 264.75 457.792 265.14 458.782 265.14ZM465.752 265.14C467.712 265.14 469.062 263.67 469.062 261.27C469.062 258.87 467.712 257.46 465.752 257.46C463.792 257.46 462.442 258.86 462.442 261.27C462.442 263.67 463.792 265.14 465.752 265.14ZM465.752 263.86C464.652 263.86 463.952 262.85 463.952 261.27C463.952 259.68 464.652 258.73 465.752 258.73C466.852 258.73 467.552 259.68 467.552 261.27C467.552 262.85 466.852 263.86 465.752 263.86Z" fill="#DCE4FF"/>
<path d="M426.795 279.642V281.14H428.811V285.718H430.659V276.31H428.811V279.642H426.795ZM427.649 282.61C425.619 281.924 424.737 280.342 424.737 278.816V278.648H427.243V277.178H420.313V278.648H422.847V278.83C422.847 280.454 421.923 282.148 419.809 282.834L420.733 284.304C422.245 283.8 423.253 282.778 423.827 281.504C424.373 282.666 425.339 283.59 426.753 284.052L427.649 282.61ZM424.009 287.51V284.934H422.161V288.98H430.953V287.51H424.009ZM433.22 279.614V283.688H434.326C436.902 283.688 438.54 283.632 440.332 283.296L440.178 281.812C438.568 282.106 437.154 282.19 435.054 282.204V280.986H439.086V277.024H433.206V278.494H437.266V279.614H433.22ZM434.312 286.208H441.06V289.204H442.908V284.738H434.312V286.208ZM444.602 279.586V278.088H442.908V276.31H441.06V284.15H442.908V282.344H444.602V280.846H442.908V279.586H444.602ZM446.351 277.64V279.11H450.649C450.383 281.966 448.955 283.982 445.665 285.564L446.631 287.02C451.209 284.808 452.539 281.588 452.539 277.64H446.351ZM454.513 276.296V289.19H456.375V276.296H454.513ZM466.51 277.262H463.668V276.212H461.82V277.262H458.95V278.578H466.51V277.262ZM461.302 280.818C461.302 280.342 461.862 280.104 462.744 280.104C463.612 280.104 464.158 280.342 464.158 280.818C464.158 281.28 463.612 281.546 462.744 281.546C461.862 281.546 461.302 281.28 461.302 280.818ZM466.636 283.058C465.684 283.17 464.676 283.254 463.668 283.31V282.694C465.04 282.484 465.922 281.798 465.922 280.818C465.922 279.642 464.634 278.9 462.744 278.9C460.826 278.9 459.538 279.642 459.538 280.818C459.538 281.798 460.42 282.484 461.82 282.694V283.38C460.658 283.408 459.566 283.408 458.586 283.408L458.824 284.794C461.078 284.794 464.032 284.752 466.762 284.29L466.636 283.058ZM460.35 286.978H467.392V289.218H469.254V285.55H460.35V286.978ZM467.392 276.324V285.046H469.254V276.324H467.392ZM475.603 282.134C477.969 281.966 479.579 281.308 480.391 280.286C481.189 281.308 482.799 281.966 485.165 282.134L485.711 280.762C482.953 280.594 481.693 279.796 481.455 278.914H485.095V277.472H481.301V276.338H479.453V277.472H475.673V278.914H479.313C479.075 279.796 477.815 280.594 475.057 280.762L475.603 282.134ZM480.363 287.846C478.613 287.846 477.759 287.594 477.759 287.02C477.759 286.432 478.613 286.194 480.363 286.194C482.113 286.194 482.967 286.432 482.967 287.02C482.967 287.594 482.113 287.846 480.363 287.846ZM480.363 284.836C477.549 284.836 475.897 285.606 475.897 287.02C475.897 288.434 477.549 289.218 480.363 289.218C483.177 289.218 484.843 288.434 484.843 287.02C484.843 285.606 483.177 284.836 480.363 284.836ZM481.301 282.778V281.546H479.453V282.778H474.567V284.22H486.215V282.778H481.301ZM494.362 280.818C494.628 279.488 494.628 278.396 494.628 277.612V276.856H488.006V278.298H492.808C492.794 278.928 492.738 279.698 492.57 280.65L494.362 280.818ZM495.202 281.252C493.998 281.378 492.696 281.462 491.422 281.518V279.516H489.602V281.56C488.776 281.574 487.992 281.574 487.264 281.574L487.418 283.002C489.728 283.002 492.64 282.96 495.3 282.512L495.202 281.252ZM490.778 286.964H497.736V283.618H488.902V284.976H495.888V285.69H488.93V289.106H498.156V287.72H490.778V286.964ZM497.736 279.026V276.296H495.888V283.156H497.736V280.538H499.29V279.026H497.736Z" fill="white"/>
<path d="M435.104 317.06C434.584 317.06 434.084 316.977 433.604 316.81C433.131 316.643 432.764 316.423 432.504 316.15L432.794 315.58C433.048 315.833 433.384 316.04 433.804 316.2C434.224 316.353 434.658 316.43 435.104 316.43C435.731 316.43 436.201 316.317 436.514 316.09C436.828 315.857 436.984 315.557 436.984 315.19C436.984 314.91 436.898 314.687 436.724 314.52C436.558 314.353 436.351 314.227 436.104 314.14C435.858 314.047 435.514 313.947 435.074 313.84C434.548 313.707 434.128 313.58 433.814 313.46C433.501 313.333 433.231 313.143 433.004 312.89C432.784 312.637 432.674 312.293 432.674 311.86C432.674 311.507 432.768 311.187 432.954 310.9C433.141 310.607 433.428 310.373 433.814 310.2C434.201 310.027 434.681 309.94 435.254 309.94C435.654 309.94 436.044 309.997 436.424 310.11C436.811 310.217 437.144 310.367 437.424 310.56L437.174 311.15C436.881 310.957 436.568 310.813 436.234 310.72C435.901 310.62 435.574 310.57 435.254 310.57C434.641 310.57 434.178 310.69 433.864 310.93C433.558 311.163 433.404 311.467 433.404 311.84C433.404 312.12 433.488 312.347 433.654 312.52C433.828 312.687 434.041 312.817 434.294 312.91C434.554 312.997 434.901 313.093 435.334 313.2C435.848 313.327 436.261 313.453 436.574 313.58C436.894 313.7 437.164 313.887 437.384 314.14C437.604 314.387 437.714 314.723 437.714 315.15C437.714 315.503 437.618 315.827 437.424 316.12C437.238 316.407 436.948 316.637 436.554 316.81C436.161 316.977 435.678 317.06 435.104 317.06ZM440.589 310.64H438.129V310H443.789V310.64H441.329V317H440.589V310.64ZM449.751 317L448.151 314.75C447.971 314.77 447.784 314.78 447.591 314.78H445.711V317H444.971V310H447.591C448.484 310 449.184 310.213 449.691 310.64C450.198 311.067 450.451 311.653 450.451 312.4C450.451 312.947 450.311 313.41 450.031 313.79C449.758 314.163 449.364 314.433 448.851 314.6L450.561 317H449.751ZM447.571 314.15C448.264 314.15 448.794 313.997 449.161 313.69C449.528 313.383 449.711 312.953 449.711 312.4C449.711 311.833 449.528 311.4 449.161 311.1C448.794 310.793 448.264 310.64 447.571 310.64H445.711V314.15H447.571ZM456.588 315.13H452.688L451.848 317H451.078L454.278 310H455.008L458.208 317H457.428L456.588 315.13ZM456.318 314.53L454.638 310.77L452.958 314.53H456.318ZM460.374 310.64H457.914V310H463.574V310.64H461.114V317H460.374V310.64ZM469.706 316.36V317H464.756V310H469.556V310.64H465.496V313.13H469.116V313.76H465.496V316.36H469.706ZM476.337 313.5H477.047V316.17C476.72 316.457 476.333 316.677 475.887 316.83C475.44 316.983 474.97 317.06 474.477 317.06C473.777 317.06 473.147 316.907 472.587 316.6C472.027 316.293 471.587 315.87 471.267 315.33C470.947 314.783 470.787 314.173 470.787 313.5C470.787 312.827 470.947 312.22 471.267 311.68C471.587 311.133 472.027 310.707 472.587 310.4C473.147 310.093 473.78 309.94 474.487 309.94C475.02 309.94 475.51 310.027 475.957 310.2C476.403 310.367 476.78 310.617 477.087 310.95L476.627 311.42C476.073 310.873 475.37 310.6 474.517 310.6C473.95 310.6 473.437 310.727 472.977 310.98C472.523 311.227 472.167 311.573 471.907 312.02C471.647 312.46 471.517 312.953 471.517 313.5C471.517 314.047 471.647 314.54 471.907 314.98C472.167 315.42 472.523 315.767 472.977 316.02C473.43 316.273 473.94 316.4 474.507 316.4C475.227 316.4 475.837 316.22 476.337 315.86V313.5ZM481.541 314.58V317H480.811V314.58L478.011 310H478.801L481.201 313.93L483.601 310H484.341L481.541 314.58ZM415.072 326C415.965 326 416.665 326.213 417.172 326.64C417.678 327.067 417.932 327.653 417.932 328.4C417.932 329.147 417.678 329.733 417.172 330.16C416.665 330.58 415.965 330.79 415.072 330.79H413.192V333H412.452V326H415.072ZM415.052 330.14C415.745 330.14 416.275 329.99 416.642 329.69C417.008 329.383 417.192 328.953 417.192 328.4C417.192 327.833 417.008 327.4 416.642 327.1C416.275 326.793 415.745 326.64 415.052 326.64H413.192V330.14H415.052ZM419.532 326H420.272V332.36H424.192V333H419.532V326ZM429.83 331.13H425.93L425.09 333H424.32L427.52 326H428.25L431.45 333H430.67L429.83 331.13ZM429.56 330.53L427.88 326.77L426.2 330.53H429.56ZM438.458 326V333H437.848L433.348 327.32V333H432.608V326H433.218L437.728 331.68V326H438.458ZM446.593 326V333H445.983L441.483 327.32V333H440.743V326H441.353L445.863 331.68V326H446.593ZM448.877 326H449.617V333H448.877V326ZM457.745 326V333H457.135L452.635 327.32V333H451.895V326H452.505L457.015 331.68V326H457.745ZM464.96 329.5H465.67V332.17C465.343 332.457 464.956 332.677 464.51 332.83C464.063 332.983 463.593 333.06 463.1 333.06C462.4 333.06 461.77 332.907 461.21 332.6C460.65 332.293 460.21 331.87 459.89 331.33C459.57 330.783 459.41 330.173 459.41 329.5C459.41 328.827 459.57 328.22 459.89 327.68C460.21 327.133 460.65 326.707 461.21 326.4C461.77 326.093 462.403 325.94 463.11 325.94C463.643 325.94 464.133 326.027 464.58 326.2C465.026 326.367 465.403 326.617 465.71 326.95L465.25 327.42C464.696 326.873 463.993 326.6 463.14 326.6C462.573 326.6 462.06 326.727 461.6 326.98C461.146 327.227 460.79 327.573 460.53 328.02C460.27 328.46 460.14 328.953 460.14 329.5C460.14 330.047 460.27 330.54 460.53 330.98C460.79 331.42 461.146 331.767 461.6 332.02C462.053 332.273 462.563 332.4 463.13 332.4C463.85 332.4 464.46 332.22 464.96 331.86V329.5ZM475.311 329.5H476.021V332.17C475.695 332.457 475.308 332.677 474.861 332.83C474.415 332.983 473.945 333.06 473.451 333.06C472.751 333.06 472.121 332.907 471.561 332.6C471.001 332.293 470.561 331.87 470.241 331.33C469.921 330.783 469.761 330.173 469.761 329.5C469.761 328.827 469.921 328.22 470.241 327.68C470.561 327.133 471.001 326.707 471.561 326.4C472.121 326.093 472.755 325.94 473.461 325.94C473.995 325.94 474.485 326.027 474.931 326.2C475.378 326.367 475.755 326.617 476.061 326.95L475.601 327.42C475.048 326.873 474.345 326.6 473.491 326.6C472.925 326.6 472.411 326.727 471.951 326.98C471.498 327.227 471.141 327.573 470.881 328.02C470.621 328.46 470.491 328.953 470.491 329.5C470.491 330.047 470.621 330.54 470.881 330.98C471.141 331.42 471.498 331.767 471.951 332.02C472.405 332.273 472.915 332.4 473.481 332.4C474.201 332.4 474.811 332.22 475.311 331.86V329.5ZM482.896 333L481.296 330.75C481.116 330.77 480.929 330.78 480.736 330.78H478.856V333H478.116V326H480.736C481.629 326 482.329 326.213 482.836 326.64C483.342 327.067 483.596 327.653 483.596 328.4C483.596 328.947 483.456 329.41 483.176 329.79C482.902 330.163 482.509 330.433 481.996 330.6L483.706 333H482.896ZM480.716 330.15C481.409 330.15 481.939 329.997 482.306 329.69C482.672 329.383 482.856 328.953 482.856 328.4C482.856 327.833 482.672 327.4 482.306 327.1C481.939 326.793 481.409 326.64 480.716 326.64H478.856V330.15H480.716ZM488.402 333.06C487.709 333.06 487.079 332.907 486.512 332.6C485.952 332.287 485.512 331.86 485.192 331.32C484.879 330.78 484.722 330.173 484.722 329.5C484.722 328.827 484.879 328.22 485.192 327.68C485.512 327.14 485.952 326.717 486.512 326.41C487.079 326.097 487.709 325.94 488.402 325.94C489.095 325.94 489.719 326.093 490.272 326.4C490.832 326.707 491.272 327.133 491.592 327.68C491.912 328.22 492.072 328.827 492.072 329.5C492.072 330.173 491.912 330.783 491.592 331.33C491.272 331.87 490.832 332.293 490.272 332.6C489.719 332.907 489.095 333.06 488.402 333.06ZM488.402 332.4C488.955 332.4 489.455 332.277 489.902 332.03C490.349 331.777 490.699 331.43 490.952 330.99C491.205 330.543 491.332 330.047 491.332 329.5C491.332 328.953 491.205 328.46 490.952 328.02C490.699 327.573 490.349 327.227 489.902 326.98C489.455 326.727 488.955 326.6 488.402 326.6C487.849 326.6 487.345 326.727 486.892 326.98C486.445 327.227 486.092 327.573 485.832 328.02C485.579 328.46 485.452 328.953 485.452 329.5C485.452 330.047 485.579 330.543 485.832 330.99C486.092 331.43 486.445 331.777 486.892 332.03C487.345 332.277 487.849 332.4 488.402 332.4ZM496.551 333.06C495.644 333.06 494.937 332.8 494.431 332.28C493.924 331.76 493.671 331.003 493.671 330.01V326H494.411V329.98C494.411 330.793 494.594 331.4 494.961 331.8C495.327 332.2 495.857 332.4 496.551 332.4C497.251 332.4 497.784 332.2 498.151 331.8C498.517 331.4 498.701 330.793 498.701 329.98V326H499.421V330.01C499.421 331.003 499.167 331.76 498.661 332.28C498.161 332.8 497.457 333.06 496.551 333.06ZM504.271 326C505.164 326 505.864 326.213 506.371 326.64C506.877 327.067 507.131 327.653 507.131 328.4C507.131 329.147 506.877 329.733 506.371 330.16C505.864 330.58 505.164 330.79 504.271 330.79H502.391V333H501.651V326H504.271ZM504.251 330.14C504.944 330.14 505.474 329.99 505.841 329.69C506.207 329.383 506.391 328.953 506.391 328.4C506.391 327.833 506.207 327.4 505.841 327.1C505.474 326.793 504.944 326.64 504.251 326.64H502.391V330.14H504.251Z" fill="white"/>
<rect x="560" y="220" width="140" height="150" rx="20" fill="#1A1A1A"/>
<path d="M622.716 266.168C623.868 266.168 624.816 265.712 625.548 264.86L624.612 263.756C624.132 264.272 623.544 264.632 622.776 264.632C621.372 264.632 620.46 263.468 620.46 261.536C620.46 259.628 621.468 258.476 622.812 258.476C623.484 258.476 624 258.788 624.456 259.22L625.38 258.092C624.804 257.492 623.904 256.952 622.776 256.952C620.532 256.952 618.648 258.668 618.648 261.596C618.648 264.56 620.472 266.168 622.716 266.168ZM626.979 266H628.755V262.4H631.911V260.912H628.755V258.596H632.451V257.108H626.979V266ZM637.386 266.168C639.738 266.168 641.358 264.404 641.358 261.524C641.358 258.644 639.738 256.952 637.386 256.952C635.034 256.952 633.414 258.632 633.414 261.524C633.414 264.404 635.034 266.168 637.386 266.168ZM637.386 264.632C636.066 264.632 635.226 263.42 635.226 261.524C635.226 259.616 636.066 258.476 637.386 258.476C638.706 258.476 639.546 259.616 639.546 261.524C639.546 263.42 638.706 264.632 637.386 264.632Z" fill="#DCE4FF"/>
<path d="M613.166 277.296V282.238H612.116V277.506H610.394V285.85C608.49 284.856 607.846 282.714 607.846 280.46V280.11H609.778V278.612H603.94V280.11H606.054V280.46C606.054 282.938 605.438 285.22 603.52 286.34L604.626 287.74C605.83 287.026 606.586 285.808 607.006 284.324C607.468 285.612 608.21 286.648 609.358 287.264L610.394 285.878V289.616H612.116V283.75H613.166V290.19H614.916V277.296H613.166ZM625.107 281.692H619.801V279.396H625.107V281.692ZM626.913 277.94H617.981V283.148H626.913V277.94ZM628.313 284.52H616.637V285.99H621.509V290.204H623.357V285.99H628.313V284.52ZM633.724 283.134C636.09 282.966 637.7 282.308 638.512 281.286C639.31 282.308 640.92 282.966 643.286 283.134L643.832 281.762C641.074 281.594 639.814 280.796 639.576 279.914H643.216V278.472H639.422V277.338H637.574V278.472H633.794V279.914H637.434C637.196 280.796 635.936 281.594 633.178 281.762L633.724 283.134ZM638.484 288.846C636.734 288.846 635.88 288.594 635.88 288.02C635.88 287.432 636.734 287.194 638.484 287.194C640.234 287.194 641.088 287.432 641.088 288.02C641.088 288.594 640.234 288.846 638.484 288.846ZM638.484 285.836C635.67 285.836 634.018 286.606 634.018 288.02C634.018 289.434 635.67 290.218 638.484 290.218C641.298 290.218 642.964 289.434 642.964 288.02C642.964 286.606 641.298 285.836 638.484 285.836ZM639.422 283.778V282.546H637.574V283.778H632.688V285.22H644.336V283.778H639.422ZM652.483 281.818C652.749 280.488 652.749 279.396 652.749 278.612V277.856H646.127V279.298H650.929C650.915 279.928 650.859 280.698 650.691 281.65L652.483 281.818ZM653.323 282.252C652.119 282.378 650.817 282.462 649.543 282.518V280.516H647.723V282.56C646.897 282.574 646.113 282.574 645.385 282.574L645.539 284.002C647.849 284.002 650.761 283.96 653.421 283.512L653.323 282.252ZM648.899 287.964H655.857V284.618H647.023V285.976H654.009V286.69H647.051V290.106H656.277V288.72H648.899V287.964ZM655.857 280.026V277.296H654.009V284.156H655.857V281.538H657.411V280.026H655.857Z" fill="white"/>
<path d="M598.869 311V318H598.159V312.4L595.409 317.11H595.059L592.309 312.43V318H591.599V311H592.209L595.249 316.19L598.259 311H598.869ZM605.54 316.13H601.64L600.8 318H600.03L603.23 311H603.96L607.16 318H606.38L605.54 316.13ZM605.27 315.53L603.59 311.77L601.91 315.53H605.27ZM614.168 311V318H613.558L609.058 312.32V318H608.318V311H608.928L613.438 316.68V311H614.168ZM620.843 316.13H616.943L616.103 318H615.333L618.533 311H619.263L622.463 318H621.683L620.843 316.13ZM620.573 315.53L618.893 311.77L617.213 315.53H620.573ZM628.453 314.5H629.163V317.17C628.836 317.457 628.449 317.677 628.003 317.83C627.556 317.983 627.086 318.06 626.593 318.06C625.893 318.06 625.263 317.907 624.703 317.6C624.143 317.293 623.703 316.87 623.383 316.33C623.063 315.783 622.903 315.173 622.903 314.5C622.903 313.827 623.063 313.22 623.383 312.68C623.703 312.133 624.143 311.707 624.703 311.4C625.263 311.093 625.896 310.94 626.603 310.94C627.136 310.94 627.626 311.027 628.073 311.2C628.519 311.367 628.896 311.617 629.203 311.95L628.743 312.42C628.189 311.873 627.486 311.6 626.633 311.6C626.066 311.6 625.553 311.727 625.093 311.98C624.639 312.227 624.283 312.573 624.023 313.02C623.763 313.46 623.633 313.953 623.633 314.5C623.633 315.047 623.763 315.54 624.023 315.98C624.283 316.42 624.639 316.767 625.093 317.02C625.546 317.273 626.056 317.4 626.623 317.4C627.343 317.4 627.953 317.22 628.453 316.86V314.5ZM636.207 317.36V318H631.257V311H636.057V311.64H631.997V314.13H635.617V314.76H631.997V317.36H636.207ZM645.217 311V318H644.507V312.4L641.757 317.11H641.407L638.657 312.43V318H637.947V311H638.557L641.597 316.19L644.607 311H645.217ZM652.447 317.36V318H647.497V311H652.297V311.64H648.237V314.13H651.857V314.76H648.237V317.36H652.447ZM660.037 311V318H659.427L654.927 312.32V318H654.187V311H654.797L659.307 316.68V311H660.037ZM663.682 311.64H661.222V311H666.882V311.64H664.422V318H663.682V311.64ZM616.846 330.5H617.556V333.17C617.23 333.457 616.843 333.677 616.396 333.83C615.95 333.983 615.48 334.06 614.986 334.06C614.286 334.06 613.656 333.907 613.096 333.6C612.536 333.293 612.096 332.87 611.776 332.33C611.456 331.783 611.296 331.173 611.296 330.5C611.296 329.827 611.456 329.22 611.776 328.68C612.096 328.133 612.536 327.707 613.096 327.4C613.656 327.093 614.29 326.94 614.996 326.94C615.53 326.94 616.02 327.027 616.466 327.2C616.913 327.367 617.29 327.617 617.596 327.95L617.136 328.42C616.583 327.873 615.88 327.6 615.026 327.6C614.46 327.6 613.946 327.727 613.486 327.98C613.033 328.227 612.676 328.573 612.416 329.02C612.156 329.46 612.026 329.953 612.026 330.5C612.026 331.047 612.156 331.54 612.416 331.98C612.676 332.42 613.033 332.767 613.486 333.02C613.94 333.273 614.45 333.4 615.016 333.4C615.736 333.4 616.346 333.22 616.846 332.86V330.5ZM624.431 334L622.831 331.75C622.651 331.77 622.464 331.78 622.271 331.78H620.391V334H619.651V327H622.271C623.164 327 623.864 327.213 624.371 327.64C624.877 328.067 625.131 328.653 625.131 329.4C625.131 329.947 624.991 330.41 624.711 330.79C624.437 331.163 624.044 331.433 623.531 331.6L625.241 334H624.431ZM622.251 331.15C622.944 331.15 623.474 330.997 623.841 330.69C624.207 330.383 624.391 329.953 624.391 329.4C624.391 328.833 624.207 328.4 623.841 328.1C623.474 327.793 622.944 327.64 622.251 327.64H620.391V331.15H622.251ZM629.937 334.06C629.244 334.06 628.614 333.907 628.047 333.6C627.487 333.287 627.047 332.86 626.727 332.32C626.414 331.78 626.257 331.173 626.257 330.5C626.257 329.827 626.414 329.22 626.727 328.68C627.047 328.14 627.487 327.717 628.047 327.41C628.614 327.097 629.244 326.94 629.937 326.94C630.631 326.94 631.254 327.093 631.807 327.4C632.367 327.707 632.807 328.133 633.127 328.68C633.447 329.22 633.607 329.827 633.607 330.5C633.607 331.173 633.447 331.783 633.127 332.33C632.807 332.87 632.367 333.293 631.807 333.6C631.254 333.907 630.631 334.06 629.937 334.06ZM629.937 333.4C630.491 333.4 630.991 333.277 631.437 333.03C631.884 332.777 632.234 332.43 632.487 331.99C632.741 331.543 632.867 331.047 632.867 330.5C632.867 329.953 632.741 329.46 632.487 329.02C632.234 328.573 631.884 328.227 631.437 327.98C630.991 327.727 630.491 327.6 629.937 327.6C629.384 327.6 628.881 327.727 628.427 327.98C627.981 328.227 627.627 328.573 627.367 329.02C627.114 329.46 626.987 329.953 626.987 330.5C626.987 331.047 627.114 331.543 627.367 331.99C627.627 332.43 627.981 332.777 628.427 333.03C628.881 333.277 629.384 333.4 629.937 333.4ZM638.086 334.06C637.179 334.06 636.473 333.8 635.966 333.28C635.459 332.76 635.206 332.003 635.206 331.01V327H635.946V330.98C635.946 331.793 636.129 332.4 636.496 332.8C636.863 333.2 637.393 333.4 638.086 333.4C638.786 333.4 639.319 333.2 639.686 332.8C640.053 332.4 640.236 331.793 640.236 330.98V327H640.956V331.01C640.956 332.003 640.703 332.76 640.196 333.28C639.696 333.8 638.993 334.06 638.086 334.06ZM645.806 327C646.699 327 647.399 327.213 647.906 327.64C648.413 328.067 648.666 328.653 648.666 329.4C648.666 330.147 648.413 330.733 647.906 331.16C647.399 331.58 646.699 331.79 645.806 331.79H643.926V334H643.186V327H645.806ZM645.786 331.14C646.479 331.14 647.009 330.99 647.376 330.69C647.743 330.383 647.926 329.953 647.926 329.4C647.926 328.833 647.743 328.4 647.376 328.1C647.009 327.793 646.479 327.64 645.786 327.64H643.926V331.14H645.786Z" fill="white"/>
<circle cx="375" cy="70" r="70" fill="#0000F4"/>
<path d="M368.22 47.14C369.18 47.14 369.97 46.76 370.58 46.05L369.8 45.13C369.4 45.56 368.91 45.86 368.27 45.86C367.1 45.86 366.34 44.89 366.34 43.28C366.34 41.69 367.18 40.73 368.3 40.73C368.86 40.73 369.29 40.99 369.67 41.35L370.44 40.41C369.96 39.91 369.21 39.46 368.27 39.46C366.4 39.46 364.83 40.89 364.83 43.33C364.83 45.8 366.35 47.14 368.22 47.14ZM371.772 47H376.422V45.76H373.252V43.78H375.852V42.54H373.252V40.83H376.312V39.59H371.772V47ZM380.865 47.14C382.825 47.14 384.175 45.67 384.175 43.27C384.175 40.87 382.825 39.46 380.865 39.46C378.905 39.46 377.555 40.86 377.555 43.27C377.555 45.67 378.905 47.14 380.865 47.14ZM380.865 45.86C379.765 45.86 379.065 44.85 379.065 43.27C379.065 41.68 379.765 40.73 380.865 40.73C381.965 40.73 382.665 41.68 382.665 43.27C382.665 44.85 381.965 45.86 380.865 45.86Z" fill="#DCE4FF"/>
<path d="M347.818 59.34H343.618V57.36H340.978V59.34H336.757V61.4H347.818V59.34ZM340.238 65.58C340.238 64.64 341.078 64.12 342.298 64.12C343.538 64.12 344.358 64.64 344.358 65.58C344.358 66.54 343.538 67.06 342.298 67.06C341.078 67.06 340.238 66.54 340.238 65.58ZM343.618 68.92C345.578 68.54 346.858 67.3 346.858 65.58C346.858 63.52 344.978 62.12 342.298 62.12C339.598 62.12 337.718 63.52 337.718 65.58C337.718 67.3 338.998 68.54 340.978 68.92V70.48C339.338 70.52 337.778 70.52 336.398 70.52L336.718 72.66C339.978 72.66 344.238 72.64 348.258 71.9L348.058 69.98C346.618 70.18 345.118 70.28 343.618 70.38V68.92ZM349.018 57.3V75.72H351.658V57.3H349.018ZM361.476 58.72H358.816V61.4C358.816 64.82 357.416 68.34 354.316 69.8L355.896 71.94C357.976 70.92 359.356 68.98 360.156 66.64C360.916 68.84 362.216 70.62 364.136 71.6L365.736 69.52C362.776 68.06 361.476 64.72 361.476 61.4V58.72ZM371.796 64.38H369.116V57.3H366.476V75.72H369.116V66.58H371.796V64.38ZM379.106 65.62C382.486 65.38 384.786 64.44 385.946 62.98C387.086 64.44 389.386 65.38 392.766 65.62L393.546 63.66C389.606 63.42 387.806 62.28 387.466 61.02H392.666V58.96H387.246V57.34H384.606V58.96H379.206V61.02H384.406C384.066 62.28 382.266 63.42 378.326 63.66L379.106 65.62ZM385.906 73.78C383.406 73.78 382.186 73.42 382.186 72.6C382.186 71.76 383.406 71.42 385.906 71.42C388.406 71.42 389.626 71.76 389.626 72.6C389.626 73.42 388.406 73.78 385.906 73.78ZM385.906 69.48C381.886 69.48 379.526 70.58 379.526 72.6C379.526 74.62 381.886 75.72 385.906 75.72C389.926 75.72 392.306 74.62 392.306 72.6C392.306 70.58 389.926 69.48 385.906 69.48ZM387.246 66.54V64.78H384.606V66.54H377.626V68.6H394.266V66.54H387.246ZM405.904 63.74C406.284 61.84 406.284 60.28 406.284 59.16V58.08H396.824V60.14H403.684C403.664 61.04 403.584 62.14 403.344 63.5L405.904 63.74ZM407.104 64.36C405.384 64.54 403.524 64.66 401.704 64.74V61.88H399.104V64.8C397.924 64.82 396.804 64.82 395.764 64.82L395.984 66.86C399.284 66.86 403.444 66.8 407.244 66.16L407.104 64.36ZM400.784 72.52H410.724V67.74H398.104V69.68H408.084V70.7H398.144V75.56H411.324V73.6H400.784V72.52ZM410.724 61.18V57.28H408.084V67.08H410.724V63.34H412.944V61.18H410.724Z" fill="white"/>
<path d="M340.515 95H341.255V101.36H345.175V102H340.515V95ZM351.354 101.36V102H346.404V95H351.204V95.64H347.144V98.13H350.764V98.76H347.144V101.36H351.354ZM356.094 102.06C355.401 102.06 354.774 101.907 354.214 101.6C353.661 101.293 353.224 100.87 352.904 100.33C352.591 99.7833 352.434 99.1733 352.434 98.5C352.434 97.8267 352.591 97.22 352.904 96.68C353.224 96.1333 353.664 95.7067 354.224 95.4C354.784 95.0933 355.411 94.94 356.104 94.94C356.624 94.94 357.104 95.0267 357.544 95.2C357.984 95.3733 358.357 95.6267 358.664 95.96L358.194 96.43C357.647 95.8767 356.957 95.6 356.124 95.6C355.571 95.6 355.067 95.7267 354.614 95.98C354.161 96.2333 353.804 96.58 353.544 97.02C353.291 97.46 353.164 97.9533 353.164 98.5C353.164 99.0467 353.291 99.54 353.544 99.98C353.804 100.42 354.161 100.767 354.614 101.02C355.067 101.273 355.571 101.4 356.124 101.4C356.964 101.4 357.654 101.12 358.194 100.56L358.664 101.03C358.357 101.363 357.981 101.62 357.534 101.8C357.094 101.973 356.614 102.06 356.094 102.06ZM360.242 95H360.982V101.36H364.902V102H360.242V95ZM371.08 101.36V102H366.13V95H370.93V95.64H366.87V98.13H370.49V98.76H366.87V101.36H371.08ZM377.607 98.71L376.177 100.16V102H375.437V95H376.177V99.23L380.287 95H381.137L378.107 98.17L381.347 102H380.467L377.607 98.71ZM385.352 102.06C384.659 102.06 384.029 101.907 383.462 101.6C382.902 101.287 382.462 100.86 382.142 100.32C381.829 99.78 381.672 99.1733 381.672 98.5C381.672 97.8267 381.829 97.22 382.142 96.68C382.462 96.14 382.902 95.7167 383.462 95.41C384.029 95.0967 384.659 94.94 385.352 94.94C386.046 94.94 386.669 95.0933 387.222 95.4C387.782 95.7067 388.222 96.1333 388.542 96.68C388.862 97.22 389.022 97.8267 389.022 98.5C389.022 99.1733 388.862 99.7833 388.542 100.33C388.222 100.87 387.782 101.293 387.222 101.6C386.669 101.907 386.046 102.06 385.352 102.06ZM385.352 101.4C385.906 101.4 386.406 101.277 386.852 101.03C387.299 100.777 387.649 100.43 387.902 99.99C388.156 99.5433 388.282 99.0467 388.282 98.5C388.282 97.9533 388.156 97.46 387.902 97.02C387.649 96.5733 387.299 96.2267 386.852 95.98C386.406 95.7267 385.906 95.6 385.352 95.6C384.799 95.6 384.296 95.7267 383.842 95.98C383.396 96.2267 383.042 96.5733 382.782 97.02C382.529 97.46 382.402 97.9533 382.402 98.5C382.402 99.0467 382.529 99.5433 382.782 99.99C383.042 100.43 383.396 100.777 383.842 101.03C384.296 101.277 384.799 101.4 385.352 101.4ZM395.461 102L393.861 99.75C393.681 99.77 393.494 99.78 393.301 99.78H391.421V102H390.681V95H393.301C394.194 95 394.894 95.2133 395.401 95.64C395.908 96.0667 396.161 96.6533 396.161 97.4C396.161 97.9467 396.021 98.41 395.741 98.79C395.468 99.1633 395.074 99.4333 394.561 99.6L396.271 102H395.461ZM393.281 99.15C393.974 99.15 394.504 98.9967 394.871 98.69C395.238 98.3833 395.421 97.9533 395.421 97.4C395.421 96.8333 395.238 96.4 394.871 96.1C394.504 95.7933 393.974 95.64 393.281 95.64H391.421V99.15H393.281ZM402.858 101.36V102H397.908V95H402.708V95.64H398.648V98.13H402.268V98.76H398.648V101.36H402.858ZM408.987 100.13H405.087L404.247 102H403.477L406.677 95H407.407L410.607 102H409.827L408.987 100.13ZM408.717 99.53L407.037 95.77L405.357 99.53H408.717Z" fill="white"/>
<rect y="470" width="80" height="100" rx="12" fill="#F0F0F0"/>
<path d="M31.3993 497H32.8793V494.37H33.8693C35.4593 494.37 36.7293 493.61 36.7293 491.92C36.7293 490.17 35.4693 489.6 33.8293 489.6H31.3993V497ZM32.8793 493.2V490.77H33.7193C34.7393 490.77 35.2793 491.06 35.2793 491.92C35.2793 492.77 34.7893 493.2 33.7693 493.2H32.8793ZM37.3436 497.14C37.8736 497.14 38.2636 496.72 38.2636 496.18C38.2636 495.64 37.8736 495.22 37.3436 495.22C36.8236 495.22 36.4336 495.64 36.4336 496.18C36.4336 496.72 36.8236 497.14 37.3436 497.14ZM39.8856 497H41.2156V493.91C41.2156 493.21 41.0956 492.18 41.0256 491.48H41.0656L41.6556 493.22L42.8056 496.33H43.6556L44.7956 493.22L45.3956 491.48H45.4356C45.3656 492.18 45.2556 493.21 45.2556 493.91V497H46.6056V489.6H44.9656L43.7356 493.06C43.5756 493.52 43.4456 494.01 43.2856 494.49H43.2356C43.0856 494.01 42.9456 493.52 42.7856 493.06L41.5256 489.6H39.8856V497Z" fill="#808080"/>
<path d="M6.57992 517.73V518.82H14.9599V517.73H6.57992ZM7.21992 511.43V512.49H14.2699V511.43H7.21992ZM7.25992 515.26V516.33H14.2399V515.26H7.25992ZM8.47992 512.41V515.36H9.80992V512.41H8.47992ZM11.6899 512.41V515.36H13.0099V512.41H11.6899ZM15.7791 517.79V518.87H24.1591V517.79H15.7791ZM19.2891 516.04V518.23H20.6191V516.04H19.2891ZM16.7191 511.23V512.28H21.8991V513.27H16.7391V515.87H18.0591V514.31H23.2191V511.23H16.7191ZM16.7391 515.34V516.41H23.4291V515.34H16.7391ZM28.7984 512.92V513.99H30.2484V512.92H28.7984ZM29.7884 510.81V516.23H31.0284V510.81H29.7884ZM26.5984 512.02V512.61C26.5984 513.64 26.0884 514.69 24.8484 515.18L25.5184 516.21C27.0184 515.61 27.6284 514.16 27.6284 512.61V512.02H26.5984ZM26.8484 512.02V512.61C26.8484 514.1 27.4184 515.48 28.8684 516.04L29.5184 515.02C28.3584 514.56 27.8784 513.6 27.8784 512.61V512.02H26.8484ZM25.1384 511.29V512.35H29.2284V511.29H25.1384ZM31.5984 510.63V516.27H32.8584V510.63H31.5984ZM26.4984 516.61V517.67H31.5384V519.89H32.8584V516.61H26.4984ZM35.1576 515.4V516.44H41.6676V515.4H35.1576ZM34.1776 517.75V518.83H42.5576V517.75H34.1776ZM35.1576 511.3V515.69H36.5076V512.37H41.5876V511.3H35.1576ZM36.0976 513.34V514.37H41.3776V513.34H36.0976ZM52.3224 510.63V519.89H53.5924V510.63H52.3224ZM51.2124 514.16V515.23H52.7424V514.16H51.2124ZM50.2924 510.77V519.47H51.5424V510.77H50.2924ZM45.8924 511.58V517.58H49.5524V511.58H45.8924ZM48.3124 512.62V516.54H47.1324V512.62H48.3124ZM61.2416 510.63V519.89H62.5716V510.63H61.2416ZM55.3216 511.51V517.26H56.6416V511.51H55.3216ZM55.3216 516.48V517.61H56.1416C57.5516 517.61 59.0816 517.51 60.6716 517.18L60.5216 516.08C58.9916 516.38 57.4916 516.48 56.1416 516.48H55.3216ZM70.4709 510.62V519.91H71.8009V510.62H70.4709ZM68.8509 513.86V514.93H70.7809V513.86H68.8509ZM66.1709 512.09V512.91C66.1709 514.63 65.4409 516.4 63.8909 517.13L64.6709 518.18C66.4009 517.33 67.2209 515.17 67.2209 512.91V512.09H66.1709ZM66.4809 512.09V512.91C66.4809 515.1 67.2809 517.17 69.0209 517.99L69.7909 516.95C68.2409 516.25 67.5209 514.54 67.5209 512.91V512.09H66.4809ZM64.2709 511.52V512.59H69.4209V511.52H64.2709Z" fill="#1A1A1A"/>
<rect x="83" y="470" width="80" height="100" rx="12" fill="#F0F0F0"/>
<path d="M94.994 497H96.474V494H99.104V492.76H96.474V490.83H99.554V489.6H94.994V497ZM102.324 490.77H103.284C104.234 490.77 104.754 491.04 104.754 491.84C104.754 492.63 104.234 493.03 103.284 493.03H102.324V490.77ZM106.524 497L104.794 493.97C105.644 493.64 106.204 492.95 106.204 491.84C106.204 490.14 104.974 489.6 103.424 489.6H100.844V497H102.324V494.2H103.354L104.874 497H106.524ZM110.6 497.14C112.56 497.14 113.91 495.67 113.91 493.27C113.91 490.87 112.56 489.46 110.6 489.46C108.64 489.46 107.29 490.86 107.29 493.27C107.29 495.67 108.64 497.14 110.6 497.14ZM110.6 495.86C109.5 495.86 108.8 494.85 108.8 493.27C108.8 491.68 109.5 490.73 110.6 490.73C111.7 490.73 112.4 491.68 112.4 493.27C112.4 494.85 111.7 495.86 110.6 495.86ZM115.355 497H116.755V494.03C116.755 493.18 116.645 492.25 116.575 491.45H116.625L117.375 493.04L119.515 497H121.015V489.6H119.615V492.55C119.615 493.39 119.725 494.37 119.805 495.14H119.755L119.015 493.54L116.865 489.6H115.355V497ZM124.316 497H125.796V490.83H127.896V489.6H122.236V490.83H124.316V497ZM127.924 494.66H130.654V493.61H127.924V494.66ZM132.045 497H136.695V495.76H133.525V493.78H136.125V492.54H133.525V490.83H136.585V489.6H132.045V497ZM138.197 497H139.597V494.03C139.597 493.18 139.487 492.25 139.417 491.45H139.467L140.217 493.04L142.357 497H143.857V489.6H142.457V492.55C142.457 493.39 142.567 494.37 142.647 495.14H142.597L141.857 493.54L139.707 489.6H138.197V497ZM145.687 497H147.797C149.977 497 151.377 495.76 151.377 493.27C151.377 490.77 149.977 489.6 147.717 489.6H145.687V497ZM147.167 495.81V490.78H147.627C149.007 490.78 149.867 491.46 149.867 493.27C149.867 495.07 149.007 495.81 147.627 495.81H147.167Z" fill="#808080"/>
<path d="M94.6795 517.73V518.82H103.06V517.73H94.6795ZM95.3195 511.43V512.49H102.37V511.43H95.3195ZM95.3595 515.26V516.33H102.34V515.26H95.3595ZM96.5795 512.41V515.36H97.9095V512.41H96.5795ZM99.7895 512.41V515.36H101.11V512.41H99.7895ZM103.869 515.75V516.81H112.259V515.75H103.869ZM104.919 518.89V519.95H111.449V518.89H104.919ZM104.919 517.27V519.21H106.249V517.27H104.919ZM107.399 514.47V516.22H108.729V514.47H107.399ZM104.899 510.83V511.84H109.929V512.46H104.909V514.36H106.229V513.4H111.239V510.83H104.899ZM104.909 514.05V515.05H111.419V514.05H104.909ZM114.058 515.4V516.44H120.568V515.4H114.058ZM113.078 517.75V518.83H121.458V517.75H113.078ZM114.058 511.3V515.69H115.408V512.37H120.488V511.3H114.058ZM114.998 513.34V514.37H120.278V513.34H114.998ZM131.193 510.63V519.89H132.463V510.63H131.193ZM130.023 514.12V515.18H131.553V514.12H130.023ZM127.263 511.76V512.04C127.263 514.26 126.523 515.82 124.413 517.07L125.183 517.99C127.773 516.48 128.533 514.37 128.533 511.76H127.263ZM124.883 511.76V512.83H127.653V511.76H124.883ZM129.143 510.87V519.49H130.383V510.87H129.143ZM134.002 511.04V515.09H138.452V511.04H137.132V512.13H135.322V511.04H134.002ZM135.322 513.13H137.132V514.05H135.322V513.13ZM139.692 510.63V515.33H141.022V510.63H139.692ZM140.482 512.41V513.49H142.242V512.41H140.482ZM134.902 515.69V516.71H139.712V517.26H134.922V519.31H136.242V518.21H141.022V515.69H134.902ZM134.922 518.8V519.83H141.292V518.8H134.922ZM145.011 512.09V513.13C145.011 514.65 144.261 516.38 142.731 517.1L143.481 518.15C145.181 517.35 146.061 515.22 146.061 513.13V512.09H145.011ZM145.291 512.09V513.13C145.291 515.1 146.151 517.13 147.851 517.92L148.581 516.87C147.061 516.17 146.341 514.53 146.341 513.13V512.09H145.291ZM143.091 511.52V512.61H148.171V511.52H143.091ZM148.851 510.63V519.89H150.191V510.63H148.851ZM149.891 514.16V515.26H151.531V514.16H149.891Z" fill="#1A1A1A"/>
<rect x="166" y="470" width="80" height="100" rx="12" fill="#F0F0F0"/>
<path d="M181.166 497H183.806C185.436 497 186.676 496.31 186.676 494.82C186.676 493.82 186.086 493.26 185.286 493.07V493.02C185.916 492.8 186.296 492.1 186.296 491.42C186.296 490.04 185.136 489.6 183.616 489.6H181.166V497ZM182.646 492.61V490.73H183.526C184.416 490.73 184.856 490.99 184.856 491.64C184.856 492.23 184.446 492.61 183.506 492.61H182.646ZM182.646 495.86V493.71H183.676C184.696 493.71 185.236 494.01 185.236 494.73C185.236 495.5 184.686 495.86 183.676 495.86H182.646ZM189.363 493.95L189.583 493.14C189.803 492.37 190.023 491.53 190.213 490.72H190.253C190.473 491.52 190.673 492.37 190.903 493.14L191.123 493.95H189.363ZM191.963 497H193.513L191.133 489.6H189.393L187.022 497H188.523L189.043 495.1H191.443L191.963 497ZM197.282 497.14C198.242 497.14 199.032 496.76 199.642 496.05L198.862 495.13C198.462 495.56 197.962 495.86 197.332 495.86C196.162 495.86 195.402 494.89 195.402 493.28C195.402 491.69 196.242 490.73 197.362 490.73C197.922 490.73 198.352 490.99 198.722 491.35L199.502 490.41C199.022 489.91 198.272 489.46 197.332 489.46C195.462 489.46 193.892 490.89 193.892 493.33C193.892 495.8 195.412 497.14 197.282 497.14ZM200.834 497H202.314V494.92L203.284 493.68L205.194 497H206.824L204.164 492.51L206.424 489.6H204.794L202.344 492.81H202.314V489.6H200.834V497ZM206.752 494.66H209.482V493.61H206.752V494.66ZM210.873 497H215.523V495.76H212.353V493.78H214.953V492.54H212.353V490.83H215.413V489.6H210.873V497ZM217.025 497H218.425V494.03C218.425 493.18 218.315 492.25 218.245 491.45H218.295L219.045 493.04L221.185 497H222.685V489.6H221.285V492.55C221.285 493.39 221.395 494.37 221.475 495.14H221.425L220.685 493.54L218.535 489.6H217.025V497ZM224.515 497H226.625C228.805 497 230.205 495.76 230.205 493.27C230.205 490.77 228.805 489.6 226.545 489.6H224.515V497ZM225.995 495.81V490.78H226.455C227.835 490.78 228.695 491.46 228.695 493.27C228.695 495.07 227.835 495.81 226.455 495.81H225.995Z" fill="#808080"/>
<path d="M177.99 511.22V515.7H181.66V511.22H180.42V512.52H179.24V511.22H177.99ZM179.24 513.54H180.42V514.66H179.24V513.54ZM184.3 510.64V516.21H185.56V510.64H184.3ZM183.19 512.89V513.97H184.66V512.89H183.19ZM182.34 510.8V516.17H183.58V510.8H182.34ZM179.2 516.63V517.69H184.24V519.89H185.56V516.63H179.2ZM190.589 513.14V514.21H191.999V513.14H190.589ZM189.019 511.3C187.789 511.3 186.899 512.26 186.899 513.64C186.899 515.01 187.789 515.98 189.019 515.98C190.239 515.98 191.139 515.01 191.139 513.64C191.139 512.26 190.239 511.3 189.019 511.3ZM189.019 512.44C189.549 512.44 189.949 512.88 189.949 513.64C189.949 514.4 189.549 514.84 189.019 514.84C188.479 514.84 188.089 514.4 188.089 513.64C188.089 512.88 188.479 512.44 189.019 512.44ZM193.499 510.63V517.52H194.759V510.63H193.499ZM191.669 510.78V517.24H192.909V510.78H191.669ZM188.529 518.67V519.73H194.999V518.67H188.529ZM188.529 516.64V519.23H189.859V516.64H188.529ZM197.048 514.9V515.96H203.558V514.9H197.048ZM196.078 517.69V518.78H204.458V517.69H196.078ZM197.048 511.39V515.34H198.368V512.47H203.488V511.39H197.048ZM214.193 510.63V519.89H215.463V510.63H214.193ZM213.023 514.12V515.18H214.553V514.12H213.023ZM210.263 511.76V512.04C210.263 514.26 209.523 515.82 207.413 517.07L208.183 517.99C210.773 516.48 211.533 514.37 211.533 511.76H210.263ZM207.883 511.76V512.83H210.653V511.76H207.883ZM212.143 510.87V519.49H213.383V510.87H212.143ZM217.002 511.04V515.09H221.452V511.04H220.132V512.13H218.322V511.04H217.002ZM218.322 513.13H220.132V514.05H218.322V513.13ZM222.692 510.63V515.33H224.022V510.63H222.692ZM223.482 512.41V513.49H225.242V512.41H223.482ZM217.902 515.69V516.71H222.712V517.26H217.922V519.31H219.242V518.21H224.022V515.69H217.902ZM217.922 518.8V519.83H224.292V518.8H217.922ZM228.011 512.09V513.13C228.011 514.65 227.261 516.38 225.731 517.1L226.481 518.15C228.181 517.35 229.061 515.22 229.061 513.13V512.09H228.011ZM228.291 512.09V513.13C228.291 515.1 229.151 517.13 230.851 517.92L231.581 516.87C230.061 516.17 229.341 514.53 229.341 513.13V512.09H228.291ZM226.091 511.52V512.61H231.171V511.52H226.091ZM231.851 510.63V519.89H233.191V510.63H231.851ZM232.891 514.16V515.26H234.531V514.16H232.891Z" fill="#1A1A1A"/>
<rect x="249" y="470" width="80" height="100" rx="12" fill="#F0F0F0"/>
<path d="M270.279 497H271.609V493.91C271.609 493.21 271.489 492.18 271.419 491.48H271.459L272.049 493.22L273.199 496.33H274.049L275.189 493.22L275.789 491.48H275.829C275.759 492.18 275.649 493.21 275.649 493.91V497H276.999V489.6H275.359L274.129 493.06C273.969 493.52 273.839 494.01 273.679 494.49H273.629C273.479 494.01 273.339 493.52 273.179 493.06L271.919 489.6H270.279V497ZM281.754 497.14C283.714 497.14 285.064 495.67 285.064 493.27C285.064 490.87 283.714 489.46 281.754 489.46C279.794 489.46 278.444 490.86 278.444 493.27C278.444 495.67 279.794 497.14 281.754 497.14ZM281.754 495.86C280.654 495.86 279.954 494.85 279.954 493.27C279.954 491.68 280.654 490.73 281.754 490.73C282.854 490.73 283.554 491.68 283.554 493.27C283.554 494.85 282.854 495.86 281.754 495.86ZM286.51 497H289.15C290.78 497 292.02 496.31 292.02 494.82C292.02 493.82 291.43 493.26 290.63 493.07V493.02C291.26 492.8 291.64 492.1 291.64 491.42C291.64 490.04 290.48 489.6 288.96 489.6H286.51V497ZM287.99 492.61V490.73H288.87C289.76 490.73 290.2 490.99 290.2 491.64C290.2 492.23 289.79 492.61 288.85 492.61H287.99ZM287.99 495.86V493.71H289.02C290.04 493.71 290.58 494.01 290.58 494.73C290.58 495.5 290.03 495.86 289.02 495.86H287.99ZM293.316 497H294.796V489.6H293.316V497ZM296.617 497H301.097V495.76H298.097V489.6H296.617V497ZM302.389 497H307.039V495.76H303.869V493.78H306.469V492.54H303.869V490.83H306.929V489.6H302.389V497Z" fill="#808080"/>
<path d="M260.68 517.74V518.82H269.06V517.74H260.68ZM264.19 515.69V517.99H265.52V515.69H264.19ZM261.55 511.31V515.86H268.14V511.31H261.55ZM266.84 512.37V514.81H262.86V512.37H266.84ZM275.789 510.63V519.89H277.129V510.63H275.789ZM276.829 514.08V515.18H278.469V514.08H276.829ZM270.149 511.36V517.75H274.649V511.36H273.329V513.61H271.469V511.36H270.149ZM271.469 514.64H273.329V516.68H271.469V514.64ZM281.678 510.9C280.268 510.9 279.208 511.78 279.208 513.02C279.208 514.25 280.268 515.13 281.678 515.13C283.088 515.13 284.148 514.25 284.148 513.02C284.148 511.78 283.088 510.9 281.678 510.9ZM281.678 511.98C282.358 511.98 282.858 512.36 282.858 513.02C282.858 513.68 282.358 514.06 281.678 514.06C280.998 514.06 280.488 513.68 280.488 513.02C280.488 512.36 280.998 511.98 281.678 511.98ZM285.428 510.63V515.26H286.768V510.63H285.428ZM280.588 515.64V516.67H285.448V517.22H280.608V519.3H281.908V518.18H286.768V515.64H280.588ZM280.608 518.76V519.79H286.998V518.76H280.608ZM297.193 510.63V519.89H298.463V510.63H297.193ZM296.023 514.12V515.18H297.553V514.12H296.023ZM293.263 511.76V512.04C293.263 514.26 292.523 515.82 290.413 517.07L291.183 517.99C293.773 516.48 294.533 514.37 294.533 511.76H293.263ZM290.883 511.76V512.83H293.653V511.76H290.883ZM295.143 510.87V519.49H296.383V510.87H295.143ZM300.002 511.04V515.09H304.452V511.04H303.132V512.13H301.322V511.04H300.002ZM301.322 513.13H303.132V514.05H301.322V513.13ZM305.692 510.63V515.33H307.022V510.63H305.692ZM306.482 512.41V513.49H308.242V512.41H306.482ZM300.902 515.69V516.71H305.712V517.26H300.922V519.31H302.242V518.21H307.022V515.69H300.902ZM300.922 518.8V519.83H307.292V518.8H300.922ZM311.011 512.09V513.13C311.011 514.65 310.261 516.38 308.731 517.1L309.481 518.15C311.181 517.35 312.061 515.22 312.061 513.13V512.09H311.011ZM311.291 512.09V513.13C311.291 515.1 312.151 517.13 313.851 517.92L314.581 516.87C313.061 516.17 312.341 514.53 312.341 513.13V512.09H311.291ZM309.091 511.52V512.61H314.171V511.52H309.091ZM314.851 510.63V519.89H316.191V510.63H314.851ZM315.891 514.16V515.26H317.531V514.16H315.891Z" fill="#1A1A1A"/>
<rect x="334" y="470" width="80" height="100" rx="12" fill="#F0F0F0"/>
<path d="M342.227 497H344.867C346.497 497 347.737 496.31 347.737 494.82C347.737 493.82 347.147 493.26 346.347 493.07V493.02C346.977 492.8 347.357 492.1 347.357 491.42C347.357 490.04 346.197 489.6 344.677 489.6H342.227V497ZM343.707 492.61V490.73H344.587C345.477 490.73 345.917 490.99 345.917 491.64C345.917 492.23 345.507 492.61 344.567 492.61H343.707ZM343.707 495.86V493.71H344.737C345.757 493.71 346.297 494.01 346.297 494.73C346.297 495.5 345.747 495.86 344.737 495.86H343.707ZM349.034 497H353.514V495.76H350.514V489.6H349.034V497ZM357.365 497.14C359.325 497.14 360.675 495.67 360.675 493.27C360.675 490.87 359.325 489.46 357.365 489.46C355.405 489.46 354.055 490.86 354.055 493.27C354.055 495.67 355.405 497.14 357.365 497.14ZM357.365 495.86C356.265 495.86 355.565 494.85 355.565 493.27C355.565 491.68 356.265 490.73 357.365 490.73C358.465 490.73 359.165 491.68 359.165 493.27C359.165 494.85 358.465 495.86 357.365 495.86ZM365.14 497.14C366.1 497.14 366.89 496.76 367.5 496.05L366.72 495.13C366.32 495.56 365.82 495.86 365.19 495.86C364.02 495.86 363.26 494.89 363.26 493.28C363.26 491.69 364.1 490.73 365.22 490.73C365.78 490.73 366.21 490.99 366.58 491.35L367.36 490.41C366.88 489.91 366.13 489.46 365.19 489.46C363.32 489.46 361.75 490.89 361.75 493.33C361.75 495.8 363.27 497.14 365.14 497.14ZM368.692 497H370.172V494.92L371.142 493.68L373.052 497H374.682L372.022 492.51L374.282 489.6H372.652L370.202 492.81H370.172V489.6H368.692V497ZM378.275 497.14C379.235 497.14 380.025 496.76 380.635 496.05L379.855 495.13C379.455 495.56 378.955 495.86 378.325 495.86C377.155 495.86 376.395 494.89 376.395 493.28C376.395 491.69 377.235 490.73 378.355 490.73C378.915 490.73 379.345 490.99 379.715 491.35L380.495 490.41C380.015 489.91 379.265 489.46 378.325 489.46C376.455 489.46 374.885 490.89 374.885 493.33C374.885 495.8 376.405 497.14 378.275 497.14ZM381.827 497H383.307V493.8H386.107V497H387.577V489.6H386.107V492.51H383.307V489.6H381.827V497ZM390.785 493.95L391.005 493.14C391.225 492.37 391.445 491.53 391.635 490.72H391.675C391.895 491.52 392.095 492.37 392.325 493.14L392.545 493.95H390.785ZM393.385 497H394.935L392.555 489.6H390.815L388.445 497H389.945L390.465 495.1H392.865L393.385 497ZM395.802 497H397.282V489.6H395.802V497ZM399.102 497H400.502V494.03C400.502 493.18 400.392 492.25 400.322 491.45H400.372L401.122 493.04L403.262 497H404.762V489.6H403.362V492.55C403.362 493.39 403.472 494.37 403.552 495.14H403.502L402.762 493.54L400.612 489.6H399.102V497Z" fill="#808080"/>
<path d="M355.439 510.79V513.89H361.679V510.79H360.359V511.4H356.749V510.79H355.439ZM356.749 512.37H360.359V512.91H356.749V512.37ZM354.369 514.39V515.43H362.739V514.39H354.369ZM355.329 515.96V516.93H360.419V517.4H355.339V519.15H356.649V518.31H361.729V515.96H355.329ZM355.339 518.84V519.83H361.969V518.84H355.339ZM363.568 515.59V516.65H371.958V515.59H363.568ZM364.598 510.81V511.82H369.628V512.38H364.608V514.32H365.928V513.32H370.938V510.81H364.598ZM364.608 513.92V514.93H371.118V513.92H364.608ZM367.098 514.41V516.17H368.428V514.41H367.098ZM364.498 517.17V518.22H369.668V519.86H370.998V517.17H364.498ZM376.537 514.14V515.21H378.007V514.14H376.537ZM374.387 513.2V513.44C374.387 514.86 373.917 516.38 372.597 517.15L373.347 518.15C374.827 517.3 375.387 515.37 375.387 513.44V513.2H374.387ZM374.647 513.2V513.44C374.647 515.34 375.217 517.15 376.717 517.93L377.437 516.95C376.127 516.25 375.647 514.84 375.647 513.44V513.2H374.647ZM372.947 512.18V513.25H377.077V512.18H372.947ZM374.387 510.94V513.05H375.647V510.94H374.387ZM379.457 510.63V519.89H380.717V510.63H379.457ZM377.587 510.78V519.47H378.827V510.78H377.587ZM388.326 510.64V517.29H389.666V510.64H388.326ZM383.496 518.67V519.73H389.896V518.67H383.496ZM383.496 516.62V519.1H384.826V516.62H383.496ZM384.626 511.22C383.206 511.22 382.106 512.2 382.106 513.57C382.106 514.93 383.206 515.92 384.626 515.92C386.046 515.92 387.136 514.93 387.136 513.57C387.136 512.2 386.046 511.22 384.626 511.22ZM384.626 512.37C385.306 512.37 385.836 512.81 385.836 513.57C385.836 514.32 385.306 514.76 384.626 514.76C383.936 514.76 383.406 514.32 383.406 513.57C383.406 512.81 383.936 512.37 384.626 512.37ZM350.719 527.4V528.46H356.549V527.4H350.719ZM349.769 533.76V534.83H358.139V533.76H349.769ZM356.019 527.4V528.21C356.019 529.28 356.019 530.63 355.599 532.51L356.909 532.65C357.339 530.64 357.329 529.33 357.329 528.21V527.4H356.019ZM356.259 529.63L350.429 529.81L350.609 530.94L356.259 530.63V529.63ZM352.739 531.54V534.15H354.069V531.54H352.739ZM361.508 527.27C360.118 527.27 359.118 528.55 359.118 530.57C359.118 532.61 360.118 533.89 361.508 533.89C362.888 533.89 363.898 532.61 363.898 530.57C363.898 528.55 362.888 527.27 361.508 527.27ZM361.508 528.48C362.188 528.48 362.628 529.21 362.628 530.57C362.628 531.95 362.188 532.69 361.508 532.69C360.838 532.69 360.388 531.95 360.388 530.57C360.388 529.21 360.838 528.48 361.508 528.48ZM365.418 526.62V535.91H366.738V526.62H365.418ZM363.508 529.96V531.03H365.978V529.96H363.508ZM377.093 526.63V535.89H378.363V526.63H377.093ZM375.923 530.12V531.18H377.453V530.12H375.923ZM373.163 527.76V528.04C373.163 530.26 372.423 531.82 370.313 533.07L371.083 533.99C373.673 532.48 374.433 530.37 374.433 527.76H373.163ZM370.783 527.76V528.83H373.553V527.76H370.783ZM375.043 526.87V535.49H376.283V526.87H375.043ZM379.902 527.04V531.09H384.352V527.04H383.032V528.13H381.222V527.04H379.902ZM381.222 529.13H383.032V530.05H381.222V529.13ZM385.592 526.63V531.33H386.922V526.63H385.592ZM386.382 528.41V529.49H388.142V528.41H386.382ZM380.802 531.69V532.71H385.612V533.26H380.822V535.31H382.142V534.21H386.922V531.69H380.802ZM380.822 534.8V535.83H387.192V534.8H380.822ZM390.912 528.09V529.13C390.912 530.65 390.162 532.38 388.632 533.1L389.382 534.15C391.082 533.35 391.962 531.22 391.962 529.13V528.09H390.912ZM391.192 528.09V529.13C391.192 531.1 392.052 533.13 393.752 533.92L394.482 532.87C392.962 532.17 392.242 530.53 392.242 529.13V528.09H391.192ZM388.992 527.52V528.61H394.072V527.52H388.992ZM394.752 526.63V535.89H396.092V526.63H394.752ZM395.792 530.16V531.26H397.432V530.16H395.792Z" fill="#1A1A1A"/>
<rect x="418" y="470" width="80" height="100" rx="12" fill="#F0F0F0"/>
<path d="M449.091 497H453.741V495.76H450.571V493.78H453.171V492.54H450.571V490.83H453.631V489.6H449.091V497ZM456.723 490.77H457.683C458.633 490.77 459.153 491.04 459.153 491.84C459.153 492.63 458.633 493.03 457.683 493.03H456.723V490.77ZM460.923 497L459.193 493.97C460.043 493.64 460.603 492.95 460.603 491.84C460.603 490.14 459.373 489.6 457.823 489.6H455.243V497H456.723V494.2H457.753L459.273 497H460.923ZM462.059 497H463.539V494.37H464.529C466.119 494.37 467.389 493.61 467.389 491.92C467.389 490.17 466.129 489.6 464.489 489.6H462.059V497ZM463.539 493.2V490.77H464.379C465.399 490.77 465.939 491.06 465.939 491.92C465.939 492.77 465.449 493.2 464.429 493.2H463.539Z" fill="#808080"/>
<path d="M434.159 519H438.809V517.76H435.639V515.79H438.229V514.54H435.639V512.83H438.699V511.6H434.159V519ZM440.311 519H441.791V516.21H442.881C444.431 516.21 445.661 515.49 445.661 513.84C445.661 512.14 444.431 511.6 442.881 511.6H440.311V519ZM441.791 515.04V512.78H442.741C443.701 512.78 444.221 513.05 444.221 513.84C444.221 514.63 443.701 515.04 442.741 515.04H441.791ZM444.331 519H445.981L443.641 514.9L442.611 515.83L444.331 519ZM447.128 519H448.608V516.37H449.598C451.188 516.37 452.448 515.62 452.448 513.93C452.448 512.17 451.188 511.6 449.558 511.6H447.128V519ZM448.608 515.2V512.78H449.448C450.468 512.78 451.008 513.06 451.008 513.93C451.008 514.77 450.518 515.2 449.498 515.2H448.608ZM462.213 510.63V519.89H463.483V510.63H462.213ZM461.043 514.12V515.18H462.573V514.12H461.043ZM458.283 511.76V512.04C458.283 514.26 457.543 515.82 455.433 517.07L456.203 517.99C458.793 516.48 459.553 514.37 459.553 511.76H458.283ZM455.903 511.76V512.83H458.673V511.76H455.903ZM460.163 510.87V519.49H461.403V510.87H460.163ZM465.023 511.04V515.09H469.473V511.04H468.153V512.13H466.343V511.04H465.023ZM466.343 513.13H468.153V514.05H466.343V513.13ZM470.713 510.63V515.33H472.043V510.63H470.713ZM471.503 512.41V513.49H473.263V512.41H471.503ZM465.923 515.69V516.71H470.733V517.26H465.943V519.31H467.263V518.21H472.043V515.69H465.923ZM465.943 518.8V519.83H472.313V518.8H465.943ZM476.032 512.09V513.13C476.032 514.65 475.282 516.38 473.752 517.1L474.502 518.15C476.202 517.35 477.082 515.22 477.082 513.13V512.09H476.032ZM476.312 512.09V513.13C476.312 515.1 477.172 517.13 478.872 517.92L479.602 516.87C478.082 516.17 477.362 514.53 477.362 513.13V512.09H476.312ZM474.112 511.52V512.61H479.192V511.52H474.112ZM479.872 510.63V519.89H481.212V510.63H479.872ZM480.912 514.16V515.26H482.552V514.16H480.912Z" fill="#1A1A1A"/>
<rect x="502" y="470" width="80" height="100" rx="12" fill="#F0F0F0"/>
<path d="M517.75 497.14C519.56 497.14 520.61 496.13 520.61 493.67V489.59H519.19V493.8C519.19 495.34 518.63 495.86 517.75 495.86C516.89 495.86 516.35 495.34 516.35 493.8V489.59H514.87V493.67C514.87 496.13 515.95 497.14 517.75 497.14ZM521.503 497H523.073L523.863 495.36C524.043 494.98 524.223 494.59 524.403 494.14H524.443C524.663 494.59 524.833 494.98 525.023 495.36L525.853 497H527.493L525.413 493.25L527.363 489.59H525.803L525.103 491.12C524.943 491.47 524.793 491.83 524.613 492.29H524.563C524.343 491.83 524.193 491.47 524.013 491.12L523.273 489.59H521.633L523.583 493.18L521.503 497ZM527.773 498.82H528.753L531.233 488.94H530.263L527.773 498.82ZM532.42 497H534.53C536.71 497 538.11 495.76 538.11 493.27C538.11 490.77 536.71 489.59 534.45 489.59H532.42V497ZM533.9 495.81V490.78H534.36C535.74 490.78 536.6 491.46 536.6 493.27C536.6 495.07 535.74 495.81 534.36 495.81H533.9ZM539.558 497H544.208V495.76H541.038V493.78H543.638V492.54H541.038V490.83H544.098V489.59H539.558V497ZM547.921 497.14C549.631 497.14 550.641 496.11 550.641 494.9C550.641 493.83 550.051 493.26 549.151 492.89L548.181 492.48C547.551 492.23 547.031 492.04 547.031 491.51C547.031 491.02 547.441 490.73 548.091 490.73C548.701 490.73 549.191 490.95 549.661 491.34L550.411 490.41C549.811 489.8 548.951 489.46 548.091 489.46C546.591 489.46 545.531 490.39 545.531 491.6C545.531 492.68 546.281 493.28 547.031 493.59L548.021 494.01C548.681 494.29 549.131 494.46 549.131 495.01C549.131 495.53 548.721 495.86 547.951 495.86C547.301 495.86 546.601 495.53 546.071 495.04L545.221 496.06C545.941 496.75 546.931 497.14 547.921 497.14ZM551.951 497H553.431V489.59H551.951V497ZM558.432 497.14C559.462 497.14 560.332 496.74 560.832 496.25V492.91H558.202V494.12H559.512V495.58C559.302 495.76 558.942 495.86 558.592 495.86C557.132 495.86 556.392 494.89 556.392 493.28C556.392 491.69 557.252 490.73 558.482 490.73C559.152 490.73 559.572 491 559.942 491.35L560.722 490.41C560.242 489.92 559.502 489.46 558.432 489.46C556.462 489.46 554.882 490.89 554.882 493.33C554.882 495.8 556.422 497.14 558.432 497.14ZM562.42 497H563.82V494.03C563.82 493.18 563.71 492.25 563.64 491.45H563.69L564.44 493.04L566.58 497H568.08V489.59H566.68V492.55C566.68 493.39 566.8 494.37 566.87 495.14H566.82L566.08 493.54L563.93 489.59H562.42V497Z" fill="#808080"/>
<path d="M539.081 510.63V519.89H540.421V510.63H539.081ZM536.351 511.59V511.83C536.351 514.31 535.391 515.99 532.731 517.27L533.421 518.33C536.711 516.74 537.671 514.42 537.671 511.59H536.351ZM533.221 511.59V512.64H536.981V511.59H533.221ZM542.21 511.31V512.26H547.65V511.31H542.21ZM544.93 512.48C543.55 512.48 542.63 513.03 542.63 513.87C542.63 514.72 543.55 515.26 544.93 515.26C546.31 515.26 547.23 514.72 547.23 513.87C547.23 513.03 546.31 512.48 544.93 512.48ZM544.93 513.36C545.56 513.36 545.96 513.53 545.96 513.87C545.96 514.2 545.56 514.38 544.93 514.38C544.31 514.38 543.9 514.2 543.9 513.87C543.9 513.53 544.31 513.36 544.93 513.36ZM544.26 510.57V511.79H545.6V510.57H544.26ZM544.26 514.77V516.06H545.6V514.77H544.26ZM548.28 510.64V516.91H549.62V510.64H548.28ZM543.22 517.27V518.29H548.28V519.89H549.62V517.27H543.22ZM542.11 516.73C543.74 516.73 545.87 516.7 547.83 516.36L547.73 515.47C545.84 515.71 543.62 515.72 541.95 515.72L542.11 516.73ZM534.451 526.63V535.92H535.791V526.63H534.451ZM528.661 532.6V533.71H529.461C531.451 533.71 532.621 533.67 533.871 533.42L533.751 532.33C532.511 532.56 531.411 532.6 529.461 532.6H528.661ZM528.661 527.45V533.02H529.981V528.52H533.131V527.45H528.661ZM539.38 528.09V529.13C539.38 530.65 538.63 532.38 537.1 533.1L537.85 534.15C539.55 533.35 540.43 531.22 540.43 529.13V528.09H539.38ZM539.66 528.09V529.13C539.66 531.1 540.52 533.13 542.22 533.92L542.95 532.87C541.43 532.17 540.71 530.53 540.71 529.13V528.09H539.66ZM537.46 527.52V528.61H542.54V527.52H537.46ZM543.22 526.63V535.89H544.56V526.63H543.22ZM544.26 530.16V531.26H545.9V530.16H544.26ZM552.86 526.64V533.29H554.2V526.64H552.86ZM548.03 534.67V535.73H554.43V534.67H548.03ZM548.03 532.62V535.1H549.36V532.62H548.03ZM549.16 527.22C547.74 527.22 546.64 528.2 546.64 529.57C546.64 530.93 547.74 531.92 549.16 531.92C550.58 531.92 551.67 530.93 551.67 529.57C551.67 528.2 550.58 527.22 549.16 527.22ZM549.16 528.37C549.84 528.37 550.37 528.81 550.37 529.57C550.37 530.32 549.84 530.76 549.16 530.76C548.47 530.76 547.94 530.32 547.94 529.57C547.94 528.81 548.47 528.37 549.16 528.37Z" fill="#1A1A1A"/>
<rect x="586" y="470" width="80" height="100" rx="12" fill="#F0F0F0"/>
<path d="M593.23 497H597.88V495.76H594.71V493.79H597.3V492.54H594.71V490.83H597.77V489.6H593.23V497ZM599.383 497H600.783V494.04C600.783 493.18 600.663 492.25 600.593 491.46H600.643L601.393 493.04L603.533 497H605.043V489.6H603.633V492.55C603.633 493.39 603.753 494.38 603.833 495.15H603.783L603.033 493.55L600.883 489.6H599.383V497ZM610.053 497.14C611.073 497.14 611.953 496.75 612.453 496.25V492.92H609.813V494.13H611.133V495.59C610.923 495.76 610.563 495.86 610.203 495.86C608.753 495.86 608.013 494.9 608.013 493.28C608.013 491.7 608.863 490.74 610.103 490.74C610.763 490.74 611.183 491.01 611.553 491.36L612.333 490.41C611.853 489.93 611.113 489.47 610.053 489.47C608.083 489.47 606.503 490.89 606.503 493.33C606.503 495.8 608.043 497.14 610.053 497.14ZM614.041 497H615.521V489.6H614.041V497ZM617.342 497H618.742V494.04C618.742 493.18 618.622 492.25 618.552 491.46H618.602L619.352 493.04L621.492 497H623.002V489.6H621.592V492.55C621.592 493.39 621.712 494.38 621.792 495.15H621.742L620.992 493.55L618.842 489.6H617.342V497ZM624.832 497H629.482V495.76H626.312V493.79H628.902V492.54H626.312V490.83H629.372V489.6H624.832V497ZM630.984 497H635.634V495.76H632.464V493.79H635.054V492.54H632.464V490.83H635.524V489.6H630.984V497ZM637.137 497H638.617V494.21H639.707C641.257 494.21 642.487 493.49 642.487 491.84C642.487 490.14 641.257 489.6 639.707 489.6H637.137V497ZM638.617 493.04V490.78H639.567C640.527 490.78 641.047 491.05 641.047 491.84C641.047 492.63 640.527 493.04 639.567 493.04H638.617ZM641.157 497H642.807L640.467 492.9L639.437 493.83L641.157 497ZM643.173 498.82H644.153L646.643 488.94H645.673L643.173 498.82ZM650.594 497.14C652.554 497.14 653.894 495.68 653.894 493.27C653.894 490.87 652.554 489.47 650.594 489.47C648.624 489.47 647.284 490.86 647.284 493.27C647.284 495.68 648.624 497.14 650.594 497.14ZM650.594 495.93C649.484 495.93 648.794 494.94 648.794 493.27C648.794 491.69 649.484 490.74 650.594 490.74C651.694 490.74 652.394 491.69 652.394 493.27C652.394 494.94 651.694 495.93 650.594 495.93ZM652.984 499.01C653.524 499.01 653.964 498.92 654.234 498.79L653.964 497.7C653.744 497.78 653.474 497.83 653.144 497.83C652.404 497.83 651.644 497.53 651.364 496.81L649.864 496.96C650.334 498.14 651.414 499.01 652.984 499.01ZM654.233 497H655.733L656.793 493.15C657.013 492.38 657.223 491.53 657.423 490.73H657.463C657.673 491.52 657.883 492.38 658.103 493.15L659.163 497H660.713L658.343 489.6H656.603L654.233 497ZM655.703 495.1H659.223V493.96H655.703V495.1Z" fill="#808080"/>
<path d="M609.532 510.95V511.99H615.402V510.95H609.532ZM614.602 510.95V511.77C614.602 512.57 614.602 513.35 614.362 514.42L615.672 514.54C615.912 513.45 615.912 512.58 615.912 511.77V510.95H614.602ZM615.002 512.51L609.272 512.63L609.422 513.64L615.002 513.42V512.51ZM608.522 514.2V515.24H616.862V514.2H608.522ZM609.422 515.78V516.78H614.642V517.29H609.432V519.23H610.752V518.23H615.962V515.78H609.422ZM609.432 518.78V519.79H616.272V518.78H609.432ZM623.641 510.62V519.91H624.961V510.62H623.641ZM624.661 514.12V515.22H626.301V514.12H624.661ZM618.081 516.67V517.76H618.861C620.471 517.76 621.741 517.7 623.141 517.45L623.011 516.38C621.651 516.62 620.431 516.67 618.861 516.67H618.081ZM618.071 511.41V512.47H621.011V513.94H618.081V517.08H619.401V515H622.331V511.41H618.071ZM626.9 515.81V516.88H635.29V515.81H626.9ZM630.4 516.5V519.9H631.72V516.5H630.4ZM631.07 510.94C629.1 510.94 627.73 511.76 627.73 513.03C627.73 514.29 629.1 515.1 631.07 515.1C633.05 515.1 634.42 514.29 634.42 513.03C634.42 511.76 633.05 510.94 631.07 510.94ZM631.07 512C632.29 512 633.05 512.36 633.05 513.03C633.05 513.69 632.29 514.05 631.07 514.05C629.86 514.05 629.09 513.69 629.09 513.03C629.09 512.36 629.86 512 631.07 512ZM637.079 514.9V515.96H643.589V514.9H637.079ZM636.109 517.69V518.78H644.489V517.69H636.109ZM637.079 511.39V515.34H638.399V512.47H643.519V511.39H637.079ZM612.222 529.14V530.21H613.632V529.14H612.222ZM610.652 527.3C609.422 527.3 608.532 528.26 608.532 529.64C608.532 531.01 609.422 531.98 610.652 531.98C611.872 531.98 612.772 531.01 612.772 529.64C612.772 528.26 611.872 527.3 610.652 527.3ZM610.652 528.44C611.182 528.44 611.582 528.88 611.582 529.64C611.582 530.4 611.182 530.84 610.652 530.84C610.112 530.84 609.722 530.4 609.722 529.64C609.722 528.88 610.112 528.44 610.652 528.44ZM615.132 526.63V533.52H616.392V526.63H615.132ZM613.302 526.78V533.24H614.542V526.78H613.302ZM610.162 534.67V535.73H616.632V534.67H610.162ZM610.162 532.64V535.23H611.492V532.64H610.162ZM619.931 528.09V529.13C619.931 530.7 619.181 532.41 617.631 533.1L618.381 534.15C620.121 533.36 620.991 531.27 620.991 529.13V528.09H619.931ZM620.231 528.09V529.13C620.231 531.19 621.091 533.16 622.851 533.92L623.571 532.87C622.021 532.23 621.281 530.63 621.281 529.13V528.09H620.231ZM618.001 527.52V528.61H623.191V527.52H618.001ZM624.051 526.63V535.89H625.391V526.63H624.051ZM633.31 526.63V535.89H634.64V526.63H633.31ZM627.39 527.51V533.26H628.71V527.51H627.39ZM627.39 532.48V533.61H628.21C629.62 533.61 631.15 533.51 632.74 533.18L632.59 532.08C631.06 532.38 629.56 532.48 628.21 532.48H627.39ZM638.639 527.27C637.249 527.27 636.249 528.55 636.249 530.57C636.249 532.61 637.249 533.89 638.639 533.89C640.019 533.89 641.029 532.61 641.029 530.57C641.029 528.55 640.019 527.27 638.639 527.27ZM638.639 528.48C639.319 528.48 639.759 529.21 639.759 530.57C639.759 531.95 639.319 532.69 638.639 532.69C637.969 532.69 637.519 531.95 637.519 530.57C637.519 529.21 637.969 528.48 638.639 528.48ZM642.549 526.62V535.91H643.869V526.62H642.549ZM640.639 529.96V531.03H643.109V529.96H640.639ZM607.729 545.02V546.09H609.889V545.02H607.729ZM609.189 542.64V549.39H610.519V542.64H609.189ZM604.409 550.67V551.73H610.729V550.67H604.409ZM604.409 548.82V551.3H605.739V548.82H604.409ZM604.909 543.85V544.43C604.909 545.6 604.249 546.81 602.719 547.31L603.389 548.37C605.169 547.78 605.989 546.17 605.989 544.43V543.85H604.909ZM605.189 543.85V544.43C605.189 546.08 605.979 547.62 607.699 548.19L608.349 547.15C606.889 546.66 606.259 545.51 606.259 544.43V543.85H605.189ZM603.079 543.26V544.31H608.059V543.26H603.079ZM611.968 547.2V548.26H620.348V547.2H611.968ZM615.598 547.87V549.82H616.938V547.87H615.598ZM612.998 543.02V546.46H619.288V543.02H612.998ZM617.978 544.06V545.42H614.298V544.06H617.978ZM612.938 550.67V551.73H619.428V550.67H612.938ZM612.938 549.04V551.02H614.258V549.04H612.938ZM627.203 546V547.07H628.843V546H627.203ZM623.703 548.79V549.86H624.333C625.663 549.86 626.553 549.84 627.593 549.66L627.483 548.6C626.473 548.77 625.633 548.79 624.333 548.79H623.703ZM623.703 543.65V549.18H624.963V544.7H627.143V543.65H623.703ZM624.603 546.14V547.16H626.793V546.14H624.603ZM630.123 542.63V551.89H631.393V542.63H630.123ZM628.213 542.79V551.48H629.453V542.79H628.213ZM636.072 543.16V543.83C636.072 545.16 634.922 546.63 632.832 546.99L633.402 548.09C635.802 547.62 637.232 545.84 637.232 543.83V543.16H636.072ZM636.342 543.16V543.83C636.342 545.87 637.762 547.62 640.162 548.09L640.732 546.99C638.632 546.63 637.492 545.19 637.492 543.83V543.16H636.342ZM632.642 549.68V550.76H641.022V549.68H632.642ZM648.282 542.62V551.91H649.602V542.62H648.282ZM646.692 545.88V546.96H648.432V545.88H646.692ZM642.252 548.74V549.82H642.992C644.552 549.82 645.752 549.78 647.092 549.57L646.972 548.51C645.662 548.72 644.522 548.74 642.992 548.74H642.252ZM642.252 543.4V549.08H643.572V544.48H646.542V543.4H642.252ZM643.272 545.98V547.02H646.222V545.98H643.272Z" fill="#1A1A1A"/>
<rect x="670" y="470" width="80" height="100" rx="12" fill="#F0F0F0"/>
<path d="M701.284 497H702.764V493.8H705.564V497H707.034V489.6H705.564V492.52H702.764V489.6H701.284V497ZM708.852 497H710.332V494.21H711.422C712.972 494.21 714.202 493.49 714.202 491.84C714.202 490.14 712.972 489.6 711.422 489.6H708.852V497ZM710.332 493.04V490.78H711.282C712.242 490.78 712.762 491.05 712.762 491.84C712.762 492.63 712.242 493.04 711.282 493.04H710.332ZM712.872 497H714.522L712.182 492.9L711.152 493.83L712.872 497ZM714.889 498.82H715.869L718.359 488.94H717.389L714.889 498.82ZM680.928 513H682.248V509.91C682.248 509.21 682.138 508.18 682.058 507.48H682.098L682.698 509.22L683.838 512.34H684.688L685.828 509.22L686.438 507.48H686.488C686.408 508.18 686.288 509.21 686.288 509.91V513H687.638V505.6H685.998L684.768 509.07C684.618 509.53 684.488 510.01 684.318 510.49H684.278C684.118 510.01 683.988 509.53 683.818 509.07L682.558 505.6H680.928V513ZM688.503 513H690.003L691.063 509.15C691.283 508.38 691.493 507.53 691.693 506.73H691.733C691.943 507.52 692.153 508.38 692.373 509.15L693.433 513H694.983L692.613 505.6H690.873L688.503 513ZM689.973 511.1H693.493V509.96H689.973V511.1ZM695.859 513H697.339V510.21H698.429C699.979 510.21 701.209 509.49 701.209 507.84C701.209 506.14 699.979 505.6 698.429 505.6H695.859V513ZM697.339 509.04V506.78H698.289C699.249 506.78 699.769 507.05 699.769 507.84C699.769 508.63 699.249 509.04 698.289 509.04H697.339ZM699.879 513H701.529L699.189 508.9L698.159 509.83L699.879 513ZM702.676 513H704.156V510.92L705.126 509.68L707.046 513H708.656L705.996 508.51L708.266 505.6H706.636L704.176 508.81H704.156V505.6H702.676V513ZM709.531 513H714.181V511.76H711.011V509.79H713.601V508.54H711.011V506.83H714.071V505.6H709.531V513ZM717.153 513H718.633V506.83H720.723V505.6H715.063V506.83H717.153V513ZM721.933 513H723.413V505.6H721.933V513ZM725.234 513H726.634V510.04C726.634 509.18 726.514 508.25 726.444 507.46H726.494L727.244 509.04L729.384 513H730.894V505.6H729.484V508.55C729.484 509.39 729.604 510.38 729.684 511.15H729.634L728.884 509.55L726.734 505.6H725.234V513ZM735.904 513.14C736.924 513.14 737.804 512.75 738.304 512.25V508.92H735.664V510.13H736.984V511.59C736.774 511.76 736.414 511.86 736.054 511.86C734.604 511.86 733.864 510.9 733.864 509.28C733.864 507.7 734.714 506.74 735.954 506.74C736.614 506.74 737.034 507.01 737.404 507.36L738.184 506.41C737.704 505.93 736.964 505.47 735.904 505.47C733.934 505.47 732.354 506.89 732.354 509.33C732.354 511.8 733.894 513.14 735.904 513.14Z" fill="#808080"/>
<path d="M702.718 535H704.198V531.8H706.998V535H708.468V527.6H706.998V530.52H704.198V527.6H702.718V535ZM710.286 535H711.766V532.21H712.856C714.406 532.21 715.636 531.49 715.636 529.84C715.636 528.14 714.406 527.6 712.856 527.6H710.286V535ZM711.766 531.04V528.78H712.716C713.676 528.78 714.196 529.05 714.196 529.84C714.196 530.63 713.676 531.04 712.716 531.04H711.766ZM714.306 535H715.956L713.616 530.9L712.586 531.83L714.306 535ZM695.881 543.5V549.64H700.311V543.5H695.881ZM699.001 544.54V548.59H697.191V544.54H699.001ZM701.521 542.63V551.89H702.861V542.63H701.521ZM702.561 546.12V547.22H704.201V546.12H702.561ZM707.63 543.67V543.9C707.63 546.2 707.03 547.83 704.76 549.15L705.5 550.07C708.24 548.47 708.88 546.31 708.88 543.67H707.63ZM705.28 543.67V544.73H708.04V543.67H705.28ZM707.65 545.78L704.81 545.93L704.97 547.05L707.65 546.77V545.78ZM708.12 546.13V547.18H710.02V546.13H708.12ZM711.51 542.63V551.89H712.78V542.63H711.51ZM709.57 542.83V551.48H710.81V542.83H709.57ZM720.45 542.62V551.91H721.77V542.62H720.45ZM718.86 545.88V546.96H720.6V545.88H718.86ZM714.42 548.74V549.82H715.16C716.72 549.82 717.92 549.78 719.26 549.57L719.14 548.51C717.83 548.72 716.69 548.74 715.16 548.74H714.42ZM714.42 543.4V549.08H715.74V544.48H718.71V543.4H714.42ZM715.44 545.98V547.02H718.39V545.98H715.44Z" fill="#1A1A1A"/>
</svg>
