<svg width="320" height="942" viewBox="0 0 320 942" fill="none" xmlns="http://www.w3.org/2000/svg">
<path d="M159 132V906H161V132H159Z" fill="#F0F0F0"/>
<path d="M242 436V212C242 200.954 233.046 192 222 192H99C87.9543 192 79 200.954 79 212V436" stroke="#F0F0F0" stroke-width="2"/>
<path d="M270 872V591C270 579.954 261.046 571 250 571H70C58.9543 571 50 579.954 50 591V872" stroke="#F0F0F0" stroke-width="2"/>
<rect x="19" y="220" width="120" height="150" rx="20" fill="#1A1A1A"/>
<path d="M71.1867 251.168C72.3387 251.168 73.2867 250.712 74.0187 249.86L73.0827 248.756C72.6027 249.272 72.0147 249.632 71.2467 249.632C69.8427 249.632 68.9307 248.468 68.9307 246.536C68.9307 244.628 69.9387 243.476 71.2827 243.476C71.9547 243.476 72.4707 243.788 72.9267 244.22L73.8507 243.092C73.2747 242.492 72.3747 241.952 71.2467 241.952C69.0027 241.952 67.1187 243.668 67.1187 246.596C67.1187 249.56 68.9427 251.168 71.1867 251.168ZM77.0259 251H78.8019V243.596H81.3219V242.108H74.5299V243.596H77.0259V251ZM85.9149 251.168C88.2669 251.168 89.8869 249.404 89.8869 246.524C89.8869 243.644 88.2669 241.952 85.9149 241.952C83.5629 241.952 81.9429 243.632 81.9429 246.524C81.9429 249.404 83.5629 251.168 85.9149 251.168ZM85.9149 249.632C84.5949 249.632 83.7549 248.42 83.7549 246.524C83.7549 244.616 84.5949 243.476 85.9149 243.476C87.2349 243.476 88.0749 244.616 88.0749 246.524C88.0749 248.42 87.2349 249.632 85.9149 249.632Z" fill="#DCE4FF"/>
<path d="M61.4299 272.208H59.5099V269.024H61.4299V272.208ZM64.7579 268.032H63.3819V263.984H61.4299V267.36H59.5099V263.968H57.5259V273.888H63.3819V269.728H64.7579V276.736H66.7259V262.896H64.7579V268.032ZM67.7499 262.624V277.36H69.7499V262.624H67.7499ZM83.7486 270.24H75.5406V268.592H83.3006V266.96H75.5406V265.408H83.6366V263.712H73.3966V271.904H83.7486V270.24ZM71.8286 273.968V275.68H85.1726V273.968H71.8286ZM94.8834 267.888C92.8994 268.272 91.0114 268.416 89.2514 268.448V263.328H87.1394V270.208H88.3874C90.4674 270.208 92.7234 270.064 95.1234 269.584L94.8834 267.888ZM90.6274 273.264H96.0834V275.552H90.6274V273.264ZM88.5474 277.2H98.1474V271.616H88.5474V277.2ZM100.099 265.744H98.1474V262.64H96.0354V270.928H98.1474V267.472H100.099V265.744ZM50.5271 294.032H52.0631C53.5831 294.032 54.4151 294.464 54.4151 295.744C54.4151 297.008 53.5831 297.648 52.0631 297.648H50.5271V294.032ZM57.2471 304L54.4791 299.152C55.8391 298.624 56.7351 297.52 56.7351 295.744C56.7351 293.024 54.7671 292.16 52.2871 292.16H48.1591V304H50.5271V299.52H52.1751L54.6071 304H57.2471ZM60.3294 300.72C60.3294 300.08 60.7294 299.552 61.3054 299.056C62.0574 300.048 62.9694 300.992 63.9774 301.824C63.4174 302.192 62.8254 302.416 62.2494 302.416C61.1134 302.416 60.3294 301.728 60.3294 300.72ZM61.5134 294.944C61.5134 294.064 62.0094 293.504 62.6974 293.504C63.3214 293.504 63.5934 293.936 63.5934 294.528C63.5934 295.392 62.8734 295.968 61.9454 296.528C61.6734 295.968 61.5134 295.44 61.5134 294.944ZM69.1134 302.304C68.5054 302.192 67.7854 301.888 67.0174 301.456C67.9294 300.224 68.5854 298.848 69.0174 297.392H66.8894C66.5694 298.56 66.0574 299.568 65.4334 300.4C64.4894 299.68 63.5774 298.816 62.8734 297.936C64.1374 297.056 65.4174 296.08 65.4174 294.512C65.4174 292.96 64.3454 291.936 62.6654 291.936C60.7614 291.936 59.5614 293.296 59.5614 294.944C59.5614 295.728 59.8334 296.608 60.3134 297.504C59.1294 298.256 58.0894 299.216 58.0894 300.864C58.0894 302.704 59.4814 304.224 61.9614 304.224C63.4174 304.224 64.6174 303.744 65.5934 302.976C66.5854 303.6 67.6094 304.016 68.5374 304.224L69.1134 302.304ZM70.8935 304H74.2695C77.7575 304 79.9975 302.016 79.9975 298.032C79.9975 294.032 77.7575 292.16 74.1415 292.16H70.8935V304ZM73.2615 302.096V294.048H73.9975C76.2055 294.048 77.5815 295.136 77.5815 298.032C77.5815 300.912 76.2055 302.096 73.9975 302.096H73.2615ZM86.3564 297.296C89.0604 297.104 90.9004 296.352 91.8284 295.184C92.7404 296.352 94.5804 297.104 97.2844 297.296L97.9084 295.728C94.7564 295.536 93.3164 294.624 93.0444 293.616H97.2044V291.968H92.8684V290.672H90.7564V291.968H86.4364V293.616H90.5964C90.3244 294.624 88.8844 295.536 85.7324 295.728L86.3564 297.296ZM91.7964 303.824C89.7964 303.824 88.8204 303.536 88.8204 302.88C88.8204 302.208 89.7964 301.936 91.7964 301.936C93.7964 301.936 94.7724 302.208 94.7724 302.88C94.7724 303.536 93.7964 303.824 91.7964 303.824ZM91.7964 300.384C88.5804 300.384 86.6924 301.264 86.6924 302.88C86.6924 304.496 88.5804 305.392 91.7964 305.392C95.0124 305.392 96.9164 304.496 96.9164 302.88C96.9164 301.264 95.0124 300.384 91.7964 300.384ZM92.8684 298.032V296.624H90.7564V298.032H85.1724V299.68H98.4844V298.032H92.8684ZM107.795 295.792C108.099 294.272 108.099 293.024 108.099 292.128V291.264H100.531V292.912H106.019C106.003 293.632 105.939 294.512 105.747 295.6L107.795 295.792ZM108.755 296.288C107.379 296.432 105.891 296.528 104.435 296.592V294.304H102.355V296.64C101.411 296.656 100.515 296.656 99.6831 296.656L99.8591 298.288C102.499 298.288 105.827 298.24 108.867 297.728L108.755 296.288ZM103.699 302.816H111.651V298.992H101.555V300.544H109.539V301.36H101.587V305.264H112.131V303.68H103.699V302.816ZM111.651 293.744V290.624H109.539V298.464H111.651V295.472H113.427V293.744H111.651Z" fill="white"/>
<path d="M37.3011 326H38.0411V332.36H41.9611V333H37.3011V326ZM48.1398 332.36V333H43.1898V326H47.9898V326.64H43.9298V329.13H47.5498V329.76H43.9298V332.36H48.1398ZM52.8802 333.06C52.1869 333.06 51.5602 332.907 51.0002 332.6C50.4469 332.293 50.0102 331.87 49.6902 331.33C49.3769 330.783 49.2202 330.173 49.2202 329.5C49.2202 328.827 49.3769 328.22 49.6902 327.68C50.0102 327.133 50.4502 326.707 51.0102 326.4C51.5702 326.093 52.1969 325.94 52.8902 325.94C53.4102 325.94 53.8902 326.027 54.3302 326.2C54.7702 326.373 55.1435 326.627 55.4502 326.96L54.9802 327.43C54.4335 326.877 53.7435 326.6 52.9102 326.6C52.3569 326.6 51.8535 326.727 51.4002 326.98C50.9469 327.233 50.5902 327.58 50.3302 328.02C50.0769 328.46 49.9502 328.953 49.9502 329.5C49.9502 330.047 50.0769 330.54 50.3302 330.98C50.5902 331.42 50.9469 331.767 51.4002 332.02C51.8535 332.273 52.3569 332.4 52.9102 332.4C53.7502 332.4 54.4402 332.12 54.9802 331.56L55.4502 332.03C55.1435 332.363 54.7669 332.62 54.3202 332.8C53.8802 332.973 53.4002 333.06 52.8802 333.06ZM57.0277 326H57.7677V332.36H61.6877V333H57.0277V326ZM67.8664 332.36V333H62.9164V326H67.7164V326.64H63.6564V329.13H67.2764V329.76H63.6564V332.36H67.8664ZM78.043 326L74.943 333H74.213L71.113 326H71.913L74.593 332.08L77.293 326H78.043ZM79.0589 326H79.7989V333H79.0589V326ZM87.0265 332.36V333H82.0765V326H86.8765V326.64H82.8165V329.13H86.4365V329.76H82.8165V332.36H87.0265ZM90.126 326.64H87.666V326H93.326V326.64H90.866V333H90.126V326.64ZM100.358 326V333H99.7482L95.2482 327.32V333H94.5082V326H95.1182L99.6282 331.68V326H100.358ZM107.033 331.13H103.133L102.293 333H101.523L104.723 326H105.453L108.653 333H107.873L107.033 331.13ZM106.763 330.53L105.083 326.77L103.403 330.53H106.763ZM117.081 326V333H116.371V327.4L113.621 332.11H113.271L110.521 327.43V333H109.811V326H110.421L113.461 331.19L116.471 326H117.081ZM34.2591 342H37.1091C37.8491 342 38.5025 342.15 39.0691 342.45C39.6358 342.743 40.0758 343.157 40.3891 343.69C40.7025 344.217 40.8591 344.82 40.8591 345.5C40.8591 346.18 40.7025 346.787 40.3891 347.32C40.0758 347.847 39.6358 348.26 39.0691 348.56C38.5025 348.853 37.8491 349 37.1091 349H34.2591V342ZM37.0691 348.36C37.6825 348.36 38.2191 348.24 38.6791 348C39.1391 347.753 39.4958 347.417 39.7491 346.99C40.0025 346.557 40.1291 346.06 40.1291 345.5C40.1291 344.94 40.0025 344.447 39.7491 344.02C39.4958 343.587 39.1391 343.25 38.6791 343.01C38.2191 342.763 37.6825 342.64 37.0691 342.64H34.9991V348.36H37.0691ZM47.4709 348.36V349H42.5209V342H47.3209V342.64H43.2609V345.13H46.8809V345.76H43.2609V348.36H47.4709ZM54.9327 342L51.8327 349H51.1027L48.0027 342H48.8027L51.4827 348.08L54.1827 342H54.9327ZM60.8986 348.36V349H55.9486V342H60.7486V342.64H56.6886V345.13H60.3086V345.76H56.6886V348.36H60.8986ZM62.638 342H63.378V348.36H67.298V349H62.638V342ZM71.45 349.06C70.7567 349.06 70.1267 348.907 69.56 348.6C69 348.287 68.56 347.86 68.24 347.32C67.9267 346.78 67.77 346.173 67.77 345.5C67.77 344.827 67.9267 344.22 68.24 343.68C68.56 343.14 69 342.717 69.56 342.41C70.1267 342.097 70.7567 341.94 71.45 341.94C72.1433 341.94 72.7667 342.093 73.32 342.4C73.88 342.707 74.32 343.133 74.64 343.68C74.96 344.22 75.12 344.827 75.12 345.5C75.12 346.173 74.96 346.783 74.64 347.33C74.32 347.87 73.88 348.293 73.32 348.6C72.7667 348.907 72.1433 349.06 71.45 349.06ZM71.45 348.4C72.0033 348.4 72.5033 348.277 72.95 348.03C73.3967 347.777 73.7467 347.43 74 346.99C74.2533 346.543 74.38 346.047 74.38 345.5C74.38 344.953 74.2533 344.46 74 344.02C73.7467 343.573 73.3967 343.227 72.95 342.98C72.5033 342.727 72.0033 342.6 71.45 342.6C70.8967 342.6 70.3933 342.727 69.94 342.98C69.4933 343.227 69.14 343.573 68.88 344.02C68.6267 344.46 68.5 344.953 68.5 345.5C68.5 346.047 68.6267 346.543 68.88 346.99C69.14 347.43 69.4933 347.777 69.94 348.03C70.3933 348.277 70.8967 348.4 71.45 348.4ZM79.3987 342C80.292 342 80.992 342.213 81.4987 342.64C82.0053 343.067 82.2587 343.653 82.2587 344.4C82.2587 345.147 82.0053 345.733 81.4987 346.16C80.992 346.58 80.292 346.79 79.3987 346.79H77.5187V349H76.7787V342H79.3987ZM79.3787 346.14C80.072 346.14 80.602 345.99 80.9687 345.69C81.3353 345.383 81.5187 344.953 81.5187 344.4C81.5187 343.833 81.3353 343.4 80.9687 343.1C80.602 342.793 80.072 342.64 79.3787 342.64H77.5187V346.14H79.3787ZM91.5036 345.5H92.2136V348.17C91.8869 348.457 91.5003 348.677 91.0536 348.83C90.6069 348.983 90.1369 349.06 89.6436 349.06C88.9436 349.06 88.3136 348.907 87.7536 348.6C87.1936 348.293 86.7536 347.87 86.4336 347.33C86.1136 346.783 85.9536 346.173 85.9536 345.5C85.9536 344.827 86.1136 344.22 86.4336 343.68C86.7536 343.133 87.1936 342.707 87.7536 342.4C88.3136 342.093 88.9469 341.94 89.6536 341.94C90.1869 341.94 90.6769 342.027 91.1236 342.2C91.5703 342.367 91.9469 342.617 92.2536 342.95L91.7936 343.42C91.2403 342.873 90.5369 342.6 89.6836 342.6C89.1169 342.6 88.6036 342.727 88.1436 342.98C87.6903 343.227 87.3336 343.573 87.0736 344.02C86.8136 344.46 86.6836 344.953 86.6836 345.5C86.6836 346.047 86.8136 346.54 87.0736 346.98C87.3336 347.42 87.6903 347.767 88.1436 348.02C88.5969 348.273 89.1069 348.4 89.6736 348.4C90.3936 348.4 91.0036 348.22 91.5036 347.86V345.5ZM99.088 349L97.488 346.75C97.308 346.77 97.1213 346.78 96.928 346.78H95.048V349H94.308V342H96.928C97.8213 342 98.5213 342.213 99.028 342.64C99.5346 343.067 99.788 343.653 99.788 344.4C99.788 344.947 99.648 345.41 99.368 345.79C99.0946 346.163 98.7013 346.433 98.188 346.6L99.898 349H99.088ZM96.908 346.15C97.6013 346.15 98.1313 345.997 98.498 345.69C98.8646 345.383 99.048 344.953 99.048 344.4C99.048 343.833 98.8646 343.4 98.498 343.1C98.1313 342.793 97.6013 342.64 96.908 342.64H95.048V346.15H96.908ZM104.595 349.06C103.901 349.06 103.271 348.907 102.705 348.6C102.145 348.287 101.705 347.86 101.385 347.32C101.071 346.78 100.915 346.173 100.915 345.5C100.915 344.827 101.071 344.22 101.385 343.68C101.705 343.14 102.145 342.717 102.705 342.41C103.271 342.097 103.901 341.94 104.595 341.94C105.288 341.94 105.911 342.093 106.465 342.4C107.025 342.707 107.465 343.133 107.785 343.68C108.105 344.22 108.265 344.827 108.265 345.5C108.265 346.173 108.105 346.783 107.785 347.33C107.465 347.87 107.025 348.293 106.465 348.6C105.911 348.907 105.288 349.06 104.595 349.06ZM104.595 348.4C105.148 348.4 105.648 348.277 106.095 348.03C106.541 347.777 106.891 347.43 107.145 346.99C107.398 346.543 107.525 346.047 107.525 345.5C107.525 344.953 107.398 344.46 107.145 344.02C106.891 343.573 106.541 343.227 106.095 342.98C105.648 342.727 105.148 342.6 104.595 342.6C104.041 342.6 103.538 342.727 103.085 342.98C102.638 343.227 102.285 343.573 102.025 344.02C101.771 344.46 101.645 344.953 101.645 345.5C101.645 346.047 101.771 346.543 102.025 346.99C102.285 347.43 102.638 347.777 103.085 348.03C103.538 348.277 104.041 348.4 104.595 348.4ZM112.743 349.06C111.837 349.06 111.13 348.8 110.623 348.28C110.117 347.76 109.863 347.003 109.863 346.01V342H110.603V345.98C110.603 346.793 110.787 347.4 111.153 347.8C111.52 348.2 112.05 348.4 112.743 348.4C113.443 348.4 113.977 348.2 114.343 347.8C114.71 347.4 114.893 346.793 114.893 345.98V342H115.613V346.01C115.613 347.003 115.36 347.76 114.853 348.28C114.353 348.8 113.65 349.06 112.743 349.06ZM120.463 342C121.356 342 122.056 342.213 122.563 342.64C123.07 343.067 123.323 343.653 123.323 344.4C123.323 345.147 123.07 345.733 122.563 346.16C122.056 346.58 121.356 346.79 120.463 346.79H118.583V349H117.843V342H120.463ZM120.443 346.14C121.136 346.14 121.666 345.99 122.033 345.69C122.4 345.383 122.583 344.953 122.583 344.4C122.583 343.833 122.4 343.4 122.033 343.1C121.666 342.793 121.136 342.64 120.443 342.64H118.583V346.14H120.443Z" fill="white"/>
<rect x="182" y="220" width="120" height="150" rx="20" fill="#1A1A1A"/>
<path d="M234.154 251.168C235.306 251.168 236.254 250.712 236.986 249.86L236.049 248.756C235.57 249.272 234.982 249.632 234.214 249.632C232.81 249.632 231.898 248.468 231.898 246.536C231.898 244.628 232.906 243.476 234.25 243.476C234.922 243.476 235.438 243.788 235.894 244.22L236.818 243.092C236.242 242.492 235.342 241.952 234.214 241.952C231.97 241.952 230.086 243.668 230.086 246.596C230.086 249.56 231.91 251.168 234.154 251.168ZM238.416 251H240.192V247.844H241.38C243.288 247.844 244.812 246.932 244.812 244.904C244.812 242.804 243.3 242.108 241.332 242.108H238.416V251ZM240.192 246.44V243.524H241.2C242.424 243.524 243.072 243.872 243.072 244.904C243.072 245.924 242.484 246.44 241.26 246.44H240.192ZM249.948 251.168C252.3 251.168 253.92 249.404 253.92 246.524C253.92 243.644 252.3 241.952 249.948 241.952C247.596 241.952 245.976 243.632 245.976 246.524C245.976 249.404 247.596 251.168 249.948 251.168ZM249.948 249.632C248.628 249.632 247.788 248.42 247.788 246.524C247.788 244.616 248.628 243.476 249.948 243.476C251.268 243.476 252.108 244.616 252.108 246.524C252.108 248.42 251.268 249.632 249.948 249.632Z" fill="#DCE4FF"/>
<path d="M204.863 270.016H201.855V265.6H204.863V270.016ZM199.759 270.016H197.839V271.696H208.911V270.016H206.959V265.6H208.959V263.92H197.759V265.6H199.759V270.016ZM196.719 273.952V275.664H210.063V273.952H196.719ZM219.15 274.032V271.84H223.614V270.144H215.07V268.496H223.278V263.584H212.958V265.264H221.198V266.848H212.974V271.84H217.038V274.032H211.438V275.76H224.782V274.032H219.15ZM234.221 268.96C232.717 269.264 231.389 269.376 229.037 269.392V265.312H233.581V263.632H226.941V271.088H228.109C231.133 271.088 232.685 271.008 234.413 270.64L234.221 268.96ZM228.429 273.856H236.365V277.392H238.477V272.176H228.429V273.856ZM236.365 262.624V266.32H232.893V268H236.365V271.536H238.477V262.624H236.365ZM252.796 270.24H244.588V268.592H252.348V266.96H244.588V265.408H252.684V263.712H242.444V271.904H252.796V270.24ZM240.876 273.968V275.68H254.22V273.968H240.876ZM260.403 269.296C263.107 269.104 264.947 268.352 265.875 267.184C266.787 268.352 268.627 269.104 271.331 269.296L271.955 267.728C268.803 267.536 267.363 266.624 267.091 265.616H271.251V263.968H266.915V262.672H264.803V263.968H260.483V265.616H264.643C264.371 266.624 262.931 267.536 259.779 267.728L260.403 269.296ZM265.843 275.824C263.843 275.824 262.867 275.536 262.867 274.88C262.867 274.208 263.843 273.936 265.843 273.936C267.843 273.936 268.819 274.208 268.819 274.88C268.819 275.536 267.843 275.824 265.843 275.824ZM265.843 272.384C262.627 272.384 260.739 273.264 260.739 274.88C260.739 276.496 262.627 277.376 265.843 277.376C269.059 277.376 270.963 276.496 270.963 274.88C270.963 273.264 269.059 272.384 265.843 272.384ZM266.915 270.032V268.624H264.803V270.032H259.219V271.68H272.531V270.032H266.915ZM281.842 267.792C282.146 266.272 282.146 265.024 282.146 264.128V263.264H274.578V264.912H280.066C280.05 265.632 279.986 266.512 279.794 267.6L281.842 267.792ZM282.802 268.288C281.426 268.432 279.938 268.528 278.482 268.592V266.304H276.402V268.64C275.458 268.656 274.562 268.656 273.73 268.656L273.906 270.288C276.546 270.288 279.874 270.24 282.914 269.728L282.802 268.288ZM277.746 274.816H285.698V270.992H275.602V272.544H283.586V273.36H275.634V277.248H286.178V275.68H277.746V274.816ZM285.698 265.744V262.624H283.586V270.464H285.698V267.472H287.474V265.744H285.698Z" fill="white"/>
<path d="M219.092 298C219.985 298 220.685 298.213 221.192 298.64C221.699 299.067 221.952 299.653 221.952 300.4C221.952 301.147 221.699 301.733 221.192 302.16C220.685 302.58 219.985 302.79 219.092 302.79H217.212V305H216.472V298H219.092ZM219.072 302.14C219.765 302.14 220.295 301.99 220.662 301.69C221.029 301.383 221.212 300.953 221.212 300.4C221.212 299.833 221.029 299.4 220.662 299.1C220.295 298.793 219.765 298.64 219.072 298.64H217.212V302.14H219.072ZM228.332 305L226.732 302.75C226.552 302.77 226.365 302.78 226.172 302.78H224.292V305H223.552V298H226.172C227.065 298 227.765 298.213 228.272 298.64C228.779 299.067 229.032 299.653 229.032 300.4C229.032 300.947 228.892 301.41 228.612 301.79C228.339 302.163 227.945 302.433 227.432 302.6L229.142 305H228.332ZM226.152 302.15C226.845 302.15 227.375 301.997 227.742 301.69C228.109 301.383 228.292 300.953 228.292 300.4C228.292 299.833 228.109 299.4 227.742 299.1C227.375 298.793 226.845 298.64 226.152 298.64H224.292V302.15H226.152ZM233.839 305.06C233.145 305.06 232.515 304.907 231.949 304.6C231.389 304.287 230.949 303.86 230.629 303.32C230.315 302.78 230.159 302.173 230.159 301.5C230.159 300.827 230.315 300.22 230.629 299.68C230.949 299.14 231.389 298.717 231.949 298.41C232.515 298.097 233.145 297.94 233.839 297.94C234.532 297.94 235.155 298.093 235.709 298.4C236.269 298.707 236.709 299.133 237.029 299.68C237.349 300.22 237.509 300.827 237.509 301.5C237.509 302.173 237.349 302.783 237.029 303.33C236.709 303.87 236.269 304.293 235.709 304.6C235.155 304.907 234.532 305.06 233.839 305.06ZM233.839 304.4C234.392 304.4 234.892 304.277 235.339 304.03C235.785 303.777 236.135 303.43 236.389 302.99C236.642 302.543 236.769 302.047 236.769 301.5C236.769 300.953 236.642 300.46 236.389 300.02C236.135 299.573 235.785 299.227 235.339 298.98C234.892 298.727 234.392 298.6 233.839 298.6C233.285 298.6 232.782 298.727 232.329 298.98C231.882 299.227 231.529 299.573 231.269 300.02C231.015 300.46 230.889 300.953 230.889 301.5C230.889 302.047 231.015 302.543 231.269 302.99C231.529 303.43 231.882 303.777 232.329 304.03C232.782 304.277 233.285 304.4 233.839 304.4ZM239.167 298H242.017C242.757 298 243.411 298.15 243.977 298.45C244.544 298.743 244.984 299.157 245.297 299.69C245.611 300.217 245.767 300.82 245.767 301.5C245.767 302.18 245.611 302.787 245.297 303.32C244.984 303.847 244.544 304.26 243.977 304.56C243.411 304.853 242.757 305 242.017 305H239.167V298ZM241.977 304.36C242.591 304.36 243.127 304.24 243.587 304C244.047 303.753 244.404 303.417 244.657 302.99C244.911 302.557 245.037 302.06 245.037 301.5C245.037 300.94 244.911 300.447 244.657 300.02C244.404 299.587 244.047 299.25 243.587 299.01C243.127 298.763 242.591 298.64 241.977 298.64H239.907V304.36H241.977ZM250.249 305.06C249.342 305.06 248.636 304.8 248.129 304.28C247.622 303.76 247.369 303.003 247.369 302.01V298H248.109V301.98C248.109 302.793 248.292 303.4 248.659 303.8C249.026 304.2 249.556 304.4 250.249 304.4C250.949 304.4 251.482 304.2 251.849 303.8C252.216 303.4 252.399 302.793 252.399 301.98V298H253.119V302.01C253.119 303.003 252.866 303.76 252.359 304.28C251.859 304.8 251.156 305.06 250.249 305.06ZM258.389 305.06C257.696 305.06 257.069 304.907 256.509 304.6C255.956 304.293 255.519 303.87 255.199 303.33C254.886 302.783 254.729 302.173 254.729 301.5C254.729 300.827 254.886 300.22 255.199 299.68C255.519 299.133 255.959 298.707 256.519 298.4C257.079 298.093 257.706 297.94 258.399 297.94C258.919 297.94 259.399 298.027 259.839 298.2C260.279 298.373 260.652 298.627 260.959 298.96L260.489 299.43C259.942 298.877 259.252 298.6 258.419 298.6C257.866 298.6 257.362 298.727 256.909 298.98C256.456 299.233 256.099 299.58 255.839 300.02C255.586 300.46 255.459 300.953 255.459 301.5C255.459 302.047 255.586 302.54 255.839 302.98C256.099 303.42 256.456 303.767 256.909 304.02C257.362 304.273 257.866 304.4 258.419 304.4C259.259 304.4 259.949 304.12 260.489 303.56L260.959 304.03C260.652 304.363 260.276 304.62 259.829 304.8C259.389 304.973 258.909 305.06 258.389 305.06ZM263.809 298.64H261.349V298H267.009V298.64H264.549V305H263.809V298.64ZM205.572 321.06C204.879 321.06 204.249 320.907 203.682 320.6C203.122 320.287 202.682 319.86 202.362 319.32C202.049 318.78 201.892 318.173 201.892 317.5C201.892 316.827 202.049 316.22 202.362 315.68C202.682 315.14 203.122 314.717 203.682 314.41C204.249 314.097 204.879 313.94 205.572 313.94C206.265 313.94 206.889 314.093 207.442 314.4C208.002 314.707 208.442 315.133 208.762 315.68C209.082 316.22 209.242 316.827 209.242 317.5C209.242 318.173 209.082 318.783 208.762 319.33C208.442 319.87 208.002 320.293 207.442 320.6C206.889 320.907 206.265 321.06 205.572 321.06ZM205.572 320.4C206.125 320.4 206.625 320.277 207.072 320.03C207.519 319.777 207.869 319.43 208.122 318.99C208.375 318.543 208.502 318.047 208.502 317.5C208.502 316.953 208.375 316.46 208.122 316.02C207.869 315.573 207.519 315.227 207.072 314.98C206.625 314.727 206.125 314.6 205.572 314.6C205.019 314.6 204.515 314.727 204.062 314.98C203.615 315.227 203.262 315.573 203.002 316.02C202.749 316.46 202.622 316.953 202.622 317.5C202.622 318.047 202.749 318.543 203.002 318.99C203.262 319.43 203.615 319.777 204.062 320.03C204.515 320.277 205.019 320.4 205.572 320.4ZM220.296 314L217.936 321H217.156L215.106 315.03L213.046 321H212.276L209.916 314H210.676L212.696 320.02L214.786 314H215.476L217.536 320.05L219.586 314H220.296ZM227.503 314V321H226.893L222.393 315.32V321H221.653V314H222.263L226.773 319.68V314H227.503ZM234.737 320.36V321H229.787V314H234.587V314.64H230.527V317.13H234.147V317.76H230.527V320.36H234.737ZM241.257 321L239.657 318.75C239.477 318.77 239.29 318.78 239.097 318.78H237.217V321H236.477V314H239.097C239.99 314 240.69 314.213 241.197 314.64C241.704 315.067 241.957 315.653 241.957 316.4C241.957 316.947 241.817 317.41 241.537 317.79C241.264 318.163 240.87 318.433 240.357 318.6L242.067 321H241.257ZM239.077 318.15C239.77 318.15 240.3 317.997 240.667 317.69C241.034 317.383 241.217 316.953 241.217 316.4C241.217 315.833 241.034 315.4 240.667 315.1C240.3 314.793 239.77 314.64 239.077 314.64H237.217V318.15H239.077ZM251.251 317.5H251.961V320.17C251.634 320.457 251.247 320.677 250.801 320.83C250.354 320.983 249.884 321.06 249.391 321.06C248.691 321.06 248.061 320.907 247.501 320.6C246.941 320.293 246.501 319.87 246.181 319.33C245.861 318.783 245.701 318.173 245.701 317.5C245.701 316.827 245.861 316.22 246.181 315.68C246.501 315.133 246.941 314.707 247.501 314.4C248.061 314.093 248.694 313.94 249.401 313.94C249.934 313.94 250.424 314.027 250.871 314.2C251.317 314.367 251.694 314.617 252.001 314.95L251.541 315.42C250.987 314.873 250.284 314.6 249.431 314.6C248.864 314.6 248.351 314.727 247.891 314.98C247.437 315.227 247.081 315.573 246.821 316.02C246.561 316.46 246.431 316.953 246.431 317.5C246.431 318.047 246.561 318.54 246.821 318.98C247.081 319.42 247.437 319.767 247.891 320.02C248.344 320.273 248.854 320.4 249.421 320.4C250.141 320.4 250.751 320.22 251.251 319.86V317.5ZM258.835 321L257.235 318.75C257.055 318.77 256.868 318.78 256.675 318.78H254.795V321H254.055V314H256.675C257.568 314 258.268 314.213 258.775 314.64C259.282 315.067 259.535 315.653 259.535 316.4C259.535 316.947 259.395 317.41 259.115 317.79C258.842 318.163 258.448 318.433 257.935 318.6L259.645 321H258.835ZM256.655 318.15C257.348 318.15 257.878 317.997 258.245 317.69C258.612 317.383 258.795 316.953 258.795 316.4C258.795 315.833 258.612 315.4 258.245 315.1C257.878 314.793 257.348 314.64 256.655 314.64H254.795V318.15H256.655ZM264.342 321.06C263.648 321.06 263.018 320.907 262.452 320.6C261.892 320.287 261.452 319.86 261.132 319.32C260.818 318.78 260.662 318.173 260.662 317.5C260.662 316.827 260.818 316.22 261.132 315.68C261.452 315.14 261.892 314.717 262.452 314.41C263.018 314.097 263.648 313.94 264.342 313.94C265.035 313.94 265.658 314.093 266.212 314.4C266.772 314.707 267.212 315.133 267.532 315.68C267.852 316.22 268.012 316.827 268.012 317.5C268.012 318.173 267.852 318.783 267.532 319.33C267.212 319.87 266.772 320.293 266.212 320.6C265.658 320.907 265.035 321.06 264.342 321.06ZM264.342 320.4C264.895 320.4 265.395 320.277 265.842 320.03C266.288 319.777 266.638 319.43 266.892 318.99C267.145 318.543 267.272 318.047 267.272 317.5C267.272 316.953 267.145 316.46 266.892 316.02C266.638 315.573 266.288 315.227 265.842 314.98C265.395 314.727 264.895 314.6 264.342 314.6C263.788 314.6 263.285 314.727 262.832 314.98C262.385 315.227 262.032 315.573 261.772 316.02C261.518 316.46 261.392 316.953 261.392 317.5C261.392 318.047 261.518 318.543 261.772 318.99C262.032 319.43 262.385 319.777 262.832 320.03C263.285 320.277 263.788 320.4 264.342 320.4ZM272.49 321.06C271.584 321.06 270.877 320.8 270.37 320.28C269.864 319.76 269.61 319.003 269.61 318.01V314H270.35V317.98C270.35 318.793 270.534 319.4 270.9 319.8C271.267 320.2 271.797 320.4 272.49 320.4C273.19 320.4 273.724 320.2 274.09 319.8C274.457 319.4 274.64 318.793 274.64 317.98V314H275.36V318.01C275.36 319.003 275.107 319.76 274.6 320.28C274.1 320.8 273.397 321.06 272.49 321.06ZM280.21 314C281.104 314 281.804 314.213 282.31 314.64C282.817 315.067 283.07 315.653 283.07 316.4C283.07 317.147 282.817 317.733 282.31 318.16C281.804 318.58 281.104 318.79 280.21 318.79H278.33V321H277.59V314H280.21ZM280.19 318.14C280.884 318.14 281.414 317.99 281.78 317.69C282.147 317.383 282.33 316.953 282.33 316.4C282.33 315.833 282.147 315.4 281.78 315.1C281.414 314.793 280.884 314.64 280.19 314.64H278.33V318.14H280.19Z" fill="white"/>
<rect x="19" y="380" width="120" height="150" rx="20" fill="#1A1A1A"/>
<path d="M71.0988 411.168C72.2508 411.168 73.1988 410.712 73.9308 409.86L72.9948 408.756C72.5148 409.272 71.9268 409.632 71.1588 409.632C69.7548 409.632 68.8428 408.468 68.8428 406.536C68.8428 404.628 69.8508 403.476 71.1948 403.476C71.8668 403.476 72.3828 403.788 72.8388 404.22L73.7628 403.092C73.1868 402.492 72.2868 401.952 71.1588 401.952C68.9148 401.952 67.0308 403.668 67.0308 406.596C67.0308 409.56 68.8548 411.168 71.0988 411.168ZM77.6385 411.168C79.6905 411.168 80.9025 409.932 80.9025 408.48C80.9025 407.196 80.1945 406.512 79.1145 406.068L77.9505 405.576C77.1945 405.276 76.5705 405.048 76.5705 404.412C76.5705 403.824 77.0625 403.476 77.8425 403.476C78.5745 403.476 79.1625 403.74 79.7265 404.208L80.6265 403.092C79.9065 402.36 78.8745 401.952 77.8425 401.952C76.0425 401.952 74.7705 403.068 74.7705 404.52C74.7705 405.816 75.6705 406.536 76.5705 406.908L77.7585 407.412C78.5505 407.748 79.0905 407.952 79.0905 408.612C79.0905 409.236 78.5985 409.632 77.6745 409.632C76.8945 409.632 76.0545 409.236 75.4185 408.648L74.3985 409.872C75.2625 410.7 76.4505 411.168 77.6385 411.168ZM86.0028 411.168C88.3548 411.168 89.9748 409.404 89.9748 406.524C89.9748 403.644 88.3548 401.952 86.0028 401.952C83.6508 401.952 82.0308 403.632 82.0308 406.524C82.0308 409.404 83.6508 411.168 86.0028 411.168ZM86.0028 409.632C84.6828 409.632 83.8428 408.42 83.8428 406.524C83.8428 404.616 84.6828 403.476 86.0028 403.476C87.3228 403.476 88.1628 404.616 88.1628 406.524C88.1628 408.42 87.3228 409.632 86.0028 409.632Z" fill="#DCE4FF"/>
<path d="M40.6233 426.448V428.16H42.9273V433.392H45.0393V422.64H42.9273V426.448H40.6233ZM41.5993 429.84C39.2793 429.056 38.2713 427.248 38.2713 425.504V425.312H41.1353V423.632H33.2153V425.312H36.1113V425.52C36.1113 427.376 35.0553 429.312 32.6393 430.096L33.6953 431.776C35.4233 431.2 36.5753 430.032 37.2313 428.576C37.8553 429.904 38.9593 430.96 40.5753 431.488L41.5993 429.84ZM37.4393 435.44V432.496H35.3273V437.12H45.3753V435.44H37.4393ZM47.966 426.416V431.072H49.23C52.174 431.072 54.046 431.008 56.094 430.624L55.918 428.928C54.078 429.264 52.462 429.36 50.062 429.376V427.984H54.67V423.456H47.95V425.136H52.59V426.416H47.966ZM49.214 433.952H56.926V437.376H59.038V432.272H49.214V433.952ZM60.974 426.384V424.672H59.038V422.64H56.926V431.6H59.038V429.536H60.974V427.824H59.038V426.384H60.974ZM62.9728 424.16V425.84H67.8848C67.5808 429.104 65.9488 431.408 62.1888 433.216L63.2928 434.88C68.5248 432.352 70.0448 428.672 70.0448 424.16H62.9728ZM72.3008 422.624V437.36H74.4288V422.624H72.3008ZM86.0115 423.728H82.7635V422.528H80.6515V423.728H77.3715V425.232H86.0115V423.728ZM80.0595 427.792C80.0595 427.248 80.6995 426.976 81.7075 426.976C82.6995 426.976 83.3235 427.248 83.3235 427.792C83.3235 428.32 82.6995 428.624 81.7075 428.624C80.6995 428.624 80.0595 428.32 80.0595 427.792ZM86.1555 430.352C85.0675 430.48 83.9155 430.576 82.7635 430.64V429.936C84.3315 429.696 85.3395 428.912 85.3395 427.792C85.3395 426.448 83.8675 425.6 81.7075 425.6C79.5155 425.6 78.0435 426.448 78.0435 427.792C78.0435 428.912 79.0515 429.696 80.6515 429.936V430.72C79.3235 430.752 78.0755 430.752 76.9555 430.752L77.2275 432.336C79.8035 432.336 83.1795 432.288 86.2995 431.76L86.1555 430.352ZM78.9715 434.832H87.0195V437.392H89.1475V433.2H78.9715V434.832ZM87.0195 422.656V432.624H89.1475V422.656H87.0195ZM96.4033 429.296C99.1073 429.104 100.947 428.352 101.875 427.184C102.787 428.352 104.627 429.104 107.331 429.296L107.955 427.728C104.803 427.536 103.363 426.624 103.091 425.616H107.251V423.968H102.915V422.672H100.803V423.968H96.4833V425.616H100.643C100.371 426.624 98.9313 427.536 95.7793 427.728L96.4033 429.296ZM101.843 435.824C99.8433 435.824 98.8673 435.536 98.8673 434.88C98.8673 434.208 99.8433 433.936 101.843 433.936C103.843 433.936 104.819 434.208 104.819 434.88C104.819 435.536 103.843 435.824 101.843 435.824ZM101.843 432.384C98.6273 432.384 96.7393 433.264 96.7393 434.88C96.7393 436.496 98.6273 437.392 101.843 437.392C105.059 437.392 106.963 436.496 106.963 434.88C106.963 433.264 105.059 432.384 101.843 432.384ZM102.915 430.032V428.624H100.803V430.032H95.2193V431.68H108.531V430.032H102.915ZM117.842 427.792C118.146 426.272 118.146 425.024 118.146 424.128V423.264H110.578V424.912H116.066C116.05 425.632 115.986 426.512 115.794 427.6L117.842 427.792ZM118.802 428.288C117.426 428.432 115.938 428.528 114.482 428.592V426.304H112.402V428.64C111.458 428.656 110.562 428.656 109.73 428.656L109.906 430.288C112.546 430.288 115.874 430.24 118.914 429.728L118.802 428.288ZM113.746 434.816H121.698V430.992H111.602V432.544H119.586V433.36H111.634V437.264H122.178V435.68H113.746V434.816ZM121.698 425.744V422.624H119.586V430.464H121.698V427.472H123.474V425.744H121.698Z" fill="white"/>
<path d="M54.1042 465.06C53.5842 465.06 53.0842 464.977 52.6042 464.81C52.1308 464.643 51.7642 464.423 51.5042 464.15L51.7942 463.58C52.0475 463.833 52.3842 464.04 52.8042 464.2C53.2242 464.353 53.6575 464.43 54.1042 464.43C54.7308 464.43 55.2008 464.317 55.5142 464.09C55.8275 463.857 55.9842 463.557 55.9842 463.19C55.9842 462.91 55.8975 462.687 55.7242 462.52C55.5575 462.353 55.3508 462.227 55.1042 462.14C54.8575 462.047 54.5142 461.947 54.0742 461.84C53.5475 461.707 53.1275 461.58 52.8142 461.46C52.5008 461.333 52.2308 461.143 52.0042 460.89C51.7842 460.637 51.6742 460.293 51.6742 459.86C51.6742 459.507 51.7675 459.187 51.9542 458.9C52.1408 458.607 52.4275 458.373 52.8142 458.2C53.2008 458.027 53.6808 457.94 54.2542 457.94C54.6542 457.94 55.0442 457.997 55.4242 458.11C55.8108 458.217 56.1442 458.367 56.4242 458.56L56.1742 459.15C55.8808 458.957 55.5675 458.813 55.2342 458.72C54.9008 458.62 54.5742 458.57 54.2542 458.57C53.6408 458.57 53.1775 458.69 52.8642 458.93C52.5575 459.163 52.4042 459.467 52.4042 459.84C52.4042 460.12 52.4875 460.347 52.6542 460.52C52.8275 460.687 53.0408 460.817 53.2942 460.91C53.5542 460.997 53.9008 461.093 54.3342 461.2C54.8475 461.327 55.2608 461.453 55.5742 461.58C55.8942 461.7 56.1642 461.887 56.3842 462.14C56.6042 462.387 56.7142 462.723 56.7142 463.15C56.7142 463.503 56.6175 463.827 56.4242 464.12C56.2375 464.407 55.9475 464.637 55.5542 464.81C55.1608 464.977 54.6775 465.06 54.1042 465.06ZM59.5889 458.64H57.1289V458H62.7889V458.64H60.3289V465H59.5889V458.64ZM68.7511 465L67.1511 462.75C66.9711 462.77 66.7844 462.78 66.5911 462.78H64.7111V465H63.9711V458H66.5911C67.4844 458 68.1844 458.213 68.6911 458.64C69.1977 459.067 69.4511 459.653 69.4511 460.4C69.4511 460.947 69.3111 461.41 69.0311 461.79C68.7577 462.163 68.3644 462.433 67.8511 462.6L69.5611 465H68.7511ZM66.5711 462.15C67.2644 462.15 67.7944 461.997 68.1611 461.69C68.5277 461.383 68.7111 460.953 68.7111 460.4C68.7111 459.833 68.5277 459.4 68.1611 459.1C67.7944 458.793 67.2644 458.64 66.5711 458.64H64.7111V462.15H66.5711ZM75.5876 463.13H71.6876L70.8476 465H70.0776L73.2776 458H74.0076L77.2076 465H76.4276L75.5876 463.13ZM75.3176 462.53L73.6376 458.77L71.9576 462.53H75.3176ZM79.374 458.64H76.914V458H82.574V458.64H80.114V465H79.374V458.64ZM88.7062 464.36V465H83.7562V458H88.5562V458.64H84.4962V461.13H88.1162V461.76H84.4962V464.36H88.7062ZM95.3366 461.5H96.0466V464.17C95.7199 464.457 95.3333 464.677 94.8866 464.83C94.4399 464.983 93.9699 465.06 93.4766 465.06C92.7766 465.06 92.1466 464.907 91.5866 464.6C91.0266 464.293 90.5866 463.87 90.2666 463.33C89.9466 462.783 89.7866 462.173 89.7866 461.5C89.7866 460.827 89.9466 460.22 90.2666 459.68C90.5866 459.133 91.0266 458.707 91.5866 458.4C92.1466 458.093 92.7799 457.94 93.4866 457.94C94.0199 457.94 94.5099 458.027 94.9566 458.2C95.4033 458.367 95.7799 458.617 96.0866 458.95L95.6266 459.42C95.0733 458.873 94.3699 458.6 93.5166 458.6C92.9499 458.6 92.4366 458.727 91.9766 458.98C91.5233 459.227 91.1666 459.573 90.9066 460.02C90.6466 460.46 90.5166 460.953 90.5166 461.5C90.5166 462.047 90.6466 462.54 90.9066 462.98C91.1666 463.42 91.5233 463.767 91.9766 464.02C92.4299 464.273 92.9399 464.4 93.5066 464.4C94.2266 464.4 94.8366 464.22 95.3366 463.86V461.5ZM100.541 462.58V465H99.811V462.58L97.011 458H97.801L100.201 461.93L102.601 458H103.341L100.541 462.58ZM34.0715 474C34.9649 474 35.6649 474.213 36.1715 474.64C36.6782 475.067 36.9315 475.653 36.9315 476.4C36.9315 477.147 36.6782 477.733 36.1715 478.16C35.6649 478.58 34.9649 478.79 34.0715 478.79H32.1915V481H31.4515V474H34.0715ZM34.0515 478.14C34.7449 478.14 35.2749 477.99 35.6415 477.69C36.0082 477.383 36.1915 476.953 36.1915 476.4C36.1915 475.833 36.0082 475.4 35.6415 475.1C35.2749 474.793 34.7449 474.64 34.0515 474.64H32.1915V478.14H34.0515ZM38.5316 474H39.2716V480.36H43.1916V481H38.5316V474ZM48.8298 479.13H44.9298L44.0898 481H43.3198L46.5198 474H47.2498L50.4498 481H49.6698L48.8298 479.13ZM48.5598 478.53L46.8798 474.77L45.1998 478.53H48.5598ZM57.4578 474V481H56.8478L52.3478 475.32V481H51.6078V474H52.2178L56.7278 479.68V474H57.4578ZM65.5925 474V481H64.9825L60.4825 475.32V481H59.7425V474H60.3525L64.8625 479.68V474H65.5925ZM67.8773 474H68.6173V481H67.8773V474ZM76.7449 474V481H76.1349L71.6349 475.32V481H70.8949V474H71.5049L76.0149 479.68V474H76.7449ZM83.9596 477.5H84.6696V480.17C84.343 480.457 83.9563 480.677 83.5096 480.83C83.063 480.983 82.593 481.06 82.0996 481.06C81.3996 481.06 80.7696 480.907 80.2096 480.6C79.6496 480.293 79.2096 479.87 78.8896 479.33C78.5696 478.783 78.4096 478.173 78.4096 477.5C78.4096 476.827 78.5696 476.22 78.8896 475.68C79.2096 475.133 79.6496 474.707 80.2096 474.4C80.7696 474.093 81.403 473.94 82.1096 473.94C82.643 473.94 83.133 474.027 83.5796 474.2C84.0263 474.367 84.403 474.617 84.7096 474.95L84.2496 475.42C83.6963 474.873 82.993 474.6 82.1396 474.6C81.573 474.6 81.0596 474.727 80.5996 474.98C80.1463 475.227 79.7896 475.573 79.5296 476.02C79.2696 476.46 79.1396 476.953 79.1396 477.5C79.1396 478.047 79.2696 478.54 79.5296 478.98C79.7896 479.42 80.1463 479.767 80.5996 480.02C81.053 480.273 81.563 480.4 82.1296 480.4C82.8496 480.4 83.4596 480.22 83.9596 479.86V477.5ZM94.3112 477.5H95.0212V480.17C94.6945 480.457 94.3079 480.677 93.8612 480.83C93.4145 480.983 92.9445 481.06 92.4512 481.06C91.7512 481.06 91.1212 480.907 90.5612 480.6C90.0012 480.293 89.5612 479.87 89.2412 479.33C88.9212 478.783 88.7612 478.173 88.7612 477.5C88.7612 476.827 88.9212 476.22 89.2412 475.68C89.5612 475.133 90.0012 474.707 90.5612 474.4C91.1212 474.093 91.7545 473.94 92.4612 473.94C92.9945 473.94 93.4845 474.027 93.9312 474.2C94.3779 474.367 94.7545 474.617 95.0612 474.95L94.6012 475.42C94.0479 474.873 93.3445 474.6 92.4912 474.6C91.9245 474.6 91.4112 474.727 90.9512 474.98C90.4979 475.227 90.1412 475.573 89.8812 476.02C89.6212 476.46 89.4912 476.953 89.4912 477.5C89.4912 478.047 89.6212 478.54 89.8812 478.98C90.1412 479.42 90.4979 479.767 90.9512 480.02C91.4045 480.273 91.9145 480.4 92.4812 480.4C93.2012 480.4 93.8112 480.22 94.3112 479.86V477.5ZM101.896 481L100.296 478.75C100.116 478.77 99.9289 478.78 99.7356 478.78H97.8556V481H97.1156V474H99.7356C100.629 474 101.329 474.213 101.836 474.64C102.342 475.067 102.596 475.653 102.596 476.4C102.596 476.947 102.456 477.41 102.176 477.79C101.902 478.163 101.509 478.433 100.996 478.6L102.706 481H101.896ZM99.7156 478.15C100.409 478.15 100.939 477.997 101.306 477.69C101.672 477.383 101.856 476.953 101.856 476.4C101.856 475.833 101.672 475.4 101.306 475.1C100.939 474.793 100.409 474.64 99.7156 474.64H97.8556V478.15H99.7156ZM107.402 481.06C106.709 481.06 106.079 480.907 105.512 480.6C104.952 480.287 104.512 479.86 104.192 479.32C103.879 478.78 103.722 478.173 103.722 477.5C103.722 476.827 103.879 476.22 104.192 475.68C104.512 475.14 104.952 474.717 105.512 474.41C106.079 474.097 106.709 473.94 107.402 473.94C108.095 473.94 108.719 474.093 109.272 474.4C109.832 474.707 110.272 475.133 110.592 475.68C110.912 476.22 111.072 476.827 111.072 477.5C111.072 478.173 110.912 478.783 110.592 479.33C110.272 479.87 109.832 480.293 109.272 480.6C108.719 480.907 108.095 481.06 107.402 481.06ZM107.402 480.4C107.955 480.4 108.455 480.277 108.902 480.03C109.349 479.777 109.699 479.43 109.952 478.99C110.205 478.543 110.332 478.047 110.332 477.5C110.332 476.953 110.205 476.46 109.952 476.02C109.699 475.573 109.349 475.227 108.902 474.98C108.455 474.727 107.955 474.6 107.402 474.6C106.849 474.6 106.345 474.727 105.892 474.98C105.445 475.227 105.092 475.573 104.832 476.02C104.579 476.46 104.452 476.953 104.452 477.5C104.452 478.047 104.579 478.543 104.832 478.99C105.092 479.43 105.445 479.777 105.892 480.03C106.345 480.277 106.849 480.4 107.402 480.4ZM115.551 481.06C114.644 481.06 113.937 480.8 113.431 480.28C112.924 479.76 112.671 479.003 112.671 478.01V474H113.411V477.98C113.411 478.793 113.594 479.4 113.961 479.8C114.327 480.2 114.857 480.4 115.551 480.4C116.251 480.4 116.784 480.2 117.151 479.8C117.517 479.4 117.701 478.793 117.701 477.98V474H118.421V478.01C118.421 479.003 118.167 479.76 117.661 480.28C117.161 480.8 116.457 481.06 115.551 481.06ZM123.271 474C124.164 474 124.864 474.213 125.371 474.64C125.877 475.067 126.131 475.653 126.131 476.4C126.131 477.147 125.877 477.733 125.371 478.16C124.864 478.58 124.164 478.79 123.271 478.79H121.391V481H120.651V474H123.271ZM123.251 478.14C123.944 478.14 124.474 477.99 124.841 477.69C125.207 477.383 125.391 476.953 125.391 476.4C125.391 475.833 125.207 475.4 124.841 475.1C124.474 474.793 123.944 474.64 123.251 474.64H121.391V478.14H123.251Z" fill="white"/>
<rect x="182" y="380" width="120" height="150" rx="20" fill="#1A1A1A"/>
<path d="M234.716 411.168C235.868 411.168 236.816 410.712 237.548 409.86L236.612 408.756C236.132 409.272 235.544 409.632 234.776 409.632C233.372 409.632 232.46 408.468 232.46 406.536C232.46 404.628 233.468 403.476 234.812 403.476C235.484 403.476 236 403.788 236.456 404.22L237.38 403.092C236.804 402.492 235.904 401.952 234.776 401.952C232.532 401.952 230.648 403.668 230.648 406.596C230.648 409.56 232.472 411.168 234.716 411.168ZM238.979 411H240.755V407.4H243.911V405.912H240.755V403.596H244.451V402.108H238.979V411ZM249.386 411.168C251.738 411.168 253.358 409.404 253.358 406.524C253.358 403.644 251.738 401.952 249.386 401.952C247.034 401.952 245.414 403.632 245.414 406.524C245.414 409.404 247.034 411.168 249.386 411.168ZM249.386 409.632C248.066 409.632 247.226 408.42 247.226 406.524C247.226 404.616 248.066 403.476 249.386 403.476C250.706 403.476 251.546 404.616 251.546 406.524C251.546 408.42 250.706 409.632 249.386 409.632Z" fill="#DCE4FF"/>
<path d="M222.69 422.624V428.272H221.49V422.864H219.522V432.4C217.346 431.264 216.61 428.816 216.61 426.24V425.84H218.818V424.128H212.146V425.84H214.562V426.24C214.562 429.072 213.858 431.68 211.666 432.96L212.93 434.56C214.306 433.744 215.17 432.352 215.65 430.656C216.178 432.128 217.026 433.312 218.338 434.016L219.522 432.432V436.704H221.49V430H222.69V437.36H224.69V422.624H222.69ZM236.337 427.648H230.273V425.024H236.337V427.648ZM238.401 423.36H228.193V429.312H238.401V423.36ZM240.001 430.88H226.657V432.56H232.225V437.376H234.337V432.56H240.001V430.88ZM246.185 429.296C248.889 429.104 250.729 428.352 251.657 427.184C252.569 428.352 254.409 429.104 257.113 429.296L257.737 427.728C254.585 427.536 253.145 426.624 252.873 425.616H257.033V423.968H252.697V422.672H250.585V423.968H246.265V425.616H250.425C250.153 426.624 248.713 427.536 245.561 427.728L246.185 429.296ZM251.625 435.824C249.625 435.824 248.649 435.536 248.649 434.88C248.649 434.208 249.625 433.936 251.625 433.936C253.625 433.936 254.601 434.208 254.601 434.88C254.601 435.536 253.625 435.824 251.625 435.824ZM251.625 432.384C248.409 432.384 246.521 433.264 246.521 434.88C246.521 436.496 248.409 437.392 251.625 437.392C254.841 437.392 256.745 436.496 256.745 434.88C256.745 433.264 254.841 432.384 251.625 432.384ZM252.697 430.032V428.624H250.585V430.032H245.001V431.68H258.313V430.032H252.697ZM267.623 427.792C267.927 426.272 267.927 425.024 267.927 424.128V423.264H260.359V424.912H265.847C265.831 425.632 265.767 426.512 265.575 427.6L267.623 427.792ZM268.583 428.288C267.207 428.432 265.719 428.528 264.263 428.592V426.304H262.183V428.64C261.239 428.656 260.343 428.656 259.511 428.656L259.687 430.288C262.327 430.288 265.655 430.24 268.695 429.728L268.583 428.288ZM263.527 434.816H271.479V430.992H261.383V432.544H269.367V433.36H261.415V437.264H271.959V435.68H263.527V434.816ZM271.479 425.744V422.624H269.367V430.464H271.479V427.472H273.255V425.744H271.479Z" fill="white"/>
<path d="M210.869 458V465H210.159V459.4L207.409 464.11H207.059L204.309 459.43V465H203.599V458H204.209L207.249 463.19L210.259 458H210.869ZM217.54 463.13H213.64L212.8 465H212.03L215.23 458H215.96L219.16 465H218.38L217.54 463.13ZM217.27 462.53L215.59 458.77L213.91 462.53H217.27ZM226.168 458V465H225.558L221.058 459.32V465H220.318V458H220.928L225.438 463.68V458H226.168ZM232.843 463.13H228.943L228.103 465H227.333L230.533 458H231.263L234.463 465H233.683L232.843 463.13ZM232.573 462.53L230.893 458.77L229.213 462.53H232.573ZM240.453 461.5H241.163V464.17C240.836 464.457 240.449 464.677 240.003 464.83C239.556 464.983 239.086 465.06 238.593 465.06C237.893 465.06 237.263 464.907 236.703 464.6C236.143 464.293 235.703 463.87 235.383 463.33C235.063 462.783 234.903 462.173 234.903 461.5C234.903 460.827 235.063 460.22 235.383 459.68C235.703 459.133 236.143 458.707 236.703 458.4C237.263 458.093 237.896 457.94 238.603 457.94C239.136 457.94 239.626 458.027 240.073 458.2C240.519 458.367 240.896 458.617 241.203 458.95L240.743 459.42C240.189 458.873 239.486 458.6 238.633 458.6C238.066 458.6 237.553 458.727 237.093 458.98C236.639 459.227 236.283 459.573 236.023 460.02C235.763 460.46 235.633 460.953 235.633 461.5C235.633 462.047 235.763 462.54 236.023 462.98C236.283 463.42 236.639 463.767 237.093 464.02C237.546 464.273 238.056 464.4 238.623 464.4C239.343 464.4 239.953 464.22 240.453 463.86V461.5ZM248.207 464.36V465H243.257V458H248.057V458.64H243.997V461.13H247.617V461.76H243.997V464.36H248.207ZM257.217 458V465H256.507V459.4L253.757 464.11H253.407L250.657 459.43V465H249.947V458H250.557L253.597 463.19L256.607 458H257.217ZM264.447 464.36V465H259.497V458H264.297V458.64H260.237V461.13H263.857V461.76H260.237V464.36H264.447ZM272.037 458V465H271.427L266.927 459.32V465H266.187V458H266.797L271.307 463.68V458H272.037ZM275.682 458.64H273.222V458H278.882V458.64H276.422V465H275.682V458.64ZM228.846 477.5H229.556V480.17C229.23 480.457 228.843 480.677 228.396 480.83C227.95 480.983 227.48 481.06 226.986 481.06C226.286 481.06 225.656 480.907 225.096 480.6C224.536 480.293 224.096 479.87 223.776 479.33C223.456 478.783 223.296 478.173 223.296 477.5C223.296 476.827 223.456 476.22 223.776 475.68C224.096 475.133 224.536 474.707 225.096 474.4C225.656 474.093 226.29 473.94 226.996 473.94C227.53 473.94 228.02 474.027 228.466 474.2C228.913 474.367 229.29 474.617 229.596 474.95L229.136 475.42C228.583 474.873 227.88 474.6 227.026 474.6C226.46 474.6 225.946 474.727 225.486 474.98C225.033 475.227 224.676 475.573 224.416 476.02C224.156 476.46 224.026 476.953 224.026 477.5C224.026 478.047 224.156 478.54 224.416 478.98C224.676 479.42 225.033 479.767 225.486 480.02C225.94 480.273 226.45 480.4 227.016 480.4C227.736 480.4 228.346 480.22 228.846 479.86V477.5ZM236.431 481L234.831 478.75C234.651 478.77 234.464 478.78 234.271 478.78H232.391V481H231.651V474H234.271C235.164 474 235.864 474.213 236.371 474.64C236.877 475.067 237.131 475.653 237.131 476.4C237.131 476.947 236.991 477.41 236.711 477.79C236.437 478.163 236.044 478.433 235.531 478.6L237.241 481H236.431ZM234.251 478.15C234.944 478.15 235.474 477.997 235.841 477.69C236.207 477.383 236.391 476.953 236.391 476.4C236.391 475.833 236.207 475.4 235.841 475.1C235.474 474.793 234.944 474.64 234.251 474.64H232.391V478.15H234.251ZM241.937 481.06C241.244 481.06 240.614 480.907 240.047 480.6C239.487 480.287 239.047 479.86 238.727 479.32C238.414 478.78 238.257 478.173 238.257 477.5C238.257 476.827 238.414 476.22 238.727 475.68C239.047 475.14 239.487 474.717 240.047 474.41C240.614 474.097 241.244 473.94 241.937 473.94C242.631 473.94 243.254 474.093 243.807 474.4C244.367 474.707 244.807 475.133 245.127 475.68C245.447 476.22 245.607 476.827 245.607 477.5C245.607 478.173 245.447 478.783 245.127 479.33C244.807 479.87 244.367 480.293 243.807 480.6C243.254 480.907 242.631 481.06 241.937 481.06ZM241.937 480.4C242.491 480.4 242.991 480.277 243.437 480.03C243.884 479.777 244.234 479.43 244.487 478.99C244.741 478.543 244.867 478.047 244.867 477.5C244.867 476.953 244.741 476.46 244.487 476.02C244.234 475.573 243.884 475.227 243.437 474.98C242.991 474.727 242.491 474.6 241.937 474.6C241.384 474.6 240.881 474.727 240.427 474.98C239.981 475.227 239.627 475.573 239.367 476.02C239.114 476.46 238.987 476.953 238.987 477.5C238.987 478.047 239.114 478.543 239.367 478.99C239.627 479.43 239.981 479.777 240.427 480.03C240.881 480.277 241.384 480.4 241.937 480.4ZM250.086 481.06C249.179 481.06 248.473 480.8 247.966 480.28C247.459 479.76 247.206 479.003 247.206 478.01V474H247.946V477.98C247.946 478.793 248.129 479.4 248.496 479.8C248.863 480.2 249.393 480.4 250.086 480.4C250.786 480.4 251.319 480.2 251.686 479.8C252.053 479.4 252.236 478.793 252.236 477.98V474H252.956V478.01C252.956 479.003 252.703 479.76 252.196 480.28C251.696 480.8 250.993 481.06 250.086 481.06ZM257.806 474C258.699 474 259.399 474.213 259.906 474.64C260.413 475.067 260.666 475.653 260.666 476.4C260.666 477.147 260.413 477.733 259.906 478.16C259.399 478.58 258.699 478.79 257.806 478.79H255.926V481H255.186V474H257.806ZM257.786 478.14C258.479 478.14 259.009 477.99 259.376 477.69C259.743 477.383 259.926 476.953 259.926 476.4C259.926 475.833 259.743 475.4 259.376 475.1C259.009 474.793 258.479 474.64 257.786 474.64H255.926V478.14H257.786Z" fill="white"/>
<circle cx="160" cy="70" r="70" fill="#0000F4"/>
<path d="M152.547 42.168C153.699 42.168 154.647 41.712 155.379 40.86L154.443 39.756C153.963 40.272 153.375 40.632 152.607 40.632C151.203 40.632 150.291 39.468 150.291 37.536C150.291 35.628 151.299 34.476 152.643 34.476C153.315 34.476 153.831 34.788 154.287 35.22L155.211 34.092C154.635 33.492 153.735 32.952 152.607 32.952C150.363 32.952 148.479 34.668 148.479 37.596C148.479 40.56 150.303 42.168 152.547 42.168ZM156.81 42H162.39V40.512H158.586V38.136H161.706V36.648H158.586V34.596H162.258V33.108H156.81V42ZM167.721 42.168C170.073 42.168 171.693 40.404 171.693 37.524C171.693 34.644 170.073 32.952 167.721 32.952C165.369 32.952 163.749 34.632 163.749 37.524C163.749 40.404 165.369 42.168 167.721 42.168ZM167.721 40.632C166.401 40.632 165.561 39.42 165.561 37.524C165.561 35.616 166.401 34.476 167.721 34.476C169.041 34.476 169.881 35.616 169.881 37.524C169.881 39.42 169.041 40.632 167.721 40.632Z" fill="#DCE4FF"/>
<path d="M133.401 57.34H129.201V55.36H126.561V57.34H122.341V59.4H133.401V57.34ZM125.821 63.58C125.821 62.64 126.661 62.12 127.881 62.12C129.121 62.12 129.941 62.64 129.941 63.58C129.941 64.54 129.121 65.06 127.881 65.06C126.661 65.06 125.821 64.54 125.821 63.58ZM129.201 66.92C131.161 66.54 132.441 65.3 132.441 63.58C132.441 61.52 130.561 60.12 127.881 60.12C125.181 60.12 123.301 61.52 123.301 63.58C123.301 65.3 124.581 66.54 126.561 66.92V68.48C124.921 68.52 123.361 68.52 121.981 68.52L122.301 70.66C125.561 70.66 129.821 70.64 133.841 69.9L133.641 67.98C132.201 68.18 130.701 68.28 129.201 68.38V66.92ZM134.601 55.3V73.72H137.241V55.3H134.601ZM147.059 56.72H144.399V59.4C144.399 62.82 142.999 66.34 139.899 67.8L141.479 69.94C143.559 68.92 144.939 66.98 145.739 64.64C146.499 66.84 147.799 68.62 149.719 69.6L151.319 67.52C148.359 66.06 147.059 62.72 147.059 59.4V56.72ZM157.379 62.38H154.699V55.3H152.059V73.72H154.699V64.58H157.379V62.38ZM164.689 63.62C168.069 63.38 170.369 62.44 171.529 60.98C172.669 62.44 174.969 63.38 178.349 63.62L179.129 61.66C175.189 61.42 173.389 60.28 173.049 59.02H178.249V56.96H172.829V55.34H170.189V56.96H164.789V59.02H169.989C169.649 60.28 167.849 61.42 163.909 61.66L164.689 63.62ZM171.489 71.78C168.989 71.78 167.769 71.42 167.769 70.6C167.769 69.76 168.989 69.42 171.489 69.42C173.989 69.42 175.209 69.76 175.209 70.6C175.209 71.42 173.989 71.78 171.489 71.78ZM171.489 67.48C167.469 67.48 165.109 68.58 165.109 70.6C165.109 72.62 167.469 73.72 171.489 73.72C175.509 73.72 177.889 72.62 177.889 70.6C177.889 68.58 175.509 67.48 171.489 67.48ZM172.829 64.54V62.78H170.189V64.54H163.209V66.6H179.849V64.54H172.829ZM191.487 61.74C191.867 59.84 191.867 58.28 191.867 57.16V56.08H182.407V58.14H189.267C189.247 59.04 189.167 60.14 188.927 61.5L191.487 61.74ZM192.687 62.36C190.967 62.54 189.107 62.66 187.287 62.74V59.88H184.687V62.8C183.507 62.82 182.387 62.82 181.347 62.82L181.567 64.86C184.867 64.86 189.027 64.8 192.827 64.16L192.687 62.36ZM186.367 70.52H196.307V65.74H183.687V67.68H193.667V68.7H183.727V73.56H196.907V71.6H186.367V70.52ZM196.307 59.18V55.28H193.667V65.08H196.307V61.34H198.527V59.18H196.307Z" fill="white"/>
<path d="M126.181 97.833H126.921V104.193H130.841V104.833H126.181V97.833ZM137.02 104.193V104.833H132.07V97.833H136.87V98.473H132.81V100.963H136.43V101.593H132.81V104.193H137.02ZM141.76 104.893C141.067 104.893 140.44 104.74 139.88 104.433C139.327 104.126 138.89 103.703 138.57 103.163C138.257 102.616 138.1 102.006 138.1 101.333C138.1 100.66 138.257 100.053 138.57 99.513C138.89 98.9663 139.33 98.5397 139.89 98.233C140.45 97.9263 141.077 97.773 141.77 97.773C142.29 97.773 142.77 97.8597 143.21 98.033C143.65 98.2063 144.023 98.4597 144.33 98.793L143.86 99.263C143.313 98.7097 142.623 98.433 141.79 98.433C141.237 98.433 140.733 98.5597 140.28 98.813C139.827 99.0663 139.47 99.413 139.21 99.853C138.957 100.293 138.83 100.786 138.83 101.333C138.83 101.88 138.957 102.373 139.21 102.813C139.47 103.253 139.827 103.6 140.28 103.853C140.733 104.106 141.237 104.233 141.79 104.233C142.63 104.233 143.32 103.953 143.86 103.393L144.33 103.863C144.023 104.196 143.647 104.453 143.2 104.633C142.76 104.806 142.28 104.893 141.76 104.893ZM145.908 97.833H146.648V104.193H150.568V104.833H145.908V97.833ZM156.746 104.193V104.833H151.796V97.833H156.596V98.473H152.536V100.963H156.156V101.593H152.536V104.193H156.746ZM163.273 101.543L161.843 102.993V104.833H161.103V97.833H161.843V102.063L165.953 97.833H166.803L163.773 101.003L167.013 104.833H166.133L163.273 101.543ZM171.018 104.893C170.325 104.893 169.695 104.74 169.128 104.433C168.568 104.12 168.128 103.693 167.808 103.153C167.495 102.613 167.338 102.006 167.338 101.333C167.338 100.66 167.495 100.053 167.808 99.513C168.128 98.973 168.568 98.5497 169.128 98.243C169.695 97.9297 170.325 97.773 171.018 97.773C171.712 97.773 172.335 97.9263 172.888 98.233C173.448 98.5397 173.888 98.9663 174.208 99.513C174.528 100.053 174.688 100.66 174.688 101.333C174.688 102.006 174.528 102.616 174.208 103.163C173.888 103.703 173.448 104.126 172.888 104.433C172.335 104.74 171.712 104.893 171.018 104.893ZM171.018 104.233C171.572 104.233 172.072 104.11 172.518 103.863C172.965 103.61 173.315 103.263 173.568 102.823C173.822 102.376 173.948 101.88 173.948 101.333C173.948 100.786 173.822 100.293 173.568 99.853C173.315 99.4063 172.965 99.0597 172.518 98.813C172.072 98.5597 171.572 98.433 171.018 98.433C170.465 98.433 169.962 98.5597 169.508 98.813C169.062 99.0597 168.708 99.4063 168.448 99.853C168.195 100.293 168.068 100.786 168.068 101.333C168.068 101.88 168.195 102.376 168.448 102.823C168.708 103.263 169.062 103.61 169.508 103.863C169.962 104.11 170.465 104.233 171.018 104.233ZM181.127 104.833L179.527 102.583C179.347 102.603 179.16 102.613 178.967 102.613H177.087V104.833H176.347V97.833H178.967C179.86 97.833 180.56 98.0463 181.067 98.473C181.574 98.8997 181.827 99.4863 181.827 100.233C181.827 100.78 181.687 101.243 181.407 101.623C181.134 101.996 180.74 102.266 180.227 102.433L181.937 104.833H181.127ZM178.947 101.983C179.64 101.983 180.17 101.83 180.537 101.523C180.904 101.216 181.087 100.786 181.087 100.233C181.087 99.6663 180.904 99.233 180.537 98.933C180.17 98.6263 179.64 98.473 178.947 98.473H177.087V101.983H178.947ZM188.524 104.193V104.833H183.574V97.833H188.374V98.473H184.314V100.963H187.934V101.593H184.314V104.193H188.524ZM194.653 102.963H190.753L189.913 104.833H189.143L192.343 97.833H193.073L196.273 104.833H195.493L194.653 102.963ZM194.383 102.363L192.703 98.603L191.023 102.363H194.383Z" fill="white"/>
<rect y="600" width="100" height="85" rx="16" fill="#F0F0F0"/>
<path d="M40.3791 635H42.1551V631.844H43.3431C45.2511 631.844 46.7751 630.932 46.7751 628.904C46.7751 626.804 45.2631 626.12 43.2951 626.12H40.3791V635ZM42.1551 630.44V627.524H43.1631C44.3871 627.524 45.0351 627.872 45.0351 628.904C45.0351 629.924 44.4471 630.44 43.2231 630.44H42.1551ZM47.5124 635.168C48.1484 635.168 48.6164 634.664 48.6164 634.016C48.6164 633.368 48.1484 632.864 47.5124 632.864C46.8884 632.864 46.4204 633.368 46.4204 634.016C46.4204 634.664 46.8884 635.168 47.5124 635.168ZM50.5627 635H52.1587V631.292C52.1587 630.452 52.0147 629.216 51.9307 628.376H51.9787L52.6867 630.464L54.0667 634.196H55.0867L56.4547 630.464L57.1747 628.376H57.2227C57.1387 629.216 57.0067 630.452 57.0067 631.292V635H58.6267V626.12H56.6587L55.1827 630.272C54.9907 630.824 54.8347 631.412 54.6427 631.988H54.5827C54.4027 631.412 54.2347 630.824 54.0427 630.272L52.5307 626.12H50.5627V635Z" fill="#808080"/>
<path d="M9.49591 655.476V656.784H19.5519V655.476H9.49591ZM10.2639 647.916V649.188H18.7239V647.916H10.2639ZM10.3119 652.512V653.796H18.6879V652.512H10.3119ZM11.7759 649.092V652.632H13.3719V649.092H11.7759ZM15.6279 649.092V652.632H17.2119V649.092H15.6279ZM20.535 655.548V656.844H30.591V655.548H20.535ZM24.747 653.448V656.076H26.343V653.448H24.747ZM21.663 647.676V648.936H27.879V650.124H21.687V653.244H23.271V651.372H29.463V647.676H21.663ZM21.687 652.608V653.892H29.715V652.608H21.687ZM36.158 649.704V650.988H37.898V649.704H36.158ZM37.346 647.172V653.676H38.834V647.172H37.346ZM33.518 648.624V649.332C33.518 650.568 32.906 651.828 31.418 652.416L32.222 653.652C34.022 652.932 34.754 651.192 34.754 649.332V648.624H33.518ZM33.818 648.624V649.332C33.818 651.12 34.502 652.776 36.242 653.448L37.022 652.224C35.63 651.672 35.054 650.52 35.054 649.332V648.624H33.818ZM31.766 647.748V649.02H36.674V647.748H31.766ZM39.518 646.956V653.724H41.03V646.956H39.518ZM33.398 654.132V655.404H39.446V658.068H41.03V654.132H33.398ZM43.7891 652.68V653.928H51.6011V652.68H43.7891ZM42.6131 655.5V656.796H52.6691V655.5H42.6131ZM43.7891 647.76V653.028H45.4091V649.044H51.5051V647.76H43.7891ZM44.9171 650.208V651.444H51.2531V650.208H44.9171ZM64.3869 646.956V658.068H65.9109V646.956H64.3869ZM63.0549 651.192V652.476H64.8909V651.192H63.0549ZM61.9509 647.124V657.564H63.4509V647.124H61.9509ZM56.6709 648.096V655.296H61.0629V648.096H56.6709ZM59.5749 649.344V654.048H58.1589V649.344H59.5749ZM75.09 646.956V658.068H76.686V646.956H75.09ZM67.986 648.012V654.912H69.57V648.012H67.986ZM67.986 653.976V655.332H68.97C70.662 655.332 72.498 655.212 74.406 654.816L74.226 653.496C72.39 653.856 70.59 653.976 68.97 653.976H67.986ZM86.165 646.944V658.092H87.761V646.944H86.165ZM84.221 650.832V652.116H86.537V650.832H84.221ZM81.005 648.708V649.692C81.005 651.756 80.129 653.88 78.269 654.756L79.205 656.016C81.281 654.996 82.265 652.404 82.265 649.692V648.708H81.005ZM81.377 648.708V649.692C81.377 652.32 82.337 654.804 84.425 655.788L85.349 654.54C83.489 653.7 82.625 651.648 82.625 649.692V648.708H81.377ZM78.725 648.024V649.308H84.905V648.024H78.725Z" fill="#1A1A1A"/>
<rect x="110" y="600" width="100" height="85" rx="16" fill="#F0F0F0"/>
<path d="M126.393 635H128.169V631.4H131.325V629.912H128.169V627.596H131.865V626.12H126.393V635ZM135.188 627.524H136.34C137.48 627.524 138.104 627.848 138.104 628.808C138.104 629.756 137.48 630.236 136.34 630.236H135.188V627.524ZM140.228 635L138.152 631.364C139.172 630.968 139.844 630.14 139.844 628.808C139.844 626.768 138.368 626.12 136.508 626.12H133.412V635H135.188V631.64H136.424L138.248 635H140.228ZM145.12 635.168C147.472 635.168 149.092 633.404 149.092 630.524C149.092 627.644 147.472 625.952 145.12 625.952C142.768 625.952 141.148 627.632 141.148 630.524C141.148 633.404 142.768 635.168 145.12 635.168ZM145.12 633.632C143.8 633.632 142.96 632.42 142.96 630.524C142.96 628.616 143.8 627.476 145.12 627.476C146.44 627.476 147.28 628.616 147.28 630.524C147.28 632.42 146.44 633.632 145.12 633.632ZM150.826 635H152.506V631.436C152.506 630.416 152.374 629.3 152.29 628.34H152.35L153.25 630.248L155.818 635H157.618V626.12H155.938V629.66C155.938 630.668 156.07 631.844 156.166 632.768H156.106L155.218 630.848L152.638 626.12H150.826V635ZM161.579 635H163.355V627.596H165.875V626.12H159.083V627.596H161.579V635ZM165.908 632.192H169.184V630.932H165.908V632.192ZM170.854 635H176.434V633.512H172.63V631.136H175.75V629.648H172.63V627.596H176.302V626.12H170.854V635ZM178.237 635H179.917V631.436C179.917 630.416 179.785 629.3 179.701 628.34H179.761L180.661 630.248L183.229 635H185.029V626.12H183.349V629.66C183.349 630.668 183.481 631.844 183.577 632.768H183.517L182.629 630.848L180.049 626.12H178.237V635ZM187.225 635H189.757C192.373 635 194.053 633.512 194.053 630.524C194.053 627.524 192.373 626.12 189.661 626.12H187.225V635ZM189.001 633.572V627.536H189.553C191.209 627.536 192.241 628.352 192.241 630.524C192.241 632.684 191.209 633.572 189.553 633.572H189.001Z" fill="#808080"/>
<path d="M126.515 655.476V656.784H136.571V655.476H126.515ZM127.283 647.916V649.188H135.743V647.916H127.283ZM127.331 652.512V653.796H135.707V652.512H127.331ZM128.795 649.092V652.632H130.391V649.092H128.795ZM132.647 649.092V652.632H134.231V649.092H132.647ZM137.543 653.1V654.372H147.611V653.1H137.543ZM138.803 656.868V658.14H146.639V656.868H138.803ZM138.803 654.924V657.252H140.399V654.924H138.803ZM141.779 651.564V653.664H143.375V651.564H141.779ZM138.779 647.196V648.408H144.815V649.152H138.791V651.432H140.375V650.28H146.387V647.196H138.779ZM138.791 651.06V652.26H146.603V651.06H138.791ZM149.77 652.68V653.928H157.582V652.68H149.77ZM148.594 655.5V656.796H158.65V655.5H148.594ZM149.77 647.76V653.028H151.39V649.044H157.486V647.76H149.77ZM150.898 650.208V651.444H157.234V650.208H150.898ZM170.331 646.956V658.068H171.855V646.956H170.331ZM168.927 651.144V652.416H170.763V651.144H168.927ZM165.615 648.312V648.648C165.615 651.312 164.727 653.184 162.195 654.684L163.119 655.788C166.227 653.976 167.139 651.444 167.139 648.312H165.615ZM162.759 648.312V649.596H166.083V648.312H162.759ZM167.871 647.244V657.588H169.359V647.244H167.871ZM173.702 647.448V652.308H179.042V647.448H177.458V648.756H175.286V647.448H173.702ZM175.286 649.956H177.458V651.06H175.286V649.956ZM180.53 646.956V652.596H182.126V646.956H180.53ZM181.478 649.092V650.388H183.59V649.092H181.478ZM174.782 653.028V654.252H180.554V654.912H174.806V657.372H176.39V656.052H182.126V653.028H174.782ZM174.806 656.76V657.996H182.45V656.76H174.806ZM186.914 648.708V649.956C186.914 651.78 186.014 653.856 184.178 654.72L185.078 655.98C187.118 655.02 188.174 652.464 188.174 649.956V648.708H186.914ZM187.25 648.708V649.956C187.25 652.32 188.282 654.756 190.322 655.704L191.198 654.444C189.374 653.604 188.51 651.636 188.51 649.956V648.708H187.25ZM184.61 648.024V649.332H190.706V648.024H184.61ZM191.522 646.956V658.068H193.13V646.956H191.522ZM192.77 651.192V652.512H194.738V651.192H192.77Z" fill="#1A1A1A"/>
<rect x="220" y="600" width="100" height="85" rx="16" fill="#F0F0F0"/>
<path d="M240.299 635H243.467C245.423 635 246.911 634.172 246.911 632.384C246.911 631.184 246.203 630.512 245.243 630.284V630.224C245.999 629.96 246.455 629.12 246.455 628.304C246.455 626.648 245.063 626.108 243.239 626.108H240.299V635ZM242.075 629.732V627.476H243.131C244.199 627.476 244.727 627.788 244.727 628.568C244.727 629.276 244.235 629.732 243.107 629.732H242.075ZM242.075 633.632V631.04H243.311C244.535 631.04 245.183 631.412 245.183 632.276C245.183 633.2 244.523 633.632 243.311 633.632H242.075ZM250.399 630.368C250.663 629.444 250.927 628.436 251.155 627.464H251.215C251.467 628.424 251.707 629.444 251.983 630.368L252.247 631.34H250.135L250.399 630.368ZM247.327 635H249.127L249.751 632.72H252.631L253.255 635H255.115L252.259 626.108H250.171L247.327 635ZM259.638 635.168C260.79 635.168 261.738 634.712 262.47 633.86L261.534 632.756C261.054 633.272 260.466 633.632 259.698 633.632C258.294 633.632 257.382 632.468 257.382 630.536C257.382 628.628 258.39 627.476 259.734 627.476C260.406 627.476 260.922 627.788 261.378 628.22L262.302 627.092C261.726 626.492 260.826 625.952 259.698 625.952C257.454 625.952 255.57 627.668 255.57 630.596C255.57 633.56 257.394 635.168 259.638 635.168ZM263.901 635H265.677V632.504L266.841 631.004L269.145 635H271.089L267.897 629.612L270.609 626.108H268.653L265.713 629.972H265.677V626.108H263.901V635ZM271.002 632.192H274.278V630.932H271.002V632.192ZM275.947 635H281.527V633.512H277.723V631.136H280.843V629.648H277.723V627.596H281.395V626.108H275.947V635ZM283.33 635H285.01V631.436C285.01 630.416 284.878 629.3 284.794 628.34H284.854L285.754 630.248L288.322 635H290.122V626.108H288.442V629.66C288.442 630.668 288.586 631.844 288.67 632.768H288.61L287.722 630.848L285.142 626.108H283.33V635ZM292.319 635H294.851C297.467 635 299.147 633.512 299.147 630.524C299.147 627.524 297.467 626.108 294.755 626.108H292.319V635ZM294.095 633.572V627.536H294.647C296.303 627.536 297.335 628.352 297.335 630.524C297.335 632.684 296.303 633.572 294.647 633.572H294.095Z" fill="#808080"/>
<path d="M236.887 647.664V653.04H241.291V647.664H239.803V649.224H238.387V647.664H236.887ZM238.387 650.448H239.803V651.792H238.387V650.448ZM244.459 646.968V653.652H245.971V646.968H244.459ZM243.127 649.668V650.964H244.891V649.668H243.127ZM242.107 647.16V653.604H243.595V647.16H242.107ZM238.339 654.156V655.428H244.387V658.068H245.971V654.156H238.339ZM252.007 649.968V651.252H253.699V649.968H252.007ZM250.123 647.76C248.646 647.76 247.579 648.912 247.579 650.568C247.579 652.212 248.646 653.376 250.123 653.376C251.587 653.376 252.667 652.212 252.667 650.568C252.667 648.912 251.587 647.76 250.123 647.76ZM250.123 649.128C250.759 649.128 251.239 649.656 251.239 650.568C251.239 651.48 250.759 652.008 250.123 652.008C249.475 652.008 249.007 651.48 249.007 650.568C249.007 649.656 249.475 649.128 250.123 649.128ZM255.499 646.956V655.224H257.011V646.956H255.499ZM253.303 647.136V654.888H254.791V647.136H253.303ZM249.535 656.604V657.876H257.299V656.604H249.535ZM249.535 654.168V657.276H251.131V654.168H249.535ZM259.758 652.08V653.352H267.57V652.08H259.758ZM258.594 655.428V656.736H268.65V655.428H258.594ZM259.758 647.868V652.608H261.342V649.164H267.486V647.868H259.758ZM280.331 646.956V658.068H281.855V646.956H280.331ZM278.927 651.144V652.416H280.763V651.144H278.927ZM275.615 648.312V648.648C275.615 651.312 274.727 653.184 272.195 654.684L273.119 655.788C276.227 653.976 277.139 651.444 277.139 648.312H275.615ZM272.759 648.312V649.596H276.083V648.312H272.759ZM277.871 647.244V657.588H279.359V647.244H277.871ZM283.702 647.448V652.308H289.042V647.448H287.458V648.756H285.286V647.448H283.702ZM285.286 649.956H287.458V651.06H285.286V649.956ZM290.53 646.956V652.596H292.126V646.956H290.53ZM291.478 649.092V650.388H293.59V649.092H291.478ZM284.782 653.028V654.252H290.554V654.912H284.806V657.372H286.39V656.052H292.126V653.028H284.782ZM284.806 656.76V657.996H292.45V656.76H284.806ZM296.914 648.708V649.956C296.914 651.78 296.014 653.856 294.178 654.72L295.078 655.98C297.118 655.02 298.174 652.464 298.174 649.956V648.708H296.914ZM297.25 648.708V649.956C297.25 652.32 298.282 654.756 300.322 655.704L301.198 654.444C299.374 653.604 298.51 651.636 298.51 649.956V648.708H297.25ZM294.61 648.024V649.332H300.706V648.024H294.61ZM301.522 646.956V658.068H303.13V646.956H301.522ZM302.77 651.192V652.512H304.738V651.192H302.77Z" fill="#1A1A1A"/>
<rect y="701" width="100" height="100" rx="16" fill="#F0F0F0"/>
<path d="M26.135 736H27.731V732.292C27.731 731.452 27.587 730.216 27.503 729.376H27.551L28.259 731.464L29.639 735.196H30.659L32.027 731.464L32.747 729.376H32.795C32.711 730.216 32.579 731.452 32.579 732.292V736H34.199V727.12H32.231L30.755 731.272C30.563 731.824 30.407 732.412 30.215 732.988H30.155C29.975 732.412 29.807 731.824 29.615 731.272L28.103 727.12H26.135V736ZM39.9052 736.168C42.2572 736.168 43.8772 734.404 43.8772 731.524C43.8772 728.644 42.2572 726.952 39.9052 726.952C37.5532 726.952 35.9332 728.632 35.9332 731.524C35.9332 734.404 37.5532 736.168 39.9052 736.168ZM39.9052 734.632C38.5852 734.632 37.7452 733.42 37.7452 731.524C37.7452 729.616 38.5852 728.476 39.9052 728.476C41.2252 728.476 42.0652 729.616 42.0652 731.524C42.0652 733.42 41.2252 734.632 39.9052 734.632ZM45.6115 736H48.7795C50.7355 736 52.2235 735.172 52.2235 733.384C52.2235 732.184 51.5155 731.512 50.5555 731.284V731.224C51.3115 730.96 51.7675 730.12 51.7675 729.304C51.7675 727.648 50.3755 727.12 48.5515 727.12H45.6115V736ZM47.3875 730.732V728.476H48.4435C49.5115 728.476 50.0395 728.788 50.0395 729.568C50.0395 730.276 49.5475 730.732 48.4195 730.732H47.3875ZM47.3875 734.632V732.052H48.6235C49.8475 732.052 50.4955 732.412 50.4955 733.276C50.4955 734.2 49.8355 734.632 48.6235 734.632H47.3875ZM53.7795 736H55.5555V727.12H53.7795V736ZM57.7404 736H63.1164V734.512H59.5164V727.12H57.7404V736ZM64.6662 736H70.2462V734.512H66.4422V732.136H69.5622V730.648H66.4422V728.596H70.1142V727.12H64.6662V736Z" fill="#808080"/>
<path d="M15.5154 756.488V757.784H25.5714V756.488H15.5154ZM19.7274 754.028V756.788H21.3234V754.028H19.7274ZM16.5594 748.772V754.232H24.4674V748.772H16.5594ZM22.9074 750.044V752.972H18.1314V750.044H22.9074ZM33.6465 747.956V759.068H35.2545V747.956H33.6465ZM34.8945 752.096V753.416H36.8625V752.096H34.8945ZM26.8785 748.832V756.5H32.2785V748.832H30.6945V751.532H28.4625V748.832H26.8785ZM28.4625 752.768H30.6945V755.216H28.4625V752.768ZM40.7136 748.28C39.0216 748.28 37.7496 749.336 37.7496 750.824C37.7496 752.3 39.0216 753.356 40.7136 753.356C42.4056 753.356 43.6776 752.3 43.6776 750.824C43.6776 749.336 42.4056 748.28 40.7136 748.28ZM40.7136 749.576C41.5296 749.576 42.1296 750.032 42.1296 750.824C42.1296 751.616 41.5296 752.072 40.7136 752.072C39.8976 752.072 39.2856 751.616 39.2856 750.824C39.2856 750.032 39.8976 749.576 40.7136 749.576ZM45.2136 747.956V753.512H46.8216V747.956H45.2136ZM39.4056 753.968V755.204H45.2376V755.864H39.4296V758.36H40.9896V757.016H46.8216V753.968H39.4056ZM39.4296 757.712V758.948H47.0976V757.712H39.4296ZM59.3314 747.956V759.068H60.8554V747.956H59.3314ZM57.9274 752.144V753.416H59.7634V752.144H57.9274ZM54.6154 749.312V749.648C54.6154 752.312 53.7274 754.184 51.1954 755.684L52.1194 756.788C55.2274 754.976 56.1394 752.444 56.1394 749.312H54.6154ZM51.7594 749.312V750.596H55.0834V749.312H51.7594ZM56.8714 748.244V758.588H58.3594V748.244H56.8714ZM62.7024 748.448V753.308H68.0424V748.448H66.4584V749.756H64.2864V748.448H62.7024ZM64.2864 750.956H66.4584V752.06H64.2864V750.956ZM69.5304 747.956V753.596H71.1264V747.956H69.5304ZM70.4784 750.092V751.388H72.5904V750.092H70.4784ZM63.7824 754.028V755.252H69.5544V755.912H63.8064V758.372H65.3904V757.052H71.1264V754.028H63.7824ZM63.8064 757.76V758.996H71.4504V757.76H63.8064ZM75.9135 749.708V750.956C75.9135 752.78 75.0135 754.856 73.1775 755.72L74.0775 756.98C76.1175 756.02 77.1735 753.464 77.1735 750.956V749.708H75.9135ZM76.2495 749.708V750.956C76.2495 753.32 77.2815 755.756 79.3215 756.704L80.1975 755.444C78.3735 754.604 77.5095 752.636 77.5095 750.956V749.708H76.2495ZM73.6095 749.024V750.332H79.7055V749.024H73.6095ZM80.5215 747.956V759.068H82.1295V747.956H80.5215ZM81.7695 752.192V753.512H83.7375V752.192H81.7695Z" fill="#1A1A1A"/>
<rect x="110" y="701" width="100" height="100" rx="16" fill="#F0F0F0"/>
<path d="M121.473 736H124.641C126.597 736 128.085 735.172 128.085 733.384C128.085 732.184 127.377 731.512 126.417 731.284V731.224C127.173 730.96 127.629 730.12 127.629 729.304C127.629 727.648 126.237 727.12 124.413 727.12H121.473V736ZM123.249 730.732V728.476H124.305C125.373 728.476 125.901 728.788 125.901 729.568C125.901 730.276 125.409 730.732 124.281 730.732H123.249ZM123.249 734.632V732.052H124.485C125.709 732.052 126.357 732.412 126.357 733.276C126.357 734.2 125.697 734.632 124.485 734.632H123.249ZM129.641 736H135.017V734.512H131.417V727.12H129.641V736ZM139.638 736.168C141.99 736.168 143.61 734.404 143.61 731.524C143.61 728.644 141.99 726.952 139.638 726.952C137.286 726.952 135.666 728.632 135.666 731.524C135.666 734.404 137.286 736.168 139.638 736.168ZM139.638 734.632C138.318 734.632 137.478 733.42 137.478 731.524C137.478 729.616 138.318 728.476 139.638 728.476C140.958 728.476 141.798 729.616 141.798 731.524C141.798 733.42 140.958 734.632 139.638 734.632ZM148.968 736.168C150.12 736.168 151.068 735.712 151.8 734.86L150.864 733.756C150.384 734.272 149.784 734.632 149.028 734.632C147.624 734.632 146.712 733.468 146.712 731.536C146.712 729.628 147.72 728.476 149.064 728.476C149.736 728.476 150.252 728.788 150.696 729.22L151.632 728.092C151.056 727.492 150.156 726.952 149.028 726.952C146.784 726.952 144.9 728.668 144.9 731.596C144.9 734.56 146.724 736.168 148.968 736.168ZM153.231 736H155.007V733.504L156.171 732.016L158.463 736H160.419L157.227 730.612L159.939 727.12H157.983L155.043 730.972H155.007V727.12H153.231V736ZM164.73 736.168C165.882 736.168 166.83 735.712 167.562 734.86L166.626 733.756C166.146 734.272 165.546 734.632 164.79 734.632C163.386 734.632 162.474 733.468 162.474 731.536C162.474 729.628 163.482 728.476 164.826 728.476C165.498 728.476 166.014 728.788 166.458 729.22L167.394 728.092C166.818 727.492 165.918 726.952 164.79 726.952C162.546 726.952 160.662 728.668 160.662 731.596C160.662 734.56 162.486 736.168 164.73 736.168ZM168.992 736H170.768V732.16H174.128V736H175.892V727.12H174.128V730.612H170.768V727.12H168.992V736ZM179.742 732.34L180.006 731.368C180.27 730.444 180.534 729.436 180.762 728.464H180.81C181.074 729.424 181.314 730.444 181.59 731.368L181.854 732.34H179.742ZM182.862 736H184.722L181.866 727.12H179.778L176.934 736H178.734L179.358 733.72H182.238L182.862 736ZM185.762 736H187.538V727.12H185.762V736ZM189.723 736H191.403V732.436C191.403 731.416 191.271 730.3 191.187 729.34H191.247L192.147 731.248L194.715 736H196.515V727.12H194.835V730.66C194.835 731.668 194.967 732.844 195.063 733.768H195.003L194.115 731.848L191.535 727.12H189.723V736Z" fill="#808080"/>
<path d="M137.326 748.148V751.868H144.815V748.148H143.231V748.88H138.899V748.148H137.326ZM138.899 750.044H143.231V750.692H138.899V750.044ZM136.043 752.468V753.716H146.087V752.468H136.043ZM137.195 754.352V755.516H143.303V756.08H137.207V758.18H138.779V757.172H144.875V754.352H137.195ZM137.207 757.808V758.996H145.163V757.808H137.207ZM147.082 753.908V755.18H157.15V753.908H147.082ZM148.318 748.172V749.384H154.354V750.056H148.33V752.384H149.914V751.184H155.926V748.172H148.318ZM148.33 751.904V753.116H156.142V751.904H148.33ZM151.318 752.492V754.604H152.914V752.492H151.318ZM148.198 755.804V757.064H154.402V759.032H155.998V755.804H148.198ZM162.645 752.168V753.452H164.409V752.168H162.645ZM160.065 751.04V751.328C160.065 753.032 159.501 754.856 157.917 755.78L158.817 756.98C160.593 755.96 161.265 753.644 161.265 751.328V751.04H160.065ZM160.377 751.04V751.328C160.377 753.608 161.061 755.78 162.861 756.716L163.725 755.54C162.153 754.7 161.577 753.008 161.577 751.328V751.04H160.377ZM158.337 749.816V751.1H163.293V749.816H158.337ZM160.065 748.328V750.86H161.577V748.328H160.065ZM166.149 747.956V759.068H167.661V747.956H166.149ZM163.905 748.136V758.564H165.393V748.136H163.905ZM176.792 747.968V755.948H178.4V747.968H176.792ZM170.996 757.604V758.876H178.676V757.604H170.996ZM170.996 755.144V758.12H172.592V755.144H170.996ZM172.352 748.664C170.648 748.664 169.328 749.84 169.328 751.484C169.328 753.116 170.648 754.304 172.352 754.304C174.056 754.304 175.364 753.116 175.364 751.484C175.364 749.84 174.056 748.664 172.352 748.664ZM172.352 750.044C173.168 750.044 173.804 750.572 173.804 751.484C173.804 752.384 173.168 752.912 172.352 752.912C171.524 752.912 170.888 752.384 170.888 751.484C170.888 750.572 171.524 750.044 172.352 750.044ZM131.663 766.88V768.152H138.659V766.88H131.663ZM130.523 774.512V775.796H140.567V774.512H130.523ZM138.023 766.88V767.852C138.023 769.136 138.023 770.756 137.519 773.012L139.091 773.18C139.607 770.768 139.595 769.196 139.595 767.852V766.88H138.023ZM138.311 769.556L131.315 769.772L131.531 771.128L138.311 770.756V769.556ZM134.087 771.848V774.98H135.683V771.848H134.087ZM144.61 766.724C142.942 766.724 141.742 768.26 141.742 770.684C141.742 773.132 142.942 774.668 144.61 774.668C146.266 774.668 147.478 773.132 147.478 770.684C147.478 768.26 146.266 766.724 144.61 766.724ZM144.61 768.176C145.426 768.176 145.954 769.052 145.954 770.684C145.954 772.34 145.426 773.228 144.61 773.228C143.806 773.228 143.266 772.34 143.266 770.684C143.266 769.052 143.806 768.176 144.61 768.176ZM149.302 765.944V777.092H150.886V765.944H149.302ZM147.01 769.952V771.236H149.974V769.952H147.01ZM163.312 765.956V777.068H164.836V765.956H163.312ZM161.908 770.144V771.416H163.744V770.144H161.908ZM158.596 767.312V767.648C158.596 770.312 157.708 772.184 155.176 773.684L156.1 774.788C159.208 772.976 160.12 770.444 160.12 767.312H158.596ZM155.74 767.312V768.596H159.064V767.312H155.74ZM160.852 766.244V776.588H162.34V766.244H160.852ZM166.683 766.448V771.308H172.023V766.448H170.439V767.756H168.267V766.448H166.683ZM168.267 768.956H170.439V770.06H168.267V768.956ZM173.511 765.956V771.596H175.107V765.956H173.511ZM174.459 768.092V769.388H176.571V768.092H174.459ZM167.763 772.028V773.252H173.535V773.912H167.787V776.372H169.371V775.052H175.107V772.028H167.763ZM167.787 775.76V776.996H175.431V775.76H167.787ZM179.894 767.708V768.956C179.894 770.78 178.994 772.856 177.158 773.72L178.058 774.98C180.098 774.02 181.154 771.464 181.154 768.956V767.708H179.894ZM180.23 767.708V768.956C180.23 771.32 181.262 773.756 183.302 774.704L184.178 773.444C182.354 772.604 181.49 770.636 181.49 768.956V767.708H180.23ZM177.59 767.024V768.332H183.686V767.024H177.59ZM184.502 765.956V777.068H186.11V765.956H184.502ZM185.75 770.192V771.512H187.718V770.192H185.75Z" fill="#1A1A1A"/>
<rect x="220" y="701" width="100" height="100" rx="16" fill="#F0F0F0"/>
<path d="M258.309 736H263.889V734.512H260.085V732.136H263.205V730.648H260.085V728.596H263.757V727.12H258.309V736ZM267.468 728.524H268.62C269.76 728.524 270.384 728.848 270.384 729.808C270.384 730.756 269.76 731.236 268.62 731.236H267.468V728.524ZM272.508 736L270.432 732.364C271.452 731.968 272.124 731.14 272.124 729.808C272.124 727.768 270.648 727.12 268.788 727.12H265.692V736H267.468V732.64H268.704L270.528 736H272.508ZM273.871 736H275.647V732.844H276.835C278.743 732.844 280.267 731.932 280.267 729.904C280.267 727.804 278.755 727.12 276.787 727.12H273.871V736ZM275.647 731.44V728.524H276.655C277.879 728.524 278.527 728.872 278.527 729.904C278.527 730.924 277.939 731.44 276.715 731.44H275.647Z" fill="#808080"/>
<path d="M240.391 758H245.971V756.512H242.167V754.148H245.275V752.648H242.167V750.596H245.839V749.12H240.391V758ZM247.774 758H249.55V754.652H250.858C252.718 754.652 254.194 753.788 254.194 751.808C254.194 749.768 252.718 749.12 250.858 749.12H247.774V758ZM249.55 753.248V750.536H250.69C251.842 750.536 252.466 750.86 252.466 751.808C252.466 752.756 251.842 753.248 250.69 753.248H249.55ZM252.598 758H254.578L251.77 753.08L250.534 754.196L252.598 758ZM255.953 758H257.729V754.844H258.917C260.825 754.844 262.337 753.944 262.337 751.916C262.337 749.804 260.825 749.12 258.869 749.12H255.953V758ZM257.729 753.44V750.536H258.737C259.961 750.536 260.609 750.872 260.609 751.916C260.609 752.924 260.021 753.44 258.797 753.44H257.729ZM274.056 747.956V759.068H275.58V747.956H274.056ZM272.652 752.144V753.416H274.488V752.144H272.652ZM269.34 749.312V749.648C269.34 752.312 268.452 754.184 265.92 755.684L266.844 756.788C269.952 754.976 270.864 752.444 270.864 749.312H269.34ZM266.484 749.312V750.596H269.808V749.312H266.484ZM271.596 748.244V758.588H273.084V748.244H271.596ZM277.427 748.448V753.308H282.767V748.448H281.183V749.756H279.011V748.448H277.427ZM279.011 750.956H281.183V752.06H279.011V750.956ZM284.255 747.956V753.596H285.851V747.956H284.255ZM285.203 750.092V751.388H287.315V750.092H285.203ZM278.507 754.028V755.252H284.279V755.912H278.531V758.372H280.115V757.052H285.851V754.028H278.507ZM278.531 757.76V758.996H286.175V757.76H278.531ZM290.638 749.708V750.956C290.638 752.78 289.738 754.856 287.902 755.72L288.802 756.98C290.842 756.02 291.898 753.464 291.898 750.956V749.708H290.638ZM290.974 749.708V750.956C290.974 753.32 292.006 755.756 294.046 756.704L294.922 755.444C293.098 754.604 292.234 752.636 292.234 750.956V749.708H290.974ZM288.334 749.024V750.332H294.43V749.024H288.334ZM295.246 747.956V759.068H296.854V747.956H295.246ZM296.494 752.192V753.512H298.462V752.192H296.494Z" fill="#1A1A1A"/>
<rect y="817" width="100" height="125" rx="16" fill="#F0F0F0"/>
<path d="M21.5 854.168C23.672 854.168 24.932 852.956 24.932 850.004V845.12H23.228V850.16C23.228 852.008 22.556 852.632 21.5 852.632C20.456 852.632 19.82 852.008 19.82 850.16V845.12H18.044V850.004C18.044 852.956 19.34 854.168 21.5 854.168ZM26.0039 854H27.8879L28.8359 852.032C29.0519 851.576 29.2559 851.108 29.4839 850.568H29.5319C29.7959 851.108 29.9999 851.576 30.2279 852.032L31.2239 854H33.1919L30.6959 849.5L33.0359 845.12H31.1639L30.3239 846.944C30.1319 847.364 29.9519 847.796 29.7359 848.348H29.6759C29.4119 847.796 29.2199 847.364 29.0159 846.944L28.1279 845.12H26.1599L28.4999 849.416L26.0039 854ZM33.5274 856.184H34.7034L37.6794 844.34H36.5034L33.5274 856.184ZM39.1037 854H41.6357C44.2517 854 45.9317 852.512 45.9317 849.524C45.9317 846.524 44.2517 845.12 41.5397 845.12H39.1037V854ZM40.8797 852.572V846.536H41.4317C43.0877 846.536 44.1197 847.352 44.1197 849.524C44.1197 851.684 43.0877 852.572 41.4317 852.572H40.8797ZM47.6701 854H53.2501V852.512H49.4461V850.136H52.5661V848.648H49.4461V846.596H53.1181V845.12H47.6701V854ZM57.7049 854.168C59.7569 854.168 60.9689 852.932 60.9689 851.48C60.9689 850.196 60.2609 849.512 59.1809 849.068L58.0169 848.576C57.2609 848.276 56.6249 848.048 56.6249 847.412C56.6249 846.824 57.1289 846.476 57.9089 846.476C58.6409 846.476 59.2289 846.74 59.7929 847.208L60.6929 846.092C59.9729 845.36 58.9409 844.952 57.9089 844.952C56.1089 844.952 54.8369 846.068 54.8369 847.52C54.8369 848.816 55.7369 849.536 56.6369 849.908L57.8249 850.412C58.6169 850.748 59.1569 850.952 59.1569 851.612C59.1569 852.236 58.6649 852.632 57.7409 852.632C56.9609 852.632 56.1209 852.236 55.4849 851.648L54.4649 852.872C55.3289 853.7 56.5169 854.168 57.7049 854.168ZM62.5412 854H64.3172V845.12H62.5412V854ZM70.3182 854.168C71.5542 854.168 72.5982 853.688 73.1982 853.1V849.092H70.0422V850.544H71.6142V852.296C71.3622 852.512 70.9302 852.632 70.4982 852.632C68.7582 852.632 67.8702 851.468 67.8702 849.536C67.8702 847.628 68.9022 846.476 70.3782 846.476C71.1822 846.476 71.6862 846.8 72.1182 847.22L73.0662 846.092C72.4902 845.504 71.6022 844.952 70.3182 844.952C67.9542 844.952 66.0582 846.668 66.0582 849.596C66.0582 852.56 67.8942 854.168 70.3182 854.168ZM75.1037 854H76.7837V850.436C76.7837 849.416 76.6517 848.3 76.5677 847.34H76.6277L77.5277 849.248L80.0957 854H81.8957V845.12H80.2157V848.66C80.2157 849.668 80.3477 850.844 80.4437 851.768H80.3837L79.4957 849.848L76.9157 845.12H75.1037V854Z" fill="#808080"/>
<path d="M40.0889 867.12V868.38H43.7729C43.5449 870.828 42.3209 872.556 39.5009 873.912L40.3289 875.16C44.2529 873.264 45.3929 870.504 45.3929 867.12H40.0889ZM47.0849 865.968V877.02H48.6809V865.968H47.0849ZM57.368 866.796H54.932V865.896H53.348V866.796H50.888V867.924H57.368V866.796ZM52.904 869.844C52.904 869.436 53.384 869.232 54.14 869.232C54.884 869.232 55.352 869.436 55.352 869.844C55.352 870.24 54.884 870.468 54.14 870.468C53.384 870.468 52.904 870.24 52.904 869.844ZM57.476 871.764C56.66 871.86 55.796 871.932 54.932 871.98V871.452C56.108 871.272 56.864 870.684 56.864 869.844C56.864 868.836 55.76 868.2 54.14 868.2C52.496 868.2 51.392 868.836 51.392 869.844C51.392 870.684 52.148 871.272 53.348 871.452V872.04C52.352 872.064 51.416 872.064 50.576 872.064L50.78 873.252C52.712 873.252 55.244 873.216 57.584 872.82L57.476 871.764ZM52.088 875.124H58.124V877.044H59.72V873.9H52.088V875.124ZM58.124 865.992V873.468H59.72V865.992H58.124ZM36.2014 886.248H39.9574V884.964H34.6174V892.428H35.5894C37.9414 892.428 39.3454 892.38 40.8454 892.092L40.7014 890.784C39.3694 891.036 38.1334 891.096 36.2014 891.108V886.248ZM41.5294 883.98V895.068H43.1134V883.98H41.5294ZM49.0525 886.344H51.2485V885.036H45.1765V886.344H47.4685V886.956C47.4685 888.78 46.5685 890.856 44.7565 891.696L45.6445 892.956C46.9045 892.356 47.7925 891.144 48.2845 889.704C48.7765 891.012 49.6405 892.116 50.8645 892.68L51.7405 891.432C49.9285 890.592 49.0525 888.636 49.0525 886.956V886.344ZM55.2565 888.192H53.6485V883.98H52.0645V895.032H53.6485V889.5H55.2565V888.192ZM65.2155 883.992H63.6195V891.924H65.2155V883.992ZM57.7395 887.496C57.7395 886.584 58.3875 886.056 59.2035 886.056C60.0315 886.056 60.6555 886.584 60.6555 887.496C60.6555 888.384 60.0315 888.924 59.2035 888.924C58.3875 888.924 57.7395 888.384 57.7395 887.496ZM62.2035 887.496C62.2035 885.864 60.8955 884.688 59.2035 884.688C57.5115 884.688 56.1915 885.864 56.1915 887.496C56.1915 889.104 57.5115 890.292 59.2035 890.292C60.8955 890.292 62.2035 889.104 62.2035 887.496ZM59.4435 893.58V891.144H57.8595V894.84H65.4915V893.58H59.4435Z" fill="#1A1A1A"/>
<rect x="110" y="817" width="100" height="125" rx="16" fill="#F0F0F0"/>
<path d="M120.576 854H126.156V852.512H122.352V850.148H125.46V848.648H122.352V846.596H126.024V845.12H120.576V854ZM127.959 854H129.639V850.448C129.639 849.416 129.495 848.3 129.411 847.352H129.471L130.371 849.248L132.939 854H134.751V845.12H133.059V848.66C133.059 849.668 133.203 850.856 133.299 851.78H133.239L132.339 849.86L129.759 845.12H127.959V854ZM140.763 854.168C141.987 854.168 143.043 853.7 143.643 853.1V849.104H140.475V850.556H142.059V852.308C141.807 852.512 141.375 852.632 140.943 852.632C139.203 852.632 138.315 851.48 138.315 849.536C138.315 847.64 139.335 846.488 140.823 846.488C141.615 846.488 142.119 846.812 142.563 847.232L143.499 846.092C142.923 845.516 142.035 844.964 140.763 844.964C138.399 844.964 136.503 846.668 136.503 849.596C136.503 852.56 138.351 854.168 140.763 854.168ZM145.549 854H147.325V845.12H145.549V854ZM149.51 854H151.19V850.448C151.19 849.416 151.046 848.3 150.962 847.352H151.022L151.922 849.248L154.49 854H156.302V845.12H154.61V848.66C154.61 849.668 154.754 850.856 154.85 851.78H154.79L153.89 849.86L151.31 845.12H149.51V854ZM158.498 854H164.078V852.512H160.274V850.148H163.382V848.648H160.274V846.596H163.946V845.12H158.498V854ZM165.881 854H171.461V852.512H167.657V850.148H170.765V848.648H167.657V846.596H171.329V845.12H165.881V854ZM173.264 854H175.04V850.652H176.348C178.208 850.652 179.684 849.788 179.684 847.808C179.684 845.768 178.208 845.12 176.348 845.12H173.264V854ZM175.04 849.248V846.536H176.18C177.332 846.536 177.956 846.86 177.956 847.808C177.956 848.756 177.332 849.248 176.18 849.248H175.04ZM178.088 854H180.068L177.26 849.08L176.024 850.196L178.088 854ZM180.508 856.184H181.684L184.672 844.328H183.508L180.508 856.184ZM189.413 854.168C191.765 854.168 193.373 852.416 193.373 849.524C193.373 846.644 191.765 844.964 189.413 844.964C187.049 844.964 185.441 846.632 185.441 849.524C185.441 852.416 187.049 854.168 189.413 854.168ZM189.413 852.716C188.081 852.716 187.253 851.528 187.253 849.524C187.253 847.628 188.081 846.488 189.413 846.488C190.733 846.488 191.573 847.628 191.573 849.524C191.573 851.528 190.733 852.716 189.413 852.716ZM192.281 856.412C192.929 856.412 193.457 856.304 193.781 856.148L193.457 854.84C193.193 854.936 192.869 854.996 192.473 854.996C191.585 854.996 190.673 854.636 190.337 853.772L188.537 853.952C189.101 855.368 190.397 856.412 192.281 856.412ZM193.78 854H195.58L196.852 849.38C197.116 848.456 197.368 847.436 197.608 846.476H197.656C197.908 847.424 198.16 848.456 198.424 849.38L199.696 854H201.556L198.712 845.12H196.624L193.78 854ZM195.544 851.72H199.768V850.352H195.544V851.72Z" fill="#808080"/>
<path d="M138.279 866.34V867.588H145.323V866.34H138.279ZM144.363 866.34V867.324C144.363 868.284 144.363 869.22 144.075 870.504L145.647 870.648C145.935 869.34 145.935 868.296 145.935 867.324V866.34H144.363ZM144.843 868.212L137.967 868.356L138.146 869.568L144.843 869.304V868.212ZM137.067 870.24V871.488H147.075V870.24H137.067ZM138.146 872.136V873.336H144.411V873.948H138.159V876.276H139.743V875.076H145.995V872.136H138.146ZM138.159 875.736V876.948H146.367V875.736H138.159ZM155.21 865.944V877.092H156.794V865.944H155.21ZM156.434 870.144V871.464H158.402V870.144H156.434ZM148.538 873.204V874.512H149.474C151.406 874.512 152.93 874.44 154.61 874.14L154.454 872.856C152.822 873.144 151.358 873.204 149.474 873.204H148.538ZM148.526 866.892V868.164H152.054V869.928H148.538V873.696H150.122V871.2H153.638V866.892H148.526ZM159.121 872.172V873.456H169.189V872.172H159.121ZM163.321 873V877.08H164.905V873H163.321ZM164.125 866.328C161.761 866.328 160.117 867.312 160.117 868.836C160.117 870.348 161.761 871.32 164.125 871.32C166.501 871.32 168.145 870.348 168.145 868.836C168.145 867.312 166.501 866.328 164.125 866.328ZM164.125 867.6C165.589 867.6 166.501 868.032 166.501 868.836C166.501 869.628 165.589 870.06 164.125 870.06C162.673 870.06 161.749 869.628 161.749 868.836C161.749 868.032 162.673 867.6 164.125 867.6ZM171.336 871.08V872.352H179.148V871.08H171.336ZM170.172 874.428V875.736H180.228V874.428H170.172ZM171.336 866.868V871.608H172.92V868.164H179.064V866.868H171.336ZM142.866 886.968V888.252H144.558V886.968H142.866ZM140.982 884.76C139.506 884.76 138.438 885.912 138.438 887.568C138.438 889.212 139.506 890.376 140.982 890.376C142.446 890.376 143.526 889.212 143.526 887.568C143.526 885.912 142.446 884.76 140.982 884.76ZM140.982 886.128C141.618 886.128 142.098 886.656 142.098 887.568C142.098 888.48 141.618 889.008 140.982 889.008C140.334 889.008 139.866 888.48 139.866 887.568C139.866 886.656 140.334 886.128 140.982 886.128ZM146.358 883.956V892.224H147.87V883.956H146.358ZM144.162 884.136V891.888H145.65V884.136H144.162ZM140.394 893.604V894.876H148.158V893.604H140.394ZM140.394 891.168V894.276H141.99V891.168H140.394ZM152.117 885.708V886.956C152.117 888.84 151.217 890.892 149.357 891.72L150.257 892.98C152.345 892.032 153.389 889.524 153.389 886.956V885.708H152.117ZM152.477 885.708V886.956C152.477 889.428 153.509 891.792 155.621 892.704L156.485 891.444C154.625 890.676 153.737 888.756 153.737 886.956V885.708H152.477ZM149.801 885.024V886.332H156.029V885.024H149.801ZM157.061 883.956V895.068H158.669V883.956H157.061ZM168.172 883.956V895.068H169.768V883.956H168.172ZM161.068 885.012V891.912H162.652V885.012H161.068ZM161.068 890.976V892.332H162.052C163.744 892.332 165.58 892.212 167.488 891.816L167.308 890.496C165.472 890.856 163.672 890.976 162.052 890.976H161.068ZM174.567 884.724C172.899 884.724 171.699 886.26 171.699 888.684C171.699 891.132 172.899 892.668 174.567 892.668C176.223 892.668 177.435 891.132 177.435 888.684C177.435 886.26 176.223 884.724 174.567 884.724ZM174.567 886.176C175.383 886.176 175.911 887.052 175.911 888.684C175.911 890.34 175.383 891.228 174.567 891.228C173.763 891.228 173.223 890.34 173.223 888.684C173.223 887.052 173.763 886.176 174.567 886.176ZM179.259 883.944V895.092H180.843V883.944H179.259ZM176.967 887.952V889.236H179.931V887.952H176.967ZM137.475 904.824V906.108H140.067V904.824H137.475ZM139.227 901.968V910.068H140.823V901.968H139.227ZM133.491 911.604V912.876H141.075V911.604H133.491ZM133.491 909.384V912.36H135.087V909.384H133.491ZM134.091 903.42V904.116C134.091 905.52 133.299 906.972 131.463 907.572L132.267 908.844C134.403 908.136 135.387 906.204 135.387 904.116V903.42H134.091ZM134.427 903.42V904.116C134.427 906.096 135.375 907.944 137.439 908.628L138.219 907.38C136.467 906.792 135.711 905.412 135.711 904.116V903.42H134.427ZM131.895 902.712V903.972H137.871V902.712H131.895ZM142.562 907.44V908.712H152.618V907.44H142.562ZM146.918 908.244V910.584H148.526V908.244H146.918ZM143.798 902.424V906.552H151.346V902.424H143.798ZM149.774 903.672V905.304H145.358V903.672H149.774ZM143.726 911.604V912.876H151.514V911.604H143.726ZM143.726 909.648V912.024H145.31V909.648H143.726ZM160.844 906V907.284H162.812V906H160.844ZM156.644 909.348V910.632H157.4C158.996 910.632 160.064 910.608 161.312 910.392L161.18 909.12C159.968 909.324 158.96 909.348 157.4 909.348H156.644ZM156.644 903.18V909.816H158.156V904.44H160.772V903.18H156.644ZM157.724 906.168V907.392H160.352V906.168H157.724ZM164.348 901.956V913.068H165.872V901.956H164.348ZM162.056 902.148V912.576H163.544V902.148H162.056ZM171.487 902.592V903.396C171.487 904.992 170.107 906.756 167.599 907.188L168.283 908.508C171.163 907.944 172.879 905.808 172.879 903.396V902.592H171.487ZM171.811 902.592V903.396C171.811 905.844 173.515 907.944 176.395 908.508L177.079 907.188C174.559 906.756 173.191 905.028 173.191 903.396V902.592H171.811ZM167.371 910.416V911.712H177.427V910.416H167.371ZM186.138 901.944V913.092H187.722V901.944H186.138ZM184.23 905.856V907.152H186.318V905.856H184.23ZM178.902 909.288V910.584H179.79C181.662 910.584 183.102 910.536 184.71 910.284L184.566 909.012C182.994 909.264 181.626 909.288 179.79 909.288H178.902ZM178.902 902.88V909.696H180.486V904.176H184.05V902.88H178.902ZM180.126 905.976V907.224H183.666V905.976H180.126Z" fill="#1A1A1A"/>
<rect x="220" y="817" width="100" height="125" rx="16" fill="#F0F0F0"/>
<path d="M259.641 854H261.417V850.16H264.777V854H266.541V845.12H264.777V848.624H261.417V845.12H259.641V854ZM268.723 854H270.499V850.652H271.807C273.667 850.652 275.143 849.788 275.143 847.808C275.143 845.768 273.667 845.12 271.807 845.12H268.723V854ZM270.499 849.248V846.536H271.639C272.791 846.536 273.415 846.86 273.415 847.808C273.415 848.756 272.791 849.248 271.639 849.248H270.499ZM273.547 854H275.527L272.719 849.08L271.483 850.196L273.547 854ZM275.967 856.184H277.143L280.131 844.328H278.967L275.967 856.184ZM235.213 872H236.797V868.292C236.797 867.452 236.665 866.216 236.569 865.376H236.617L237.337 867.464L238.705 871.208H239.725L241.093 867.464L241.825 865.376H241.885C241.789 866.216 241.645 867.452 241.645 868.292V872H243.265V863.12H241.297L239.821 867.284C239.641 867.836 239.485 868.412 239.281 868.988H239.233C239.041 868.412 238.885 867.836 238.681 867.284L237.169 863.12H235.213V872ZM244.304 872H246.104L247.376 867.38C247.64 866.456 247.892 865.436 248.132 864.476H248.18C248.432 865.424 248.684 866.456 248.948 867.38L250.22 872H252.08L249.236 863.12H247.148L244.304 872ZM246.068 869.72H250.292V868.352H246.068V869.72ZM253.131 872H254.907V868.652H256.215C258.075 868.652 259.551 867.788 259.551 865.808C259.551 863.768 258.075 863.12 256.215 863.12H253.131V872ZM254.907 867.248V864.536H256.047C257.199 864.536 257.823 864.86 257.823 865.808C257.823 866.756 257.199 867.248 256.047 867.248H254.907ZM257.955 872H259.935L257.127 867.08L255.891 868.196L257.955 872ZM261.311 872H263.087V869.504L264.251 868.016L266.555 872H268.487L265.295 866.612L268.019 863.12H266.063L263.111 866.972H263.087V863.12H261.311V872ZM269.537 872H275.117V870.512H271.313V868.148H274.421V866.648H271.313V864.596H274.985V863.12H269.537V872ZM278.684 872H280.46V864.596H282.968V863.12H276.176V864.596H278.684V872ZM284.42 872H286.196V863.12H284.42V872ZM288.381 872H290.061V868.448C290.061 867.416 289.917 866.3 289.833 865.352H289.893L290.793 867.248L293.361 872H295.173V863.12H293.481V866.66C293.481 867.668 293.625 868.856 293.721 869.78H293.661L292.761 867.86L290.181 863.12H288.381V872ZM301.185 872.168C302.409 872.168 303.465 871.7 304.065 871.1V867.104H300.897V868.556H302.481V870.308C302.229 870.512 301.797 870.632 301.365 870.632C299.625 870.632 298.737 869.48 298.737 867.536C298.737 865.64 299.757 864.488 301.245 864.488C302.037 864.488 302.541 864.812 302.985 865.232L303.921 864.092C303.345 863.516 302.457 862.964 301.185 862.964C298.821 862.964 296.925 864.668 296.925 867.596C296.925 870.56 298.773 872.168 301.185 872.168Z" fill="#808080"/>
<path d="M261.461 894H263.237V890.16H266.597V894H268.361V885.12H266.597V888.624H263.237V885.12H261.461V894ZM270.543 894H272.319V890.652H273.627C275.487 890.652 276.963 889.788 276.963 887.808C276.963 885.768 275.487 885.12 273.627 885.12H270.543V894ZM272.319 889.248V886.536H273.459C274.611 886.536 275.235 886.86 275.235 887.808C275.235 888.756 274.611 889.248 273.459 889.248H272.319ZM275.367 894H277.347L274.539 889.08L273.303 890.196L275.367 894ZM253.257 903V910.368H258.573V903H253.257ZM257.001 904.248V909.108H254.829V904.248H257.001ZM260.025 901.956V913.068H261.633V901.956H260.025ZM261.273 906.144V907.464H263.241V906.144H261.273ZM267.356 903.204V903.48C267.356 906.24 266.636 908.196 263.912 909.78L264.8 910.884C268.088 908.964 268.856 906.372 268.856 903.204H267.356ZM264.536 903.204V904.476H267.848V903.204H264.536ZM267.38 905.736L263.972 905.916L264.164 907.26L267.38 906.924V905.736ZM267.944 906.156V907.416H270.224V906.156H267.944ZM272.012 901.956V913.068H273.536V901.956H272.012ZM269.684 902.196V912.576H271.172V902.196H269.684ZM282.74 901.944V913.092H284.324V901.944H282.74ZM280.832 905.856V907.152H282.92V905.856H280.832ZM275.504 909.288V910.584H276.392C278.264 910.584 279.704 910.536 281.312 910.284L281.168 909.012C279.596 909.264 278.228 909.288 276.392 909.288H275.504ZM275.504 902.88V909.696H277.088V904.176H280.652V902.88H275.504ZM276.728 905.976V907.224H280.268V905.976H276.728Z" fill="black"/>
</svg>
