<svg width="1038" height="638" viewBox="0 0 1038 638" fill="none" xmlns="http://www.w3.org/2000/svg">
<rect y="538" width="104" height="100" rx="16" fill="#F0F0F0"/>
<path d="M42.3791 572H44.1551V568.844H45.3431C47.2511 568.844 48.7751 567.932 48.7751 565.904C48.7751 563.804 47.2631 563.108 45.2951 563.108H42.3791V572ZM44.1551 567.44V564.524H45.1631C46.3871 564.524 47.0351 564.872 47.0351 565.904C47.0351 566.924 46.4471 567.44 45.2231 567.44H44.1551ZM49.5124 572.168C50.1484 572.168 50.6164 571.664 50.6164 571.016C50.6164 570.356 50.1484 569.864 49.5124 569.864C48.8884 569.864 48.4204 570.356 48.4204 571.016C48.4204 571.664 48.8884 572.168 49.5124 572.168ZM52.5627 572H54.1587V568.292C54.1587 567.452 54.0147 566.216 53.9307 565.376H53.9787L54.6867 567.464L56.0667 571.196H57.0867L58.4547 567.464L59.1747 565.376H59.2347C59.1387 566.216 59.0067 567.452 59.0067 568.292V572H60.6267V563.108H58.6587L57.1827 567.272C56.9907 567.824 56.8347 568.412 56.6427 568.976H56.5827C56.4027 568.412 56.2347 567.824 56.0427 567.272L54.5307 563.108H52.5627V572Z" fill="#808080"/>
<path d="M11.4959 594.476V595.784H21.5519V594.476H11.4959ZM12.2639 586.916V588.188H20.7239V586.916H12.2639ZM12.3119 591.512V592.796H20.6879V591.512H12.3119ZM13.7759 588.092V591.632H15.3719V588.092H13.7759ZM17.6279 588.092V591.632H19.2119V588.092H17.6279ZM22.535 594.548V595.844H32.591V594.548H22.535ZM26.747 592.448V595.076H28.343V592.448H26.747ZM23.663 586.676V587.936H29.879V589.124H23.687V592.244H25.271V590.372H31.463V586.676H23.663ZM23.687 591.608V592.892H31.715V591.608H23.687ZM38.158 588.704V589.988H39.898V588.704H38.158ZM39.346 586.172V592.676H40.834V586.172H39.346ZM35.518 587.624V588.332C35.518 589.568 34.906 590.828 33.418 591.416L34.222 592.652C36.022 591.932 36.754 590.192 36.754 588.332V587.624H35.518ZM35.818 587.624V588.332C35.818 590.12 36.502 591.776 38.242 592.448L39.022 591.224C37.63 590.672 37.054 589.52 37.054 588.332V587.624H35.818ZM33.766 586.748V588.02H38.674V586.748H33.766ZM41.518 585.956V592.724H43.03V585.956H41.518ZM35.398 593.132V594.404H41.446V597.068H43.03V593.132H35.398ZM45.7891 591.68V592.928H53.6011V591.68H45.7891ZM44.6131 594.5V595.796H54.6691V594.5H44.6131ZM45.7891 586.76V592.028H47.4091V588.044H53.5051V586.76H45.7891ZM46.9171 589.208V590.444H53.2531V589.208H46.9171ZM66.3869 585.956V597.068H67.9109V585.956H66.3869ZM65.0549 590.192V591.476H66.8909V590.192H65.0549ZM63.9509 586.124V596.564H65.4509V586.124H63.9509ZM58.6709 587.096V594.296H63.0629V587.096H58.6709ZM61.5749 588.344V593.048H60.1589V588.344H61.5749ZM77.09 585.956V597.068H78.686V585.956H77.09ZM69.986 587.012V593.912H71.57V587.012H69.986ZM69.986 592.976V594.332H70.97C72.662 594.332 74.498 594.212 76.406 593.816L76.226 592.496C74.39 592.856 72.59 592.976 70.97 592.976H69.986ZM88.165 585.944V597.092H89.761V585.944H88.165ZM86.221 589.832V591.116H88.537V589.832H86.221ZM83.005 587.708V588.692C83.005 590.756 82.129 592.88 80.269 593.756L81.205 595.016C83.281 593.996 84.265 591.404 84.265 588.692V587.708H83.005ZM83.377 587.708V588.692C83.377 591.32 84.337 593.804 86.425 594.788L87.349 593.54C85.489 592.7 84.625 590.648 84.625 588.692V587.708H83.377ZM80.725 587.024V588.308H86.905V587.024H80.725Z" fill="#1A1A1A"/>
<rect x="117" y="538" width="104" height="100" rx="16" fill="#F0F0F0"/>
<path d="M135.393 572H137.169V568.4H140.325V566.912H137.169V564.596H140.865V563.108H135.393V572ZM142.412 572H144.188V568.64H145.424L147.248 572H149.228L147.152 568.364C148.172 567.968 148.844 567.14 148.844 565.808C148.844 563.768 147.368 563.108 145.508 563.108H142.412V572ZM144.188 567.236V564.524H145.34C146.48 564.524 147.116 564.848 147.116 565.808C147.116 566.756 146.48 567.236 145.34 567.236H144.188ZM154.12 572.168C156.472 572.168 158.092 570.404 158.092 567.524C158.092 564.644 156.472 562.952 154.12 562.952C151.768 562.952 150.148 564.632 150.148 567.524C150.148 570.404 151.768 572.168 154.12 572.168ZM154.12 570.632C152.8 570.632 151.96 569.42 151.96 567.524C151.96 565.616 152.8 564.476 154.12 564.476C155.44 564.476 156.28 565.616 156.28 567.524C156.28 569.42 155.44 570.632 154.12 570.632ZM159.826 572H161.506V568.436C161.506 567.416 161.374 566.3 161.29 565.34H161.35L162.25 567.248L164.818 572H166.618V563.108H164.938V566.66C164.938 567.668 165.082 568.844 165.166 569.768H165.106L164.218 567.848L161.638 563.108H159.826V572ZM170.579 572H172.355V564.596H174.875V563.108H168.083V564.596H170.579V572ZM174.908 569.192H178.184V567.932H174.908V569.192ZM179.854 572H185.434V570.512H181.63V568.136H184.75V566.648H181.63V564.596H185.302V563.108H179.854V572ZM187.237 572H188.917V568.436C188.917 567.416 188.785 566.3 188.701 565.34H188.761L189.661 567.248L192.229 572H194.029V563.108H192.349V566.66C192.349 567.668 192.493 568.844 192.577 569.768H192.517L191.629 567.848L189.049 563.108H187.237V572ZM196.225 572H198.757C201.373 572 203.053 570.512 203.053 567.524C203.053 564.524 201.373 563.108 198.661 563.108H196.225V572ZM198.001 570.572V564.536H198.553C200.209 564.536 201.241 565.352 201.241 567.524C201.241 569.684 200.209 570.572 198.553 570.572H198.001Z" fill="#808080"/>
<path d="M135.515 594.476V595.784H145.571V594.476H135.515ZM136.283 586.916V588.188H144.743V586.916H136.283ZM136.331 591.512V592.796H144.707V591.512H136.331ZM137.795 588.092V591.632H139.391V588.092H137.795ZM141.647 588.092V591.632H143.231V588.092H141.647ZM146.543 592.1V593.372H156.611V592.1H146.543ZM147.803 595.868V597.14H155.639V595.868H147.803ZM147.803 593.924V596.252H149.399V593.924H147.803ZM150.779 590.564V592.664H152.375V590.564H150.779ZM147.779 586.196V587.408H153.815V588.152H147.791V590.432H149.375V589.28H155.387V586.196H147.779ZM147.791 590.06V591.26H155.603V590.06H147.791ZM158.77 591.68V592.928H166.582V591.68H158.77ZM157.594 594.5V595.796H167.65V594.5H157.594ZM158.77 586.76V592.028H160.39V588.044H166.486V586.76H158.77ZM159.898 589.208V590.444H166.234V589.208H159.898ZM179.331 585.956V597.068H180.855V585.956H179.331ZM177.927 590.144V591.416H179.763V590.144H177.927ZM174.615 587.312V587.648C174.615 590.312 173.727 592.184 171.195 593.684L172.119 594.788C175.227 592.976 176.139 590.444 176.139 587.312H174.615ZM171.759 587.312V588.596H175.083V587.312H171.759ZM176.871 586.244V596.588H178.359V586.244H176.871ZM182.702 586.448V591.308H188.042V586.448H186.458V587.756H184.286V586.448H182.702ZM184.286 588.956H186.458V590.06H184.286V588.956ZM189.53 585.956V591.596H191.126V585.956H189.53ZM190.478 588.092V589.388H192.59V588.092H190.478ZM183.782 592.028V593.252H189.554V593.912H183.806V596.372H185.39V595.052H191.126V592.028H183.782ZM183.806 595.76V596.996H191.45V595.76H183.806ZM195.914 587.708V588.956C195.914 590.78 195.014 592.856 193.178 593.72L194.078 594.98C196.118 594.02 197.174 591.464 197.174 588.956V587.708H195.914ZM196.25 587.708V588.956C196.25 591.32 197.282 593.756 199.322 594.704L200.198 593.444C198.374 592.604 197.51 590.636 197.51 588.956V587.708H196.25ZM193.61 587.024V588.332H199.706V587.024H193.61ZM200.522 585.956V597.068H202.13V585.956H200.522ZM201.77 590.192V591.512H203.738V590.192H201.77Z" fill="#1A1A1A"/>
<rect x="234" y="538" width="104" height="100" rx="16" fill="#F0F0F0"/>
<path d="M257.299 572H260.467C262.423 572 263.911 571.172 263.911 569.384C263.911 568.184 263.203 567.512 262.243 567.284V567.224C262.999 566.96 263.455 566.12 263.455 565.304C263.455 563.648 262.063 563.108 260.239 563.108H257.299V572ZM259.075 566.732V564.476H260.131C261.199 564.476 261.727 564.788 261.727 565.568C261.727 566.276 261.235 566.732 260.107 566.732H259.075ZM259.075 570.632V568.04H260.311C261.535 568.04 262.183 568.412 262.183 569.276C262.183 570.2 261.523 570.632 260.311 570.632H259.075ZM267.399 567.368C267.663 566.444 267.927 565.436 268.155 564.464H268.215C268.467 565.424 268.707 566.444 268.983 567.368L269.247 568.34H267.135L267.399 567.368ZM264.327 572H266.127L266.751 569.72H269.631L270.255 572H272.115L269.259 563.108H267.171L264.327 572ZM276.638 572.168C277.79 572.168 278.738 571.712 279.47 570.86L278.534 569.756C278.054 570.272 277.466 570.632 276.698 570.632C275.294 570.632 274.382 569.468 274.382 567.536C274.382 565.628 275.39 564.476 276.734 564.476C277.406 564.476 277.922 564.788 278.378 565.22L279.302 564.092C278.726 563.492 277.826 562.952 276.698 562.952C274.454 562.952 272.57 564.668 272.57 567.596C272.57 570.56 274.394 572.168 276.638 572.168ZM280.901 572H282.677V569.504L283.841 568.004L286.145 572H288.089L284.897 566.612L287.609 563.108H285.653L282.713 566.972H282.677V563.108H280.901V572ZM288.002 569.192H291.278V567.932H288.002V569.192ZM292.947 572H298.527V570.512H294.723V568.136H297.843V566.648H294.723V564.596H298.395V563.108H292.947V572ZM300.33 572H302.01V568.436C302.01 567.416 301.878 566.3 301.794 565.34H301.854L302.754 567.248L305.322 572H307.122V563.108H305.442V566.66C305.442 567.668 305.586 568.844 305.67 569.768H305.61L304.722 567.848L302.142 563.108H300.33V572ZM309.319 572H311.851C314.467 572 316.147 570.512 316.147 567.524C316.147 564.524 314.467 563.108 311.755 563.108H309.319V572ZM311.095 570.572V564.536H311.647C313.303 564.536 314.335 565.352 314.335 567.524C314.335 569.684 313.303 570.572 311.647 570.572H311.095Z" fill="#808080"/>
<path d="M252.887 586.664V592.04H257.291V586.664H255.803V588.224H254.387V586.664H252.887ZM254.387 589.448H255.803V590.792H254.387V589.448ZM260.459 585.968V592.652H261.971V585.968H260.459ZM259.127 588.668V589.964H260.891V588.668H259.127ZM258.107 586.16V592.604H259.595V586.16H258.107ZM254.339 593.156V594.428H260.387V597.068H261.971V593.156H254.339ZM268.007 588.968V590.252H269.699V588.968H268.007ZM266.123 586.76C264.646 586.76 263.579 587.912 263.579 589.568C263.579 591.212 264.646 592.376 266.123 592.376C267.587 592.376 268.667 591.212 268.667 589.568C268.667 587.912 267.587 586.76 266.123 586.76ZM266.123 588.128C266.759 588.128 267.239 588.656 267.239 589.568C267.239 590.48 266.759 591.008 266.123 591.008C265.475 591.008 265.007 590.48 265.007 589.568C265.007 588.656 265.475 588.128 266.123 588.128ZM271.499 585.956V594.224H273.011V585.956H271.499ZM269.303 586.136V593.888H270.791V586.136H269.303ZM265.535 595.604V596.876H273.299V595.604H265.535ZM265.535 593.168V596.276H267.131V593.168H265.535ZM275.758 591.08V592.352H283.57V591.08H275.758ZM274.594 594.428V595.736H284.65V594.428H274.594ZM275.758 586.868V591.608H277.342V588.164H283.486V586.868H275.758ZM296.331 585.956V597.068H297.855V585.956H296.331ZM294.927 590.144V591.416H296.763V590.144H294.927ZM291.615 587.312V587.648C291.615 590.312 290.727 592.184 288.195 593.684L289.119 594.788C292.227 592.976 293.139 590.444 293.139 587.312H291.615ZM288.759 587.312V588.596H292.083V587.312H288.759ZM293.871 586.244V596.588H295.359V586.244H293.871ZM299.702 586.448V591.308H305.042V586.448H303.458V587.756H301.286V586.448H299.702ZM301.286 588.956H303.458V590.06H301.286V588.956ZM306.53 585.956V591.596H308.126V585.956H306.53ZM307.478 588.092V589.388H309.59V588.092H307.478ZM300.782 592.028V593.252H306.554V593.912H300.806V596.372H302.39V595.052H308.126V592.028H300.782ZM300.806 595.76V596.996H308.45V595.76H300.806ZM312.914 587.708V588.956C312.914 590.78 312.014 592.856 310.178 593.72L311.078 594.98C313.118 594.02 314.174 591.464 314.174 588.956V587.708H312.914ZM313.25 587.708V588.956C313.25 591.32 314.282 593.756 316.322 594.704L317.198 593.444C315.374 592.604 314.51 590.636 314.51 588.956V587.708H313.25ZM310.61 587.024V588.332H316.706V587.024H310.61ZM317.522 585.956V597.068H319.13V585.956H317.522ZM318.77 590.192V591.512H320.738V590.192H318.77Z" fill="#1A1A1A"/>
<rect x="351" y="538" width="104" height="100" rx="16" fill="#F0F0F0"/>
<path d="M380.129 572H381.725V568.292C381.725 567.452 381.581 566.216 381.497 565.376H381.545L382.253 567.464L383.633 571.196H384.653L386.021 567.464L386.741 565.376H386.801C386.705 566.216 386.573 567.452 386.573 568.292V572H388.193V563.108H386.225L384.749 567.272C384.557 567.824 384.401 568.412 384.209 568.976H384.149C383.969 568.412 383.801 567.824 383.609 567.272L382.097 563.108H380.129V572ZM393.899 572.168C396.251 572.168 397.871 570.404 397.871 567.524C397.871 564.644 396.251 562.952 393.899 562.952C391.547 562.952 389.927 564.632 389.927 567.524C389.927 570.404 391.547 572.168 393.899 572.168ZM393.899 570.632C392.579 570.632 391.739 569.42 391.739 567.524C391.739 565.616 392.579 564.476 393.899 564.476C395.219 564.476 396.059 565.616 396.059 567.524C396.059 569.42 395.219 570.632 393.899 570.632ZM399.606 572H402.774C404.73 572 406.218 571.172 406.218 569.384C406.218 568.184 405.51 567.512 404.55 567.284V567.224C405.306 566.96 405.762 566.12 405.762 565.304C405.762 563.648 404.37 563.108 402.546 563.108H399.606V572ZM401.382 566.732V564.476H402.438C403.506 564.476 404.034 564.788 404.034 565.568C404.034 566.276 403.542 566.732 402.414 566.732H401.382ZM401.382 570.632V568.04H402.618C403.842 568.04 404.49 568.412 404.49 569.276C404.49 570.2 403.83 570.632 402.618 570.632H401.382ZM407.774 572H409.55V563.108H407.774V572ZM411.735 572H417.123V570.512H413.511V563.108H411.735V572ZM418.672 572H424.252V570.512H420.448V568.136H423.568V566.648H420.448V564.596H424.12V563.108H418.672V572Z" fill="#808080"/>
<path d="M368.515 594.488V595.784H378.571V594.488H368.515ZM372.727 592.028V594.788H374.323V592.028H372.727ZM369.559 586.772V592.232H377.467V586.772H369.559ZM375.907 588.044V590.972H371.131V588.044H375.907ZM386.647 585.956V597.068H388.255V585.956H386.647ZM387.895 590.096V591.416H389.863V590.096H387.895ZM379.879 586.832V594.5H385.279V586.832H383.695V589.532H381.463V586.832H379.879ZM381.463 590.768H383.695V593.216H381.463V590.768ZM393.714 586.28C392.022 586.28 390.75 587.336 390.75 588.824C390.75 590.3 392.022 591.356 393.714 591.356C395.406 591.356 396.678 590.3 396.678 588.824C396.678 587.336 395.406 586.28 393.714 586.28ZM393.714 587.576C394.53 587.576 395.13 588.032 395.13 588.824C395.13 589.616 394.53 590.072 393.714 590.072C392.898 590.072 392.286 589.616 392.286 588.824C392.286 588.032 392.898 587.576 393.714 587.576ZM398.214 585.956V591.512H399.822V585.956H398.214ZM392.406 591.968V593.204H398.238V593.864H392.43V596.36H393.99V595.016H399.822V591.968H392.406ZM392.43 595.712V596.948H400.098V595.712H392.43ZM412.331 585.956V597.068H413.855V585.956H412.331ZM410.927 590.144V591.416H412.763V590.144H410.927ZM407.615 587.312V587.648C407.615 590.312 406.727 592.184 404.195 593.684L405.119 594.788C408.227 592.976 409.139 590.444 409.139 587.312H407.615ZM404.759 587.312V588.596H408.083V587.312H404.759ZM409.871 586.244V596.588H411.359V586.244H409.871ZM415.702 586.448V591.308H421.042V586.448H419.458V587.756H417.286V586.448H415.702ZM417.286 588.956H419.458V590.06H417.286V588.956ZM422.53 585.956V591.596H424.126V585.956H422.53ZM423.478 588.092V589.388H425.59V588.092H423.478ZM416.782 592.028V593.252H422.554V593.912H416.806V596.372H418.39V595.052H424.126V592.028H416.782ZM416.806 595.76V596.996H424.45V595.76H416.806ZM428.914 587.708V588.956C428.914 590.78 428.014 592.856 426.178 593.72L427.078 594.98C429.118 594.02 430.174 591.464 430.174 588.956V587.708H428.914ZM429.25 587.708V588.956C429.25 591.32 430.282 593.756 432.322 594.704L433.198 593.444C431.374 592.604 430.51 590.636 430.51 588.956V587.708H429.25ZM426.61 587.024V588.332H432.706V587.024H426.61ZM433.522 585.956V597.068H435.13V585.956H433.522ZM434.77 590.192V591.512H436.738V590.192H434.77Z" fill="#1A1A1A"/>
<rect x="468" y="538" width="104" height="100" rx="16" fill="#F0F0F0"/>
<path d="M482.473 572H485.641C487.597 572 489.085 571.172 489.085 569.384C489.085 568.184 488.377 567.512 487.417 567.284V567.224C488.173 566.96 488.629 566.12 488.629 565.304C488.629 563.648 487.237 563.12 485.413 563.12H482.473V572ZM484.249 566.732V564.476H485.305C486.373 564.476 486.901 564.788 486.901 565.568C486.901 566.276 486.409 566.732 485.281 566.732H484.249ZM484.249 570.632V568.052H485.485C486.709 568.052 487.357 568.412 487.357 569.276C487.357 570.2 486.697 570.632 485.485 570.632H484.249ZM490.641 572H496.017V570.512H492.417V563.12H490.641V572ZM500.638 572.168C502.99 572.168 504.61 570.404 504.61 567.524C504.61 564.644 502.99 562.952 500.638 562.952C498.286 562.952 496.666 564.632 496.666 567.524C496.666 570.404 498.286 572.168 500.638 572.168ZM500.638 570.632C499.318 570.632 498.478 569.42 498.478 567.524C498.478 565.616 499.318 564.476 500.638 564.476C501.958 564.476 502.798 565.616 502.798 567.524C502.798 569.42 501.958 570.632 500.638 570.632ZM509.968 572.168C511.12 572.168 512.068 571.712 512.8 570.86L511.864 569.756C511.384 570.272 510.784 570.632 510.028 570.632C508.624 570.632 507.712 569.468 507.712 567.536C507.712 565.628 508.72 564.476 510.064 564.476C510.736 564.476 511.252 564.788 511.696 565.22L512.632 564.092C512.056 563.492 511.156 562.952 510.028 562.952C507.784 562.952 505.9 564.668 505.9 567.596C505.9 570.56 507.724 572.168 509.968 572.168ZM514.231 572H516.007V569.504L517.171 568.016L519.463 572H521.419L518.227 566.612L520.939 563.12H518.983L516.043 566.972H516.007V563.12H514.231V572ZM525.73 572.168C526.882 572.168 527.83 571.712 528.562 570.86L527.626 569.756C527.146 570.272 526.546 570.632 525.79 570.632C524.386 570.632 523.474 569.468 523.474 567.536C523.474 565.628 524.482 564.476 525.826 564.476C526.498 564.476 527.014 564.788 527.458 565.22L528.394 564.092C527.818 563.492 526.918 562.952 525.79 562.952C523.546 562.952 521.662 564.668 521.662 567.596C521.662 570.56 523.486 572.168 525.73 572.168ZM529.992 572H531.768V568.16H535.128V572H536.892V563.12H535.128V566.612H531.768V563.12H529.992V572ZM540.742 568.34L541.006 567.368C541.27 566.444 541.534 565.436 541.762 564.464H541.81C542.074 565.424 542.314 566.444 542.59 567.368L542.854 568.34H540.742ZM543.862 572H545.722L542.866 563.12H540.778L537.934 572H539.734L540.358 569.72H543.238L543.862 572ZM546.762 572H548.538V563.12H546.762V572ZM550.723 572H552.403V568.436C552.403 567.416 552.271 566.3 552.187 565.34H552.247L553.147 567.248L555.715 572H557.515V563.12H555.835V566.66C555.835 567.668 555.967 568.844 556.063 569.768H556.003L555.115 567.848L552.535 563.12H550.723V572Z" fill="#808080"/>
<path d="M497.326 586.148V589.868H504.815V586.148H503.231V586.88H498.899V586.148H497.326ZM498.899 588.044H503.231V588.692H498.899V588.044ZM496.043 590.468V591.716H506.087V590.468H496.043ZM497.195 592.352V593.516H503.303V594.08H497.207V596.18H498.779V595.172H504.875V592.352H497.195ZM497.207 595.808V596.996H505.163V595.808H497.207ZM507.082 591.908V593.18H517.15V591.908H507.082ZM508.318 586.172V587.384H514.354V588.056H508.33V590.384H509.914V589.184H515.926V586.172H508.318ZM508.33 589.904V591.116H516.142V589.904H508.33ZM511.318 590.492V592.604H512.914V590.492H511.318ZM508.198 593.804V595.064H514.402V597.032H515.998V593.804H508.198ZM522.645 590.168V591.452H524.409V590.168H522.645ZM520.065 589.04V589.328C520.065 591.032 519.501 592.856 517.917 593.78L518.817 594.98C520.593 593.96 521.265 591.644 521.265 589.328V589.04H520.065ZM520.377 589.04V589.328C520.377 591.608 521.061 593.78 522.861 594.716L523.725 593.54C522.153 592.7 521.577 591.008 521.577 589.328V589.04H520.377ZM518.337 587.816V589.1H523.293V587.816H518.337ZM520.065 586.328V588.86H521.577V586.328H520.065ZM526.149 585.956V597.068H527.661V585.956H526.149ZM523.905 586.136V596.564H525.393V586.136H523.905ZM536.792 585.968V593.948H538.4V585.968H536.792ZM530.996 595.604V596.876H538.676V595.604H530.996ZM530.996 593.144V596.12H532.592V593.144H530.996ZM532.352 586.664C530.648 586.664 529.328 587.84 529.328 589.484C529.328 591.116 530.648 592.304 532.352 592.304C534.056 592.304 535.364 591.116 535.364 589.484C535.364 587.84 534.056 586.664 532.352 586.664ZM532.352 588.044C533.168 588.044 533.804 588.572 533.804 589.484C533.804 590.384 533.168 590.912 532.352 590.912C531.524 590.912 530.888 590.384 530.888 589.484C530.888 588.572 531.524 588.044 532.352 588.044ZM491.663 604.88V606.152H498.659V604.88H491.663ZM490.523 612.512V613.796H500.567V612.512H490.523ZM498.023 604.88V605.852C498.023 607.136 498.023 608.756 497.519 611.012L499.091 611.18C499.607 608.768 499.595 607.196 499.595 605.852V604.88H498.023ZM498.311 607.556L491.315 607.772L491.531 609.128L498.311 608.756V607.556ZM494.087 609.848V612.98H495.683V609.848H494.087ZM504.61 604.724C502.942 604.724 501.742 606.26 501.742 608.684C501.742 611.132 502.942 612.668 504.61 612.668C506.266 612.668 507.478 611.132 507.478 608.684C507.478 606.26 506.266 604.724 504.61 604.724ZM504.61 606.176C505.426 606.176 505.954 607.052 505.954 608.684C505.954 610.34 505.426 611.228 504.61 611.228C503.806 611.228 503.266 610.34 503.266 608.684C503.266 607.052 503.806 606.176 504.61 606.176ZM509.302 603.944V615.092H510.886V603.944H509.302ZM507.01 607.952V609.236H509.974V607.952H507.01ZM523.312 603.956V615.068H524.836V603.956H523.312ZM521.908 608.144V609.416H523.744V608.144H521.908ZM518.596 605.312V605.648C518.596 608.312 517.708 610.184 515.176 611.684L516.1 612.788C519.208 610.976 520.12 608.444 520.12 605.312H518.596ZM515.74 605.312V606.596H519.064V605.312H515.74ZM520.852 604.244V614.588H522.34V604.244H520.852ZM526.683 604.448V609.308H532.023V604.448H530.439V605.756H528.267V604.448H526.683ZM528.267 606.956H530.439V608.06H528.267V606.956ZM533.511 603.956V609.596H535.107V603.956H533.511ZM534.459 606.092V607.388H536.571V606.092H534.459ZM527.763 610.028V611.252H533.535V611.912H527.787V614.372H529.371V613.052H535.107V610.028H527.763ZM527.787 613.76V614.996H535.431V613.76H527.787ZM539.894 605.708V606.956C539.894 608.78 538.994 610.856 537.158 611.72L538.058 612.98C540.098 612.02 541.154 609.464 541.154 606.956V605.708H539.894ZM540.23 605.708V606.956C540.23 609.32 541.262 611.756 543.302 612.704L544.178 611.444C542.354 610.604 541.49 608.636 541.49 606.956V605.708H540.23ZM537.59 605.024V606.332H543.686V605.024H537.59ZM544.502 603.956V615.068H546.11V603.956H544.502ZM545.75 608.192V609.512H547.718V608.192H545.75Z" fill="#1A1A1A"/>
<rect x="585" y="538" width="104" height="100" rx="16" fill="#F0F0F0"/>
<path d="M625.309 572H630.889V570.512H627.085V568.136H630.205V566.648H627.085V564.596H630.757V563.108H625.309V572ZM632.692 572H634.468V568.64H635.704L637.528 572H639.508L637.432 568.364C638.452 567.968 639.124 567.14 639.124 565.808C639.124 563.768 637.648 563.108 635.788 563.108H632.692V572ZM634.468 567.236V564.524H635.62C636.76 564.524 637.396 564.848 637.396 565.808C637.396 566.756 636.76 567.236 635.62 567.236H634.468ZM640.871 572H642.647V568.844H643.835C645.743 568.844 647.267 567.932 647.267 565.904C647.267 563.804 645.755 563.108 643.787 563.108H640.871V572ZM642.647 567.44V564.524H643.655C644.879 564.524 645.527 564.872 645.527 565.904C645.527 566.924 644.939 567.44 643.715 567.44H642.647Z" fill="#808080"/>
<path d="M607.391 596H612.971V594.512H609.167V592.148H612.275V590.648H609.167V588.596H612.839V587.12H607.391V596ZM614.774 596H616.55V592.652H617.858C619.718 592.652 621.194 591.788 621.194 589.808C621.194 587.768 619.718 587.12 617.858 587.12H614.774V596ZM616.55 591.248V588.536H617.69C618.842 588.536 619.466 588.86 619.466 589.808C619.466 590.756 618.842 591.248 617.69 591.248H616.55ZM619.598 596H621.578L618.77 591.08L617.534 592.196L619.598 596ZM622.953 596H624.729V592.844H625.917C627.825 592.844 629.337 591.944 629.337 589.916C629.337 587.804 627.825 587.12 625.869 587.12H622.953V596ZM624.729 591.44V588.536H625.737C626.961 588.536 627.609 588.872 627.609 589.916C627.609 590.924 627.021 591.44 625.797 591.44H624.729ZM641.056 585.956V597.068H642.58V585.956H641.056ZM639.652 590.144V591.416H641.488V590.144H639.652ZM636.34 587.312V587.648C636.34 590.312 635.452 592.184 632.92 593.684L633.844 594.788C636.952 592.976 637.864 590.444 637.864 587.312H636.34ZM633.484 587.312V588.596H636.808V587.312H633.484ZM638.596 586.244V596.588H640.084V586.244H638.596ZM644.427 586.448V591.308H649.767V586.448H648.183V587.756H646.011V586.448H644.427ZM646.011 588.956H648.183V590.06H646.011V588.956ZM651.255 585.956V591.596H652.851V585.956H651.255ZM652.203 588.092V589.388H654.315V588.092H652.203ZM645.507 592.028V593.252H651.279V593.912H645.531V596.372H647.115V595.052H652.851V592.028H645.507ZM645.531 595.76V596.996H653.175V595.76H645.531ZM657.638 587.708V588.956C657.638 590.78 656.738 592.856 654.902 593.72L655.802 594.98C657.842 594.02 658.898 591.464 658.898 588.956V587.708H657.638ZM657.974 587.708V588.956C657.974 591.32 659.006 593.756 661.046 594.704L661.922 593.444C660.098 592.604 659.234 590.636 659.234 588.956V587.708H657.974ZM655.334 587.024V588.332H661.43V587.024H655.334ZM662.246 585.956V597.068H663.854V585.956H662.246ZM663.494 590.192V591.512H665.462V590.192H663.494Z" fill="#1A1A1A"/>
<rect x="702" y="538" width="104" height="100" rx="16" fill="#F0F0F0"/>
<path d="M725.5 572.168C727.672 572.168 728.932 570.956 728.932 568.004V563.108H727.228V568.16C727.228 570.008 726.556 570.632 725.5 570.632C724.468 570.632 723.82 570.008 723.82 568.16V563.108H722.044V568.004C722.044 570.956 723.34 572.168 725.5 572.168ZM730.004 572H731.888L732.836 570.032C733.052 569.576 733.268 569.108 733.484 568.568H733.532C733.796 569.108 734 569.576 734.228 570.032L735.224 572H737.192L734.696 567.5L737.036 563.108H735.164L734.324 564.944C734.132 565.364 733.952 565.796 733.736 566.348H733.676C733.412 565.796 733.232 565.364 733.016 564.944L732.128 563.108H730.16L732.5 567.416L730.004 572ZM737.527 574.184H738.703L741.679 562.328H740.515L737.527 574.184ZM743.104 572H745.636C748.252 572 749.932 570.512 749.932 567.524C749.932 564.524 748.252 563.108 745.54 563.108H743.104V572ZM744.88 570.572V564.536H745.432C747.088 564.536 748.12 565.352 748.12 567.524C748.12 569.684 747.088 570.572 745.432 570.572H744.88ZM751.67 572H757.25V570.512H753.446V568.136H756.566V566.648H753.446V564.596H757.118V563.108H751.67V572ZM761.705 572.168C763.757 572.168 764.969 570.932 764.969 569.48C764.969 568.196 764.261 567.512 763.181 567.068L762.017 566.576C761.261 566.276 760.637 566.048 760.637 565.412C760.637 564.824 761.129 564.476 761.909 564.476C762.641 564.476 763.229 564.74 763.793 565.208L764.693 564.092C763.973 563.36 762.941 562.952 761.909 562.952C760.109 562.952 758.837 564.068 758.837 565.52C758.837 566.816 759.737 567.536 760.637 567.908L761.825 568.412C762.617 568.748 763.157 568.952 763.157 569.612C763.157 570.236 762.665 570.632 761.741 570.632C760.961 570.632 760.121 570.236 759.485 569.648L758.465 570.872C759.329 571.7 760.517 572.168 761.705 572.168ZM766.541 572H768.317V563.108H766.541V572ZM774.318 572.168C775.554 572.168 776.598 571.688 777.198 571.1V567.092H774.042V568.544H775.614V570.296C775.362 570.512 774.93 570.632 774.51 570.632C772.758 570.632 771.87 569.468 771.87 567.536C771.87 565.628 772.902 564.476 774.378 564.476C775.182 564.476 775.686 564.8 776.13 565.22L777.066 564.092C776.49 563.504 775.602 562.952 774.318 562.952C771.954 562.952 770.058 564.668 770.058 567.596C770.058 570.56 771.906 572.168 774.318 572.168ZM779.104 572H780.784V568.436C780.784 567.416 780.652 566.3 780.568 565.34H780.628L781.528 567.248L784.096 572H785.896V563.108H784.216V566.66C784.216 567.668 784.36 568.844 784.444 569.768H784.384L783.496 567.848L780.916 563.108H779.104V572Z" fill="#808080"/>
<path d="M744.089 587.12V588.38H747.773C747.545 590.828 746.321 592.556 743.501 593.912L744.329 595.16C748.253 593.264 749.393 590.504 749.393 587.12H744.089ZM751.085 585.968V597.02H752.681V585.968H751.085ZM761.368 586.796H758.932V585.896H757.348V586.796H754.888V587.924H761.368V586.796ZM756.904 589.844C756.904 589.436 757.384 589.232 758.14 589.232C758.884 589.232 759.352 589.436 759.352 589.844C759.352 590.24 758.884 590.468 758.14 590.468C757.384 590.468 756.904 590.24 756.904 589.844ZM761.476 591.764C760.66 591.86 759.796 591.932 758.932 591.98V591.452C760.108 591.272 760.864 590.684 760.864 589.844C760.864 588.836 759.76 588.2 758.14 588.2C756.496 588.2 755.392 588.836 755.392 589.844C755.392 590.684 756.148 591.272 757.348 591.452V592.04C756.352 592.064 755.416 592.064 754.576 592.064L754.78 593.252C756.712 593.252 759.244 593.216 761.584 592.82L761.476 591.764ZM756.088 595.124H762.124V597.044H763.72V593.9H756.088V595.124ZM762.124 585.992V593.468H763.72V585.992H762.124ZM740.201 606.248H743.957V604.964H738.617V612.428H739.589C741.941 612.428 743.345 612.38 744.845 612.092L744.701 610.784C743.369 611.036 742.133 611.096 740.201 611.108V606.248ZM745.529 603.98V615.068H747.113V603.98H745.529ZM753.052 606.344H755.248V605.036H749.176V606.344H751.468V606.956C751.468 608.78 750.568 610.856 748.756 611.696L749.644 612.956C750.904 612.356 751.792 611.144 752.284 609.704C752.776 611.012 753.64 612.116 754.864 612.68L755.74 611.432C753.928 610.592 753.052 608.636 753.052 606.956V606.344ZM759.256 608.192H757.648V603.98H756.064V615.032H757.648V609.5H759.256V608.192ZM769.216 603.992H767.62V611.924H769.216V603.992ZM761.74 607.496C761.74 606.584 762.388 606.056 763.204 606.056C764.032 606.056 764.656 606.584 764.656 607.496C764.656 608.384 764.032 608.924 763.204 608.924C762.388 608.924 761.74 608.384 761.74 607.496ZM766.204 607.496C766.204 605.864 764.896 604.688 763.204 604.688C761.512 604.688 760.192 605.864 760.192 607.496C760.192 609.104 761.512 610.292 763.204 610.292C764.896 610.292 766.204 609.104 766.204 607.496ZM763.444 613.58V611.144H761.86V614.84H769.492V613.58H763.444Z" fill="#1A1A1A"/>
<rect x="818" y="538" width="104" height="100" rx="16" fill="#F0F0F0"/>
<path d="M830.576 572H836.156V570.512H832.352V568.148H835.46V566.648H832.352V564.596H836.024V563.12H830.576V572ZM837.959 572H839.639V568.448C839.639 567.416 839.495 566.3 839.411 565.352H839.471L840.371 567.248L842.939 572H844.751V563.12H843.059V566.66C843.059 567.668 843.203 568.856 843.299 569.78H843.239L842.339 567.86L839.759 563.12H837.959V572ZM850.763 572.168C851.987 572.168 853.043 571.7 853.643 571.1V567.104H850.475V568.556H852.059V570.308C851.807 570.512 851.375 570.632 850.943 570.632C849.203 570.632 848.315 569.48 848.315 567.536C848.315 565.64 849.335 564.488 850.823 564.488C851.615 564.488 852.119 564.812 852.563 565.232L853.499 564.092C852.923 563.516 852.035 562.964 850.763 562.964C848.399 562.964 846.503 564.668 846.503 567.596C846.503 570.56 848.351 572.168 850.763 572.168ZM855.549 572H857.325V563.12H855.549V572ZM859.51 572H861.19V568.448C861.19 567.416 861.046 566.3 860.962 565.352H861.022L861.922 567.248L864.49 572H866.302V563.12H864.61V566.66C864.61 567.668 864.754 568.856 864.85 569.78H864.79L863.89 567.86L861.31 563.12H859.51V572ZM868.498 572H874.078V570.512H870.274V568.148H873.382V566.648H870.274V564.596H873.946V563.12H868.498V572ZM875.881 572H881.461V570.512H877.657V568.148H880.765V566.648H877.657V564.596H881.329V563.12H875.881V572ZM883.264 572H885.04V568.652H886.348C888.208 568.652 889.684 567.788 889.684 565.808C889.684 563.768 888.208 563.12 886.348 563.12H883.264V572ZM885.04 567.248V564.536H886.18C887.332 564.536 887.956 564.86 887.956 565.808C887.956 566.756 887.332 567.248 886.18 567.248H885.04ZM888.088 572H890.068L887.26 567.08L886.024 568.196L888.088 572ZM890.508 574.184H891.684L894.672 562.328H893.508L890.508 574.184ZM899.413 572.168C901.765 572.168 903.373 570.416 903.373 567.524C903.373 564.644 901.765 562.964 899.413 562.964C897.049 562.964 895.441 564.632 895.441 567.524C895.441 570.416 897.049 572.168 899.413 572.168ZM899.413 570.716C898.081 570.716 897.253 569.528 897.253 567.524C897.253 565.628 898.081 564.488 899.413 564.488C900.733 564.488 901.573 565.628 901.573 567.524C901.573 569.528 900.733 570.716 899.413 570.716ZM902.281 574.412C902.929 574.412 903.457 574.304 903.781 574.148L903.457 572.84C903.193 572.936 902.869 572.996 902.473 572.996C901.585 572.996 900.673 572.636 900.337 571.772L898.537 571.952C899.101 573.368 900.397 574.412 902.281 574.412ZM903.78 572H905.58L906.852 567.38C907.116 566.456 907.368 565.436 907.608 564.476H907.656C907.908 565.424 908.16 566.456 908.424 567.38L909.696 572H911.556L908.712 563.12H906.624L903.78 572ZM905.544 569.72H909.768V568.352H905.544V569.72Z" fill="#808080"/>
<path d="M827.676 595.052H833.904V592.136H826.092V593.324H832.332V593.924H826.116V596.912H834.264V595.712H827.676V595.052ZM833.64 590.228C833.832 589.112 833.832 588.2 833.832 587.348V586.364H826.236V587.588H832.272C832.272 587.792 832.272 588.008 832.26 588.224L825.924 588.368L826.092 589.58L832.188 589.316C832.152 589.616 832.104 589.904 832.056 590.228H825.024V591.476H834.972V590.228H833.64ZM838.055 591.188H841.559V586.916H836.483V588.176H839.999V589.94H836.495V594.5H837.431C839.351 594.5 840.875 594.428 842.531 594.128L842.387 592.844C840.947 593.096 839.639 593.18 838.055 593.192V591.188ZM846.299 590.144H844.715V585.968H843.131V597.056H844.715V591.452H846.299V590.144ZM852.059 587.612C853.499 587.612 854.423 588.044 854.423 588.836C854.423 589.64 853.499 590.072 852.059 590.072C850.607 590.072 849.683 589.64 849.683 588.836C849.683 588.044 850.607 587.612 852.059 587.612ZM852.059 591.332C854.411 591.332 856.055 590.36 856.055 588.836C856.055 587.336 854.411 586.352 852.059 586.352C849.695 586.352 848.062 587.336 848.062 588.836C848.062 590.36 849.695 591.332 852.059 591.332ZM857.087 592.16H847.079V593.432H851.255V597.044H852.839V593.432H857.087V592.16ZM867.058 591.08H860.866V588.176H866.974V586.892H859.282V592.34H867.058V591.08ZM858.118 594.416V595.712H868.126V594.416H858.118ZM881.295 585.98H879.795V594.2H881.295V585.98ZM873.327 589.568C873.327 588.656 873.795 588.14 874.443 588.14C875.091 588.14 875.559 588.656 875.559 589.568C875.559 590.468 875.091 590.996 874.443 590.996C873.795 590.996 873.327 590.468 873.327 589.568ZM877.599 590.24V593.876H879.075V586.172H877.599V588.968H876.915C876.687 587.672 875.715 586.784 874.443 586.784C872.979 586.784 871.911 587.936 871.911 589.568C871.911 591.212 872.979 592.364 874.443 592.364C875.691 592.364 876.651 591.512 876.903 590.24H877.599ZM875.439 595.58V593.156H873.855V596.84H881.571V595.58H875.439ZM887.186 588.344H889.466V587.036H883.274V588.344H885.578V588.956C885.578 590.84 884.678 592.868 882.83 593.696L883.73 594.956C885.026 594.368 885.914 593.156 886.406 591.716C886.898 593.048 887.774 594.128 889.058 594.68L889.922 593.432C888.074 592.664 887.186 590.756 887.186 588.956V588.344ZM890.486 585.98V597.032H892.07V585.98H890.486ZM896.102 587.024H894.53V594.308H895.514C897.194 594.308 899.03 594.188 900.914 593.792L900.746 592.472C899.126 592.796 897.554 592.916 896.102 592.952V587.024ZM901.598 585.968V597.02H903.182V585.968H901.598ZM908.017 593.204C907.213 593.204 906.673 592.328 906.673 590.684C906.673 589.052 907.213 588.176 908.017 588.176C908.833 588.176 909.373 589.052 909.373 590.684C909.373 592.328 908.833 593.204 908.017 593.204ZM912.685 585.968V589.952H910.837C910.621 587.96 909.505 586.748 908.017 586.748C906.373 586.748 905.161 588.26 905.161 590.684C905.161 593.12 906.373 594.644 908.017 594.644C909.553 594.644 910.681 593.348 910.849 591.236H912.685V597.056H914.269V585.968H912.685ZM847.487 606.836V608.12H849.215V612.044H850.799V603.98H849.215V606.836H847.487ZM848.219 609.38C846.479 608.792 845.723 607.436 845.723 606.128V605.984H847.871V604.724H841.931V605.984H844.103V606.14C844.103 607.532 843.311 608.984 841.499 609.572L842.291 610.832C843.587 610.4 844.451 609.524 844.943 608.432C845.411 609.428 846.239 610.22 847.451 610.616L848.219 609.38ZM845.099 613.58V611.372H843.515V614.84H851.051V613.58H845.099ZM859.762 607.316H855.382V605.684H859.762V607.316ZM861.322 604.448H853.822V608.564H861.322V604.448ZM855.334 611.636H853.75V614.84H861.49V613.58H855.334V611.636ZM852.586 609.44V610.688H856.942V612.572H858.526V610.688H862.594V609.44H852.586ZM868.18 609.392H870.352V608.168H868.18V606.452H870.772V605.192H866.68V612.596H867.436C869.02 612.596 870.076 612.572 871.324 612.368L871.192 611.108C870.196 611.264 869.332 611.312 868.18 611.324V609.392ZM872.056 608H870.856V609.284H872.056V614.54H873.532V604.184H872.056V608ZM874.348 603.968V615.02H875.848V603.968H874.348ZM887.055 609.188C884.559 608.756 883.191 607.04 883.191 605.42V604.628H881.499V605.42C881.499 607.004 880.119 608.756 877.635 609.188L878.307 610.508C880.227 610.136 881.631 609.056 882.339 607.652C883.047 609.056 884.463 610.124 886.383 610.508L887.055 609.188ZM877.395 612.404V613.688H887.403V612.404H877.395ZM890.51 609.212H893.678V607.976H890.51V606.176H894.05V604.904H888.938V612.548H889.838C891.698 612.548 893.114 612.512 894.71 612.26L894.566 610.988C893.21 611.204 891.998 611.264 890.51 611.276V609.212ZM896.126 603.968V607.868H894.23V609.14H896.126V615.056H897.71V603.968H896.126Z" fill="#1A1A1A"/>
<rect x="934" y="538" width="104" height="100" rx="16" fill="#F0F0F0"/>
<path d="M940.262 572H942.038V568.16H945.398V572H947.162V563.12H945.398V566.624H942.038V563.12H940.262V572ZM949.344 572H951.12V568.652H952.428C954.288 568.652 955.764 567.788 955.764 565.808C955.764 563.768 954.288 563.12 952.428 563.12H949.344V572ZM951.12 567.248V564.536H952.26C953.412 564.536 954.036 564.86 954.036 565.808C954.036 566.756 953.412 567.248 952.26 567.248H951.12ZM954.168 572H956.148L953.34 567.08L952.104 568.196L954.168 572ZM956.588 574.184H957.764L960.752 562.328H959.588L956.588 574.184ZM962.164 572H963.748V568.292C963.748 567.452 963.616 566.216 963.52 565.376H963.568L964.288 567.464L965.656 571.208H966.676L968.044 567.464L968.776 565.376H968.836C968.74 566.216 968.596 567.452 968.596 568.292V572H970.216V563.12H968.248L966.772 567.284C966.592 567.836 966.436 568.412 966.232 568.988H966.184C965.992 568.412 965.836 567.836 965.632 567.284L964.12 563.12H962.164V572ZM971.255 572H973.055L974.327 567.38C974.591 566.456 974.843 565.436 975.083 564.476H975.131C975.383 565.424 975.635 566.456 975.899 567.38L977.171 572H979.031L976.187 563.12H974.099L971.255 572ZM973.019 569.72H977.243V568.352H973.019V569.72ZM980.082 572H981.858V568.652H983.166C985.026 568.652 986.502 567.788 986.502 565.808C986.502 563.768 985.026 563.12 983.166 563.12H980.082V572ZM981.858 567.248V564.536H982.998C984.15 564.536 984.774 564.86 984.774 565.808C984.774 566.756 984.15 567.248 982.998 567.248H981.858ZM984.906 572H986.886L984.078 567.08L982.842 568.196L984.906 572ZM988.262 572H990.038V569.504L991.202 568.016L993.506 572H995.438L992.246 566.612L994.97 563.12H993.014L990.062 566.972H990.038V563.12H988.262V572ZM996.488 572H1002.07V570.512H998.264V568.148H1001.37V566.648H998.264V564.596H1001.94V563.12H996.488V572ZM1005.64 572H1007.41V564.596H1009.92V563.12H1003.13V564.596H1005.64V572ZM1011.37 572H1013.15V563.12H1011.37V572ZM1015.33 572H1017.01V568.448C1017.01 567.416 1016.87 566.3 1016.78 565.352H1016.84L1017.74 567.248L1020.31 572H1022.12V563.12H1020.43V566.66C1020.43 567.668 1020.58 568.856 1020.67 569.78H1020.61L1019.71 567.86L1017.13 563.12H1015.33V572ZM1028.14 572.168C1029.36 572.168 1030.42 571.7 1031.02 571.1V567.104H1027.85V568.556H1029.43V570.308C1029.18 570.512 1028.75 570.632 1028.32 570.632C1026.58 570.632 1025.69 569.48 1025.69 567.536C1025.69 565.64 1026.71 564.488 1028.2 564.488C1028.99 564.488 1029.49 564.812 1029.94 565.232L1030.87 564.092C1030.3 563.516 1029.41 562.964 1028.14 562.964C1025.77 562.964 1023.88 564.668 1023.88 567.596C1023.88 570.56 1025.72 572.168 1028.14 572.168Z" fill="#808080"/>
<path d="M977.461 596H979.237V592.16H982.597V596H984.361V587.12H982.597V590.624H979.237V587.12H977.461V596ZM986.543 596H988.319V592.652H989.627C991.487 592.652 992.963 591.788 992.963 589.808C992.963 587.768 991.487 587.12 989.627 587.12H986.543V596ZM988.319 591.248V588.536H989.459C990.611 588.536 991.235 588.86 991.235 589.808C991.235 590.756 990.611 591.248 989.459 591.248H988.319ZM991.367 596H993.347L990.539 591.08L989.303 592.196L991.367 596ZM969.257 605V612.368H974.573V605H969.257ZM973.001 606.248V611.108H970.829V606.248H973.001ZM976.025 603.956V615.068H977.633V603.956H976.025ZM977.273 608.144V609.464H979.241V608.144H977.273ZM983.356 605.204V605.48C983.356 608.24 982.636 610.196 979.912 611.78L980.8 612.884C984.088 610.964 984.856 608.372 984.856 605.204H983.356ZM980.536 605.204V606.476H983.848V605.204H980.536ZM983.38 607.736L979.972 607.916L980.164 609.26L983.38 608.924V607.736ZM983.944 608.156V609.416H986.224V608.156H983.944ZM988.012 603.956V615.068H989.536V603.956H988.012ZM985.684 604.196V614.576H987.172V604.196H985.684ZM998.74 603.944V615.092H1000.32V603.944H998.74ZM996.832 607.856V609.152H998.92V607.856H996.832ZM991.504 611.288V612.584H992.392C994.264 612.584 995.704 612.536 997.312 612.284L997.168 611.012C995.596 611.264 994.228 611.288 992.392 611.288H991.504ZM991.504 604.88V611.696H993.088V606.176H996.652V604.88H991.504ZM992.728 607.976V609.224H996.268V607.976H992.728Z" fill="#1A1A1A"/>
<path d="M789 288V264C789 252.954 780.046 244 769 244H269C257.954 244 249 252.954 249 264V288" stroke="#F0F0F0" stroke-width="2"/>
<path d="M986 538V528C986 516.954 977.046 508 966 508H72C60.9543 508 52 516.954 52 528V538" stroke="#F0F0F0" stroke-width="2"/>
<path d="M518 159V540H520V159H518Z" fill="#F0F0F0"/>
<circle cx="519" cy="84" r="84" fill="#0000F4"/>
<path d="M511.964 54.168C513.116 54.168 514.064 53.712 514.796 52.86L513.86 51.756C513.38 52.272 512.792 52.632 512.024 52.632C510.62 52.632 509.708 51.468 509.708 49.536C509.708 47.628 510.716 46.476 512.06 46.476C512.732 46.476 513.248 46.788 513.704 47.22L514.628 46.092C514.052 45.492 513.152 44.952 512.024 44.952C509.78 44.952 507.896 46.668 507.896 49.596C507.896 52.56 509.72 54.168 511.964 54.168ZM516.227 54H521.807V52.512H518.003V50.136H521.123V48.648H518.003V46.596H521.675V45.108H516.227V54ZM527.138 54.168C529.49 54.168 531.11 52.404 531.11 49.524C531.11 46.644 529.49 44.952 527.138 44.952C524.786 44.952 523.166 46.632 523.166 49.524C523.166 52.404 524.786 54.168 527.138 54.168ZM527.138 52.632C525.818 52.632 524.978 51.42 524.978 49.524C524.978 47.616 525.818 46.476 527.138 46.476C528.458 46.476 529.298 47.616 529.298 49.524C529.298 51.42 528.458 52.632 527.138 52.632Z" fill="#DCE4FF"/>
<path d="M484.313 70.942H478.853V68.368H475.421V70.942H469.935V73.62H484.313V70.942ZM474.459 79.08C474.459 77.832 475.551 77.156 477.137 77.156C478.749 77.156 479.815 77.832 479.815 79.08C479.815 80.302 478.749 80.978 477.137 80.978C475.551 80.978 474.459 80.302 474.459 79.08ZM478.853 83.396C481.401 82.902 483.065 81.29 483.065 79.08C483.065 76.376 480.621 74.556 477.137 74.556C473.627 74.556 471.183 76.376 471.183 79.08C471.183 81.29 472.847 82.902 475.421 83.396V85.424C473.289 85.476 471.261 85.476 469.467 85.476L469.883 88.258C474.121 88.258 479.659 88.232 484.885 87.27L484.625 84.8C482.753 85.06 480.803 85.19 478.853 85.294V83.396ZM485.873 68.29V92.236H489.305V68.29H485.873ZM502.069 70.136H498.611V73.62C498.611 78.066 496.791 82.642 492.761 84.54L494.815 87.322C497.519 85.996 499.313 83.474 500.353 80.432C501.341 83.292 503.031 85.606 505.527 86.88L507.607 84.176C503.759 82.278 502.069 77.936 502.069 73.62V70.136ZM515.485 77.494H512.001V68.29H508.569V92.236H512.001V80.354H515.485V77.494ZM524.987 79.106C529.381 78.794 532.371 77.572 533.879 75.674C535.361 77.572 538.351 78.794 542.745 79.106L543.759 76.558C538.637 76.246 536.297 74.764 535.855 73.126H542.615V70.448H535.569V68.342H532.137V70.448H525.117V73.126H531.877C531.435 74.764 529.095 76.246 523.973 76.558L524.987 79.106ZM533.827 89.714C530.577 89.714 528.991 89.246 528.991 88.18C528.991 87.088 530.577 86.646 533.827 86.646C537.077 86.646 538.663 87.088 538.663 88.18C538.663 89.246 537.077 89.714 533.827 89.714ZM533.827 84.124C528.601 84.124 525.533 85.554 525.533 88.18C525.533 90.806 528.601 92.262 533.827 92.262C539.053 92.262 542.147 90.806 542.147 88.18C542.147 85.554 539.053 84.124 533.827 84.124ZM535.569 80.302V78.014H532.137V80.302H523.063V82.98H544.695V80.302H535.569ZM559.825 76.662C560.319 74.192 560.319 72.164 560.319 70.708V69.304H548.021V71.982H556.939C556.913 73.152 556.809 74.582 556.497 76.35L559.825 76.662ZM561.385 77.468C559.149 77.702 556.731 77.858 554.365 77.962V74.244H550.985V78.04C549.451 78.066 547.995 78.066 546.643 78.066L546.929 80.718C551.219 80.718 556.627 80.64 561.567 79.808L561.385 77.468ZM553.169 88.076H566.091V81.862H549.685V84.384H562.659V85.71H549.737V92.054H566.871V89.48H553.169V88.076ZM566.091 73.334V68.264H562.659V81.004H566.091V76.142H568.977V73.334H566.091Z" fill="white"/>
<path d="M478.618 114.6H479.506V122.232H484.21V123H478.618V114.6ZM491.624 122.232V123H485.684V114.6H491.444V115.368H486.572V118.356H490.916V119.112H486.572V122.232H491.624ZM497.313 123.072C496.481 123.072 495.729 122.888 495.057 122.52C494.393 122.152 493.869 121.644 493.485 120.996C493.109 120.34 492.921 119.608 492.921 118.8C492.921 117.992 493.109 117.264 493.485 116.616C493.869 115.96 494.397 115.448 495.069 115.08C495.741 114.712 496.493 114.528 497.325 114.528C497.949 114.528 498.525 114.632 499.053 114.84C499.581 115.048 500.029 115.352 500.397 115.752L499.833 116.316C499.177 115.652 498.349 115.32 497.349 115.32C496.685 115.32 496.081 115.472 495.537 115.776C494.993 116.08 494.565 116.496 494.253 117.024C493.949 117.552 493.797 118.144 493.797 118.8C493.797 119.456 493.949 120.048 494.253 120.576C494.565 121.104 494.993 121.52 495.537 121.824C496.081 122.128 496.685 122.28 497.349 122.28C498.357 122.28 499.185 121.944 499.833 121.272L500.397 121.836C500.029 122.236 499.577 122.544 499.041 122.76C498.513 122.968 497.937 123.072 497.313 123.072ZM502.29 114.6H503.178V122.232H507.882V123H502.29V114.6ZM515.296 122.232V123H509.356V114.6H515.116V115.368H510.244V118.356H514.588V119.112H510.244V122.232H515.296ZM523.128 119.052L521.412 120.792V123H520.524V114.6H521.412V119.676L526.344 114.6H527.364L523.728 118.404L527.616 123H526.56L523.128 119.052ZM532.423 123.072C531.591 123.072 530.835 122.888 530.155 122.52C529.483 122.144 528.955 121.632 528.571 120.984C528.195 120.336 528.007 119.608 528.007 118.8C528.007 117.992 528.195 117.264 528.571 116.616C528.955 115.968 529.483 115.46 530.155 115.092C530.835 114.716 531.591 114.528 532.423 114.528C533.255 114.528 534.003 114.712 534.667 115.08C535.339 115.448 535.867 115.96 536.251 116.616C536.635 117.264 536.827 117.992 536.827 118.8C536.827 119.608 536.635 120.34 536.251 120.996C535.867 121.644 535.339 122.152 534.667 122.52C534.003 122.888 533.255 123.072 532.423 123.072ZM532.423 122.28C533.087 122.28 533.687 122.132 534.223 121.836C534.759 121.532 535.179 121.116 535.483 120.588C535.787 120.052 535.939 119.456 535.939 118.8C535.939 118.144 535.787 117.552 535.483 117.024C535.179 116.488 534.759 116.072 534.223 115.776C533.687 115.472 533.087 115.32 532.423 115.32C531.759 115.32 531.155 115.472 530.611 115.776C530.075 116.072 529.651 116.488 529.339 117.024C529.035 117.552 528.883 118.144 528.883 118.8C528.883 119.456 529.035 120.052 529.339 120.588C529.651 121.116 530.075 121.532 530.611 121.836C531.155 122.132 531.759 122.28 532.423 122.28ZM544.553 123L542.633 120.3C542.417 120.324 542.193 120.336 541.961 120.336H539.705V123H538.817V114.6H541.961C543.033 114.6 543.873 114.856 544.481 115.368C545.089 115.88 545.393 116.584 545.393 117.48C545.393 118.136 545.225 118.692 544.889 119.148C544.561 119.596 544.089 119.92 543.473 120.12L545.525 123H544.553ZM541.937 119.58C542.769 119.58 543.405 119.396 543.845 119.028C544.285 118.66 544.505 118.144 544.505 117.48C544.505 116.8 544.285 116.28 543.845 115.92C543.405 115.552 542.769 115.368 541.937 115.368H539.705V119.58H541.937ZM553.429 122.232V123H547.489V114.6H553.249V115.368H548.377V118.356H552.721V119.112H548.377V122.232H553.429ZM560.784 120.756H556.104L555.096 123H554.172L558.012 114.6H558.888L562.728 123H561.792L560.784 120.756ZM560.46 120.036L558.444 115.524L556.428 120.036H560.46Z" fill="white"/>
<path d="M428 245V330H430V245H428Z" fill="#F0F0F0"/>
<path d="M608 245V330H610V245H608Z" fill="#F0F0F0"/>
<path d="M869 508V546H871V508H869Z" fill="#F0F0F0"/>
<path d="M753 508V546H755V508H753Z" fill="#F0F0F0"/>
<path d="M636 508V546H638V508H636Z" fill="#F0F0F0"/>
<path d="M402 508V546H404V508H402Z" fill="#F0F0F0"/>
<path d="M285 508V546H287V508H285Z" fill="#F0F0F0"/>
<path d="M168 508V546H170V508H168Z" fill="#F0F0F0"/>
<rect x="174" y="288" width="150" height="150" rx="20" fill="#1A1A1A"/>
<path d="M241.187 332.168C242.339 332.168 243.287 331.712 244.019 330.86L243.083 329.756C242.603 330.272 242.015 330.632 241.247 330.632C239.843 330.632 238.931 329.468 238.931 327.536C238.931 325.628 239.939 324.476 241.283 324.476C241.955 324.476 242.471 324.788 242.927 325.22L243.851 324.092C243.275 323.492 242.375 322.952 241.247 322.952C239.003 322.952 237.119 324.668 237.119 327.596C237.119 330.56 238.943 332.168 241.187 332.168ZM247.026 332H248.802V324.596H251.322V323.108H244.53V324.596H247.026V332ZM255.915 332.168C258.267 332.168 259.887 330.404 259.887 327.524C259.887 324.644 258.267 322.952 255.915 322.952C253.563 322.952 251.943 324.632 251.943 327.524C251.943 330.404 253.563 332.168 255.915 332.168ZM255.915 330.632C254.595 330.632 253.755 329.42 253.755 327.524C253.755 325.616 254.595 324.476 255.915 324.476C257.235 324.476 258.075 325.616 258.075 327.524C258.075 329.42 257.235 330.632 255.915 330.632Z" fill="#DCE4FF"/>
<path d="M198.789 352.445H196.989V349.46H198.789V352.445ZM201.909 348.53H200.619V344.735H198.789V347.9H196.989V344.72H195.129V354.02H200.619V350.12H201.909V356.69H203.754V343.715H201.909V348.53ZM204.714 343.46V357.275H206.589V343.46H204.714ZM219.713 350.6H212.018V349.055H219.293V347.525H212.018V346.07H219.608V344.48H210.008V352.16H219.713V350.6ZM208.538 354.095V355.7H221.048V354.095H208.538ZM230.151 348.395C228.291 348.755 226.521 348.89 224.871 348.92V344.12H222.891V350.57H224.061C226.011 350.57 228.126 350.435 230.376 349.985L230.151 348.395ZM226.161 353.435H231.276V355.58H226.161V353.435ZM224.211 357.125H233.211V351.89H224.211V357.125ZM235.041 346.385H233.211V343.475H231.231V351.245H233.211V348.005H235.041V346.385ZM240.254 356H242.474V351.8H244.019L246.299 356H248.774L246.179 351.455C247.454 350.96 248.294 349.925 248.294 348.26C248.294 345.71 246.449 344.885 244.124 344.885H240.254V356ZM242.474 350.045V346.655H243.914C245.339 346.655 246.134 347.06 246.134 348.26C246.134 349.445 245.339 350.045 243.914 350.045H242.474ZM252.773 347.51C252.773 346.685 253.238 346.16 253.898 346.16C254.468 346.16 254.723 346.565 254.723 347.12C254.723 347.93 254.048 348.47 253.178 348.995C252.923 348.47 252.773 347.975 252.773 347.51ZM253.193 356.21C254.558 356.21 255.683 355.76 256.598 355.04C257.528 355.625 258.488 356.015 259.373 356.21L259.913 354.41C259.328 354.305 258.653 354.02 257.933 353.615C258.803 352.46 259.403 351.185 259.808 349.805H257.813C257.513 350.9 257.033 351.845 256.448 352.625C255.563 351.95 254.708 351.14 254.048 350.315C255.233 349.49 256.433 348.575 256.433 347.105C256.433 345.65 255.443 344.69 253.853 344.69C252.083 344.69 250.943 345.965 250.943 347.51C250.943 348.245 251.198 349.07 251.648 349.91C250.538 350.615 249.563 351.515 249.563 353.06C249.563 354.785 250.868 356.21 253.193 356.21ZM251.663 352.925C251.663 352.325 252.038 351.83 252.578 351.365C253.283 352.295 254.138 353.18 255.083 353.96C254.558 354.305 254.018 354.515 253.463 354.515C252.398 354.515 251.663 353.87 251.663 352.925ZM261.567 356H264.732C268.002 356 270.102 354.14 270.102 350.405C270.102 346.655 268.002 344.885 264.612 344.885H261.567V356ZM263.787 354.215V346.67H264.477C266.547 346.67 267.837 347.69 267.837 350.405C267.837 353.105 266.547 354.215 264.477 354.215H263.787ZM276.064 349.715C278.599 349.535 280.324 348.83 281.194 347.735C282.049 348.83 283.774 349.535 286.309 349.715L286.894 348.245C283.939 348.065 282.589 347.21 282.334 346.265H286.234V344.72H282.169V343.505H280.189V344.72H276.139V346.265H280.039C279.784 347.21 278.434 348.065 275.479 348.245L276.064 349.715ZM281.164 355.835C279.289 355.835 278.374 355.565 278.374 354.95C278.374 354.32 279.289 354.065 281.164 354.065C283.039 354.065 283.954 354.32 283.954 354.95C283.954 355.565 283.039 355.835 281.164 355.835ZM281.164 352.61C278.149 352.61 276.379 353.435 276.379 354.95C276.379 356.465 278.149 357.29 281.164 357.29C284.179 357.29 285.964 356.465 285.964 354.95C285.964 353.435 284.179 352.61 281.164 352.61ZM282.169 350.405V349.085H280.189V350.405H274.954V351.95H287.434V350.405H282.169ZM296.162 348.305C296.447 346.88 296.447 345.71 296.447 344.87V344.06H289.352V345.605H294.497C294.482 346.28 294.422 347.105 294.242 348.125L296.162 348.305ZM297.062 348.77C295.772 348.905 294.377 348.995 293.012 349.055V346.91H291.062V349.1C290.177 349.115 289.337 349.115 288.557 349.115L288.722 350.645C291.197 350.645 294.317 350.6 297.167 350.12L297.062 348.77ZM292.322 354.89H299.777V351.305H290.312V352.76H297.797V353.525H290.342V357.17H300.227V355.7H292.322V354.89ZM299.777 346.385V343.46H297.797V350.81H299.777V348.005H301.442V346.385H299.777Z" fill="white"/>
<path d="M199.061 372.6H199.949V380.232H204.653V381H199.061V372.6ZM212.068 380.232V381H206.128V372.6H211.888V373.368H207.016V376.356H211.36V377.112H207.016V380.232H212.068ZM217.756 381.072C216.924 381.072 216.172 380.888 215.5 380.52C214.836 380.152 214.312 379.644 213.928 378.996C213.552 378.34 213.364 377.608 213.364 376.8C213.364 375.992 213.552 375.264 213.928 374.616C214.312 373.96 214.84 373.448 215.512 373.08C216.184 372.712 216.936 372.528 217.768 372.528C218.392 372.528 218.968 372.632 219.496 372.84C220.024 373.048 220.472 373.352 220.84 373.752L220.276 374.316C219.62 373.652 218.792 373.32 217.792 373.32C217.128 373.32 216.524 373.472 215.98 373.776C215.436 374.08 215.008 374.496 214.696 375.024C214.392 375.552 214.24 376.144 214.24 376.8C214.24 377.456 214.392 378.048 214.696 378.576C215.008 379.104 215.436 379.52 215.98 379.824C216.524 380.128 217.128 380.28 217.792 380.28C218.8 380.28 219.628 379.944 220.276 379.272L220.84 379.836C220.472 380.236 220.02 380.544 219.484 380.76C218.956 380.968 218.38 381.072 217.756 381.072ZM222.733 372.6H223.621V380.232H228.325V381H222.733V372.6ZM235.74 380.232V381H229.8V372.6H235.56V373.368H230.688V376.356H235.032V377.112H230.688V380.232H235.74ZM247.952 372.6L244.232 381H243.356L239.636 372.6H240.596L243.812 379.896L247.052 372.6H247.952ZM249.171 372.6H250.059V381H249.171V372.6ZM258.732 380.232V381H252.792V372.6H258.552V373.368H253.68V376.356H258.024V377.112H253.68V380.232H258.732ZM262.451 373.368H259.499V372.6H266.291V373.368H263.339V381H262.451V373.368ZM274.73 372.6V381H273.998L268.598 374.184V381H267.71V372.6H268.442L273.854 379.416V372.6H274.73ZM282.74 378.756H278.06L277.052 381H276.128L279.968 372.6H280.844L284.684 381H283.748L282.74 378.756ZM282.416 378.036L280.4 373.524L278.384 378.036H282.416ZM294.797 372.6V381H293.945V374.28L290.645 379.932H290.225L286.925 374.316V381H286.073V372.6H286.805L290.453 378.828L294.065 372.6H294.797ZM195.411 390.6H198.831C199.719 390.6 200.503 390.78 201.183 391.14C201.863 391.492 202.391 391.988 202.767 392.628C203.143 393.26 203.331 393.984 203.331 394.8C203.331 395.616 203.143 396.344 202.767 396.984C202.391 397.616 201.863 398.112 201.183 398.472C200.503 398.824 199.719 399 198.831 399H195.411V390.6ZM198.783 398.232C199.519 398.232 200.163 398.088 200.715 397.8C201.267 397.504 201.695 397.1 201.999 396.588C202.303 396.068 202.455 395.472 202.455 394.8C202.455 394.128 202.303 393.536 201.999 393.024C201.695 392.504 201.267 392.1 200.715 391.812C200.163 391.516 199.519 391.368 198.783 391.368H196.299V398.232H198.783ZM211.265 398.232V399H205.325V390.6H211.085V391.368H206.213V394.356H210.557V395.112H206.213V398.232H211.265ZM220.219 390.6L216.499 399H215.623L211.903 390.6H212.863L216.079 397.896L219.319 390.6H220.219ZM227.378 398.232V399H221.438V390.6H227.198V391.368H222.326V394.356H226.67V395.112H222.326V398.232H227.378ZM229.466 390.6H230.354V398.232H235.058V399H229.466V390.6ZM240.04 399.072C239.208 399.072 238.452 398.888 237.772 398.52C237.1 398.144 236.572 397.632 236.188 396.984C235.812 396.336 235.624 395.608 235.624 394.8C235.624 393.992 235.812 393.264 236.188 392.616C236.572 391.968 237.1 391.46 237.772 391.092C238.452 390.716 239.208 390.528 240.04 390.528C240.872 390.528 241.62 390.712 242.284 391.08C242.956 391.448 243.484 391.96 243.868 392.616C244.252 393.264 244.444 393.992 244.444 394.8C244.444 395.608 244.252 396.34 243.868 396.996C243.484 397.644 242.956 398.152 242.284 398.52C241.62 398.888 240.872 399.072 240.04 399.072ZM240.04 398.28C240.704 398.28 241.304 398.132 241.84 397.836C242.376 397.532 242.796 397.116 243.1 396.588C243.404 396.052 243.556 395.456 243.556 394.8C243.556 394.144 243.404 393.552 243.1 393.024C242.796 392.488 242.376 392.072 241.84 391.776C241.304 391.472 240.704 391.32 240.04 391.32C239.376 391.32 238.772 391.472 238.228 391.776C237.692 392.072 237.268 392.488 236.956 393.024C236.652 393.552 236.5 394.144 236.5 394.8C236.5 395.456 236.652 396.052 236.956 396.588C237.268 397.116 237.692 397.532 238.228 397.836C238.772 398.132 239.376 398.28 240.04 398.28ZM249.578 390.6C250.65 390.6 251.49 390.856 252.098 391.368C252.706 391.88 253.01 392.584 253.01 393.48C253.01 394.376 252.706 395.08 252.098 395.592C251.49 396.096 250.65 396.348 249.578 396.348H247.322V399H246.434V390.6H249.578ZM249.554 395.568C250.386 395.568 251.022 395.388 251.462 395.028C251.902 394.66 252.122 394.144 252.122 393.48C252.122 392.8 251.902 392.28 251.462 391.92C251.022 391.552 250.386 391.368 249.554 391.368H247.322V395.568H249.554ZM264.104 394.8H264.956V398.004C264.564 398.348 264.1 398.612 263.564 398.796C263.028 398.98 262.464 399.072 261.872 399.072C261.032 399.072 260.276 398.888 259.604 398.52C258.932 398.152 258.404 397.644 258.02 396.996C257.636 396.34 257.444 395.608 257.444 394.8C257.444 393.992 257.636 393.264 258.02 392.616C258.404 391.96 258.932 391.448 259.604 391.08C260.276 390.712 261.036 390.528 261.884 390.528C262.524 390.528 263.112 390.632 263.648 390.84C264.184 391.04 264.636 391.34 265.004 391.74L264.452 392.304C263.788 391.648 262.944 391.32 261.92 391.32C261.24 391.32 260.624 391.472 260.072 391.776C259.528 392.072 259.1 392.488 258.788 393.024C258.476 393.552 258.32 394.144 258.32 394.8C258.32 395.456 258.476 396.048 258.788 396.576C259.1 397.104 259.528 397.52 260.072 397.824C260.616 398.128 261.228 398.28 261.908 398.28C262.772 398.28 263.504 398.064 264.104 397.632V394.8ZM273.206 399L271.286 396.3C271.07 396.324 270.846 396.336 270.614 396.336H268.358V399H267.47V390.6H270.614C271.686 390.6 272.526 390.856 273.134 391.368C273.742 391.88 274.046 392.584 274.046 393.48C274.046 394.136 273.878 394.692 273.542 395.148C273.214 395.596 272.742 395.92 272.126 396.12L274.178 399H273.206ZM270.59 395.58C271.422 395.58 272.058 395.396 272.498 395.028C272.938 394.66 273.158 394.144 273.158 393.48C273.158 392.8 272.938 392.28 272.498 391.92C272.058 391.552 271.422 391.368 270.59 391.368H268.358V395.58H270.59ZM279.813 399.072C278.981 399.072 278.225 398.888 277.545 398.52C276.873 398.144 276.345 397.632 275.961 396.984C275.585 396.336 275.397 395.608 275.397 394.8C275.397 393.992 275.585 393.264 275.961 392.616C276.345 391.968 276.873 391.46 277.545 391.092C278.225 390.716 278.981 390.528 279.813 390.528C280.645 390.528 281.393 390.712 282.057 391.08C282.729 391.448 283.257 391.96 283.641 392.616C284.025 393.264 284.217 393.992 284.217 394.8C284.217 395.608 284.025 396.34 283.641 396.996C283.257 397.644 282.729 398.152 282.057 398.52C281.393 398.888 280.645 399.072 279.813 399.072ZM279.813 398.28C280.477 398.28 281.077 398.132 281.613 397.836C282.149 397.532 282.569 397.116 282.873 396.588C283.177 396.052 283.329 395.456 283.329 394.8C283.329 394.144 283.177 393.552 282.873 393.024C282.569 392.488 282.149 392.072 281.613 391.776C281.077 391.472 280.477 391.32 279.813 391.32C279.149 391.32 278.545 391.472 278.001 391.776C277.465 392.072 277.041 392.488 276.729 393.024C276.425 393.552 276.273 394.144 276.273 394.8C276.273 395.456 276.425 396.052 276.729 396.588C277.041 397.116 277.465 397.532 278.001 397.836C278.545 398.132 279.149 398.28 279.813 398.28ZM289.592 399.072C288.504 399.072 287.656 398.76 287.048 398.136C286.44 397.512 286.136 396.604 286.136 395.412V390.6H287.024V395.376C287.024 396.352 287.244 397.08 287.684 397.56C288.124 398.04 288.76 398.28 289.592 398.28C290.432 398.28 291.072 398.04 291.512 397.56C291.952 397.08 292.172 396.352 292.172 395.376V390.6H293.036V395.412C293.036 396.604 292.732 397.512 292.124 398.136C291.524 398.76 290.68 399.072 289.592 399.072ZM298.856 390.6C299.928 390.6 300.768 390.856 301.376 391.368C301.984 391.88 302.288 392.584 302.288 393.48C302.288 394.376 301.984 395.08 301.376 395.592C300.768 396.096 299.928 396.348 298.856 396.348H296.6V399H295.712V390.6H298.856ZM298.832 395.568C299.664 395.568 300.3 395.388 300.74 395.028C301.18 394.66 301.4 394.144 301.4 393.48C301.4 392.8 301.18 392.28 300.74 391.92C300.3 391.552 299.664 391.368 298.832 391.368H296.6V395.568H298.832Z" fill="white"/>
<rect x="354" y="288" width="150" height="150" rx="20" fill="#1A1A1A"/>
<path d="M420.154 332.168C421.306 332.168 422.254 331.712 422.986 330.86L422.049 329.756C421.57 330.272 420.982 330.632 420.214 330.632C418.81 330.632 417.898 329.468 417.898 327.536C417.898 325.628 418.906 324.476 420.25 324.476C420.922 324.476 421.438 324.788 421.894 325.22L422.818 324.092C422.242 323.492 421.342 322.952 420.214 322.952C417.97 322.952 416.086 324.668 416.086 327.596C416.086 330.56 417.91 332.168 420.154 332.168ZM424.416 332H426.192V328.844H427.38C429.288 328.844 430.812 327.932 430.812 325.904C430.812 323.804 429.3 323.108 427.332 323.108H424.416V332ZM426.192 327.44V324.524H427.2C428.424 324.524 429.072 324.872 429.072 325.904C429.072 326.924 428.484 327.44 427.26 327.44H426.192ZM435.948 332.168C438.3 332.168 439.92 330.404 439.92 327.524C439.92 324.644 438.3 322.952 435.948 322.952C433.596 322.952 431.976 324.632 431.976 327.524C431.976 330.404 433.596 332.168 435.948 332.168ZM435.948 330.632C434.628 330.632 433.788 329.42 433.788 327.524C433.788 325.616 434.628 324.476 435.948 324.476C437.268 324.476 438.108 325.616 438.108 327.524C438.108 329.42 437.268 330.632 435.948 330.632Z" fill="#DCE4FF"/>
<path d="M393.684 350.39H390.864V346.25H393.684V350.39ZM388.899 350.39H387.099V351.965H397.479V350.39H395.649V346.25H397.524V344.675H387.024V346.25H388.899V350.39ZM386.049 354.08V355.685H398.559V354.08H386.049ZM407.078 354.155V352.1H411.263V350.51H403.253V348.965H410.948V344.36H401.273V345.935H408.998V347.42H401.288V352.1H405.098V354.155H399.848V355.775H412.358V354.155H407.078ZM421.207 349.4C419.797 349.685 418.552 349.79 416.347 349.805V345.98H420.607V344.405H414.382V351.395H415.477C418.312 351.395 419.767 351.32 421.387 350.975L421.207 349.4ZM415.777 353.99H423.217V357.305H425.197V352.415H415.777V353.99ZM423.217 343.46V346.925H419.962V348.5H423.217V351.815H425.197V343.46H423.217ZM438.621 350.6H430.926V349.055H438.201V347.525H430.926V346.07H438.516V344.48H428.916V352.16H438.621V350.6ZM427.446 354.095V355.7H439.956V354.095H427.446ZM445.753 349.715C448.288 349.535 450.013 348.83 450.883 347.735C451.738 348.83 453.463 349.535 455.998 349.715L456.583 348.245C453.628 348.065 452.278 347.21 452.023 346.265H455.923V344.72H451.858V343.505H449.878V344.72H445.828V346.265H449.728C449.473 347.21 448.123 348.065 445.168 348.245L445.753 349.715ZM450.853 355.835C448.978 355.835 448.063 355.565 448.063 354.95C448.063 354.32 448.978 354.065 450.853 354.065C452.728 354.065 453.643 354.32 453.643 354.95C453.643 355.565 452.728 355.835 450.853 355.835ZM450.853 352.61C447.838 352.61 446.068 353.435 446.068 354.95C446.068 356.465 447.838 357.29 450.853 357.29C453.868 357.29 455.653 356.465 455.653 354.95C455.653 353.435 453.868 352.61 450.853 352.61ZM451.858 350.405V349.085H449.878V350.405H444.643V351.95H457.123V350.405H451.858ZM465.852 348.305C466.137 346.88 466.137 345.71 466.137 344.87V344.06H459.042V345.605H464.187C464.172 346.28 464.112 347.105 463.932 348.125L465.852 348.305ZM466.752 348.77C465.462 348.905 464.067 348.995 462.702 349.055V346.91H460.752V349.1C459.867 349.115 459.027 349.115 458.247 349.115L458.412 350.645C460.887 350.645 464.007 350.6 466.857 350.12L466.752 348.77ZM462.012 354.89H469.467V351.305H460.002V352.76H467.487V353.525H460.032V357.17H469.917V355.7H462.012V354.89ZM469.467 346.385V343.46H467.487V350.81H469.467V348.005H471.132V346.385H469.467Z" fill="white"/>
<path d="M400.41 372.6C401.482 372.6 402.322 372.856 402.93 373.368C403.538 373.88 403.842 374.584 403.842 375.48C403.842 376.376 403.538 377.08 402.93 377.592C402.322 378.096 401.482 378.348 400.41 378.348H398.154V381H397.266V372.6H400.41ZM400.386 377.568C401.218 377.568 401.854 377.388 402.294 377.028C402.734 376.66 402.954 376.144 402.954 375.48C402.954 374.8 402.734 374.28 402.294 373.92C401.854 373.552 401.218 373.368 400.386 373.368H398.154V377.568H400.386ZM411.499 381L409.579 378.3C409.363 378.324 409.139 378.336 408.907 378.336H406.651V381H405.763V372.6H408.907C409.979 372.6 410.819 372.856 411.427 373.368C412.035 373.88 412.339 374.584 412.339 375.48C412.339 376.136 412.171 376.692 411.835 377.148C411.507 377.596 411.035 377.92 410.419 378.12L412.471 381H411.499ZM408.883 377.58C409.715 377.58 410.351 377.396 410.791 377.028C411.231 376.66 411.451 376.144 411.451 375.48C411.451 374.8 411.231 374.28 410.791 373.92C410.351 373.552 409.715 373.368 408.883 373.368H406.651V377.58H408.883ZM418.106 381.072C417.274 381.072 416.518 380.888 415.838 380.52C415.166 380.144 414.638 379.632 414.254 378.984C413.878 378.336 413.69 377.608 413.69 376.8C413.69 375.992 413.878 375.264 414.254 374.616C414.638 373.968 415.166 373.46 415.838 373.092C416.518 372.716 417.274 372.528 418.106 372.528C418.938 372.528 419.686 372.712 420.35 373.08C421.022 373.448 421.55 373.96 421.934 374.616C422.318 375.264 422.51 375.992 422.51 376.8C422.51 377.608 422.318 378.34 421.934 378.996C421.55 379.644 421.022 380.152 420.35 380.52C419.686 380.888 418.938 381.072 418.106 381.072ZM418.106 380.28C418.77 380.28 419.37 380.132 419.906 379.836C420.442 379.532 420.862 379.116 421.166 378.588C421.47 378.052 421.622 377.456 421.622 376.8C421.622 376.144 421.47 375.552 421.166 375.024C420.862 374.488 420.442 374.072 419.906 373.776C419.37 373.472 418.77 373.32 418.106 373.32C417.442 373.32 416.838 373.472 416.294 373.776C415.758 374.072 415.334 374.488 415.022 375.024C414.718 375.552 414.566 376.144 414.566 376.8C414.566 377.456 414.718 378.052 415.022 378.588C415.334 379.116 415.758 379.532 416.294 379.836C416.838 380.132 417.442 380.28 418.106 380.28ZM424.501 372.6H427.921C428.809 372.6 429.593 372.78 430.273 373.14C430.953 373.492 431.481 373.988 431.857 374.628C432.233 375.26 432.421 375.984 432.421 376.8C432.421 377.616 432.233 378.344 431.857 378.984C431.481 379.616 430.953 380.112 430.273 380.472C429.593 380.824 428.809 381 427.921 381H424.501V372.6ZM427.873 380.232C428.609 380.232 429.253 380.088 429.805 379.8C430.357 379.504 430.785 379.1 431.089 378.588C431.393 378.068 431.545 377.472 431.545 376.8C431.545 376.128 431.393 375.536 431.089 375.024C430.785 374.504 430.357 374.1 429.805 373.812C429.253 373.516 428.609 373.368 427.873 373.368H425.389V380.232H427.873ZM437.799 381.072C436.711 381.072 435.863 380.76 435.255 380.136C434.647 379.512 434.343 378.604 434.343 377.412V372.6H435.231V377.376C435.231 378.352 435.451 379.08 435.891 379.56C436.331 380.04 436.967 380.28 437.799 380.28C438.639 380.28 439.279 380.04 439.719 379.56C440.159 379.08 440.379 378.352 440.379 377.376V372.6H441.243V377.412C441.243 378.604 440.939 379.512 440.331 380.136C439.731 380.76 438.887 381.072 437.799 381.072ZM447.567 381.072C446.735 381.072 445.983 380.888 445.311 380.52C444.647 380.152 444.123 379.644 443.739 378.996C443.363 378.34 443.175 377.608 443.175 376.8C443.175 375.992 443.363 375.264 443.739 374.616C444.123 373.96 444.651 373.448 445.323 373.08C445.995 372.712 446.747 372.528 447.579 372.528C448.203 372.528 448.779 372.632 449.307 372.84C449.835 373.048 450.283 373.352 450.651 373.752L450.087 374.316C449.431 373.652 448.603 373.32 447.603 373.32C446.939 373.32 446.335 373.472 445.791 373.776C445.247 374.08 444.819 374.496 444.507 375.024C444.203 375.552 444.051 376.144 444.051 376.8C444.051 377.456 444.203 378.048 444.507 378.576C444.819 379.104 445.247 379.52 445.791 379.824C446.335 380.128 446.939 380.28 447.603 380.28C448.611 380.28 449.439 379.944 450.087 379.272L450.651 379.836C450.283 380.236 449.831 380.544 449.295 380.76C448.767 380.968 448.191 381.072 447.567 381.072ZM454.07 373.368H451.118V372.6H457.91V373.368H454.958V381H454.07V373.368ZM384.186 399.072C383.354 399.072 382.598 398.888 381.918 398.52C381.246 398.144 380.718 397.632 380.334 396.984C379.958 396.336 379.77 395.608 379.77 394.8C379.77 393.992 379.958 393.264 380.334 392.616C380.718 391.968 381.246 391.46 381.918 391.092C382.598 390.716 383.354 390.528 384.186 390.528C385.018 390.528 385.766 390.712 386.43 391.08C387.102 391.448 387.63 391.96 388.014 392.616C388.398 393.264 388.59 393.992 388.59 394.8C388.59 395.608 388.398 396.34 388.014 396.996C387.63 397.644 387.102 398.152 386.43 398.52C385.766 398.888 385.018 399.072 384.186 399.072ZM384.186 398.28C384.85 398.28 385.45 398.132 385.986 397.836C386.522 397.532 386.942 397.116 387.246 396.588C387.55 396.052 387.702 395.456 387.702 394.8C387.702 394.144 387.55 393.552 387.246 393.024C386.942 392.488 386.522 392.072 385.986 391.776C385.45 391.472 384.85 391.32 384.186 391.32C383.522 391.32 382.918 391.472 382.374 391.776C381.838 392.072 381.414 392.488 381.102 393.024C380.798 393.552 380.646 394.144 380.646 394.8C380.646 395.456 380.798 396.052 381.102 396.588C381.414 397.116 381.838 397.532 382.374 397.836C382.918 398.132 383.522 398.28 384.186 398.28ZM401.855 390.6L399.023 399H398.087L395.627 391.836L393.155 399H392.231L389.399 390.6H390.311L392.735 397.824L395.243 390.6H396.071L398.543 397.86L401.003 390.6H401.855ZM410.503 390.6V399H409.771L404.371 392.184V399H403.483V390.6H404.215L409.627 397.416V390.6H410.503ZM419.185 398.232V399H413.245V390.6H419.005V391.368H414.133V394.356H418.477V395.112H414.133V398.232H419.185ZM427.008 399L425.088 396.3C424.872 396.324 424.648 396.336 424.416 396.336H422.16V399H421.272V390.6H424.416C425.488 390.6 426.328 390.856 426.936 391.368C427.544 391.88 427.848 392.584 427.848 393.48C427.848 394.136 427.68 394.692 427.344 395.148C427.016 395.596 426.544 395.92 425.928 396.12L427.98 399H427.008ZM424.392 395.58C425.224 395.58 425.86 395.396 426.3 395.028C426.74 394.66 426.96 394.144 426.96 393.48C426.96 392.8 426.74 392.28 426.3 391.92C425.86 391.552 425.224 391.368 424.392 391.368H422.16V395.58H424.392ZM439.001 394.8H439.853V398.004C439.461 398.348 438.997 398.612 438.461 398.796C437.925 398.98 437.361 399.072 436.769 399.072C435.929 399.072 435.173 398.888 434.501 398.52C433.829 398.152 433.301 397.644 432.917 396.996C432.533 396.34 432.341 395.608 432.341 394.8C432.341 393.992 432.533 393.264 432.917 392.616C433.301 391.96 433.829 391.448 434.501 391.08C435.173 390.712 435.933 390.528 436.781 390.528C437.421 390.528 438.009 390.632 438.545 390.84C439.081 391.04 439.533 391.34 439.901 391.74L439.349 392.304C438.685 391.648 437.841 391.32 436.817 391.32C436.137 391.32 435.521 391.472 434.969 391.776C434.425 392.072 433.997 392.488 433.685 393.024C433.373 393.552 433.217 394.144 433.217 394.8C433.217 395.456 433.373 396.048 433.685 396.576C433.997 397.104 434.425 397.52 434.969 397.824C435.513 398.128 436.125 398.28 436.805 398.28C437.669 398.28 438.401 398.064 439.001 397.632V394.8ZM448.102 399L446.182 396.3C445.966 396.324 445.742 396.336 445.51 396.336H443.254V399H442.366V390.6H445.51C446.582 390.6 447.422 390.856 448.03 391.368C448.638 391.88 448.942 392.584 448.942 393.48C448.942 394.136 448.774 394.692 448.438 395.148C448.11 395.596 447.638 395.92 447.022 396.12L449.074 399H448.102ZM445.486 395.58C446.318 395.58 446.954 395.396 447.394 395.028C447.834 394.66 448.054 394.144 448.054 393.48C448.054 392.8 447.834 392.28 447.394 391.92C446.954 391.552 446.318 391.368 445.486 391.368H443.254V395.58H445.486ZM454.71 399.072C453.878 399.072 453.122 398.888 452.442 398.52C451.77 398.144 451.242 397.632 450.858 396.984C450.482 396.336 450.294 395.608 450.294 394.8C450.294 393.992 450.482 393.264 450.858 392.616C451.242 391.968 451.77 391.46 452.442 391.092C453.122 390.716 453.878 390.528 454.71 390.528C455.542 390.528 456.29 390.712 456.954 391.08C457.626 391.448 458.154 391.96 458.538 392.616C458.922 393.264 459.114 393.992 459.114 394.8C459.114 395.608 458.922 396.34 458.538 396.996C458.154 397.644 457.626 398.152 456.954 398.52C456.29 398.888 455.542 399.072 454.71 399.072ZM454.71 398.28C455.374 398.28 455.974 398.132 456.51 397.836C457.046 397.532 457.466 397.116 457.77 396.588C458.074 396.052 458.226 395.456 458.226 394.8C458.226 394.144 458.074 393.552 457.77 393.024C457.466 392.488 457.046 392.072 456.51 391.776C455.974 391.472 455.374 391.32 454.71 391.32C454.046 391.32 453.442 391.472 452.898 391.776C452.362 392.072 451.938 392.488 451.626 393.024C451.322 393.552 451.17 394.144 451.17 394.8C451.17 395.456 451.322 396.052 451.626 396.588C451.938 397.116 452.362 397.532 452.898 397.836C453.442 398.132 454.046 398.28 454.71 398.28ZM464.488 399.072C463.4 399.072 462.552 398.76 461.944 398.136C461.336 397.512 461.032 396.604 461.032 395.412V390.6H461.92V395.376C461.92 396.352 462.14 397.08 462.58 397.56C463.02 398.04 463.656 398.28 464.488 398.28C465.328 398.28 465.968 398.04 466.408 397.56C466.848 397.08 467.068 396.352 467.068 395.376V390.6H467.932V395.412C467.932 396.604 467.628 397.512 467.02 398.136C466.42 398.76 465.576 399.072 464.488 399.072ZM473.752 390.6C474.824 390.6 475.664 390.856 476.272 391.368C476.88 391.88 477.184 392.584 477.184 393.48C477.184 394.376 476.88 395.08 476.272 395.592C475.664 396.096 474.824 396.348 473.752 396.348H471.496V399H470.608V390.6H473.752ZM473.728 395.568C474.56 395.568 475.196 395.388 475.636 395.028C476.076 394.66 476.296 394.144 476.296 393.48C476.296 392.8 476.076 392.28 475.636 391.92C475.196 391.552 474.56 391.368 473.728 391.368H471.496V395.568H473.728Z" fill="white"/>
<rect x="534" y="288" width="150" height="150" rx="20" fill="#1A1A1A"/>
<path d="M602.099 334.168C603.251 334.168 604.199 333.712 604.931 332.86L603.995 331.756C603.515 332.272 602.927 332.632 602.159 332.632C600.755 332.632 599.843 331.468 599.843 329.536C599.843 327.628 600.851 326.476 602.195 326.476C602.867 326.476 603.383 326.788 603.839 327.22L604.763 326.092C604.187 325.492 603.287 324.952 602.159 324.952C599.915 324.952 598.031 326.668 598.031 329.596C598.031 332.56 599.855 334.168 602.099 334.168ZM608.639 334.168C610.691 334.168 611.903 332.932 611.903 331.48C611.903 330.196 611.195 329.512 610.115 329.068L608.951 328.576C608.195 328.276 607.571 328.048 607.571 327.412C607.571 326.824 608.063 326.476 608.843 326.476C609.575 326.476 610.163 326.74 610.727 327.208L611.627 326.092C610.907 325.36 609.875 324.952 608.843 324.952C607.043 324.952 605.771 326.068 605.771 327.52C605.771 328.816 606.671 329.536 607.571 329.908L608.759 330.412C609.551 330.748 610.091 330.952 610.091 331.612C610.091 332.236 609.599 332.632 608.675 332.632C607.895 332.632 607.055 332.236 606.419 331.648L605.399 332.872C606.263 333.7 607.451 334.168 608.639 334.168ZM617.003 334.168C619.355 334.168 620.975 332.404 620.975 329.524C620.975 326.644 619.355 324.952 617.003 324.952C614.651 324.952 613.031 326.632 613.031 329.524C613.031 332.404 614.651 334.168 617.003 334.168ZM617.003 332.632C615.683 332.632 614.843 331.42 614.843 329.524C614.843 327.616 615.683 326.476 617.003 326.476C618.323 326.476 619.163 327.616 619.163 329.524C619.163 331.42 618.323 332.632 617.003 332.632Z" fill="#DCE4FF"/>
<path d="M574.459 349.045V350.65H576.619V355.555H578.599V345.475H576.619V349.045H574.459ZM575.374 352.225C573.199 351.49 572.254 349.795 572.254 348.16V347.98H574.939V346.405H567.514V347.98H570.229V348.175C570.229 349.915 569.239 351.73 566.974 352.465L567.964 354.04C569.584 353.5 570.664 352.405 571.279 351.04C571.864 352.285 572.899 353.275 574.414 353.77L575.374 352.225ZM571.474 357.475V354.715H569.494V359.05H578.914V357.475H571.474ZM581.343 349.015V353.38H582.528C585.288 353.38 587.043 353.32 588.963 352.96L588.798 351.37C587.073 351.685 585.558 351.775 583.308 351.79V350.485H587.628V346.24H581.328V347.815H585.678V349.015H581.343ZM582.513 356.08H589.743V359.29H591.723V354.505H582.513V356.08ZM593.538 348.985V347.38H591.723V345.475H589.743V353.875H591.723V351.94H593.538V350.335H591.723V348.985H593.538ZM595.412 346.9V348.475H600.017C599.732 351.535 598.202 353.695 594.677 355.39L595.712 356.95C600.617 354.58 602.042 351.13 602.042 346.9H595.412ZM604.157 345.46V359.275H606.152V345.46H604.157ZM617.011 346.495H613.966V345.37H611.986V346.495H608.911V347.905H617.011V346.495ZM611.431 350.305C611.431 349.795 612.031 349.54 612.976 349.54C613.906 349.54 614.491 349.795 614.491 350.305C614.491 350.8 613.906 351.085 612.976 351.085C612.031 351.085 611.431 350.8 611.431 350.305ZM617.146 352.705C616.126 352.825 615.046 352.915 613.966 352.975V352.315C615.436 352.09 616.381 351.355 616.381 350.305C616.381 349.045 615.001 348.25 612.976 348.25C610.921 348.25 609.541 349.045 609.541 350.305C609.541 351.355 610.486 352.09 611.986 352.315V353.05C610.741 353.08 609.571 353.08 608.521 353.08L608.776 354.565C611.191 354.565 614.356 354.52 617.281 354.025L617.146 352.705ZM610.411 356.905H617.956V359.305H619.951V355.375H610.411V356.905ZM617.956 345.49V354.835H619.951V345.49H617.956ZM626.753 351.715C629.288 351.535 631.013 350.83 631.883 349.735C632.738 350.83 634.463 351.535 636.998 351.715L637.583 350.245C634.628 350.065 633.278 349.21 633.023 348.265H636.923V346.72H632.858V345.505H630.878V346.72H626.828V348.265H630.728C630.473 349.21 629.123 350.065 626.168 350.245L626.753 351.715ZM631.853 357.835C629.978 357.835 629.063 357.565 629.063 356.95C629.063 356.32 629.978 356.065 631.853 356.065C633.728 356.065 634.643 356.32 634.643 356.95C634.643 357.565 633.728 357.835 631.853 357.835ZM631.853 354.61C628.838 354.61 627.068 355.435 627.068 356.95C627.068 358.465 628.838 359.305 631.853 359.305C634.868 359.305 636.653 358.465 636.653 356.95C636.653 355.435 634.868 354.61 631.853 354.61ZM632.858 352.405V351.085H630.878V352.405H625.643V353.95H638.123V352.405H632.858ZM646.852 350.305C647.137 348.88 647.137 347.71 647.137 346.87V346.06H640.042V347.605H645.187C645.172 348.28 645.112 349.105 644.932 350.125L646.852 350.305ZM647.752 350.77C646.462 350.905 645.067 350.995 643.702 351.055V348.91H641.752V351.1C640.867 351.115 640.027 351.115 639.247 351.115L639.412 352.645C641.887 352.645 645.007 352.6 647.857 352.12L647.752 350.77ZM643.012 356.89H650.467V353.305H641.002V354.76H648.487V355.525H641.032V359.185H650.917V357.7H643.012V356.89ZM650.467 348.385V345.46H648.487V352.81H650.467V350.005H652.132V348.385H650.467Z" fill="white"/>
<path d="M580.725 383.072C580.101 383.072 579.501 382.972 578.925 382.772C578.357 382.572 577.917 382.308 577.605 381.98L577.953 381.296C578.257 381.6 578.661 381.848 579.165 382.04C579.669 382.224 580.189 382.316 580.725 382.316C581.477 382.316 582.041 382.18 582.417 381.908C582.793 381.628 582.981 381.268 582.981 380.828C582.981 380.492 582.877 380.224 582.669 380.024C582.469 379.824 582.221 379.672 581.925 379.568C581.629 379.456 581.217 379.336 580.689 379.208C580.057 379.048 579.553 378.896 579.177 378.752C578.801 378.6 578.477 378.372 578.205 378.068C577.941 377.764 577.809 377.352 577.809 376.832C577.809 376.408 577.921 376.024 578.145 375.68C578.369 375.328 578.713 375.048 579.177 374.84C579.641 374.632 580.217 374.528 580.905 374.528C581.385 374.528 581.853 374.596 582.309 374.732C582.773 374.86 583.173 375.04 583.509 375.272L583.209 375.98C582.857 375.748 582.481 375.576 582.081 375.464C581.681 375.344 581.289 375.284 580.905 375.284C580.169 375.284 579.613 375.428 579.237 375.716C578.869 375.996 578.685 376.36 578.685 376.808C578.685 377.144 578.785 377.416 578.985 377.624C579.193 377.824 579.449 377.98 579.753 378.092C580.065 378.196 580.481 378.312 581.001 378.44C581.617 378.592 582.113 378.744 582.489 378.896C582.873 379.04 583.197 379.264 583.461 379.568C583.725 379.864 583.857 380.268 583.857 380.78C583.857 381.204 583.741 381.592 583.509 381.944C583.285 382.288 582.937 382.564 582.465 382.772C581.993 382.972 581.413 383.072 580.725 383.072ZM587.307 375.368H584.355V374.6H591.147V375.368H588.195V383H587.307V375.368ZM598.301 383L596.381 380.3C596.165 380.324 595.941 380.336 595.709 380.336H593.453V383H592.565V374.6H595.709C596.781 374.6 597.621 374.856 598.229 375.368C598.837 375.88 599.141 376.584 599.141 377.48C599.141 378.136 598.973 378.692 598.637 379.148C598.309 379.596 597.837 379.92 597.221 380.12L599.273 383H598.301ZM595.685 379.58C596.517 379.58 597.153 379.396 597.593 379.028C598.033 378.66 598.253 378.144 598.253 377.48C598.253 376.8 598.033 376.28 597.593 375.92C597.153 375.552 596.517 375.368 595.685 375.368H593.453V379.58H595.685ZM606.505 380.756H601.825L600.817 383H599.893L603.733 374.6H604.609L608.449 383H607.513L606.505 380.756ZM606.181 380.036L604.165 375.524L602.149 380.036H606.181ZM611.049 375.368H608.097V374.6H614.889V375.368H611.937V383H611.049V375.368ZM622.247 382.232V383H616.307V374.6H622.067V375.368H617.195V378.356H621.539V379.112H617.195V382.232H622.247ZM630.204 378.8H631.056V382.004C630.664 382.348 630.2 382.612 629.664 382.796C629.128 382.98 628.564 383.072 627.972 383.072C627.132 383.072 626.376 382.888 625.704 382.52C625.032 382.152 624.504 381.644 624.12 380.996C623.736 380.34 623.544 379.608 623.544 378.8C623.544 377.992 623.736 377.264 624.12 376.616C624.504 375.96 625.032 375.448 625.704 375.08C626.376 374.712 627.136 374.528 627.984 374.528C628.624 374.528 629.212 374.632 629.748 374.84C630.284 375.04 630.736 375.34 631.104 375.74L630.552 376.304C629.888 375.648 629.044 375.32 628.02 375.32C627.34 375.32 626.724 375.472 626.172 375.776C625.628 376.072 625.2 376.488 624.888 377.024C624.576 377.552 624.42 378.144 624.42 378.8C624.42 379.456 624.576 380.048 624.888 380.576C625.2 381.104 625.628 381.52 626.172 381.824C626.716 382.128 627.328 382.28 628.008 382.28C628.872 382.28 629.604 382.064 630.204 381.632V378.8ZM636.449 380.096V383H635.573V380.096L632.213 374.6H633.161L636.041 379.316L638.921 374.6H639.809L636.449 380.096ZM556.686 392.6C557.758 392.6 558.598 392.856 559.206 393.368C559.814 393.88 560.118 394.584 560.118 395.48C560.118 396.376 559.814 397.08 559.206 397.592C558.598 398.096 557.758 398.348 556.686 398.348H554.43V401H553.542V392.6H556.686ZM556.662 397.568C557.494 397.568 558.13 397.388 558.57 397.028C559.01 396.66 559.23 396.144 559.23 395.48C559.23 394.8 559.01 394.28 558.57 393.92C558.13 393.552 557.494 393.368 556.662 393.368H554.43V397.568H556.662ZM562.038 392.6H562.926V400.232H567.63V401H562.038V392.6ZM574.396 398.756H569.716L568.708 401H567.784L571.624 392.6H572.5L576.34 401H575.404L574.396 398.756ZM574.072 398.036L572.056 393.524L570.04 398.036H574.072ZM584.749 392.6V401H584.017L578.617 394.184V401H577.729V392.6H578.461L583.873 399.416V392.6H584.749ZM594.511 392.6V401H593.779L588.379 394.184V401H587.491V392.6H588.223L593.635 399.416V392.6H594.511ZM597.253 392.6H598.141V401H597.253V392.6ZM607.894 392.6V401H607.162L601.762 394.184V401H600.874V392.6H601.606L607.018 399.416V392.6H607.894ZM616.552 396.8H617.404V400.004C617.012 400.348 616.548 400.612 616.012 400.796C615.476 400.98 614.912 401.072 614.32 401.072C613.48 401.072 612.724 400.888 612.052 400.52C611.38 400.152 610.852 399.644 610.468 398.996C610.084 398.34 609.892 397.608 609.892 396.8C609.892 395.992 610.084 395.264 610.468 394.616C610.852 393.96 611.38 393.448 612.052 393.08C612.724 392.712 613.484 392.528 614.332 392.528C614.972 392.528 615.56 392.632 616.096 392.84C616.632 393.04 617.084 393.34 617.452 393.74L616.9 394.304C616.236 393.648 615.392 393.32 614.368 393.32C613.688 393.32 613.072 393.472 612.52 393.776C611.976 394.072 611.548 394.488 611.236 395.024C610.924 395.552 610.768 396.144 610.768 396.8C610.768 397.456 610.924 398.048 611.236 398.576C611.548 399.104 611.976 399.52 612.52 399.824C613.064 400.128 613.676 400.28 614.356 400.28C615.22 400.28 615.952 400.064 616.552 399.632V396.8ZM628.973 396.8H629.825V400.004C629.433 400.348 628.969 400.612 628.433 400.796C627.897 400.98 627.333 401.072 626.741 401.072C625.901 401.072 625.145 400.888 624.473 400.52C623.801 400.152 623.273 399.644 622.889 398.996C622.505 398.34 622.313 397.608 622.313 396.8C622.313 395.992 622.505 395.264 622.889 394.616C623.273 393.96 623.801 393.448 624.473 393.08C625.145 392.712 625.905 392.528 626.753 392.528C627.393 392.528 627.981 392.632 628.517 392.84C629.053 393.04 629.505 393.34 629.873 393.74L629.321 394.304C628.657 393.648 627.813 393.32 626.789 393.32C626.109 393.32 625.493 393.472 624.941 393.776C624.397 394.072 623.969 394.488 623.657 395.024C623.345 395.552 623.189 396.144 623.189 396.8C623.189 397.456 623.345 398.048 623.657 398.576C623.969 399.104 624.397 399.52 624.941 399.824C625.485 400.128 626.097 400.28 626.777 400.28C627.641 400.28 628.373 400.064 628.973 399.632V396.8ZM638.075 401L636.155 398.3C635.939 398.324 635.715 398.336 635.483 398.336H633.227V401H632.339V392.6H635.483C636.555 392.6 637.395 392.856 638.003 393.368C638.611 393.88 638.915 394.584 638.915 395.48C638.915 396.136 638.747 396.692 638.411 397.148C638.083 397.596 637.611 397.92 636.995 398.12L639.047 401H638.075ZM635.459 397.58C636.291 397.58 636.927 397.396 637.367 397.028C637.807 396.66 638.027 396.144 638.027 395.48C638.027 394.8 637.807 394.28 637.367 393.92C636.927 393.552 636.291 393.368 635.459 393.368H633.227V397.58H635.459ZM644.683 401.072C643.851 401.072 643.095 400.888 642.415 400.52C641.743 400.144 641.215 399.632 640.831 398.984C640.455 398.336 640.267 397.608 640.267 396.8C640.267 395.992 640.455 395.264 640.831 394.616C641.215 393.968 641.743 393.46 642.415 393.092C643.095 392.716 643.851 392.528 644.683 392.528C645.515 392.528 646.263 392.712 646.927 393.08C647.599 393.448 648.127 393.96 648.511 394.616C648.895 395.264 649.087 395.992 649.087 396.8C649.087 397.608 648.895 398.34 648.511 398.996C648.127 399.644 647.599 400.152 646.927 400.52C646.263 400.888 645.515 401.072 644.683 401.072ZM644.683 400.28C645.347 400.28 645.947 400.132 646.483 399.836C647.019 399.532 647.439 399.116 647.743 398.588C648.047 398.052 648.199 397.456 648.199 396.8C648.199 396.144 648.047 395.552 647.743 395.024C647.439 394.488 647.019 394.072 646.483 393.776C645.947 393.472 645.347 393.32 644.683 393.32C644.019 393.32 643.415 393.472 642.871 393.776C642.335 394.072 641.911 394.488 641.599 395.024C641.295 395.552 641.143 396.144 641.143 396.8C641.143 397.456 641.295 398.052 641.599 398.588C641.911 399.116 642.335 399.532 642.871 399.836C643.415 400.132 644.019 400.28 644.683 400.28ZM654.461 401.072C653.373 401.072 652.525 400.76 651.917 400.136C651.309 399.512 651.005 398.604 651.005 397.412V392.6H651.893V397.376C651.893 398.352 652.113 399.08 652.553 399.56C652.993 400.04 653.629 400.28 654.461 400.28C655.301 400.28 655.941 400.04 656.381 399.56C656.821 399.08 657.041 398.352 657.041 397.376V392.6H657.905V397.412C657.905 398.604 657.601 399.512 656.993 400.136C656.393 400.76 655.549 401.072 654.461 401.072ZM663.725 392.6C664.797 392.6 665.637 392.856 666.245 393.368C666.853 393.88 667.157 394.584 667.157 395.48C667.157 396.376 666.853 397.08 666.245 397.592C665.637 398.096 664.797 398.348 663.725 398.348H661.469V401H660.581V392.6H663.725ZM663.701 397.568C664.533 397.568 665.169 397.388 665.609 397.028C666.049 396.66 666.269 396.144 666.269 395.48C666.269 394.8 666.049 394.28 665.609 393.92C665.169 393.552 664.533 393.368 663.701 393.368H661.469V397.568H663.701Z" fill="white"/>
<rect x="714" y="288" width="150" height="150" rx="20" fill="#1A1A1A"/>
<path d="M780.716 334.168C781.868 334.168 782.816 333.712 783.548 332.86L782.612 331.756C782.132 332.272 781.544 332.632 780.776 332.632C779.372 332.632 778.46 331.468 778.46 329.536C778.46 327.628 779.468 326.476 780.812 326.476C781.484 326.476 782 326.788 782.456 327.22L783.38 326.092C782.804 325.492 781.904 324.952 780.776 324.952C778.532 324.952 776.648 326.668 776.648 329.596C776.648 332.56 778.472 334.168 780.716 334.168ZM784.979 334H786.755V330.4H789.911V328.912H786.755V326.596H790.451V325.108H784.979V334ZM795.386 334.168C797.738 334.168 799.358 332.404 799.358 329.524C799.358 326.644 797.738 324.952 795.386 324.952C793.034 324.952 791.414 326.632 791.414 329.524C791.414 332.404 793.034 334.168 795.386 334.168ZM795.386 332.632C794.066 332.632 793.226 331.42 793.226 329.524C793.226 327.616 794.066 326.476 795.386 326.476C796.706 326.476 797.546 327.616 797.546 329.524C797.546 331.42 796.706 332.632 795.386 332.632Z" fill="#DCE4FF"/>
<path d="M769.928 345.46V350.755H768.803V345.685H766.958V354.625C764.918 353.56 764.228 351.265 764.228 348.85V348.475H766.298V346.87H760.043V348.475H762.308V348.85C762.308 351.505 761.648 353.95 759.593 355.15L760.778 356.65C762.068 355.885 762.878 354.58 763.328 352.99C763.823 354.37 764.618 355.48 765.848 356.14L766.958 354.655V358.66H768.803V352.375H769.928V359.275H771.803V345.46H769.928ZM782.722 350.17H777.037V347.71H782.722V350.17ZM784.657 346.15H775.087V351.73H784.657V346.15ZM786.157 353.2H773.647V354.775H778.867V359.29H780.847V354.775H786.157V353.2ZM791.954 351.715C794.489 351.535 796.214 350.83 797.084 349.735C797.939 350.83 799.664 351.535 802.199 351.715L802.784 350.245C799.829 350.065 798.479 349.21 798.224 348.265H802.124V346.72H798.059V345.505H796.079V346.72H792.029V348.265H795.929C795.674 349.21 794.324 350.065 791.369 350.245L791.954 351.715ZM797.054 357.835C795.179 357.835 794.264 357.565 794.264 356.95C794.264 356.32 795.179 356.065 797.054 356.065C798.929 356.065 799.844 356.32 799.844 356.95C799.844 357.565 798.929 357.835 797.054 357.835ZM797.054 354.61C794.039 354.61 792.269 355.435 792.269 356.95C792.269 358.465 794.039 359.305 797.054 359.305C800.069 359.305 801.854 358.465 801.854 356.95C801.854 355.435 800.069 354.61 797.054 354.61ZM798.059 352.405V351.085H796.079V352.405H790.844V353.95H803.324V352.405H798.059ZM812.053 350.305C812.338 348.88 812.338 347.71 812.338 346.87V346.06H805.243V347.605H810.388C810.373 348.28 810.313 349.105 810.133 350.125L812.053 350.305ZM812.953 350.77C811.663 350.905 810.268 350.995 808.903 351.055V348.91H806.953V351.1C806.068 351.115 805.228 351.115 804.448 351.115L804.613 352.645C807.088 352.645 810.208 352.6 813.058 352.12L812.953 350.77ZM808.213 356.89H815.668V353.305H806.203V354.76H813.688V355.525H806.233V359.185H816.118V357.7H808.213V356.89ZM815.668 348.385V345.46H813.688V352.81H815.668V350.005H817.333V348.385H815.668Z" fill="white"/>
<path d="M751.143 374.6V383H750.291V376.28L746.991 381.932H746.571L743.271 376.316V383H742.419V374.6H743.151L746.799 380.828L750.411 374.6H751.143ZM759.148 380.756H754.468L753.46 383H752.536L756.376 374.6H757.252L761.092 383H760.156L759.148 380.756ZM758.824 380.036L756.808 375.524L754.792 380.036H758.824ZM769.501 374.6V383H768.769L763.369 376.184V383H762.481V374.6H763.213L768.625 381.416V374.6H769.501ZM777.511 380.756H772.831L771.823 383H770.899L774.739 374.6H775.615L779.455 383H778.519L777.511 380.756ZM777.187 380.036L775.171 375.524L773.155 380.036H777.187ZM786.643 378.8H787.495V382.004C787.103 382.348 786.639 382.612 786.103 382.796C785.567 382.98 785.003 383.072 784.411 383.072C783.571 383.072 782.815 382.888 782.143 382.52C781.471 382.152 780.943 381.644 780.559 380.996C780.175 380.34 779.983 379.608 779.983 378.8C779.983 377.992 780.175 377.264 780.559 376.616C780.943 375.96 781.471 375.448 782.143 375.08C782.815 374.712 783.575 374.528 784.423 374.528C785.063 374.528 785.651 374.632 786.187 374.84C786.723 375.04 787.175 375.34 787.543 375.74L786.991 376.304C786.327 375.648 785.483 375.32 784.459 375.32C783.779 375.32 783.163 375.472 782.611 375.776C782.067 376.072 781.639 376.488 781.327 377.024C781.015 377.552 780.859 378.144 780.859 378.8C780.859 379.456 781.015 380.048 781.327 380.576C781.639 381.104 782.067 381.52 782.611 381.824C783.155 382.128 783.767 382.28 784.447 382.28C785.311 382.28 786.043 382.064 786.643 381.632V378.8ZM795.949 382.232V383H790.009V374.6H795.769V375.368H790.897V378.356H795.241V379.112H790.897V382.232H795.949ZM806.76 374.6V383H805.908V376.28L802.608 381.932H802.188L798.888 376.316V383H798.036V374.6H798.768L802.416 380.828L806.028 374.6H806.76ZM815.437 382.232V383H809.497V374.6H815.257V375.368H810.385V378.356H814.729V379.112H810.385V382.232H815.437ZM824.544 374.6V383H823.812L818.412 376.184V383H817.524V374.6H818.256L823.668 381.416V374.6H824.544ZM828.918 375.368H825.966V374.6H832.758V375.368H829.806V383H828.918V375.368ZM772.716 396.8H773.568V400.004C773.176 400.348 772.712 400.612 772.176 400.796C771.64 400.98 771.076 401.072 770.484 401.072C769.644 401.072 768.888 400.888 768.216 400.52C767.544 400.152 767.016 399.644 766.632 398.996C766.248 398.34 766.056 397.608 766.056 396.8C766.056 395.992 766.248 395.264 766.632 394.616C767.016 393.96 767.544 393.448 768.216 393.08C768.888 392.712 769.648 392.528 770.496 392.528C771.136 392.528 771.724 392.632 772.26 392.84C772.796 393.04 773.248 393.34 773.616 393.74L773.064 394.304C772.4 393.648 771.556 393.32 770.532 393.32C769.852 393.32 769.236 393.472 768.684 393.776C768.14 394.072 767.712 394.488 767.4 395.024C767.088 395.552 766.932 396.144 766.932 396.8C766.932 397.456 767.088 398.048 767.4 398.576C767.712 399.104 768.14 399.52 768.684 399.824C769.228 400.128 769.84 400.28 770.52 400.28C771.384 400.28 772.116 400.064 772.716 399.632V396.8ZM781.817 401L779.897 398.3C779.681 398.324 779.457 398.336 779.225 398.336H776.969V401H776.081V392.6H779.225C780.297 392.6 781.137 392.856 781.745 393.368C782.353 393.88 782.657 394.584 782.657 395.48C782.657 396.136 782.489 396.692 782.153 397.148C781.825 397.596 781.353 397.92 780.737 398.12L782.789 401H781.817ZM779.201 397.58C780.033 397.58 780.669 397.396 781.109 397.028C781.549 396.66 781.769 396.144 781.769 395.48C781.769 394.8 781.549 394.28 781.109 393.92C780.669 393.552 780.033 393.368 779.201 393.368H776.969V397.58H779.201ZM788.425 401.072C787.593 401.072 786.837 400.888 786.157 400.52C785.485 400.144 784.957 399.632 784.573 398.984C784.197 398.336 784.009 397.608 784.009 396.8C784.009 395.992 784.197 395.264 784.573 394.616C784.957 393.968 785.485 393.46 786.157 393.092C786.837 392.716 787.593 392.528 788.425 392.528C789.257 392.528 790.005 392.712 790.669 393.08C791.341 393.448 791.869 393.96 792.253 394.616C792.637 395.264 792.829 395.992 792.829 396.8C792.829 397.608 792.637 398.34 792.253 398.996C791.869 399.644 791.341 400.152 790.669 400.52C790.005 400.888 789.257 401.072 788.425 401.072ZM788.425 400.28C789.089 400.28 789.689 400.132 790.225 399.836C790.761 399.532 791.181 399.116 791.485 398.588C791.789 398.052 791.941 397.456 791.941 396.8C791.941 396.144 791.789 395.552 791.485 395.024C791.181 394.488 790.761 394.072 790.225 393.776C789.689 393.472 789.089 393.32 788.425 393.32C787.761 393.32 787.157 393.472 786.613 393.776C786.077 394.072 785.653 394.488 785.341 395.024C785.037 395.552 784.885 396.144 784.885 396.8C784.885 397.456 785.037 398.052 785.341 398.588C785.653 399.116 786.077 399.532 786.613 399.836C787.157 400.132 787.761 400.28 788.425 400.28ZM798.203 401.072C797.115 401.072 796.267 400.76 795.659 400.136C795.051 399.512 794.747 398.604 794.747 397.412V392.6H795.635V397.376C795.635 398.352 795.855 399.08 796.295 399.56C796.735 400.04 797.371 400.28 798.203 400.28C799.043 400.28 799.683 400.04 800.123 399.56C800.563 399.08 800.783 398.352 800.783 397.376V392.6H801.647V397.412C801.647 398.604 801.343 399.512 800.735 400.136C800.135 400.76 799.291 401.072 798.203 401.072ZM807.467 392.6C808.539 392.6 809.379 392.856 809.987 393.368C810.595 393.88 810.899 394.584 810.899 395.48C810.899 396.376 810.595 397.08 809.987 397.592C809.379 398.096 808.539 398.348 807.467 398.348H805.211V401H804.323V392.6H807.467ZM807.443 397.568C808.275 397.568 808.911 397.388 809.351 397.028C809.791 396.66 810.011 396.144 810.011 395.48C810.011 394.8 809.791 394.28 809.351 393.92C808.911 393.552 808.275 393.368 807.443 393.368H805.211V397.568H807.443Z" fill="white"/>
</svg>
